# Blender 5.2.0 LTS
# www.blender.org
mtllib body.mtl
o RenderMesh_79215628363676
v -0.042133 1.815820 0.042133
v -0.043547 1.815826 0.043547
v -0.049509 -1.815820 0.049510
v -0.050864 -1.815814 0.050981
v 0.000000 -1.815820 0.070018
v 0.000083 -1.815814 0.072016
v -0.070018 -1.815820 0.000000
v -0.072016 -1.815814 0.000083
v 0.000000 1.815820 0.059585
v 0.000001 1.815826 0.061585
v -0.059584 1.815820 -0.000000
v -0.061584 1.815826 0.000001
v 0.042134 1.815820 0.042133
v 0.043548 1.815826 0.043547
v -0.042133 1.815820 -0.042133
v -0.043547 1.815826 -0.043547
v 0.049510 -1.815820 0.049510
v 0.050981 -1.815814 0.050866
v -0.049509 -1.815820 -0.049510
v -0.050980 -1.815814 -0.050865
v 0.070018 -1.815820 0.000000
v 0.072016 -1.815814 -0.000083
v 0.000000 -1.815820 -0.070018
v -0.000083 -1.815814 -0.072016
v 0.059585 1.815820 -0.000000
v 0.061585 1.815826 -0.000000
v 0.000000 1.815820 -0.059585
v 0.000001 1.815826 -0.061585
v 0.042134 1.815820 -0.042133
v 0.043548 1.815826 -0.043547
v 0.049510 -1.815820 -0.049510
v 0.050865 -1.815814 -0.050981
v 0.041919 1.814823 -0.043225
v 0.049262 -1.814817 -0.050626
v 0.000882 -1.814817 -0.070631
v 0.000924 1.814823 -0.060205
v -0.043225 1.814823 -0.041918
v -0.050625 -1.814817 -0.049262
v -0.070632 -1.814817 -0.000882
v -0.060204 1.814823 -0.000924
v 0.070632 -1.814817 -0.000965
v 0.050568 -1.814817 -0.049319
v 0.043226 1.814823 -0.041918
v 0.060205 1.814823 -0.000924
v -0.043225 1.814823 0.041918
v -0.060204 1.814823 0.000924
v -0.070632 -1.814817 0.000966
v -0.050567 -1.814817 0.049320
v -0.000882 -1.814817 0.070632
v -0.000924 1.814823 0.060205
v -0.041918 1.814823 0.043225
v -0.049261 -1.814817 0.050626
v 0.070632 -1.814817 0.000882
v 0.060205 1.814823 0.000924
v 0.043226 1.814823 0.041918
v 0.050626 -1.814817 0.049262
v 0.000965 -1.814817 0.070632
v 0.049319 -1.814817 0.050568
v 0.041919 1.814823 0.043225
v 0.000924 1.814823 0.060205
v -0.041918 1.814823 -0.043225
v -0.000924 1.814823 -0.060205
v -0.000965 -1.814817 -0.070631
v -0.049318 -1.814817 -0.050568
vn -0.5944 -0.6818 -0.4265
vn -0.6217 0.6773 -0.3934
vn -0.6101 0.4584 0.6463
vn -0.6215 -0.4689 0.6276
vn 0.6350 -0.4301 -0.6417
vn 0.6026 0.4410 -0.6651
vn 0.7270 0.6716 0.1427
vn 0.0260 0.4583 0.8884
vn -0.0450 0.4411 -0.8963
vn 0.7247 -0.6811 0.1046
vn 0.0041 -0.4688 0.8833
vn -0.0045 -0.4301 -0.9028
vn -0.4265 -0.6817 0.5944
vn -0.3934 0.6773 0.6217
vn 0.6463 0.4584 0.6101
vn 0.6276 -0.4689 0.6215
vn -0.6418 -0.4301 -0.6350
vn -0.6651 0.4410 -0.6026
vn 0.1426 0.6716 -0.7271
vn 0.8884 0.4583 -0.0261
vn -0.8963 0.4411 0.0450
vn 0.1045 -0.6810 -0.7248
vn 0.8833 -0.4688 -0.0045
vn -0.9028 -0.4301 0.0052
vn -0.1408 0.6565 -0.7410
vn 0.4135 0.6719 0.6145
vn -0.8884 0.4583 0.0261
vn 0.8963 0.4411 -0.0450
vn 0.4386 -0.6811 0.5863
vn -0.1189 -0.6818 -0.7218
vn -0.8832 -0.4689 0.0043
vn 0.9028 -0.4301 -0.0049
vn -0.4386 -0.6811 -0.5863
vn 0.1193 -0.6818 0.7218
vn 0.6215 -0.4689 -0.6276
vn -0.6350 -0.4301 0.6417
vn 0.1624 0.6773 0.7176
vn -0.4135 0.6719 -0.6145
vn 0.6101 0.4584 -0.6463
vn -0.6026 0.4410 0.6651
vn -0.7001 0.7067 -0.1020
vn -0.7248 -0.6810 -0.1045
vn -0.0045 -0.4688 -0.8833
vn -0.0261 0.4583 -0.8884
vn 0.0450 0.4411 0.8963
vn 0.0052 -0.4301 0.9028
vn 0.5944 -0.6818 0.4265
vn 0.6217 0.6773 0.3934
vn -0.1021 0.7067 0.7001
vn -0.1043 -0.6811 0.7247
vn 0.4265 -0.6817 -0.5944
vn -0.6276 -0.4689 -0.6215
vn 0.6417 -0.4301 0.6350
vn 0.3934 0.6773 -0.6217
vn -0.6463 0.4584 -0.6101
vn 0.6651 0.4410 0.6026
vn 0.7410 0.6565 -0.1409
vn -0.6145 0.6719 0.4135
vn -0.5863 -0.6811 0.4386
vn 0.7218 -0.6817 -0.1193
vn 0.5863 -0.6811 -0.4386
vn -0.7219 -0.6817 0.1191
vn -0.7176 0.6773 0.1623
vn 0.6145 0.6719 -0.4135
vt 0.000000 0.000000
s 1
f 33/1/1 34/1/2 31/1/3 29/1/4
f 34/1/2 33/1/1 30/1/5 32/1/6
f 34/1/2 35/1/7 23/1/8 31/1/3
f 35/1/7 34/1/2 32/1/6 24/1/9
f 35/1/7 36/1/10 27/1/11 23/1/8
f 36/1/10 35/1/7 24/1/9 28/1/12
f 36/1/10 33/1/1 29/1/4 27/1/11
f 33/1/1 36/1/10 28/1/12 30/1/5
f 37/1/13 38/1/14 19/1/15 15/1/16
f 38/1/14 37/1/13 16/1/17 20/1/18
f 38/1/14 39/1/19 7/1/20 19/1/15
f 39/1/19 38/1/14 20/1/18 8/1/21
f 39/1/19 40/1/22 11/1/23 7/1/20
f 40/1/22 39/1/19 8/1/21 12/1/24
f 40/1/22 37/1/13 15/1/16 11/1/23
f 37/1/13 40/1/22 12/1/24 16/1/17
f 41/1/25 42/1/26 31/1/3 21/1/27
f 42/1/26 41/1/25 22/1/28 32/1/6
f 42/1/26 43/1/29 29/1/4 31/1/3
f 43/1/29 42/1/26 32/1/6 30/1/5
f 43/1/29 44/1/30 25/1/31 29/1/4
f 44/1/30 43/1/29 30/1/5 26/1/32
f 44/1/30 41/1/25 21/1/27 25/1/31
f 41/1/25 44/1/30 26/1/32 22/1/28
f 45/1/33 46/1/34 11/1/23 1/1/35
f 46/1/34 45/1/33 2/1/36 12/1/24
f 46/1/34 47/1/37 7/1/20 11/1/23
f 47/1/37 46/1/34 12/1/24 8/1/21
f 47/1/37 48/1/38 3/1/39 7/1/20
f 48/1/38 47/1/37 8/1/21 4/1/40
f 48/1/38 45/1/33 1/1/35 3/1/39
f 45/1/33 48/1/38 4/1/40 2/1/36
f 49/1/41 50/1/42 9/1/43 5/1/44
f 50/1/42 49/1/41 6/1/45 10/1/46
f 50/1/42 51/1/47 1/1/35 9/1/43
f 51/1/47 50/1/42 10/1/46 2/1/36
f 51/1/47 52/1/48 3/1/39 1/1/35
f 52/1/48 51/1/47 2/1/36 4/1/40
f 52/1/48 49/1/41 5/1/44 3/1/39
f 49/1/41 52/1/48 4/1/40 6/1/45
f 53/1/49 54/1/50 25/1/31 21/1/27
f 54/1/50 53/1/49 22/1/28 26/1/32
f 54/1/50 55/1/51 13/1/52 25/1/31
f 55/1/51 54/1/50 26/1/32 14/1/53
f 55/1/51 56/1/54 17/1/55 13/1/52
f 56/1/54 55/1/51 14/1/53 18/1/56
f 56/1/54 53/1/49 21/1/27 17/1/55
f 53/1/49 56/1/54 18/1/56 22/1/28
f 57/1/57 58/1/58 17/1/55 5/1/44
f 58/1/58 57/1/57 6/1/45 18/1/56
f 58/1/58 59/1/59 13/1/52 17/1/55
f 59/1/59 58/1/58 18/1/56 14/1/53
f 59/1/59 60/1/60 9/1/43 13/1/52
f 60/1/60 59/1/59 14/1/53 10/1/46
f 60/1/60 57/1/57 5/1/44 9/1/43
f 57/1/57 60/1/60 10/1/46 6/1/45
f 61/1/61 62/1/62 27/1/11 15/1/16
f 62/1/62 61/1/61 16/1/17 28/1/12
f 62/1/62 63/1/63 23/1/8 27/1/11
f 63/1/63 62/1/62 28/1/12 24/1/9
f 63/1/63 64/1/64 19/1/15 23/1/8
f 64/1/64 63/1/63 24/1/9 20/1/18
f 64/1/64 61/1/61 15/1/16 19/1/15
f 61/1/61 64/1/64 20/1/18 16/1/17
