# Made in Blockbench 5.1.6
mtllib elec mag.mtl

o unknown
v 0.144539 0.242626 -0.025707
v 0.194151 0.22913499999999998 -0.025707
v 0.169346 0.23587999999999998 -0.036355
v 0.134265 0.245421 0
v 0.204427 0.22633999999999999 0
v 0.194151 0.22913499999999998 0.025707
v 0.144539 0.242626 0.025707
v 0.169346 0.23587999999999998 0.036355
v 0.045373000000000004 0.263258 -0.025707
v 0.095455 0.251639 -0.025707
v 0.070414 0.257448 -0.036355
v 0.035 0.265664 0
v 0.105829 0.24923299999999998 0
v 0.095455 0.251639 0.025707
v 0.045373000000000004 0.263258 0.025707
v 0.070414 0.257448 0.036355
v 0.015414000000000004 -0.14577600000000002 -0.025707
v 0.074203 -0.16566399999999998 0
v 0.005326999999999998 -0.14236300000000002 0
v 0.064116 -0.162252 -0.025707
v 0.039765 -0.15401399999999998 -0.036355
v 0.064116 -0.162252 0.025707
v 0.015414000000000004 -0.14577600000000002 0.025707
v 0.039765 -0.15401399999999998 0.036355
v -0.033102 -0.125276 -0.025707
v -0.09192600000000001 -0.10549099999999999 0
v -0.08183400000000002 -0.108886 -0.025707
v -0.057468 -0.117081 -0.036355
v -0.023008999999999995 -0.12867099999999998 0
v -0.033102 -0.125276 0.025707
v -0.08183400000000002 -0.108886 0.025707
v -0.057468 -0.117081 0.036355
v 0.064116 -0.162252 0.025707
v 0.150014 0.017636000000000006 0.036355
v 0.039765 -0.15401399999999998 0.036355
v 0.12512 0.024052000000000004 0.025707
v 0.015414000000000004 -0.14577600000000002 0.025707
v 0.005326999999999998 -0.14236300000000002 0
v 0.169346 0.23587999999999998 0.036355
v 0.144539 0.242626 0.025707
v 0.194151 0.22913499999999998 0.025707
v 0.114809 0.026709000000000004 0
v 0.134265 0.245421 0
v 0.144539 0.242626 -0.025707
v 0.12512 0.024052000000000004 -0.025707
v 0.015414000000000004 -0.14577600000000002 -0.025707
v 0.169346 0.23587999999999998 -0.036355
v 0.039765 -0.15401399999999998 -0.036355
v 0.150014 0.017636000000000006 -0.036355
v 0.194151 0.22913499999999998 -0.025707
v 0.064116 -0.162252 -0.025707
v 0.174907 0.01122 -0.025707
v 0.204427 0.22633999999999999 0
v 0.185219 0.008563000000000001 0
v 0.074203 -0.16566399999999998 0
v 0.174907 0.01122 0.025707
v 0.012242000000000003 0.050013 0
v 0.045373000000000004 0.263258 0.025707
v 0.035 0.265664 0
v 0.045373000000000004 0.263258 -0.025707
v 0.022583 0.047474 0.025707
v 0.022583 0.047474 -0.025707
v 0.070414 0.257448 0.036355
v 0.070414 0.257448 -0.036355
v -0.09192600000000001 -0.10549099999999999 0
v -0.08183400000000002 -0.108886 0.025707
v -0.08183400000000002 -0.108886 -0.025707
v -0.057468 -0.117081 0.036355
v -0.057468 -0.117081 -0.036355
v 0.047547 0.041343000000000005 0.036355
v -0.033102 -0.125276 0.025707
v 0.095455 0.251639 0.025707
v 0.047547 0.041343000000000005 -0.036355
v -0.033102 -0.125276 -0.025707
v 0.095455 0.251639 -0.025707
v 0.072513 0.035212 0.025707
v 0.105829 0.24923299999999998 0
v 0.082854 0.03267200000000001 0
v -0.023008999999999995 -0.12867099999999998 0
v 0.072513 0.035212 -0.025707
vt 0 0
vt 0 0
vt 0 0
vt 0 0
vt 0 0
vt 0 0
vt 0 0
vt 0 0
vt 0 0
vt 0 0
vt 0 0
vt 0 0
vt 0 0
vt 0 0
vt 0 0
vt 0 0
vt 0 0
vt 0 0
vt 0 0
vt 0 0
vt 0 0
vt 0 0
vt 0 0
vt 0 0
vt 0 0
vt 0 0
vt 0 0
vt 0 0
vt 0 0
vt 0 0
vt 0 0
vt 0 0
vt 0 0
vt 0 0
vt 0 0
vt 0 0
vt 0 0
vt 0 0
vt 0 0
vt 0 0
vt 0 0
vt 0 0
vt 0 0
vt 0 0
vt 0 0
vt 0 0
vt 0 0
vt 0 0
vt 0 0
vt 0 0
vt 0 0
vt 0 0
vt 0 0
vt 0 0
vt 0 0
vt 0 0
vt 0 0
vt 0 0
vt 0 0
vt 0 0
vt 0 0
vt 0 0
vt 0 0
vt 0 0
vt 0 0
vt 0 0
vt 0 0
vt 0 0
vt 0 0
vt 0 0
vt 0 0
vt 0 0
vt 0 0
vt 0 0
vt 0 0
vt 0 0
vt 0 0
vt 0 0
vt 0 0
vt 0 0
vt 0 0
vt 0 0
vt 0 0
vt 0 0
vt 0 0
vt 0 0
vt 0 0
vt 0 0
vt 0 0
vt 0 0
vt 0 0
vt 0 0
vt 0 0
vt 0 0
vt 0 0
vt 0 0
vt 0 0
vt 0 0
vt 0 0
vt 0 0
vt 0 0
vt 0 0
vt 0 0
vt 0 0
vt 0 0
vt 0 0
vt 0 0
vt 0 0
vt 0 0
vt 0 0
vt 0 0
vt 0 0
vt 0 0
vt 0 0
vt 0 0
vt 0 0
vt 0 0
vt 0 0
vt 0 0
vt 0 0
vt 0 0
vt 0 0
vt 0 0
vt 0 0
vt 0 0
vt 0 0
vt 0 0
vt 0 0
vt 0 0
vt 0 0
vt 0 0
vt 0 0
vt 0 0
vt 0 0
vt 0 0
vt 0 0
vt 0 0
vt 0 0
vt 0 0
vt 0 0
vt 0 0
vt 0 0
vt 0 0
vt 0 0
vt 0 0
vt 0 0
vt 0 0
vt 0 0
vt 0 0
vt 0 0
vt 0 0
vt 0 0
vt 0 0
vt 0 0
vt 0 0
vt 0 0
vt 0 0
vt 0 0
vt 0 0
vt 0 0
vt 0 0
vt 0 0
vt 0 0
vt 0 0
vt 0 0
vt 0 0
vt 0 0
vt 0 0
vt 0 0
vt 0 0
vt 0 0
vt 0 0
vt 0 0
vt 0 0
vt 0 0
vt 0 0
vt 0 0
vt 0 0
vt 0 0
vt 0 0
vt 0 0
vt 0 0
vt 0 0
vt 0 0
vt 0 0
vt 0 0
vt 0 0
vt 0 0
vt 0 0
vt 0 0
vt 0 0
vt 0 0
vt 0 0
vt 0 0
vt 0 0
vt 0 0
vt 0 0
vt 0 0
vt 0 0
vt 0 0
vt 0 0
vt 0 0
vt 0 0
vt 0 0
vt 0 0
vt 0 0
vt 0 0
vt 0 0
vt 0 0
vt 0 0
vt 0 0
vt 0 0
vt 0 0
vt 0 0
vt 0 0
vt 0 0
vt 0 0
vt 0 0
vt 0 0
vt 0 0
vt 0 0
vt 0 0
vt 0 0
vt 0 0
vt 0 0
vt 0 0
vt 0 0
vt 0 0
vt 0 0
vt 0 0
vt 0 0
vt 0 0
vt 0 0
vt 0 0
vt 0 0
vt 0 0
vt 0 0
vt 0 0
vt 0 0
vt 0 0
vt 0 0
vt 0 0
vt 0 0
vt 0 0
vt 0 0
vt 0 0
vt 0 0
vt 0 0
vt 0 0
vt 0 0
vt 0 0
vt 0 0
vt 0 0
vt 0 0
vt 0 0
vt 0 0
vt 0 0
vt 0 0
vt 0 0
vt 0 0
vt 0 0
vt 0 0
vt 0 0
vt 0 0
vn 0.2624014196673999 0.964958804576313 -0.000020668480711939512
vn 0.26240141946194817 0.9649588038207818 -0.00004464438196004047
vn 0.26242491699133375 0.9649524147553035 0.00001414214953583121
vn 0.26242491699133375 0.9649524147553035 -0.000014142149535816709
vn 0.26240141946194817 0.9649588038207818 0.000044644381960102
vn 0.2624014196673999 0.964958804576313 0.000020668480711939512
vn 0.22599721674578643 0.9741279463863054 -0.00004574229650705414
vn 0.2259972169364648 0.9741279472081968 0.000020122546350691147
vn 0.22598032834727036 0.9741318651639469 -0.000021731773062138686
vn 0.22598032834727036 0.9741318651639469 0.000021731773062196688
vn 0.22599721693646482 0.9741279472081968 -0.000020122546350711656
vn 0.22599721674578643 0.9741279463863054 0.00004574229650705414
vn -0.3204619545098535 -0.9472613870143203 0.000019581387909175756
vn -0.3204608583469252 -0.9472617579031293 0.00001678765238879908
vn -0.3204608583920822 -0.9472617580366105 0
vn -0.32046195452351817 -0.9472613870547123 -0.000017266995295112458
vn -0.3204608583276001 -0.9472617578460056 -0.000020060745241054927
vn -0.3204608583920822 -0.9472617580366105 0
vn -0.31878232292859404 -0.9478279536886065 0.000028190756504417818
vn -0.31878232305526516 -0.9478279540652347 1.0892315133903418e-15
vn -0.3187970612552475 -0.9478229970029286 -0.000009349032393390431
vn -0.3187970612552475 -0.9478229970029286 0.000009349032393404932
vn -0.318782322928594 -0.9478279536886064 -0.00002819075650445883
vn -0.31878232305526516 -0.9478279540652347 -9.902104667184925e-16
vn 0.3303691948489085 -0.21219267907309822 0.9196904164134067
vn -0.33637986629120525 0.21605327048493492 0.9166076422694033
vn -0.32999706128347134 0.213172489843633 0.919597427746587
vn -0.7794634438023796 0.5035201295768887 0.37269856303265764
vn -0.3855846527895431 0.03415499398713114 0.9220400815143052
vn -0.3863053046543433 0.034320928889450236 0.9217322200270968
vn 0.3863566755523905 -0.034223379574140934 0.9217143155808253
vn -0.922051612101872 0.0819188021237945 0.37829900142472184
vn -0.7812584710690748 0.5059012724140275 0.3656488806938694
vn -0.922349081546171 0.08204956166356808 0.3775447539057471
vn -0.922349081546171 0.08204956166356808 -0.37754475390574704
vn -0.7812584710690748 0.5059012724140275 -0.3656488806938694
vn -0.922051612101872 0.08191880212379449 -0.3782990014247219
vn -0.7794634438023796 0.5035201295768887 -0.37269856303265764
vn -0.3863053046543434 0.034320928889450236 -0.9217322200270968
vn -0.32999706128347134 0.21317248984363302 -0.919597427746587
vn -0.3855846527895431 0.03415499398713114 -0.9220400815143052
vn -0.33637986629120525 0.21605327048493497 -0.9166076422694035
vn 0.38635667555239056 -0.03422337957414093 -0.9217143155808253
vn 0.3303691948489085 -0.21219267907309822 -0.9196904164134067
vn 0.3856212097175598 -0.03405407869951457 -0.922028525773413
vn 0.3367045960682916 -0.21504242127260945 -0.9167261161544936
vn 0.9223917403912002 -0.0814561028478455 -0.37756904079510284
vn 0.7841936770439701 -0.50083933818356 -0.36633350135103826
vn 0.9221051755913633 -0.08132996695132594 -0.3782954951136972
vn 0.7824208928828434 -0.4985521064145153 -0.37318004176277153
vn 0.7824208928828434 -0.4985521064145153 0.37318004176277153
vn 0.9221051755913635 -0.08132996695132595 0.37829549511369714
vn 0.7841936770439701 -0.50083933818356 0.36633350135103837
vn 0.9223917403912002 -0.0814561028478455 0.37756904079510273
vn 0.3367045960682916 -0.21504242127260945 0.9167261161544936
vn 0.3856212097175598 -0.03405407869951457 0.922028525773413
vn -0.9197858291895482 0.09706649123210993 0.3802264124202608
vn -0.9197858291895481 0.09706649123210992 -0.3802264124202606
vn -0.9200010236845245 0.09716579231903347 0.37968003005483686
vn -0.9200010236845245 0.09716579231903348 -0.37968003005483675
vn -0.3830304415001788 0.04045371186829921 0.9228494883133732
vn -0.3830304415001788 0.04045371186829921 -0.9228494883133733
vn -0.7742515831690203 0.5186505743617561 0.3626790146596388
vn -0.7742515831690203 0.5186505743617561 -0.3626790146596388
vn -0.7721844995071798 0.5156637815620441 0.3712438054782581
vn -0.7721844995071797 0.515663781562044 -0.3712438054782585
vn -0.327935965607263 0.21899520159128674 0.918966323725317
vn -0.327935965607263 0.2189952015912867 -0.9189663237253167
vn -0.3357423548979444 0.22255455865025267 0.9152849499208288
vn -0.38356238395968256 0.04058638640478499 0.9226226979918533
vn 0.3284270340327642 -0.21770542960000208 0.9190973992124667
vn 0.38301586968770635 -0.040528557377889365 0.9228522523157415
vn -0.3357423548979444 0.22255455865025267 -0.9152849499208288
vn -0.38356238395968256 0.04058638640478499 -0.9226226979918533
vn 0.3284270340327642 -0.21770542960000208 -0.9190973992124667
vn 0.3830158696877064 -0.040528557377889386 -0.9228522523157415
vn 0.3835209830952277 -0.040654531986169536 0.9226369082985222
vn 0.33612750301736977 -0.2212010008921509 0.9154716920361978
vn 0.9197202873788022 -0.0974934866400425 0.3802757066216844
vn 0.7781606731556343 -0.5120971006887264 0.3636241551659773
vn 0.919945435186655 -0.09759719604828847 0.37970407372419385
vn 0.776100461890342 -0.5092276900584299 0.3719613323066713
vn 0.7761004618903418 -0.5092276900584299 -0.3719613323066712
vn 0.919945435186655 -0.09759719604828847 -0.37970407372419385
vn 0.7781606731556343 -0.5120971006887265 -0.36362415516597724
vn 0.9197202873788023 -0.09749348664004251 -0.38027570662168436
vn 0.3361275030173699 -0.22120100089215095 -0.9154716920361976
vn 0.3835209830952278 -0.040654531986169536 -0.9226369082985222
usemtl none
f 1/1/1 2/2/1 3/3/1
f 4/4/2 2/5/2 1/6/2
f 2/7/3 4/8/3 5/9/3
f 4/10/4 6/11/4 5/12/4
f 6/13/5 4/14/5 7/15/5
f 6/16/6 7/17/6 8/18/6
f 9/19/7 10/20/7 11/21/7
f 12/22/8 10/23/8 9/24/8
f 10/25/9 12/26/9 13/27/9
f 12/28/10 14/29/10 13/30/10
f 14/31/11 12/32/11 15/33/11
f 14/34/12 15/35/12 16/36/12
f 17/37/13 18/38/13 19/39/13
f 18/40/14 17/41/14 20/42/14
f 20/43/15 17/44/15 21/45/15
f 22/46/16 19/47/16 18/48/16
f 19/49/17 22/50/17 23/51/17
f 23/52/18 22/53/18 24/54/18
f 25/55/19 26/56/19 27/57/19
f 25/58/20 27/59/20 28/60/20
f 29/61/21 26/62/21 25/63/21
f 30/64/22 26/65/22 29/66/22
f 26/67/23 30/68/23 31/69/23
f 31/70/24 30/71/24 32/72/24
f 33/73/25 34/74/25 35/75/25
f 36/76/26 35/77/26 34/78/26
f 35/79/27 36/80/27 37/81/27
f 37/82/28 36/83/28 38/84/28
f 34/85/29 39/86/29 36/87/29
f 36/88/30 39/89/30 40/90/30
f 34/91/31 41/92/31 39/93/31
f 36/94/32 40/95/32 42/96/32
f 42/97/33 38/98/33 36/99/33
f 43/100/34 42/101/34 40/102/34
f 44/103/35 42/104/35 43/105/35
f 45/106/36 38/107/36 42/108/36
f 42/109/37 44/110/37 45/111/37
f 38/112/38 45/113/38 46/114/38
f 47/115/39 45/116/39 44/117/39
f 46/118/40 45/119/40 48/120/40
f 45/121/41 47/122/41 49/123/41
f 49/124/42 48/125/42 45/126/42
f 50/127/43 49/128/43 47/129/43
f 48/130/44 49/131/44 51/132/44
f 49/133/45 50/134/45 52/135/45
f 52/136/46 51/137/46 49/138/46
f 53/139/47 52/140/47 50/141/47
f 54/142/48 51/143/48 52/144/48
f 52/145/49 53/146/49 54/147/49
f 51/148/50 54/149/50 55/150/50
f 54/151/51 33/152/51 55/153/51
f 53/154/52 56/155/52 54/156/52
f 33/157/53 54/158/53 56/159/53
f 56/160/54 53/161/54 41/162/54
f 34/163/55 33/164/55 56/165/55
f 56/166/56 41/167/56 34/168/56
f 57/169/57 58/170/57 59/171/57
f 60/172/58 57/173/58 59/174/58
f 58/175/59 57/176/59 61/177/59
f 57/178/60 60/179/60 62/180/60
f 61/181/61 63/182/61 58/183/61
f 64/184/62 62/185/62 60/186/62
f 65/187/63 61/188/63 57/189/63
f 62/190/64 65/191/64 57/192/64
f 61/193/65 65/194/65 66/195/65
f 65/196/66 62/197/66 67/198/66
f 68/199/67 61/200/67 66/201/67
f 62/202/68 69/203/68 67/204/68
f 61/205/69 68/206/69 70/207/69
f 70/208/70 63/209/70 61/210/70
f 71/211/71 70/212/71 68/213/71
f 70/214/72 72/215/72 63/216/72
f 69/217/73 62/218/73 73/219/73
f 62/220/74 64/221/74 73/222/74
f 73/223/75 74/224/75 69/225/75
f 75/226/76 73/227/76 64/228/76
f 76/229/77 72/230/77 70/231/77
f 70/232/78 71/233/78 76/234/78
f 72/235/79 76/236/79 77/237/79
f 76/238/80 71/239/80 78/240/80
f 78/241/81 77/242/81 76/243/81
f 79/244/82 78/245/82 71/246/82
f 74/247/83 78/248/83 79/249/83
f 80/250/84 77/251/84 78/252/84
f 78/253/85 74/254/85 80/255/85
f 77/256/86 80/257/86 75/258/86
f 74/259/87 73/260/87 80/261/87
f 73/262/88 75/263/88 80/264/88
o unknown
v 0.292635 0.262537 -0.082992
v -0.066053 0.352852 -0.082992
v -0.066053 0.352852 0.082992
v 0.292635 0.262537 0.082992
v -0.292635 -0.225461 -0.100968
v 0.138956 -0.352853 -0.100968
v 0.138956 -0.352853 0.100968
v -0.292635 -0.225461 0.100968
v 0.158773 -0.285716 0.100968
v 0.138956 -0.352853 -0.100968
v 0.158773 -0.285716 -0.100968
v 0.138956 -0.352853 0.100968
v 0.14201 -0.222065 -0.082992
v 0.14201 -0.222065 0.082992
v 0.284893 -0.013941 -0.082992
v 0.284893 -0.013941 0.082992
v 0.292635 0.262537 -0.082992
v 0.292635 0.262537 0.082992
v -0.292635 -0.225461 -0.100968
v -0.292635 -0.225461 0.100968
v -0.272819 -0.158324 -0.100968
v -0.272819 -0.158324 0.100968
v -0.212743 -0.117353 0.082992
v -0.212743 -0.117353 -0.082992
v -0.073795 0.076374 0.082992
v -0.073795 0.076374 -0.082992
v -0.066053 0.352852 0.082992
v -0.066053 0.352852 -0.082992
v 0.158773 -0.285716 0.100968
v -0.292635 -0.225461 0.100968
v 0.138956 -0.352853 0.100968
v -0.272819 -0.158324 0.100968
v -0.212743 -0.117353 0.082992
v 0.14201 -0.222065 0.082992
v -0.110993 -0.082079 0.082992
v -0.073795 0.076374 0.082992
v 0.113477 -0.148336 0.082992
v -0.013774 0.061261 0.082992
v 0.284893 -0.013941 0.082992
v 0.000043 0.271618 0.082992
v 0.213186 0.004114 0.082992
v -0.066053 0.352852 0.082992
v 0.227003 0.214472 0.082992
v 0.292635 0.262537 0.082992
v 0.138956 -0.352853 -0.100968
v -0.292635 -0.225461 -0.100968
v 0.158773 -0.285716 -0.100968
v -0.272819 -0.158324 -0.100968
v -0.212743 -0.117353 -0.082992
v 0.14201 -0.222065 -0.082992
v -0.110993 -0.082079 -0.082992
v -0.073795 0.076374 -0.082992
v 0.113477 -0.148336 -0.082992
v -0.013774 0.061261 -0.082992
v 0.284893 -0.013941 -0.082992
v 0.000043 0.271618 -0.082992
v 0.213186 0.004114 -0.082992
v -0.066053 0.352852 -0.082992
v 0.227003 0.214472 -0.082992
v 0.292635 0.262537 -0.082992
v 0.000043 0.271618 -0.082992
v 0.000043 0.271618 0.082992
v -0.013774 0.061261 -0.082992
v -0.013774 0.061261 0.082992
v -0.110993 -0.082079 -0.082992
v -0.110993 -0.082079 0.082992
v -0.110993 -0.082079 -0.082992
v -0.110993 -0.082079 0.082992
v 0.113477 -0.148336 -0.082992
v 0.113477 -0.148336 0.082992
v 0.213186 0.004114 -0.082992
v 0.213186 0.004114 0.082992
v 0.227003 0.214472 -0.082992
v 0.227003 0.214472 0.082992
v 0.113477 -0.148336 0.082992
v 0.113477 -0.148336 -0.082992
v 0.227003 0.214472 -0.082992
v 0.227003 0.214472 0.082992
v 0.000043 0.271618 -0.082992
v 0.000043 0.271618 0.082992
vt 0 0
vt 0 0
vt 0 0
vt 0 0
vt 0 0
vt 0 0
vt 0 0
vt 0 0
vt 0 0
vt 0 0
vt 0 0
vt 0 0
vt 0 0
vt 0 0
vt 0 0
vt 0 0
vt 0 0
vt 0 0
vt 0 0
vt 0 0
vt 0 0
vt 0 0
vt 0 0
vt 0 0
vt 0 0
vt 0 0
vt 0 0
vt 0 0
vt 0 0
vt 0 0
vt 0 0
vt 0 0
vt 0 0
vt 0 0
vt 0 0
vt 0 0
vt 0 0
vt 0 0
vt 0 0
vt 0 0
vt 0 0
vt 0 0
vt 0 0
vt 0 0
vt 0 0
vt 0 0
vt 0 0
vt 0 0
vt 0 0
vt 0 0
vt 0 0
vt 0 0
vt 0 0
vt 0 0
vt 0 0
vt 0 0
vt 0 0
vt 0 0
vt 0 0
vt 0 0
vt 0 0
vt 0 0
vt 0 0
vt 0 0
vt 0 0
vt 0 0
vt 0 0
vt 0 0
vt 0 0
vt 0 0
vt 0 0
vt 0 0
vt 0 0
vt 0 0
vt 0 0
vt 0 0
vt 0 0
vt 0 0
vt 0 0
vt 0 0
vt 0 0
vt 0 0
vt 0 0
vt 0 0
vt 0 0
vt 0 0
vt 0 0
vt 0 0
vt 0 0
vt 0 0
vt 0 0
vt 0 0
vt 0 0
vt 0 0
vt 0 0
vt 0 0
vt 0 0
vt 0 0
vt 0 0
vt 0 0
vt 0 0
vt 0 0
vt 0 0
vt 0 0
vt 0 0
vt 0 0
vt 0 0
vt 0 0
vt 0 0
vt 0 0
vt 0 0
vt 0 0
vt 0 0
vt 0 0
vt 0 0
vt 0 0
vt 0 0
vt 0 0
vt 0 0
vt 0 0
vt 0 0
vt 0 0
vt 0 0
vt 0 0
vt 0 0
vt 0 0
vt 0 0
vt 0 0
vt 0 0
vt 0 0
vt 0 0
vt 0 0
vt 0 0
vt 0 0
vt 0 0
vt 0 0
vt 0 0
vt 0 0
vt 0 0
vt 0 0
vt 0 0
vt 0 0
vt 0 0
vt 0 0
vt 0 0
vt 0 0
vt 0 0
vt 0 0
vt 0 0
vt 0 0
vt 0 0
vt 0 0
vt 0 0
vt 0 0
vt 0 0
vt 0 0
vt 0 0
vt 0 0
vt 0 0
vt 0 0
vt 0 0
vt 0 0
vt 0 0
vt 0 0
vt 0 0
vt 0 0
vt 0 0
vt 0 0
vt 0 0
vt 0 0
vt 0 0
vt 0 0
vt 0 0
vt 0 0
vt 0 0
vt 0 0
vt 0 0
vt 0 0
vt 0 0
vt 0 0
vt 0 0
vt 0 0
vt 0 0
vt 0 0
vt 0 0
vt 0 0
vt 0 0
vt 0 0
vt 0 0
vt 0 0
vt 0 0
vt 0 0
vn 0.24417140690528022 0.9697320888007659 0
vn 0.24417140690528022 0.9697320888007659 0
vn -0.28309367378338823 -0.9590922645208984 0
vn -0.28309367378338823 -0.9590922645208984 0
vn 0.9590911668110303 -0.28309739268502004 0
vn 0.9590911668110303 -0.28309739268502004 0
vn 0.9670268957242881 0.25467426832298373 0
vn 0.967026895724288 0.2546742683229837 0
vn 0.8244157552734612 -0.5659846839419672 0
vn 0.8244157552734612 -0.5659846839419672 0
vn 0.9996081680316214 -0.02799125585725007 0
vn 0.9996081680316214 -0.02799125585725007 0
vn -0.9590950455039523 0.283084251928241 0
vn -0.9590950455039523 0.283084251928241 0
vn -0.563431552352762 0.8261627477763427 0
vn -0.5634315523527621 0.8261627477763428 0
vn -0.8125979765226964 0.5828246121700932 0
vn -0.8125979765226964 0.5828246121700932 0
vn -0.9996081680316214 0.02799125585725017 0
vn -0.9996081680316214 0.02799125585725017 0
vn 0 0 1
vn 0 0 1
vn 0.0861031928416546 0.2917094417617698 0.952623662192741
vn 0.08610404972084798 0.2917112647129267 0.9526230265226927
vn 0 0 1
vn 0 0 1
vn 0 0 1
vn 0 0 1
vn 0 0 1
vn 0 0 1
vn 0 0 1
vn 0 0 1
vn 0 0 1
vn 0 0 1
vn 0 0 1
vn 0 0 1
vn 0 0 -1
vn 0 0 -1
vn 0.0861031928416546 0.2917094417617698 -0.952623662192741
vn 0.08610404972084801 0.29171126471292674 -0.9526230265226925
vn 0 0 -1
vn 0 0 -1
vn 0 0 -1
vn 0 0 -1
vn 0 0 -1
vn 0 0 -1
vn 0 0 -1
vn 0 0 -1
vn 0 0 -1
vn 0 0 -1
vn 0 0 -1
vn 0 0 -1
vn 0.9978497889682774 -0.06554234246625826 0
vn 0.9978497889682774 -0.06554234246625826 0
vn 0.827602986462039 -0.5613139021965464 0
vn 0.827602986462039 -0.5613139021965464 0
vn 0.283095883440883 0.9590916122971914 0
vn 0.283095883440883 0.9590916122971914 0
vn -0.99784980934569 0.06554203222948222 0
vn -0.99784980934569 0.06554203222948222 0
vn -0.836893786498403 0.547365316877463 0
vn -0.836893786498403 0.547365316877463 0
vn -0.24416795727348065 -0.9697329573861537 0
vn -0.24416795727348065 -0.9697329573861537 0
usemtl none
f 81/265/89 82/266/89 83/267/89
f 81/268/90 83/269/90 84/270/90
f 85/271/91 86/272/91 87/273/91
f 85/274/92 87/275/92 88/276/92
f 89/277/93 90/278/93 91/279/93
f 90/280/94 89/281/94 92/282/94
f 93/283/95 89/284/95 91/285/95
f 89/286/96 93/287/96 94/288/96
f 95/289/97 94/290/97 93/291/97
f 94/292/98 95/293/98 96/294/98
f 97/295/99 96/296/99 95/297/99
f 96/298/100 97/299/100 98/300/100
f 99/301/101 100/302/101 101/303/101
f 101/304/102 100/305/102 102/306/102
f 101/307/103 102/308/103 103/309/103
f 103/310/104 104/311/104 101/312/104
f 104/313/105 103/314/105 105/315/105
f 106/316/106 104/317/106 105/318/106
f 106/319/107 105/320/107 107/321/107
f 108/322/108 106/323/108 107/324/108
f 109/325/109 110/326/109 111/327/109
f 110/328/110 109/329/110 112/330/110
f 109/331/111 113/332/111 112/333/111
f 113/334/112 109/335/112 114/336/112
f 114/337/113 115/338/113 113/339/113
f 116/340/114 113/341/114 115/342/114
f 115/343/115 114/344/115 117/345/115
f 116/346/116 115/347/116 118/348/116
f 119/349/117 117/350/117 114/351/117
f 120/352/118 116/353/118 118/354/118
f 117/355/119 119/356/119 121/357/119
f 116/358/120 120/359/120 122/360/120
f 123/361/121 121/362/121 119/363/121
f 124/364/122 122/365/122 120/366/122
f 124/367/123 120/368/123 123/369/123
f 119/370/124 124/371/124 123/372/124
f 125/373/125 126/374/125 127/375/125
f 127/376/126 126/377/126 128/378/126
f 127/379/127 128/380/127 129/381/127
f 127/382/128 129/383/128 130/384/128
f 130/385/129 129/386/129 131/387/129
f 132/388/130 131/389/130 129/390/130
f 130/391/131 131/392/131 133/393/131
f 131/394/132 132/395/132 134/396/132
f 133/397/133 135/398/133 130/399/133
f 132/400/134 136/401/134 134/402/134
f 135/403/135 133/404/135 137/405/135
f 132/406/136 138/407/136 136/408/136
f 139/409/137 135/410/137 137/411/137
f 140/412/138 136/413/138 138/414/138
f 135/415/139 139/416/139 140/417/139
f 136/418/140 140/419/140 139/420/140
f 141/421/141 142/422/141 143/423/141
f 143/424/142 142/425/142 144/426/142
f 144/427/143 145/428/143 143/429/143
f 145/430/144 144/431/144 146/432/144
f 147/433/145 148/434/145 149/435/145
f 149/436/146 148/437/146 150/438/146
f 151/439/147 152/440/147 153/441/147
f 153/442/148 152/443/148 154/444/148
f 151/445/149 155/446/149 152/447/149
f 156/448/150 155/449/150 151/450/150
f 157/451/151 158/452/151 159/453/151
f 159/454/152 158/455/152 160/456/152