# Blender 5.2.0 LTS
# www.blender.org
mtllib glass mag body.mtl
o mag_body
v 0.182189 0.275704 -0.104107
v 0.183921 0.277436 -0.105839
v -0.182189 0.275704 -0.104107
v -0.183921 0.277436 -0.105839
v -0.182189 0.275704 0.104107
v -0.183921 0.277436 0.105839
v 0.182189 0.275704 0.104107
v 0.183921 0.277436 0.105839
v 0.182189 -0.167648 -0.104107
v 0.184400 -0.166674 -0.105885
v 0.182189 -0.167648 0.104107
v 0.184400 -0.166674 0.105885
v 0.229433 -0.210870 0.104107
v 0.231644 -0.209896 0.105885
v 0.229433 -0.210870 -0.104107
v 0.231644 -0.209896 -0.105885
v 0.229433 -0.275704 0.104107
v 0.231165 -0.277436 0.105839
v 0.229433 -0.275704 -0.104107
v 0.231165 -0.277436 -0.105839
v -0.182189 -0.167648 -0.104107
v -0.184400 -0.166674 -0.105885
v -0.182189 -0.167648 0.104107
v -0.184400 -0.166674 0.105885
v -0.229433 -0.210870 -0.104107
v -0.231644 -0.209896 -0.105885
v -0.229433 -0.210870 0.104107
v -0.231644 -0.209896 0.105885
v -0.229433 -0.275704 -0.104107
v -0.231165 -0.277436 -0.105839
v -0.229433 -0.275704 0.104107
v -0.231165 -0.277436 0.105839
v -0.183295 -0.165661 0.103496
v -0.183055 0.275070 0.103473
v -0.183055 0.275070 -0.103473
v -0.183295 -0.165661 -0.103496
v 0.228799 -0.276570 0.103473
v -0.228799 -0.276570 0.103473
v -0.228799 -0.276570 -0.103473
v 0.228799 -0.276570 -0.103473
v 0.230299 -0.275070 0.103473
v 0.230299 -0.275070 -0.103473
v 0.230539 -0.211883 -0.103496
v 0.230539 -0.211883 0.103496
v -0.181555 0.276570 0.103473
v 0.181555 0.276570 0.103473
v 0.181555 0.276570 -0.103473
v -0.181555 0.276570 -0.103473
v 0.183055 0.275070 0.103473
v 0.183295 -0.165661 0.103496
v 0.183295 -0.165661 -0.103496
v 0.183055 0.275070 -0.103473
v 0.229432 -0.209370 0.103496
v 0.229432 -0.209370 -0.103496
v 0.184401 -0.168174 -0.103496
v 0.184401 -0.168173 0.103496
v -0.229432 -0.209370 -0.103496
v -0.229432 -0.209370 0.103496
v -0.184401 -0.168173 0.103496
v -0.184401 -0.168174 -0.103496
v 0.229039 -0.211044 0.104996
v 0.181795 -0.167822 0.104996
v 0.181555 0.275070 0.104973
v -0.181555 0.275070 0.104973
v -0.181795 -0.167822 0.104996
v -0.229039 -0.211044 0.104996
v -0.228799 -0.275070 0.104973
v 0.228799 -0.275070 0.104973
v -0.230299 -0.275070 -0.103473
v -0.230299 -0.275070 0.103473
v -0.230539 -0.211883 0.103496
v -0.230539 -0.211883 -0.103496
v 0.181555 0.275070 -0.104973
v 0.181795 -0.167822 -0.104996
v 0.229039 -0.211044 -0.104996
v 0.228799 -0.275070 -0.104973
v -0.228799 -0.275070 -0.104973
v -0.229039 -0.211044 -0.104996
v -0.181795 -0.167822 -0.104996
v -0.181555 0.275070 -0.104973
vn -0.4709 0.0236 0.8819
vn -0.4958 0.0316 0.8679
vn -0.4882 0.0031 0.8727
vn 0.9289 0.0023 0.3703
vn 0.9446 -0.0226 0.3275
vn 0.9413 0.0016 0.3376
vn -0.5780 0.8157 -0.0230
vn -0.5681 0.8230 -0.0012
vn -0.5938 0.8046 -0.0047
vn 0.9293 0.3693 0.0042
vn 0.9294 0.3691 0.0052
vn 0.9425 0.3333 0.0259
vn -0.6020 -0.0234 -0.7982
vn -0.5694 -0.0084 -0.8220
vn -0.5925 -0.0053 -0.8055
vn 0.9008 0.0226 -0.4337
vn 0.8989 0.0187 -0.4377
vn 0.9084 0.0072 -0.4181
vn -0.8866 -0.4626 -0.0066
vn -0.8642 -0.5027 0.0200
vn -0.8832 -0.4682 0.0280
vn 0.6856 -0.7276 -0.0238
vn 0.6647 -0.7468 -0.0236
vn 0.6781 -0.7350 -0.0071
vn -0.0000 -0.5907 0.8069
vn -0.0057 -0.5923 0.8057
vn -0.0000 0.9391 0.3437
vn 0.0190 0.9440 0.3295
vn -0.8069 -0.5907 -0.0000
vn -0.8069 -0.5907 -0.0061
vn -0.8069 -0.5907 0.0060
vn -0.3437 0.9391 -0.0000
vn -0.3342 0.9422 0.0221
vn -0.0000 -0.5907 -0.8069
vn 0.0060 -0.5907 -0.8069
vn -0.0000 0.9391 -0.3437
vn -0.0190 0.9440 -0.3295
vn 0.8069 -0.5907 -0.0000
vn 0.8069 -0.5907 0.0061
vn 0.8100 -0.5864 0.0029
vn 0.3437 0.9391 -0.0000
vn 0.3342 0.9422 -0.0221
vn 0.5769 -0.8165 -0.0203
vn 0.5813 -0.8133 -0.0237
vn 0.5923 -0.8057 -0.0057
vn -0.9475 -0.3196 -0.0062
vn -0.9298 -0.3680 0.0040
vn -0.9440 -0.3294 0.0190
vn 0.5915 -0.0248 -0.8059
vn 0.5714 0.0049 -0.8207
vn 0.5920 0.0035 -0.8059
vn -0.9080 0.0296 -0.4180
vn -0.9000 -0.0063 -0.4359
vn -0.9103 -0.0103 -0.4138
vn 0.6861 0.7273 -0.0169
vn 0.6616 0.7498 0.0121
vn 0.6823 0.7310 0.0131
vn -0.8730 0.4871 -0.0223
vn -0.8707 0.4913 -0.0215
vn -0.8785 0.4777 -0.0104
vn 0.4783 -0.0215 0.8779
vn 0.4925 -0.0124 0.8702
vn 0.4837 0.0060 0.8752
vn -0.9319 0.0292 0.3616
vn -0.9400 0.0286 0.3400
vn -0.9370 -0.0078 0.3493
vn -0.0000 0.5907 0.8069
vn 0.0047 0.5938 0.8046
vn -0.0000 -0.9391 0.3437
vn -0.0221 -0.9447 0.3273
vn 0.8069 0.5907 -0.0000
vn 0.8069 0.5907 -0.0060
vn 0.3437 -0.9391 -0.0000
vn 0.3326 -0.9427 0.0256
vn -0.0000 0.5907 -0.8069
vn -0.0056 0.5923 -0.8057
vn -0.0000 -0.9391 -0.3437
vn 0.0260 -0.9424 -0.3334
vn -0.8069 0.5907 -0.0000
vn -0.8057 0.5924 0.0056
vn -0.3437 -0.9391 -0.0000
vn -0.3266 -0.9449 -0.0216
vn 0.6020 -0.0234 0.7982
vn 0.5683 0.0019 0.8228
vn 0.5909 -0.0056 0.8067
vn -0.8957 -0.0046 0.4446
vn -0.8989 0.0187 0.4377
vn -0.9084 0.0072 0.4181
vn 0.8836 -0.4680 0.0183
vn 0.8642 -0.5027 -0.0200
vn 0.8832 -0.4682 -0.0280
vn -0.6856 -0.7276 0.0238
vn -0.6683 -0.7434 0.0260
vn -0.6786 -0.7345 0.0067
vn 0.4752 0.0260 -0.8795
vn 0.4958 0.0316 -0.8679
vn 0.4791 0.0029 -0.8778
vn -0.9289 0.0023 -0.3703
vn -0.9423 -0.0266 -0.3336
vn -0.9388 0.0069 -0.3444
vn 0.5683 0.8228 -0.0041
vn 0.5681 0.8230 0.0012
vn 0.5923 0.8057 0.0056
vn -0.9293 0.3693 -0.0042
vn -0.9294 0.3690 0.0063
vn -0.9447 0.3272 -0.0221
vn 1.0000 0.0007 -0.0000
vn 0.9999 0.0133 -0.0099
vn -0.2311 -0.9729 -0.0000
vn -0.2344 -0.9721 0.0138
vn 0.3265 0.3569 -0.8753
vn 0.3202 0.3712 -0.8716
vn -0.6126 -0.6696 -0.4200
vn -0.6125 -0.6738 -0.4133
vn 0.2311 0.9729 -0.0000
vn 0.2589 0.9657 0.0194
vn -1.0000 -0.0007 -0.0000
vn -1.0000 -0.0016 -0.0079
vn 0.3265 0.3568 0.8753
vn 0.3564 0.3400 0.8703
vn 0.3146 0.3677 0.8751
vn -0.6126 -0.6696 0.4200
vn -0.6222 -0.6671 0.4098
vn -0.6068 -0.6750 0.4197
vn -1.0000 0.0007 -0.0000
vn -0.9999 0.0094 0.0135
vn 0.2311 -0.9729 -0.0000
vn 0.2314 -0.9728 -0.0142
vn -0.3265 0.3569 0.8753
vn -0.3237 0.3718 0.8700
vn 0.6126 -0.6696 0.4200
vn 0.6111 -0.6746 0.4141
vn -0.2311 0.9729 -0.0000
vn -0.2589 0.9657 -0.0194
vn 1.0000 -0.0007 -0.0000
vn 1.0000 -0.0016 0.0079
vn -0.3265 0.3568 -0.8753
vn -0.3564 0.3400 -0.8703
vn -0.3147 0.3678 -0.8751
vn 0.6126 -0.6696 -0.4200
vn 0.6237 -0.6613 -0.4167
vn 0.6068 -0.6750 -0.4197
vn 0.6106 0.6931 0.3831
vn 0.6074 0.6754 0.4183
vn 0.6422 0.6506 0.4055
vn 0.1963 0.2587 -0.9458
vn 0.2656 0.1969 -0.9438
vn 0.2212 0.2311 -0.9474
vn 0.9219 -0.0246 0.3867
vn 0.9134 0.0635 0.4022
vn 0.9031 0.0238 0.4287
vn 0.3700 0.0159 -0.9289
vn 0.3270 -0.0219 -0.9448
vn 0.3505 0.0029 -0.9366
vn -0.0004 0.8256 0.5643
vn 0.0097 0.8247 0.5655
vn -0.0060 0.8069 0.5907
vn -0.0252 0.3627 -0.9316
vn -0.0054 0.3735 -0.9276
vn 0.0216 0.3266 -0.9449
vn -0.8256 0.0001 0.5642
vn -0.8046 -0.0047 0.5938
vn -0.7860 -0.0016 0.6183
vn -0.3534 0.0005 -0.9355
vn -0.3764 0.0266 -0.9261
vn -0.3154 -0.0000 -0.9490
vn -0.5949 0.6943 0.4050
vn -0.6429 0.6821 0.3484
vn -0.6143 0.6578 0.4358
vn -0.2082 0.2659 -0.9413
vn -0.2073 0.2477 -0.9464
vn -0.2238 0.2329 -0.9464
vn -0.9140 0.0279 0.4047
vn -0.9189 -0.0306 0.3934
vn -0.9084 -0.0107 0.4180
vn -0.3678 -0.0172 -0.9298
vn -0.3279 0.0173 -0.9446
vn -0.3415 -0.0160 -0.9397
vn 0.0008 -0.8251 0.5650
vn -0.0096 -0.8242 0.5662
vn 0.0061 -0.8069 0.5907
vn 0.0247 -0.3619 -0.9319
vn 0.0051 -0.3727 -0.9279
vn -0.0222 -0.3343 -0.9422
vn 0.8251 -0.0001 0.5650
vn 0.8057 0.0057 0.5923
vn 0.8068 -0.0161 0.5907
vn 0.3235 0.0306 -0.9457
vn 0.3477 -0.0155 -0.9375
vn 0.3109 -0.0066 -0.9504
vn -0.5769 -0.8165 0.0203
vn -0.5813 -0.8133 0.0237
vn -0.5907 -0.8069 0.0060
vn 0.9475 -0.3196 0.0062
vn 0.9298 -0.3680 -0.0040
vn 0.9440 -0.3294 -0.0190
vn -0.5915 -0.0248 0.8059
vn -0.5714 0.0049 0.8207
vn -0.5920 0.0035 0.8059
vn 0.9080 0.0296 0.4180
vn 0.9000 -0.0063 0.4359
vn 0.9088 -0.0109 0.4170
vn -0.6861 0.7273 0.0169
vn -0.6616 0.7498 -0.0121
vn -0.6850 0.7284 -0.0095
vn 0.8730 0.4871 0.0223
vn 0.8707 0.4913 0.0215
vn 0.8753 0.4835 0.0139
vn -0.4783 -0.0215 -0.8779
vn -0.4895 -0.0146 -0.8719
vn -0.4838 0.0060 -0.8752
vn 0.9319 0.0292 -0.3616
vn 0.9400 0.0286 -0.3400
vn 0.9371 -0.0078 -0.3489
vn 0.8242 0.0121 -0.5661
vn 0.8057 -0.0056 -0.5923
vn 0.7860 -0.0016 -0.6183
vn 0.3360 -0.0290 0.9414
vn 0.3764 0.0266 0.9261
vn 0.3159 -0.0029 0.9488
vn 0.5949 0.6943 -0.4050
vn 0.6429 0.6821 -0.3484
vn 0.6143 0.6578 -0.4358
vn 0.2082 0.2659 0.9413
vn 0.2049 0.2437 0.9480
vn 0.2238 0.2329 0.9464
vn 0.9140 0.0279 -0.4047
vn 0.9189 -0.0306 -0.3934
vn 0.9099 -0.0156 -0.4146
vn 0.3678 -0.0172 0.9298
vn 0.3279 0.0173 0.9446
vn 0.3416 -0.0160 0.9397
vn -0.0008 -0.8251 -0.5650
vn 0.0096 -0.8242 -0.5662
vn -0.0061 -0.8069 -0.5907
vn -0.0247 -0.3619 0.9319
vn -0.0051 -0.3727 0.9279
vn 0.0222 -0.3343 0.9422
vn -0.8251 -0.0001 -0.5650
vn -0.8069 0.0060 -0.5907
vn -0.8067 -0.0161 -0.5907
vn -0.3235 0.0306 0.9457
vn -0.3251 -0.0306 0.9452
vn -0.3185 -0.0142 0.9478
vn -0.5955 0.6949 -0.4031
vn -0.6049 0.6799 -0.4145
vn -0.6422 0.6506 -0.4055
vn -0.1967 0.2591 0.9456
vn -0.2656 0.1969 0.9438
vn -0.2212 0.2311 0.9474
vn -0.9219 -0.0246 -0.3867
vn -0.9134 0.0635 -0.4022
vn -0.9031 0.0238 -0.4287
vn -0.3700 0.0159 0.9289
vn -0.3332 -0.0257 0.9425
vn -0.3505 0.0029 0.9366
vn -0.0292 0.8148 -0.5790
vn -0.0097 0.8247 -0.5655
vn 0.0056 0.8057 -0.5924
vn 0.0252 0.3627 0.9316
vn 0.0180 0.3689 0.9293
vn -0.0256 0.3327 0.9427
vn -0.5690 0.0068 0.8223
vn -0.5925 -0.0053 0.8055
vn -0.5784 -0.0229 0.8154
vn 0.9188 0.0035 0.3948
vn 0.9084 0.0072 0.4181
vn 0.8956 0.0007 0.4448
vn -0.5736 0.8190 0.0181
vn -0.5865 0.8099 0.0031
vn -0.5938 0.8046 0.0046
vn 0.9330 0.3593 -0.0222
vn 0.9398 0.3405 -0.0279
vn 0.9399 0.3404 -0.0279
vn -0.4594 0.0017 -0.8882
vn -0.4882 0.0031 -0.8727
vn -0.4922 0.0331 -0.8698
vn 0.9306 -0.0171 -0.3656
vn 0.9413 0.0016 -0.3376
vn 0.9423 -0.0266 -0.3336
vn -0.8602 -0.5100 -0.0034
vn -0.8759 -0.4813 -0.0343
vn -0.8789 -0.4759 -0.0327
vn 0.6550 -0.7557 0.0016
vn 0.6700 -0.7423 -0.0026
vn 0.6781 -0.7350 0.0071
vn 0.0029 -0.5950 0.8038
vn 0.0031 -0.5949 0.8038
vn 0.0103 0.9312 0.3643
vn -0.0224 0.9420 0.3348
vn -0.8038 -0.5949 0.0031
vn -0.3454 0.9381 -0.0242
vn -0.3403 0.9400 -0.0240
vn -0.0031 -0.5949 -0.8038
vn -0.0103 0.9312 -0.3643
vn 0.0224 0.9420 -0.3348
vn 0.8046 -0.5938 -0.0046
vn 0.3454 0.9381 0.0242
vn 0.3403 0.9400 0.0240
vn 0.5749 -0.8180 0.0179
vn 0.5950 -0.8037 0.0029
vn 0.5949 -0.8038 0.0031
vn -0.9300 -0.3675 0.0068
vn -0.9312 -0.3643 0.0103
vn -0.9420 -0.3348 -0.0224
vn 0.4660 -0.0098 -0.8847
vn 0.4837 0.0061 -0.8752
vn 0.4895 -0.0146 -0.8719
vn -0.9292 0.0221 -0.3690
vn -0.9370 -0.0078 -0.3492
vn -0.9378 0.0305 -0.3459
vn 0.6591 0.7520 0.0037
vn 0.6743 0.7383 -0.0160
vn 0.6787 0.7343 -0.0154
vn -0.8636 0.5041 0.0086
vn -0.8730 0.4875 -0.0142
vn -0.8772 0.4799 0.0123
vn 0.5916 -0.0248 0.8058
vn 0.5950 0.0021 0.8037
vn 0.5706 -0.0048 0.8212
vn -0.9080 0.0296 0.4178
vn -0.9088 -0.0109 0.4170
vn -0.8997 0.0119 0.4363
vn -0.0031 0.5865 0.8099
vn -0.0030 0.5948 0.8038
vn -0.0112 -0.9298 0.3678
vn 0.0279 -0.9399 0.3403
vn 0.8046 0.5938 0.0046
vn 0.3463 -0.9377 -0.0280
vn 0.3396 -0.9402 -0.0278
vn 0.0029 0.5949 -0.8038
vn 0.0046 0.5938 -0.8046
vn -0.0279 -0.9398 -0.3405
vn -0.0260 -0.9424 -0.3334
vn -0.8038 0.5948 -0.0031
vn -0.8057 0.5923 -0.0057
vn -0.3649 -0.9309 -0.0167
vn -0.3327 -0.9427 0.0256
vn 0.4594 0.0017 0.8882
vn 0.4837 -0.0060 0.8752
vn 0.4922 0.0331 0.8698
vn -0.9335 -0.0249 0.3576
vn -0.9413 0.0016 0.3376
vn -0.9398 -0.0288 0.3405
vn 0.8601 -0.5102 -0.0005
vn 0.8759 -0.4813 0.0343
vn 0.8789 -0.4759 0.0327
vn -0.6550 -0.7557 -0.0016
vn -0.6754 -0.7374 0.0079
vn -0.6781 -0.7350 -0.0071
vn 0.5739 0.0186 -0.8187
vn 0.5940 -0.0042 -0.8045
vn 0.5784 -0.0229 -0.8154
vn -0.9188 0.0035 -0.3948
vn -0.9076 0.0074 -0.4198
vn -0.8957 -0.0034 -0.4446
vn 0.5801 0.8142 -0.0246
vn 0.5949 0.8038 -0.0029
vn 0.5948 0.8038 -0.0030
vn -0.9330 0.3593 0.0222
vn -0.9298 0.3678 -0.0112
vn -0.9424 0.3334 0.0260
vn 0.9999 -0.0153 -0.0014
vn 0.9999 0.0094 0.0135
vn -0.2441 -0.9697 -0.0049
vn -0.2312 -0.9728 -0.0142
vn 0.3265 0.3568 -0.8753
vn 0.3147 0.3678 -0.8751
vn 0.3545 0.3367 -0.8723
vn -0.6068 -0.6750 -0.4197
vn -0.6234 -0.6645 -0.4122
vn 0.1973 0.9803 -0.0015
vn 0.2523 0.9673 -0.0268
vn -1.0000 -0.0082 -0.0026
vn -1.0000 -0.0007 0.0079
vn 0.3265 0.3569 0.8753
vn 0.3170 0.3697 0.8734
vn -0.6111 -0.6746 0.4141
vn -0.9999 0.0026 -0.0160
vn -0.9999 0.0046 -0.0156
vn 0.2323 -0.9725 -0.0142
vn 0.2383 -0.9711 0.0121
vn -0.3265 0.3568 0.8753
vn -0.3147 0.3678 0.8750
vn -0.3545 0.3367 0.8723
vn 0.6068 -0.6750 0.4197
vn 0.6221 -0.6671 0.4097
vn -0.1973 0.9803 0.0015
vn -0.2523 0.9673 0.0268
vn 1.0000 -0.0082 0.0026
vn 1.0000 -0.0016 -0.0079
vn -0.3265 0.3569 -0.8753
vn -0.3202 0.3712 -0.8716
vn 0.6111 -0.6746 -0.4141
vn 0.5948 0.6943 0.4051
vn 0.6245 0.6517 0.4305
vn 0.6429 0.6821 0.3484
vn 0.2200 0.2669 -0.9383
vn 0.2238 0.2329 -0.9464
vn 0.2073 0.2476 -0.9464
vn 0.8108 -0.0315 0.5844
vn 0.8033 -0.0343 0.5946
vn 0.8038 -0.0030 0.5948
vn 0.3035 -0.0252 -0.9525
vn 0.3154 -0.0000 -0.9490
vn 0.3764 0.0266 -0.9261
vn 0.0279 0.8162 0.5771
vn 0.0057 0.8057 0.5923
vn -0.0313 0.3513 -0.9357
vn 0.0167 0.3649 -0.9309
vn -0.0278 0.3396 -0.9402
vn -0.9004 0.0008 0.4350
vn -0.9074 0.0317 0.4191
vn -0.9134 0.0635 0.4022
vn -0.3603 -0.0266 -0.9325
vn -0.3505 0.0029 -0.9366
vn -0.3402 -0.0277 -0.9400
vn -0.6192 0.6877 0.3789
vn -0.6421 0.6505 0.4056
vn -0.6043 0.6834 0.4095
vn -0.1961 0.2585 -0.9459
vn -0.2212 0.2311 -0.9474
vn -0.2656 0.1969 -0.9438
vn -0.8109 0.0306 0.5844
vn -0.8067 -0.0161 0.5908
vn -0.8038 0.0031 0.5949
vn -0.3243 0.0306 -0.9454
vn -0.3109 -0.0066 -0.9504
vn -0.3512 -0.0035 -0.9363
vn -0.0271 -0.8160 0.5775
vn 0.0061 -0.8068 0.5908
vn -0.0046 -0.8046 0.5938
vn 0.0305 -0.3510 -0.9359
vn 0.0242 -0.3454 -0.9381
vn 0.0240 -0.3403 -0.9400
vn 0.9142 0.0279 0.4044
vn 0.9120 -0.0187 0.4097
vn 0.9226 -0.0242 0.3850
vn 0.3593 0.0238 -0.9329
vn 0.3415 -0.0160 -0.9397
vn 0.3333 0.0206 -0.9426
vn -0.5749 -0.8180 -0.0179
vn -0.5949 -0.8038 -0.0031
vn 0.9300 -0.3675 -0.0068
vn 0.9312 -0.3643 -0.0103
vn 0.9420 -0.3348 0.0224
vn -0.4660 -0.0098 0.8847
vn -0.4837 0.0061 0.8752
vn -0.4862 -0.0158 0.8737
vn 0.9292 0.0221 0.3690
vn 0.9370 -0.0078 0.3493
vn 0.9378 0.0305 0.3459
vn -0.6591 0.7520 -0.0037
vn -0.6640 0.7477 -0.0046
vn -0.6823 0.7310 0.0131
vn 0.8636 0.5041 -0.0086
vn 0.8806 0.4739 -0.0025
vn 0.8785 0.4777 -0.0104
vn -0.5916 -0.0248 -0.8058
vn -0.5961 0.0005 -0.8029
vn -0.5706 -0.0048 -0.8212
vn 0.9080 0.0296 -0.4178
vn 0.9122 -0.0078 -0.4096
vn 0.8997 0.0119 -0.4363
vn 0.9079 -0.0287 -0.4182
vn 0.9074 0.0317 -0.4191
vn 0.9134 0.0635 -0.4022
vn 0.3485 -0.0316 0.9368
vn 0.3436 0.0082 0.9391
vn 0.3332 -0.0257 0.9425
vn 0.6192 0.6877 -0.3789
vn 0.6421 0.6505 -0.4056
vn 0.6050 0.6798 -0.4146
vn 0.1961 0.2585 0.9459
vn 0.2235 0.2326 0.9465
vn 0.2656 0.1969 0.9438
vn 0.8109 0.0306 -0.5844
vn 0.8067 -0.0161 -0.5907
vn 0.8038 0.0031 -0.5949
vn 0.3243 0.0306 0.9454
vn 0.3133 -0.0105 0.9496
vn 0.3512 -0.0035 0.9363
vn 0.0271 -0.8160 -0.5775
vn -0.0061 -0.8068 -0.5908
vn 0.0031 -0.8038 -0.5949
vn -0.0305 -0.3510 0.9359
vn -0.0242 -0.3454 0.9381
vn -0.0240 -0.3403 0.9400
vn -0.9142 0.0279 -0.4044
vn -0.9099 -0.0155 -0.4146
vn -0.9260 -0.0003 -0.3776
vn -0.3593 0.0238 0.9329
vn -0.3419 -0.0160 0.9396
vn -0.3333 0.0206 0.9426
vn -0.5948 0.6943 -0.4053
vn -0.6245 0.6517 -0.4305
vn -0.6429 0.6821 -0.3484
vn -0.2429 0.2515 0.9369
vn -0.2238 0.2329 0.9464
vn -0.2042 0.2371 0.9498
vn -0.8108 -0.0315 -0.5844
vn -0.8033 -0.0343 -0.5946
vn -0.8046 -0.0046 -0.5938
vn -0.3035 -0.0252 0.9525
vn -0.3154 -0.0000 0.9490
vn -0.3764 0.0266 0.9261
vn -0.0320 0.8094 -0.5864
vn -0.0031 0.8039 -0.5948
vn -0.0046 0.8046 -0.5938
vn 0.0313 0.3513 0.9357
vn 0.0280 0.3463 0.9377
vn 0.0256 0.3327 0.9427
vt 0.000000 0.000000
s 0
f 33/1/1 23/1/2 5/1/3
f 34/1/4 6/1/5 24/1/6
f 35/1/7 34/1/8 5/1/9
f 34/1/10 35/1/11 4/1/12
f 36/1/13 35/1/14 3/1/15
f 35/1/16 36/1/17 22/1/18
f 33/1/19 36/1/20 21/1/21
f 36/1/22 33/1/23 24/1/24
f 38/1/25 37/1/25 17/1/26
f 37/1/27 38/1/27 32/1/28
f 38/1/29 31/1/30 29/1/31
f 38/1/32 39/1/32 30/1/33
f 40/1/34 39/1/34 29/1/35
f 39/1/36 40/1/36 20/1/37
f 40/1/38 19/1/39 17/1/40
f 40/1/41 37/1/41 18/1/42
f 42/1/43 41/1/44 17/1/45
f 41/1/46 42/1/47 20/1/48
f 43/1/49 42/1/50 19/1/51
f 42/1/52 43/1/53 16/1/54
f 44/1/55 43/1/56 15/1/57
f 43/1/58 44/1/59 14/1/60
f 44/1/61 13/1/62 17/1/63
f 41/1/64 18/1/65 14/1/66
f 46/1/67 45/1/67 5/1/68
f 45/1/69 46/1/69 8/1/70
f 47/1/71 46/1/71 7/1/72
f 46/1/73 47/1/73 2/1/74
f 48/1/75 47/1/75 1/1/76
f 47/1/77 48/1/77 4/1/78
f 45/1/79 48/1/79 3/1/80
f 48/1/81 45/1/81 6/1/82
f 50/1/83 49/1/84 7/1/85
f 49/1/86 50/1/87 12/1/88
f 51/1/89 50/1/90 11/1/91
f 50/1/92 51/1/93 10/1/94
f 51/1/95 9/1/96 1/1/97
f 52/1/98 2/1/99 10/1/100
f 49/1/101 52/1/102 1/1/103
f 52/1/104 49/1/105 8/1/106
f 54/1/107 53/1/107 13/1/108
f 53/1/109 54/1/109 16/1/110
f 55/1/111 54/1/111 15/1/112
f 54/1/113 55/1/113 10/1/114
f 56/1/115 55/1/115 9/1/116
f 55/1/117 56/1/117 12/1/118
f 56/1/119 11/1/120 13/1/121
f 53/1/122 14/1/123 12/1/124
f 58/1/125 57/1/125 25/1/126
f 57/1/127 58/1/127 28/1/128
f 59/1/129 58/1/129 27/1/130
f 58/1/131 59/1/131 24/1/132
f 60/1/133 59/1/133 23/1/134
f 59/1/135 60/1/135 22/1/136
f 60/1/137 21/1/138 25/1/139
f 57/1/140 26/1/141 22/1/142
f 61/1/143 13/1/144 11/1/145
f 61/1/146 62/1/147 12/1/148
f 63/1/149 62/1/150 11/1/151
f 63/1/152 8/1/153 12/1/154
f 64/1/155 63/1/156 7/1/157
f 63/1/158 64/1/159 6/1/160
f 64/1/161 5/1/162 23/1/163
f 64/1/164 65/1/165 24/1/166
f 66/1/167 65/1/168 23/1/169
f 66/1/170 28/1/171 24/1/172
f 67/1/173 66/1/174 27/1/175
f 67/1/176 32/1/177 28/1/178
f 68/1/179 67/1/180 31/1/181
f 67/1/182 68/1/183 18/1/184
f 68/1/185 17/1/186 13/1/187
f 68/1/188 61/1/189 14/1/190
f 70/1/191 69/1/192 29/1/193
f 69/1/194 70/1/195 32/1/196
f 71/1/197 70/1/198 31/1/199
f 70/1/200 71/1/201 28/1/202
f 72/1/203 71/1/204 27/1/205
f 71/1/206 72/1/207 26/1/208
f 72/1/209 25/1/210 29/1/211
f 69/1/212 30/1/213 26/1/214
f 73/1/215 1/1/216 9/1/217
f 73/1/218 74/1/219 10/1/220
f 75/1/221 74/1/222 9/1/223
f 75/1/224 16/1/225 10/1/226
f 76/1/227 75/1/228 15/1/229
f 76/1/230 20/1/231 16/1/232
f 77/1/233 76/1/234 19/1/235
f 76/1/236 77/1/237 30/1/238
f 77/1/239 29/1/240 25/1/241
f 77/1/242 78/1/243 26/1/244
f 78/1/245 25/1/246 21/1/247
f 78/1/248 79/1/249 22/1/250
f 80/1/251 79/1/252 21/1/253
f 80/1/254 4/1/255 22/1/256
f 73/1/257 80/1/258 3/1/259
f 80/1/260 73/1/261 2/1/262
f 33/1/263 5/1/264 34/1/265
f 34/1/266 24/1/267 33/1/268
f 35/1/269 5/1/270 3/1/271
f 34/1/272 4/1/273 6/1/274
f 36/1/275 3/1/276 21/1/277
f 35/1/278 22/1/279 4/1/280
f 33/1/281 21/1/282 23/1/283
f 36/1/284 24/1/285 22/1/286
f 38/1/25 17/1/287 31/1/288
f 37/1/27 32/1/289 18/1/290
f 38/1/29 29/1/291 39/1/29
f 38/1/32 30/1/292 32/1/293
f 40/1/34 29/1/35 19/1/294
f 39/1/36 20/1/295 30/1/296
f 40/1/38 17/1/297 37/1/38
f 40/1/41 18/1/298 20/1/299
f 42/1/300 17/1/301 19/1/302
f 41/1/303 20/1/304 18/1/305
f 43/1/306 19/1/307 15/1/308
f 42/1/309 16/1/310 20/1/311
f 44/1/312 15/1/313 13/1/314
f 43/1/315 14/1/316 16/1/317
f 44/1/318 17/1/319 41/1/320
f 41/1/321 14/1/322 44/1/323
f 46/1/67 5/1/324 7/1/325
f 45/1/69 8/1/326 6/1/327
f 47/1/71 7/1/72 1/1/328
f 46/1/73 2/1/329 8/1/330
f 48/1/75 1/1/331 3/1/332
f 47/1/77 4/1/333 2/1/334
f 45/1/79 3/1/335 5/1/336
f 48/1/81 6/1/337 4/1/338
f 50/1/339 7/1/340 11/1/341
f 49/1/342 12/1/343 8/1/344
f 51/1/345 11/1/346 9/1/347
f 50/1/348 10/1/349 12/1/350
f 51/1/351 1/1/352 52/1/353
f 52/1/354 10/1/355 51/1/356
f 49/1/357 1/1/358 7/1/359
f 52/1/360 8/1/361 2/1/362
f 54/1/107 13/1/363 15/1/364
f 53/1/109 16/1/365 14/1/366
f 55/1/367 15/1/368 9/1/369
f 54/1/113 10/1/370 16/1/371
f 56/1/115 9/1/372 11/1/373
f 55/1/117 12/1/374 10/1/375
f 56/1/376 13/1/377 53/1/376
f 53/1/122 12/1/378 56/1/122
f 58/1/125 25/1/379 27/1/380
f 57/1/127 28/1/381 26/1/382
f 59/1/383 27/1/384 23/1/385
f 58/1/131 24/1/386 28/1/387
f 60/1/133 23/1/388 21/1/389
f 59/1/135 22/1/390 24/1/391
f 60/1/392 25/1/393 57/1/392
f 57/1/140 22/1/394 60/1/140
f 61/1/395 11/1/396 62/1/397
f 61/1/398 12/1/399 14/1/400
f 63/1/401 11/1/402 7/1/403
f 63/1/404 12/1/405 62/1/406
f 64/1/407 7/1/157 5/1/408
f 63/1/409 6/1/410 8/1/411
f 64/1/412 23/1/413 65/1/414
f 64/1/415 24/1/416 6/1/417
f 66/1/418 23/1/419 27/1/420
f 66/1/421 24/1/422 65/1/423
f 67/1/424 27/1/425 31/1/426
f 67/1/427 28/1/428 66/1/429
f 68/1/430 31/1/431 17/1/432
f 67/1/433 18/1/434 32/1/435
f 68/1/436 13/1/437 61/1/438
f 68/1/439 14/1/440 18/1/441
f 70/1/442 29/1/193 31/1/443
f 69/1/444 32/1/445 30/1/446
f 71/1/447 31/1/448 27/1/449
f 70/1/450 28/1/451 32/1/452
f 72/1/453 27/1/454 25/1/455
f 71/1/456 26/1/457 28/1/458
f 72/1/459 29/1/460 69/1/461
f 69/1/462 26/1/463 72/1/464
f 73/1/465 9/1/466 74/1/467
f 73/1/468 10/1/469 2/1/470
f 75/1/471 9/1/472 15/1/473
f 75/1/474 10/1/475 74/1/476
f 76/1/477 15/1/478 19/1/479
f 76/1/480 16/1/481 75/1/482
f 77/1/483 19/1/484 29/1/485
f 76/1/486 30/1/487 20/1/488
f 77/1/489 25/1/490 78/1/491
f 77/1/492 26/1/493 30/1/494
f 78/1/495 21/1/496 79/1/497
f 78/1/498 22/1/499 26/1/500
f 80/1/501 21/1/502 3/1/503
f 80/1/504 22/1/505 79/1/506
f 73/1/507 3/1/508 1/1/509
f 80/1/510 2/1/511 4/1/512
