# Blender 5.2.0 LTS
# www.blender.org
mtllib glass tip.mtl
o RenderMesh_76859780801582
v -0.000001 -0.539302 0.036338
v -0.000001 -0.540723 0.037746
v -0.000001 -0.539302 -0.036338
v -0.000001 -0.540723 -0.037746
v 0.058986 -0.539302 0.000000
v 0.059958 -0.541050 0.000000
v -0.058987 -0.539302 0.000000
v -0.059959 -0.541050 0.000000
v -0.000001 -0.333102 -0.091315
v -0.000001 -0.333290 -0.093306
v 0.280842 -0.368111 0.000000
v 0.282791 -0.368559 0.000000
v -0.000001 -0.333102 0.091315
v -0.000001 -0.333290 0.093306
v -0.280842 -0.368111 0.000000
v -0.282791 -0.368558 0.000000
v -0.077833 -0.007902 -0.027204
v -0.079499 -0.007411 -0.028195
v -0.077833 -0.007902 0.027203
v -0.079500 -0.007411 0.028193
v -0.168331 -0.008877 0.000000
v -0.169889 -0.007623 -0.000000
v 0.077613 -0.007902 -0.027282
v 0.079279 -0.007411 -0.028273
v 0.168349 -0.008937 0.000000
v 0.169908 -0.007684 -0.000000
v 0.077613 -0.007902 0.027282
v 0.079280 -0.007411 0.028273
v -0.000001 0.539302 -0.000000
v -0.000001 0.541302 0.000000
v 0.158488 0.052470 -0.000000
v 0.160487 0.052404 -0.000000
v -0.158544 0.052282 -0.000000
v -0.160543 0.052216 0.000000
v 0.059391 -0.539349 0.000710
v 0.279461 -0.369004 0.000417
v 0.000961 -0.334301 0.091735
v 0.000858 -0.539037 0.036773
v -0.000963 -0.334301 0.091735
v -0.279462 -0.369004 0.000417
v -0.059392 -0.539349 0.000710
v -0.000860 -0.539037 0.036773
v -0.000963 -0.334301 -0.091735
v -0.000860 -0.539037 -0.036773
v -0.059392 -0.539349 -0.000710
v -0.279462 -0.369004 -0.000417
v 0.079446 -0.007668 -0.026433
v 0.079446 -0.007668 0.026432
v 0.165656 -0.008271 -0.000000
v 0.168439 -0.009298 0.000301
v 0.075497 -0.008622 0.028712
v 0.158348 0.052830 0.000274
v 0.000952 0.534316 0.000320
v 0.000947 -0.332316 0.091898
v 0.280464 -0.367168 0.000334
v -0.079666 -0.007667 0.026353
v -0.079666 -0.007667 -0.026355
v -0.165636 -0.008213 -0.000000
v -0.075712 -0.008624 0.028634
v -0.168420 -0.009238 0.000301
v -0.280464 -0.367168 0.000334
v -0.000949 -0.332316 0.091898
v -0.000953 0.534316 0.000320
v -0.158404 0.052642 0.000274
v 0.075497 -0.008622 -0.028713
v 0.168439 -0.009298 -0.000302
v 0.280464 -0.367168 -0.000334
v 0.000947 -0.332316 -0.091898
v 0.000952 0.534316 -0.000320
v 0.158348 0.052830 -0.000274
v -0.075712 -0.008623 -0.028636
v -0.158404 0.052642 -0.000274
v -0.000953 0.534316 -0.000320
v -0.000949 -0.332316 -0.091898
v -0.280464 -0.367168 -0.000334
v -0.168420 -0.009238 -0.000301
v -0.000001 -0.540012 0.035867
v -0.057567 -0.540176 0.000000
v -0.000001 -0.540012 -0.035867
v 0.057566 -0.540176 0.000000
v -0.079468 -0.007059 -0.026393
v -0.079468 -0.007059 0.026392
v -0.156470 0.049957 0.000000
v 0.156417 0.050145 -0.000000
v 0.079248 -0.007058 0.026471
v 0.079248 -0.007058 -0.026471
v 0.000961 -0.334301 -0.091735
v 0.279461 -0.369004 -0.000417
v 0.059391 -0.539349 -0.000710
v 0.000858 -0.539037 -0.036773
vn 0.0356 0.5986 0.8002
vn -0.5210 -0.3660 0.7711
vn -0.9035 0.4287 -0.0000
vn -0.3693 0.9293 -0.0000
vn 0.6087 -0.7934 -0.0000
vn 0.9780 -0.2088 0.0001
vn 0.7317 -0.6180 -0.2875
vn 0.0002 0.1054 -0.9944
vn 0.0002 -0.0531 0.9986
vn 0.8354 0.4797 0.2684
vn -0.0000 0.7166 -0.6975
vn -0.0000 -0.7695 0.6387
vn -0.7317 -0.6180 -0.2875
vn 0.5210 -0.3660 0.7711
vn 0.9034 0.4287 0.0001
vn -0.9779 -0.2092 0.0002
vn -0.0357 0.5987 0.8002
vn 0.3693 0.9293 -0.0000
vn -0.6087 -0.7934 -0.0000
vn -0.8354 0.4797 0.2684
vn -0.7317 -0.6180 0.2875
vn -0.8354 0.4797 -0.2684
vn -0.0000 0.7166 0.6975
vn -0.0002 0.1052 0.9944
vn -0.0000 -0.0532 -0.9986
vn -0.0000 -0.7695 -0.6387
vn -0.0357 0.5987 -0.8002
vn 0.5207 -0.3661 -0.7712
vn 0.6349 -0.2350 0.7360
vn 0.6349 -0.2364 -0.7355
vn -0.5602 -0.1550 -0.8137
vn -0.5602 -0.1549 0.8137
vn 0.3734 0.0909 -0.9232
vn 0.3734 0.0908 0.9232
vn -0.7886 0.6150 -0.0000
vn -0.5543 -0.8323 0.0001
vn 0.9392 0.3434 -0.0000
vn -0.4198 -0.5961 0.6844
vn -0.8326 -0.2785 0.4787
vn -0.7501 0.4262 0.5057
vn -0.8835 0.4684 0.0002
vn 0.9679 0.2513 0.0005
vn 0.9300 -0.3667 0.0230
vn -0.0001 -1.0000 0.0001
vn 0.0009 1.0000 0.0003
vn 0.7081 0.6940 -0.1307
vn -0.5358 0.5361 0.6523
vn -0.6350 -0.2348 -0.7360
vn -0.6350 -0.2362 0.7356
vn 0.5594 -0.1548 0.8143
vn 0.5594 -0.1547 -0.8143
vn -0.3733 0.0908 0.9232
vn -0.3734 0.0907 -0.9232
vn 0.7888 0.6146 0.0002
vn 0.5543 -0.8323 -0.0002
vn -0.9390 0.3438 -0.0000
vn 0.8321 -0.2779 0.4799
vn 0.4198 -0.5963 0.6843
vn 0.5359 0.5361 0.6522
vn -0.7080 0.6940 -0.1308
vn -0.9302 -0.3664 0.0227
vn 0.7501 0.4267 0.5052
vn 0.8833 0.4689 -0.0000
vn -0.9677 0.2522 0.0002
vn -0.8323 -0.2779 -0.4796
vn -0.4197 -0.5961 -0.6844
vn -0.5358 0.5361 -0.6523
vn 0.7080 0.6940 0.1307
vn 0.9301 -0.3667 -0.0229
vn -0.7500 0.4262 -0.5057
vn 0.8331 -0.2770 -0.4787
vn 0.7502 0.4266 -0.5051
vn -0.9303 -0.3661 -0.0225
vn -0.7079 0.6940 0.1311
vn 0.5360 0.5359 -0.6523
vn 0.4200 -0.5962 -0.6842
vn -0.0000 -0.3232 -0.9463
vn 0.9029 -0.4298 -0.0000
vn -0.0000 -0.3232 0.9463
vn -0.9029 -0.4298 -0.0000
vn -0.3804 0.5896 0.7125
vn -0.3804 0.5896 -0.7125
vn 0.2550 -0.9669 -0.0001
vn -0.2544 -0.9671 -0.0000
vn 0.3801 0.5894 -0.7128
vn 0.3801 0.5894 0.7128
vn 0.7317 -0.6180 0.2875
vn -0.5210 -0.3660 -0.7711
vn 0.0356 0.5986 -0.8002
vn 0.8354 0.4797 -0.2684
vt 0.000000 0.000000
s 1
f 35/1/1 36/1/2 11/1/3 5/1/4
f 36/1/2 35/1/1 6/1/5 12/1/6
f 36/1/2 37/1/7 13/1/8 11/1/3
f 37/1/7 36/1/2 12/1/6 14/1/9
f 37/1/7 38/1/10 1/1/11 13/1/8
f 38/1/10 37/1/7 14/1/9 2/1/12
f 38/1/10 35/1/1 5/1/4 1/1/11
f 35/1/1 38/1/10 2/1/12 6/1/5
f 39/1/13 40/1/14 15/1/15 13/1/8
f 40/1/14 39/1/13 14/1/9 16/1/16
f 40/1/14 41/1/17 7/1/18 15/1/15
f 41/1/17 40/1/14 16/1/16 8/1/19
f 41/1/17 42/1/20 1/1/11 7/1/18
f 42/1/20 41/1/17 8/1/19 2/1/12
f 42/1/20 39/1/13 13/1/8 1/1/11
f 39/1/13 42/1/20 2/1/12 14/1/9
f 43/1/21 44/1/22 3/1/23 9/1/24
f 44/1/22 43/1/21 10/1/25 4/1/26
f 44/1/22 45/1/27 7/1/18 3/1/23
f 45/1/27 44/1/22 4/1/26 8/1/19
f 45/1/27 46/1/28 15/1/15 7/1/18
f 46/1/28 45/1/27 8/1/19 16/1/16
f 46/1/28 43/1/21 9/1/24 15/1/15
f 43/1/21 46/1/28 16/1/16 10/1/25
f 47/1/29 48/1/30 27/1/31 23/1/32
f 48/1/30 47/1/29 24/1/33 28/1/34
f 48/1/30 49/1/35 25/1/36 27/1/31
f 49/1/35 48/1/30 28/1/34 26/1/37
f 49/1/35 47/1/29 23/1/32 25/1/36
f 47/1/29 49/1/35 26/1/37 24/1/33
f 50/1/38 51/1/39 27/1/31 25/1/36
f 51/1/39 50/1/38 26/1/37 28/1/34
f 51/1/39 52/1/40 31/1/41 27/1/31
f 52/1/40 51/1/39 28/1/34 32/1/42
f 52/1/40 53/1/43 29/1/44 31/1/41
f 53/1/43 52/1/40 32/1/42 30/1/45
f 53/1/43 54/1/46 13/1/8 29/1/44
f 54/1/46 53/1/43 30/1/45 14/1/9
f 54/1/46 55/1/47 11/1/3 13/1/8
f 55/1/47 54/1/46 14/1/9 12/1/6
f 55/1/47 50/1/38 25/1/36 11/1/3
f 50/1/38 55/1/47 12/1/6 26/1/37
f 56/1/48 57/1/49 17/1/50 19/1/51
f 57/1/49 56/1/48 20/1/52 18/1/53
f 57/1/49 58/1/54 21/1/55 17/1/50
f 58/1/54 57/1/49 18/1/53 22/1/56
f 58/1/54 56/1/48 19/1/51 21/1/55
f 56/1/48 58/1/54 22/1/56 20/1/52
f 59/1/57 60/1/58 21/1/55 19/1/51
f 60/1/58 59/1/57 20/1/52 22/1/56
f 60/1/58 61/1/59 15/1/15 21/1/55
f 61/1/59 60/1/58 22/1/56 16/1/16
f 61/1/59 62/1/60 13/1/8 15/1/15
f 62/1/60 61/1/59 16/1/16 14/1/9
f 62/1/60 63/1/61 29/1/44 13/1/8
f 63/1/61 62/1/60 14/1/9 30/1/45
f 63/1/61 64/1/62 33/1/63 29/1/44
f 64/1/62 63/1/61 30/1/45 34/1/64
f 64/1/62 59/1/57 19/1/51 33/1/63
f 59/1/57 64/1/62 34/1/64 20/1/52
f 65/1/65 66/1/66 25/1/36 23/1/32
f 66/1/66 65/1/65 24/1/33 26/1/37
f 66/1/66 67/1/67 11/1/3 25/1/36
f 67/1/67 66/1/66 26/1/37 12/1/6
f 67/1/67 68/1/68 9/1/24 11/1/3
f 68/1/68 67/1/67 12/1/6 10/1/25
f 68/1/68 69/1/69 29/1/44 9/1/24
f 69/1/69 68/1/68 10/1/25 30/1/45
f 69/1/69 70/1/70 31/1/41 29/1/44
f 70/1/70 69/1/69 30/1/45 32/1/42
f 70/1/70 65/1/65 23/1/32 31/1/41
f 65/1/65 70/1/70 32/1/42 24/1/33
f 71/1/71 72/1/72 33/1/63 17/1/50
f 72/1/72 71/1/71 18/1/53 34/1/64
f 72/1/72 73/1/73 29/1/44 33/1/63
f 73/1/73 72/1/72 34/1/64 30/1/45
f 73/1/73 74/1/74 9/1/24 29/1/44
f 74/1/74 73/1/73 30/1/45 10/1/25
f 74/1/74 75/1/75 15/1/15 9/1/24
f 75/1/75 74/1/74 10/1/25 16/1/16
f 75/1/75 76/1/76 21/1/55 15/1/15
f 76/1/76 75/1/75 16/1/16 22/1/56
f 76/1/76 71/1/71 17/1/50 21/1/55
f 71/1/71 76/1/76 22/1/56 18/1/53
f 77/1/77 78/1/78 7/1/18 1/1/11
f 78/1/78 77/1/77 2/1/12 8/1/19
f 78/1/78 79/1/79 3/1/23 7/1/18
f 79/1/79 78/1/78 8/1/19 4/1/26
f 79/1/79 80/1/80 5/1/4 3/1/23
f 80/1/80 79/1/79 4/1/26 6/1/5
f 80/1/80 77/1/77 1/1/11 5/1/4
f 77/1/77 80/1/80 6/1/5 2/1/12
f 81/1/81 82/1/82 19/1/51 17/1/50
f 82/1/82 81/1/81 18/1/53 20/1/52
f 82/1/82 83/1/83 33/1/63 19/1/51
f 83/1/83 82/1/82 20/1/52 34/1/64
f 83/1/83 81/1/81 17/1/50 33/1/63
f 81/1/81 83/1/83 34/1/64 18/1/53
f 84/1/84 85/1/85 27/1/31 31/1/41
f 85/1/85 84/1/84 32/1/42 28/1/34
f 85/1/85 86/1/86 23/1/32 27/1/31
f 86/1/86 85/1/85 28/1/34 24/1/33
f 86/1/86 84/1/84 31/1/41 23/1/32
f 84/1/84 86/1/86 24/1/33 32/1/42
f 87/1/87 88/1/88 11/1/3 9/1/24
f 88/1/88 87/1/87 10/1/25 12/1/6
f 88/1/88 89/1/89 5/1/4 11/1/3
f 89/1/89 88/1/88 12/1/6 6/1/5
f 89/1/89 90/1/90 3/1/23 5/1/4
f 90/1/90 89/1/89 6/1/5 4/1/26
f 90/1/90 87/1/87 9/1/24 3/1/23
f 87/1/87 90/1/90 4/1/26 10/1/25
