# Blender 5.2.0 LTS
# www.blender.org
mtllib glass jump pad triangles.mtl
o triangle
v -2.280054 -0.229124 -2.652658
v -2.280666 -0.230324 -2.654136
v -2.280054 0.229124 -2.652658
v -2.280666 0.230324 -2.654136
v -2.684174 -0.229124 -2.248538
v -2.685652 -0.230324 -2.249150
v -1.519000 0.229124 -2.652658
v -1.517845 0.230278 -2.653813
v -1.519000 -0.229124 -2.652658
v -1.517845 -0.230279 -2.653813
v -2.684174 0.229124 -2.248538
v -2.685652 0.230324 -2.249150
v -2.684174 -0.229124 -1.532298
v -2.685329 -0.230279 -1.531143
v -2.684174 0.229124 -1.532298
v -2.685329 0.230279 -1.531143
v 2.280054 0.229124 -2.652658
v 2.280666 0.230324 -2.654136
v 2.280054 -0.229124 -2.652658
v 2.280666 -0.230324 -2.654136
v 1.519000 0.229124 -2.652658
v 1.517845 0.230278 -2.653813
v 1.519000 -0.229124 -2.652658
v 1.517845 -0.230279 -2.653813
v 2.684174 -0.229124 -2.248538
v 2.685652 -0.230324 -2.249150
v 2.684174 0.229124 -2.248538
v 2.685652 0.230324 -2.249150
v 2.684174 -0.229124 -1.532298
v 2.685329 -0.230279 -1.531143
v 2.684174 0.229124 -1.532298
v 2.685329 0.230279 -1.531143
v -2.280054 -0.229124 2.652658
v -2.280666 -0.230324 2.654136
v -1.519000 0.229124 2.652658
v -1.517845 0.230279 2.653813
v -1.519000 -0.229124 2.652658
v -1.517845 -0.230278 2.653813
v -2.280054 0.229124 2.652658
v -2.280666 0.230324 2.654136
v -2.684174 -0.229124 2.248538
v -2.685652 -0.230324 2.249150
v -2.684174 0.229124 2.248538
v -2.685652 0.230324 2.249150
v -2.684174 -0.229124 1.532298
v -2.685329 -0.230279 1.531143
v -2.684174 0.229124 1.532298
v -2.685329 0.230279 1.531143
v 2.280054 -0.229124 2.652658
v 2.280666 -0.230324 2.654136
v 1.519000 0.229124 2.652658
v 1.517845 0.230279 2.653813
v 1.519000 -0.229124 2.652658
v 1.517845 -0.230278 2.653813
v 2.280054 0.229124 2.652658
v 2.280666 0.230324 2.654136
v 2.684174 -0.229124 2.248538
v 2.685652 -0.230324 2.249150
v 2.684174 0.229124 2.248538
v 2.685652 0.230324 2.249150
v 2.684174 -0.229124 1.532298
v 2.685329 -0.230279 1.531143
v 2.684174 0.229124 1.532298
v 2.685329 0.230279 1.531143
v -2.038504 0.105489 -0.382344
v -2.039555 0.105489 -0.384045
v -2.038504 0.105489 0.382344
v -2.039555 0.105489 0.384045
v -2.038504 0.160328 -0.382344
v -2.039378 0.161442 -0.383757
v -2.038504 0.160328 0.382344
v -2.039378 0.161442 0.383757
v 2.038504 0.160328 -0.382344
v 2.039378 0.161442 -0.383757
v 2.038504 0.105489 0.382344
v 2.039555 0.105489 0.384045
v 2.038504 0.105489 -0.382344
v 2.039555 0.105489 -0.384045
v 2.038504 0.160328 0.382344
v 2.039378 0.161442 0.383757
v -0.382344 0.160328 -2.038504
v -0.383757 0.161441 -2.039378
v 0.382344 0.160328 -2.038504
v 0.383757 0.161441 -2.039378
v 0.382344 0.105489 -2.038504
v 0.384045 0.105489 -2.039555
v -0.382344 0.105489 -2.038504
v -0.384045 0.105489 -2.039555
v 0.382344 0.160328 2.038503
v 0.383757 0.161442 2.039377
v -0.382344 0.105489 2.038503
v -0.384045 0.105489 2.039554
v 0.382344 0.105489 2.038503
v 0.384045 0.105489 2.039554
v -0.382344 0.160328 2.038503
v -0.383757 0.161442 2.039377
v -2.079180 -0.229124 -2.092478
v -2.078025 -0.230279 -2.091323
v -1.519000 -0.229124 -2.092478
v -1.517845 -0.230279 -2.091323
v -2.079180 -0.229124 -1.532298
v -2.078025 -0.230279 -1.531143
v 2.079180 -0.229124 -2.092478
v 2.078025 -0.230279 -2.091323
v 1.519000 -0.229124 -2.092478
v 1.517845 -0.230279 -2.091323
v 2.079180 -0.229124 -1.532298
v 2.078025 -0.230279 -1.531143
v -2.079180 -0.229124 2.092478
v -2.078025 -0.230279 2.091323
v -1.519000 -0.229124 2.092478
v -1.517845 -0.230279 2.091323
v -2.079180 -0.229124 1.532298
v -2.078025 -0.230279 1.531143
v 1.519000 -0.229124 2.092478
v 1.517845 -0.230279 2.091323
v 2.079180 -0.229124 2.092478
v 2.078025 -0.230279 2.091323
v 2.079180 -0.229124 1.532298
v 2.078025 -0.230279 1.531143
v -1.519000 0.229124 -2.092478
v -1.517845 0.230279 -2.091323
v -2.079180 0.229124 -2.092478
v -2.078025 0.230279 -2.091323
v -2.079180 0.229124 -1.532298
v -2.078025 0.230279 -1.531143
v 1.519000 0.229124 -2.092478
v 1.517845 0.230279 -2.091323
v 2.079180 0.229124 -2.092478
v 2.078025 0.230279 -2.091323
v 2.079180 0.229124 -1.532298
v 2.078025 0.230279 -1.531143
v -1.519000 0.229124 2.092478
v -1.517845 0.230279 2.091323
v -2.079180 0.229124 2.092478
v -2.078025 0.230279 2.091323
v -2.079180 0.229124 1.532298
v -2.078025 0.230279 1.531143
v 1.519000 0.229124 2.092478
v 1.517845 0.230279 2.091323
v 2.079180 0.229124 2.092478
v 2.078025 0.230279 2.091323
v 2.079180 0.229124 1.532298
v 2.078025 0.230279 1.531143
v 1.273816 0.160328 -0.000000
v 1.272147 0.161430 -0.000000
v -1.273816 0.160328 -0.000000
v -1.272147 0.161430 -0.000000
v 0.000000 0.160328 1.273816
v 0.000000 0.161430 1.272147
v 0.000000 0.160328 -1.273816
v 0.000000 0.161430 -1.272147
v -1.273816 0.105489 -0.000000
v -1.271816 0.105489 -0.000000
v 1.273816 0.105489 -0.000000
v 1.271816 0.105489 -0.000000
v 0.000000 0.105489 1.273815
v 0.000000 0.105489 1.271815
v 0.000000 0.105489 -1.273815
v 0.000000 0.105489 -1.271815
v 1.518423 -0.228702 -2.652236
v 1.518423 -0.228702 -2.092901
v 1.518423 0.228701 -2.092901
v 1.518423 0.228701 -2.652236
v 1.519423 -0.228701 2.653235
v 2.279360 -0.228724 2.653397
v 2.279360 0.228724 2.653397
v 1.519423 0.228702 2.653235
v -1.519423 0.228702 2.653235
v -2.279360 0.228724 2.653397
v -2.279360 -0.228724 2.653397
v -1.519423 -0.228701 2.653235
v -2.684206 0.228724 -2.249551
v -2.281067 0.228724 -2.652690
v -2.281067 -0.228724 -2.652690
v -2.684206 -0.228724 -2.249551
v -2.684913 0.228724 -2.247844
v -2.684913 -0.228724 -2.247844
v -2.684752 -0.228701 -1.532721
v -2.684752 0.228701 -1.532721
v 2.684752 -0.228701 1.532721
v 2.684752 0.228701 1.532721
v 2.684913 0.228724 2.247844
v 2.684913 -0.228724 2.247844
v 2.684913 0.228724 -2.247844
v 2.684752 0.228701 -1.532721
v 2.684752 -0.228701 -1.532721
v 2.684913 -0.228724 -2.247844
v 2.279360 -0.228724 -2.653397
v 1.519423 -0.228702 -2.653235
v 1.519423 0.228701 -2.653235
v 2.279360 0.228724 -2.653397
v 0.382195 0.106489 -2.039030
v -0.382195 0.106489 -2.039030
v -0.382051 0.159885 -2.038941
v 0.382051 0.159885 -2.038941
v -2.079603 -0.228701 1.531721
v -2.683752 -0.228701 1.531721
v -2.683752 0.228701 1.531721
v -2.079603 0.228701 1.531721
v -2.039030 0.106489 0.382195
v -2.038941 0.159885 0.382051
v -2.038941 0.159885 -0.382051
v -2.039030 0.106489 -0.382195
v 2.683752 0.228701 -1.531721
v 2.079603 0.228701 -1.531721
v 2.079603 -0.228701 -1.531721
v 2.683752 -0.228701 -1.531721
v 2.077603 0.228701 -2.091901
v 1.519423 0.228701 -2.091901
v 1.519423 -0.228702 -2.091901
v 2.077603 -0.228702 -2.091901
v 2.281067 0.228724 -2.652690
v 2.684206 0.228724 -2.249551
v 2.684206 -0.228724 -2.249551
v 2.281067 -0.228724 -2.652690
v 2.684206 -0.228724 2.249551
v 2.684206 0.228724 2.249551
v 2.281067 0.228724 2.652690
v 2.281067 -0.228724 2.652690
v -2.684913 -0.228724 2.247844
v -2.684913 0.228724 2.247844
v -2.684752 0.228701 1.532721
v -2.684752 -0.228701 1.532721
v 1.518423 -0.228701 2.652236
v 1.518423 0.228702 2.652236
v 1.518423 0.228702 2.092901
v 1.518423 -0.228701 2.092901
v -1.519423 -0.229702 -2.652236
v -1.519423 -0.229702 -2.092901
v -2.079603 -0.229702 -2.092901
v -2.079603 -0.229701 -1.532721
v -2.683752 -0.229701 -1.532721
v -2.683913 -0.229724 -2.248430
v -2.279946 -0.229724 -2.652397
v 2.079603 -0.229702 -2.092901
v 1.519423 -0.229702 -2.092901
v 1.519423 -0.229702 -2.652236
v 2.279946 -0.229724 -2.652397
v 2.683913 -0.229724 -2.248430
v 2.683752 -0.229701 -1.532721
v 2.079603 -0.229701 -1.532721
v -2.279946 -0.229724 2.652397
v -2.683913 -0.229724 2.248430
v -2.683752 -0.229701 1.532721
v -2.079603 -0.229701 1.532721
v -2.079603 -0.229701 2.092901
v -1.519423 -0.229701 2.092901
v -1.519423 -0.229701 2.652236
v 2.279946 -0.229724 2.652397
v 1.519423 -0.229701 2.652236
v 1.519423 -0.229701 2.092901
v 2.079603 -0.229701 2.092901
v 2.079603 -0.229701 1.532721
v 2.683752 -0.229701 1.532721
v 2.683913 -0.229724 2.248430
v -2.079603 0.229701 -2.092901
v -1.519423 0.229701 -2.092901
v -1.519423 0.229701 -2.652236
v -2.279946 0.229724 -2.652397
v -2.683913 0.229724 -2.248430
v -2.683752 0.229701 -1.532721
v -2.079603 0.229701 -1.532721
v 2.279946 0.229724 -2.652397
v 1.519423 0.229701 -2.652236
v 1.519423 0.229701 -2.092901
v 2.079603 0.229701 -2.092901
v 2.079603 0.229701 -1.532721
v 2.683752 0.229701 -1.532721
v 2.683913 0.229724 -2.248430
v 2.038135 0.106489 -0.382747
v 1.273710 0.106489 -0.000447
v 1.273876 0.159879 -0.000447
v 2.038046 0.159885 -0.382603
v -2.279946 0.229724 2.652397
v -1.519423 0.229702 2.652236
v -1.519423 0.229702 2.092901
v -2.079603 0.229702 2.092901
v -2.079603 0.229701 1.532721
v -2.683752 0.229701 1.532721
v -2.683913 0.229724 2.248430
v 2.079603 0.229702 2.092901
v 1.519423 0.229702 2.092901
v 1.519423 0.229702 2.652236
v 2.279946 0.229724 2.652397
v 2.683913 0.229724 2.248430
v 2.683752 0.229701 1.532721
v 2.079603 0.229701 1.532721
v 1.275217 0.160879 -0.000000
v 2.037941 0.160885 0.381433
v 2.037941 0.160885 -0.381433
v -1.275217 0.160879 -0.000000
v -2.037941 0.160885 -0.381433
v -2.037941 0.160885 0.381433
v 0.000000 0.160879 1.275217
v -0.381433 0.160885 2.037940
v 0.381433 0.160885 2.037940
v 0.000000 0.160879 -1.275217
v 0.381433 0.160885 -2.037941
v -0.381433 0.160885 -2.037941
v -0.382747 0.106489 -2.038135
v -0.000447 0.106489 -1.273709
v -0.000447 0.159879 -1.273876
v -0.382603 0.159885 -2.038046
v 2.038046 0.159885 0.382603
v 1.273876 0.159879 0.000447
v 1.273710 0.106489 0.000447
v 2.038135 0.106489 0.382747
v -2.038135 0.106489 0.382747
v -1.273710 0.106489 0.000447
v -1.273876 0.159879 0.000447
v -2.038046 0.159885 0.382603
v -1.273876 0.159879 -0.000447
v -1.273710 0.106489 -0.000447
v -2.038135 0.106489 -0.382747
v -2.038046 0.159885 -0.382603
v 0.382747 0.106489 -2.038135
v 0.382603 0.159885 -2.038046
v 0.000447 0.159879 -1.273876
v 0.000447 0.106489 -1.273709
v 0.000447 0.159879 1.273876
v 0.382603 0.159885 2.038045
v 0.382747 0.106489 2.038134
v 0.000447 0.106489 1.273709
v -0.382747 0.106489 2.038134
v -0.382603 0.159885 2.038045
v -0.000447 0.159879 1.273876
v -0.000447 0.106489 1.273709
v -1.518423 0.228702 2.092901
v -1.518423 0.228702 2.652236
v -1.518423 -0.228701 2.652236
v -1.518423 -0.228701 2.092901
v -1.519423 -0.228702 -2.091901
v -1.519423 0.228701 -2.091901
v -2.077603 0.228701 -2.091901
v -2.077603 -0.228702 -2.091901
v -1.518423 0.228701 -2.092901
v -1.518423 -0.228702 -2.092901
v -1.518423 -0.228702 -2.652236
v -1.518423 0.228701 -2.652236
v 0.382051 0.159885 2.038940
v -0.382051 0.159885 2.038940
v -0.382195 0.106489 2.039029
v 0.382195 0.106489 2.039029
v 2.078603 -0.228701 2.090901
v 2.078603 0.228702 2.090901
v 2.078603 0.228701 1.532721
v 2.078603 -0.228701 1.532721
v -2.281067 0.228724 2.652690
v -2.684206 0.228724 2.249551
v -2.684206 -0.228724 2.249551
v -2.281067 -0.228724 2.652690
v 2.683752 0.228701 1.531721
v 2.683752 -0.228701 1.531721
v 2.079603 -0.228701 1.531721
v 2.079603 0.228701 1.531721
v 2.038941 0.159885 -0.382051
v 2.038941 0.159885 0.382051
v 2.039030 0.106489 0.382195
v 2.039030 0.106489 -0.382195
v -2.078603 0.228701 -1.532721
v -2.078603 -0.228701 -1.532721
v -2.078603 -0.228702 -2.090901
v -2.078603 0.228701 -2.090901
v -2.078603 0.228701 1.532721
v -2.078603 0.228702 2.090901
v -2.078603 -0.228701 2.090901
v -2.078603 -0.228701 1.532721
v -2.079603 -0.228701 -1.531721
v -2.079603 0.228701 -1.531721
v -2.683752 0.228701 -1.531721
v -2.683752 -0.228701 -1.531721
v 2.078603 -0.228702 -2.090901
v 2.078603 -0.228701 -1.532721
v 2.078603 0.228701 -1.532721
v 2.078603 0.228701 -2.090901
v -1.519423 -0.228701 2.091901
v -2.077603 -0.228701 2.091901
v -2.077603 0.228702 2.091901
v -1.519423 0.228702 2.091901
v 2.077603 0.228702 2.091901
v 2.077603 -0.228701 2.091901
v 1.519423 -0.228701 2.091901
v 1.519423 0.228702 2.091901
v -1.519423 0.228701 -2.653235
v -1.519423 -0.228702 -2.653235
v -2.279360 -0.228724 -2.653397
v -2.279360 0.228724 -2.653397
vn 0.4700 -0.6240 0.6242
vn 0.4698 -0.6242 -0.6242
vn -0.5809 -0.5710 -0.5802
vn 0.5773 0.5774 -0.5773
vn 0.4700 0.6240 0.6242
vn -0.5774 -0.5773 0.5773
vn 0.5774 -0.5773 -0.5774
vn 0.4702 0.6239 -0.6242
vn -0.5773 0.5774 0.5774
vn 0.5841 -0.5668 0.5811
vn -0.5808 0.5710 -0.5802
vn 0.5842 0.5666 0.5811
vn 0.6316 -0.6722 -0.3864
vn -0.6007 -0.6434 -0.4745
vn -0.5808 -0.5710 0.5802
vn -0.2906 0.6483 -0.7038
vn 0.6315 0.6722 -0.3864
vn 0.3404 -0.4648 0.8174
vn -0.2906 -0.6483 -0.7038
vn 0.3403 0.4649 0.8174
vn -0.5809 0.5710 0.5802
vn -0.6006 0.6436 -0.4745
vn 0.5842 -0.5666 -0.5811
vn 0.5841 0.5668 -0.5811
vn -0.6316 0.6722 -0.3864
vn 0.6007 0.6434 -0.4745
vn 0.5808 0.5710 0.5802
vn 0.2906 -0.6483 -0.7038
vn -0.6315 -0.6722 -0.3864
vn -0.3404 0.4648 0.8174
vn 0.2906 0.6483 -0.7038
vn -0.3403 -0.4649 0.8174
vn 0.5809 -0.5710 0.5802
vn 0.6006 -0.6436 -0.4745
vn -0.5842 0.5666 -0.5811
vn -0.5841 -0.5668 -0.5811
vn 0.7110 0.6864 -0.1532
vn -0.1532 0.6864 0.7109
vn -0.8176 0.4644 -0.3404
vn 0.2906 -0.6483 0.7038
vn 0.7109 -0.6864 -0.1534
vn -0.3403 0.4649 -0.8174
vn 0.2906 0.6483 0.7037
vn -0.1534 -0.6863 0.7110
vn -0.3404 -0.4648 -0.8174
vn 0.7037 0.6483 0.2906
vn -0.8176 -0.4644 -0.3404
vn 0.7038 -0.6483 0.2905
vn 0.3865 -0.6721 -0.6316
vn 0.3864 0.6721 -0.6316
vn -0.5801 -0.5711 0.5808
vn 0.4747 -0.6434 0.6006
vn 0.5811 0.5667 -0.5841
vn 0.4747 0.6434 0.6006
vn 0.5811 -0.5667 -0.5841
vn -0.5801 0.5711 0.5808
vn -0.4747 0.6434 -0.6006
vn -0.4747 -0.6434 -0.6006
vn 0.5801 -0.5711 -0.5808
vn -0.5811 -0.5667 0.5841
vn -0.3863 0.6722 0.6316
vn 0.5801 0.5711 -0.5808
vn -0.7038 -0.6483 -0.2905
vn -0.3865 -0.6721 0.6316
vn 0.8176 0.4644 0.3404
vn -0.7037 0.6483 -0.2906
vn 0.8176 -0.4644 0.3404
vn -0.5811 0.5667 0.5841
vn -0.3864 0.6721 -0.6316
vn 0.8176 0.4644 -0.3404
vn 0.5801 0.5711 0.5808
vn -0.4747 0.6434 0.6006
vn -0.5811 -0.5667 -0.5841
vn -0.7037 -0.6484 0.2906
vn -0.4747 -0.6434 0.6006
vn -0.5811 0.5667 -0.5841
vn -0.3863 -0.6722 -0.6316
vn 0.5801 -0.5711 0.5808
vn -0.7038 0.6483 0.2905
vn 0.8176 -0.4644 -0.3404
vn 0.6315 -0.6722 0.3864
vn 0.3403 -0.4649 -0.8174
vn -0.6006 -0.6436 0.4745
vn -0.2906 0.6483 0.7038
vn -0.6007 0.6434 0.4745
vn 0.6316 0.6722 0.3864
vn -0.2906 -0.6483 0.7038
vn 0.3404 0.4648 -0.8174
vn 0.7483 -0.5090 0.4254
vn 0.7475 -0.4846 -0.4543
vn -0.7475 -0.4846 -0.4543
vn -0.7483 -0.5090 0.4254
vn 0.7816 -0.4021 0.4768
vn -0.6559 0.6394 -0.4013
vn -0.6690 0.5166 0.5343
vn 0.7053 -0.5593 0.4355
vn 0.6690 0.5166 0.5343
vn -0.7054 -0.5593 0.4355
vn 0.6559 0.6394 -0.4013
vn -0.7816 -0.4021 0.4768
vn -0.6242 -0.6241 0.4701
vn 0.6242 -0.6241 0.4700
vn 0.5772 -0.5775 -0.5774
vn 0.5811 0.5667 0.5841
vn -0.6242 0.6241 0.4700
vn -0.5801 -0.5710 -0.5808
vn 0.5810 -0.5668 0.5841
vn 0.6242 0.6241 0.4701
vn -0.5801 0.5711 -0.5808
vn 0.5772 0.5775 -0.5773
vn -0.5774 0.5773 0.5773
vn 0.4254 -0.5090 0.7483
vn -0.4544 -0.4845 0.7475
vn -0.4012 0.6395 0.6558
vn 0.5344 0.5167 0.6689
vn 0.4355 -0.5594 -0.7053
vn 0.4768 -0.4021 -0.7816
vn -0.4014 0.6393 -0.6559
vn 0.5342 0.5166 -0.6691
vn 0.4355 -0.5593 0.7053
vn 0.4254 -0.5090 -0.7483
vn 0.4768 -0.4021 0.7816
vn -0.4544 -0.4845 -0.7475
vn -0.6242 0.6241 -0.4701
vn 0.6242 0.6241 -0.4700
vn 0.5774 -0.5773 -0.5773
vn -0.6242 -0.6241 -0.4700
vn -0.5772 0.5775 0.5773
vn 0.5774 0.5773 -0.5773
vn 0.6242 -0.6241 -0.4701
vn -0.5772 -0.5775 0.5774
vn 0.7072 0.7070 0.0002
vn -0.5470 0.6338 0.5470
vn -0.6241 0.6242 -0.4700
vn 0.2769 -0.9202 -0.2768
vn -0.6242 -0.6242 -0.4699
vn 0.7071 -0.7071 -0.0000
vn 0.2769 0.9202 -0.2769
vn -0.5470 -0.6338 0.5469
vn 0.1534 0.6863 0.7110
vn -0.7109 0.6864 -0.1534
vn 0.1532 -0.6864 0.7109
vn -0.7110 -0.6864 -0.1532
vn 0.1532 0.6864 -0.7109
vn 0.1534 -0.6863 -0.7110
vn -0.7110 0.6864 0.1532
vn -0.7109 -0.6864 0.1534
vn 0.3865 0.6721 0.6316
vn 0.3864 -0.6721 0.6316
vn -0.8176 -0.4644 0.3404
vn 0.7037 -0.6483 -0.2906
vn -0.8176 0.4644 0.3404
vn 0.4747 0.6434 -0.6006
vn 0.4747 -0.6434 -0.6006
vn 0.7038 0.6483 -0.2905
vn 0.4698 0.6242 0.6242
vn 0.4702 -0.6239 0.6242
vn 0.4700 0.6240 -0.6242
vn 0.5773 -0.5774 0.5773
vn 0.4700 -0.6240 -0.6242
vn -0.5774 0.5773 -0.5773
vn 0.5774 0.5773 0.5774
vn -0.5773 -0.5774 -0.5774
vn 0.6240 0.4700 0.6242
vn 0.6006 0.4989 -0.6248
vn 0.5808 -0.5710 -0.5802
vn -0.5774 0.5773 -0.5774
vn 0.5773 -0.5774 0.5774
vn 0.5470 -0.6338 0.5470
vn 0.6940 0.1918 0.6940
vn -0.2769 0.9202 -0.2768
vn 0.6241 0.4698 0.6242
vn -0.6248 0.4988 0.6007
vn 0.5772 -0.5775 0.5773
vn -0.8167 0.4627 -0.3449
vn -0.3450 0.4623 -0.8169
vn -0.5841 0.5667 0.5811
vn -0.6241 0.4700 0.6242
vn -0.6940 0.1918 0.6940
vn -0.6006 0.4988 -0.6248
vn 0.3450 0.4623 -0.8169
vn 0.8167 0.4627 -0.3449
vn 0.6248 0.4988 0.6007
vn -0.6241 0.4699 0.6242
vn -0.3450 0.4623 0.8169
vn -0.8167 0.4627 0.3449
vn -0.6248 0.4988 -0.6007
vn 0.6241 0.4699 -0.6242
vn 0.5470 -0.6338 -0.5469
vn 0.6940 0.1918 -0.6940
vn -0.2769 0.9202 0.2769
vn 0.6241 0.4700 -0.6242
vn -0.5773 0.5774 0.5773
vn 0.6006 0.4988 0.6248
vn -0.6006 0.4989 0.6248
vn 0.3450 0.4623 0.8169
vn -0.6240 0.4700 -0.6242
vn -0.5470 -0.6338 -0.5470
vn -0.6940 0.1918 -0.6940
vn 0.2769 0.9202 0.2768
vn -0.6241 0.4698 -0.6242
vn 0.5774 0.5773 0.5773
vn 0.6248 0.4988 -0.6007
vn -0.5772 -0.5775 -0.5773
vn 0.8167 0.4627 0.3449
vn 0.6241 -0.4700 0.6242
vn 0.6940 -0.1918 0.6940
vn 0.5470 0.6338 0.5469
vn -0.5773 -0.5774 -0.5773
vn -0.2769 -0.9202 -0.2769
vn 0.6006 -0.4988 -0.6248
vn -0.5842 -0.5666 0.5811
vn 0.5809 0.5710 -0.5802
vn -0.3450 -0.4623 -0.8169
vn -0.8167 -0.4627 -0.3449
vn -0.6248 -0.4988 0.6007
vn 0.6241 -0.4699 0.6242
vn -0.5774 -0.5773 -0.5773
vn 0.5772 0.5775 0.5774
vn -0.6006 -0.4989 -0.6248
vn 0.3450 -0.4623 -0.8169
vn -0.6240 -0.4700 0.6242
vn -0.6940 -0.1918 0.6940
vn -0.6241 -0.4698 0.6242
vn 0.6248 -0.4988 0.6007
vn 0.8167 -0.4627 -0.3449
vn 0.8730 -0.4851 0.0494
vn 0.4544 -0.4845 -0.7475
vn -0.8462 -0.5329 -0.0000
vn -0.4696 -0.4796 0.7413
vn 0.8985 -0.4390 -0.0000
vn -0.4768 -0.4021 0.7816
vn -0.7443 0.6679 -0.0000
vn -0.3616 0.4936 0.7910
vn 0.8518 -0.5239 -0.0000
vn 0.8486 0.5004 0.1718
vn -0.4355 -0.5594 0.7053
vn 0.4012 0.6395 -0.6558
vn 0.6006 -0.4989 0.6248
vn -0.3450 -0.4623 0.8169
vn 0.6240 -0.4700 -0.6242
vn -0.5774 -0.5773 0.5774
vn 0.5773 0.5774 -0.5774
vn 0.5470 0.6338 -0.5470
vn 0.6940 -0.1918 -0.6940
vn -0.2769 -0.9202 0.2768
vn 0.6241 -0.4698 -0.6242
vn -0.6248 -0.4988 -0.6007
vn -0.8167 -0.4627 0.3449
vn -0.6241 -0.4700 -0.6242
vn -0.6940 -0.1918 -0.6940
vn -0.5470 0.6338 -0.5469
vn 0.2769 -0.9202 0.2769
vn -0.6006 -0.4988 0.6248
vn 0.3450 -0.4623 0.8169
vn 0.8167 -0.4627 0.3449
vn 0.6248 -0.4988 -0.6007
vn -0.6241 -0.4699 -0.6242
vn 0.5774 -0.5773 0.5773
vn -0.5772 0.5775 -0.5774
vn -0.8983 -0.4395 -0.0000
vn 0.4014 0.6393 0.6559
vn 0.4872 -0.4174 0.7671
vn -0.4355 -0.5593 -0.7053
vn 0.4870 -0.4175 -0.7672
vn 0.8983 -0.4395 -0.0000
vn 0.7443 0.6679 -0.0000
vn -0.4872 -0.4174 -0.7671
vn -0.4870 -0.4175 0.7672
vn -0.8518 -0.5239 -0.0000
vn -0.0000 -0.4394 -0.8983
vn -0.0000 0.6679 -0.7443
vn -0.6559 0.6394 0.4013
vn -0.7672 -0.4174 0.4870
vn 0.7053 -0.5594 -0.4355
vn 0.7672 -0.4174 0.4871
vn -0.7053 -0.5593 -0.4355
vn 0.6559 0.6394 0.4013
vn -0.0000 -0.5239 0.8518
vn -0.0000 -0.4394 0.8983
vn -0.0000 0.6678 0.7443
vn 0.7672 -0.4174 -0.4871
vn -0.7672 -0.4174 -0.4871
vn -0.0000 -0.5239 -0.8518
vn 0.0491 -0.4853 -0.8730
vn -0.0000 -0.5329 0.8462
vn 0.7412 -0.4796 0.4697
vn -0.0000 -0.4388 -0.8986
vn 0.7910 0.4935 0.3616
vn 0.1718 0.5004 -0.8485
vn -0.3616 0.4936 -0.7910
vn 0.8486 0.5004 -0.1718
vn -0.4696 -0.4796 -0.7413
vn 0.8730 -0.4852 -0.0494
vn -0.4768 -0.4021 -0.7816
vn 0.4544 -0.4845 0.7475
vn -0.8730 -0.4851 -0.0494
vn 0.8462 -0.5329 -0.0000
vn 0.4696 -0.4796 -0.7413
vn -0.8985 -0.4390 -0.0000
vn 0.3616 0.4936 -0.7910
vn -0.8486 0.5004 -0.1718
vn 0.4696 -0.4796 0.7413
vn 0.3617 0.4936 0.7910
vn -0.8730 -0.4852 0.0494
vn -0.8486 0.5004 0.1718
vn -0.0491 -0.4853 -0.8730
vn -0.1718 0.5005 -0.8485
vn -0.7910 0.4935 0.3616
vn -0.7412 -0.4796 0.4697
vn -0.1718 0.5004 0.8486
vn -0.7910 0.4935 -0.3616
vn -0.0491 -0.4853 0.8730
vn -0.7816 -0.4021 -0.4768
vn 0.7475 -0.4846 0.4543
vn -0.0000 -0.5329 -0.8462
vn -0.7412 -0.4796 -0.4697
vn -0.0000 -0.4389 0.8985
vn 0.0491 -0.4853 0.8730
vn -0.7475 -0.4846 0.4543
vn 0.1718 0.5004 0.8486
vn 0.7816 -0.4021 -0.4768
vn 0.7910 0.4935 -0.3616
vn 0.7412 -0.4796 -0.4697
vn -0.4702 0.6239 0.6242
vn -0.4700 0.6240 -0.6242
vn -0.4698 -0.6242 0.6242
vn -0.4700 -0.6240 -0.6242
vn 0.6242 0.6242 -0.4699
vn 0.6241 -0.6242 -0.4700
vn -0.7071 0.7071 -0.0000
vn -0.7072 -0.7070 0.0002
vn -0.4700 -0.6240 0.6242
vn -0.4700 0.6240 0.6242
vn -0.4702 -0.6239 -0.6242
vn -0.4698 0.6242 -0.6242
vn -0.6690 0.5166 -0.5343
vn 0.6690 0.5167 -0.5343
vn -0.7483 -0.5090 -0.4254
vn 0.7483 -0.5090 -0.4254
vn -0.0001 0.7070 0.7072
vn -0.0003 -0.7070 0.7072
vn 0.4699 0.6242 -0.6241
vn 0.4699 -0.6242 -0.6241
vn -0.1534 0.6863 -0.7110
vn 0.7109 0.6864 0.1534
vn -0.1532 -0.6864 -0.7109
vn 0.7110 -0.6864 0.1532
vn -0.5344 0.5167 -0.6689
vn -0.5342 0.5166 0.6691
vn -0.4254 -0.5090 0.7483
vn -0.4254 -0.5090 -0.7483
vn -0.4699 -0.6242 0.6241
vn -0.4699 0.6242 0.6241
vn 0.0003 -0.7070 -0.7072
vn 0.0001 0.7070 -0.7072
vn 0.0003 0.7070 0.7072
vn -0.4699 0.6242 -0.6241
vn 0.0001 -0.7070 0.7072
vn -0.4699 -0.6242 -0.6241
vn -0.0001 -0.7070 -0.7072
vn 0.4699 -0.6242 0.6241
vn 0.4699 0.6242 0.6241
vn -0.0003 0.7070 -0.7072
vn -0.7071 -0.7071 -0.0000
vn 0.6242 -0.6242 0.4699
vn -0.7072 0.7070 -0.0002
vn 0.6241 0.6242 0.4700
vn 0.7072 -0.7070 -0.0002
vn 0.7071 0.7071 -0.0000
vn -0.6241 -0.6242 0.4700
vn -0.6242 0.6242 0.4699
vn 0.6007 -0.6434 0.4745
vn 0.6006 0.6436 0.4745
vn -0.6316 -0.6722 0.3864
vn -0.6315 0.6722 0.3864
vt 0.000000 0.000000
s 1
f 162/1/1 161/1/2 23/1/3
f 161/1/2 162/1/1 106/1/4
f 163/1/5 162/1/1 105/1/6
f 162/1/1 163/1/5 128/1/7
f 164/1/8 163/1/5 127/1/9
f 163/1/5 164/1/8 22/1/10
f 161/1/2 164/1/8 21/1/11
f 164/1/8 161/1/2 24/1/12
f 166/1/13 165/1/14 53/1/15
f 165/1/14 166/1/13 50/1/16
f 167/1/17 166/1/13 49/1/18
f 166/1/13 167/1/17 56/1/19
f 167/1/17 55/1/20 51/1/21
f 168/1/22 52/1/23 56/1/19
f 165/1/14 168/1/22 51/1/21
f 168/1/22 165/1/14 54/1/24
f 170/1/25 169/1/26 35/1/27
f 169/1/26 170/1/25 40/1/28
f 171/1/29 170/1/25 39/1/30
f 170/1/25 171/1/29 34/1/31
f 171/1/29 33/1/32 37/1/33
f 172/1/34 38/1/35 34/1/31
f 169/1/26 172/1/34 37/1/33
f 172/1/34 169/1/26 36/1/36
f 174/1/37 173/1/38 11/1/39
f 173/1/38 174/1/37 4/1/40
f 175/1/41 174/1/37 3/1/42
f 174/1/37 175/1/41 2/1/43
f 176/1/44 175/1/41 1/1/45
f 175/1/41 176/1/44 6/1/46
f 173/1/38 176/1/44 5/1/47
f 176/1/44 173/1/38 12/1/48
f 178/1/49 177/1/50 11/1/39
f 177/1/50 178/1/49 6/1/46
f 178/1/49 5/1/47 13/1/51
f 179/1/52 14/1/53 6/1/46
f 180/1/54 179/1/52 13/1/51
f 179/1/52 180/1/54 16/1/55
f 177/1/50 180/1/54 15/1/56
f 180/1/54 177/1/50 12/1/48
f 182/1/57 181/1/58 61/1/59
f 181/1/58 182/1/57 64/1/60
f 183/1/61 182/1/57 63/1/62
f 182/1/57 183/1/61 60/1/63
f 184/1/64 183/1/61 59/1/65
f 183/1/61 184/1/64 58/1/66
f 184/1/64 57/1/67 61/1/59
f 181/1/58 62/1/68 58/1/66
f 185/1/69 27/1/70 31/1/71
f 186/1/72 32/1/73 28/1/74
f 187/1/75 186/1/72 31/1/71
f 186/1/72 187/1/75 30/1/76
f 188/1/77 187/1/75 29/1/78
f 187/1/75 188/1/77 26/1/79
f 185/1/69 188/1/77 25/1/80
f 188/1/77 185/1/69 28/1/74
f 189/1/81 19/1/82 23/1/3
f 190/1/83 24/1/12 20/1/84
f 191/1/85 190/1/83 23/1/3
f 190/1/83 191/1/85 22/1/10
f 192/1/86 191/1/85 21/1/11
f 191/1/85 192/1/86 18/1/87
f 189/1/81 192/1/86 17/1/88
f 192/1/86 189/1/81 20/1/84
f 193/1/89 85/1/90 87/1/91
f 193/1/89 194/1/92 88/1/93
f 194/1/92 87/1/91 81/1/94
f 195/1/95 82/1/96 88/1/93
f 196/1/97 195/1/95 81/1/94
f 195/1/95 196/1/97 84/1/98
f 193/1/89 196/1/97 83/1/99
f 196/1/97 193/1/89 86/1/100
f 198/1/101 197/1/102 113/1/103
f 197/1/102 198/1/101 46/1/104
f 199/1/105 198/1/101 45/1/106
f 198/1/101 199/1/105 48/1/107
f 200/1/108 199/1/105 47/1/109
f 199/1/105 200/1/108 138/1/6
f 197/1/102 200/1/108 137/1/110
f 200/1/108 197/1/102 114/1/111
f 201/1/112 67/1/113 71/1/114
f 202/1/115 72/1/116 68/1/117
f 202/1/115 71/1/114 69/1/118
f 202/1/115 203/1/119 70/1/120
f 204/1/121 203/1/119 69/1/118
f 203/1/119 204/1/121 66/1/122
f 204/1/121 65/1/123 67/1/113
f 204/1/121 201/1/112 68/1/117
f 206/1/124 205/1/125 31/1/71
f 205/1/125 206/1/124 132/1/126
f 207/1/127 206/1/124 131/1/128
f 206/1/124 207/1/127 108/1/129
f 208/1/130 207/1/127 107/1/131
f 207/1/127 208/1/130 30/1/76
f 205/1/125 208/1/130 29/1/78
f 208/1/130 205/1/125 32/1/73
f 209/1/132 129/1/133 127/1/9
f 210/1/134 128/1/7 130/1/135
f 211/1/136 210/1/134 127/1/9
f 210/1/134 211/1/136 106/1/4
f 212/1/137 211/1/136 105/1/6
f 211/1/136 212/1/137 104/1/138
f 209/1/132 212/1/137 103/1/139
f 212/1/137 209/1/132 130/1/135
f 214/1/140 213/1/141 17/1/88
f 213/1/141 214/1/140 28/1/74
f 215/1/142 214/1/140 27/1/70
f 214/1/140 215/1/142 26/1/79
f 216/1/143 215/1/142 25/1/80
f 215/1/142 216/1/143 20/1/84
f 213/1/141 216/1/143 19/1/82
f 216/1/143 213/1/141 18/1/87
f 218/1/144 217/1/145 57/1/67
f 217/1/145 218/1/144 60/1/63
f 219/1/146 218/1/144 59/1/65
f 218/1/144 219/1/146 56/1/19
f 220/1/147 219/1/146 55/1/20
f 219/1/146 220/1/147 50/1/16
f 217/1/145 220/1/147 49/1/18
f 220/1/147 217/1/145 58/1/66
f 222/1/148 221/1/149 41/1/150
f 221/1/149 222/1/148 44/1/151
f 222/1/148 43/1/152 47/1/109
f 223/1/153 48/1/107 44/1/151
f 224/1/154 223/1/153 47/1/109
f 223/1/153 224/1/154 46/1/104
f 221/1/149 224/1/154 45/1/106
f 224/1/154 221/1/149 42/1/155
f 226/1/156 225/1/157 53/1/15
f 225/1/157 226/1/156 52/1/23
f 227/1/158 226/1/156 51/1/21
f 226/1/156 227/1/158 140/1/159
f 228/1/160 227/1/158 139/1/161
f 227/1/158 228/1/160 116/1/162
f 225/1/157 228/1/160 115/1/163
f 228/1/160 225/1/157 54/1/24
f 230/1/164 229/1/165 9/1/166
f 229/1/165 230/1/164 100/1/167
f 230/1/164 99/1/168 97/1/169
f 230/1/164 231/1/170 98/1/171
f 232/1/172 231/1/170 97/1/169
f 232/1/172 102/1/161 98/1/171
f 233/1/173 232/1/172 101/1/174
f 232/1/172 233/1/173 14/1/53
f 233/1/173 13/1/51 5/1/47
f 233/1/173 234/1/175 6/1/46
f 235/1/176 234/1/175 5/1/47
f 234/1/175 235/1/176 2/1/43
f 229/1/165 235/1/176 1/1/45
f 229/1/165 10/1/177 2/1/43
f 237/1/178 236/1/179 103/1/139
f 237/1/178 106/1/4 104/1/138
f 238/1/180 237/1/178 105/1/6
f 237/1/178 238/1/180 24/1/12
f 238/1/180 23/1/3 19/1/82
f 238/1/180 239/1/181 20/1/84
f 239/1/181 19/1/82 25/1/80
f 240/1/182 26/1/79 20/1/84
f 241/1/183 240/1/182 25/1/80
f 241/1/183 30/1/76 26/1/79
f 242/1/184 241/1/183 29/1/78
f 241/1/183 242/1/184 108/1/129
f 242/1/184 107/1/131 103/1/139
f 242/1/184 236/1/179 104/1/138
f 243/1/185 33/1/32 41/1/150
f 244/1/186 42/1/155 34/1/31
f 245/1/187 244/1/186 41/1/150
f 245/1/187 46/1/104 42/1/155
f 246/1/188 245/1/187 45/1/106
f 245/1/187 246/1/188 114/1/111
f 246/1/188 113/1/103 109/1/189
f 246/1/188 247/1/190 110/1/191
f 248/1/192 247/1/190 109/1/189
f 248/1/192 112/1/193 110/1/191
f 249/1/194 248/1/192 111/1/126
f 248/1/192 249/1/194 38/1/35
f 249/1/194 37/1/33 33/1/32
f 249/1/194 243/1/185 34/1/31
f 251/1/195 250/1/196 49/1/18
f 251/1/195 54/1/24 50/1/16
f 252/1/197 251/1/195 53/1/15
f 251/1/195 252/1/197 116/1/162
f 252/1/197 115/1/163 117/1/198
f 252/1/197 253/1/199 118/1/200
f 254/1/201 253/1/199 117/1/198
f 254/1/201 120/1/202 118/1/200
f 255/1/203 254/1/201 119/1/204
f 254/1/201 255/1/203 62/1/68
f 255/1/203 61/1/59 57/1/67
f 255/1/203 256/1/205 58/1/66
f 250/1/196 256/1/205 57/1/67
f 256/1/205 250/1/196 50/1/16
f 258/1/206 257/1/207 123/1/208
f 258/1/206 122/1/209 124/1/210
f 259/1/211 258/1/206 121/1/202
f 258/1/206 259/1/211 8/1/212
f 259/1/211 7/1/213 3/1/42
f 259/1/211 260/1/214 4/1/40
f 260/1/214 3/1/42 11/1/39
f 261/1/215 12/1/48 4/1/40
f 262/1/216 261/1/215 11/1/39
f 262/1/216 16/1/55 12/1/48
f 263/1/217 262/1/216 15/1/56
f 262/1/216 263/1/217 126/1/218
f 263/1/217 125/1/219 123/1/208
f 263/1/217 257/1/207 124/1/210
f 265/1/220 264/1/221 17/1/88
f 265/1/220 22/1/10 18/1/87
f 266/1/222 265/1/220 21/1/11
f 265/1/220 266/1/222 128/1/7
f 266/1/222 127/1/9 129/1/133
f 266/1/222 267/1/223 130/1/135
f 268/1/224 267/1/223 129/1/133
f 268/1/224 132/1/126 130/1/135
f 269/1/225 268/1/224 131/1/128
f 268/1/224 269/1/225 32/1/73
f 269/1/225 31/1/71 27/1/70
f 269/1/225 270/1/226 28/1/74
f 264/1/221 270/1/226 27/1/70
f 270/1/226 264/1/221 18/1/87
f 271/1/227 77/1/228 155/1/229
f 272/1/230 156/1/231 78/1/232
f 272/1/230 155/1/229 145/1/233
f 273/1/234 146/1/235 156/1/231
f 274/1/236 273/1/234 145/1/233
f 273/1/234 274/1/236 74/1/237
f 271/1/227 274/1/236 73/1/238
f 274/1/236 271/1/227 78/1/232
f 276/1/239 275/1/240 39/1/30
f 276/1/239 36/1/36 40/1/28
f 277/1/241 276/1/239 35/1/27
f 276/1/239 277/1/241 134/1/242
f 277/1/241 133/1/243 135/1/244
f 277/1/241 278/1/245 136/1/246
f 279/1/247 278/1/245 135/1/244
f 279/1/247 138/1/6 136/1/246
f 280/1/248 279/1/247 137/1/110
f 279/1/247 280/1/248 48/1/107
f 280/1/248 47/1/109 43/1/152
f 280/1/248 281/1/249 44/1/151
f 275/1/240 281/1/249 43/1/152
f 281/1/249 275/1/240 40/1/28
f 283/1/250 282/1/251 141/1/252
f 283/1/250 140/1/159 142/1/253
f 284/1/254 283/1/250 139/1/161
f 283/1/250 284/1/254 52/1/23
f 284/1/254 51/1/21 55/1/20
f 284/1/254 285/1/255 56/1/19
f 285/1/255 55/1/20 59/1/65
f 286/1/256 60/1/63 56/1/19
f 287/1/257 286/1/256 59/1/65
f 287/1/257 64/1/60 60/1/63
f 288/1/258 287/1/257 63/1/62
f 287/1/257 288/1/258 144/1/259
f 288/1/258 143/1/260 141/1/252
f 288/1/258 282/1/251 142/1/253
f 289/1/261 145/1/233 79/1/262
f 289/1/261 290/1/263 80/1/264
f 291/1/265 290/1/263 79/1/262
f 290/1/263 291/1/265 74/1/237
f 289/1/261 291/1/265 73/1/238
f 289/1/261 146/1/235 74/1/237
f 292/1/266 147/1/267 69/1/118
f 292/1/266 293/1/268 70/1/120
f 294/1/269 293/1/268 69/1/118
f 293/1/268 294/1/269 72/1/116
f 292/1/266 294/1/269 71/1/114
f 292/1/266 148/1/270 72/1/116
f 295/1/271 149/1/272 95/1/273
f 295/1/271 296/1/274 96/1/275
f 297/1/276 296/1/274 95/1/273
f 296/1/274 297/1/276 90/1/277
f 295/1/271 297/1/276 89/1/278
f 295/1/271 150/1/279 90/1/277
f 298/1/280 151/1/281 83/1/99
f 298/1/280 299/1/282 84/1/98
f 300/1/283 299/1/282 83/1/99
f 299/1/282 300/1/283 82/1/96
f 298/1/280 300/1/283 81/1/94
f 298/1/280 152/1/284 82/1/96
f 301/1/285 87/1/91 159/1/286
f 302/1/287 160/1/288 88/1/93
f 302/1/287 159/1/286 151/1/281
f 303/1/289 152/1/284 160/1/288
f 304/1/290 303/1/289 151/1/281
f 303/1/289 304/1/290 82/1/96
f 301/1/285 304/1/290 81/1/94
f 304/1/290 301/1/285 88/1/93
f 306/1/291 305/1/292 79/1/262
f 306/1/291 146/1/235 80/1/264
f 307/1/293 306/1/291 145/1/233
f 306/1/291 307/1/293 156/1/231
f 308/1/294 307/1/293 155/1/229
f 307/1/293 308/1/294 76/1/295
f 308/1/294 75/1/296 79/1/262
f 305/1/292 80/1/264 76/1/295
f 309/1/297 67/1/113 153/1/298
f 310/1/299 154/1/300 68/1/117
f 310/1/299 153/1/298 147/1/267
f 311/1/301 148/1/270 154/1/300
f 312/1/302 311/1/301 147/1/267
f 311/1/301 312/1/302 72/1/116
f 309/1/297 312/1/302 71/1/114
f 312/1/302 309/1/297 68/1/117
f 314/1/303 313/1/304 147/1/267
f 313/1/304 314/1/303 154/1/300
f 315/1/305 314/1/303 153/1/298
f 314/1/303 315/1/305 66/1/122
f 315/1/305 65/1/123 69/1/118
f 316/1/306 70/1/120 66/1/122
f 313/1/304 316/1/306 69/1/118
f 313/1/304 148/1/270 70/1/120
f 317/1/307 85/1/90 83/1/99
f 318/1/308 84/1/98 86/1/100
f 318/1/308 83/1/99 151/1/281
f 319/1/309 152/1/284 84/1/98
f 320/1/310 319/1/309 151/1/281
f 319/1/309 320/1/310 160/1/288
f 317/1/307 320/1/310 159/1/286
f 320/1/310 317/1/307 86/1/100
f 322/1/311 321/1/312 149/1/272
f 321/1/312 322/1/311 90/1/277
f 323/1/313 322/1/311 89/1/278
f 322/1/311 323/1/313 94/1/314
f 323/1/313 93/1/315 157/1/316
f 324/1/317 158/1/318 94/1/314
f 324/1/317 157/1/316 149/1/272
f 321/1/312 150/1/279 158/1/318
f 325/1/319 91/1/320 95/1/273
f 326/1/321 96/1/275 92/1/322
f 326/1/321 95/1/273 149/1/272
f 327/1/323 150/1/279 96/1/275
f 328/1/324 327/1/323 149/1/272
f 327/1/323 328/1/324 158/1/318
f 325/1/319 328/1/324 157/1/316
f 328/1/324 325/1/319 92/1/322
f 330/1/325 329/1/326 133/1/243
f 329/1/326 330/1/325 36/1/36
f 331/1/327 330/1/325 35/1/27
f 330/1/325 331/1/327 38/1/35
f 332/1/328 331/1/327 37/1/33
f 331/1/327 332/1/328 112/1/193
f 329/1/326 332/1/328 111/1/126
f 332/1/328 329/1/326 134/1/242
f 334/1/329 333/1/330 99/1/168
f 333/1/330 334/1/329 122/1/209
f 335/1/331 334/1/329 121/1/202
f 334/1/329 335/1/331 124/1/210
f 336/1/332 335/1/331 123/1/208
f 335/1/331 336/1/332 98/1/171
f 336/1/332 97/1/169 99/1/168
f 333/1/330 100/1/167 98/1/171
f 338/1/333 337/1/334 121/1/202
f 337/1/334 338/1/333 100/1/167
f 339/1/335 338/1/333 99/1/168
f 338/1/333 339/1/335 10/1/177
f 340/1/336 339/1/335 9/1/166
f 339/1/335 340/1/336 8/1/212
f 337/1/334 340/1/336 7/1/213
f 340/1/336 337/1/334 122/1/209
f 342/1/337 341/1/338 89/1/278
f 342/1/337 96/1/275 90/1/277
f 343/1/339 342/1/337 95/1/273
f 342/1/337 343/1/339 92/1/322
f 343/1/339 91/1/320 93/1/315
f 343/1/339 344/1/340 94/1/314
f 344/1/340 93/1/315 89/1/278
f 341/1/338 90/1/277 94/1/314
f 346/1/341 345/1/342 117/1/198
f 345/1/342 346/1/341 142/1/253
f 346/1/341 141/1/252 143/1/260
f 347/1/343 144/1/259 142/1/253
f 348/1/344 347/1/343 143/1/260
f 347/1/343 348/1/344 120/1/202
f 345/1/342 348/1/344 119/1/204
f 348/1/344 345/1/342 118/1/200
f 350/1/345 349/1/346 39/1/30
f 349/1/346 350/1/345 44/1/151
f 351/1/347 350/1/345 43/1/152
f 350/1/345 351/1/347 42/1/155
f 352/1/348 351/1/347 41/1/150
f 351/1/347 352/1/348 34/1/31
f 349/1/346 352/1/348 33/1/32
f 352/1/348 349/1/346 40/1/28
f 354/1/102 353/1/108 63/1/62
f 353/1/108 354/1/102 62/1/68
f 355/1/101 354/1/102 61/1/59
f 354/1/102 355/1/101 120/1/202
f 356/1/105 355/1/101 119/1/204
f 355/1/101 356/1/105 144/1/259
f 353/1/108 356/1/105 143/1/260
f 356/1/105 353/1/108 64/1/60
f 357/1/349 73/1/238 79/1/262
f 357/1/349 358/1/350 80/1/264
f 359/1/351 358/1/350 79/1/262
f 358/1/350 359/1/351 76/1/295
f 359/1/351 75/1/296 77/1/228
f 359/1/351 360/1/352 78/1/232
f 360/1/352 77/1/228 73/1/238
f 357/1/349 74/1/237 78/1/232
f 362/1/353 361/1/354 125/1/219
f 361/1/354 362/1/353 102/1/161
f 363/1/355 362/1/353 101/1/174
f 362/1/353 363/1/355 98/1/171
f 364/1/356 363/1/355 97/1/169
f 363/1/355 364/1/356 124/1/210
f 364/1/356 123/1/208 125/1/219
f 361/1/354 126/1/218 124/1/210
f 366/1/357 365/1/358 137/1/110
f 365/1/358 366/1/357 136/1/246
f 367/1/359 366/1/357 135/1/244
f 366/1/357 367/1/359 110/1/191
f 367/1/359 109/1/189 113/1/103
f 368/1/360 114/1/111 110/1/191
f 365/1/358 368/1/360 113/1/103
f 368/1/360 365/1/358 138/1/6
f 370/1/125 369/1/130 101/1/174
f 369/1/130 370/1/125 126/1/218
f 371/1/124 370/1/125 125/1/219
f 370/1/125 371/1/124 16/1/55
f 372/1/127 371/1/124 15/1/56
f 371/1/124 372/1/127 14/1/53
f 369/1/130 372/1/127 13/1/51
f 372/1/127 369/1/130 102/1/161
f 373/1/361 103/1/139 107/1/131
f 374/1/362 108/1/129 104/1/138
f 375/1/363 374/1/362 107/1/131
f 374/1/362 375/1/363 132/1/126
f 376/1/364 375/1/363 131/1/128
f 375/1/363 376/1/364 130/1/135
f 373/1/361 376/1/364 129/1/133
f 376/1/364 373/1/361 104/1/138
f 378/1/365 377/1/366 111/1/126
f 377/1/366 378/1/365 110/1/191
f 379/1/367 378/1/365 109/1/189
f 378/1/365 379/1/367 136/1/246
f 379/1/367 135/1/244 133/1/243
f 380/1/368 134/1/242 136/1/246
f 377/1/366 380/1/368 133/1/243
f 380/1/368 377/1/366 112/1/193
f 382/1/369 381/1/370 141/1/252
f 381/1/370 382/1/369 118/1/200
f 382/1/369 117/1/198 115/1/163
f 383/1/371 116/1/162 118/1/200
f 384/1/372 383/1/371 115/1/163
f 383/1/371 384/1/372 140/1/159
f 381/1/370 384/1/372 139/1/161
f 384/1/372 381/1/370 142/1/253
f 386/1/373 385/1/374 7/1/213
f 385/1/374 386/1/373 10/1/177
f 387/1/375 386/1/373 9/1/166
f 386/1/373 387/1/375 2/1/43
f 388/1/376 387/1/375 1/1/45
f 387/1/375 388/1/376 4/1/40
f 388/1/376 3/1/42 7/1/213
f 385/1/374 8/1/212 4/1/40
f 162/1/1 23/1/3 105/1/6
f 161/1/2 106/1/4 24/1/12
f 163/1/5 105/1/6 127/1/9
f 162/1/1 128/1/7 106/1/4
f 164/1/8 127/1/9 21/1/11
f 163/1/5 22/1/10 128/1/7
f 161/1/2 21/1/11 23/1/3
f 164/1/8 24/1/12 22/1/10
f 166/1/13 53/1/15 49/1/18
f 165/1/14 50/1/16 54/1/24
f 167/1/17 49/1/18 55/1/20
f 166/1/13 56/1/19 50/1/16
f 167/1/17 51/1/21 168/1/22
f 168/1/22 56/1/19 167/1/17
f 165/1/14 51/1/21 53/1/15
f 168/1/22 54/1/24 52/1/23
f 170/1/25 35/1/27 39/1/30
f 169/1/26 40/1/28 36/1/36
f 171/1/29 39/1/30 33/1/32
f 170/1/25 34/1/31 40/1/28
f 171/1/29 37/1/33 172/1/34
f 172/1/34 34/1/31 171/1/29
f 169/1/26 37/1/33 35/1/27
f 172/1/34 36/1/36 38/1/35
f 174/1/37 11/1/39 3/1/42
f 173/1/38 4/1/40 12/1/48
f 175/1/41 3/1/42 1/1/45
f 174/1/37 2/1/43 4/1/40
f 176/1/44 1/1/45 5/1/47
f 175/1/41 6/1/46 2/1/43
f 173/1/38 5/1/47 11/1/39
f 176/1/44 12/1/48 6/1/46
f 178/1/49 11/1/39 5/1/47
f 177/1/50 6/1/46 12/1/48
f 178/1/49 13/1/51 179/1/52
f 179/1/52 6/1/46 178/1/49
f 180/1/54 13/1/51 15/1/56
f 179/1/52 16/1/55 14/1/53
f 177/1/50 15/1/56 11/1/39
f 180/1/54 12/1/48 16/1/55
f 182/1/57 61/1/59 63/1/62
f 181/1/58 64/1/60 62/1/68
f 183/1/61 63/1/62 59/1/65
f 182/1/57 60/1/63 64/1/60
f 184/1/64 59/1/65 57/1/67
f 183/1/61 58/1/66 60/1/63
f 184/1/64 61/1/59 181/1/58
f 181/1/58 58/1/66 184/1/64
f 185/1/69 31/1/71 186/1/72
f 186/1/72 28/1/74 185/1/69
f 187/1/75 31/1/71 29/1/78
f 186/1/72 30/1/76 32/1/73
f 188/1/77 29/1/78 25/1/80
f 187/1/75 26/1/79 30/1/76
f 185/1/69 25/1/80 27/1/70
f 188/1/77 28/1/74 26/1/79
f 189/1/81 23/1/3 190/1/83
f 190/1/83 20/1/84 189/1/81
f 191/1/85 23/1/3 21/1/11
f 190/1/83 22/1/10 24/1/12
f 192/1/86 21/1/11 17/1/88
f 191/1/85 18/1/87 22/1/10
f 189/1/81 17/1/88 19/1/82
f 192/1/86 20/1/84 18/1/87
f 193/1/89 87/1/91 194/1/92
f 193/1/89 88/1/93 86/1/100
f 194/1/92 81/1/94 195/1/95
f 195/1/95 88/1/93 194/1/92
f 196/1/97 81/1/94 83/1/99
f 195/1/95 84/1/98 82/1/96
f 193/1/89 83/1/99 85/1/90
f 196/1/97 86/1/100 84/1/98
f 198/1/101 113/1/103 45/1/106
f 197/1/102 46/1/104 114/1/111
f 199/1/105 45/1/106 47/1/109
f 198/1/101 48/1/107 46/1/104
f 200/1/108 47/1/109 137/1/110
f 199/1/105 138/1/6 48/1/107
f 197/1/102 137/1/110 113/1/103
f 200/1/108 114/1/111 138/1/6
f 201/1/112 71/1/114 202/1/115
f 202/1/115 68/1/117 201/1/112
f 202/1/115 69/1/118 203/1/119
f 202/1/115 70/1/120 72/1/116
f 204/1/121 69/1/118 65/1/123
f 203/1/119 66/1/122 70/1/120
f 204/1/121 67/1/113 201/1/112
f 204/1/121 68/1/117 66/1/122
f 206/1/124 31/1/71 131/1/128
f 205/1/125 132/1/126 32/1/73
f 207/1/127 131/1/128 107/1/131
f 206/1/124 108/1/129 132/1/126
f 208/1/130 107/1/131 29/1/78
f 207/1/127 30/1/76 108/1/129
f 205/1/125 29/1/78 31/1/71
f 208/1/130 32/1/73 30/1/76
f 209/1/132 127/1/9 210/1/134
f 210/1/134 130/1/135 209/1/132
f 211/1/136 127/1/9 105/1/6
f 210/1/134 106/1/4 128/1/7
f 212/1/137 105/1/6 103/1/139
f 211/1/136 104/1/138 106/1/4
f 209/1/132 103/1/139 129/1/133
f 212/1/137 130/1/135 104/1/138
f 214/1/140 17/1/88 27/1/70
f 213/1/141 28/1/74 18/1/87
f 215/1/142 27/1/70 25/1/80
f 214/1/140 26/1/79 28/1/74
f 216/1/143 25/1/80 19/1/82
f 215/1/142 20/1/84 26/1/79
f 213/1/141 19/1/82 17/1/88
f 216/1/143 18/1/87 20/1/84
f 218/1/144 57/1/67 59/1/65
f 217/1/145 60/1/63 58/1/66
f 219/1/146 59/1/65 55/1/20
f 218/1/144 56/1/19 60/1/63
f 220/1/147 55/1/20 49/1/18
f 219/1/146 50/1/16 56/1/19
f 217/1/145 49/1/18 57/1/67
f 220/1/147 58/1/66 50/1/16
f 222/1/148 41/1/150 43/1/152
f 221/1/149 44/1/151 42/1/155
f 222/1/148 47/1/109 223/1/153
f 223/1/153 44/1/151 222/1/148
f 224/1/154 47/1/109 45/1/106
f 223/1/153 46/1/104 48/1/107
f 221/1/149 45/1/106 41/1/150
f 224/1/154 42/1/155 46/1/104
f 226/1/156 53/1/15 51/1/21
f 225/1/157 52/1/23 54/1/24
f 227/1/158 51/1/21 139/1/161
f 226/1/156 140/1/159 52/1/23
f 228/1/160 139/1/161 115/1/163
f 227/1/158 116/1/162 140/1/159
f 225/1/157 115/1/163 53/1/15
f 228/1/160 54/1/24 116/1/162
f 230/1/164 9/1/166 99/1/168
f 229/1/165 100/1/167 10/1/177
f 230/1/164 97/1/169 231/1/170
f 230/1/164 98/1/171 100/1/167
f 232/1/172 97/1/169 101/1/174
f 232/1/172 98/1/171 231/1/170
f 233/1/173 101/1/174 13/1/51
f 232/1/172 14/1/53 102/1/161
f 233/1/173 5/1/47 234/1/175
f 233/1/173 6/1/46 14/1/53
f 235/1/176 5/1/47 1/1/45
f 234/1/175 2/1/43 6/1/46
f 229/1/165 1/1/45 9/1/166
f 229/1/165 2/1/43 235/1/176
f 237/1/178 103/1/139 105/1/6
f 237/1/178 104/1/138 236/1/179
f 238/1/180 105/1/6 23/1/3
f 237/1/178 24/1/12 106/1/4
f 238/1/180 19/1/82 239/1/181
f 238/1/180 20/1/84 24/1/12
f 239/1/181 25/1/80 240/1/182
f 240/1/182 20/1/84 239/1/181
f 241/1/183 25/1/80 29/1/78
f 241/1/183 26/1/79 240/1/182
f 242/1/184 29/1/78 107/1/131
f 241/1/183 108/1/129 30/1/76
f 242/1/184 103/1/139 236/1/179
f 242/1/184 104/1/138 108/1/129
f 243/1/185 41/1/150 244/1/186
f 244/1/186 34/1/31 243/1/185
f 245/1/187 41/1/150 45/1/106
f 245/1/187 42/1/155 244/1/186
f 246/1/188 45/1/106 113/1/103
f 245/1/187 114/1/111 46/1/104
f 246/1/188 109/1/189 247/1/190
f 246/1/188 110/1/191 114/1/111
f 248/1/192 109/1/189 111/1/126
f 248/1/192 110/1/191 247/1/190
f 249/1/194 111/1/126 37/1/33
f 248/1/192 38/1/35 112/1/193
f 249/1/194 33/1/32 243/1/185
f 249/1/194 34/1/31 38/1/35
f 251/1/195 49/1/18 53/1/15
f 251/1/195 50/1/16 250/1/196
f 252/1/197 53/1/15 115/1/163
f 251/1/195 116/1/162 54/1/24
f 252/1/197 117/1/198 253/1/199
f 252/1/197 118/1/200 116/1/162
f 254/1/201 117/1/198 119/1/204
f 254/1/201 118/1/200 253/1/199
f 255/1/203 119/1/204 61/1/59
f 254/1/201 62/1/68 120/1/202
f 255/1/203 57/1/67 256/1/205
f 255/1/203 58/1/66 62/1/68
f 250/1/196 57/1/67 49/1/18
f 256/1/205 50/1/16 58/1/66
f 258/1/206 123/1/208 121/1/202
f 258/1/206 124/1/210 257/1/207
f 259/1/211 121/1/202 7/1/213
f 258/1/206 8/1/212 122/1/209
f 259/1/211 3/1/42 260/1/214
f 259/1/211 4/1/40 8/1/212
f 260/1/214 11/1/39 261/1/215
f 261/1/215 4/1/40 260/1/214
f 262/1/216 11/1/39 15/1/56
f 262/1/216 12/1/48 261/1/215
f 263/1/217 15/1/56 125/1/219
f 262/1/216 126/1/218 16/1/55
f 263/1/217 123/1/208 257/1/207
f 263/1/217 124/1/210 126/1/218
f 265/1/220 17/1/88 21/1/11
f 265/1/220 18/1/87 264/1/221
f 266/1/222 21/1/11 127/1/9
f 265/1/220 128/1/7 22/1/10
f 266/1/222 129/1/133 267/1/223
f 266/1/222 130/1/135 128/1/7
f 268/1/224 129/1/133 131/1/128
f 268/1/224 130/1/135 267/1/223
f 269/1/225 131/1/128 31/1/71
f 268/1/224 32/1/73 132/1/126
f 269/1/225 27/1/70 270/1/226
f 269/1/225 28/1/74 32/1/73
f 264/1/221 27/1/70 17/1/88
f 270/1/226 18/1/87 28/1/74
f 271/1/227 155/1/229 272/1/230
f 272/1/230 78/1/232 271/1/227
f 272/1/230 145/1/233 273/1/234
f 273/1/234 156/1/231 272/1/230
f 274/1/236 145/1/233 73/1/238
f 273/1/234 74/1/237 146/1/235
f 271/1/227 73/1/238 77/1/228
f 274/1/236 78/1/232 74/1/237
f 276/1/239 39/1/30 35/1/27
f 276/1/239 40/1/28 275/1/240
f 277/1/241 35/1/27 133/1/243
f 276/1/239 134/1/242 36/1/36
f 277/1/241 135/1/244 278/1/245
f 277/1/241 136/1/246 134/1/242
f 279/1/247 135/1/244 137/1/110
f 279/1/247 136/1/246 278/1/245
f 280/1/248 137/1/110 47/1/109
f 279/1/247 48/1/107 138/1/6
f 280/1/248 43/1/152 281/1/249
f 280/1/248 44/1/151 48/1/107
f 275/1/240 43/1/152 39/1/30
f 281/1/249 40/1/28 44/1/151
f 283/1/250 141/1/252 139/1/161
f 283/1/250 142/1/253 282/1/251
f 284/1/254 139/1/161 51/1/21
f 283/1/250 52/1/23 140/1/159
f 284/1/254 55/1/20 285/1/255
f 284/1/254 56/1/19 52/1/23
f 285/1/255 59/1/65 286/1/256
f 286/1/256 56/1/19 285/1/255
f 287/1/257 59/1/65 63/1/62
f 287/1/257 60/1/63 286/1/256
f 288/1/258 63/1/62 143/1/260
f 287/1/257 144/1/259 64/1/60
f 288/1/258 141/1/252 282/1/251
f 288/1/258 142/1/253 144/1/259
f 289/1/261 79/1/262 290/1/263
f 289/1/261 80/1/264 146/1/235
f 291/1/265 79/1/262 73/1/238
f 290/1/263 74/1/237 80/1/264
f 289/1/261 73/1/238 145/1/233
f 289/1/261 74/1/237 291/1/265
f 292/1/266 69/1/118 293/1/268
f 292/1/266 70/1/120 148/1/270
f 294/1/269 69/1/118 71/1/114
f 293/1/268 72/1/116 70/1/120
f 292/1/266 71/1/114 147/1/267
f 292/1/266 72/1/116 294/1/269
f 295/1/271 95/1/273 296/1/274
f 295/1/271 96/1/275 150/1/279
f 297/1/276 95/1/273 89/1/278
f 296/1/274 90/1/277 96/1/275
f 295/1/271 89/1/278 149/1/272
f 295/1/271 90/1/277 297/1/276
f 298/1/280 83/1/99 299/1/282
f 298/1/280 84/1/98 152/1/284
f 300/1/283 83/1/99 81/1/94
f 299/1/282 82/1/96 84/1/98
f 298/1/280 81/1/94 151/1/281
f 298/1/280 82/1/96 300/1/283
f 301/1/285 159/1/286 302/1/287
f 302/1/287 88/1/93 301/1/285
f 302/1/287 151/1/281 303/1/289
f 303/1/289 160/1/288 302/1/287
f 304/1/290 151/1/281 81/1/94
f 303/1/289 82/1/96 152/1/284
f 301/1/285 81/1/94 87/1/91
f 304/1/290 88/1/93 82/1/96
f 306/1/291 79/1/262 145/1/233
f 306/1/291 80/1/264 305/1/292
f 307/1/293 145/1/233 155/1/229
f 306/1/291 156/1/231 146/1/235
f 308/1/294 155/1/229 75/1/296
f 307/1/293 76/1/295 156/1/231
f 308/1/294 79/1/262 305/1/292
f 305/1/292 76/1/295 308/1/294
f 309/1/297 153/1/298 310/1/299
f 310/1/299 68/1/117 309/1/297
f 310/1/299 147/1/267 311/1/301
f 311/1/301 154/1/300 310/1/299
f 312/1/302 147/1/267 71/1/114
f 311/1/301 72/1/116 148/1/270
f 309/1/297 71/1/114 67/1/113
f 312/1/302 68/1/117 72/1/116
f 314/1/303 147/1/267 153/1/298
f 313/1/304 154/1/300 148/1/270
f 315/1/305 153/1/298 65/1/123
f 314/1/303 66/1/122 154/1/300
f 315/1/305 69/1/118 316/1/306
f 316/1/306 66/1/122 315/1/305
f 313/1/304 69/1/118 147/1/267
f 313/1/304 70/1/120 316/1/306
f 317/1/307 83/1/99 318/1/308
f 318/1/308 86/1/100 317/1/307
f 318/1/308 151/1/281 319/1/309
f 319/1/309 84/1/98 318/1/308
f 320/1/310 151/1/281 159/1/286
f 319/1/309 160/1/288 152/1/284
f 317/1/307 159/1/286 85/1/90
f 320/1/310 86/1/100 160/1/288
f 322/1/311 149/1/272 89/1/278
f 321/1/312 90/1/277 150/1/279
f 323/1/313 89/1/278 93/1/315
f 322/1/311 94/1/314 90/1/277
f 323/1/313 157/1/316 324/1/317
f 324/1/317 94/1/314 323/1/313
f 324/1/317 149/1/272 321/1/312
f 321/1/312 158/1/318 324/1/317
f 325/1/319 95/1/273 326/1/321
f 326/1/321 92/1/322 325/1/319
f 326/1/321 149/1/272 327/1/323
f 327/1/323 96/1/275 326/1/321
f 328/1/324 149/1/272 157/1/316
f 327/1/323 158/1/318 150/1/279
f 325/1/319 157/1/316 91/1/320
f 328/1/324 92/1/322 158/1/318
f 330/1/325 133/1/243 35/1/27
f 329/1/326 36/1/36 134/1/242
f 331/1/327 35/1/27 37/1/33
f 330/1/325 38/1/35 36/1/36
f 332/1/328 37/1/33 111/1/126
f 331/1/327 112/1/193 38/1/35
f 329/1/326 111/1/126 133/1/243
f 332/1/328 134/1/242 112/1/193
f 334/1/329 99/1/168 121/1/202
f 333/1/330 122/1/209 100/1/167
f 335/1/331 121/1/202 123/1/208
f 334/1/329 124/1/210 122/1/209
f 336/1/332 123/1/208 97/1/169
f 335/1/331 98/1/171 124/1/210
f 336/1/332 99/1/168 333/1/330
f 333/1/330 98/1/171 336/1/332
f 338/1/333 121/1/202 99/1/168
f 337/1/334 100/1/167 122/1/209
f 339/1/335 99/1/168 9/1/166
f 338/1/333 10/1/177 100/1/167
f 340/1/336 9/1/166 7/1/213
f 339/1/335 8/1/212 10/1/177
f 337/1/334 7/1/213 121/1/202
f 340/1/336 122/1/209 8/1/212
f 342/1/337 89/1/278 95/1/273
f 342/1/337 90/1/277 341/1/338
f 343/1/339 95/1/273 91/1/320
f 342/1/337 92/1/322 96/1/275
f 343/1/339 93/1/315 344/1/340
f 343/1/339 94/1/314 92/1/322
f 344/1/340 89/1/278 341/1/338
f 341/1/338 94/1/314 344/1/340
f 346/1/341 117/1/198 141/1/252
f 345/1/342 142/1/253 118/1/200
f 346/1/341 143/1/260 347/1/343
f 347/1/343 142/1/253 346/1/341
f 348/1/344 143/1/260 119/1/204
f 347/1/343 120/1/202 144/1/259
f 345/1/342 119/1/204 117/1/198
f 348/1/344 118/1/200 120/1/202
f 350/1/345 39/1/30 43/1/152
f 349/1/346 44/1/151 40/1/28
f 351/1/347 43/1/152 41/1/150
f 350/1/345 42/1/155 44/1/151
f 352/1/348 41/1/150 33/1/32
f 351/1/347 34/1/31 42/1/155
f 349/1/346 33/1/32 39/1/30
f 352/1/348 40/1/28 34/1/31
f 354/1/102 63/1/62 61/1/59
f 353/1/108 62/1/68 64/1/60
f 355/1/101 61/1/59 119/1/204
f 354/1/102 120/1/202 62/1/68
f 356/1/105 119/1/204 143/1/260
f 355/1/101 144/1/259 120/1/202
f 353/1/108 143/1/260 63/1/62
f 356/1/105 64/1/60 144/1/259
f 357/1/349 79/1/262 358/1/350
f 357/1/349 80/1/264 74/1/237
f 359/1/351 79/1/262 75/1/296
f 358/1/350 76/1/295 80/1/264
f 359/1/351 77/1/228 360/1/352
f 359/1/351 78/1/232 76/1/295
f 360/1/352 73/1/238 357/1/349
f 357/1/349 78/1/232 360/1/352
f 362/1/353 125/1/219 101/1/174
f 361/1/354 102/1/161 126/1/218
f 363/1/355 101/1/174 97/1/169
f 362/1/353 98/1/171 102/1/161
f 364/1/356 97/1/169 123/1/208
f 363/1/355 124/1/210 98/1/171
f 364/1/356 125/1/219 361/1/354
f 361/1/354 124/1/210 364/1/356
f 366/1/357 137/1/110 135/1/244
f 365/1/358 136/1/246 138/1/6
f 367/1/359 135/1/244 109/1/189
f 366/1/357 110/1/191 136/1/246
f 367/1/359 113/1/103 368/1/360
f 368/1/360 110/1/191 367/1/359
f 365/1/358 113/1/103 137/1/110
f 368/1/360 138/1/6 114/1/111
f 370/1/125 101/1/174 125/1/219
f 369/1/130 126/1/218 102/1/161
f 371/1/124 125/1/219 15/1/56
f 370/1/125 16/1/55 126/1/218
f 372/1/127 15/1/56 13/1/51
f 371/1/124 14/1/53 16/1/55
f 369/1/130 13/1/51 101/1/174
f 372/1/127 102/1/161 14/1/53
f 373/1/361 107/1/131 374/1/362
f 374/1/362 104/1/138 373/1/361
f 375/1/363 107/1/131 131/1/128
f 374/1/362 132/1/126 108/1/129
f 376/1/364 131/1/128 129/1/133
f 375/1/363 130/1/135 132/1/126
f 373/1/361 129/1/133 103/1/139
f 376/1/364 104/1/138 130/1/135
f 378/1/365 111/1/126 109/1/189
f 377/1/366 110/1/191 112/1/193
f 379/1/367 109/1/189 135/1/244
f 378/1/365 136/1/246 110/1/191
f 379/1/367 133/1/243 380/1/368
f 380/1/368 136/1/246 379/1/367
f 377/1/366 133/1/243 111/1/126
f 380/1/368 112/1/193 134/1/242
f 382/1/369 141/1/252 117/1/198
f 381/1/370 118/1/200 142/1/253
f 382/1/369 115/1/163 383/1/371
f 383/1/371 118/1/200 382/1/369
f 384/1/372 115/1/163 139/1/161
f 383/1/371 140/1/159 116/1/162
f 381/1/370 139/1/161 141/1/252
f 384/1/372 142/1/253 140/1/159
f 386/1/373 7/1/213 9/1/166
f 385/1/374 10/1/177 8/1/212
f 387/1/375 9/1/166 1/1/45
f 386/1/373 2/1/43 10/1/177
f 388/1/376 1/1/45 3/1/42
f 387/1/375 4/1/40 2/1/43
f 388/1/376 7/1/213 385/1/374
f 385/1/374 4/1/40 388/1/376
