# Blender 5.2.0 LTS
# www.blender.org
mtllib glass metal pieces.mtl
o RenderMesh_106702607873813
v 0.094801 -2.089883 -0.094832
v 0.096215 -2.089906 -0.096246
v 0.134122 -2.089883 0.000096
v 0.136122 -2.089906 0.000096
v -0.000128 -2.274019 0.000096
v -0.000127 -2.276019 0.000096
v 0.094801 -2.089883 0.095024
v 0.096215 -2.089906 0.096438
v -0.000128 -2.089883 -0.134153
v -0.000128 -2.089906 -0.136153
v -0.000128 -2.089883 0.134345
v -0.000127 -2.089906 0.136345
v -0.095054 -2.089883 -0.094832
v -0.096468 -2.089906 -0.096246
v -0.095054 -2.089883 0.095024
v -0.096468 -2.089906 0.096438
v -0.134376 -2.089883 0.000096
v -0.136376 -2.089906 0.000096
v -0.000128 1.833369 -0.049596
v -0.000128 1.834174 -0.051427
v -0.000128 1.715198 -0.101551
v -0.000128 1.715137 -0.103550
v -0.035264 1.833369 -0.035042
v -0.036559 1.834174 -0.036337
v 0.035010 1.833369 -0.035042
v 0.036305 1.834174 -0.036337
v -0.072003 1.715198 -0.071780
v -0.073416 1.715136 -0.073194
v 0.071750 1.715198 -0.071780
v 0.073164 1.715137 -0.073194
v -0.101774 1.715198 0.000096
v -0.103773 1.715137 0.000096
v 0.101521 1.715198 0.000096
v 0.103520 1.715137 0.000096
v -0.049820 1.833369 0.000096
v -0.051651 1.834174 0.000096
v 0.049564 1.833369 0.000096
v 0.051395 1.834174 0.000096
v -0.035264 1.833369 0.035234
v -0.036558 1.834173 0.036529
v 0.035010 1.833369 0.035234
v 0.036304 1.834173 0.036529
v -0.072003 1.715198 0.071972
v -0.073417 1.715137 0.073385
v 0.071750 1.715198 0.071972
v 0.073164 1.715137 0.073385
v -0.000128 1.715198 0.101744
v -0.000128 1.715137 0.103743
v -0.000128 1.833369 0.049788
v -0.000128 1.834174 0.051619
v -0.073684 2.091752 -0.063915
v -0.075317 2.092380 -0.064885
v -0.000001 2.274019 -0.065150
v -0.000001 2.275970 -0.065590
v -0.147673 1.983705 -0.050529
v -0.149428 1.983533 -0.051472
v 0.073684 2.091752 -0.063915
v 0.075317 2.092380 -0.064885
v 0.147673 1.983705 -0.050529
v 0.149454 1.983831 -0.051430
v -0.073684 2.091752 0.063915
v -0.075317 2.092380 0.064885
v -0.000001 2.274019 0.065150
v -0.000001 2.275970 0.065591
v -0.147673 1.983705 0.050530
v -0.149454 1.983831 0.051431
v 0.073684 2.091752 0.063915
v 0.075317 2.092380 0.064885
v 0.147673 1.983705 0.050530
v 0.149428 1.983533 0.051473
v -0.000001 2.004254 -0.136874
v 0.000979 2.003972 -0.138595
v -0.000001 2.004254 0.136874
v -0.000981 2.003972 0.138594
v -0.000001 1.754190 -0.027941
v -0.000001 1.752304 -0.028605
v -0.067197 1.845506 -0.030953
v -0.068672 1.844561 -0.031918
v 0.067196 1.845506 -0.030953
v 0.068671 1.844561 -0.031918
v -0.000001 1.754190 0.027941
v -0.000001 1.752304 0.028605
v -0.067197 1.845506 0.030953
v -0.068672 1.844561 0.031917
v 0.067196 1.845506 0.030953
v 0.068671 1.844561 0.031918
v 0.042007 1.635198 -0.042037
v 0.043259 1.634267 -0.043289
v -0.000128 1.635198 -0.059489
v -0.000128 1.634267 -0.061259
v 0.059457 1.635198 0.000096
v 0.061227 1.634267 0.000096
v -0.042261 1.635198 -0.042037
v -0.043513 1.634267 -0.043289
v 0.042007 1.635198 0.042229
v 0.043259 1.634267 0.043481
v -0.059712 1.635198 0.000096
v -0.061482 1.634267 0.000096
v -0.000128 1.635198 0.059681
v -0.000128 1.634267 0.061451
v -0.042261 1.635198 0.042229
v -0.043513 1.634267 0.043481
v 0.049383 -1.996442 0.049606
v 0.050548 -1.995309 0.050772
v 0.069890 -1.996442 0.000096
v 0.071538 -1.995309 0.000096
v -0.000128 -1.996442 0.070114
v -0.000128 -1.995309 0.071762
v 0.049383 -1.996442 -0.049414
v 0.050550 -1.995310 -0.050579
v -0.049637 -1.996442 0.049606
v -0.050802 -1.995309 0.050772
v -0.000128 -1.996442 -0.069922
v -0.000128 -1.995309 -0.071570
v -0.070145 -1.996442 0.000096
v -0.071793 -1.995309 0.000096
v -0.049637 -1.996442 -0.049414
v -0.050803 -1.995310 -0.050579
v 0.095473 -2.090724 -0.094163
v 0.134124 -2.090724 -0.000852
v 0.002162 -2.271340 -0.000852
v 0.134124 -2.090724 0.001044
v 0.095473 -2.090724 0.094355
v 0.002162 -2.271340 0.001044
v 0.000820 -2.090724 -0.134155
v 0.094132 -2.090724 -0.095504
v 0.000821 -2.271340 -0.002193
v 0.094132 -2.090724 0.095696
v 0.000821 -2.090724 0.134348
v 0.000821 -2.271340 0.002385
v -0.094385 -2.090724 -0.095504
v -0.001076 -2.090724 -0.134155
v -0.001076 -2.271340 -0.002193
v -0.001076 -2.090724 0.134348
v -0.094385 -2.090724 0.095696
v -0.001076 -2.271340 0.002386
v -0.134378 -2.090724 -0.000852
v -0.095726 -2.090724 -0.094163
v -0.002417 -2.271340 -0.000852
v -0.095726 -2.090724 0.094355
v -0.134378 -2.090724 0.001044
v -0.002417 -2.271340 0.001044
v 0.035010 1.832845 -0.036365
v 0.071234 1.716094 -0.072586
v 0.000807 1.716094 -0.101756
v 0.000807 1.832845 -0.050532
v 0.035010 1.832845 0.036557
v 0.000807 1.832845 0.050723
v 0.000807 1.716094 0.101949
v 0.071234 1.716094 0.072778
v -0.072809 1.716094 0.071456
v -0.036587 1.832845 0.035235
v -0.050755 1.832845 0.001031
v -0.101979 1.716094 0.001031
v 0.036333 1.832845 0.035234
v 0.072556 1.716094 0.071456
v 0.101726 1.716094 0.001031
v 0.050499 1.832845 0.001031
v -0.042282 1.635632 -0.043386
v -0.071436 1.714267 -0.072542
v -0.001067 1.714268 -0.101689
v -0.001067 1.635632 -0.060458
v -0.001063 1.716094 0.101949
v -0.001063 1.832845 0.050723
v -0.035264 1.832845 0.036557
v -0.071487 1.716094 0.072778
v -0.001063 1.716094 -0.101756
v -0.071486 1.716093 -0.072586
v -0.035264 1.832845 -0.036365
v -0.001063 1.832845 -0.050532
v -0.101979 1.716094 -0.000839
v -0.050755 1.832845 -0.000839
v -0.036587 1.832845 -0.035042
v -0.072809 1.716093 -0.071264
v -0.068138 1.847033 -0.032221
v -0.147371 1.983578 -0.050979
v -0.073700 2.091611 -0.064808
v -0.000839 2.270762 -0.065931
v 0.000064 2.004346 -0.136736
v 0.148060 1.982904 -0.049850
v 0.148047 1.982755 0.049871
v 0.068586 1.844664 0.030769
v 0.000592 1.754052 0.027299
v 0.000592 1.754052 -0.027299
v 0.068586 1.844664 -0.030769
v -0.000916 2.004346 0.136736
v -0.000839 2.270762 0.065931
v -0.073700 2.091611 0.064808
v -0.147384 1.983727 0.050958
v -0.068138 1.847033 0.032221
v 0.147998 1.984593 -0.050077
v 0.075301 2.092520 -0.063992
v 0.000374 2.274067 -0.064364
v 0.000374 2.274067 0.064364
v 0.075301 2.092520 0.063992
v 0.147986 1.984444 0.050098
v 0.000837 2.270762 0.065931
v -0.000066 2.004346 0.136736
v 0.068137 1.847034 0.032221
v 0.147371 1.983578 0.050979
v 0.073700 2.091611 0.064808
v -0.000895 1.755845 -0.028916
v -0.066900 1.845010 -0.031992
v -0.000405 1.999534 -0.135251
v 0.066899 1.845010 -0.031992
v 0.000893 1.755845 -0.028916
v 0.001383 1.999534 -0.135251
v -0.000895 1.755845 0.028916
v -0.001385 1.999534 0.135250
v -0.066900 1.845010 0.031991
v 0.066899 1.845010 0.031991
v 0.000403 1.999534 0.135250
v 0.000893 1.755845 0.028916
v 0.147384 1.983727 -0.050958
v 0.068137 1.847034 -0.032221
v 0.000914 2.004346 -0.136736
v 0.000837 2.270762 -0.065931
v 0.073700 2.091611 -0.064808
v -0.000376 2.274067 -0.064364
v -0.075301 2.092520 -0.063992
v -0.147986 1.984444 -0.050098
v -0.147998 1.984593 0.050077
v -0.075301 2.092520 0.063992
v -0.000376 2.274067 0.064364
v 0.036333 1.832845 -0.035042
v 0.050499 1.832845 -0.000839
v 0.101726 1.716094 -0.000839
v 0.072556 1.716094 -0.071264
v 0.000811 1.714268 0.101882
v 0.000811 1.635632 0.060650
v 0.042028 1.635632 0.043578
v 0.071183 1.714268 0.072733
v 0.101659 1.714268 0.001035
v 0.072511 1.714268 0.071405
v 0.043356 1.635632 0.042250
v 0.060426 1.635632 0.001035
v -0.001067 1.714268 0.101882
v -0.071436 1.714268 0.072733
v -0.042282 1.635632 0.043578
v -0.001067 1.635632 0.060650
v -0.001074 -2.089050 -0.134180
v -0.094404 -2.089050 -0.095521
v -0.049684 -1.996720 -0.050799
v -0.001074 -1.996720 -0.070934
v 0.101659 1.714268 -0.000843
v 0.060426 1.635632 -0.000843
v 0.043356 1.635632 -0.042058
v 0.072511 1.714268 -0.071214
v -0.043610 1.635632 0.042250
v -0.072764 1.714268 0.071405
v -0.101912 1.714268 0.001035
v -0.060681 1.635632 0.001035
v -0.043610 1.635632 -0.042059
v -0.060681 1.635632 -0.000843
v -0.101912 1.714268 -0.000843
v -0.072764 1.714267 -0.071214
v 0.042028 1.635632 -0.043386
v 0.000811 1.635632 -0.060458
v 0.000811 1.714268 -0.101689
v 0.071183 1.714268 -0.072541
v 0.000818 -2.089050 -0.134180
v 0.000818 -1.996720 -0.070934
v 0.049430 -1.996720 -0.050799
v 0.094151 -2.089050 -0.095521
v 0.134150 -2.089050 0.001042
v 0.070902 -1.996720 0.001043
v 0.050768 -1.996720 0.049653
v 0.095490 -2.089050 0.094375
v 0.049430 -1.996720 0.050991
v 0.000818 -1.996720 0.071126
v 0.000819 -2.089050 0.134373
v 0.094151 -2.089050 0.095713
v -0.051022 -1.996720 0.049653
v -0.071157 -1.996720 0.001043
v -0.134404 -2.089050 0.001043
v -0.095743 -2.089050 0.094375
v -0.051022 -1.996720 -0.049460
v -0.095743 -2.089050 -0.094182
v -0.134404 -2.089050 -0.000850
v -0.071157 -1.996720 -0.000850
v -0.049684 -1.996720 0.050991
v -0.094404 -2.089050 0.095713
v -0.001074 -2.089050 0.134373
v -0.001074 -1.996720 0.071126
v 0.095490 -2.089050 -0.094182
v 0.050769 -1.996720 -0.049460
v 0.070902 -1.996720 -0.000850
v 0.134150 -2.089050 -0.000850
v -0.148060 1.982904 0.049851
v -0.148047 1.982755 -0.049871
v -0.068587 1.844664 -0.030769
v -0.000594 1.754052 -0.027299
v -0.000594 1.754052 0.027299
v -0.068587 1.844664 0.030769
vn 0.1963 -0.7442 0.6384
vn -0.3130 -0.7443 -0.5900
vn -0.9995 0.0305 -0.0002
vn -0.7068 0.0305 0.7067
vn 0.7068 -0.0298 -0.7068
vn 0.9996 -0.0300 -0.0002
vn 0.8004 0.4993 -0.3317
vn 0.0002 1.0000 -0.0001
vn 0.0004 -1.0000 0.0001
vn -0.3127 -0.7439 0.5906
vn 0.1963 -0.7442 -0.6384
vn -0.7068 0.0305 -0.7068
vn 0.7068 -0.0298 0.7068
vn 0.8005 0.4993 0.3315
vn 0.5902 -0.7442 0.3127
vn -0.6384 -0.7442 -0.1963
vn -0.0000 0.0305 0.9995
vn -0.0000 -0.0298 -0.9996
vn 0.3313 0.4994 -0.8005
vn -0.6384 -0.7443 0.1963
vn 0.5899 -0.7443 -0.3131
vn 0.0002 0.0305 -0.9995
vn 0.0002 -0.0300 0.9995
vn 0.3315 0.4995 0.8004
vn 0.6384 -0.7443 -0.1961
vn -0.5901 -0.7443 0.3127
vn 0.7068 0.0305 0.7068
vn -0.7068 -0.0299 -0.7068
vn -0.3318 0.4996 -0.8002
vn -0.5905 -0.7440 -0.3128
vn 0.6384 -0.7443 0.1961
vn 0.7068 0.0305 -0.7068
vn -0.7068 -0.0298 0.7068
vn -0.3315 0.4995 0.8004
vn 0.3127 -0.7443 -0.5901
vn -0.1962 -0.7443 0.6383
vn 0.9995 0.0305 -0.0000
vn -0.9996 -0.0299 -0.0000
vn -0.8006 0.4993 -0.3313
vn -0.1962 -0.7443 -0.6384
vn 0.3127 -0.7443 0.5901
vn -0.8005 0.4993 0.3316
vn -0.4330 -0.6308 -0.6438
vn -0.6418 0.6857 -0.3433
vn -0.7066 0.0366 0.7066
vn -0.4452 -0.7769 0.4453
vn 0.7069 -0.0245 -0.7069
vn 0.7068 -0.0296 -0.7068
vn 0.6966 0.6857 0.2110
vn -0.0000 0.0367 0.9993
vn -0.0000 -0.0296 -0.9996
vn 0.7615 -0.6308 -0.1491
vn -0.0000 -0.7769 0.6297
vn -0.0000 -0.0245 -0.9997
vn -0.4332 -0.6312 0.6434
vn 0.7615 -0.6308 0.1490
vn -0.0000 -0.7768 -0.6298
vn -0.4449 -0.7770 -0.4453
vn 0.7066 -0.0249 0.7071
vn -0.0000 -0.0246 0.9997
vn 0.6966 0.6857 -0.2111
vn -0.0000 0.0366 -0.9993
vn -0.0000 -0.0296 0.9996
vn -0.6419 0.6857 0.3433
vn -0.7066 0.0366 -0.7066
vn 0.7068 -0.0296 0.7068
vn -0.3434 0.6857 -0.6418
vn -0.6441 -0.6304 -0.4333
vn 0.4449 -0.7770 -0.4453
vn 0.7066 0.0366 -0.7066
vn -0.7068 -0.0296 0.7068
vn -0.7066 -0.0249 0.7072
vn -0.1490 -0.6308 0.7615
vn 0.6297 -0.7768 -0.0000
vn -0.9997 -0.0246 -0.0000
vn 0.2110 0.6857 0.6966
vn 0.9993 0.0367 -0.0000
vn -0.9996 -0.0296 -0.0000
vn 0.6436 -0.6308 -0.4334
vn 0.3434 0.6857 -0.6418
vn -0.2111 0.6857 0.6966
vn -0.9993 0.0366 -0.0000
vn 0.9996 -0.0296 -0.0000
vn 0.1490 -0.6308 0.7615
vn -0.6297 -0.7768 -0.0000
vn 0.9997 -0.0245 -0.0000
vn 0.4080 0.6109 -0.6785
vn 0.6651 -0.6808 -0.3067
vn 0.7067 0.0362 0.7066
vn 0.4072 0.8175 0.4072
vn -0.7063 -0.0463 -0.7064
vn -0.7064 -0.0301 -0.7071
vn -0.6872 -0.6808 0.2534
vn -0.7683 0.6109 -0.1913
vn -0.0000 0.8175 0.5759
vn -0.0000 -0.0464 -0.9989
vn -0.6966 0.6857 -0.2111
vn -0.7615 -0.6308 0.1490
vn 0.4328 -0.6311 0.6437
vn 0.6419 0.6857 0.3433
vn -0.6966 0.6857 0.2110
vn 0.6424 0.6857 -0.3424
vn 0.4331 -0.6308 -0.6438
vn 0.4452 -0.7769 0.4453
vn -0.7068 -0.0245 -0.7070
vn -0.7615 -0.6308 -0.1491
vn 0.2110 0.6857 -0.6967
vn -0.1491 -0.6308 -0.7615
vn -0.6439 -0.6308 0.4330
vn -0.3427 0.6856 0.6423
vn -0.0785 0.9250 -0.3717
vn 0.8502 0.0467 -0.5244
vn 0.8724 -0.1787 0.4549
vn 0.4858 0.4764 0.7328
vn -0.7522 -0.4521 -0.4793
vn -0.5069 0.0037 -0.8620
vn 0.8444 -0.4511 -0.2889
vn 0.5051 -0.4884 0.7116
vn -0.4911 0.2189 -0.8431
vn 0.5317 -0.5919 -0.6058
vn -0.0261 -0.4836 0.8749
vn -0.0263 0.7626 -0.6463
vn -0.7351 -0.1208 0.6672
vn -0.2928 0.1589 0.9429
vn 0.5320 0.4648 -0.7078
vn 0.1145 -0.5386 0.8348
vn -0.0634 -0.6366 -0.7686
vn -0.7504 0.0221 -0.6606
vn -0.7738 -0.0910 0.6269
vn 0.9796 -0.0086 -0.2010
vn 0.8355 -0.3350 0.4355
vn 0.3494 -0.1501 -0.9249
vn -0.4555 0.4692 -0.7566
vn 0.7265 -0.5985 0.3377
vn 0.8523 0.1415 -0.5035
vn 0.0173 0.6689 -0.7431
vn -0.0309 -0.8942 0.4466
vn 0.8523 0.1415 0.5035
vn -0.0173 0.6689 0.7431
vn 0.0308 -0.8942 -0.4467
vn 0.3483 -0.1501 0.9253
vn -0.6339 0.2258 0.7397
vn 0.7504 -0.5768 -0.3228
vn -0.5280 0.0873 -0.8447
vn 0.0469 -0.9851 -0.1655
vn -0.0085 -0.4904 -0.8715
vn 0.0582 0.5119 -0.8571
vn -0.6421 0.0144 0.7665
vn -0.0943 0.7618 0.6409
vn 0.8376 -0.4504 0.3091
vn 0.7364 -0.0768 -0.6722
vn -0.4986 0.2250 0.8371
vn 0.8244 -0.3789 0.4205
vn 0.8776 0.3057 -0.3693
vn -0.4506 -0.0615 0.8906
vn 0.0784 0.9951 0.0601
vn 0.5107 0.4407 -0.7382
vn -0.7406 -0.4346 0.5125
vn -0.1159 0.9200 0.3744
vn 0.2832 0.2248 0.9324
vn -0.5141 -0.4958 0.6999
vn 0.7666 0.4029 -0.5000
vn 0.8633 -0.3016 0.4047
vn 0.8634 -0.3016 -0.4044
vn 0.2931 0.2295 -0.9281
vn -0.7268 -0.0694 -0.6833
vn 0.7623 0.3990 0.5096
vn -0.1610 0.8071 -0.5680
vn -0.1727 -0.8955 0.4102
vn 0.7350 -0.1208 -0.6672
vn -0.1453 0.9187 0.3673
vn -0.8502 0.0467 0.5243
vn -0.8444 -0.4511 0.2889
vn -0.4342 0.5662 -0.7006
vn 0.8852 0.0385 -0.4635
vn 0.0342 -0.9869 -0.1580
vn -0.7994 -0.2274 -0.5561
vn 0.4603 0.7359 -0.4966
vn 0.4992 -0.8610 -0.0971
vn -0.4602 0.7358 0.4968
vn -0.4991 -0.8611 0.0970
vn 0.8482 -0.0346 0.5286
vn -0.8014 0.0929 0.5908
vn -0.0341 -0.9868 0.1580
vn 0.4343 0.5663 0.7005
vn -0.7465 -0.4562 -0.4843
vn -0.0784 0.9951 -0.0599
vn 0.7667 -0.1623 0.6211
vn -0.0472 -0.9852 0.1648
vn -0.8376 -0.4504 -0.3092
vn -0.8633 -0.3016 0.4046
vn -0.2931 0.2295 0.9281
vn 0.1611 0.8071 0.5680
vn 0.1467 0.7154 -0.6831
vn -0.2832 0.2249 -0.9323
vn -0.8634 -0.3016 -0.4043
vn 0.6439 -0.6308 0.4331
vn 0.1491 -0.6308 -0.7615
vn -0.2111 0.6857 -0.6966
vn 0.3433 0.6857 0.6418
vn 0.6873 -0.6808 -0.2532
vn 0.7683 0.6109 0.1913
vn -0.0000 0.8175 -0.5759
vn -0.0000 -0.0464 0.9989
vn -0.4080 0.6108 0.6786
vn -0.4072 0.8175 -0.4072
vn 0.7063 -0.0464 0.7064
vn -0.6651 -0.6808 0.3069
vn -0.2533 -0.6808 0.6873
vn 0.3069 -0.6808 -0.6651
vn 0.6785 0.6109 -0.4080
vn 0.1913 0.6108 0.7683
vn -0.5759 0.8175 -0.0000
vn 0.9989 -0.0464 -0.0000
vn -0.6872 -0.6808 -0.2533
vn 0.6651 -0.6808 0.3069
vn 0.4080 0.6108 0.6785
vn 0.4072 0.8175 -0.4072
vn -0.7063 -0.0464 0.7064
vn -0.7683 0.6109 0.1913
vn -0.6677 0.6921 0.2741
vn 0.6659 0.6921 -0.2784
vn 0.3621 -0.5783 -0.7310
vn 0.3414 -0.8758 0.3410
vn -0.6972 0.1693 -0.6966
vn -0.7727 -0.5787 -0.2609
vn -0.0000 -0.8757 0.4829
vn -0.0000 0.1696 -0.9855
vn -0.2533 -0.6808 -0.6873
vn 0.1913 0.6109 -0.7683
vn 0.6785 0.6109 0.4080
vn -0.4072 0.8175 0.4073
vn 0.7063 -0.0464 -0.7064
vn 0.3069 -0.6808 0.6651
vn -0.6785 0.6109 -0.4080
vn -0.3069 -0.6808 -0.6651
vn 0.2532 -0.6808 0.6873
vn -0.1913 0.6108 0.7683
vn 0.5759 0.8175 -0.0000
vn -0.9989 -0.0464 -0.0000
vn -0.6786 0.6108 0.4080
vn -0.1913 0.6108 -0.7683
vn 0.2533 -0.6808 -0.6873
vn -0.3070 -0.6807 0.6651
vn -0.4080 0.6109 -0.6785
vn 0.7683 0.6109 -0.1913
vn 0.6872 -0.6809 0.2533
vn -0.6651 -0.6808 -0.3069
vn 0.6677 0.6921 0.2741
vn 0.7727 -0.5787 -0.2610
vn -0.3623 -0.5780 -0.7312
vn -0.3415 -0.8760 0.3407
vn 0.6974 0.1690 -0.6964
vn -0.6659 0.6921 -0.2784
vn -0.2742 0.6921 0.6677
vn 0.2610 -0.5787 0.7727
vn -0.4828 -0.8757 -0.0000
vn 0.9855 0.1696 -0.0000
vn 0.7309 -0.5787 -0.3618
vn -0.3414 -0.8757 -0.3414
vn 0.6969 0.1697 0.6969
vn 0.2783 0.6921 -0.6660
vn -0.3618 -0.5787 0.7309
vn 0.7726 -0.5787 0.2610
vn -0.0000 -0.8757 -0.4828
vn -0.0000 0.1697 0.9855
vn 0.6677 0.6921 -0.2742
vn -0.6660 0.6921 0.2783
vn -0.7309 -0.5787 -0.3618
vn -0.2610 -0.5787 0.7727
vn 0.4828 -0.8757 -0.0000
vn 0.3414 -0.8757 -0.3414
vn -0.6969 0.1697 0.6969
vn -0.9855 0.1696 -0.0000
vn 0.2741 0.6921 0.6677
vn -0.2783 0.6921 -0.6660
vn -0.7311 -0.5785 0.3617
vn -0.2783 0.6921 0.6660
vn 0.2741 0.6921 -0.6677
vn -0.2610 -0.5787 -0.7726
vn 0.3618 -0.5787 0.7309
vn 0.6660 0.6921 0.2783
vn -0.6677 0.6921 -0.2741
vn -0.7727 -0.5787 0.2610
vn 0.2782 0.6921 0.6661
vn 0.7307 -0.5793 0.3612
vn 0.2609 -0.5788 -0.7726
vn -0.2742 0.6920 -0.6677
vn -0.1145 -0.5386 -0.8348
vn 0.0634 -0.6365 0.7686
vn -0.3494 -0.1502 0.9248
vn -0.8524 0.1415 0.5034
vn -0.8524 0.1415 -0.5034
vn -0.3483 -0.1501 -0.9253
vt 0.000000 0.000000
s 1
f 119/1/1 120/1/2 3/1/3 1/1/4
f 120/1/2 119/1/1 2/1/5 4/1/6
f 120/1/2 121/1/7 5/1/8 3/1/3
f 121/1/7 120/1/2 4/1/6 6/1/9
f 121/1/7 119/1/1 1/1/4 5/1/8
f 119/1/1 121/1/7 6/1/9 2/1/5
f 122/1/10 123/1/11 7/1/12 3/1/3
f 123/1/11 122/1/10 4/1/6 8/1/13
f 123/1/11 124/1/14 5/1/8 7/1/12
f 124/1/14 123/1/11 8/1/13 6/1/9
f 124/1/14 122/1/10 3/1/3 5/1/8
f 122/1/10 124/1/14 6/1/9 4/1/6
f 125/1/15 126/1/16 1/1/4 9/1/17
f 126/1/16 125/1/15 10/1/18 2/1/5
f 126/1/16 127/1/19 5/1/8 1/1/4
f 127/1/19 126/1/16 2/1/5 6/1/9
f 127/1/19 125/1/15 9/1/17 5/1/8
f 125/1/15 127/1/19 6/1/9 10/1/18
f 128/1/20 129/1/21 11/1/22 7/1/12
f 129/1/21 128/1/20 8/1/13 12/1/23
f 129/1/21 130/1/24 5/1/8 11/1/22
f 130/1/24 129/1/21 12/1/23 6/1/9
f 130/1/24 128/1/20 7/1/12 5/1/8
f 128/1/20 130/1/24 6/1/9 8/1/13
f 131/1/25 132/1/26 9/1/17 13/1/27
f 132/1/26 131/1/25 14/1/28 10/1/18
f 132/1/26 133/1/29 5/1/8 9/1/17
f 133/1/29 132/1/26 10/1/18 6/1/9
f 133/1/29 131/1/25 13/1/27 5/1/8
f 131/1/25 133/1/29 6/1/9 14/1/28
f 134/1/30 135/1/31 15/1/32 11/1/22
f 135/1/31 134/1/30 12/1/23 16/1/33
f 135/1/31 136/1/34 5/1/8 15/1/32
f 136/1/34 135/1/31 16/1/33 6/1/9
f 136/1/34 134/1/30 11/1/22 5/1/8
f 134/1/30 136/1/34 6/1/9 12/1/23
f 137/1/35 138/1/36 13/1/27 17/1/37
f 138/1/36 137/1/35 18/1/38 14/1/28
f 138/1/36 139/1/39 5/1/8 13/1/27
f 139/1/39 138/1/36 14/1/28 6/1/9
f 139/1/39 137/1/35 17/1/37 5/1/8
f 137/1/35 139/1/39 6/1/9 18/1/38
f 140/1/40 141/1/41 17/1/37 15/1/32
f 141/1/41 140/1/40 16/1/33 18/1/38
f 141/1/41 142/1/42 5/1/8 17/1/37
f 142/1/42 141/1/41 18/1/38 6/1/9
f 142/1/42 140/1/40 15/1/32 5/1/8
f 140/1/40 142/1/42 6/1/9 16/1/33
f 143/1/43 144/1/44 29/1/45 25/1/46
f 144/1/44 143/1/43 26/1/47 30/1/48
f 144/1/44 145/1/49 21/1/50 29/1/45
f 145/1/49 144/1/44 30/1/48 22/1/51
f 145/1/49 146/1/52 19/1/53 21/1/50
f 146/1/52 145/1/49 22/1/51 20/1/54
f 146/1/52 143/1/43 25/1/46 19/1/53
f 143/1/43 146/1/52 20/1/54 26/1/47
f 147/1/55 148/1/56 49/1/57 41/1/58
f 148/1/56 147/1/55 42/1/59 50/1/60
f 148/1/56 149/1/61 47/1/62 49/1/57
f 149/1/61 148/1/56 50/1/60 48/1/63
f 149/1/61 150/1/64 45/1/65 47/1/62
f 150/1/64 149/1/61 48/1/63 46/1/66
f 150/1/64 147/1/55 41/1/58 45/1/65
f 147/1/55 150/1/64 46/1/66 42/1/59
f 151/1/67 152/1/68 39/1/69 43/1/70
f 152/1/68 151/1/67 44/1/71 40/1/72
f 152/1/68 153/1/73 35/1/74 39/1/69
f 153/1/73 152/1/68 40/1/72 36/1/75
f 153/1/73 154/1/76 31/1/77 35/1/74
f 154/1/76 153/1/73 36/1/75 32/1/78
f 154/1/76 151/1/67 43/1/70 31/1/77
f 151/1/67 154/1/76 32/1/78 44/1/71
f 155/1/79 156/1/80 45/1/65 41/1/58
f 156/1/80 155/1/79 42/1/59 46/1/66
f 156/1/80 157/1/81 33/1/82 45/1/65
f 157/1/81 156/1/80 46/1/66 34/1/83
f 157/1/81 158/1/84 37/1/85 33/1/82
f 158/1/84 157/1/81 34/1/83 38/1/86
f 158/1/84 155/1/79 41/1/58 37/1/85
f 155/1/79 158/1/84 38/1/86 42/1/59
f 159/1/87 160/1/88 27/1/89 93/1/90
f 160/1/88 159/1/87 94/1/91 28/1/92
f 160/1/88 161/1/93 21/1/50 27/1/89
f 161/1/93 160/1/88 28/1/92 22/1/51
f 161/1/93 162/1/94 89/1/95 21/1/50
f 162/1/94 161/1/93 22/1/51 90/1/96
f 162/1/94 159/1/87 93/1/90 89/1/95
f 159/1/87 162/1/94 90/1/96 94/1/91
f 163/1/97 164/1/98 49/1/57 47/1/62
f 164/1/98 163/1/97 48/1/63 50/1/60
f 164/1/98 165/1/99 39/1/69 49/1/57
f 165/1/99 164/1/98 50/1/60 40/1/72
f 165/1/99 166/1/100 43/1/70 39/1/69
f 166/1/100 165/1/99 40/1/72 44/1/71
f 166/1/100 163/1/97 47/1/62 43/1/70
f 163/1/97 166/1/100 44/1/71 48/1/63
f 167/1/101 168/1/102 27/1/89 21/1/50
f 168/1/102 167/1/101 22/1/51 28/1/92
f 168/1/102 169/1/103 23/1/104 27/1/89
f 169/1/103 168/1/102 28/1/92 24/1/105
f 169/1/103 170/1/106 19/1/53 23/1/104
f 170/1/106 169/1/103 24/1/105 20/1/54
f 170/1/106 167/1/101 21/1/50 19/1/53
f 167/1/101 170/1/106 20/1/54 22/1/51
f 171/1/107 172/1/108 35/1/74 31/1/77
f 172/1/108 171/1/107 32/1/78 36/1/75
f 172/1/108 173/1/109 23/1/104 35/1/74
f 173/1/109 172/1/108 36/1/75 24/1/105
f 173/1/109 174/1/110 27/1/89 23/1/104
f 174/1/110 173/1/109 24/1/105 28/1/92
f 174/1/110 171/1/107 31/1/77 27/1/89
f 171/1/107 174/1/110 28/1/92 32/1/78
f 175/1/111 176/1/112 55/1/113 77/1/114
f 176/1/112 175/1/111 78/1/115 56/1/116
f 176/1/112 177/1/117 51/1/118 55/1/113
f 177/1/117 176/1/112 56/1/116 52/1/119
f 177/1/117 178/1/120 53/1/121 51/1/118
f 178/1/120 177/1/117 52/1/119 54/1/122
f 178/1/120 179/1/123 71/1/124 53/1/121
f 179/1/123 178/1/120 54/1/122 72/1/125
f 179/1/123 175/1/111 77/1/114 71/1/124
f 175/1/111 179/1/123 72/1/125 78/1/115
f 180/1/126 181/1/127 69/1/128 59/1/129
f 181/1/127 180/1/126 60/1/130 70/1/131
f 181/1/127 182/1/132 85/1/133 69/1/128
f 182/1/132 181/1/127 70/1/131 86/1/134
f 182/1/132 183/1/135 81/1/136 85/1/133
f 183/1/135 182/1/132 86/1/134 82/1/137
f 183/1/135 184/1/138 75/1/139 81/1/136
f 184/1/138 183/1/135 82/1/137 76/1/140
f 184/1/138 185/1/141 79/1/142 75/1/139
f 185/1/141 184/1/138 76/1/140 80/1/143
f 185/1/141 180/1/126 59/1/129 79/1/142
f 180/1/126 185/1/141 80/1/143 60/1/130
f 186/1/144 187/1/145 63/1/146 73/1/147
f 187/1/145 186/1/144 74/1/148 64/1/149
f 187/1/145 188/1/150 61/1/151 63/1/146
f 188/1/150 187/1/145 64/1/149 62/1/152
f 188/1/150 189/1/153 65/1/154 61/1/151
f 189/1/153 188/1/150 62/1/152 66/1/155
f 189/1/153 190/1/156 83/1/157 65/1/154
f 190/1/156 189/1/153 66/1/155 84/1/158
f 190/1/156 186/1/144 73/1/147 83/1/157
f 186/1/144 190/1/156 84/1/158 74/1/148
f 191/1/159 192/1/160 57/1/161 59/1/129
f 192/1/160 191/1/159 60/1/130 58/1/162
f 192/1/160 193/1/163 53/1/121 57/1/161
f 193/1/163 192/1/160 58/1/162 54/1/122
f 193/1/163 194/1/164 63/1/146 53/1/121
f 194/1/164 193/1/163 54/1/122 64/1/149
f 194/1/164 195/1/165 67/1/166 63/1/146
f 195/1/165 194/1/164 64/1/149 68/1/167
f 195/1/165 196/1/168 69/1/128 67/1/166
f 196/1/168 195/1/165 68/1/167 70/1/131
f 196/1/168 191/1/159 59/1/129 69/1/128
f 191/1/159 196/1/168 70/1/131 60/1/130
f 197/1/169 198/1/170 73/1/147 63/1/146
f 198/1/170 197/1/169 64/1/149 74/1/148
f 198/1/170 199/1/171 85/1/133 73/1/147
f 199/1/171 198/1/170 74/1/148 86/1/134
f 199/1/171 200/1/172 69/1/128 85/1/133
f 200/1/172 199/1/171 86/1/134 70/1/131
f 200/1/172 201/1/173 67/1/166 69/1/128
f 201/1/173 200/1/172 70/1/131 68/1/167
f 201/1/173 197/1/169 63/1/146 67/1/166
f 197/1/169 201/1/173 68/1/167 64/1/149
f 202/1/174 203/1/175 77/1/114 75/1/139
f 203/1/175 202/1/174 76/1/140 78/1/115
f 203/1/175 204/1/176 71/1/124 77/1/114
f 204/1/176 203/1/175 78/1/115 72/1/125
f 204/1/176 202/1/174 75/1/139 71/1/124
f 202/1/174 204/1/176 72/1/125 76/1/140
f 205/1/177 206/1/178 75/1/139 79/1/142
f 206/1/178 205/1/177 80/1/143 76/1/140
f 206/1/178 207/1/179 71/1/124 75/1/139
f 207/1/179 206/1/178 76/1/140 72/1/125
f 207/1/179 205/1/177 79/1/142 71/1/124
f 205/1/177 207/1/179 72/1/125 80/1/143
f 208/1/180 209/1/181 73/1/147 81/1/136
f 209/1/181 208/1/180 82/1/137 74/1/148
f 209/1/181 210/1/182 83/1/157 73/1/147
f 210/1/182 209/1/181 74/1/148 84/1/158
f 210/1/182 208/1/180 81/1/136 83/1/157
f 208/1/180 210/1/182 84/1/158 82/1/137
f 211/1/183 212/1/184 73/1/147 85/1/133
f 212/1/184 211/1/183 86/1/134 74/1/148
f 212/1/184 213/1/185 81/1/136 73/1/147
f 213/1/185 212/1/184 74/1/148 82/1/137
f 213/1/185 211/1/183 85/1/133 81/1/136
f 211/1/183 213/1/185 82/1/137 86/1/134
f 214/1/186 215/1/187 79/1/142 59/1/129
f 215/1/187 214/1/186 60/1/130 80/1/143
f 215/1/187 216/1/188 71/1/124 79/1/142
f 216/1/188 215/1/187 80/1/143 72/1/125
f 216/1/188 217/1/189 53/1/121 71/1/124
f 217/1/189 216/1/188 72/1/125 54/1/122
f 217/1/189 218/1/190 57/1/161 53/1/121
f 218/1/190 217/1/189 54/1/122 58/1/162
f 218/1/190 214/1/186 59/1/129 57/1/161
f 214/1/186 218/1/190 58/1/162 60/1/130
f 219/1/191 220/1/192 51/1/118 53/1/121
f 220/1/192 219/1/191 54/1/122 52/1/119
f 220/1/192 221/1/193 55/1/113 51/1/118
f 221/1/193 220/1/192 52/1/119 56/1/116
f 221/1/193 222/1/194 65/1/154 55/1/113
f 222/1/194 221/1/193 56/1/116 66/1/155
f 222/1/194 223/1/195 61/1/151 65/1/154
f 223/1/195 222/1/194 66/1/155 62/1/152
f 223/1/195 224/1/196 63/1/146 61/1/151
f 224/1/196 223/1/195 62/1/152 64/1/149
f 224/1/196 219/1/191 53/1/121 63/1/146
f 219/1/191 224/1/196 64/1/149 54/1/122
f 225/1/197 226/1/198 37/1/85 25/1/46
f 226/1/198 225/1/197 26/1/47 38/1/86
f 226/1/198 227/1/199 33/1/82 37/1/85
f 227/1/199 226/1/198 38/1/86 34/1/83
f 227/1/199 228/1/200 29/1/45 33/1/82
f 228/1/200 227/1/199 34/1/83 30/1/48
f 228/1/200 225/1/197 25/1/46 29/1/45
f 225/1/197 228/1/200 30/1/48 26/1/47
f 229/1/201 230/1/202 99/1/203 47/1/62
f 230/1/202 229/1/201 48/1/63 100/1/204
f 230/1/202 231/1/205 95/1/206 99/1/203
f 231/1/205 230/1/202 100/1/204 96/1/207
f 231/1/205 232/1/208 45/1/65 95/1/206
f 232/1/208 231/1/205 96/1/207 46/1/66
f 232/1/208 229/1/201 47/1/62 45/1/65
f 229/1/201 232/1/208 46/1/66 48/1/63
f 233/1/209 234/1/210 45/1/65 33/1/82
f 234/1/210 233/1/209 34/1/83 46/1/66
f 234/1/210 235/1/211 95/1/206 45/1/65
f 235/1/211 234/1/210 46/1/66 96/1/207
f 235/1/211 236/1/212 91/1/213 95/1/206
f 236/1/212 235/1/211 96/1/207 92/1/214
f 236/1/212 233/1/209 33/1/82 91/1/213
f 233/1/209 236/1/212 92/1/214 34/1/83
f 237/1/215 238/1/216 43/1/70 47/1/62
f 238/1/216 237/1/215 48/1/63 44/1/71
f 238/1/216 239/1/217 101/1/218 43/1/70
f 239/1/217 238/1/216 44/1/71 102/1/219
f 239/1/217 240/1/220 99/1/203 101/1/218
f 240/1/220 239/1/217 102/1/219 100/1/204
f 240/1/220 237/1/215 47/1/62 99/1/203
f 237/1/215 240/1/220 100/1/204 48/1/63
f 241/1/221 242/1/222 13/1/27 9/1/17
f 242/1/222 241/1/221 10/1/18 14/1/28
f 242/1/222 243/1/223 117/1/224 13/1/27
f 243/1/223 242/1/222 14/1/28 118/1/225
f 243/1/223 244/1/226 113/1/227 117/1/224
f 244/1/226 243/1/223 118/1/225 114/1/228
f 244/1/226 241/1/221 9/1/17 113/1/227
f 241/1/221 244/1/226 114/1/228 10/1/18
f 245/1/229 246/1/230 91/1/213 33/1/82
f 246/1/230 245/1/229 34/1/83 92/1/214
f 246/1/230 247/1/231 87/1/232 91/1/213
f 247/1/231 246/1/230 92/1/214 88/1/233
f 247/1/231 248/1/234 29/1/45 87/1/232
f 248/1/234 247/1/231 88/1/233 30/1/48
f 248/1/234 245/1/229 33/1/82 29/1/45
f 245/1/229 248/1/234 30/1/48 34/1/83
f 249/1/235 250/1/236 43/1/70 101/1/218
f 250/1/236 249/1/235 102/1/219 44/1/71
f 250/1/236 251/1/237 31/1/77 43/1/70
f 251/1/237 250/1/236 44/1/71 32/1/78
f 251/1/237 252/1/238 97/1/239 31/1/77
f 252/1/238 251/1/237 32/1/78 98/1/240
f 252/1/238 249/1/235 101/1/218 97/1/239
f 249/1/235 252/1/238 98/1/240 102/1/219
f 253/1/241 254/1/242 97/1/239 93/1/90
f 254/1/242 253/1/241 94/1/91 98/1/240
f 254/1/242 255/1/243 31/1/77 97/1/239
f 255/1/243 254/1/242 98/1/240 32/1/78
f 255/1/243 256/1/244 27/1/89 31/1/77
f 256/1/244 255/1/243 32/1/78 28/1/92
f 256/1/244 253/1/241 93/1/90 27/1/89
f 253/1/241 256/1/244 28/1/92 94/1/91
f 257/1/245 258/1/246 89/1/95 87/1/232
f 258/1/246 257/1/245 88/1/233 90/1/96
f 258/1/246 259/1/247 21/1/50 89/1/95
f 259/1/247 258/1/246 90/1/96 22/1/51
f 259/1/247 260/1/248 29/1/45 21/1/50
f 260/1/248 259/1/247 22/1/51 30/1/48
f 260/1/248 257/1/245 87/1/232 29/1/45
f 257/1/245 260/1/248 30/1/48 88/1/233
f 261/1/249 262/1/250 113/1/227 9/1/17
f 262/1/250 261/1/249 10/1/18 114/1/228
f 262/1/250 263/1/251 109/1/252 113/1/227
f 263/1/251 262/1/250 114/1/228 110/1/253
f 263/1/251 264/1/254 1/1/4 109/1/252
f 264/1/254 263/1/251 110/1/253 2/1/5
f 264/1/254 261/1/249 9/1/17 1/1/4
f 261/1/249 264/1/254 2/1/5 10/1/18
f 265/1/255 266/1/256 105/1/257 3/1/3
f 266/1/256 265/1/255 4/1/6 106/1/258
f 266/1/256 267/1/259 103/1/260 105/1/257
f 267/1/259 266/1/256 106/1/258 104/1/261
f 267/1/259 268/1/262 7/1/12 103/1/260
f 268/1/262 267/1/259 104/1/261 8/1/13
f 268/1/262 265/1/255 3/1/3 7/1/12
f 265/1/255 268/1/262 8/1/13 4/1/6
f 269/1/263 270/1/264 107/1/265 103/1/260
f 270/1/264 269/1/263 104/1/261 108/1/266
f 270/1/264 271/1/267 11/1/22 107/1/265
f 271/1/267 270/1/264 108/1/266 12/1/23
f 271/1/267 272/1/268 7/1/12 11/1/22
f 272/1/268 271/1/267 12/1/23 8/1/13
f 272/1/268 269/1/263 103/1/260 7/1/12
f 269/1/263 272/1/268 8/1/13 104/1/261
f 273/1/269 274/1/270 115/1/271 111/1/272
f 274/1/270 273/1/269 112/1/273 116/1/274
f 274/1/270 275/1/275 17/1/37 115/1/271
f 275/1/275 274/1/270 116/1/274 18/1/38
f 275/1/275 276/1/276 15/1/32 17/1/37
f 276/1/276 275/1/275 18/1/38 16/1/33
f 276/1/276 273/1/269 111/1/272 15/1/32
f 273/1/269 276/1/276 16/1/33 112/1/273
f 277/1/277 278/1/278 13/1/27 117/1/224
f 278/1/278 277/1/277 118/1/225 14/1/28
f 278/1/278 279/1/279 17/1/37 13/1/27
f 279/1/279 278/1/278 14/1/28 18/1/38
f 279/1/279 280/1/280 115/1/271 17/1/37
f 280/1/280 279/1/279 18/1/38 116/1/274
f 280/1/280 277/1/277 117/1/224 115/1/271
f 277/1/277 280/1/280 116/1/274 118/1/225
f 281/1/281 282/1/282 15/1/32 111/1/272
f 282/1/282 281/1/281 112/1/273 16/1/33
f 282/1/282 283/1/283 11/1/22 15/1/32
f 283/1/283 282/1/282 16/1/33 12/1/23
f 283/1/283 284/1/284 107/1/265 11/1/22
f 284/1/284 283/1/283 12/1/23 108/1/266
f 284/1/284 281/1/281 111/1/272 107/1/265
f 281/1/281 284/1/284 108/1/266 112/1/273
f 285/1/285 286/1/286 109/1/252 1/1/4
f 286/1/286 285/1/285 2/1/5 110/1/253
f 286/1/286 287/1/287 105/1/257 109/1/252
f 287/1/287 286/1/286 110/1/253 106/1/258
f 287/1/287 288/1/288 3/1/3 105/1/257
f 288/1/288 287/1/287 106/1/258 4/1/6
f 288/1/288 285/1/285 1/1/4 3/1/3
f 285/1/285 288/1/288 4/1/6 2/1/5
f 289/1/289 290/1/290 55/1/113 65/1/154
f 290/1/290 289/1/289 66/1/155 56/1/116
f 290/1/290 291/1/291 77/1/114 55/1/113
f 291/1/291 290/1/290 56/1/116 78/1/115
f 291/1/291 292/1/292 75/1/139 77/1/114
f 292/1/292 291/1/291 78/1/115 76/1/140
f 292/1/292 293/1/293 81/1/136 75/1/139
f 293/1/293 292/1/292 76/1/140 82/1/137
f 293/1/293 294/1/294 83/1/157 81/1/136
f 294/1/294 293/1/293 82/1/137 84/1/158
f 294/1/294 289/1/289 65/1/154 83/1/157
f 289/1/289 294/1/294 84/1/158 66/1/155
