# Blender 5.2.0 LTS
# www.blender.org
mtllib glass mag body.mtl
o mag_body
v 0.295472 0.288830 -0.076914
v 0.296748 0.289807 -0.078104
v -0.058908 0.392336 -0.076914
v -0.059913 0.393649 -0.078040
v -0.058908 0.392336 0.076914
v -0.059913 0.393649 0.078040
v 0.295472 0.288830 0.076914
v 0.296748 0.289807 0.078104
v -0.297880 -0.268127 -0.092297
v -0.299312 -0.268911 -0.093452
v 0.127376 -0.392337 -0.092297
v 0.128160 -0.393769 -0.093452
v 0.127376 -0.392337 0.092297
v 0.128160 -0.393769 0.093452
v -0.297880 -0.268127 0.092297
v -0.299312 -0.268911 0.093452
v -0.279050 -0.203754 0.092297
v -0.280225 -0.202793 0.093599
v -0.279050 -0.203754 -0.092297
v -0.280225 -0.202793 -0.093599
v 0.297880 0.167229 -0.076914
v 0.299316 0.167182 -0.078305
v 0.297880 0.167229 0.076914
v 0.299316 0.167182 0.078305
v 0.287777 0.049282 -0.076914
v 0.289208 0.049014 -0.078285
v 0.287777 0.049282 0.076914
v 0.289208 0.049014 0.078285
v 0.255241 -0.062113 -0.076914
v 0.256591 -0.062658 -0.078285
v 0.255241 -0.062113 0.076914
v 0.256591 -0.062658 0.078285
v 0.200272 -0.166956 -0.076914
v 0.201508 -0.167689 -0.078305
v 0.200272 -0.166956 0.076914
v 0.201508 -0.167689 0.078305
v 0.132792 -0.268145 -0.076914
v 0.134079 -0.268117 -0.078445
v 0.132792 -0.268145 0.076914
v 0.134079 -0.268117 0.078445
v 0.146207 -0.327961 0.092297
v 0.147689 -0.327891 0.093638
v 0.146207 -0.327961 -0.092297
v 0.147689 -0.327891 -0.093638
v -0.056500 0.270736 -0.076914
v -0.057936 0.270783 -0.078305
v -0.056500 0.270736 0.076914
v -0.057936 0.270783 0.078305
v -0.066604 0.152789 0.076914
v -0.068035 0.153057 0.078285
v -0.066604 0.152789 -0.076914
v -0.068035 0.153057 -0.078285
v -0.099140 0.041394 0.076914
v -0.100490 0.041939 0.078285
v -0.099140 0.041394 -0.076914
v -0.100490 0.041939 -0.078285
v -0.154108 -0.063448 0.076914
v -0.155344 -0.062715 0.078305
v -0.154108 -0.063448 -0.076914
v -0.155344 -0.062715 -0.078305
v -0.221588 -0.164638 0.076914
v -0.222445 -0.163459 0.078284
v -0.221588 -0.164638 -0.076914
v -0.222445 -0.163459 -0.078284
v 0.288212 0.048188 0.076599
v 0.256197 -0.061426 0.076599
v 0.256197 -0.061426 -0.076599
v 0.288212 0.048188 -0.076599
v 0.200335 -0.168155 0.076609
v 0.133990 -0.267299 0.076680
v 0.133990 -0.267299 -0.076679
v 0.200335 -0.168155 -0.076609
v -0.058450 0.392712 0.076477
v 0.295150 0.289599 0.076509
v 0.295150 0.289599 -0.076509
v -0.058450 0.392712 -0.076477
v 0.126808 -0.392773 0.091874
v -0.297636 -0.268800 0.091874
v -0.297636 -0.268800 -0.091874
v 0.126808 -0.392773 -0.091874
v -0.057304 0.269763 -0.076609
v -0.067234 0.153919 -0.076599
v -0.067234 0.153919 0.076599
v -0.057304 0.269763 0.076609
v -0.067600 0.151963 -0.076599
v -0.099535 0.042626 -0.076599
v -0.099535 0.042626 0.076599
v -0.067600 0.151963 0.076599
v 0.255452 -0.063271 0.076599
v 0.201354 -0.166437 0.076609
v 0.201354 -0.166437 -0.076609
v 0.255452 -0.063271 -0.076599
v 0.145621 -0.326537 -0.092692
v -0.277384 -0.202931 -0.092673
v -0.221822 -0.165107 -0.077874
v 0.132589 -0.268885 -0.077955
v 0.296130 0.288319 0.076509
v 0.298578 0.168205 0.076609
v 0.298578 0.168205 -0.076609
v 0.296130 0.288319 -0.076509
v -0.298315 -0.267559 -0.091874
v -0.298315 -0.267559 0.091874
v -0.279918 -0.204233 0.091948
v -0.279918 -0.204233 -0.091948
v 0.146667 -0.328886 -0.091968
v 0.146667 -0.328886 0.091968
v 0.128049 -0.392093 0.091874
v 0.128049 -0.392093 -0.091874
v 0.298513 0.166209 0.076609
v 0.288578 0.050145 0.076599
v 0.288578 0.050145 -0.076599
v 0.298513 0.166209 -0.076609
v -0.057238 0.271759 0.076609
v -0.059390 0.391993 0.076477
v -0.059390 0.391993 -0.076477
v -0.057238 0.271759 -0.076609
v -0.100280 0.040781 -0.076599
v -0.154262 -0.062196 -0.076609
v -0.154262 -0.062196 0.076609
v -0.100280 0.040781 0.076599
v 0.146729 -0.326950 0.091686
v 0.146729 -0.326950 -0.091686
v 0.133654 -0.269107 -0.076899
v 0.133654 -0.269107 0.076899
v 0.127089 -0.391813 0.092874
v 0.145707 -0.328606 0.092968
v -0.278958 -0.204514 0.092948
v -0.297356 -0.267840 0.092874
v 0.297597 0.167238 0.077609
v 0.295125 0.288564 0.077509
v -0.058384 0.391651 0.077477
v -0.056217 0.270727 0.077609
v -0.066332 0.152738 0.077599
v -0.098883 0.041290 0.077599
v -0.153865 -0.063592 0.077609
v -0.220429 -0.163471 0.077599
v 0.133011 -0.266965 0.077680
v 0.200029 -0.166812 0.077609
v 0.254984 -0.062009 0.077599
v 0.287505 0.049333 0.077599
v 0.127089 -0.391813 -0.092874
v -0.297356 -0.267840 -0.092874
v -0.278958 -0.204514 -0.092948
v 0.145707 -0.328606 -0.092968
v -0.056217 0.270727 -0.077609
v -0.058384 0.391651 -0.077477
v 0.295125 0.288564 -0.077509
v 0.297597 0.167238 -0.077609
v 0.287505 0.049333 -0.077599
v 0.254984 -0.062009 -0.077599
v 0.200029 -0.166812 -0.077609
v 0.133011 -0.266965 -0.077679
v -0.220429 -0.163471 -0.077599
v -0.153865 -0.063592 -0.077609
v -0.098883 0.041290 -0.077599
v -0.066332 0.152738 -0.077599
v -0.278811 -0.202711 -0.091703
v -0.278811 -0.202711 0.091703
v -0.222843 -0.164611 0.076796
v -0.222843 -0.164611 -0.076796
v -0.221822 -0.165107 0.077875
v -0.277384 -0.202931 0.092673
v 0.145621 -0.326537 0.092692
v 0.132589 -0.268885 0.077955
v -0.155281 -0.063913 -0.076609
v -0.221462 -0.163217 -0.076599
v -0.221462 -0.163217 0.076599
v -0.155281 -0.063913 0.076609
vn 0.3822 -0.1116 0.9173
vn -0.8819 0.2576 0.3949
vn 0.5840 -0.8118 -0.0000
vn -0.9523 -0.3051 -0.0000
vn 0.3823 -0.1117 -0.9173
vn -0.8819 0.2576 -0.3949
vn 0.9291 0.3699 -0.0000
vn -0.6384 0.7697 -0.0000
vn 0.3305 -0.2205 0.9177
vn -0.7815 0.5242 0.3382
vn 0.5768 -0.8169 -0.0000
vn -0.9942 -0.1075 -0.0000
vn 0.3305 -0.2205 -0.9177
vn -0.7815 0.5242 -0.3382
vn 0.9986 0.0526 -0.0000
vn -0.3688 0.9295 -0.0000
vn 0.1667 0.5713 0.8036
vn -0.2632 -0.9033 0.3388
vn 0.9225 0.3859 -0.0000
vn 0.1291 -0.9916 -0.0000
vn 0.1667 0.5713 -0.8036
vn -0.2632 -0.9033 -0.3387
vn -0.6348 0.7727 -0.0000
vn -0.5394 -0.8420 -0.0000
vn -0.1656 -0.5669 0.8070
vn 0.2633 0.9014 0.3437
vn -0.9402 -0.3407 -0.0000
vn -0.0666 0.9978 -0.0000
vn -0.1656 -0.5671 -0.8068
vn 0.2633 0.9014 -0.3438
vn 0.6088 -0.7933 -0.0000
vn 0.5933 0.8050 -0.0000
vn -0.3930 0.0336 -0.9189
vn 0.9165 -0.0786 -0.3923
vn -0.8733 -0.4871 -0.0000
vn 0.7327 -0.6805 -0.0000
vn -0.3931 0.0336 0.9189
vn 0.9165 -0.0786 0.3923
vn -0.7710 0.6369 -0.0000
vn 0.8497 0.5272 -0.0000
vn -0.3823 0.1116 -0.9173
vn 0.8819 -0.2576 -0.3949
vn -0.3823 0.1116 0.9173
vn 0.8819 -0.2576 0.3949
vn 0.9291 0.3698 -0.0000
vn 0.3494 -0.1832 0.9189
vn -0.8146 0.4272 0.3923
vn -0.8146 0.4272 0.3924
vn 0.4324 -0.9017 -0.0000
vn -0.9926 -0.1218 -0.0000
vn 0.3494 -0.1831 -0.9189
vn -0.8146 0.4272 -0.3924
vn 0.9838 0.1792 -0.0000
vn -0.4738 0.8806 -0.0000
vn -0.0839 -0.2870 -0.9543
vn -0.2255 -0.7718 0.5946
vn -0.4816 0.8243 -0.2977
vn -0.3153 0.0947 0.9442
vn 0.2362 0.8080 -0.5397
vn 0.0935 0.3177 0.9436
vn 0.8901 0.2904 -0.3512
vn 0.3474 -0.1568 0.9245
vn 0.4609 0.0096 0.8874
vn -0.9234 -0.0186 0.3833
vn 0.8133 -0.5818 -0.0000
vn -0.8111 -0.5849 -0.0000
vn 0.4609 0.0096 -0.8874
vn -0.9234 -0.0186 -0.3833
vn 0.6136 0.7896 -0.0000
vn -0.9234 0.3838 -0.0000
vn -0.7934 -0.6087 -0.0000
vn 0.8049 -0.5935 -0.0000
vn -0.4967 0.1443 0.8558
vn 0.8931 -0.2592 0.3677
vn -0.4834 0.8754 -0.0000
vn 0.9780 0.2084 -0.0000
vn -0.4967 0.1443 -0.8558
vn 0.8931 -0.2592 -0.3677
vn 0.8954 0.4453 -0.0000
vn -0.6975 0.7166 -0.0000
vn 0.4860 -0.1433 0.8622
vn 0.4859 -0.1433 0.8622
vn -0.8925 0.2630 0.3665
vn 0.3405 -0.9403 -0.0000
vn -0.9978 -0.0663 -0.0000
vn 0.4860 -0.1433 -0.8621
vn -0.8925 0.2629 -0.3665
vn 0.3930 -0.0337 0.9189
vn -0.9164 0.0784 0.3925
vn 0.3930 -0.0337 -0.9189
vn 0.3931 -0.0337 -0.9189
vn -0.9165 0.0784 -0.3924
vn -0.5230 -0.0094 0.8523
vn 0.9375 0.0165 0.3477
vn -0.5800 0.8146 -0.0000
vn 0.9537 0.3007 -0.0000
vn -0.5231 -0.0094 -0.8522
vn 0.9375 0.0165 -0.3477
vn -0.3494 0.1832 -0.9189
vn 0.8147 -0.4270 -0.3924
vn -0.3494 0.1832 0.9189
vn 0.8147 -0.4270 0.3923
vn -0.4739 0.8806 -0.0000
vn 0.9838 0.1791 -0.0000
vn 0.8884 -0.4590 -0.0000
vn -0.7001 -0.7140 -0.0000
vn 0.3827 0.3094 -0.8706
vn -0.9230 -0.1159 -0.3668
vn 0.7446 0.6675 -0.0000
vn -0.9191 0.3941 -0.0000
vn 0.3826 0.3094 0.8706
vn -0.9230 -0.1159 0.3668
vn 0.8308 -0.2442 0.5002
vn 0.3418 -0.0990 -0.9345
vn 0.1880 0.6436 0.7419
vn 0.1297 0.4435 -0.8869
vn -0.8273 0.2409 0.5074
vn -0.3368 0.0991 -0.9363
vn -0.2262 -0.7745 0.5908
vn -0.0964 -0.3299 -0.9391
vn 0.8972 0.0182 0.4413
vn 0.3582 0.0062 -0.9336
vn 0.2246 0.7698 0.5975
vn 0.0970 0.3324 -0.9381
vn -0.8455 -0.0157 0.5337
vn -0.3655 -0.0077 -0.9308
vn -0.9238 0.0791 0.3746
vn -0.3710 0.0319 -0.9281
vn -0.8907 0.2601 0.3729
vn -0.3546 0.1036 -0.9293
vn -0.8212 0.4305 0.3746
vn -0.3298 0.1727 -0.9281
vn -0.7633 0.5088 0.3982
vn -0.3130 0.2087 -0.9265
vn -0.3132 0.2088 -0.9265
vn -0.1353 -0.4621 0.8764
vn -0.1353 -0.4622 0.8764
vn -0.2049 -0.6998 -0.6843
vn 0.7386 -0.4933 0.4595
vn 0.3405 -0.2292 -0.9119
vn 0.8212 -0.4306 0.3744
vn 0.8212 -0.4306 0.3745
vn 0.3297 -0.1730 -0.9281
vn 0.8907 -0.2601 0.3729
vn 0.3545 -0.1036 -0.9293
vn 0.9238 -0.0791 0.3745
vn 0.3709 -0.0316 -0.9281
vn -0.2262 -0.7746 -0.5906
vn -0.0964 -0.3299 0.9391
vn -0.8273 0.2409 -0.5076
vn -0.8272 0.2409 -0.5076
vn -0.3369 0.0992 0.9363
vn 0.1880 0.6436 -0.7419
vn 0.1297 0.4435 0.8869
vn 0.8309 -0.2442 -0.5000
vn 0.3418 -0.0990 0.9345
vn -0.8456 -0.0157 -0.5336
vn -0.3655 -0.0077 0.9308
vn 0.2246 0.7696 -0.5977
vn 0.0970 0.3325 0.9381
vn 0.8971 0.0182 -0.4414
vn 0.3582 0.0062 0.9336
vn 0.9238 -0.0791 -0.3747
vn 0.3710 -0.0316 0.9281
vn 0.3709 -0.0316 0.9281
vn 0.8907 -0.2601 -0.3729
vn 0.3545 -0.1036 0.9293
vn 0.8212 -0.4306 -0.3745
vn 0.3297 -0.1730 0.9281
vn 0.7387 -0.4933 -0.4594
vn 0.3405 -0.2292 0.9119
vn -0.1353 -0.4622 -0.8764
vn -0.2049 -0.6998 0.6843
vn -0.7632 0.5088 -0.3982
vn -0.3128 0.2085 0.9266
vn -0.8211 0.4305 -0.3747
vn -0.3299 0.1728 0.9281
vn -0.8907 0.2601 -0.3729
vn -0.3546 0.1036 0.9293
vn -0.9239 0.0792 -0.3744
vn -0.3710 0.0319 0.9281
vn -0.9747 0.2234 -0.0000
vn 0.0582 -0.9983 -0.0000
vn -0.0983 0.4852 0.8688
vn 0.5861 -0.7053 0.3988
vn 0.0211 0.9998 -0.0000
vn 0.9451 -0.3266 -0.0000
vn -0.0983 0.4852 -0.8688
vn 0.5861 -0.7053 -0.3989
vn -0.4816 0.8243 0.2977
vn -0.3153 0.0947 -0.9442
vn -0.0839 -0.2870 0.9543
vn -0.2255 -0.7717 -0.5946
vn 0.8901 0.2905 0.3511
vn 0.8901 0.2904 0.3511
vn 0.3474 -0.1568 -0.9245
vn 0.2354 0.8083 0.5397
vn 0.2362 0.8080 0.5397
vn 0.0935 0.3177 -0.9436
vn -0.3366 0.2243 -0.9146
vn 0.7688 -0.5123 -0.3829
vn -0.9961 0.0885 -0.0000
vn 0.2396 -0.9709 -0.0000
vn -0.3366 0.2243 0.9145
vn 0.7688 -0.5123 0.3829
vn 0.3823 -0.1116 0.9173
vn 0.3823 -0.1116 -0.9173
vn 0.3306 -0.2205 0.9177
vn 0.1667 0.5713 0.8037
vn 0.1667 0.5712 0.8037
vn -0.2632 -0.9033 0.3387
vn -0.2633 -0.9033 0.3387
vn 0.9225 0.3860 -0.0000
vn -0.2632 -0.9033 -0.3388
vn -0.1656 -0.5671 0.8068
vn 0.2633 0.9014 0.3438
vn -0.1656 -0.5669 -0.8070
vn 0.2633 0.9014 -0.3437
vn 0.6089 -0.7933 -0.0000
vn -0.3931 0.0336 -0.9189
vn -0.3930 0.0336 0.9189
vn -0.7710 0.6368 -0.0000
vn -0.3823 0.1117 -0.9173
vn 0.3494 -0.1831 0.9189
vn -0.9926 -0.1217 -0.0000
vn 0.3494 -0.1832 -0.9189
vn -0.8146 0.4272 -0.3923
vn -0.2255 -0.7717 0.5946
vn 0.2363 0.8080 -0.5397
vn 0.8901 0.2904 -0.3511
vn 0.8901 0.2905 -0.3511
vn -0.9234 0.3837 -0.0000
vn 0.8953 0.4454 -0.0000
vn -0.6975 0.7165 -0.0000
vn 0.4860 -0.1433 0.8621
vn -0.8925 0.2629 0.3665
vn 0.4860 -0.1433 -0.8622
vn 0.4859 -0.1433 -0.8622
vn -0.8925 0.2630 -0.3665
vn -0.9165 0.0784 0.3924
vn -0.9164 0.0784 0.3924
vn 0.3929 -0.0337 -0.9189
vn -0.9164 0.0784 -0.3925
vn -0.5231 -0.0094 0.8522
vn 0.9537 0.3006 -0.0000
vn -0.5230 -0.0094 -0.8523
vn 0.8147 -0.4270 -0.3923
vn 0.8147 -0.4270 0.3924
vn 0.3826 0.3094 -0.8706
vn 0.3827 0.3094 0.8706
vn 0.8309 -0.2442 0.5000
vn 0.3418 -0.0990 -0.9346
vn -0.8273 0.2409 0.5076
vn -0.8272 0.2409 0.5076
vn -0.3369 0.0992 -0.9363
vn -0.2262 -0.7746 0.5906
vn 0.8971 0.0182 0.4414
vn 0.2246 0.7696 0.5977
vn 0.0970 0.3325 -0.9381
vn -0.8456 -0.0156 0.5336
vn -0.8456 -0.0181 0.5336
vn -0.9239 0.0792 0.3744
vn -0.8211 0.4305 0.3747
vn -0.3299 0.1728 -0.9281
vn -0.7632 0.5088 0.3982
vn -0.3129 0.2086 -0.9266
vn 0.7387 -0.4933 0.4594
vn 0.9238 -0.0791 0.3747
vn 0.3710 -0.0316 -0.9281
vn -0.2262 -0.7745 -0.5908
vn -0.8273 0.2409 -0.5074
vn -0.3368 0.0991 0.9363
vn 0.8308 -0.2442 -0.5002
vn -0.8455 -0.0157 -0.5337
vn 0.2246 0.7698 -0.5975
vn 0.0970 0.3324 0.9381
vn 0.8972 0.0182 -0.4413
vn 0.9238 -0.0791 -0.3745
vn 0.3298 -0.1731 0.9281
vn 0.7386 -0.4933 -0.4595
vn -0.1353 -0.4621 -0.8764
vn -0.1352 -0.4622 -0.8764
vn -0.7633 0.5088 -0.3982
vn -0.7631 0.5091 -0.3982
vn -0.3132 0.2088 0.9265
vn -0.3130 0.2087 0.9265
vn -0.8212 0.4305 -0.3746
vn -0.3298 0.1727 0.9281
vn -0.9238 0.0791 -0.3746
vn 0.5861 -0.7053 0.3989
vn 0.9452 -0.3266 -0.0000
vn 0.5861 -0.7053 -0.3988
vn -0.3154 0.0947 -0.9442
vn -0.2255 -0.7718 -0.5945
vn 0.8901 0.2904 0.3512
vn -0.3366 0.2243 -0.9145
vn -0.3366 0.2243 0.9146
vt 0.000000 0.000000
s 0
f 66/1/1 65/1/1 27/1/1
f 65/1/2 66/1/2 32/1/2
f 67/1/3 66/1/3 31/1/3
f 67/1/4 30/1/4 32/1/4
f 68/1/5 67/1/5 29/1/5
f 68/1/6 26/1/6 30/1/6
f 65/1/7 68/1/7 25/1/7
f 65/1/8 28/1/8 26/1/8
f 70/1/9 69/1/9 35/1/9
f 69/1/10 70/1/10 40/1/10
f 71/1/11 70/1/11 39/1/11
f 70/1/12 71/1/12 38/1/12
f 71/1/13 37/1/13 33/1/13
f 72/1/14 34/1/14 38/1/14
f 72/1/15 33/1/15 35/1/15
f 72/1/16 69/1/16 36/1/16
f 74/1/17 73/1/17 5/1/17
f 73/1/18 74/1/18 8/1/18
f 75/1/19 74/1/19 7/1/19
f 74/1/20 75/1/20 2/1/20
f 75/1/21 1/1/21 3/1/21
f 76/1/22 4/1/22 2/1/22
f 73/1/23 76/1/23 3/1/23
f 76/1/24 73/1/24 6/1/24
f 77/1/25 13/1/25 15/1/25
f 78/1/26 16/1/26 14/1/26
f 78/1/27 15/1/27 9/1/27
f 78/1/28 79/1/28 10/1/28
f 80/1/29 79/1/29 9/1/29
f 79/1/30 80/1/30 12/1/30
f 77/1/31 80/1/31 11/1/31
f 80/1/32 77/1/32 14/1/32
f 82/1/33 81/1/33 45/1/33
f 81/1/34 82/1/34 52/1/34
f 83/1/35 82/1/35 51/1/35
f 82/1/36 83/1/36 50/1/36
f 83/1/37 49/1/37 47/1/37
f 84/1/38 48/1/38 50/1/38
f 81/1/39 84/1/39 47/1/39
f 84/1/40 81/1/40 46/1/40
f 86/1/41 85/1/41 51/1/41
f 85/1/42 86/1/42 56/1/42
f 87/1/4 86/1/4 55/1/4
f 86/1/3 87/1/3 54/1/3
f 88/1/43 87/1/43 53/1/43
f 87/1/44 88/1/44 50/1/44
f 85/1/8 88/1/8 49/1/8
f 88/1/45 85/1/45 52/1/45
f 90/1/46 89/1/46 31/1/46
f 89/1/47 90/1/48 36/1/48
f 91/1/49 90/1/49 35/1/49
f 90/1/50 91/1/50 34/1/50
f 91/1/51 33/1/51 29/1/51
f 92/1/52 30/1/52 34/1/52
f 89/1/53 92/1/53 29/1/53
f 89/1/54 32/1/54 30/1/54
f 94/1/55 93/1/55 43/1/55
f 94/1/56 20/1/56 44/1/56
f 94/1/57 19/1/57 63/1/57
f 94/1/58 95/1/58 64/1/58
f 96/1/59 95/1/59 63/1/59
f 96/1/60 38/1/60 64/1/60
f 93/1/61 96/1/61 37/1/61
f 93/1/62 44/1/62 38/1/62
f 98/1/63 97/1/63 7/1/63
f 97/1/64 98/1/64 24/1/64
f 98/1/65 23/1/65 21/1/65
f 98/1/66 99/1/66 22/1/66
f 99/1/67 21/1/67 1/1/67
f 100/1/68 2/1/68 22/1/68
f 97/1/69 100/1/69 1/1/69
f 100/1/70 97/1/70 8/1/70
f 102/1/71 101/1/71 9/1/71
f 101/1/72 102/1/72 16/1/72
f 103/1/73 102/1/73 15/1/73
f 102/1/74 103/1/74 18/1/74
f 104/1/75 103/1/75 17/1/75
f 103/1/76 104/1/76 20/1/76
f 104/1/77 19/1/77 9/1/77
f 101/1/78 10/1/78 20/1/78
f 106/1/79 105/1/79 43/1/79
f 105/1/80 106/1/80 42/1/80
f 106/1/81 41/1/81 13/1/82
f 107/1/83 14/1/83 42/1/83
f 108/1/84 107/1/84 13/1/84
f 107/1/85 108/1/85 12/1/85
f 105/1/86 108/1/86 11/1/86
f 108/1/87 105/1/87 44/1/87
f 109/1/88 23/1/88 27/1/88
f 110/1/89 28/1/89 24/1/89
f 111/1/36 110/1/36 27/1/36
f 110/1/35 111/1/35 26/1/35
f 112/1/90 111/1/90 25/1/91
f 111/1/92 112/1/92 22/1/92
f 109/1/40 112/1/40 21/1/40
f 112/1/39 109/1/39 24/1/39
f 113/1/93 47/1/93 5/1/93
f 114/1/94 6/1/94 48/1/94
f 115/1/95 114/1/95 5/1/95
f 114/1/96 115/1/96 4/1/96
f 116/1/97 115/1/97 3/1/97
f 115/1/98 116/1/98 46/1/98
f 113/1/66 116/1/66 45/1/66
f 116/1/65 113/1/65 48/1/65
f 117/1/99 55/1/99 59/1/99
f 118/1/100 60/1/100 56/1/100
f 119/1/50 118/1/50 59/1/50
f 118/1/49 119/1/49 58/1/49
f 120/1/101 119/1/101 57/1/101
f 119/1/102 120/1/102 54/1/102
f 117/1/103 120/1/103 53/1/103
f 120/1/104 117/1/104 56/1/104
f 122/1/105 121/1/105 41/1/105
f 121/1/106 122/1/106 44/1/106
f 123/1/107 122/1/107 43/1/107
f 122/1/108 123/1/108 38/1/108
f 124/1/109 123/1/109 37/1/109
f 123/1/110 124/1/110 40/1/110
f 124/1/111 39/1/111 41/1/111
f 121/1/112 42/1/112 40/1/112
f 126/1/113 125/1/113 13/1/113
f 125/1/114 126/1/114 42/1/114
f 127/1/115 126/1/115 41/1/115
f 126/1/116 127/1/116 18/1/116
f 127/1/117 17/1/117 15/1/117
f 128/1/118 16/1/118 18/1/118
f 128/1/119 15/1/119 13/1/119
f 128/1/120 125/1/120 14/1/120
f 130/1/121 129/1/121 23/1/121
f 130/1/122 8/1/122 24/1/122
f 131/1/123 130/1/123 7/1/123
f 131/1/124 6/1/124 8/1/124
f 131/1/125 5/1/125 47/1/125
f 131/1/126 132/1/126 48/1/126
f 132/1/127 47/1/127 49/1/127
f 132/1/128 133/1/128 50/1/128
f 134/1/129 133/1/129 49/1/129
f 133/1/130 134/1/130 54/1/130
f 135/1/131 134/1/131 53/1/131
f 135/1/132 58/1/132 54/1/132
f 136/1/133 135/1/133 57/1/133
f 136/1/134 62/1/135 58/1/134
f 136/1/136 61/1/136 39/1/137
f 136/1/138 137/1/138 40/1/138
f 137/1/139 39/1/139 35/1/139
f 137/1/140 138/1/140 36/1/140
f 139/1/141 138/1/141 35/1/142
f 139/1/143 32/1/143 36/1/143
f 140/1/144 139/1/144 31/1/144
f 140/1/145 28/1/145 32/1/145
f 140/1/146 27/1/146 23/1/146
f 140/1/147 129/1/147 24/1/147
f 142/1/148 141/1/148 11/1/148
f 142/1/149 10/1/149 12/1/149
f 143/1/150 142/1/151 9/1/151
f 142/1/152 143/1/152 20/1/152
f 143/1/153 19/1/153 43/1/153
f 144/1/154 44/1/154 20/1/154
f 144/1/155 43/1/155 11/1/155
f 141/1/156 12/1/156 44/1/156
f 146/1/157 145/1/157 45/1/157
f 146/1/158 4/1/158 46/1/158
f 146/1/159 3/1/159 1/1/159
f 146/1/160 147/1/160 2/1/160
f 147/1/161 1/1/161 21/1/161
f 147/1/162 148/1/162 22/1/162
f 149/1/163 148/1/163 21/1/163
f 149/1/164 26/1/165 22/1/164
f 149/1/166 25/1/166 29/1/166
f 149/1/167 150/1/167 30/1/167
f 150/1/168 29/1/168 33/1/168
f 150/1/169 151/1/169 34/1/169
f 152/1/170 151/1/170 33/1/170
f 152/1/171 38/1/171 34/1/171
f 153/1/172 152/1/172 37/1/172
f 153/1/173 64/1/173 38/1/173
f 153/1/174 63/1/174 59/1/174
f 153/1/175 154/1/175 60/1/175
f 154/1/176 59/1/176 55/1/176
f 154/1/177 155/1/177 56/1/177
f 156/1/178 155/1/178 55/1/178
f 155/1/179 156/1/179 52/1/179
f 145/1/180 156/1/180 51/1/180
f 145/1/181 46/1/181 52/1/181
f 158/1/182 157/1/182 19/1/182
f 157/1/183 158/1/183 18/1/183
f 159/1/184 158/1/184 17/1/184
f 158/1/185 159/1/185 62/1/185
f 160/1/186 159/1/186 61/1/186
f 159/1/187 160/1/187 64/1/187
f 160/1/188 63/1/188 19/1/188
f 157/1/189 20/1/189 64/1/189
f 162/1/190 161/1/190 61/1/190
f 162/1/191 18/1/191 62/1/191
f 162/1/192 17/1/192 41/1/192
f 162/1/193 163/1/193 42/1/193
f 163/1/194 41/1/194 39/1/195
f 163/1/196 164/1/196 40/1/196
f 164/1/197 39/1/197 61/1/198
f 164/1/199 161/1/199 62/1/199
f 166/1/200 165/1/200 59/1/200
f 165/1/201 166/1/201 64/1/201
f 167/1/202 166/1/202 63/1/202
f 166/1/203 167/1/203 62/1/203
f 167/1/204 61/1/204 57/1/204
f 168/1/205 58/1/205 62/1/205
f 165/1/16 168/1/16 57/1/16
f 165/1/15 60/1/15 58/1/15
f 66/1/206 27/1/206 31/1/206
f 65/1/2 32/1/2 28/1/2
f 67/1/3 31/1/3 29/1/3
f 67/1/4 32/1/4 66/1/4
f 68/1/207 29/1/207 25/1/207
f 68/1/6 30/1/6 67/1/6
f 65/1/45 25/1/45 27/1/45
f 65/1/8 26/1/8 68/1/8
f 70/1/208 35/1/208 39/1/208
f 69/1/10 40/1/10 36/1/10
f 71/1/11 39/1/11 37/1/11
f 70/1/12 38/1/12 40/1/12
f 71/1/13 33/1/13 72/1/13
f 72/1/14 38/1/14 71/1/14
f 72/1/15 35/1/15 69/1/15
f 72/1/16 36/1/16 34/1/16
f 74/1/209 5/1/210 7/1/209
f 73/1/211 8/1/212 6/1/211
f 75/1/213 7/1/213 1/1/213
f 74/1/20 2/1/20 8/1/20
f 75/1/21 3/1/21 76/1/21
f 76/1/214 2/1/214 75/1/214
f 73/1/23 3/1/23 5/1/23
f 76/1/24 6/1/24 4/1/24
f 77/1/215 15/1/215 78/1/215
f 78/1/216 14/1/216 77/1/216
f 78/1/27 9/1/27 79/1/27
f 78/1/28 10/1/28 16/1/28
f 80/1/217 9/1/217 11/1/217
f 79/1/218 12/1/218 10/1/218
f 77/1/219 11/1/219 13/1/219
f 80/1/32 14/1/32 12/1/32
f 82/1/220 45/1/220 51/1/220
f 81/1/34 52/1/34 46/1/34
f 83/1/35 51/1/35 49/1/35
f 82/1/36 50/1/36 52/1/36
f 83/1/221 47/1/221 84/1/221
f 84/1/38 50/1/38 83/1/38
f 81/1/222 47/1/222 45/1/222
f 84/1/40 46/1/40 48/1/40
f 86/1/223 51/1/223 55/1/223
f 85/1/42 56/1/42 52/1/42
f 87/1/4 55/1/4 53/1/4
f 86/1/3 54/1/3 56/1/3
f 88/1/43 53/1/43 49/1/43
f 87/1/44 50/1/44 54/1/44
f 85/1/8 49/1/8 51/1/8
f 88/1/45 52/1/45 50/1/45
f 90/1/224 31/1/224 35/1/224
f 89/1/48 36/1/48 32/1/48
f 91/1/49 35/1/49 33/1/49
f 90/1/225 34/1/225 36/1/225
f 91/1/226 29/1/226 92/1/226
f 92/1/52 34/1/227 91/1/52
f 89/1/104 29/1/104 31/1/104
f 89/1/54 30/1/54 92/1/54
f 94/1/55 43/1/55 19/1/55
f 94/1/228 44/1/228 93/1/228
f 94/1/57 63/1/57 95/1/57
f 94/1/58 64/1/58 20/1/58
f 96/1/229 63/1/229 37/1/59
f 96/1/60 64/1/60 95/1/60
f 93/1/230 37/1/231 43/1/231
f 93/1/62 38/1/62 96/1/62
f 98/1/63 7/1/63 23/1/63
f 97/1/64 24/1/64 8/1/64
f 98/1/65 21/1/65 99/1/65
f 98/1/66 22/1/66 24/1/66
f 99/1/67 1/1/67 100/1/67
f 100/1/68 22/1/68 99/1/68
f 97/1/69 1/1/69 7/1/69
f 100/1/232 8/1/232 2/1/232
f 102/1/71 9/1/71 15/1/71
f 101/1/72 16/1/72 10/1/72
f 103/1/73 15/1/73 17/1/73
f 102/1/74 18/1/74 16/1/74
f 104/1/75 17/1/75 19/1/75
f 103/1/76 20/1/76 18/1/76
f 104/1/77 9/1/77 101/1/77
f 101/1/78 20/1/78 104/1/78
f 106/1/233 43/1/233 41/1/233
f 105/1/234 42/1/234 44/1/234
f 106/1/235 13/1/235 107/1/235
f 107/1/236 42/1/236 106/1/236
f 108/1/84 13/1/84 11/1/84
f 107/1/85 12/1/85 14/1/85
f 105/1/237 11/1/237 43/1/238
f 108/1/239 44/1/239 12/1/239
f 109/1/88 27/1/88 110/1/88
f 110/1/240 24/1/241 109/1/240
f 111/1/36 27/1/36 25/1/36
f 110/1/35 26/1/35 28/1/35
f 112/1/242 25/1/90 21/1/90
f 111/1/243 22/1/243 26/1/243
f 109/1/40 21/1/40 23/1/40
f 112/1/222 24/1/222 22/1/222
f 113/1/244 5/1/244 114/1/244
f 114/1/94 48/1/94 113/1/94
f 115/1/95 5/1/95 3/1/95
f 114/1/245 4/1/245 6/1/245
f 116/1/246 3/1/246 45/1/246
f 115/1/98 46/1/98 4/1/98
f 113/1/66 45/1/66 47/1/66
f 116/1/65 48/1/65 46/1/65
f 117/1/99 59/1/99 118/1/99
f 118/1/247 56/1/247 117/1/247
f 119/1/225 59/1/225 57/1/225
f 118/1/49 58/1/49 60/1/49
f 120/1/101 57/1/101 53/1/101
f 119/1/248 54/1/102 58/1/102
f 117/1/103 53/1/103 55/1/103
f 120/1/104 56/1/104 54/1/104
f 122/1/105 41/1/105 43/1/105
f 121/1/106 44/1/106 42/1/106
f 123/1/249 43/1/249 37/1/249
f 122/1/108 38/1/108 44/1/108
f 124/1/109 37/1/109 39/1/109
f 123/1/110 40/1/110 38/1/110
f 124/1/250 41/1/250 121/1/250
f 121/1/112 40/1/112 124/1/112
f 126/1/251 13/1/251 41/1/251
f 125/1/252 42/1/252 14/1/252
f 127/1/115 41/1/115 17/1/115
f 126/1/116 18/1/116 42/1/116
f 127/1/253 15/1/253 128/1/254
f 128/1/255 18/1/255 127/1/255
f 128/1/256 13/1/256 125/1/256
f 128/1/120 14/1/120 16/1/120
f 130/1/257 23/1/257 7/1/257
f 130/1/122 24/1/122 129/1/122
f 131/1/258 7/1/258 5/1/258
f 131/1/259 8/1/259 130/1/259
f 131/1/260 47/1/261 132/1/261
f 131/1/126 48/1/126 6/1/126
f 132/1/262 49/1/262 133/1/262
f 132/1/128 50/1/128 48/1/128
f 134/1/129 49/1/129 53/1/129
f 133/1/130 54/1/130 50/1/130
f 135/1/263 53/1/263 57/1/263
f 135/1/264 54/1/264 134/1/264
f 136/1/265 57/1/265 61/1/265
f 136/1/266 58/1/266 135/1/266
f 136/1/137 39/1/137 137/1/137
f 136/1/138 40/1/138 62/1/138
f 137/1/267 35/1/267 138/1/267
f 137/1/140 36/1/140 40/1/140
f 139/1/142 35/1/142 31/1/142
f 139/1/143 36/1/143 138/1/143
f 140/1/144 31/1/144 27/1/144
f 140/1/145 32/1/145 139/1/145
f 140/1/268 23/1/268 129/1/268
f 140/1/147 24/1/269 28/1/269
f 142/1/270 11/1/270 9/1/270
f 142/1/149 12/1/149 141/1/149
f 143/1/271 9/1/271 19/1/271
f 142/1/272 20/1/272 10/1/272
f 143/1/153 43/1/153 144/1/153
f 144/1/154 20/1/154 143/1/154
f 144/1/273 11/1/273 141/1/273
f 141/1/156 44/1/156 144/1/156
f 146/1/274 45/1/274 3/1/274
f 146/1/158 46/1/158 145/1/158
f 146/1/275 1/1/275 147/1/275
f 146/1/276 2/1/276 4/1/276
f 147/1/277 21/1/277 148/1/277
f 147/1/162 22/1/162 2/1/162
f 149/1/278 21/1/278 25/1/278
f 149/1/164 22/1/164 148/1/164
f 149/1/166 29/1/166 150/1/166
f 149/1/167 30/1/167 26/1/167
f 150/1/168 33/1/168 151/1/168
f 150/1/169 34/1/169 30/1/279
f 152/1/280 33/1/280 37/1/280
f 152/1/171 34/1/171 151/1/171
f 153/1/281 37/1/281 63/1/282
f 153/1/173 38/1/173 152/1/173
f 153/1/283 59/1/284 154/1/284
f 153/1/285 60/1/286 64/1/286
f 154/1/287 55/1/287 155/1/287
f 154/1/288 56/1/288 60/1/288
f 156/1/178 55/1/178 51/1/178
f 155/1/179 52/1/179 56/1/179
f 145/1/289 51/1/289 45/1/289
f 145/1/181 52/1/181 156/1/181
f 158/1/182 19/1/182 17/1/182
f 157/1/183 18/1/183 20/1/183
f 159/1/184 17/1/184 61/1/184
f 158/1/290 62/1/290 18/1/290
f 160/1/186 61/1/186 63/1/186
f 159/1/291 64/1/291 62/1/291
f 160/1/188 19/1/188 157/1/188
f 157/1/292 64/1/292 160/1/292
f 162/1/190 61/1/190 17/1/190
f 162/1/293 62/1/293 161/1/293
f 162/1/192 41/1/192 163/1/192
f 162/1/294 42/1/294 18/1/294
f 163/1/295 39/1/295 164/1/295
f 163/1/196 40/1/196 42/1/196
f 164/1/198 61/1/198 161/1/198
f 164/1/199 62/1/199 40/1/199
f 166/1/296 59/1/296 63/1/296
f 165/1/201 64/1/201 60/1/201
f 167/1/202 63/1/202 61/1/202
f 166/1/203 62/1/203 64/1/203
f 167/1/297 57/1/297 168/1/297
f 168/1/205 62/1/205 167/1/205
f 165/1/16 57/1/16 59/1/16
f 165/1/15 58/1/15 168/1/15
