# Blender 5.2.0 LTS
# www.blender.org
mtllib glass shotgun body.mtl
o RenderMesh_13158844590
v 1.288721 0.222160 0.035246
v 1.289921 0.223291 0.034115
v 1.288721 0.257406 0.049845
v 1.290283 0.257406 0.048596
v 1.288721 0.257406 0.079400
v 1.289921 0.257406 0.081000
v 1.288721 0.292652 0.035246
v 1.289921 0.291521 0.034115
v 1.288721 0.201262 0.056144
v 1.289921 0.200131 0.057275
v 1.288721 0.313550 0.056144
v 1.289921 0.314681 0.057275
v 1.288721 0.207560 -0.000000
v 1.289921 0.209160 -0.000000
v 1.288721 0.307252 -0.000000
v 1.289921 0.305652 -0.000000
v 1.288721 0.178006 -0.000000
v 1.289921 0.176406 -0.000000
v 1.288721 0.336806 -0.000000
v 1.289921 0.338406 -0.000000
v 1.288721 0.201262 -0.056145
v 1.289921 0.200131 -0.057276
v 1.288721 0.313550 -0.056145
v 1.289921 0.314681 -0.057276
v 1.288721 0.222160 -0.035247
v 1.289921 0.223291 -0.034116
v 1.288721 0.292652 -0.035247
v 1.289921 0.291521 -0.034116
v 1.288721 0.257406 -0.079400
v 1.289921 0.257406 -0.081000
v 1.288721 0.257406 -0.049846
v 1.290283 0.257406 -0.048597
v 1.163341 0.292652 -0.035247
v 1.164602 0.291554 -0.034149
v 1.163341 0.307252 -0.000000
v 1.164602 0.305699 -0.000000
v 1.163341 0.257406 -0.049846
v 1.164602 0.257406 -0.048293
v 1.163341 0.292652 0.035246
v 1.164602 0.291554 0.034148
v 1.163341 0.257406 0.049845
v 1.164602 0.257406 0.048292
v 1.163341 0.222159 -0.035247
v 1.164602 0.223257 -0.034149
v 1.163341 0.207560 -0.000000
v 1.164602 0.209113 -0.000000
v 1.163341 0.222159 0.035246
v 1.164602 0.223257 0.034148
v 1.173466 0.159410 0.047340
v 1.174666 0.160541 0.048471
v 1.173466 0.064730 -0.047340
v 1.174666 0.063599 -0.048471
v 1.173466 0.159410 -0.047340
v 1.174666 0.160541 -0.048471
v 1.173466 0.112070 -0.066949
v 1.174666 0.112070 -0.068549
v 1.173466 0.179019 -0.000000
v 1.174666 0.180619 -0.000000
v 1.173466 0.064730 0.047340
v 1.174666 0.063599 0.048471
v 1.173466 0.045121 -0.000000
v 1.174666 0.043521 -0.000000
v 1.173466 0.112070 0.066949
v 1.174666 0.112070 0.068549
v -0.530310 0.193155 -0.061622
v -0.531707 0.193374 -0.063036
v -0.530310 0.193155 0.061622
v -0.531707 0.193374 0.063036
v -0.606371 -0.293101 -0.061622
v -0.607690 -0.294063 -0.062777
v -0.606371 -0.293101 0.061622
v -0.607690 -0.294063 0.062777
v -0.598822 0.177664 -0.094524
v -0.600266 0.178196 -0.095802
v -0.443459 0.338469 0.080589
v -0.444060 0.339958 0.081781
v -0.443459 0.338469 -0.080589
v -0.444060 0.339958 -0.081781
v -0.598822 0.177664 0.094524
v -0.600266 0.178196 0.095802
v -0.598822 0.063552 0.074019
v -0.600274 0.062721 0.075116
v -0.598822 0.063552 -0.074019
v -0.600274 0.062721 -0.075116
v -0.569508 0.038028 0.068407
v -0.570035 0.036445 0.069510
v -0.569508 0.038028 -0.068407
v -0.570035 0.036445 -0.069510
v -0.289665 -0.342640 -0.061622
v -0.288703 -0.343959 -0.062777
v -0.289665 -0.342640 0.061622
v -0.288703 -0.343959 0.062777
v 0.301759 0.338469 0.080589
v 0.302923 0.339668 0.081688
v 0.301759 0.338469 -0.080589
v 0.302923 0.339668 -0.081688
v -1.282582 0.198041 -0.070272
v -1.282810 0.199335 -0.071780
v -0.659967 0.307824 -0.070272
v -0.658964 0.309066 -0.071477
v -0.645147 0.223771 -0.099380
v -0.643876 0.224243 -0.100850
v -0.666106 0.342640 -0.000000
v -0.665257 0.344451 -0.000000
v -1.288721 0.232856 -0.000000
v -1.289068 0.234826 -0.000000
v -1.282582 0.198041 0.070272
v -1.282810 0.199335 0.071780
v -0.659967 0.307824 0.070272
v -0.658964 0.309066 0.071477
v -0.645147 0.223771 0.099380
v -0.643876 0.224243 0.100850
v -1.267761 0.113988 0.099380
v -1.267818 0.114310 0.101353
v -1.267761 0.113988 -0.099380
v -1.267818 0.114310 -0.101353
v -0.749904 0.037977 0.099380
v -0.748338 0.037551 0.100548
v -0.635949 0.171611 0.099380
v -0.634383 0.171185 0.100548
v -0.916214 -0.103694 0.099380
v -0.915752 -0.105100 0.100725
v -0.730692 -0.070981 0.099380
v -0.729354 -0.071918 0.100535
v -1.088785 -0.189236 0.099380
v -1.088323 -0.190642 0.100725
v -1.210510 -0.210700 0.099380
v -1.210264 -0.212093 0.100794
v -0.749904 0.037977 -0.099380
v -0.748338 0.037551 -0.100548
v -0.635949 0.171611 -0.099380
v -0.634383 0.171185 -0.100548
v -0.916214 -0.103694 -0.099380
v -0.915752 -0.105100 -0.100725
v -0.730692 -0.070981 -0.099380
v -0.729354 -0.071918 -0.100535
v -1.088785 -0.189236 -0.099380
v -1.088323 -0.190642 -0.100725
v -1.210510 -0.210700 -0.099380
v -1.210264 -0.212093 -0.100794
v 0.301759 0.177664 -0.094524
v 0.303110 0.177638 -0.095999
v 0.301759 0.177664 0.094524
v 0.303110 0.177638 0.095999
v 0.301759 0.063552 -0.074019
v 0.303181 0.062556 -0.075013
v 0.301759 0.063552 0.074019
v 0.303181 0.062556 0.075013
v 0.250948 0.038028 -0.068407
v 0.251279 0.036425 -0.069556
v 0.250948 0.038028 0.068407
v 0.251279 0.036425 0.069556
v -0.141568 0.291246 0.084681
v -0.140337 0.290180 0.085843
v -0.141568 0.177664 0.094524
v -0.140203 0.177638 0.095986
v 0.154930 0.291246 0.084681
v 0.153699 0.290180 0.085843
v -0.141568 0.156991 0.092000
v -0.140307 0.158020 0.093162
v 0.154930 0.177664 0.094524
v 0.153565 0.177638 0.095986
v 0.154930 0.156991 0.092000
v 0.153669 0.158020 0.093162
v -0.240957 0.147893 -0.061622
v -0.239560 0.147674 -0.063036
v -0.302168 -0.243432 -0.061622
v -0.300619 -0.243133 -0.062852
v -0.279975 -0.280694 -0.061622
v -0.278426 -0.280395 -0.062852
v -0.240957 0.147893 0.061622
v -0.239560 0.147674 0.063036
v -0.302168 -0.243432 0.061622
v -0.300619 -0.243133 0.062852
v -0.279975 -0.280694 0.061622
v -0.278426 -0.280395 0.062852
v 0.154930 0.156991 -0.050121
v 0.153775 0.158146 -0.048966
v -0.141568 0.156991 -0.050121
v -0.140413 0.158146 -0.048966
v 0.193450 0.112070 -0.066949
v 0.193450 0.112070 -0.068949
v 0.193450 0.159410 -0.047340
v 0.193450 0.160824 -0.048754
v 0.193450 0.064730 -0.047340
v 0.193450 0.063316 -0.048754
v 0.193450 0.179019 -0.000000
v 0.193450 0.181019 -0.000000
v 0.193450 0.045121 -0.000000
v 0.193450 0.043121 -0.000000
v 0.193450 0.159410 0.047340
v 0.193450 0.160824 0.048754
v 0.193450 0.064730 0.047340
v 0.193450 0.063316 0.048754
v 0.193450 0.112070 0.066949
v 0.193450 0.112070 0.068949
v 0.154930 0.291246 -0.050121
v 0.153775 0.290091 -0.048966
v -0.141568 0.291246 -0.050121
v -0.140413 0.290091 -0.048966
v 0.249463 0.257406 -0.079400
v 0.249463 0.257406 -0.081400
v 0.249463 0.201262 -0.056144
v 0.249463 0.199848 -0.057558
v 0.249463 0.313550 -0.056144
v 0.249463 0.314964 -0.057558
v 0.249463 0.178006 -0.000000
v 0.249463 0.176006 -0.000000
v 0.249463 0.336806 -0.000000
v 0.249463 0.338806 -0.000000
v 0.249463 0.201262 0.056144
v 0.249463 0.199848 0.057558
v 0.249463 0.313550 0.056144
v 0.249463 0.314964 0.057558
v 0.249463 0.257406 0.079400
v 0.249463 0.257406 0.081400
v -0.659343 0.307746 0.070060
v -0.644482 0.223844 0.099115
v -0.635340 0.172383 0.098964
v -0.635340 0.172383 -0.098964
v -0.644482 0.223844 -0.099115
v -0.659343 0.307746 -0.070060
v -0.665487 0.342443 -0.000000
v 1.289321 0.221960 0.035446
v 1.289502 0.256406 0.049888
v 1.289321 0.256406 0.078703
v 1.289321 0.201462 0.055944
v 1.289321 0.178288 -0.000000
v 1.289321 0.201462 -0.055945
v 1.289321 0.256406 -0.078703
v 1.289502 0.256406 -0.049890
v 1.289321 0.221960 -0.035447
v 1.289321 0.207278 -0.000000
v -0.139991 0.158568 -0.049544
v 0.153353 0.158568 -0.049544
v 0.153353 0.289669 -0.049544
v -0.139991 0.289669 -0.049544
v -0.568771 0.037237 -0.067959
v 0.250113 0.037226 -0.067981
v 0.250113 0.037226 0.067981
v -0.568771 0.037237 0.067959
v 1.164971 0.258330 -0.048687
v 1.288502 0.258330 -0.048839
v 1.288321 0.291162 -0.035064
v 1.164971 0.291179 -0.035081
v 1.164971 0.208719 0.000924
v 1.164971 0.222325 0.033773
v 1.288321 0.222343 0.033756
v 1.288321 0.208743 0.000924
v 1.164971 0.223632 -0.035081
v 1.288321 0.223650 -0.035064
v 1.288502 0.256482 -0.048839
v 1.164971 0.256482 -0.048687
v -0.140991 0.289669 -0.048544
v -0.140953 0.289713 0.084345
v -0.140886 0.177669 0.094249
v -0.140937 0.158505 0.091696
v -0.140991 0.158568 -0.048544
v 1.164971 0.222325 -0.033774
v 1.164971 0.208719 -0.000924
v 1.288321 0.208743 -0.000924
v 1.288321 0.222343 -0.033757
v 1.163971 0.257406 -0.047987
v 1.163971 0.291338 -0.033933
v 1.163971 0.305393 -0.000000
v 1.163971 0.291338 0.033932
v 1.163971 0.257406 0.047986
v 1.163971 0.223473 0.033932
v 1.163971 0.209419 -0.000000
v 1.163971 0.223473 -0.033933
v -0.748472 0.038525 -0.098964
v -0.635815 0.170637 -0.098964
v -0.635815 0.170637 0.098964
v -0.748472 0.038525 0.098964
v 0.154247 0.177669 0.094249
v 0.154315 0.289713 0.084345
v 0.154353 0.289669 -0.048544
v 0.154353 0.158568 -0.048544
v 0.154299 0.158505 0.091696
v 1.288321 0.200314 0.055786
v 0.250463 0.200172 0.055927
v 0.250463 0.177389 0.000924
v 1.288321 0.177589 0.000924
v 0.194450 0.160500 0.047123
v 1.173066 0.160358 0.046982
v 1.173066 0.179436 0.000924
v 0.194450 0.179636 0.000924
v 1.288321 0.306069 -0.000924
v 1.164971 0.306093 -0.000924
v 1.164971 0.292486 -0.033774
v 1.288321 0.292469 -0.033757
v 0.194450 0.179636 -0.000924
v 1.173066 0.179436 -0.000924
v 1.173066 0.160358 -0.046982
v 0.194450 0.160500 -0.047123
v -1.281547 0.197929 0.071349
v -1.266969 0.115255 0.100044
v -0.645660 0.224765 0.099792
v -0.660286 0.307339 0.071197
v -1.281789 0.199304 -0.070133
v -1.287832 0.233572 -0.000893
v -0.666588 0.342929 -0.000893
v -0.660529 0.308714 -0.069981
v -1.281789 0.199304 0.070133
v -0.660529 0.308714 0.069981
v -0.666588 0.342929 0.000893
v -1.287832 0.233572 0.000893
v -0.750187 0.038054 0.099964
v -0.636232 0.171688 0.099964
v -0.645322 0.222848 0.100115
v -1.266631 0.113338 0.100367
v -1.209576 -0.210238 0.100087
v -1.088869 -0.188979 0.100053
v -0.916298 -0.103437 0.100053
v -0.731182 -0.070638 0.099957
v 1.174066 0.064930 0.047140
v 1.174066 0.045403 -0.000000
v 1.174066 0.064930 -0.047140
v 1.174066 0.112070 -0.066667
v 1.174066 0.159210 -0.047140
v 1.174066 0.178737 -0.000000
v 1.174066 0.159210 0.047140
v 1.174066 0.112070 0.066667
v 0.155315 0.291709 0.085176
v 0.155247 0.178647 0.095168
v 0.301434 0.178647 0.095175
v 0.301341 0.338072 0.081225
v -0.443334 0.338217 0.081271
v -0.597193 0.178926 0.095076
v -0.141886 0.178647 0.095168
v -0.141953 0.291709 0.085176
v 0.301576 0.062605 0.073412
v 0.252007 0.037675 0.068075
v 0.252007 0.037675 -0.068075
v 0.301576 0.062605 -0.073412
v 0.302434 0.177697 0.094254
v 0.302470 0.064054 0.073679
v 0.302470 0.064054 -0.073679
v 0.302434 0.177697 -0.094254
v 0.302341 0.338068 -0.080222
v 0.302341 0.338068 0.080222
v 0.194450 0.112994 0.067566
v 1.173066 0.112994 0.067366
v 1.173066 0.159052 0.048288
v 0.194450 0.159193 0.048430
v 0.301434 0.178647 -0.095175
v -0.597193 0.178926 -0.095076
v -0.443334 0.338217 -0.081272
v 0.301341 0.338072 -0.081225
v -0.290172 -0.343145 0.061199
v -0.606043 -0.293737 0.061199
v -0.606043 -0.293737 -0.061199
v -0.290172 -0.343145 -0.061199
v 0.301434 0.176667 0.095084
v 0.155247 0.176659 0.095134
v 0.155299 0.156513 0.092460
v -0.141937 0.156513 0.092460
v -0.141886 0.176659 0.095134
v -0.598544 0.176946 0.094986
v -0.598548 0.063584 0.074613
v -0.569390 0.038213 0.069173
v 0.250871 0.038203 0.069196
v 0.301470 0.063658 0.074604
v -0.598849 0.178649 -0.094099
v -0.598849 0.178649 0.094098
v -0.444455 0.338494 0.080246
v -0.444455 0.338494 -0.080246
v -0.598794 0.062480 -0.073413
v -0.570526 0.037893 -0.068093
v -0.570526 0.037893 0.068093
v -0.598794 0.062480 0.073413
v -0.280244 -0.280746 0.062237
v -0.302437 -0.243484 0.062237
v -0.241401 0.146950 0.062329
v -0.530175 0.192122 0.062329
v -0.605888 -0.292749 0.062199
v -0.290017 -0.342157 0.062199
v 0.250463 0.314640 -0.055927
v 0.250463 0.337423 -0.000924
v 1.288321 0.337223 -0.000924
v 1.288321 0.314498 -0.055787
v 1.289321 0.292852 0.035446
v 1.289321 0.307534 -0.000000
v 1.289321 0.292852 -0.035447
v 1.289502 0.258406 -0.049890
v 1.289321 0.258406 -0.078703
v 1.289321 0.313350 -0.055945
v 1.289321 0.336524 -0.000000
v 1.289321 0.313350 0.055944
v 1.289321 0.258406 0.078703
v 1.289502 0.258406 0.049888
v 0.250463 0.313333 -0.057234
v 1.288321 0.313192 -0.057093
v 1.288321 0.258330 -0.079817
v 0.250463 0.258330 -0.080017
v 0.194450 0.159193 -0.048430
v 1.173066 0.159052 -0.048288
v 1.173066 0.112994 -0.067366
v 0.194450 0.112994 -0.067566
v 1.173066 0.044704 -0.000924
v 0.194450 0.044504 -0.000924
v 0.194450 0.063640 -0.047123
v 1.173066 0.063782 -0.046982
v 1.288321 0.292469 0.033756
v 1.164971 0.292486 0.033773
v 1.164971 0.306093 0.000924
v 1.288321 0.306069 0.000924
v 1.173066 0.065088 -0.048288
v 0.194450 0.064947 -0.048430
v 0.194450 0.111146 -0.067566
v 1.173066 0.111146 -0.067366
v -0.139937 0.157505 0.091581
v 0.153299 0.157505 0.091581
v 0.153353 0.157568 -0.048544
v -0.139991 0.157568 -0.048544
v 1.173066 0.063782 0.046982
v 0.194450 0.063640 0.047123
v 0.194450 0.044504 0.000924
v 1.173066 0.044704 0.000924
v 0.153315 0.290713 0.084262
v -0.139953 0.290713 0.084262
v -0.139991 0.290669 -0.048544
v 0.153353 0.290669 -0.048544
v 1.173066 0.111146 0.067366
v 0.194450 0.111146 0.067566
v 0.194450 0.064947 0.048430
v 1.173066 0.065088 0.048288
v -0.599544 0.176930 -0.093967
v -0.599548 0.064137 -0.073731
v -0.599548 0.064137 0.073731
v -0.599544 0.176930 0.093967
v -1.266631 0.113338 -0.100367
v -0.645322 0.222848 -0.100115
v -0.636232 0.171688 -0.099964
v -0.750187 0.038054 -0.099964
v -0.731182 -0.070638 -0.099957
v -0.916298 -0.103437 -0.100053
v -1.088869 -0.188979 -0.100053
v -1.209576 -0.210238 -0.100087
v 1.288502 0.258330 0.048838
v 1.164971 0.258330 0.048686
v 1.164971 0.291179 0.035080
v 1.288321 0.291162 0.035063
v -1.209402 -0.211223 -0.099087
v -1.089539 -0.190113 -0.099053
v -1.089539 -0.190113 0.099053
v -1.209402 -0.211223 0.099087
v -1.087658 -0.189495 -0.099053
v -0.916879 -0.104841 -0.099053
v -0.916879 -0.104841 0.099053
v -1.087658 -0.189495 0.099053
v -0.302437 -0.243484 -0.062237
v -0.280244 -0.280746 -0.062237
v -0.290017 -0.342157 -0.062199
v -0.605888 -0.292749 -0.062199
v -0.530175 0.192122 -0.062329
v -0.241401 0.146950 -0.062329
v -0.731008 -0.071623 -0.098957
v -0.731008 -0.071623 0.098957
v -0.914998 -0.104223 0.099053
v -0.914998 -0.104223 -0.099053
v -0.289029 -0.342312 0.061199
v -0.289029 -0.342312 -0.061199
v -0.279355 -0.281532 -0.061237
v -0.279355 -0.281532 0.061237
v 0.250463 0.258330 0.080017
v 1.288321 0.258330 0.079817
v 1.288321 0.313192 0.057092
v 0.250463 0.313333 0.057234
v 1.288321 0.223650 0.035063
v 1.164971 0.223632 0.035080
v 1.164971 0.256482 0.048686
v 1.288502 0.256482 0.048838
v 1.288321 0.201620 -0.057093
v 0.250463 0.201479 -0.057234
v 0.250463 0.256482 -0.080017
v 1.288321 0.256482 -0.079817
v -0.645660 0.224765 -0.099792
v -1.266969 0.115255 -0.100044
v -1.281547 0.197929 -0.071349
v -0.660286 0.307339 -0.071197
v 1.288321 0.177589 -0.000924
v 0.250463 0.177389 -0.000924
v 0.250463 0.200172 -0.055927
v 1.288321 0.200314 -0.055787
v -0.279712 -0.279685 0.061237
v -0.279712 -0.279685 -0.061237
v -0.300882 -0.244141 -0.061237
v -0.300882 -0.244141 0.061237
v 0.301341 0.339068 -0.080139
v -0.442760 0.339213 -0.080185
v -0.442760 0.339213 0.080185
v 0.301341 0.339068 0.080139
v 1.288321 0.256482 0.079817
v 0.250463 0.256482 0.080017
v 0.250463 0.201479 0.057234
v 1.288321 0.201620 0.057092
v 0.250463 0.314640 0.055927
v 1.288321 0.314498 0.055786
v 1.288321 0.337223 0.000924
v 0.250463 0.337423 0.000924
v -0.531163 0.192276 0.061329
v -0.531163 0.192276 -0.061329
v -0.606876 -0.292594 -0.061199
v -0.606876 -0.292594 0.061199
v -0.240413 0.146796 0.061329
v -0.301239 -0.242294 0.061237
v -0.301239 -0.242294 -0.061237
v -0.240413 0.146796 -0.061329
v -0.730197 -0.070465 0.098957
v -0.730197 -0.070465 -0.098957
v -0.748947 0.036779 -0.098964
v -0.748947 0.036779 0.098964
v -0.598544 0.176946 -0.094986
v 0.301434 0.176667 -0.095084
v 0.301470 0.063658 -0.074604
v 0.250871 0.038203 -0.069196
v -0.569390 0.038213 -0.069173
v -0.598548 0.063584 -0.074613
vn 0.3251 0.3602 0.8744
vn -0.9441 -0.0550 0.3251
vn -0.9441 -0.0550 0.3250
vn 0.4310 0.0750 0.8992
vn 0.4310 0.0750 0.8993
vn -0.9070 -0.1634 0.3881
vn 0.7850 -0.6195 -0.0000
vn 0.7849 -0.6197 0.0004
vn -0.7813 -0.6241 -0.0000
vn -0.7813 -0.6242 -0.0000
vn 0.4310 0.0750 -0.8992
vn -0.9071 -0.1634 -0.3880
vn 0.3251 0.3603 -0.8743
vn 0.3251 0.3603 -0.8744
vn -0.9441 -0.0550 -0.3251
vn 0.2628 0.8735 -0.4097
vn -0.9824 0.1179 -0.1447
vn -0.9824 0.1180 -0.1448
vn 0.2629 0.8735 0.4097
vn -0.9824 0.1178 0.1447
vn 0.4443 0.3435 -0.8274
vn -0.9243 0.1545 -0.3491
vn -0.9243 0.1546 -0.3491
vn 0.8234 0.5674 0.0026
vn -0.8212 0.5706 -0.0073
vn 0.3988 -0.3510 0.8472
vn -0.9453 -0.1248 0.3013
vn 0.3987 -0.8473 0.3509
vn -0.9453 -0.3013 0.1248
vn 0.3988 -0.8472 -0.3510
vn -0.9453 -0.3013 -0.1248
vn 0.3988 -0.3509 -0.8473
vn -0.9453 -0.1248 -0.3013
vn 0.8233 0.5676 -0.0026
vn 0.8233 0.5676 -0.0025
vn -0.8211 0.5707 0.0073
vn 0.4442 0.3436 0.8274
vn -0.9243 0.1546 0.3490
vn 0.3987 0.8473 0.3509
vn -0.9453 0.3013 0.1248
vn 0.3986 0.8474 -0.3508
vn -0.9453 0.3014 -0.1248
vn -0.0000 -0.3437 0.9391
vn -0.0000 -0.8069 -0.5907
vn 0.3437 -0.0000 0.9391
vn 0.8069 -0.0000 -0.5907
vn -0.0000 0.3437 0.9391
vn -0.0000 0.8069 -0.5906
vn -0.3437 -0.0000 0.9391
vn -0.8069 -0.0000 -0.5907
vn -0.0000 -0.4810 -0.8767
vn -0.0000 0.8911 -0.4538
vn 0.6927 -0.7212 -0.0000
vn 0.5668 0.8238 -0.0000
vn -0.0000 -0.4810 0.8767
vn -0.0000 0.8910 0.4539
vn -0.7321 -0.6812 -0.0000
vn -0.5309 0.8474 -0.0000
vn 0.0004 -0.7610 0.6488
vn -0.0017 -0.3265 -0.9452
vn 0.9048 -0.1617 0.3938
vn 0.3630 0.3648 -0.8574
vn -0.0001 0.1171 0.9931
vn 0.0003 0.9316 -0.3634
vn -0.4027 -0.3503 0.8456
vn -0.8888 0.1754 -0.4234
vn -0.4027 0.8456 -0.3503
vn -0.8889 -0.4233 0.1754
vn -0.0001 0.9931 0.1171
vn 0.0003 -0.3634 0.9316
vn 0.8794 0.4399 -0.1822
vn 0.4194 -0.8387 0.3474
vn -0.0001 0.6195 -0.7850
vn 0.0003 -0.9157 -0.4018
vn -0.0001 -0.1172 0.9931
vn 0.0003 -0.9316 -0.3634
vn 0.9048 0.1618 0.3939
vn 0.3629 -0.3649 -0.8574
vn 0.0004 0.7610 0.6488
vn -0.0017 0.3265 -0.9452
vn -0.4027 0.3503 0.8457
vn -0.8888 -0.1754 -0.4233
vn 0.9337 0.3579 -0.0002
vn -0.5979 0.8015 -0.0001
vn 0.4963 0.0759 0.8648
vn 0.4963 0.0758 0.8648
vn -0.9291 0.0321 0.3684
vn -0.9291 0.0321 0.3685
vn 0.5045 -0.1098 0.8564
vn -0.9269 -0.0479 0.3724
vn 0.9315 -0.3639 -0.0003
vn -0.6009 -0.7993 -0.0002
vn 0.9391 -0.0000 -0.3437
vn -0.5907 -0.0000 -0.8069
vn -0.4027 0.8456 0.3503
vn -0.8889 -0.4233 -0.1754
vn -0.0001 0.6195 0.7850
vn 0.0003 -0.9157 0.4018
vn 0.8795 0.4397 0.1822
vn 0.4194 -0.8387 -0.3474
vn -0.0001 0.9931 -0.1171
vn 0.0003 -0.3634 -0.9316
vn 0.9388 0.1319 -0.3183
vn -0.4093 0.3492 -0.8430
vn 0.9388 0.3182 -0.1319
vn -0.4094 0.8429 -0.3492
vn 0.9388 0.3182 0.1319
vn -0.4092 0.8430 0.3491
vn 0.9388 0.1318 0.3183
vn -0.4093 0.3492 0.8430
vn 0.9388 -0.1318 0.3183
vn -0.4093 -0.3493 0.8429
vn 0.9388 -0.3184 0.1318
vn -0.4091 -0.8431 0.3490
vn 0.9388 -0.3184 -0.1318
vn -0.4094 -0.8429 -0.3492
vn 0.9388 -0.1318 -0.3183
vn -0.4093 -0.3492 -0.8430
vn 0.3750 -0.3198 -0.8701
vn 0.3750 -0.3197 -0.8701
vn -0.6903 0.5887 -0.4206
vn -0.6903 0.5887 -0.4205
vn 0.9906 0.1366 -0.0000
vn 0.9906 0.1367 0.0001
vn 0.9906 0.1367 -0.0000
vn -0.3575 0.9339 -0.0000
vn -0.3575 0.9339 0.0002
vn 0.3750 -0.3198 0.8701
vn -0.6904 0.5887 0.4205
vn 0.3568 -0.9342 -0.0000
vn 0.3570 -0.9341 -0.0005
vn -0.9906 -0.1365 -0.0000
vn -0.9906 -0.1366 -0.0000
vn -0.4962 0.0758 0.8649
vn -0.4962 0.0759 0.8649
vn 0.9291 0.0321 0.3685
vn -0.9337 0.3580 -0.0002
vn 0.5979 0.8016 -0.0001
vn -0.9391 -0.0000 -0.3437
vn 0.5907 -0.0000 -0.8069
vn -0.9315 -0.3638 -0.0003
vn 0.6008 -0.7994 -0.0002
vn -0.5046 -0.1098 0.8564
vn 0.9269 -0.0479 0.3723
vn 0.0001 -0.2715 0.9624
vn -0.0002 0.9870 0.1605
vn -0.6786 -0.6786 0.2811
vn -0.6786 0.6786 -0.2811
vn 0.0001 -0.8725 -0.4886
vn -0.0002 0.5844 -0.8114
vn 0.8794 -0.4399 0.1822
vn 0.4194 0.8387 -0.3474
vn 0.0001 0.2715 0.9624
vn -0.0002 -0.9870 0.1605
vn 0.8794 0.4398 0.1822
vn 0.4193 -0.8387 -0.3474
vn 0.0001 0.8725 -0.4885
vn -0.0002 -0.5844 -0.8115
vn -0.6786 0.6786 0.2811
vn -0.6786 -0.6786 -0.2811
vn -0.0001 -0.6195 0.7850
vn 0.0003 0.9157 0.4018
vn -0.4027 -0.8457 0.3503
vn -0.8888 0.4234 -0.1753
vn -0.0001 -0.9931 -0.1171
vn 0.0003 0.3635 -0.9316
vn 0.8794 -0.4398 0.1822
vn 0.0001 0.8725 0.4886
vn -0.0002 -0.5845 0.8114
vn 0.8794 0.4398 -0.1822
vn 0.4193 -0.8387 0.3474
vn 0.0001 0.2715 -0.9624
vn -0.0002 -0.9870 -0.1606
vn -0.7211 0.1100 0.6840
vn -0.7212 0.1100 0.6840
vn -0.6401 -0.3505 -0.6837
vn -0.6400 -0.3505 -0.6838
vn 0.0771 -0.4362 0.8965
vn 0.1432 -0.8148 -0.5618
vn 0.8573 0.2971 0.4205
vn 0.8572 0.2971 0.4206
vn 0.4559 -0.2179 -0.8630
vn -0.1635 0.9280 0.3348
vn -0.0394 0.2218 -0.9743
vn -0.7776 0.5338 -0.3323
vn -0.7775 0.5339 -0.3324
vn -0.5478 -0.7679 0.3321
vn -0.1543 0.8757 0.4575
vn 0.0952 -0.5411 0.8356
vn 0.7834 0.5815 -0.2194
vn 0.5544 -0.7254 0.4079
vn -0.0350 0.1994 -0.9793
vn -0.0350 0.1996 -0.9793
vn 0.1727 -0.9809 -0.0897
vn -0.0350 0.1994 0.9793
vn 0.1727 -0.9809 0.0896
vn 0.7834 0.5815 0.2194
vn 0.7835 0.5814 0.2194
vn 0.5544 -0.7254 -0.4079
vn 0.5543 -0.7255 -0.4079
vn -0.1543 0.8757 -0.4575
vn 0.0952 -0.5411 -0.8356
vn 0.0952 -0.5411 -0.8355
vn -0.7772 0.5343 0.3323
vn -0.7773 0.5342 0.3323
vn -0.5479 -0.7679 -0.3320
vn 0.6927 -0.5907 0.4138
vn 0.6924 -0.5909 0.4141
vn 0.2431 -0.2073 -0.9476
vn 0.2428 -0.2074 -0.9476
vn 0.8966 0.1581 0.4137
vn 0.8965 0.1581 0.4138
vn 0.3549 0.0673 -0.9325
vn -0.1229 0.6978 0.7057
vn -0.1049 0.5925 -0.7987
vn -0.6364 -0.1125 0.7631
vn -0.6367 -0.1113 -0.7631
vn -0.6368 -0.1113 -0.7630
vn 0.1608 -0.9124 0.3764
vn 0.0641 -0.3666 -0.9282
vn 0.0641 -0.3666 -0.9281
vn 0.4127 -0.8325 0.3696
vn 0.4126 -0.8325 0.3697
vn 0.1608 -0.3243 -0.9322
vn 0.1525 -0.8620 0.4834
vn 0.0611 -0.3481 -0.9355
vn 0.8471 0.1487 0.5102
vn 0.3256 0.0568 -0.9438
vn 0.3988 -0.8472 0.3510
vn -0.9453 -0.3014 0.1248
vn 0.3987 -0.8473 -0.3509
vn 0.3988 -0.3510 -0.8472
vn 0.3988 0.3509 -0.8473
vn -0.9453 0.1248 -0.3013
vn 0.3987 0.8473 -0.3509
vn -0.9453 0.3013 -0.1248
vn 0.3988 0.3508 0.8473
vn -0.9453 0.1248 0.3013
vn 0.3988 -0.3509 0.8473
vn -0.8733 0.0117 0.4870
vn -0.8737 0.0427 0.4846
vn -0.3299 -0.0677 -0.9416
vn -0.3552 -0.1148 -0.9277
vn -0.3554 -0.0828 -0.9310
vn -0.0083 -0.5245 0.8513
vn 0.0083 -0.5242 0.8516
vn -0.0318 -0.5498 0.8347
vn -0.0317 -0.6305 -0.7755
vn 0.0314 -0.6305 -0.7756
vn 0.0248 -0.6454 -0.7634
vn 0.8733 0.0118 0.4871
vn 0.8834 0.0168 0.4683
vn 0.8736 0.0425 0.4847
vn 0.3788 -0.0807 -0.9220
vn 0.3786 -0.1121 -0.9187
vn 0.0001 0.8972 0.4417
vn -0.0000 0.2800 -0.9600
vn -0.6787 0.6414 0.3578
vn -0.6483 0.6593 0.3810
vn -0.2382 0.2057 -0.9492
vn -0.2498 0.1329 -0.9591
vn -0.2630 0.1717 -0.9494
vn 0.0424 -0.4720 0.8806
vn -0.0189 -0.4372 0.8992
vn 0.0324 -0.4700 0.8821
vn -0.0328 -0.6824 -0.7302
vn 0.0317 -0.6629 -0.7480
vn 0.0246 -0.6773 -0.7353
vn 0.8734 0.0116 0.4869
vn 0.8836 0.0165 0.4680
vn 0.8738 0.0427 0.4844
vn 0.3299 -0.0677 -0.9416
vn 0.3554 -0.0828 -0.9311
vn -0.0000 -0.7298 0.6837
vn -0.0000 -0.4000 -0.9165
vn 0.1609 -0.5042 0.8484
vn 0.1607 -0.5122 0.8437
vn 0.1686 -0.4998 0.8496
vn -0.4309 0.7810 0.4520
vn -0.4388 0.7764 0.4523
vn -0.3161 -0.9487 -0.0000
vn -0.8642 0.5032 -0.0000
vn 0.1609 -0.5042 -0.8485
vn 0.1686 -0.4998 -0.8496
vn -0.4309 0.7810 -0.4520
vn -0.4321 0.7765 -0.4586
vn -0.4388 0.7764 -0.4523
vn 0.9816 -0.1908 -0.0091
vn 0.9832 -0.1823 -0.0054
vn 0.9832 -0.1823 0.0054
vn 0.0233 0.9997 0.0054
vn 0.0233 0.9997 -0.0054
vn 0.0311 0.9995 0.0091
vn 0.4493 -0.1676 0.8775
vn 0.4483 -0.1586 0.8797
vn -0.9254 -0.0640 0.3736
vn -0.9220 -0.0786 0.3790
vn -0.9223 -0.0695 0.3802
vn 0.5841 -0.8117 0.0023
vn 0.5841 -0.8117 -0.0023
vn 0.5763 -0.8172 0.0091
vn -0.9040 -0.4275 0.0091
vn -0.9040 -0.4275 -0.0091
vn -0.9005 -0.4348 -0.0061
vn 0.4494 -0.1676 -0.8775
vn 0.4415 -0.1638 -0.8822
vn 0.4483 -0.1586 -0.8797
vn -0.9254 -0.0640 -0.3736
vn -0.9223 -0.0695 -0.3802
vn 0.4687 0.0768 -0.8800
vn -0.9356 0.0301 -0.3518
vn 0.5671 0.8237 -0.0000
vn -0.9397 0.3420 -0.0000
vn 0.4689 0.0768 0.8799
vn 0.4689 0.0767 0.8799
vn -0.9356 0.0301 0.3518
vn 0.0001 -0.4886 0.8725
vn -0.0002 -0.8114 -0.5844
vn 0.8794 0.1822 0.4398
vn 0.4194 -0.3474 -0.8387
vn 0.0001 0.9624 0.2715
vn -0.0002 0.1605 -0.9870
vn -0.6786 0.2811 0.6786
vn -0.6786 -0.2811 -0.6786
vn 0.0405 -0.4741 -0.8795
vn -0.0078 -0.4475 -0.8942
vn 0.0306 -0.4721 -0.8810
vn -0.0310 -0.6831 0.7296
vn -0.0030 -0.6943 0.7196
vn 0.0232 -0.6781 0.7346
vn -0.6772 0.6423 -0.3591
vn -0.6615 0.6664 -0.3441
vn -0.6482 0.6592 -0.3811
vn -0.2394 0.2040 0.9492
vn -0.2630 0.1717 0.9494
vn 0.0001 0.8973 -0.4415
vn -0.0000 0.2797 0.9601
vn 0.8732 0.0133 -0.4871
vn 0.8736 0.0425 -0.4848
vn 0.3788 -0.0807 0.9219
vn 0.3550 -0.0665 0.9325
vn 0.3787 -0.1106 0.9189
vn -0.0913 -0.5836 0.8069
vn 0.1451 0.9278 0.3437
vn -0.8885 -0.4588 -0.0000
vn -0.1945 0.9809 -0.0000
vn -0.0913 -0.5836 -0.8069
vn 0.1451 0.9278 -0.3437
vn 0.7059 -0.7083 -0.0000
vn 0.4847 0.8747 -0.0000
vn 0.0317 0.5042 0.8630
vn 0.0087 0.5301 0.8479
vn -0.0082 0.5308 0.8475
vn 0.0251 0.6563 -0.7541
vn -0.0318 0.6708 -0.7410
vn 0.0314 0.6708 -0.7410
vn -0.8664 -0.0874 0.4916
vn -0.8763 -0.0297 0.4809
vn -0.9002 -0.0216 0.4350
vn -0.3411 0.1583 -0.9266
vn -0.2953 0.0849 -0.9516
vn -0.3401 0.0638 -0.9382
vn -0.0316 0.6508 0.7586
vn 0.0316 0.6508 0.7586
vn 0.0649 0.6917 0.7193
vn 0.0649 0.4212 -0.9047
vn -0.0649 0.4215 -0.9045
vn 0.0454 0.4635 -0.8849
vn 0.8664 -0.0875 0.4917
vn 0.8747 -0.1282 0.4675
vn 0.9001 -0.0216 0.4351
vn 0.3411 0.1583 -0.9266
vn 0.3671 0.1424 -0.9192
vn 0.3401 0.0638 -0.9382
vn -0.0270 0.5546 0.8317
vn 0.0319 0.5276 0.8489
vn 0.0083 0.5536 0.8327
vn -0.0240 0.5833 -0.8119
vn 0.0434 0.6000 -0.7988
vn -0.0179 0.5687 -0.8223
vn -0.9020 -0.1174 0.4155
vn -0.8864 -0.0625 0.4587
vn -0.8848 -0.1055 0.4538
vn -0.3643 0.1933 -0.9110
vn -0.3703 0.1360 -0.9189
vn -0.3697 0.1934 -0.9088
vn -0.6188 -0.7328 0.2830
vn -0.6269 -0.7351 0.2580
vn -0.5777 -0.7745 0.2577
vn -0.2094 -0.1028 -0.9724
vn -0.2723 -0.0993 -0.9571
vn -0.2693 -0.0604 -0.9611
vn 0.0080 -0.9800 0.1986
vn 0.0277 -0.9722 0.2325
vn -0.0263 -0.9712 0.2370
vn 0.0246 -0.2073 -0.9780
vn -0.0236 -0.2085 -0.9777
vn -0.0155 -0.1689 -0.9855
vn 0.4326 -0.8681 0.2433
vn 0.4299 -0.8602 0.2741
vn 0.4129 -0.8560 0.3111
vn 0.1279 -0.1585 -0.9790
vn 0.1598 -0.0874 -0.9833
vn 0.1909 -0.1134 -0.9750
vn 0.8930 -0.1025 0.4382
vn 0.8989 -0.0286 0.4373
vn 0.8812 -0.0965 0.4629
vn 0.3641 0.1972 -0.9102
vn 0.3893 0.1812 -0.9031
vn 0.3941 0.2001 -0.8970
vn -0.9995 -0.0293 0.0067
vn -0.9995 -0.0293 -0.0067
vn -0.9994 -0.0344 -0.0008
vn 0.3078 -0.9514 -0.0060
vn 0.3067 -0.9518 0.0065
vn 0.3067 -0.9518 -0.0065
vn -0.2989 0.3727 0.8785
vn -0.3061 0.3629 0.8801
vn -0.3002 0.3663 0.8807
vn 0.6698 -0.6209 0.4073
vn 0.6748 -0.6166 0.4055
vn 0.0253 0.9997 -0.0000
vn 0.9656 -0.2600 -0.0000
vn -0.2990 0.3727 -0.8785
vn -0.3002 0.3664 -0.8807
vn 0.6698 -0.6209 -0.4072
vn 0.6715 -0.6163 -0.4114
vn 0.6749 -0.6166 -0.4054
vn -0.2378 -0.4652 -0.8527
vn -0.2419 -0.4543 -0.8574
vn -0.2369 -0.4591 -0.8562
vn 0.6283 0.6377 -0.4456
vn 0.6333 0.6328 -0.4454
vn 0.1313 -0.9913 -0.0000
vn 0.9471 0.3210 -0.0000
vn -0.2378 -0.4652 0.8527
vn -0.2369 -0.4590 0.8562
vn 0.6283 0.6377 0.4455
vn 0.6286 0.6339 0.4506
vn 0.6333 0.6328 0.4454
vn -0.9996 -0.0273 -0.0070
vn -0.9996 -0.0273 0.0070
vn -0.9998 -0.0205 0.0039
vn 0.1663 0.9861 0.0046
vn 0.1607 0.9870 -0.0070
vn 0.1607 0.9870 0.0070
vn 0.7922 0.4718 0.3871
vn 0.2860 0.1703 -0.9430
vn 0.9119 -0.1426 0.3849
vn 0.3535 -0.0549 -0.9338
vn 0.0892 0.5704 0.8165
vn 0.0892 0.5704 -0.8165
vn -0.8632 0.1348 0.4865
vn -0.8632 0.1349 0.4865
vn -0.3598 0.0565 -0.9313
vn -0.1247 -0.7972 0.5907
vn -0.0531 -0.3396 -0.9391
vn 0.8576 -0.1355 0.4962
vn 0.3337 -0.0527 -0.9412
vn 0.0001 0.8725 0.4885
vn -0.0002 -0.5844 0.8115
vn -0.0002 -0.9870 -0.1605
vn -0.9453 -0.3012 -0.1248
vn 0.4443 -0.3435 0.8274
vn -0.9243 -0.1545 0.3491
vn -0.9243 -0.1546 0.3491
vn 0.8234 -0.5674 -0.0026
vn -0.8213 -0.5705 0.0073
vn 0.3988 0.3510 -0.8472
vn -0.9453 0.3014 0.1248
vn 0.8232 -0.5677 0.0026
vn 0.8232 -0.5677 0.0025
vn -0.8211 -0.5707 -0.0073
vn 0.4443 -0.3436 -0.8274
vn -0.9243 -0.1546 -0.3490
vn 0.0001 0.9624 -0.2715
vn -0.0002 0.1605 0.9870
vn 0.8794 0.1821 -0.4398
vn 0.4194 -0.3474 0.8387
vn 0.0001 -0.4886 -0.8725
vn -0.0002 -0.8115 0.5844
vn -0.6786 0.2811 -0.6786
vn -0.6786 -0.2811 0.6786
vn 0.8794 0.1822 -0.4398
vn 0.4193 -0.3474 0.8387
vn 0.0001 -0.8725 0.4886
vn -0.0002 0.5844 0.8115
vn 0.0001 -0.2715 -0.9624
vn -0.0002 0.9870 -0.1605
vn 0.8795 -0.4397 -0.1822
vn 0.4193 0.8387 0.3474
vn -0.0001 -0.9931 0.1172
vn 0.0003 0.3634 0.9316
vn -0.4027 -0.8456 -0.3503
vn -0.8887 0.4236 0.1753
vn -0.0001 -0.6194 -0.7851
vn 0.0003 0.9158 -0.4017
vn 0.8794 -0.4399 -0.1822
vn 0.0001 -0.9624 -0.2715
vn -0.0002 -0.1605 0.9870
vn 0.0001 0.4886 -0.8725
vn -0.0002 0.8114 0.5844
vn 0.8794 -0.1822 -0.4398
vn 0.4194 0.3474 0.8387
vn -0.0000 0.6314 0.7754
vn -0.0000 -0.9509 0.3094
vn 0.3223 0.9466 0.0003
vn 0.8094 -0.5873 0.0001
vn -0.0000 0.9391 -0.3437
vn -0.0000 -0.5907 -0.8069
vn -0.3223 0.9467 0.0003
vn -0.8094 -0.5872 0.0001
vn 0.4193 0.8387 -0.3474
vn -0.0000 -0.6182 0.7860
vn -0.0000 0.9476 0.3193
vn -0.3285 -0.9445 0.0002
vn -0.8087 0.5882 -0.0000
vn -0.0000 -0.9391 -0.3438
vn -0.0000 0.5907 -0.8069
vn 0.3285 -0.9445 0.0002
vn 0.8087 0.5882 -0.0000
vn 0.0001 0.4886 0.8725
vn -0.0002 0.8115 -0.5844
vn 0.0001 -0.9624 0.2715
vn -0.0002 -0.1605 -0.9870
vn 0.8794 -0.1822 0.4398
vn 0.4194 0.3474 -0.8387
vn -0.4847 -0.1479 -0.8621
vn -0.4807 -0.1519 -0.8636
vn -0.4810 -0.1590 -0.8622
vn 0.9124 -0.0778 -0.4017
vn 0.9134 -0.0689 -0.4011
vn 0.9107 -0.0799 -0.4054
vn -0.6327 -0.7744 -0.0013
vn -0.6327 -0.7744 0.0013
vn -0.6269 -0.7791 -0.0070
vn 0.8902 -0.4555 -0.0070
vn 0.8902 -0.4555 0.0070
vn 0.8875 -0.4608 0.0049
vn -0.4847 -0.1480 0.8621
vn -0.4868 -0.1612 0.8585
vn -0.4810 -0.1590 0.8622
vn 0.9124 -0.0777 0.4017
vn 0.9117 -0.0661 0.4055
vn 0.9106 -0.0798 0.4054
vn -0.7165 0.6976 0.0046
vn -0.7165 0.6976 -0.0046
vn -0.7143 0.6998 0.0066
vn 0.8679 0.4967 0.0067
vn 0.8679 0.4967 -0.0067
vn 0.8658 0.5004 -0.0038
vn -0.1229 0.6979 -0.7056
vn -0.1049 0.5925 0.7987
vn 0.8969 0.1582 -0.4130
vn 0.8970 0.1582 -0.4127
vn 0.3550 0.0673 0.9325
vn 0.3549 0.0673 0.9325
vn 0.6927 -0.5907 -0.4138
vn 0.6924 -0.5909 -0.4140
vn 0.2432 -0.2074 0.9475
vn 0.2427 -0.2076 0.9476
vn 0.8471 0.1487 -0.5101
vn 0.3257 0.0568 0.9438
vn 0.1525 -0.8619 -0.4836
vn 0.0611 -0.3482 0.9354
vn 0.0611 -0.3481 0.9354
vn 0.4127 -0.8325 -0.3697
vn 0.4126 -0.8325 -0.3696
vn 0.1609 -0.3246 0.9321
vn 0.1611 -0.3242 0.9322
vn 0.1608 -0.9124 -0.3764
vn 0.0641 -0.3666 0.9282
vn -0.6364 -0.1126 -0.7631
vn -0.6364 -0.1125 -0.7631
vn -0.6367 -0.1113 0.7630
vn 0.0004 -0.7610 -0.6488
vn -0.0017 -0.3265 0.9452
vn -0.4027 -0.3503 -0.8457
vn -0.8888 0.1754 0.4233
vn -0.0001 0.1171 -0.9931
vn 0.0003 0.9316 0.3635
vn 0.9048 -0.1618 -0.3939
vn 0.3629 0.3649 0.8574
vn 0.0688 -0.3897 -0.9184
vn -0.1593 0.9061 -0.3919
vn 0.7582 -0.6520 -0.0000
vn 0.7583 -0.6520 0.0001
vn 0.7583 -0.6520 -0.0000
vn 0.3997 0.9167 -0.0000
vn 0.3996 0.9167 -0.0003
vn 0.0688 -0.3896 0.9184
vn -0.1593 0.9061 0.3919
vn -0.4268 -0.9044 -0.0000
vn -0.4268 -0.9043 -0.0001
vn -0.4269 -0.9043 -0.0000
vn -0.7104 0.7038 -0.0000
vn -0.7105 0.7037 -0.0000
vn 0.1812 -0.3656 -0.9129
vn 0.1812 -0.3655 -0.9130
vn -0.4068 0.8206 -0.4016
vn -0.4072 0.8205 -0.4013
vn -0.4067 0.8206 -0.4015
vn 0.8654 -0.5011 -0.0000
vn 0.8652 -0.5014 0.0005
vn 0.8654 -0.5012 -0.0000
vn 0.2239 0.9746 -0.0000
vn 0.1810 -0.3652 0.9132
vn 0.1808 -0.3654 0.9131
vn -0.4068 0.8207 0.4011
vn -0.4068 0.8208 0.4011
vn -0.2242 -0.9745 -0.0000
vn -0.2240 -0.9746 -0.0003
vn -0.8650 0.5017 -0.0000
vn -0.8651 0.5017 -0.0000
vn 0.7922 0.4718 -0.3871
vn 0.2860 0.1703 0.9430
vn 0.8576 -0.1355 -0.4961
vn 0.3338 -0.0527 0.9412
vn -0.1247 -0.7972 -0.5906
vn -0.0531 -0.3396 0.9391
vn -0.8631 0.1348 -0.4867
vn -0.3598 0.0565 0.9313
vn 0.9119 -0.1426 -0.3848
vn 0.3535 -0.0549 0.9338
vn 0.8973 -0.4415 -0.0000
vn 0.8973 -0.4415 0.0001
vn 0.1755 0.9845 -0.0000
vn 0.0867 -0.4892 0.8679
vn -0.1619 0.9132 0.3739
vn -0.3992 -0.9169 -0.0000
vn -0.3992 -0.9168 -0.0000
vn -0.3993 -0.9168 -0.0000
vn -0.7582 0.6521 -0.0000
vn 0.0867 -0.4890 -0.8680
vn -0.1619 0.9132 -0.3739
vn 0.4589 -0.8885 -0.0000
vn -0.9809 -0.1945 -0.0000
vn 0.5157 -0.0816 -0.8529
vn -0.9125 0.1460 -0.3822
vn -0.9125 0.1461 -0.3822
vn 0.8041 0.5945 -0.0000
vn -0.7746 0.6324 -0.0000
vn 0.5156 -0.0816 0.8529
vn -0.9125 0.1461 0.3822
vn -0.0002 -0.8115 -0.5844
vn 0.0001 0.9624 0.2716
vn -0.0001 -0.1171 -0.9931
vn 0.0003 -0.9316 0.3634
vn -0.4027 0.3503 -0.8457
vn -0.8888 -0.1753 0.4234
vn 0.0004 0.7610 -0.6488
vn -0.0017 0.3265 0.9452
vn 0.9048 0.1617 -0.3938
vn 0.3630 -0.3648 0.8574
vn -0.0002 0.8115 0.5844
vn 0.0771 -0.4361 -0.8966
vn 0.1433 -0.8148 0.5618
vn 0.1432 -0.8148 0.5618
vn -0.7212 0.1100 -0.6840
vn -0.6400 -0.3504 0.6838
vn -0.6400 -0.3505 0.6838
vn -0.1635 0.9280 -0.3347
vn -0.0394 0.2218 0.9743
vn 0.8573 0.2971 -0.4205
vn 0.4559 -0.2179 0.8629
vn 0.4559 -0.2179 0.8630
vn 0.0001 -0.8725 0.4885
vn 0.4193 0.8388 0.3474
vn 0.9678 -0.2519 -0.0000
vn -0.4830 -0.8756 -0.0000
vn 0.3959 0.2358 -0.8875
vn -0.7807 -0.4650 -0.4174
vn 0.4830 0.8756 -0.0000
vn -0.9678 0.2518 -0.0000
vn 0.3959 0.2358 0.8875
vn -0.7807 -0.4650 0.4175
vn 0.0001 0.5365 -0.8439
vn -0.0002 -0.9196 -0.3928
vn -0.7288 0.6847 -0.0000
vn -0.4967 -0.8679 -0.0000
vn 0.0001 0.5365 0.8439
vn -0.0002 -0.9196 0.3928
vn 0.8202 0.5721 -0.0000
vn 0.3543 -0.9351 -0.0000
vn 0.0001 0.8725 -0.4886
vn -0.7174 0.6966 -0.0000
vn 0.8959 0.4442 -0.0000
vn -0.4807 0.0750 -0.8737
vn 0.9202 -0.1437 -0.3642
vn -0.7083 -0.7059 -0.0000
vn 0.8747 -0.4847 -0.0000
vn -0.4808 0.0750 0.8736
vn 0.9201 -0.1437 0.3642
vn 0.4187 -0.0656 0.9057
vn -0.9056 0.1414 0.3998
vn 0.7746 -0.6324 -0.0000
vn -0.8041 -0.5945 -0.0000
vn 0.4187 -0.0656 -0.9057
vn -0.9056 0.1414 -0.3998
vn -0.7175 0.6966 -0.0000
vn 0.7216 -0.6924 -0.0000
vn 0.7217 -0.6922 -0.0004
vn 0.7215 -0.6924 -0.0000
vn -0.8654 -0.5012 -0.0000
vn -0.8653 -0.5013 -0.0003
vn -0.8653 -0.5012 -0.0000
vn 0.5303 0.0931 -0.8427
vn -0.9098 -0.1584 -0.3837
vn 0.7817 0.6237 -0.0000
vn 0.7815 0.6239 -0.0004
vn -0.7850 0.6196 -0.0000
vn -0.7849 0.6196 0.0002
vn -0.7849 0.6196 -0.0000
vn 0.5303 0.0931 0.8427
vn -0.9098 -0.1584 0.3837
vn -0.0255 0.5376 -0.8428
vn 0.0254 0.5386 -0.8422
vn 0.0081 0.5362 -0.8440
vn -0.0225 0.5998 0.7998
vn 0.0308 0.6141 0.7886
vn -0.0174 0.5863 0.8099
vn 0.8935 -0.1012 -0.4376
vn 0.9021 -0.0468 -0.4291
vn 0.8797 -0.0978 -0.4654
vn 0.3641 0.1957 0.9105
vn 0.4075 0.1392 0.9025
vn 0.3961 0.2023 0.8957
vn 0.4343 -0.8680 -0.2406
vn 0.3709 -0.8926 -0.2565
vn 0.4137 -0.8546 -0.3139
vn 0.1251 -0.1601 0.9791
vn 0.1940 -0.1551 0.9687
vn 0.1932 -0.1110 0.9749
vn 0.0089 -0.9807 -0.1954
vn -0.0134 -0.9802 -0.1973
vn -0.0292 -0.9708 -0.2383
vn 0.0274 -0.2090 0.9775
vn 0.0148 -0.1648 0.9862
vn -0.0173 -0.1662 0.9859
vn -0.6214 -0.7310 -0.2820
vn -0.5969 -0.7354 -0.3207
vn -0.5764 -0.7762 -0.2554
vn -0.2065 -0.1042 0.9729
vn -0.2407 -0.0335 0.9700
vn -0.2715 -0.0578 0.9607
vn -0.9021 -0.1154 -0.4158
vn -0.8935 -0.0339 -0.4477
vn -0.8835 -0.1076 -0.4559
vn -0.3629 0.1919 0.9118
vn -0.3700 0.1483 0.9171
vn -0.3720 0.1952 0.9074
vn 0.3251 0.3603 0.8743
vn 0.3251 0.3603 0.8744
vn -0.9071 -0.1634 0.3880
vn 0.7847 -0.6199 0.0003
vn 0.7846 -0.6200 -0.0000
vn -0.7814 -0.6241 -0.0000
vn -0.7814 -0.6240 -0.0000
vn 0.4310 0.0750 -0.8993
vn -0.9070 -0.1634 -0.3881
vn 0.3251 0.3602 -0.8744
vn -0.9441 -0.0550 -0.3250
vn 0.2629 0.8735 -0.4097
vn -0.9824 0.1178 -0.1447
vn 0.2628 0.8735 0.4097
vn -0.9824 0.1179 0.1447
vn 0.4443 0.3436 -0.8274
vn -0.9243 0.1546 -0.3490
vn 0.8232 0.5677 0.0025
vn 0.8232 0.5677 0.0026
vn -0.8211 0.5707 -0.0073
vn 0.3988 -0.3508 0.8473
vn -0.9453 -0.3012 0.1248
vn -0.9453 -0.3014 -0.1248
vn 0.8234 0.5674 -0.0026
vn -0.8213 0.5705 0.0073
vn 0.4443 0.3435 0.8274
vn -0.9243 0.1545 0.3491
vn 0.3989 0.8472 0.3510
vn 0.3989 0.8471 -0.3511
vn -0.9453 0.3012 -0.1248
vn -0.0000 0.8069 -0.5907
vn -0.0000 0.8908 -0.4544
vn -0.0000 0.8908 0.4545
vn -0.7320 -0.6813 -0.0000
vn -0.5309 0.8475 -0.0000
vn 0.9048 -0.1618 0.3939
vn 0.3629 0.3649 -0.8574
vn 0.0003 0.9316 -0.3635
vn -0.4027 -0.3503 0.8457
vn -0.8888 0.1755 -0.4233
vn -0.8888 -0.4234 0.1753
vn -0.0001 -0.1171 0.9931
vn 0.9048 0.1617 0.3938
vn 0.3630 -0.3647 -0.8574
vn 0.3630 -0.3648 -0.8574
vn -0.8888 -0.1753 -0.4234
vn 0.9337 0.3580 -0.0002
vn -0.5979 0.8016 -0.0001
vn 0.4962 0.0759 0.8649
vn 0.4962 0.0758 0.8649
vn 0.5046 -0.1098 0.8564
vn -0.9269 -0.0479 0.3723
vn 0.9315 -0.3638 -0.0003
vn -0.6008 -0.7994 -0.0002
vn -0.8888 -0.4234 -0.1753
vn 0.0003 -0.3635 -0.9316
vn 0.9388 0.1318 -0.3183
vn -0.4093 0.3491 -0.8430
vn 0.9387 0.3184 -0.1318
vn -0.4092 0.8430 -0.3491
vn 0.9388 0.3184 0.1319
vn -0.4093 0.8430 0.3492
vn 0.9388 0.1319 0.3183
vn -0.4093 -0.3491 0.8430
vn 0.9388 -0.3182 0.1319
vn -0.4094 -0.8429 0.3492
vn -0.4093 -0.3490 -0.8430
vn -0.6904 0.5887 -0.4205
vn 0.9906 0.1365 -0.0001
vn 0.9906 0.1365 -0.0000
vn -0.3569 0.9341 0.0003
vn -0.3568 0.9342 -0.0000
vn 0.3751 -0.3201 0.8700
vn 0.3752 -0.3200 0.8700
vn -0.6903 0.5887 0.4206
vn 0.3571 -0.9341 0.0004
vn -0.9906 -0.1367 -0.0000
vn -0.4963 0.0758 0.8648
vn -0.4963 0.0759 0.8648
vn 0.9291 0.0321 0.3684
vn -0.9337 0.3579 -0.0002
vn -0.9314 -0.3639 -0.0003
vn 0.6009 -0.7993 -0.0002
vn -0.5045 -0.1098 0.8564
vn 0.9269 -0.0479 0.3724
vn 0.0001 -0.8725 -0.4885
vn -0.0002 0.5844 -0.8115
vn 0.8795 -0.4397 0.1822
vn -0.0002 -0.9870 0.1606
vn -0.0002 -0.5845 -0.8114
vn 0.0003 0.9158 0.4017
vn -0.4027 -0.8456 0.3503
vn -0.8888 0.4234 -0.1754
vn -0.0001 -0.9931 -0.1172
vn 0.0003 0.3634 -0.9316
vn -0.6400 -0.3504 -0.6838
vn 0.0771 -0.4361 0.8966
vn 0.1433 -0.8148 -0.5618
vn 0.4559 -0.2179 -0.8629
vn -0.1635 0.9280 0.3347
vn -0.7772 0.5343 -0.3323
vn -0.7773 0.5342 -0.3323
vn -0.5479 -0.7679 0.3320
vn 0.0952 -0.5411 0.8355
vn 0.7835 0.5814 -0.2194
vn 0.5543 -0.7255 0.4079
vn 0.1727 -0.9809 -0.0896
vn -0.0350 0.1996 0.9793
vn 0.1727 -0.9809 0.0897
vn -0.7775 0.5339 0.3324
vn -0.7774 0.5340 0.3324
vn -0.5478 -0.7679 -0.3321
vn 0.6923 -0.5910 0.4141
vn 0.6924 -0.5905 0.4146
vn 0.2432 -0.2074 -0.9475
vn 0.2427 -0.2076 -0.9476
vn 0.8968 0.1581 0.4132
vn 0.3550 0.0673 -0.9325
vn -0.1229 0.6979 0.7056
vn -0.6364 -0.1126 0.7631
vn -0.6367 -0.1113 -0.7630
vn 0.4127 -0.8325 0.3697
vn 0.4126 -0.8325 0.3696
vn 0.1525 -0.8619 0.4836
vn 0.0611 -0.3482 -0.9354
vn 0.0611 -0.3481 -0.9354
vn 0.8472 0.1487 0.5101
vn 0.8471 0.1488 0.5101
vn 0.8471 0.1487 0.5101
vn 0.3257 0.0568 -0.9438
vn 0.3988 0.8472 -0.3510
vn 0.3988 0.8472 0.3510
vn 0.3988 0.3510 0.8472
vn -0.8734 0.0116 0.4869
vn -0.8738 0.0426 0.4844
vn -0.8836 0.0165 0.4680
vn -0.3554 -0.0828 -0.9311
vn -0.0083 -0.5245 0.8514
vn -0.0317 -0.5498 0.8347
vn 0.0314 -0.5498 0.8347
vn -0.0317 -0.6305 -0.7756
vn -0.0251 -0.6455 -0.7633
vn 0.8732 0.0118 0.4872
vn 0.8736 0.0425 0.4848
vn 0.3786 -0.1122 -0.9187
vn 0.3538 -0.0658 -0.9330
vn 0.0001 0.8973 0.4415
vn -0.0000 0.2797 -0.9601
vn -0.6787 0.6413 0.3579
vn -0.6483 0.6592 0.3811
vn -0.6622 0.6667 0.3421
vn 0.0424 -0.4721 0.8805
vn 0.0324 -0.4701 0.8820
vn -0.0083 -0.4437 0.8961
vn -0.0328 -0.6825 -0.7302
vn -0.0033 -0.6942 -0.7197
vn 0.8733 0.0116 0.4870
vn 0.8737 0.0427 0.4846
vn 0.3554 -0.0828 -0.9310
vn 0.3552 -0.1148 -0.9277
vn 0.1609 -0.5042 0.8485
vn -0.4321 0.7765 0.4586
vn -0.8641 0.5033 -0.0000
vn 0.1609 -0.5042 -0.8484
vn 0.1607 -0.5122 -0.8437
vn -0.4310 0.7810 -0.4520
vn 0.9816 -0.1907 -0.0091
vn 0.9832 -0.1822 0.0054
vn 0.9816 -0.1907 0.0091
vn 0.0311 0.9995 -0.0091
vn 0.4494 -0.1676 0.8775
vn 0.4415 -0.1638 0.8822
vn -0.9223 -0.0695 0.3801
vn 0.5763 -0.8172 -0.0091
vn -0.9005 -0.4348 0.0061
vn 0.4493 -0.1676 -0.8775
vn -0.9220 -0.0786 -0.3790
vn 0.4689 0.0767 -0.8799
vn 0.4688 0.0768 0.8800
vn 0.4193 -0.3474 -0.8387
vn 0.0404 -0.4740 -0.8796
vn -0.0178 -0.4410 -0.8973
vn 0.0232 -0.6782 0.7345
vn 0.0299 -0.6646 0.7466
vn -0.6772 0.6423 -0.3590
vn -0.6483 0.6593 -0.3810
vn -0.2504 0.1348 0.9587
vn 0.0001 0.8972 -0.4417
vn -0.0000 0.2800 0.9600
vn 0.8733 0.0133 -0.4871
vn 0.8737 0.0425 -0.4847
vn 0.8829 0.0180 -0.4691
vn 0.3788 -0.0807 0.9220
vn 0.3786 -0.1106 0.9189
vn -0.8884 -0.4590 -0.0000
vn 0.7060 -0.7082 -0.0000
vn -0.0082 0.5308 0.8474
vn -0.0315 0.5042 0.8630
vn -0.0246 0.6563 -0.7541
vn -0.8664 -0.0875 0.4917
vn -0.9001 -0.0216 0.4351
vn -0.8747 -0.1282 0.4675
vn -0.3671 0.1424 -0.9192
vn 0.0649 0.6918 0.7192
vn -0.0649 0.6917 0.7193
vn 0.0649 0.4215 -0.9045
vn -0.0455 0.4635 -0.8849
vn 0.8664 -0.0874 0.4916
vn 0.9002 -0.0216 0.4350
vn 0.8763 -0.0297 0.4809
vn 0.2953 0.0849 -0.9516
vn -0.0270 0.5547 0.8316
vn 0.0266 0.5554 0.8312
vn -0.0240 0.5834 -0.8119
vn -0.0179 0.5688 -0.8223
vn 0.0331 0.5985 -0.8004
vn -0.8942 -0.0365 0.4461
vn -0.3718 0.1474 -0.9165
vn -0.5968 -0.7368 0.3177
vn -0.2693 -0.0604 -0.9612
vn -0.2414 -0.0367 -0.9697
vn 0.0080 -0.9801 0.1986
vn -0.0121 -0.9797 0.2002
vn 0.0133 -0.1677 -0.9857
vn 0.4326 -0.8681 0.2434
vn 0.3730 -0.8911 0.2583
vn 0.1917 -0.1530 -0.9695
vn 0.8930 -0.1025 0.4383
vn 0.9020 -0.0453 0.4294
vn 0.4049 0.1409 -0.9034
vn -0.9996 -0.0292 0.0067
vn -0.9994 -0.0344 0.0008
vn 0.3078 -0.9514 0.0060
vn -0.2990 0.3727 0.8785
vn -0.3002 0.3664 0.8807
vn 0.6698 -0.6209 0.4072
vn 0.6749 -0.6166 0.4054
vn 0.6715 -0.6163 0.4114
vn -0.2989 0.3727 -0.8785
vn -0.3002 0.3663 -0.8807
vn -0.3061 0.3629 -0.8801
vn 0.6698 -0.6209 -0.4073
vn 0.6748 -0.6166 -0.4055
vn 0.6283 0.6377 -0.4455
vn 0.6333 0.6328 -0.4455
vn 0.6286 0.6339 -0.4506
vn -0.2369 -0.4591 0.8562
vn -0.2419 -0.4543 0.8574
vn -0.9996 -0.0274 -0.0070
vn -0.9998 -0.0207 0.0039
vn -0.9998 -0.0207 -0.0039
vn 0.1663 0.9861 -0.0046
vn 0.9119 -0.1426 0.3848
vn 0.9119 -0.1426 0.3847
vn -0.8631 0.1348 0.4867
vn -0.1247 -0.7972 0.5906
vn 0.8576 -0.1354 0.4961
vn 0.8576 -0.1355 0.4961
vn 0.3338 -0.0527 -0.9412
vn 0.4193 -0.8388 0.3474
vn 0.4443 -0.3436 0.8274
vn -0.9243 -0.1546 0.3490
vn 0.8233 -0.5676 -0.0025
vn 0.8233 -0.5676 -0.0026
vn -0.8211 -0.5707 0.0073
vn -0.9454 0.3011 0.1248
vn 0.8234 -0.5675 0.0026
vn -0.8212 -0.5706 -0.0073
vn 0.4443 -0.3435 -0.8274
vn -0.9243 -0.1546 -0.3491
vn -0.0002 0.1606 0.9870
vn -0.0002 -0.8114 0.5844
vn -0.0002 0.5844 0.8114
vn -0.0001 -0.9931 0.1171
vn -0.4027 -0.8457 -0.3503
vn -0.8888 0.4234 0.1754
vn -0.0001 -0.6195 -0.7850
vn 0.0003 0.9157 -0.4018
vn 0.8794 -0.4398 -0.1822
vn 0.4194 0.8387 0.3474
vn -0.0000 0.6315 0.7754
vn 0.3222 0.9467 0.0003
vn 0.8094 -0.5872 0.0001
vn -0.3223 0.9466 0.0003
vn -0.0000 -0.6181 0.7861
vn -0.0000 0.9476 0.3194
vn -0.8087 0.5882 0.0001
vn -0.0000 -0.9391 -0.3437
vn 0.8087 0.5883 -0.0000
vn -0.0002 0.8114 -0.5844
vn -0.4847 -0.1480 -0.8621
vn -0.4868 -0.1612 -0.8585
vn 0.9106 -0.0798 -0.4054
vn 0.9117 -0.0662 -0.4055
vn -0.6269 -0.7791 0.0070
vn 0.8902 -0.4554 -0.0070
vn 0.8875 -0.4608 -0.0049
vn -0.4847 -0.1479 0.8621
vn -0.4807 -0.1519 0.8636
vn 0.9124 -0.0778 0.4017
vn 0.9107 -0.0799 0.4054
vn 0.9134 -0.0689 0.4011
vn -0.7143 0.6998 -0.0066
vn 0.8679 0.4966 0.0067
vn 0.8658 0.5003 -0.0038
vn 0.8658 0.5003 0.0038
vn -0.1229 0.6978 -0.7057
vn 0.8966 0.1581 -0.4137
vn 0.8966 0.1581 -0.4136
vn 0.6926 -0.5906 -0.4141
vn 0.6926 -0.5906 -0.4142
vn 0.8471 0.1487 -0.5102
vn 0.3256 0.0568 0.9438
vn 0.1525 -0.8620 -0.4834
vn 0.0611 -0.3481 0.9355
vn 0.4127 -0.8325 -0.3696
vn 0.4126 -0.8325 -0.3697
vn 0.1608 -0.3243 0.9322
vn 0.0641 -0.3666 0.9281
vn -0.6368 -0.1113 0.7630
vn -0.4027 -0.3503 -0.8456
vn 0.0003 0.9316 0.3634
vn 0.9048 -0.1617 -0.3938
vn 0.3630 0.3648 0.8574
vn 0.0688 -0.3896 -0.9184
vn 0.7582 -0.6521 -0.0000
vn 0.3992 0.9169 -0.0000
vn 0.0688 -0.3897 0.9184
vn -0.4268 -0.9044 -0.0001
vn -0.4267 -0.9044 -0.0000
vn -0.7103 0.7039 -0.0000
vn 0.1813 -0.3656 -0.9129
vn -0.4068 0.8207 -0.4011
vn -0.4068 0.8208 -0.4011
vn 0.8651 -0.5016 -0.0001
vn 0.8651 -0.5016 -0.0000
vn 0.1812 -0.3655 0.9130
vn 0.1812 -0.3656 0.9129
vn -0.4067 0.8206 0.4016
vn -0.4072 0.8205 0.4013
vn -0.4068 0.8206 0.4016
vn -0.2239 -0.9746 0.0003
vn -0.2242 -0.9746 -0.0000
vn -0.8652 0.5015 -0.0000
vn -0.8651 0.5016 -0.0000
vn 0.8576 -0.1355 -0.4962
vn 0.8576 -0.1354 -0.4962
vn 0.3337 -0.0527 0.9412
vn -0.1247 -0.7972 -0.5907
vn -0.8632 0.1349 -0.4865
vn -0.8632 0.1348 -0.4865
vn 0.9119 -0.1426 -0.3849
vn 0.8971 -0.4418 -0.0000
vn 0.8972 -0.4416 0.0002
vn 0.1754 0.9845 -0.0000
vn 0.0867 -0.4890 0.8680
vn -0.3993 -0.9168 0.0005
vn -0.3996 -0.9167 -0.0000
vn -0.3997 -0.9167 -0.0000
vn 0.0867 -0.4892 -0.8679
vn 0.5156 -0.0816 -0.8529
vn 0.5157 -0.0816 0.8529
vn 0.0001 0.9625 0.2714
vn -0.4027 0.3502 -0.8457
vn -0.8888 -0.1753 0.4233
vn 0.9048 0.1618 -0.3939
vn 0.3629 -0.3649 0.8574
vn 0.8794 -0.1821 -0.4398
vn 0.0771 -0.4362 -0.8965
vn -0.7211 0.1100 -0.6840
vn -0.6399 -0.3505 0.6838
vn -0.6399 -0.3505 0.6839
vn -0.1635 0.9280 -0.3348
vn 0.8572 0.2971 -0.4206
vn 0.9677 -0.2520 -0.0000
vn -0.7807 -0.4650 -0.4175
vn -0.9677 0.2519 -0.0000
vn -0.7807 -0.4650 0.4174
vn -0.7289 0.6846 -0.0000
vn 0.8203 0.5720 -0.0000
vn 0.3542 -0.9352 -0.0000
vn 0.8794 0.4399 0.1822
vn 0.8959 0.4443 -0.0000
vn -0.4808 0.0750 -0.8736
vn 0.9201 -0.1437 -0.3642
vn -0.7082 -0.7060 -0.0000
vn -0.4807 0.0750 0.8737
vn 0.9202 -0.1437 0.3642
vn 0.7218 -0.6921 -0.0000
vn -0.8651 -0.5016 -0.0000
vn -0.8651 -0.5015 -0.0000
vn 0.7814 0.6241 -0.0000
vn -0.7850 0.6195 -0.0002
vn -0.7850 0.6195 -0.0000
vn -0.0255 0.5375 -0.8429
vn 0.0081 0.5362 -0.8441
vn 0.0301 0.5117 -0.8586
vn -0.0225 0.5998 0.7999
vn -0.0174 0.5862 0.8100
vn 0.0411 0.6155 0.7871
vn 0.8986 -0.0254 -0.4381
vn 0.3642 0.1957 0.9105
vn 0.3961 0.2023 0.8956
vn 0.3881 0.1805 0.9038
vn 0.4343 -0.8680 -0.2405
vn 0.4327 -0.8593 -0.2728
vn 0.1250 -0.1601 0.9792
vn 0.1931 -0.1110 0.9749
vn 0.1590 -0.0843 0.9837
vn 0.0089 -0.9807 -0.1955
vn -0.0293 -0.9708 -0.2383
vn 0.0309 -0.9719 -0.2333
vn 0.0275 -0.2090 0.9775
vn -0.0263 -0.2103 0.9773
vn -0.5763 -0.7763 -0.2554
vn -0.6290 -0.7342 -0.2557
vn -0.2715 -0.0579 0.9607
vn -0.2747 -0.1013 0.9562
vn -0.9021 -0.1154 -0.4159
vn -0.8873 -0.0631 -0.4569
vn -0.3629 0.1920 0.9118
vn -0.3720 0.1952 0.9075
vn -0.3726 0.1339 0.9183
vt 0.000000 0.000000
s 0
f 217/1/1 111/1/1 109/1/1
f 217/1/2 112/1/3 218/1/3
f 219/1/4 111/1/5 218/1/4
f 219/1/6 112/1/6 120/1/6
f 220/1/7 119/1/8 219/1/7
f 219/1/9 132/1/10 220/1/10
f 220/1/11 101/1/11 131/1/11
f 220/1/12 102/1/12 221/1/12
f 222/1/13 101/1/14 221/1/14
f 222/1/15 102/1/15 100/1/15
f 223/1/16 99/1/16 222/1/16
f 223/1/17 100/1/17 104/1/18
f 223/1/19 109/1/19 103/1/19
f 223/1/20 110/1/20 217/1/20
f 225/1/21 224/1/21 1/1/21
f 225/1/22 4/1/22 2/1/23
f 226/1/24 225/1/24 3/1/24
f 226/1/25 6/1/25 4/1/25
f 226/1/26 5/1/26 9/1/26
f 226/1/27 227/1/27 10/1/27
f 228/1/28 227/1/28 9/1/28
f 228/1/29 18/1/29 10/1/29
f 228/1/30 17/1/30 21/1/30
f 229/1/31 22/1/31 18/1/31
f 230/1/32 229/1/32 21/1/32
f 230/1/33 30/1/33 22/1/33
f 230/1/34 29/1/35 31/1/35
f 230/1/36 231/1/36 32/1/36
f 231/1/37 31/1/37 25/1/37
f 231/1/38 232/1/38 26/1/38
f 232/1/39 25/1/39 13/1/39
f 232/1/40 233/1/40 14/1/40
f 233/1/41 13/1/41 1/1/41
f 224/1/42 2/1/42 14/1/42
f 234/1/43 179/1/43 177/1/43
f 234/1/44 235/1/44 178/1/44
f 236/1/45 235/1/45 177/1/45
f 235/1/46 236/1/46 198/1/46
f 237/1/47 236/1/47 197/1/47
f 237/1/48 200/1/48 198/1/48
f 234/1/49 237/1/49 199/1/49
f 234/1/50 180/1/50 200/1/50
f 239/1/51 238/1/51 87/1/51
f 238/1/52 239/1/52 150/1/52
f 240/1/53 239/1/53 149/1/53
f 239/1/54 240/1/54 152/1/54
f 240/1/55 151/1/55 85/1/55
f 241/1/56 86/1/56 152/1/56
f 238/1/57 241/1/57 85/1/57
f 241/1/58 238/1/58 88/1/58
f 242/1/59 37/1/59 31/1/59
f 243/1/60 32/1/60 38/1/60
f 243/1/61 31/1/61 27/1/61
f 243/1/62 244/1/62 28/1/62
f 245/1/63 244/1/63 27/1/63
f 244/1/64 245/1/64 34/1/64
f 242/1/65 245/1/65 33/1/65
f 245/1/66 242/1/66 38/1/66
f 247/1/67 246/1/67 45/1/67
f 246/1/68 247/1/68 48/1/68
f 247/1/69 47/1/69 1/1/69
f 248/1/70 2/1/70 48/1/70
f 248/1/71 1/1/71 13/1/71
f 248/1/72 249/1/72 14/1/72
f 246/1/73 249/1/73 13/1/73
f 249/1/74 246/1/74 46/1/74
f 250/1/75 43/1/75 25/1/75
f 251/1/76 26/1/76 44/1/76
f 252/1/77 251/1/77 25/1/77
f 252/1/78 32/1/78 26/1/78
f 253/1/79 252/1/79 31/1/79
f 252/1/80 253/1/80 38/1/80
f 253/1/81 37/1/81 43/1/81
f 253/1/82 250/1/82 44/1/82
f 254/1/83 199/1/83 153/1/83
f 255/1/84 154/1/84 200/1/84
f 255/1/85 153/1/86 155/1/85
f 255/1/87 256/1/88 156/1/88
f 257/1/89 256/1/89 155/1/89
f 257/1/90 160/1/90 156/1/90
f 258/1/91 257/1/91 159/1/91
f 257/1/92 258/1/92 180/1/92
f 254/1/93 258/1/93 179/1/93
f 258/1/94 254/1/94 200/1/94
f 260/1/95 259/1/95 43/1/95
f 259/1/96 260/1/96 46/1/96
f 260/1/97 45/1/97 13/1/97
f 261/1/98 14/1/98 46/1/98
f 262/1/99 261/1/99 13/1/99
f 262/1/100 26/1/100 14/1/100
f 259/1/101 262/1/101 25/1/101
f 262/1/102 259/1/102 44/1/102
f 263/1/103 37/1/103 33/1/103
f 264/1/104 34/1/104 38/1/104
f 265/1/105 264/1/105 33/1/105
f 264/1/106 265/1/106 36/1/106
f 266/1/107 265/1/107 35/1/107
f 266/1/108 40/1/108 36/1/108
f 267/1/109 266/1/109 39/1/109
f 267/1/110 42/1/110 40/1/110
f 268/1/111 267/1/111 41/1/111
f 268/1/112 48/1/112 42/1/112
f 268/1/113 47/1/113 45/1/113
f 269/1/114 46/1/114 48/1/114
f 270/1/115 269/1/115 45/1/115
f 269/1/116 270/1/116 44/1/116
f 270/1/117 43/1/117 37/1/117
f 263/1/118 38/1/118 44/1/118
f 271/1/119 131/1/119 129/1/120
f 272/1/121 130/1/121 132/1/122
f 273/1/123 131/1/124 272/1/125
f 272/1/126 120/1/127 273/1/126
f 274/1/128 119/1/128 273/1/128
f 273/1/129 118/1/129 274/1/129
f 271/1/130 117/1/131 274/1/130
f 274/1/132 130/1/133 271/1/133
f 276/1/134 275/1/135 161/1/135
f 276/1/136 158/1/136 162/1/136
f 277/1/137 276/1/137 157/1/137
f 276/1/138 277/1/138 198/1/138
f 278/1/139 277/1/139 197/1/139
f 278/1/140 178/1/140 198/1/140
f 278/1/141 177/1/141 163/1/141
f 279/1/142 164/1/142 178/1/142
f 279/1/143 163/1/143 161/1/143
f 279/1/144 275/1/144 162/1/144
f 281/1/145 280/1/145 9/1/145
f 280/1/146 281/1/146 212/1/146
f 282/1/147 281/1/147 211/1/147
f 282/1/148 208/1/148 212/1/148
f 282/1/149 207/1/149 17/1/149
f 283/1/150 18/1/150 208/1/150
f 280/1/151 283/1/151 17/1/151
f 280/1/152 10/1/152 18/1/152
f 284/1/153 191/1/153 49/1/153
f 285/1/154 50/1/154 192/1/154
f 286/1/155 285/1/155 49/1/155
f 286/1/156 58/1/156 50/1/156
f 287/1/157 286/1/157 57/1/157
f 286/1/158 287/1/158 188/1/158
f 287/1/159 187/1/159 191/1/159
f 284/1/160 192/1/160 188/1/160
f 289/1/161 288/1/161 15/1/161
f 288/1/162 289/1/162 36/1/162
f 290/1/163 289/1/163 35/1/163
f 289/1/164 290/1/164 34/1/164
f 290/1/165 33/1/165 27/1/165
f 291/1/166 28/1/166 34/1/166
f 288/1/167 291/1/167 27/1/167
f 291/1/152 288/1/152 16/1/152
f 292/1/168 187/1/168 57/1/168
f 293/1/169 58/1/169 188/1/169
f 293/1/170 57/1/170 53/1/170
f 294/1/171 54/1/171 58/1/171
f 295/1/172 294/1/172 53/1/172
f 294/1/173 295/1/173 184/1/173
f 292/1/148 295/1/148 183/1/148
f 295/1/147 292/1/147 188/1/147
f 297/1/174 107/1/175 296/1/175
f 296/1/176 114/1/177 297/1/177
f 297/1/178 111/1/178 113/1/178
f 298/1/179 114/1/179 112/1/179
f 298/1/180 109/1/180 111/1/181
f 299/1/182 112/1/182 110/1/182
f 296/1/183 109/1/183 299/1/183
f 299/1/184 108/1/184 296/1/184
f 300/1/185 105/1/185 97/1/186
f 301/1/187 98/1/187 106/1/187
f 301/1/188 103/1/188 105/1/188
f 302/1/189 106/1/189 104/1/189
f 303/1/190 103/1/190 302/1/190
f 302/1/191 100/1/191 303/1/191
f 300/1/192 99/1/193 303/1/192
f 303/1/194 98/1/194 300/1/194
f 304/1/195 109/1/195 107/1/195
f 305/1/196 108/1/196 110/1/196
f 305/1/197 103/1/197 109/1/198
f 306/1/199 110/1/199 104/1/200
f 307/1/201 103/1/201 306/1/201
f 306/1/202 106/1/203 307/1/202
f 304/1/204 105/1/205 307/1/205
f 307/1/206 108/1/206 304/1/206
f 309/1/207 117/1/208 308/1/207
f 309/1/209 118/1/209 120/1/210
f 310/1/211 119/1/212 309/1/211
f 310/1/213 120/1/213 112/1/213
f 311/1/214 111/1/214 310/1/214
f 310/1/215 114/1/215 311/1/215
f 311/1/216 127/1/216 113/1/216
f 312/1/217 114/1/218 128/1/218
f 312/1/219 125/1/219 127/1/219
f 312/1/220 126/1/220 313/1/221
f 313/1/222 121/1/223 125/1/222
f 313/1/224 122/1/224 314/1/224
f 315/1/225 121/1/225 314/1/225
f 315/1/226 122/1/226 124/1/226
f 315/1/227 117/1/227 123/1/227
f 315/1/228 118/1/228 308/1/228
f 316/1/229 59/1/229 61/1/229
f 316/1/230 317/1/230 62/1/230
f 318/1/231 317/1/231 61/1/231
f 318/1/31 52/1/31 62/1/31
f 319/1/232 318/1/232 51/1/232
f 319/1/33 56/1/33 52/1/33
f 319/1/233 55/1/233 53/1/233
f 320/1/234 54/1/234 56/1/234
f 321/1/235 320/1/235 53/1/235
f 321/1/236 58/1/236 54/1/236
f 322/1/39 321/1/39 57/1/39
f 321/1/40 322/1/40 50/1/40
f 322/1/237 49/1/237 63/1/237
f 322/1/238 323/1/238 64/1/238
f 323/1/239 63/1/239 59/1/239
f 323/1/27 316/1/27 60/1/27
f 325/1/240 324/1/241 157/1/241
f 325/1/242 162/1/243 158/1/244
f 326/1/245 325/1/246 161/1/247
f 325/1/248 326/1/249 144/1/250
f 326/1/251 143/1/252 93/1/253
f 327/1/254 94/1/254 144/1/255
f 327/1/256 93/1/256 75/1/256
f 327/1/257 328/1/257 76/1/257
f 329/1/258 328/1/259 75/1/259
f 329/1/260 80/1/261 76/1/262
f 329/1/263 79/1/264 155/1/265
f 329/1/266 330/1/267 156/1/268
f 330/1/269 155/1/270 153/1/271
f 330/1/272 331/1/273 154/1/273
f 324/1/274 331/1/274 153/1/274
f 331/1/275 324/1/275 158/1/275
f 333/1/276 332/1/277 147/1/278
f 332/1/279 333/1/280 152/1/280
f 334/1/281 333/1/281 151/1/281
f 333/1/282 334/1/282 150/1/282
f 334/1/283 149/1/283 145/1/284
f 335/1/285 146/1/286 150/1/287
f 335/1/288 145/1/289 147/1/290
f 335/1/291 332/1/292 148/1/293
f 337/1/294 336/1/295 143/1/295
f 337/1/296 148/1/297 144/1/298
f 338/1/299 337/1/300 147/1/301
f 337/1/302 338/1/303 146/1/304
f 338/1/305 145/1/306 141/1/307
f 338/1/308 339/1/309 142/1/309
f 340/1/310 339/1/310 141/1/310
f 340/1/311 96/1/311 142/1/311
f 341/1/312 340/1/312 95/1/312
f 340/1/313 341/1/313 94/1/313
f 341/1/314 93/1/315 143/1/314
f 341/1/316 336/1/316 144/1/316
f 342/1/317 195/1/317 63/1/317
f 343/1/318 64/1/318 196/1/318
f 344/1/319 343/1/319 63/1/319
f 343/1/320 344/1/320 50/1/320
f 345/1/321 344/1/321 49/1/321
f 344/1/322 345/1/322 192/1/322
f 342/1/323 345/1/323 191/1/323
f 345/1/324 342/1/324 196/1/324
f 347/1/325 346/1/326 141/1/327
f 347/1/328 74/1/329 142/1/330
f 347/1/331 73/1/332 77/1/333
f 347/1/334 348/1/335 78/1/335
f 349/1/336 348/1/336 77/1/336
f 349/1/337 96/1/337 78/1/337
f 346/1/338 349/1/339 95/1/339
f 349/1/340 346/1/341 142/1/342
f 351/1/343 350/1/343 91/1/343
f 351/1/344 72/1/344 92/1/344
f 351/1/345 71/1/345 69/1/345
f 351/1/346 352/1/346 70/1/346
f 353/1/347 352/1/347 69/1/347
f 352/1/348 353/1/348 90/1/348
f 350/1/349 353/1/349 89/1/349
f 353/1/350 350/1/350 92/1/350
f 354/1/351 143/1/352 161/1/353
f 355/1/354 162/1/355 144/1/356
f 355/1/357 161/1/358 163/1/359
f 355/1/360 356/1/361 164/1/362
f 357/1/363 356/1/364 163/1/365
f 356/1/366 357/1/367 160/1/368
f 358/1/369 357/1/370 159/1/371
f 358/1/372 156/1/373 160/1/374
f 359/1/375 358/1/376 155/1/377
f 358/1/378 359/1/379 80/1/380
f 359/1/381 79/1/382 81/1/383
f 359/1/384 360/1/385 82/1/386
f 361/1/387 360/1/388 81/1/389
f 360/1/390 361/1/391 86/1/392
f 361/1/393 85/1/394 151/1/395
f 361/1/396 362/1/397 152/1/398
f 363/1/399 362/1/400 151/1/401
f 363/1/402 148/1/403 152/1/404
f 354/1/405 363/1/406 147/1/407
f 354/1/408 144/1/409 148/1/410
f 365/1/411 364/1/412 73/1/413
f 365/1/414 80/1/415 74/1/416
f 365/1/417 79/1/418 75/1/419
f 365/1/420 366/1/421 76/1/421
f 367/1/422 366/1/422 75/1/422
f 366/1/423 367/1/423 78/1/423
f 364/1/424 367/1/425 77/1/425
f 364/1/426 74/1/427 78/1/428
f 368/1/429 83/1/430 87/1/431
f 368/1/432 369/1/433 88/1/433
f 369/1/434 87/1/434 85/1/434
f 370/1/435 86/1/435 88/1/435
f 371/1/436 370/1/437 85/1/437
f 371/1/438 82/1/439 86/1/440
f 368/1/441 371/1/442 81/1/443
f 368/1/444 84/1/445 82/1/446
f 372/1/447 175/1/447 173/1/447
f 372/1/448 373/1/448 174/1/448
f 374/1/449 373/1/449 173/1/449
f 374/1/450 172/1/450 174/1/450
f 375/1/451 374/1/451 171/1/451
f 374/1/452 375/1/452 68/1/452
f 375/1/453 67/1/453 71/1/454
f 376/1/455 72/1/455 68/1/455
f 377/1/456 376/1/456 71/1/456
f 377/1/457 92/1/457 72/1/457
f 377/1/458 91/1/458 175/1/458
f 377/1/459 372/1/459 176/1/459
f 379/1/148 378/1/148 205/1/148
f 378/1/147 379/1/147 210/1/147
f 379/1/460 209/1/460 19/1/460
f 380/1/461 20/1/461 210/1/461
f 381/1/71 380/1/71 19/1/71
f 380/1/171 381/1/171 24/1/171
f 378/1/172 381/1/172 23/1/172
f 381/1/462 378/1/462 206/1/462
f 382/1/30 7/1/30 15/1/30
f 382/1/463 383/1/463 16/1/463
f 383/1/229 15/1/229 27/1/229
f 383/1/29 384/1/29 28/1/29
f 385/1/464 384/1/464 27/1/464
f 385/1/465 32/1/465 28/1/466
f 386/1/467 385/1/467 31/1/467
f 386/1/468 30/1/468 32/1/468
f 386/1/469 29/1/469 23/1/469
f 386/1/234 387/1/234 24/1/234
f 387/1/235 23/1/235 19/1/235
f 387/1/42 388/1/42 20/1/42
f 388/1/39 19/1/39 11/1/39
f 389/1/470 12/1/470 20/1/470
f 390/1/237 389/1/237 11/1/237
f 390/1/238 6/1/238 12/1/238
f 390/1/471 5/1/472 3/1/472
f 390/1/473 391/1/473 4/1/473
f 391/1/474 3/1/474 7/1/474
f 391/1/475 382/1/475 8/1/475
f 392/1/476 205/1/476 23/1/476
f 393/1/477 24/1/477 206/1/477
f 394/1/478 393/1/478 23/1/478
f 393/1/479 394/1/479 30/1/479
f 395/1/480 394/1/480 29/1/480
f 394/1/481 395/1/481 202/1/481
f 395/1/482 201/1/482 205/1/482
f 395/1/483 392/1/483 206/1/483
f 396/1/476 183/1/476 53/1/476
f 397/1/477 54/1/477 184/1/477
f 398/1/484 397/1/484 53/1/484
f 398/1/485 56/1/485 54/1/485
f 399/1/480 398/1/480 55/1/480
f 398/1/481 399/1/481 182/1/481
f 399/1/482 181/1/482 183/1/482
f 396/1/483 184/1/483 182/1/483
f 401/1/486 400/1/486 61/1/486
f 400/1/487 401/1/487 190/1/487
f 402/1/160 401/1/160 189/1/160
f 401/1/159 402/1/159 186/1/159
f 402/1/488 185/1/488 51/1/488
f 403/1/489 52/1/489 186/1/489
f 403/1/490 51/1/490 61/1/490
f 400/1/491 62/1/491 52/1/491
f 405/1/492 404/1/492 7/1/492
f 404/1/493 405/1/493 40/1/493
f 406/1/494 405/1/494 39/1/494
f 406/1/495 36/1/495 40/1/495
f 406/1/496 35/1/496 15/1/496
f 407/1/497 16/1/497 36/1/497
f 407/1/498 15/1/498 7/1/498
f 404/1/491 8/1/491 16/1/491
f 409/1/499 408/1/499 51/1/499
f 408/1/500 409/1/500 186/1/500
f 410/1/324 409/1/324 185/1/324
f 409/1/323 410/1/323 182/1/323
f 410/1/501 181/1/501 55/1/501
f 411/1/502 56/1/502 182/1/502
f 408/1/503 411/1/503 55/1/503
f 408/1/504 52/1/504 56/1/504
f 413/1/505 412/1/505 159/1/505
f 413/1/506 164/1/506 160/1/506
f 414/1/507 413/1/507 163/1/507
f 413/1/508 414/1/508 178/1/508
f 415/1/509 414/1/509 177/1/509
f 414/1/510 415/1/510 180/1/510
f 415/1/511 179/1/511 159/1/511
f 412/1/512 160/1/512 180/1/512
f 417/1/145 416/1/145 59/1/145
f 416/1/146 417/1/146 194/1/146
f 418/1/147 417/1/147 193/1/147
f 417/1/148 418/1/148 190/1/148
f 418/1/149 189/1/149 61/1/149
f 419/1/150 62/1/150 190/1/150
f 419/1/167 61/1/167 59/1/167
f 419/1/513 416/1/513 60/1/513
f 421/1/514 420/1/514 157/1/514
f 420/1/515 421/1/515 154/1/515
f 422/1/516 421/1/516 153/1/516
f 421/1/517 422/1/517 200/1/517
f 423/1/518 422/1/518 199/1/518
f 422/1/519 423/1/519 198/1/519
f 423/1/520 197/1/520 157/1/520
f 420/1/521 158/1/521 198/1/521
f 425/1/522 424/1/522 63/1/522
f 424/1/523 425/1/523 196/1/523
f 426/1/483 425/1/483 195/1/483
f 426/1/482 194/1/482 196/1/482
f 426/1/524 193/1/524 59/1/524
f 427/1/525 60/1/525 194/1/525
f 427/1/526 59/1/526 63/1/526
f 424/1/527 64/1/527 60/1/527
f 428/1/528 73/1/529 83/1/530
f 428/1/531 429/1/532 84/1/533
f 430/1/534 429/1/535 83/1/536
f 429/1/537 430/1/538 82/1/539
f 431/1/540 430/1/541 81/1/542
f 431/1/543 80/1/544 82/1/545
f 428/1/546 431/1/547 79/1/548
f 431/1/549 428/1/550 74/1/551
f 432/1/552 101/1/552 115/1/552
f 433/1/553 116/1/553 102/1/553
f 433/1/554 131/1/554 101/1/555
f 433/1/556 132/1/557 434/1/556
f 434/1/558 129/1/558 131/1/559
f 434/1/560 130/1/561 435/1/560
f 436/1/562 129/1/562 435/1/562
f 436/1/563 130/1/563 136/1/563
f 436/1/564 133/1/564 135/1/564
f 436/1/565 134/1/565 437/1/566
f 438/1/567 133/1/568 437/1/567
f 438/1/569 134/1/569 138/1/570
f 439/1/571 137/1/571 438/1/571
f 439/1/572 138/1/572 140/1/572
f 432/1/573 139/1/574 439/1/573
f 439/1/575 116/1/575 432/1/575
f 441/1/576 440/1/576 3/1/576
f 440/1/577 441/1/577 42/1/577
f 441/1/578 41/1/578 39/1/578
f 442/1/579 40/1/579 42/1/579
f 442/1/580 39/1/580 7/1/580
f 443/1/581 8/1/581 40/1/581
f 440/1/582 443/1/582 7/1/582
f 440/1/583 4/1/583 8/1/583
f 444/1/584 137/1/584 139/1/584
f 445/1/585 140/1/585 138/1/585
f 446/1/586 137/1/587 445/1/588
f 445/1/589 126/1/590 446/1/589
f 447/1/591 125/1/591 446/1/591
f 446/1/592 128/1/592 447/1/592
f 444/1/593 127/1/594 447/1/595
f 447/1/596 140/1/597 444/1/597
f 449/1/598 137/1/599 448/1/599
f 448/1/600 134/1/601 449/1/602
f 450/1/603 133/1/604 449/1/605
f 450/1/606 134/1/606 122/1/606
f 450/1/607 125/1/607 121/1/608
f 451/1/609 122/1/610 126/1/609
f 448/1/611 125/1/612 451/1/611
f 451/1/613 138/1/614 448/1/613
f 453/1/615 452/1/615 167/1/615
f 453/1/616 170/1/616 168/1/616
f 454/1/617 453/1/617 169/1/617
f 454/1/618 90/1/618 170/1/618
f 454/1/619 89/1/619 69/1/619
f 454/1/620 455/1/620 70/1/620
f 456/1/621 455/1/621 69/1/621
f 455/1/622 456/1/622 66/1/622
f 457/1/452 456/1/452 65/1/452
f 456/1/451 457/1/451 166/1/451
f 457/1/623 165/1/623 167/1/623
f 457/1/624 452/1/624 168/1/624
f 458/1/625 123/1/625 135/1/626
f 458/1/627 124/1/627 459/1/627
f 460/1/628 123/1/628 459/1/628
f 459/1/629 122/1/629 460/1/629
f 461/1/630 121/1/631 460/1/632
f 460/1/633 134/1/633 461/1/633
f 461/1/634 135/1/634 133/1/634
f 458/1/635 134/1/635 136/1/635
f 463/1/636 462/1/636 91/1/636
f 462/1/637 463/1/637 90/1/637
f 464/1/638 463/1/638 89/1/638
f 463/1/639 464/1/640 170/1/640
f 465/1/641 464/1/641 169/1/641
f 464/1/642 465/1/642 176/1/642
f 465/1/643 175/1/643 91/1/643
f 462/1/644 92/1/644 176/1/644
f 466/1/317 215/1/317 5/1/317
f 467/1/645 6/1/645 216/1/645
f 468/1/319 467/1/319 5/1/319
f 467/1/320 468/1/320 12/1/320
f 469/1/646 468/1/646 11/1/646
f 468/1/322 469/1/322 214/1/322
f 466/1/323 469/1/323 213/1/323
f 469/1/324 466/1/324 216/1/324
f 471/1/647 470/1/647 1/1/647
f 470/1/648 471/1/648 48/1/648
f 471/1/649 47/1/649 41/1/649
f 471/1/650 472/1/650 42/1/650
f 472/1/651 41/1/651 3/1/651
f 473/1/652 4/1/652 42/1/652
f 473/1/653 3/1/653 1/1/653
f 473/1/654 470/1/654 2/1/654
f 475/1/499 474/1/499 21/1/499
f 474/1/500 475/1/500 204/1/500
f 476/1/324 475/1/324 203/1/324
f 476/1/323 202/1/323 204/1/323
f 476/1/501 201/1/501 29/1/501
f 477/1/655 30/1/655 202/1/655
f 477/1/503 29/1/503 21/1/503
f 474/1/504 22/1/504 30/1/504
f 479/1/656 101/1/656 478/1/656
f 478/1/657 116/1/658 479/1/658
f 479/1/659 97/1/659 115/1/659
f 480/1/660 116/1/661 98/1/661
f 480/1/662 99/1/662 97/1/662
f 481/1/663 98/1/663 100/1/663
f 478/1/664 99/1/664 481/1/664
f 481/1/665 102/1/666 478/1/666
f 483/1/667 482/1/667 17/1/667
f 482/1/487 483/1/487 208/1/487
f 483/1/160 207/1/160 203/1/160
f 483/1/159 484/1/159 204/1/159
f 484/1/488 203/1/488 21/1/488
f 485/1/489 22/1/489 204/1/489
f 482/1/498 485/1/498 21/1/498
f 482/1/668 18/1/668 22/1/668
f 487/1/669 486/1/669 175/1/669
f 487/1/670 170/1/670 176/1/670
f 488/1/671 487/1/671 169/1/671
f 487/1/672 488/1/672 168/1/672
f 489/1/673 488/1/673 167/1/673
f 488/1/674 489/1/674 174/1/674
f 489/1/675 173/1/675 175/1/675
f 486/1/676 176/1/676 174/1/676
f 491/1/677 490/1/677 95/1/677
f 490/1/678 491/1/678 78/1/678
f 492/1/679 491/1/679 77/1/679
f 491/1/680 492/1/680 76/1/680
f 492/1/681 75/1/681 93/1/681
f 493/1/682 94/1/682 76/1/682
f 490/1/683 493/1/683 93/1/683
f 493/1/684 490/1/684 96/1/684
f 495/1/522 494/1/522 5/1/522
f 494/1/523 495/1/523 216/1/523
f 495/1/483 215/1/483 211/1/483
f 495/1/482 496/1/482 212/1/482
f 496/1/524 211/1/524 9/1/524
f 497/1/525 10/1/525 212/1/525
f 497/1/526 9/1/526 5/1/526
f 497/1/527 494/1/527 6/1/527
f 498/1/153 213/1/153 11/1/153
f 499/1/154 12/1/154 214/1/154
f 499/1/99 11/1/99 19/1/99
f 500/1/100 20/1/100 12/1/100
f 501/1/685 500/1/685 19/1/685
f 500/1/158 501/1/158 210/1/158
f 501/1/159 209/1/159 213/1/159
f 501/1/160 498/1/160 214/1/160
f 503/1/686 502/1/686 67/1/686
f 502/1/687 503/1/687 66/1/687
f 503/1/688 65/1/688 69/1/688
f 504/1/689 70/1/689 66/1/689
f 505/1/690 504/1/690 69/1/690
f 504/1/691 505/1/691 72/1/691
f 502/1/692 505/1/692 71/1/692
f 505/1/693 502/1/693 68/1/693
f 507/1/694 506/1/694 171/1/694
f 506/1/695 507/1/695 174/1/695
f 508/1/696 507/1/696 173/1/696
f 507/1/697 508/1/697 168/1/697
f 508/1/698 167/1/698 165/1/698
f 509/1/699 166/1/699 168/1/699
f 506/1/687 509/1/687 165/1/687
f 509/1/700 506/1/700 172/1/700
f 511/1/701 123/1/702 510/1/703
f 510/1/704 136/1/705 511/1/706
f 512/1/707 135/1/707 511/1/707
f 511/1/708 130/1/708 512/1/708
f 513/1/709 129/1/710 512/1/709
f 512/1/711 118/1/712 513/1/713
f 513/1/714 123/1/714 117/1/714
f 510/1/715 118/1/715 124/1/715
f 514/1/716 73/1/717 141/1/718
f 515/1/719 142/1/720 74/1/721
f 515/1/722 141/1/723 145/1/724
f 515/1/725 516/1/726 146/1/727
f 516/1/728 145/1/729 149/1/730
f 516/1/731 517/1/732 150/1/733
f 518/1/734 517/1/735 149/1/736
f 518/1/737 88/1/738 150/1/739
f 518/1/740 87/1/741 83/1/742
f 519/1/743 84/1/744 88/1/745
f 514/1/746 519/1/747 83/1/748
f 514/1/749 74/1/750 84/1/751
f 217/1/752 218/1/753 111/1/753
f 217/1/2 110/1/2 112/1/2
f 219/1/4 119/1/4 111/1/4
f 219/1/754 218/1/754 112/1/754
f 220/1/755 131/1/756 119/1/756
f 219/1/757 120/1/758 132/1/757
f 220/1/11 221/1/11 101/1/759
f 220/1/760 132/1/760 102/1/760
f 222/1/761 99/1/761 101/1/761
f 222/1/15 221/1/762 102/1/762
f 223/1/763 103/1/763 99/1/763
f 223/1/764 222/1/764 100/1/764
f 223/1/765 217/1/765 109/1/765
f 223/1/766 104/1/766 110/1/766
f 225/1/767 1/1/767 3/1/767
f 225/1/768 2/1/768 224/1/768
f 226/1/769 3/1/769 5/1/770
f 226/1/771 4/1/771 225/1/771
f 226/1/772 9/1/772 227/1/772
f 226/1/27 10/1/27 6/1/27
f 228/1/28 9/1/28 17/1/28
f 228/1/773 10/1/773 227/1/773
f 228/1/30 21/1/30 229/1/30
f 229/1/774 18/1/774 228/1/774
f 230/1/232 21/1/232 29/1/232
f 230/1/33 22/1/33 229/1/33
f 230/1/775 31/1/775 231/1/775
f 230/1/776 32/1/776 30/1/776
f 231/1/777 25/1/777 232/1/777
f 231/1/778 26/1/778 32/1/778
f 232/1/779 13/1/779 233/1/779
f 232/1/470 14/1/470 26/1/470
f 233/1/780 1/1/780 224/1/780
f 224/1/781 14/1/781 233/1/781
f 234/1/43 177/1/43 235/1/43
f 234/1/44 178/1/44 180/1/44
f 236/1/45 177/1/45 197/1/45
f 235/1/46 198/1/46 178/1/46
f 237/1/47 197/1/47 199/1/47
f 237/1/782 198/1/782 236/1/782
f 234/1/49 199/1/49 179/1/49
f 234/1/50 200/1/50 237/1/50
f 239/1/51 87/1/51 149/1/51
f 238/1/783 150/1/783 88/1/783
f 240/1/53 149/1/53 151/1/53
f 239/1/54 152/1/54 150/1/54
f 240/1/55 85/1/55 241/1/55
f 241/1/784 152/1/784 240/1/784
f 238/1/785 85/1/785 87/1/785
f 241/1/786 88/1/786 86/1/786
f 242/1/59 31/1/59 243/1/59
f 243/1/60 38/1/60 242/1/60
f 243/1/787 27/1/787 244/1/787
f 243/1/788 28/1/788 32/1/788
f 245/1/63 27/1/63 33/1/63
f 244/1/789 34/1/789 28/1/789
f 242/1/790 33/1/790 37/1/790
f 245/1/791 38/1/791 34/1/791
f 247/1/67 45/1/67 47/1/67
f 246/1/792 48/1/792 46/1/792
f 247/1/69 1/1/69 248/1/69
f 248/1/70 48/1/70 247/1/70
f 248/1/170 13/1/170 249/1/170
f 248/1/171 14/1/171 2/1/171
f 246/1/73 13/1/73 45/1/73
f 249/1/74 46/1/74 14/1/74
f 250/1/793 25/1/793 251/1/793
f 251/1/76 44/1/76 250/1/76
f 252/1/794 25/1/794 31/1/794
f 252/1/795 26/1/795 251/1/796
f 253/1/79 31/1/79 37/1/79
f 252/1/80 38/1/80 32/1/80
f 253/1/81 43/1/81 250/1/81
f 253/1/797 44/1/797 38/1/797
f 254/1/798 153/1/798 255/1/798
f 255/1/799 200/1/799 254/1/799
f 255/1/800 155/1/801 256/1/801
f 255/1/88 156/1/88 154/1/88
f 257/1/802 155/1/802 159/1/802
f 257/1/803 156/1/803 256/1/803
f 258/1/804 159/1/804 179/1/804
f 257/1/805 180/1/805 160/1/805
f 254/1/93 179/1/93 199/1/93
f 258/1/94 200/1/94 180/1/94
f 260/1/95 43/1/95 45/1/95
f 259/1/806 46/1/806 44/1/806
f 260/1/97 13/1/97 261/1/97
f 261/1/98 46/1/98 260/1/98
f 262/1/99 13/1/99 25/1/99
f 262/1/100 14/1/100 261/1/100
f 259/1/101 25/1/101 43/1/101
f 262/1/807 44/1/807 26/1/807
f 263/1/808 33/1/808 264/1/808
f 264/1/809 38/1/809 263/1/809
f 265/1/810 33/1/810 35/1/810
f 264/1/811 36/1/811 34/1/811
f 266/1/812 35/1/812 39/1/812
f 266/1/813 36/1/813 265/1/813
f 267/1/814 39/1/814 41/1/814
f 267/1/110 40/1/110 266/1/110
f 268/1/111 41/1/111 47/1/111
f 268/1/815 42/1/815 267/1/815
f 268/1/816 45/1/816 269/1/816
f 269/1/817 48/1/817 268/1/817
f 270/1/115 45/1/115 43/1/115
f 269/1/116 44/1/116 46/1/116
f 270/1/117 37/1/117 263/1/117
f 263/1/818 44/1/818 270/1/818
f 271/1/119 272/1/119 131/1/119
f 272/1/121 271/1/122 130/1/819
f 273/1/820 119/1/821 131/1/821
f 272/1/822 132/1/823 120/1/823
f 274/1/824 117/1/825 119/1/825
f 273/1/129 120/1/129 118/1/826
f 271/1/827 129/1/130 117/1/130
f 274/1/828 118/1/133 130/1/828
f 276/1/829 161/1/829 157/1/830
f 276/1/136 162/1/831 275/1/136
f 277/1/832 157/1/832 197/1/832
f 276/1/138 198/1/138 158/1/138
f 278/1/139 197/1/139 177/1/139
f 278/1/140 198/1/140 277/1/140
f 278/1/833 163/1/833 279/1/833
f 279/1/834 178/1/834 278/1/834
f 279/1/835 161/1/835 275/1/835
f 279/1/836 162/1/836 164/1/836
f 281/1/145 9/1/145 211/1/145
f 280/1/146 212/1/146 10/1/146
f 282/1/147 211/1/147 207/1/147
f 282/1/148 212/1/148 281/1/148
f 282/1/837 17/1/837 283/1/837
f 283/1/838 208/1/838 282/1/838
f 280/1/839 17/1/839 9/1/839
f 280/1/152 18/1/152 283/1/152
f 284/1/153 49/1/153 285/1/153
f 285/1/840 192/1/840 284/1/840
f 286/1/155 49/1/155 57/1/155
f 286/1/156 50/1/156 285/1/156
f 287/1/685 57/1/685 187/1/685
f 286/1/841 188/1/841 58/1/841
f 287/1/159 191/1/159 284/1/159
f 284/1/160 188/1/160 287/1/160
f 289/1/161 15/1/161 35/1/161
f 288/1/842 36/1/842 16/1/842
f 290/1/843 35/1/843 33/1/843
f 289/1/844 34/1/844 36/1/844
f 290/1/845 27/1/845 291/1/845
f 291/1/846 34/1/846 290/1/846
f 288/1/839 27/1/839 15/1/839
f 291/1/152 16/1/152 28/1/152
f 292/1/460 57/1/460 293/1/460
f 293/1/461 188/1/461 292/1/461
f 293/1/170 53/1/170 294/1/170
f 294/1/171 58/1/171 293/1/171
f 295/1/172 53/1/172 183/1/172
f 294/1/462 184/1/462 54/1/462
f 292/1/148 183/1/148 187/1/148
f 295/1/147 188/1/147 184/1/147
f 297/1/175 113/1/175 107/1/175
f 296/1/177 108/1/847 114/1/847
f 297/1/848 298/1/848 111/1/848
f 298/1/849 297/1/179 114/1/179
f 298/1/180 299/1/180 109/1/180
f 299/1/850 298/1/182 112/1/850
f 296/1/851 107/1/851 109/1/851
f 299/1/184 110/1/184 108/1/184
f 300/1/852 301/1/853 105/1/853
f 301/1/854 300/1/854 98/1/854
f 301/1/188 302/1/188 103/1/188
f 302/1/189 301/1/189 106/1/855
f 303/1/190 99/1/856 103/1/190
f 302/1/191 104/1/857 100/1/191
f 300/1/192 97/1/192 99/1/192
f 303/1/858 100/1/858 98/1/858
f 304/1/859 305/1/195 109/1/859
f 305/1/860 304/1/860 108/1/860
f 305/1/197 306/1/197 103/1/197
f 306/1/200 305/1/200 110/1/200
f 307/1/201 105/1/201 103/1/201
f 306/1/202 104/1/202 106/1/202
f 304/1/861 107/1/862 105/1/861
f 307/1/863 106/1/863 108/1/863
f 309/1/864 119/1/865 117/1/865
f 309/1/866 308/1/867 118/1/866
f 310/1/868 111/1/868 119/1/868
f 310/1/869 309/1/869 120/1/869
f 311/1/870 113/1/870 111/1/870
f 310/1/215 112/1/215 114/1/215
f 311/1/216 312/1/216 127/1/871
f 312/1/872 311/1/872 114/1/872
f 312/1/219 313/1/219 125/1/219
f 312/1/220 128/1/220 126/1/220
f 313/1/873 314/1/874 121/1/873
f 313/1/224 126/1/224 122/1/224
f 315/1/875 123/1/875 121/1/875
f 315/1/876 314/1/877 122/1/876
f 315/1/878 308/1/879 117/1/880
f 315/1/881 124/1/881 118/1/881
f 316/1/28 61/1/28 317/1/28
f 316/1/29 62/1/29 60/1/29
f 318/1/30 61/1/30 51/1/30
f 318/1/774 62/1/774 317/1/774
f 319/1/32 51/1/32 55/1/32
f 319/1/33 52/1/33 318/1/33
f 319/1/469 53/1/469 320/1/469
f 320/1/234 56/1/234 319/1/234
f 321/1/882 53/1/882 57/1/882
f 321/1/236 54/1/236 320/1/236
f 322/1/883 57/1/883 49/1/883
f 321/1/40 50/1/40 58/1/40
f 322/1/884 63/1/884 323/1/884
f 322/1/238 64/1/238 50/1/238
f 323/1/26 59/1/26 316/1/26
f 323/1/27 60/1/27 64/1/27
f 325/1/885 157/1/886 161/1/887
f 325/1/242 158/1/888 324/1/888
f 326/1/889 161/1/890 143/1/891
f 325/1/892 144/1/250 162/1/893
f 326/1/894 93/1/895 327/1/895
f 327/1/254 144/1/896 326/1/897
f 327/1/898 75/1/898 328/1/898
f 327/1/899 76/1/899 94/1/899
f 329/1/900 75/1/901 79/1/902
f 329/1/260 76/1/262 328/1/262
f 329/1/903 155/1/904 330/1/905
f 329/1/906 156/1/268 80/1/907
f 330/1/908 153/1/909 331/1/909
f 330/1/272 154/1/910 156/1/911
f 324/1/274 153/1/274 157/1/274
f 331/1/275 158/1/275 154/1/275
f 333/1/912 147/1/278 151/1/912
f 332/1/279 152/1/280 148/1/913
f 334/1/281 151/1/281 149/1/281
f 333/1/914 150/1/914 152/1/914
f 334/1/915 145/1/284 335/1/916
f 335/1/917 150/1/287 334/1/287
f 335/1/918 147/1/919 332/1/920
f 335/1/291 148/1/293 146/1/921
f 337/1/922 143/1/295 147/1/923
f 337/1/296 144/1/924 336/1/924
f 338/1/299 147/1/301 145/1/925
f 337/1/302 146/1/304 148/1/926
f 338/1/927 141/1/307 339/1/307
f 338/1/308 142/1/309 146/1/928
f 340/1/929 141/1/929 95/1/929
f 340/1/311 142/1/311 339/1/311
f 341/1/312 95/1/312 93/1/312
f 340/1/313 94/1/313 96/1/313
f 341/1/930 143/1/930 336/1/930
f 341/1/316 144/1/316 94/1/316
f 342/1/317 63/1/317 343/1/317
f 343/1/645 196/1/645 342/1/645
f 344/1/319 63/1/319 49/1/319
f 343/1/931 50/1/931 64/1/931
f 345/1/321 49/1/321 191/1/321
f 344/1/322 192/1/322 50/1/322
f 342/1/323 191/1/323 195/1/323
f 345/1/324 196/1/324 192/1/324
f 347/1/932 141/1/327 73/1/933
f 347/1/328 142/1/934 346/1/935
f 347/1/936 77/1/937 348/1/937
f 347/1/334 78/1/335 74/1/938
f 349/1/939 77/1/939 95/1/939
f 349/1/940 78/1/940 348/1/940
f 346/1/941 95/1/942 141/1/943
f 349/1/944 142/1/945 96/1/944
f 351/1/343 91/1/343 71/1/343
f 351/1/344 92/1/344 350/1/344
f 351/1/946 69/1/946 352/1/946
f 351/1/346 70/1/346 72/1/346
f 353/1/347 69/1/347 89/1/347
f 352/1/348 90/1/348 70/1/348
f 350/1/947 89/1/947 91/1/947
f 353/1/350 92/1/350 90/1/350
f 354/1/351 161/1/948 355/1/949
f 355/1/354 144/1/356 354/1/950
f 355/1/951 163/1/952 356/1/953
f 355/1/360 164/1/362 162/1/954
f 357/1/363 163/1/955 159/1/956
f 356/1/957 160/1/368 164/1/958
f 358/1/959 159/1/960 155/1/961
f 358/1/372 160/1/374 357/1/962
f 359/1/963 155/1/377 79/1/964
f 358/1/965 80/1/966 156/1/967
f 359/1/381 81/1/383 360/1/968
f 359/1/384 82/1/386 80/1/969
f 361/1/387 81/1/389 85/1/970
f 360/1/390 86/1/971 82/1/972
f 361/1/973 151/1/395 362/1/974
f 361/1/396 152/1/398 86/1/975
f 363/1/976 151/1/401 147/1/977
f 363/1/402 152/1/404 362/1/978
f 354/1/979 147/1/407 143/1/980
f 354/1/408 148/1/410 363/1/981
f 365/1/982 73/1/413 79/1/983
f 365/1/414 74/1/416 364/1/984
f 365/1/985 75/1/986 366/1/986
f 365/1/987 76/1/988 80/1/989
f 367/1/422 75/1/422 77/1/422
f 366/1/423 78/1/423 76/1/423
f 364/1/990 77/1/991 73/1/992
f 364/1/993 78/1/994 367/1/994
f 368/1/429 87/1/431 369/1/431
f 368/1/995 88/1/996 84/1/997
f 369/1/434 85/1/434 370/1/434
f 370/1/435 88/1/435 369/1/435
f 371/1/436 85/1/998 81/1/999
f 371/1/438 86/1/440 370/1/440
f 368/1/1000 81/1/1001 83/1/1002
f 368/1/444 82/1/446 371/1/1003
f 372/1/447 173/1/447 373/1/447
f 372/1/448 174/1/448 176/1/448
f 374/1/1004 173/1/1004 171/1/1005
f 374/1/450 174/1/450 373/1/450
f 375/1/451 171/1/451 67/1/451
f 374/1/452 68/1/452 172/1/452
f 375/1/1006 71/1/1006 376/1/1006
f 376/1/455 68/1/455 375/1/455
f 377/1/1007 71/1/1007 91/1/1007
f 377/1/457 72/1/457 376/1/457
f 377/1/1008 175/1/1009 372/1/1009
f 377/1/1010 176/1/1010 92/1/1010
f 379/1/148 205/1/148 209/1/148
f 378/1/147 210/1/147 206/1/147
f 379/1/168 19/1/168 380/1/168
f 380/1/461 210/1/461 379/1/461
f 381/1/71 19/1/71 23/1/71
f 380/1/1011 24/1/1011 20/1/1011
f 378/1/172 23/1/172 205/1/172
f 381/1/462 206/1/462 24/1/462
f 382/1/231 15/1/231 383/1/231
f 382/1/774 16/1/774 8/1/774
f 383/1/229 27/1/229 384/1/229
f 383/1/230 28/1/230 16/1/230
f 385/1/1012 27/1/1012 31/1/1012
f 385/1/1013 28/1/1013 384/1/1013
f 386/1/1014 31/1/1014 29/1/1015
f 386/1/1016 32/1/1016 385/1/1016
f 386/1/233 23/1/233 387/1/233
f 386/1/234 24/1/234 30/1/234
f 387/1/780 19/1/780 388/1/780
f 387/1/42 20/1/42 24/1/42
f 388/1/39 11/1/39 389/1/39
f 389/1/1017 20/1/1017 388/1/1017
f 390/1/884 11/1/884 5/1/884
f 390/1/238 12/1/238 389/1/238
f 390/1/1018 3/1/1018 391/1/1018
f 390/1/1019 4/1/1019 6/1/1019
f 391/1/1020 7/1/1020 382/1/1020
f 391/1/1021 8/1/1021 4/1/1021
f 392/1/476 23/1/476 393/1/476
f 393/1/1022 206/1/1022 392/1/1022
f 394/1/484 23/1/484 29/1/484
f 393/1/485 30/1/485 24/1/485
f 395/1/480 29/1/480 201/1/480
f 394/1/481 202/1/481 30/1/481
f 395/1/482 205/1/482 392/1/482
f 395/1/483 206/1/483 202/1/483
f 396/1/476 53/1/476 397/1/476
f 397/1/477 184/1/477 396/1/477
f 398/1/484 53/1/484 55/1/484
f 398/1/479 54/1/479 397/1/479
f 399/1/480 55/1/480 181/1/480
f 398/1/1023 182/1/1023 56/1/1023
f 399/1/482 183/1/482 396/1/482
f 396/1/483 182/1/483 399/1/483
f 401/1/486 61/1/486 189/1/486
f 400/1/1024 190/1/1024 62/1/1024
f 402/1/160 189/1/160 185/1/160
f 401/1/159 186/1/159 190/1/159
f 402/1/488 51/1/488 403/1/488
f 403/1/489 186/1/489 402/1/489
f 403/1/498 61/1/498 400/1/498
f 400/1/491 52/1/491 403/1/491
f 405/1/1025 7/1/1025 39/1/1025
f 404/1/493 40/1/493 8/1/493
f 406/1/1026 39/1/1026 35/1/1026
f 406/1/1027 40/1/1027 405/1/1027
f 406/1/1028 15/1/1028 407/1/1028
f 407/1/1029 36/1/1029 406/1/1029
f 407/1/1030 7/1/1030 404/1/1030
f 404/1/1031 16/1/1031 407/1/1031
f 409/1/499 51/1/499 185/1/499
f 408/1/500 186/1/500 52/1/500
f 410/1/324 185/1/324 181/1/324
f 409/1/323 182/1/323 186/1/323
f 410/1/501 55/1/501 411/1/501
f 411/1/655 182/1/655 410/1/655
f 408/1/503 55/1/503 51/1/503
f 408/1/504 56/1/504 411/1/504
f 413/1/1032 159/1/1032 163/1/1032
f 413/1/506 160/1/506 412/1/506
f 414/1/1033 163/1/1033 177/1/1033
f 413/1/1034 178/1/1034 164/1/1034
f 415/1/509 177/1/509 179/1/509
f 414/1/510 180/1/510 178/1/510
f 415/1/1035 159/1/1035 412/1/1035
f 412/1/512 180/1/512 415/1/512
f 417/1/145 59/1/145 193/1/145
f 416/1/146 194/1/146 60/1/146
f 418/1/147 193/1/147 189/1/147
f 417/1/148 190/1/148 194/1/148
f 418/1/149 61/1/149 419/1/149
f 419/1/838 190/1/838 418/1/838
f 419/1/167 59/1/167 416/1/167
f 419/1/513 60/1/513 62/1/513
f 421/1/1036 157/1/1036 153/1/1036
f 420/1/1037 154/1/1037 158/1/1037
f 422/1/516 153/1/516 199/1/516
f 421/1/517 200/1/1038 154/1/1038
f 423/1/1039 199/1/1039 197/1/1039
f 422/1/519 198/1/519 200/1/519
f 423/1/520 157/1/520 420/1/520
f 420/1/1040 198/1/1040 423/1/1040
f 425/1/522 63/1/522 195/1/522
f 424/1/1041 196/1/1041 64/1/1041
f 426/1/483 195/1/483 193/1/483
f 426/1/482 196/1/482 425/1/482
f 426/1/524 59/1/524 427/1/524
f 427/1/525 194/1/525 426/1/525
f 427/1/526 63/1/526 424/1/526
f 424/1/527 60/1/527 427/1/527
f 428/1/1042 83/1/530 429/1/1043
f 428/1/531 84/1/1044 74/1/1045
f 430/1/534 83/1/536 81/1/1046
f 429/1/1047 82/1/539 84/1/1048
f 431/1/1049 81/1/542 79/1/1050
f 431/1/1051 82/1/1052 430/1/1053
f 428/1/546 79/1/548 73/1/1054
f 431/1/1055 74/1/1056 80/1/1057
f 432/1/1058 433/1/1058 101/1/1058
f 433/1/553 432/1/553 116/1/553
f 433/1/1059 434/1/1060 131/1/1060
f 433/1/557 102/1/557 132/1/557
f 434/1/1061 435/1/1061 129/1/1062
f 434/1/561 132/1/560 130/1/560
f 436/1/1063 135/1/1063 129/1/1063
f 436/1/1064 435/1/1064 130/1/1064
f 436/1/1065 437/1/1065 133/1/1065
f 436/1/1066 136/1/1066 134/1/1066
f 438/1/1067 137/1/1068 133/1/1067
f 438/1/1069 437/1/1069 134/1/1069
f 439/1/571 139/1/571 137/1/571
f 439/1/572 438/1/1070 138/1/572
f 432/1/574 115/1/574 139/1/573
f 439/1/1071 140/1/1071 116/1/1071
f 441/1/576 3/1/576 41/1/576
f 440/1/577 42/1/577 4/1/577
f 441/1/1072 39/1/1072 442/1/1072
f 442/1/579 42/1/579 441/1/579
f 442/1/580 7/1/580 443/1/580
f 443/1/1073 40/1/1073 442/1/1073
f 440/1/1074 7/1/1074 3/1/1074
f 440/1/1075 8/1/1075 443/1/1075
f 444/1/1076 445/1/1076 137/1/1076
f 445/1/585 444/1/585 140/1/585
f 446/1/1077 125/1/1077 137/1/1077
f 445/1/1078 138/1/1078 126/1/1078
f 447/1/1079 127/1/1079 125/1/1079
f 446/1/592 126/1/592 128/1/592
f 444/1/1080 139/1/1081 127/1/1081
f 447/1/596 128/1/1082 140/1/596
f 449/1/1083 133/1/598 137/1/598
f 448/1/1084 138/1/1085 134/1/1084
f 450/1/1086 121/1/1087 133/1/1087
f 450/1/606 449/1/606 134/1/606
f 450/1/1088 451/1/1088 125/1/1089
f 451/1/1090 450/1/1091 122/1/1092
f 448/1/1093 137/1/1094 125/1/1094
f 451/1/1095 126/1/1096 138/1/1095
f 453/1/615 167/1/615 169/1/615
f 453/1/616 168/1/616 452/1/616
f 454/1/1097 169/1/1097 89/1/1098
f 454/1/1099 170/1/1099 453/1/1099
f 454/1/1100 69/1/1100 455/1/1100
f 454/1/620 70/1/620 90/1/620
f 456/1/1101 69/1/1102 65/1/1101
f 455/1/622 66/1/622 70/1/622
f 457/1/452 65/1/452 165/1/452
f 456/1/451 166/1/451 66/1/451
f 457/1/1103 167/1/1103 452/1/1103
f 457/1/624 168/1/624 166/1/624
f 458/1/1104 459/1/1105 123/1/1104
f 458/1/627 136/1/1106 124/1/627
f 460/1/1107 121/1/1107 123/1/1107
f 459/1/629 124/1/629 122/1/629
f 461/1/1108 133/1/1109 121/1/1110
f 460/1/633 122/1/633 134/1/633
f 461/1/1111 458/1/1111 135/1/1111
f 458/1/635 461/1/635 134/1/635
f 463/1/636 91/1/636 89/1/636
f 462/1/637 90/1/637 92/1/637
f 464/1/1112 89/1/1112 169/1/1112
f 463/1/640 170/1/640 90/1/640
f 465/1/641 169/1/641 175/1/641
f 464/1/642 176/1/642 170/1/642
f 465/1/1113 91/1/1113 462/1/1113
f 462/1/644 176/1/644 465/1/644
f 466/1/317 5/1/317 467/1/317
f 467/1/645 216/1/645 466/1/645
f 468/1/319 5/1/319 11/1/319
f 467/1/320 12/1/320 6/1/320
f 469/1/1114 11/1/1114 213/1/1114
f 468/1/322 214/1/322 12/1/322
f 466/1/323 213/1/323 215/1/323
f 469/1/324 216/1/324 214/1/324
f 471/1/647 1/1/647 47/1/647
f 470/1/648 48/1/648 2/1/648
f 471/1/1115 41/1/1115 472/1/1115
f 471/1/1116 42/1/1116 48/1/1116
f 472/1/651 3/1/651 473/1/651
f 473/1/652 42/1/652 472/1/652
f 473/1/1117 1/1/1117 470/1/1117
f 473/1/1118 2/1/1118 4/1/1118
f 475/1/499 21/1/499 203/1/499
f 474/1/500 204/1/500 22/1/500
f 476/1/324 203/1/324 201/1/324
f 476/1/323 204/1/323 475/1/323
f 476/1/501 29/1/501 477/1/501
f 477/1/655 202/1/655 476/1/655
f 477/1/1119 21/1/1119 474/1/1119
f 474/1/504 30/1/504 477/1/504
f 479/1/1120 115/1/1120 101/1/1120
f 478/1/658 102/1/658 116/1/657
f 479/1/1121 480/1/659 97/1/659
f 480/1/1122 479/1/1123 116/1/1123
f 480/1/1124 481/1/1124 99/1/1124
f 481/1/663 480/1/663 98/1/663
f 478/1/664 101/1/1125 99/1/664
f 481/1/666 100/1/666 102/1/666
f 483/1/486 17/1/486 207/1/486
f 482/1/1024 208/1/1024 18/1/1024
f 483/1/160 203/1/160 484/1/160
f 483/1/159 204/1/159 208/1/159
f 484/1/488 21/1/488 485/1/488
f 485/1/489 204/1/489 484/1/489
f 482/1/490 21/1/490 17/1/490
f 482/1/1031 22/1/1031 485/1/1031
f 487/1/1126 175/1/1126 169/1/1126
f 487/1/670 176/1/670 486/1/670
f 488/1/671 169/1/671 167/1/671
f 487/1/1127 168/1/1127 170/1/1127
f 489/1/673 167/1/673 173/1/673
f 488/1/1128 174/1/1128 168/1/1128
f 489/1/675 175/1/675 486/1/675
f 486/1/1129 174/1/1129 489/1/1129
f 491/1/677 95/1/677 77/1/677
f 490/1/678 78/1/678 96/1/678
f 492/1/1130 77/1/1130 75/1/1130
f 491/1/680 76/1/680 78/1/680
f 492/1/681 93/1/681 493/1/681
f 493/1/682 76/1/682 492/1/682
f 490/1/1131 93/1/1131 95/1/1131
f 493/1/1132 96/1/1132 94/1/1132
f 495/1/522 5/1/522 215/1/522
f 494/1/523 216/1/523 6/1/523
f 495/1/483 211/1/483 496/1/483
f 495/1/482 212/1/482 216/1/482
f 496/1/524 9/1/524 497/1/524
f 497/1/525 212/1/525 496/1/525
f 497/1/526 5/1/526 494/1/526
f 497/1/527 6/1/527 10/1/527
f 498/1/153 11/1/153 499/1/153
f 499/1/840 214/1/840 498/1/840
f 499/1/1133 19/1/1133 500/1/1133
f 500/1/100 12/1/100 499/1/100
f 501/1/157 19/1/157 209/1/157
f 500/1/158 210/1/158 20/1/158
f 501/1/159 213/1/159 498/1/159
f 501/1/160 214/1/160 210/1/160
f 503/1/686 67/1/686 65/1/686
f 502/1/1134 66/1/1134 68/1/1134
f 503/1/1135 69/1/1135 504/1/1135
f 504/1/1136 66/1/1136 503/1/1136
f 505/1/1137 69/1/1137 71/1/1137
f 504/1/691 72/1/691 70/1/691
f 502/1/1138 71/1/1138 67/1/1138
f 505/1/1139 68/1/1139 72/1/1139
f 507/1/694 171/1/694 173/1/694
f 506/1/695 174/1/695 172/1/695
f 508/1/696 173/1/696 167/1/696
f 507/1/697 168/1/697 174/1/697
f 508/1/698 165/1/698 509/1/698
f 509/1/699 168/1/699 508/1/699
f 506/1/687 165/1/687 171/1/687
f 509/1/700 172/1/700 166/1/700
f 511/1/1140 135/1/1140 123/1/1140
f 510/1/1141 124/1/1142 136/1/1141
f 512/1/707 129/1/707 135/1/707
f 511/1/708 136/1/708 130/1/708
f 513/1/1143 117/1/1143 129/1/1143
f 512/1/1144 130/1/1145 118/1/1145
f 513/1/714 510/1/714 123/1/714
f 510/1/715 513/1/715 118/1/715
f 514/1/1146 141/1/1147 515/1/1148
f 515/1/1149 74/1/1150 514/1/1151
f 515/1/722 145/1/724 516/1/1152
f 515/1/1153 146/1/1154 142/1/1155
f 516/1/1156 149/1/730 517/1/1157
f 516/1/1158 150/1/1159 146/1/1160
f 518/1/1161 149/1/1162 87/1/1163
f 518/1/1164 150/1/739 517/1/1165
f 518/1/740 83/1/1166 519/1/1167
f 519/1/743 88/1/1168 518/1/1169
f 514/1/1170 83/1/748 73/1/1171
f 514/1/1172 84/1/1173 519/1/1174
