# Blender 5.2.0 LTS
# www.blender.org
mtllib glass scope support.mtl
o scope_support
v -0.267312 0.147401 -0.000000
v -0.269203 0.149730 -0.000000
v -0.267312 0.015841 0.082962
v -0.269309 0.015404 0.085158
v -0.267312 0.118933 0.068728
v -0.269203 0.120580 0.070375
v -0.267312 0.050205 0.097196
v -0.269203 0.050205 0.099525
v -0.267312 0.015841 -0.082961
v -0.269309 0.015404 -0.085157
v -0.267312 0.118933 -0.068728
v -0.269203 0.120580 -0.070375
v -0.267312 0.050205 -0.097195
v -0.269203 0.050205 -0.099524
v -0.267312 -0.232106 0.082962
v -0.269433 -0.232106 0.085083
v -0.267312 -0.232106 -0.082961
v -0.269433 -0.232106 -0.085082
v 0.267312 0.015841 -0.082961
v 0.269309 0.015404 -0.085157
v 0.267312 0.015841 0.082962
v 0.269309 0.015404 0.085158
v 0.267312 -0.232106 -0.082961
v 0.269433 -0.232106 -0.085082
v 0.267312 -0.232106 0.082962
v 0.269433 -0.232106 0.085083
v 0.267312 0.118933 -0.068728
v 0.269203 0.120580 -0.070375
v 0.267312 0.050205 -0.097195
v 0.269203 0.050205 -0.099524
v 0.267312 0.147401 -0.000000
v 0.269203 0.149730 -0.000000
v 0.267312 0.118933 0.068728
v 0.269203 0.120580 0.070375
v 0.267312 0.050205 0.097196
v 0.269203 0.050205 0.099525
v 0.052574 0.002519 -0.179994
v 0.054221 0.000872 -0.181885
v 0.002983 0.122243 -0.179994
v 0.002983 0.124572 -0.181885
v 0.052574 0.101702 -0.179994
v 0.054221 0.103349 -0.181885
v 0.073116 0.052110 -0.179994
v 0.075445 0.052110 -0.181885
v -0.067150 0.052110 -0.179994
v -0.069479 0.052110 -0.181885
v -0.046609 0.101702 -0.179994
v -0.048256 0.103349 -0.181885
v -0.046609 0.002519 -0.179994
v -0.048256 0.000872 -0.181885
v 0.002983 -0.018023 -0.179994
v 0.002983 -0.020352 -0.181885
v 0.052574 0.002519 0.179994
v 0.054221 0.000872 0.181885
v 0.052574 0.101702 0.179994
v 0.054221 0.103349 0.181885
v 0.002983 0.122243 0.179994
v 0.002983 0.124572 0.181885
v 0.073116 0.052110 0.179994
v 0.075445 0.052110 0.181885
v -0.067150 0.052110 0.179994
v -0.069479 0.052110 0.181885
v -0.046609 0.101702 0.179994
v -0.048256 0.103349 0.181885
v -0.046609 0.002519 0.179994
v -0.048256 0.000872 0.181885
v 0.002983 -0.018023 0.179994
v 0.002983 -0.020352 0.181885
v -0.067150 0.232105 -0.000000
v -0.069479 0.233996 -0.000000
v 0.052574 0.232105 0.049592
v 0.054221 0.233996 0.051239
v 0.002983 0.232105 -0.070133
v 0.002983 0.233996 -0.072462
v -0.046609 0.232105 -0.049592
v -0.048256 0.233996 -0.051239
v 0.052574 0.232105 -0.049592
v 0.054221 0.233996 -0.051239
v 0.073116 0.232105 -0.000000
v 0.075445 0.233996 -0.000000
v -0.046609 0.232105 0.049592
v -0.048256 0.233996 0.051239
v 0.002983 0.232105 0.070133
v 0.002983 0.233996 0.072462
v -0.046609 0.002519 0.124881
v -0.048256 0.000872 0.122990
v 0.002983 -0.018023 0.124881
v 0.002983 -0.020352 0.122990
v 0.052574 0.002519 0.124881
v 0.054221 0.000872 0.122990
v -0.067150 0.052110 0.124881
v -0.069479 0.052110 0.122990
v 0.073116 0.052110 0.124881
v 0.075445 0.052110 0.122990
v -0.046609 0.101702 0.124881
v -0.048256 0.103349 0.122990
v 0.052574 0.101702 0.124881
v 0.054221 0.103349 0.122990
v 0.002983 0.122243 0.124881
v 0.002983 0.124572 0.122990
v 0.002983 0.114502 0.049399
v 0.002983 0.114502 0.052399
v 0.002983 0.176991 0.049399
v 0.002983 0.174578 0.051182
v -0.031948 0.114502 0.034930
v -0.034069 0.114502 0.037051
v -0.031948 0.176991 0.034930
v -0.033209 0.174578 0.036191
v 0.037914 0.176991 0.034930
v 0.039175 0.174578 0.036191
v -0.046417 0.114502 -0.000000
v -0.049417 0.114502 0.000000
v 0.037914 0.114502 0.034930
v 0.040035 0.114502 0.037051
v -0.046417 0.176991 -0.000000
v -0.048200 0.174578 -0.000000
v 0.052383 0.176991 -0.000000
v 0.054166 0.174578 -0.000000
v -0.031948 0.114502 -0.034931
v -0.034069 0.114502 -0.037052
v 0.052383 0.114502 -0.000000
v 0.055383 0.114502 0.000000
v -0.031948 0.176991 -0.034931
v -0.033209 0.174578 -0.036192
v 0.037914 0.176991 -0.034931
v 0.039175 0.174578 -0.036192
v 0.002983 0.114502 -0.049400
v 0.002983 0.114502 -0.052400
v 0.037914 0.114502 -0.034931
v 0.040035 0.114502 -0.037052
v 0.002983 0.176991 -0.049400
v 0.002983 0.174578 -0.051183
v -0.031948 0.087041 -0.124881
v -0.033209 0.088302 -0.122468
v -0.031948 0.087041 -0.062392
v -0.034069 0.089162 -0.062392
v 0.002983 0.101510 -0.124881
v 0.002983 0.103293 -0.122468
v 0.002983 0.101510 -0.062392
v 0.002983 0.104510 -0.062392
v -0.046417 0.052110 -0.062392
v -0.049417 0.052110 -0.062392
v 0.037914 0.087041 -0.124881
v 0.039175 0.088302 -0.122468
v -0.046417 0.052110 -0.124881
v -0.048200 0.052110 -0.122468
v 0.037914 0.087041 -0.062392
v 0.040035 0.089162 -0.062392
v -0.031948 0.017180 -0.062392
v -0.034069 0.015059 -0.062392
v 0.052383 0.052110 -0.124881
v 0.054166 0.052110 -0.122468
v -0.031948 0.017180 -0.124881
v -0.033209 0.015919 -0.122468
v 0.052383 0.052110 -0.062392
v 0.055383 0.052110 -0.062392
v 0.002983 0.002711 -0.062392
v 0.002983 -0.000289 -0.062392
v 0.037914 0.017180 -0.124881
v 0.039175 0.015919 -0.122468
v 0.002983 0.002711 -0.124881
v 0.002983 0.000928 -0.122468
v 0.037914 0.017180 -0.062392
v 0.040035 0.015059 -0.062392
v -0.046609 0.176991 0.049592
v -0.048256 0.175100 0.051239
v 0.002983 0.176991 0.070133
v 0.002983 0.175100 0.072462
v 0.052574 0.176991 0.049592
v 0.054221 0.175100 0.051239
v -0.067150 0.176991 -0.000000
v -0.069479 0.175100 -0.000000
v 0.073116 0.176991 -0.000000
v 0.075445 0.175100 -0.000000
v -0.046609 0.176991 -0.049592
v -0.048256 0.175100 -0.051239
v 0.052574 0.176991 -0.049592
v 0.054221 0.175100 -0.051239
v 0.002983 0.176991 -0.070133
v 0.002983 0.175100 -0.072462
v 0.002983 0.002711 0.062391
v 0.002983 -0.000289 0.062391
v 0.002983 0.002711 0.124881
v 0.002983 0.000928 0.122468
v -0.031948 0.017180 0.062391
v -0.034069 0.015059 0.062391
v -0.031948 0.017180 0.124881
v -0.033209 0.015919 0.122468
v 0.037914 0.017180 0.124881
v 0.039175 0.015919 0.122468
v -0.046417 0.052110 0.062391
v -0.049417 0.052110 0.062391
v 0.037914 0.017180 0.062391
v 0.040035 0.015059 0.062391
v -0.046417 0.052110 0.124881
v -0.048200 0.052110 0.122468
v 0.052383 0.052110 0.124881
v 0.054166 0.052110 0.122468
v -0.031948 0.087041 0.062391
v -0.034069 0.089162 0.062391
v 0.052383 0.052110 0.062391
v 0.055383 0.052110 0.062391
v -0.031948 0.087041 0.124881
v -0.033209 0.088302 0.122468
v 0.037914 0.087041 0.124881
v 0.039175 0.088302 0.122468
v 0.002983 0.101510 0.062391
v 0.002983 0.104510 0.062391
v 0.037914 0.087041 0.062391
v 0.040035 0.089162 0.062391
v 0.002983 0.101510 0.124881
v 0.002983 0.103293 0.122468
v 0.002983 0.122243 -0.124881
v 0.002983 0.124572 -0.122990
v 0.052574 0.101702 -0.124881
v 0.054221 0.103349 -0.122990
v -0.046609 0.101702 -0.124881
v -0.048256 0.103349 -0.122990
v 0.073116 0.052110 -0.124881
v 0.075445 0.052110 -0.122990
v -0.067150 0.052110 -0.124881
v -0.069479 0.052110 -0.122990
v 0.052574 0.002519 -0.124881
v 0.054221 0.000872 -0.122990
v -0.046609 0.002519 -0.124881
v -0.048256 0.000872 -0.122990
v 0.002983 -0.018023 -0.124881
v 0.002983 -0.020352 -0.122990
v 0.170116 0.050205 -0.097195
v 0.168225 0.050205 -0.099524
v 0.170116 0.118933 -0.068728
v 0.168225 0.120580 -0.070375
v 0.170116 0.015841 -0.082961
v 0.168119 0.015404 -0.085157
v 0.170116 -0.232106 -0.082961
v 0.167995 -0.232106 -0.085082
v 0.170116 0.147401 -0.000000
v 0.168225 0.149730 -0.000000
v 0.170116 0.118933 0.068728
v 0.168225 0.120580 0.070375
v 0.170116 0.050205 0.097196
v 0.168225 0.050205 0.099525
v 0.170116 0.015841 0.082962
v 0.168119 0.015404 0.085158
v 0.170116 -0.232106 0.082962
v 0.167995 -0.232106 0.085083
v -0.170116 0.050205 -0.097195
v -0.168225 0.050205 -0.099524
v -0.170116 0.015841 -0.082961
v -0.168119 0.015404 -0.085157
v -0.170116 -0.232106 -0.082961
v -0.167995 -0.232106 -0.085082
v -0.170116 0.118933 -0.068728
v -0.168225 0.120580 -0.070375
v -0.170116 0.147401 -0.000000
v -0.168225 0.149730 -0.000000
v -0.170116 0.118933 0.068728
v -0.168225 0.120580 0.070375
v -0.170116 0.050205 0.097196
v -0.168225 0.050205 0.099525
v -0.170116 0.015841 0.082962
v -0.168119 0.015404 0.085158
v -0.170116 -0.232106 0.082962
v -0.167995 -0.232106 0.085083
v 0.001597 0.002393 -0.122175
v 0.001597 0.001785 -0.063892
v -0.031623 0.015545 -0.063892
v -0.031193 0.015976 -0.122175
v 0.053972 0.003081 -0.125436
v 0.053972 0.003081 -0.179439
v 0.073707 0.050724 -0.179439
v 0.073707 0.050724 -0.125436
v 0.268311 0.015921 0.082560
v 0.268373 -0.230606 0.082523
v 0.268373 -0.230606 -0.082522
v 0.268311 0.015921 -0.082559
v 0.268257 0.050205 -0.096736
v 0.268257 0.118608 -0.068403
v 0.268257 0.146942 -0.000000
v 0.268257 0.118608 0.068403
v 0.268257 0.050205 0.096737
v 0.002983 0.233050 -0.069674
v -0.046284 0.233050 -0.049267
v -0.066691 0.233050 -0.000000
v -0.046284 0.233050 0.049267
v 0.002983 0.233050 0.069674
v 0.052249 0.233050 0.049267
v 0.072657 0.233050 -0.000000
v 0.052249 0.233050 -0.049267
v 0.001483 0.000817 -0.123675
v -0.032226 0.014780 -0.123675
v -0.044784 0.002222 -0.123936
v 0.001483 -0.016943 -0.123936
v -0.066691 0.052110 0.180939
v -0.046284 0.002844 0.180939
v 0.002983 -0.017564 0.180939
v 0.052249 0.002844 0.180939
v 0.072657 0.052110 0.180939
v 0.052249 0.101377 0.180939
v 0.002983 0.121784 0.180939
v -0.046284 0.101377 0.180939
v -0.032226 0.175785 -0.037331
v -0.044784 0.176046 -0.049889
v 0.001483 0.176046 -0.069053
v 0.001483 0.175785 -0.051294
v 0.037589 0.116002 -0.036566
v 0.004369 0.116002 -0.050326
v 0.004369 0.174285 -0.049718
v 0.037159 0.174285 -0.036135
v 0.053309 0.050724 0.063891
v 0.052701 0.050724 0.122175
v 0.039118 0.017935 0.122175
v 0.039549 0.017505 0.063891
v -0.170617 0.017008 -0.084633
v -0.266811 0.017008 -0.084633
v -0.266757 0.048819 -0.097786
v -0.170671 0.048819 -0.097786
v 0.037589 0.015545 0.063891
v 0.037159 0.015976 0.122175
v 0.004369 0.002393 0.122175
v 0.004369 0.001785 0.063891
v 0.037159 0.015976 -0.122175
v 0.037589 0.015545 -0.063892
v 0.004369 0.001785 -0.063892
v 0.004369 0.002393 -0.122175
v 0.053309 0.050724 -0.063892
v 0.039549 0.017505 -0.063892
v 0.039118 0.017935 -0.122175
v 0.052701 0.050724 -0.122175
v -0.067741 0.231550 0.001386
v -0.067741 0.177546 0.001386
v -0.048006 0.177546 0.049030
v -0.048006 0.231550 0.049030
v -0.266757 0.120331 0.068166
v -0.170671 0.120331 0.068166
v -0.170671 0.147992 0.001386
v -0.266757 0.147992 0.001386
v 0.052012 0.103099 -0.125436
v 0.052012 0.103099 -0.179439
v 0.004369 0.122834 -0.179439
v 0.004369 0.122834 -0.125436
v 0.053309 0.116002 0.001386
v 0.052701 0.174285 0.001386
v 0.039118 0.174285 0.034175
v 0.039549 0.116002 0.034605
v -0.046735 0.174285 -0.001386
v -0.033152 0.174285 -0.034176
v -0.033583 0.116002 -0.034606
v -0.047343 0.116002 -0.001386
v 0.073707 0.053496 -0.125436
v 0.073707 0.053496 -0.179439
v 0.053972 0.101140 -0.179439
v 0.053972 0.101140 -0.125436
v -0.266757 0.118371 -0.070126
v -0.170671 0.118371 -0.070126
v -0.170671 0.051591 -0.097786
v -0.266757 0.051591 -0.097786
v 0.001597 -0.018614 0.125436
v 0.001597 -0.018614 0.179439
v -0.046047 0.001122 0.179439
v -0.046047 0.001121 0.125436
v -0.031623 0.088676 -0.063892
v 0.001597 0.102436 -0.063892
v 0.001597 0.101828 -0.122175
v -0.031193 0.088245 -0.122175
v 0.001597 -0.018614 -0.179439
v 0.001597 -0.018614 -0.125436
v -0.046047 0.001121 -0.125436
v -0.046047 0.001121 -0.179439
v 0.266811 0.017008 -0.084633
v 0.170617 0.017008 -0.084633
v 0.170671 0.048819 -0.097786
v 0.266757 0.048819 -0.097786
v 0.170671 0.120331 0.068166
v 0.266757 0.120331 0.068166
v 0.266757 0.147992 0.001386
v 0.170671 0.147992 0.001386
v -0.048006 0.101140 0.125436
v -0.067741 0.053496 0.125436
v -0.067741 0.053496 0.179439
v -0.048006 0.101140 0.179439
v 0.052012 0.001121 0.125436
v 0.052012 0.001121 0.179439
v 0.004369 -0.018614 0.179439
v 0.004369 -0.018614 0.125436
v 0.170671 0.051591 0.097787
v 0.266757 0.051591 0.097787
v 0.266757 0.118371 0.070125
v 0.170671 0.118371 0.070125
v 0.052012 0.103100 0.125436
v 0.004369 0.122834 0.125436
v 0.004369 0.122834 0.179439
v 0.052012 0.103100 0.179439
v 0.001597 0.122834 0.125436
v -0.046047 0.103100 0.125436
v -0.046047 0.103100 0.179439
v 0.001597 0.122834 0.179439
v 0.052012 0.177546 0.050989
v 0.052012 0.231550 0.050989
v 0.004369 0.231550 0.070724
v 0.004369 0.177546 0.070724
v 0.073707 0.177546 0.001386
v 0.073707 0.231550 0.001386
v 0.053972 0.231550 0.049030
v 0.053972 0.177546 0.049030
v 0.053972 0.101140 0.125436
v 0.053972 0.101140 0.179439
v 0.073707 0.053496 0.179439
v 0.073707 0.053496 0.125436
v 0.053972 0.177546 -0.049030
v 0.053972 0.231550 -0.049030
v 0.073707 0.231550 -0.001386
v 0.073707 0.177546 -0.001386
v -0.048006 0.231550 -0.049030
v -0.048006 0.177546 -0.049030
v -0.067741 0.177546 -0.001386
v -0.067741 0.231550 -0.001386
v 0.052012 0.231550 -0.050990
v 0.052012 0.177546 -0.050990
v 0.004369 0.177546 -0.070724
v 0.004369 0.231550 -0.070724
v 0.001597 0.231550 -0.070724
v 0.001597 0.177546 -0.070724
v -0.046047 0.177546 -0.050990
v -0.046047 0.231550 -0.050990
v -0.033152 0.174285 0.034175
v -0.046735 0.174285 0.001386
v -0.047343 0.116002 0.001386
v -0.033583 0.116002 0.034605
v 0.073707 0.050724 0.125436
v 0.073707 0.050724 0.179439
v 0.053972 0.003081 0.179439
v 0.053972 0.003081 0.125436
v -0.268311 0.015921 0.082560
v -0.268257 0.050205 0.096737
v -0.268257 0.118608 0.068403
v -0.268257 0.146942 -0.000000
v -0.268257 0.118608 -0.068403
v -0.268257 0.050205 -0.096736
v -0.268311 0.015921 -0.082559
v -0.268373 -0.230606 -0.082522
v -0.268373 -0.230606 0.082523
v -0.046735 0.053496 -0.122175
v -0.047343 0.053496 -0.063892
v -0.033583 0.086716 -0.063892
v -0.033152 0.086286 -0.122175
v -0.033152 0.017935 0.122175
v -0.046735 0.050724 0.122175
v -0.047343 0.050724 0.063891
v -0.033583 0.017505 0.063891
v -0.031193 0.088245 0.122175
v 0.001597 0.101828 0.122175
v 0.001597 0.102436 0.063891
v -0.031623 0.088676 0.063891
v 0.004369 -0.018614 -0.125436
v 0.004369 -0.018614 -0.179439
v 0.052012 0.001121 -0.179439
v 0.052012 0.001121 -0.125436
v 0.039549 0.086716 0.063891
v 0.039118 0.086286 0.122175
v 0.052701 0.053496 0.122175
v 0.053309 0.053496 0.063891
v -0.046735 0.053496 0.122175
v -0.033152 0.086286 0.122175
v -0.033583 0.086716 0.063891
v -0.047343 0.053496 0.063891
v -0.067741 0.050724 0.125436
v -0.048007 0.003081 0.125436
v -0.048007 0.003081 0.179439
v -0.067741 0.050724 0.179439
v 0.001597 0.174285 -0.049718
v 0.001597 0.116002 -0.050326
v -0.031623 0.116002 -0.036566
v -0.031193 0.174285 -0.036135
v 0.037589 0.116002 0.036565
v 0.037159 0.174285 0.036134
v 0.004369 0.174285 0.049717
v 0.004369 0.116002 0.050325
v 0.170671 0.118371 -0.070126
v 0.266757 0.118371 -0.070126
v 0.266757 0.051591 -0.097786
v 0.170671 0.051591 -0.097786
v 0.039549 0.116002 -0.034606
v 0.039118 0.174285 -0.034176
v 0.052701 0.174285 -0.001386
v 0.053309 0.116002 -0.001386
v -0.048007 0.003081 -0.179439
v -0.048007 0.003081 -0.125436
v -0.067741 0.050724 -0.125436
v -0.067741 0.050724 -0.179439
v -0.067741 0.053496 -0.179439
v -0.067741 0.053496 -0.125436
v -0.048006 0.101140 -0.125436
v -0.048006 0.101140 -0.179439
v 0.004369 0.102436 0.063891
v 0.004369 0.101828 0.122175
v 0.037159 0.088245 0.122175
v 0.037589 0.088676 0.063891
v -0.033152 0.017935 -0.122175
v -0.033583 0.017505 -0.063892
v -0.047343 0.050724 -0.063892
v -0.046735 0.050724 -0.122175
v 0.004369 0.102436 -0.063892
v 0.037589 0.088676 -0.063892
v 0.037159 0.088245 -0.122175
v 0.004369 0.101828 -0.122175
v 0.001597 0.174285 0.049717
v -0.031193 0.174285 0.036134
v -0.031623 0.116002 0.036565
v 0.001597 0.116002 0.050325
v 0.170671 0.147992 -0.001386
v 0.266757 0.147992 -0.001386
v 0.266757 0.120330 -0.068166
v 0.170671 0.120330 -0.068166
v 0.266873 -0.230606 -0.084022
v 0.170555 -0.230606 -0.084022
v 0.170617 0.014123 -0.084059
v 0.266811 0.014123 -0.084059
v -0.266757 0.147992 -0.001386
v -0.170671 0.147992 -0.001386
v -0.170671 0.120330 -0.068166
v -0.266757 0.120330 -0.068166
v 0.266873 -0.230606 0.084023
v 0.266811 0.014123 0.084060
v 0.170617 0.014123 0.084060
v 0.170555 -0.230606 0.084023
v 0.001597 0.177546 0.070724
v 0.001597 0.231550 0.070724
v -0.046047 0.231550 0.050989
v -0.046047 0.177546 0.050989
v 0.039549 0.086716 -0.063892
v 0.053309 0.053496 -0.063892
v 0.052701 0.053496 -0.122175
v 0.039118 0.086286 -0.122175
v 0.001597 0.002393 0.122175
v -0.031193 0.015976 0.122175
v -0.031623 0.015545 0.063891
v 0.001597 0.001785 0.063891
v -0.170555 -0.230606 -0.084022
v -0.266873 -0.230606 -0.084022
v -0.266811 0.014123 -0.084059
v -0.170617 0.014123 -0.084059
v 0.170617 0.017008 0.084634
v 0.266811 0.017008 0.084634
v 0.266757 0.048819 0.097787
v 0.170671 0.048819 0.097787
v -0.266757 0.051591 0.097787
v -0.170671 0.051591 0.097787
v -0.170671 0.118371 0.070125
v -0.266757 0.118371 0.070125
v -0.046047 0.103099 -0.179439
v -0.046047 0.103099 -0.125436
v 0.001597 0.122834 -0.125436
v 0.001597 0.122834 -0.179439
v 0.050750 0.002222 -0.123936
v 0.038192 0.014780 -0.123675
v 0.004483 0.000817 -0.123675
v 0.004483 -0.016943 -0.123936
v -0.034348 0.087319 0.123675
v -0.048311 0.053610 0.123675
v -0.066070 0.053610 0.123936
v -0.046906 0.099877 0.123936
v 0.072036 0.176046 0.001500
v 0.052871 0.176046 0.047767
v 0.040314 0.175785 0.035209
v 0.054277 0.175785 0.001500
v -0.048311 0.050610 -0.123675
v -0.066070 0.050610 -0.123936
v -0.046906 0.004344 -0.123936
v -0.034348 0.016902 -0.123675
v 0.072036 0.176046 -0.001500
v 0.054277 0.175785 -0.001500
v 0.040314 0.175785 -0.035210
v 0.052871 0.176046 -0.047767
v 0.001483 0.175785 0.051293
v 0.001483 0.176046 0.069053
v -0.044784 0.176046 0.049889
v -0.032226 0.175785 0.037330
v 0.050750 0.101999 -0.123936
v 0.004483 0.121163 -0.123936
v 0.004483 0.103404 -0.123675
v 0.038192 0.089441 -0.123675
v 0.050750 0.176046 -0.049889
v 0.038192 0.175785 -0.037331
v 0.004483 0.175785 -0.051294
v 0.004483 0.176046 -0.069053
v -0.032226 0.089441 -0.123675
v 0.001483 0.103404 -0.123675
v 0.001483 0.121163 -0.123936
v -0.044784 0.101999 -0.123936
v 0.072036 0.050610 0.123936
v 0.052871 0.004344 0.123936
v 0.040314 0.016901 0.123675
v 0.054277 0.050610 0.123675
v -0.034348 0.087319 -0.123675
v -0.046906 0.099877 -0.123936
v -0.066070 0.053610 -0.123936
v -0.048311 0.053610 -0.123675
v 0.072036 0.053610 -0.123936
v 0.052871 0.099877 -0.123936
v 0.040314 0.087320 -0.123675
v 0.054277 0.053610 -0.123675
v -0.032226 0.089441 0.123675
v -0.044784 0.101999 0.123936
v 0.001483 0.121163 0.123936
v 0.001483 0.103404 0.123675
v 0.072036 0.053610 0.123936
v 0.054277 0.053610 0.123675
v 0.040314 0.087320 0.123675
v 0.052871 0.099877 0.123936
v 0.050750 0.002222 0.123936
v 0.004483 -0.016943 0.123936
v 0.004483 0.000817 0.123675
v 0.038192 0.014780 0.123675
v 0.001483 0.000817 0.123675
v 0.001483 -0.016943 0.123936
v -0.044784 0.002222 0.123936
v -0.032226 0.014780 0.123675
v -0.048311 0.175785 0.001500
v -0.034348 0.175785 0.035209
v -0.046906 0.176046 0.047767
v -0.066070 0.176046 0.001500
v -0.048311 0.050610 0.123675
v -0.034348 0.016902 0.123675
v -0.046906 0.004344 0.123936
v -0.066070 0.050610 0.123936
v 0.072036 0.050610 -0.123936
v 0.054277 0.050610 -0.123675
v 0.040314 0.016901 -0.123675
v 0.052871 0.004344 -0.123936
v 0.050750 0.101999 0.123936
v 0.038192 0.089441 0.123675
v 0.004483 0.103404 0.123675
v 0.004483 0.121163 0.123936
v -0.034348 0.175785 -0.035209
v -0.048311 0.175785 -0.001500
v -0.066070 0.176046 -0.001500
v -0.046906 0.176046 -0.047767
v -0.170555 -0.230606 0.084023
v -0.170617 0.014123 0.084060
v -0.266811 0.014123 0.084060
v -0.266873 -0.230606 0.084023
v 0.169117 0.015921 -0.082559
v 0.169055 -0.230606 -0.082522
v 0.169055 -0.230606 0.082523
v 0.169117 0.015921 0.082560
v 0.169171 0.050205 0.096737
v 0.169171 0.118608 0.068403
v 0.169171 0.146942 -0.000000
v 0.169171 0.118608 -0.068403
v 0.169171 0.050205 -0.096736
v 0.050750 0.176046 0.049889
v 0.004483 0.176046 0.069053
v 0.004483 0.175785 0.051293
v 0.038192 0.175785 0.037330
v -0.266811 0.017008 0.084634
v -0.170617 0.017008 0.084634
v -0.170671 0.048819 0.097787
v -0.266757 0.048819 0.097787
v -0.169117 0.015921 -0.082559
v -0.169171 0.050205 -0.096736
v -0.169171 0.118608 -0.068403
v -0.169171 0.146942 -0.000000
v -0.169171 0.118608 0.068403
v -0.169171 0.050205 0.096737
v -0.169117 0.015921 0.082560
v -0.169055 -0.230606 0.082523
v -0.169055 -0.230606 -0.082522
v 0.002983 0.121784 -0.180939
v 0.052249 0.101377 -0.180939
v 0.072657 0.052110 -0.180939
v 0.052249 0.002844 -0.180939
v 0.002983 -0.017564 -0.180939
v -0.046284 0.002844 -0.180939
v -0.066691 0.052110 -0.180939
v -0.046284 0.101377 -0.180939
vn 0.4076 -0.9132 -0.0046
vn 0.7857 0.6185 0.0095
vn -0.2811 -0.6786 0.6786
vn 0.2811 0.6786 0.6786
vn -0.9340 -0.3573 -0.0046
vn -0.1182 0.9929 0.0095
vn -0.3661 -0.8838 -0.2912
vn 0.1285 0.3103 -0.9419
vn 0.3733 -0.9277 -0.0000
vn -0.9937 -0.1122 -0.0000
vn 0.4233 -0.1753 -0.8889
vn -0.8456 0.3503 -0.4027
vn 0.9200 0.3920 -0.0000
vn -0.6233 0.7820 -0.0000
vn 0.4233 -0.1753 0.8889
vn -0.8456 0.3503 0.4027
vn 0.3783 -0.0000 0.9257
vn -0.9288 -0.0004 0.3706
vn 0.8165 -0.5774 -0.0000
vn -0.8165 -0.5774 -0.0000
vn 0.3783 -0.0000 -0.9257
vn -0.9288 -0.0004 -0.3706
vn 0.3912 -0.3517 -0.8505
vn -0.9359 -0.1363 -0.3247
vn 0.4093 0.3492 -0.8430
vn -0.9388 0.1318 -0.3183
vn 0.4093 0.8430 -0.3492
vn -0.9388 0.3183 -0.1318
vn 0.4093 0.8430 0.3492
vn -0.9388 0.3183 0.1318
vn 0.4093 0.3492 0.8430
vn -0.9388 0.1318 0.3183
vn 0.3912 -0.3517 0.8505
vn -0.9359 -0.1363 0.3248
vn -0.9359 -0.1364 0.3248
vn -0.3492 0.4093 -0.8429
vn -0.1318 -0.9388 -0.3183
vn -0.8430 0.4093 -0.3491
vn -0.3183 -0.9388 -0.1318
vn -0.8430 0.4093 0.3492
vn -0.3183 -0.9388 0.1318
vn -0.3492 0.4093 0.8429
vn -0.1318 -0.9388 0.3183
vn 0.3492 0.4093 0.8430
vn 0.1318 -0.9388 0.3183
vn 0.8429 0.4093 0.3492
vn 0.3183 -0.9388 0.1319
vn 0.8430 0.4093 -0.3492
vn 0.3183 -0.9388 -0.1318
vn 0.3492 0.4093 -0.8430
vn 0.1318 -0.9388 -0.3183
vn 0.1763 0.4257 0.8875
vn 0.3338 0.8059 -0.4890
vn -0.4167 0.4089 0.8119
vn -0.4089 0.4317 -0.8040
vn -0.3492 -0.8430 0.4093
vn -0.1318 -0.3183 -0.9388
vn 0.5838 -0.0055 0.8119
vn 0.5944 0.0161 -0.8040
vn -0.8430 -0.3492 0.4093
vn -0.3183 -0.1318 -0.9388
vn -0.1319 -0.3183 -0.9388
vn 0.3492 -0.8430 0.4093
vn 0.1319 -0.3183 -0.9388
vn 0.8430 -0.3492 0.4093
vn 0.3183 -0.1319 -0.9388
vn 0.8430 0.3492 0.4093
vn 0.3183 0.1319 -0.9388
vn 0.3492 0.8430 0.4093
vn 0.1318 0.3183 -0.9388
vn -0.3492 0.8430 0.4093
vn -0.1318 0.3183 -0.9388
vn -0.8430 0.3492 0.4093
vn -0.3183 0.1318 -0.9388
vn -0.4167 -0.8119 0.4089
vn -0.4089 0.8040 0.4317
vn -0.3492 -0.4093 -0.8430
vn -0.1318 0.9388 -0.3183
vn 0.5838 -0.8119 -0.0055
vn 0.5944 0.8040 0.0161
vn 0.1763 -0.8875 0.4257
vn 0.3338 0.4890 0.8059
vn 0.2811 -0.6786 -0.6786
vn -0.4077 0.0046 -0.9131
vn -0.7857 -0.0095 0.6185
vn 0.3661 0.2912 -0.8838
vn -0.1285 0.9419 0.3103
vn 0.9339 0.0046 -0.3575
vn 0.1182 -0.0095 0.9929
vn 0.9131 0.4077 0.0046
vn -0.6185 0.7857 -0.0095
vn 0.8838 -0.3661 0.2912
vn -0.3103 0.1285 0.9419
vn 0.3575 -0.9339 0.0046
vn -0.9929 -0.1182 -0.0095
vn 0.6786 -0.2811 -0.6786
vn -0.6786 0.2811 -0.6786
vn -0.0000 -0.8199 -0.5725
vn -0.0000 -0.3104 0.9506
vn -0.8996 -0.1664 -0.4038
vn -0.8996 -0.1664 -0.4039
vn -0.4027 0.3504 0.8456
vn -0.0000 0.3920 -0.9200
vn -0.0000 0.7820 0.6233
vn 0.8996 -0.1664 -0.4038
vn 0.4023 0.3504 0.8458
vn 0.9340 -0.3573 0.0046
vn 0.1182 0.9929 -0.0095
vn 0.3661 -0.8838 0.2912
vn -0.1285 0.3103 0.9419
vn -0.4076 -0.9132 0.0046
vn -0.7857 0.6185 -0.0095
vn -0.2811 0.6786 -0.6786
vn 0.9339 -0.3575 -0.0046
vn 0.1183 0.9929 0.0095
vn 0.2811 -0.6786 0.6786
vn -0.2811 0.6786 0.6786
vn -0.4077 -0.9131 -0.0046
vn -0.7857 0.6186 0.0095
vn 0.3661 -0.8838 -0.2912
vn -0.1285 0.3103 -0.9419
vn 0.6786 -0.2811 0.6786
vn -0.6786 0.2811 0.6786
vn 0.3573 -0.9340 -0.0046
vn -0.9930 -0.1181 0.0095
vn -0.9929 -0.1182 0.0095
vn 0.8838 -0.3661 -0.2912
vn -0.3103 0.1285 -0.9419
vn 0.9132 0.4076 -0.0046
vn -0.6185 0.7857 0.0095
vn -0.9199 -0.0000 -0.3920
vn 0.6233 -0.0000 -0.7820
vn -0.4233 -0.8889 0.1753
vn 0.8456 -0.4027 -0.3503
vn -0.3733 -0.0000 0.9277
vn 0.9937 -0.0000 0.1122
vn -0.4233 0.8889 0.1753
vn 0.8457 0.4027 -0.3503
vn -0.0000 0.3733 0.9277
vn -0.0000 -0.9937 0.1122
vn 0.8889 0.4233 0.1753
vn 0.4027 -0.8456 -0.3503
vn -0.0000 0.9200 -0.3920
vn -0.0000 -0.6233 -0.7820
vn -0.8889 0.4233 0.1753
vn -0.4027 -0.8456 -0.3503
vn 0.9277 0.3733 -0.0000
vn 0.1122 -0.9937 -0.0000
vn 0.1753 0.4233 -0.8889
vn -0.3503 -0.8456 -0.4027
vn -0.3920 0.9200 -0.0000
vn -0.7820 -0.6233 -0.0000
vn 0.1753 0.4233 0.8889
vn -0.3503 -0.8456 0.4027
vn 0.9131 0.0046 -0.4077
vn -0.6185 -0.0095 -0.7857
vn 0.8838 0.2912 0.3661
vn -0.3103 0.9419 -0.1285
vn 0.3575 0.0046 0.9339
vn -0.9929 -0.0095 0.1182
vn 0.6786 -0.6786 0.2811
vn -0.6786 -0.6786 -0.2811
vn -0.8838 0.2912 -0.3661
vn 0.3103 0.9419 0.1285
vn -0.3575 0.0046 -0.9339
vn 0.9929 -0.0095 -0.1183
vn -0.9131 0.0046 0.4077
vn 0.6185 -0.0095 0.7857
vn 0.9200 -0.3920 -0.0000
vn -0.6233 -0.7820 -0.0000
vn 0.4233 0.1753 -0.8889
vn -0.8456 -0.3503 -0.4027
vn 0.3733 0.9277 -0.0000
vn -0.9937 0.1122 -0.0000
vn 0.4233 0.1753 0.8889
vn -0.8456 -0.3503 0.4027
vn -0.0000 0.9277 -0.3733
vn -0.0000 0.1122 0.9937
vn 0.8889 0.1753 -0.4233
vn 0.4027 -0.3503 0.8456
vn -0.0000 -0.3920 -0.9199
vn -0.0000 -0.7820 0.6233
vn -0.8889 0.1753 -0.4233
vn -0.4027 -0.3503 0.8457
vn 0.3920 -0.9200 -0.0000
vn 0.7820 0.6233 -0.0000
vn -0.1753 -0.4233 0.8889
vn 0.3503 0.8456 0.4027
vn -0.9277 -0.3733 -0.0000
vn -0.1122 0.9937 -0.0000
vn -0.1753 -0.4233 -0.8889
vn 0.3503 0.8456 -0.4027
vn 0.4077 0.9131 -0.0046
vn 0.7857 -0.6185 0.0095
vn -0.3661 0.8838 -0.2912
vn 0.1285 -0.3103 -0.9419
vn -0.9339 0.3575 -0.0046
vn -0.1183 -0.9929 0.0095
vn 0.4028 0.3504 0.8456
vn 0.4027 0.3504 0.8456
vn -0.4233 0.1753 -0.8889
vn 0.8456 -0.3503 -0.4027
vn -0.9199 -0.3920 -0.0000
vn 0.6233 -0.7820 -0.0000
vn -0.4233 0.1753 0.8889
vn 0.8456 -0.3503 0.4027
vn -0.3733 0.9277 -0.0000
vn 0.9937 0.1122 -0.0000
vn 0.9277 -0.3733 -0.0000
vn 0.1122 0.9937 -0.0000
vn 0.1753 -0.4233 0.8889
vn -0.3503 0.8456 0.4027
vn -0.3920 -0.9200 -0.0000
vn -0.7820 0.6233 -0.0000
vn 0.1753 -0.4233 -0.8889
vn -0.3503 0.8456 -0.4027
vn -0.0000 -0.3920 0.9200
vn -0.0000 -0.7820 -0.6233
vn 0.8889 0.1753 0.4233
vn 0.4027 -0.3503 -0.8457
vn -0.0000 0.9277 0.3733
vn -0.0000 0.1122 -0.9937
vn -0.8889 0.1753 0.4233
vn -0.4027 -0.3503 -0.8456
vn -0.3920 0.9199 -0.0000
vn -0.1753 0.4233 -0.8889
vn 0.3503 -0.8456 -0.4027
vn -0.9277 0.3733 -0.0000
vn -0.1122 -0.9937 -0.0000
vn -0.1753 0.4233 0.8889
vn 0.3503 -0.8456 0.4027
vn 0.3920 0.9199 -0.0000
vn 0.7820 -0.6233 -0.0000
vn 0.9277 -0.0000 0.3733
vn 0.1122 -0.0000 -0.9937
vn 0.1753 0.8889 0.4233
vn -0.3503 0.4027 -0.8457
vn -0.3920 -0.0000 0.9200
vn -0.7820 -0.0000 -0.6233
vn 0.1753 -0.8889 0.4233
vn -0.3503 -0.4027 -0.8456
vn 0.9200 -0.0000 -0.3920
vn -0.6233 -0.0000 -0.7820
vn 0.4233 0.8889 0.1753
vn -0.8456 0.4027 -0.3503
vn 0.3733 -0.0000 0.9277
vn -0.9937 -0.0000 0.1122
vn 0.4233 -0.8889 0.1753
vn -0.8456 -0.4027 -0.3503
vn 0.3733 -0.0000 -0.9277
vn -0.9937 -0.0000 -0.1122
vn 0.4233 0.8889 -0.1753
vn -0.8456 0.4027 0.3503
vn 0.9200 -0.0000 0.3920
vn -0.6233 -0.0000 0.7820
vn 0.4233 -0.8889 -0.1753
vn -0.8456 -0.4027 0.3503
vn -0.3733 -0.0000 -0.9277
vn 0.9937 -0.0000 -0.1122
vn -0.4233 -0.8889 -0.1753
vn 0.8456 -0.4027 0.3503
vn -0.9199 -0.0000 0.3920
vn 0.6233 -0.0000 0.7820
vn -0.4233 0.8889 -0.1753
vn 0.8456 0.4027 0.3503
vn 0.9277 -0.0000 -0.3733
vn 0.1122 -0.0000 0.9937
vn 0.1753 -0.8889 -0.4233
vn -0.3503 -0.4027 0.8456
vn -0.3920 -0.0000 -0.9200
vn -0.7820 -0.0000 0.6233
vn 0.1753 0.8888 -0.4233
vn -0.3503 0.4027 0.8456
vn 0.3920 -0.0000 -0.9199
vn 0.7820 -0.0000 0.6233
vn -0.1753 -0.8889 -0.4233
vn 0.3503 -0.4027 0.8457
vn -0.9277 -0.0000 -0.3733
vn -0.1122 -0.0000 0.9937
vn -0.1753 0.8889 -0.4233
vn 0.3503 0.4027 0.8456
vn -0.8838 0.2912 0.3661
vn 0.3103 0.9419 -0.1285
vn -0.9132 0.0046 -0.4076
vn 0.6185 -0.0095 -0.7857
vn -0.6786 -0.6786 0.2811
vn 0.6786 -0.6786 -0.2811
vn -0.3573 0.0046 0.9340
vn 0.9929 -0.0095 0.1182
vn -0.3912 -0.3517 0.8505
vn 0.9359 -0.1363 0.3247
vn -0.4093 0.3492 0.8430
vn 0.9388 0.1318 0.3183
vn -0.4093 0.8430 0.3492
vn 0.9388 0.3183 0.1318
vn -0.4093 0.8430 -0.3492
vn 0.9388 0.3183 -0.1318
vn -0.4093 0.3492 -0.8430
vn 0.9388 0.1318 -0.3183
vn -0.3912 -0.3517 -0.8505
vn 0.9359 -0.1363 -0.3248
vn -0.3783 -0.0000 -0.9257
vn 0.9288 -0.0004 -0.3706
vn -0.3783 -0.0000 0.9257
vn 0.9288 -0.0004 0.3706
vn -0.9132 -0.4076 -0.0046
vn 0.6185 -0.7857 0.0095
vn -0.3573 0.9340 -0.0046
vn 0.9929 0.1182 0.0095
vn 0.9930 0.1181 0.0095
vn -0.8838 0.3661 -0.2912
vn 0.3103 -0.1285 -0.9419
vn -0.8838 -0.3661 0.2912
vn 0.3103 0.1285 0.9419
vn -0.9132 0.4076 0.0046
vn 0.6185 0.7857 -0.0095
vn -0.6786 -0.2811 -0.6786
vn 0.6786 0.2811 -0.6786
vn -0.3573 -0.9340 0.0046
vn 0.9930 -0.1181 -0.0095
vn -0.3661 0.8838 0.2912
vn 0.1285 -0.3103 0.9419
vn 0.4076 0.9132 0.0046
vn 0.7857 -0.6185 -0.0095
vn -0.9340 0.3573 0.0046
vn -0.1182 -0.9929 -0.0095
vn 0.3573 0.9340 0.0046
vn -0.9929 0.1182 -0.0095
vn 0.8838 0.3661 0.2912
vn -0.3103 -0.1285 0.9419
vn 0.9132 -0.4076 0.0046
vn -0.6185 -0.7857 -0.0095
vn -0.8838 0.3661 0.2912
vn 0.3103 -0.1285 0.9419
vn -0.3575 0.9339 0.0046
vn 0.9929 0.1183 -0.0095
vn -0.9131 -0.4077 0.0046
vn 0.6186 -0.7857 -0.0095
vn 0.6185 -0.7857 -0.0095
vn -0.4233 -0.1753 -0.8889
vn 0.8456 0.3503 -0.4027
vn -0.3733 -0.9277 -0.0000
vn 0.9937 -0.1122 -0.0000
vn -0.4233 -0.1753 0.8889
vn 0.8456 0.3503 0.4027
vn -0.9200 0.3920 -0.0000
vn 0.6233 0.7820 -0.0000
vn 0.4076 0.0046 -0.9132
vn 0.7857 -0.0095 0.6185
vn -0.2811 -0.6786 -0.6786
vn -0.9340 0.0046 -0.3573
vn -0.1182 -0.0095 0.9929
vn -0.3661 0.2912 -0.8838
vn 0.1285 0.9419 0.3103
vn 0.9340 0.0046 0.3573
vn 0.1182 -0.0095 -0.9929
vn 0.3661 0.2912 0.8838
vn -0.1285 0.9419 -0.3103
vn -0.4076 0.0046 0.9132
vn -0.7857 -0.0095 -0.6185
vn -0.4027 -0.3503 0.8456
vn 0.3573 0.0046 -0.9340
vn -0.9929 -0.0095 -0.1182
vn -0.9930 -0.0095 -0.1181
vn 0.8838 0.2912 -0.3661
vn -0.3103 0.9419 0.1285
vn 0.9132 0.0046 0.4076
vn -0.6185 -0.0095 0.7857
vn -0.4077 0.9131 0.0046
vn -0.7857 -0.6185 -0.0095
vn 0.3661 0.8838 0.2912
vn -0.1285 -0.3103 0.9419
vn 0.9339 0.3575 0.0046
vn 0.1183 -0.9929 -0.0095
vn 0.2811 0.6786 -0.6786
vn -0.3575 -0.9339 -0.0046
vn 0.9929 -0.1182 0.0095
vn -0.6786 -0.2811 0.6786
vn 0.6786 0.2811 0.6786
vn -0.9131 0.4077 -0.0046
vn 0.6185 0.7857 0.0095
vn -0.8838 -0.3661 -0.2912
vn 0.3103 0.1285 -0.9419
vn 0.9340 0.3573 -0.0046
vn 0.1182 -0.9929 0.0095
vn 0.3661 0.8838 -0.2912
vn -0.1285 -0.3103 -0.9419
vn -0.4076 0.9132 -0.0046
vn -0.7857 -0.6185 0.0095
vn -0.3661 0.2912 0.8838
vn 0.1285 0.9419 -0.3103
vn -0.9339 0.0046 0.3575
vn -0.1183 -0.0095 -0.9929
vn 0.4077 0.0046 0.9131
vn 0.7857 -0.0095 -0.6186
vn -0.0000 0.9200 0.3920
vn -0.0000 -0.6233 0.7820
vn 0.8889 0.4233 -0.1753
vn 0.4027 -0.8456 0.3503
vn -0.0000 0.3733 -0.9277
vn -0.0000 -0.9937 -0.1122
vn -0.8888 0.4233 -0.1753
vn -0.4027 -0.8456 0.3503
vn -0.0000 -0.5773 -0.8165
vn -0.0000 -0.5773 0.8165
vn -0.9167 0.0001 -0.3995
vn -0.3924 0.0004 0.9198
vn -0.0000 0.5384 -0.8427
vn -0.0000 0.6505 0.7595
vn 0.9167 0.0001 -0.3996
vn 0.3924 0.0004 0.9198
vn -0.8889 0.4233 -0.1753
vn 0.9167 0.0001 0.3995
vn 0.3924 0.0004 -0.9198
vn -0.0000 0.5384 0.8427
vn -0.0000 0.6505 -0.7595
vn -0.9167 0.0001 0.3996
vn -0.3924 0.0004 -0.9198
vn -0.0000 -0.5774 -0.8165
vn 0.3920 -0.0000 0.9199
vn 0.7820 -0.0000 -0.6233
vn -0.1753 0.8889 0.4233
vn 0.3503 0.4027 -0.8456
vn -0.9277 -0.0000 0.3733
vn -0.1122 -0.0000 -0.9937
vn -0.1753 -0.8889 0.4233
vn 0.3503 -0.4027 -0.8457
vn 0.9131 -0.4077 -0.0046
vn -0.6186 -0.7857 0.0095
vn -0.6185 -0.7857 0.0095
vn 0.8838 0.3661 -0.2912
vn -0.3103 -0.1285 -0.9419
vn 0.3575 0.9339 -0.0046
vn -0.9929 0.1183 0.0095
vn -0.3661 -0.8838 0.2912
vn 0.1285 0.3103 0.9419
vn -0.9339 -0.3575 0.0046
vn -0.1183 0.9929 -0.0095
vn 0.4077 -0.9131 0.0046
vn 0.7857 0.6186 -0.0095
vn -0.0000 -0.5774 0.8165
vn -0.0000 -0.8199 0.5725
vn -0.0000 -0.3104 -0.9506
vn 0.8996 -0.1664 0.4038
vn 0.4027 0.3504 -0.8456
vn -0.0000 0.3920 0.9200
vn -0.0000 0.7820 -0.6233
vn -0.8996 -0.1664 0.4038
vn -0.4023 0.3504 -0.8458
vn 0.4027 -0.3503 -0.8456
vn 0.3503 -0.8457 -0.4027
vn 0.4167 0.4089 0.8119
vn 0.4089 0.4317 -0.8040
vn -0.1763 0.4257 0.8875
vn -0.3338 0.8059 -0.4890
vn -0.5838 -0.0055 0.8119
vn -0.5944 0.0161 -0.8040
vn 0.1318 -0.3183 -0.9388
vn 0.4257 -0.1763 -0.8875
vn 0.8059 -0.3338 0.4890
vn -0.0055 -0.5838 -0.8119
vn 0.0161 -0.5944 0.8040
vn -0.8430 0.3491 -0.4093
vn -0.3183 0.1318 0.9388
vn 0.4089 0.4167 -0.8119
vn 0.4317 0.4089 0.8040
vn 0.8430 -0.4093 0.3492
vn 0.3183 0.9388 0.1318
vn -0.4089 -0.8119 0.4166
vn -0.4317 0.8040 0.4089
vn -0.4257 -0.8875 -0.1763
vn -0.8059 0.4890 -0.3338
vn 0.0055 -0.8119 -0.5838
vn -0.0161 0.8040 -0.5944
vn -0.0055 0.5838 0.8119
vn 0.0161 0.5944 -0.8040
vn 0.4089 -0.4167 0.8119
vn 0.4317 -0.4089 -0.8040
vn 0.4257 0.1763 0.8875
vn 0.8059 0.3338 -0.4890
vn 0.0055 -0.8119 0.5838
vn -0.0161 0.8040 0.5944
vn -0.4257 -0.8875 0.1763
vn -0.8059 0.4890 0.3338
vn -0.4089 -0.8119 -0.4167
vn -0.4317 0.8040 -0.4089
vn 0.8430 -0.4093 -0.3492
vn 0.3183 0.9388 -0.1318
vn 0.5838 -0.8119 0.0055
vn 0.5944 0.8040 -0.0161
vn -0.3492 -0.4093 0.8430
vn -0.1318 0.9388 0.3183
vn -0.4167 -0.8119 -0.4089
vn -0.4089 0.8040 -0.4317
vn 0.1763 -0.8875 -0.4257
vn 0.3338 0.4890 -0.8059
vn -0.5838 0.0055 0.8119
vn -0.5944 -0.0161 -0.8040
vn -0.1763 -0.4257 0.8875
vn -0.3338 -0.8059 -0.4890
vn 0.4167 -0.4089 0.8119
vn 0.4089 -0.4317 -0.8040
vn 0.4167 -0.8119 0.4089
vn 0.4089 0.8040 0.4317
vn -0.1763 -0.8875 0.4257
vn -0.3338 0.4890 0.8059
vn -0.5838 -0.8119 -0.0055
vn -0.5944 0.8040 0.0161
vn 0.3492 -0.4093 -0.8430
vn 0.1318 0.9388 -0.3183
vn 0.1763 -0.4257 0.8875
vn 0.3338 -0.8059 -0.4890
vn 0.5838 0.0055 0.8119
vn 0.5944 -0.0161 -0.8040
vn -0.4167 -0.4089 0.8119
vn -0.4089 -0.4317 -0.8040
vn 0.8430 -0.3492 -0.4093
vn 0.3183 -0.1319 0.9388
vn -0.4089 -0.4167 -0.8119
vn -0.4317 -0.4089 0.8040
vn -0.4257 0.1763 -0.8875
vn -0.8059 0.3338 0.4890
vn 0.0055 0.5838 -0.8119
vn -0.0161 0.5944 0.8040
vn 0.4089 0.4167 0.8119
vn 0.4317 0.4089 -0.8040
vn -0.0055 -0.5838 0.8119
vn 0.0161 -0.5944 -0.8040
vn 0.4257 -0.1763 0.8875
vn 0.8059 -0.3338 -0.4890
vn 0.3183 0.1318 -0.9388
vn -0.4089 0.4167 0.8119
vn -0.4317 0.4089 -0.8040
vn -0.4257 -0.1763 0.8875
vn -0.8059 -0.3338 -0.4890
vn 0.0055 -0.5838 0.8119
vn -0.0161 -0.5944 -0.8040
vn -0.4167 -0.4089 -0.8119
vn -0.4089 -0.4317 0.8040
vn -0.3492 0.8430 -0.4093
vn -0.1318 0.3183 0.9388
vn 0.5838 0.0055 -0.8119
vn 0.5944 -0.0161 0.8040
vn 0.1763 -0.4257 -0.8875
vn 0.3338 -0.8059 0.4890
vn 0.0055 -0.5838 -0.8119
vn -0.0161 -0.5944 0.8040
vn -0.4257 -0.1763 -0.8875
vn -0.8059 -0.3338 0.4890
vn -0.4089 0.4167 -0.8119
vn -0.4317 0.4089 0.8040
vn 0.8430 0.3492 -0.4093
vn 0.3183 0.1318 0.9388
vn 0.3492 -0.8430 -0.4093
vn 0.1319 -0.3183 0.9388
vn -0.5838 -0.0055 -0.8119
vn -0.5944 0.0161 0.8040
vn -0.1763 0.4257 -0.8875
vn -0.3338 0.8059 0.4890
vn 0.4167 0.4089 -0.8119
vn 0.4089 0.4317 0.8040
vn 0.5838 -0.0055 -0.8119
vn 0.5944 0.0161 0.8040
vn -0.3492 -0.8430 -0.4093
vn -0.1318 -0.3183 0.9388
vn -0.4167 0.4089 -0.8119
vn -0.4089 0.4317 0.8040
vn 0.1763 0.4257 -0.8875
vn 0.3338 0.8059 0.4890
vn 0.4257 -0.8875 -0.1763
vn 0.8059 0.4890 -0.3338
vn 0.4089 -0.8119 0.4167
vn 0.4317 0.8040 0.4089
vn -0.8430 -0.4093 0.3491
vn -0.3183 0.9388 0.1318
vn -0.0055 -0.8119 -0.5838
vn 0.0161 0.8040 -0.5944
vn 0.4257 0.1763 -0.8875
vn 0.8059 0.3338 0.4890
vn 0.4089 -0.4167 -0.8119
vn 0.4317 -0.4089 0.8040
vn -0.8430 -0.3492 -0.4093
vn -0.3183 -0.1318 0.9388
vn -0.0055 0.5838 -0.8119
vn 0.0161 0.5944 0.8040
vn 0.0055 0.5838 0.8119
vn -0.0161 0.5944 -0.8040
vn -0.4257 0.1763 0.8875
vn -0.8059 0.3338 -0.4890
vn -0.4089 -0.4167 0.8119
vn -0.4317 -0.4089 -0.8040
vn 0.4167 -0.4089 -0.8119
vn 0.4089 -0.4317 0.8040
vn -0.1763 -0.4257 -0.8875
vn -0.3338 -0.8059 0.4890
vn -0.5838 0.0055 -0.8119
vn -0.5944 -0.0161 0.8040
vn 0.3492 0.8430 -0.4093
vn 0.1318 0.3183 0.9388
vn 0.4257 -0.8875 0.1763
vn 0.8059 0.4890 0.3338
vn -0.0055 -0.8119 0.5838
vn 0.0161 0.8040 0.5944
vn -0.8430 -0.4093 -0.3492
vn -0.3183 0.9388 -0.1318
vn 0.4089 -0.8119 -0.4167
vn 0.4317 0.8040 -0.4089
vn 0.8165 -0.5773 -0.0000
vn 0.3492 -0.4093 0.8430
vn 0.1318 0.9388 0.3183
vn -0.5838 -0.8119 0.0055
vn -0.5944 0.8040 -0.0161
vn -0.1763 -0.8875 -0.4257
vn -0.3338 0.4890 -0.8059
vn 0.4167 -0.8119 -0.4089
vn 0.4089 0.8040 -0.4317
vn -0.4026 0.3504 -0.8457
vn -0.9388 0.1319 0.3183
vn -0.8165 -0.5773 -0.0000
vn 0.8429 0.3492 -0.4093
vn 0.8429 -0.3492 -0.4093
vn -0.1319 -0.3183 0.9388
vn -0.8430 0.3492 -0.4093
vn -0.3491 0.8430 -0.4093
vn 0.4077 -0.9131 -0.0046
vn 0.7857 0.6186 0.0095
vn -0.9339 -0.3575 -0.0046
vn -0.1183 0.9929 0.0095
vn -0.9359 -0.1363 -0.3248
vn -0.9359 -0.1363 0.3247
vn -0.3492 0.4093 -0.8430
vn -0.8430 0.4093 -0.3492
vn -0.8430 0.4093 0.3491
vn -0.3492 0.4093 0.8430
vn 0.8430 0.4093 0.3492
vn 0.8429 0.4093 -0.3492
vn 0.3183 -0.9388 -0.1319
vn 0.8429 -0.3492 0.4093
vn 0.8429 0.3492 0.4093
vn -0.3491 0.8430 0.4093
vn -0.3491 -0.4093 -0.8430
vn -0.4076 0.0046 -0.9132
vn 0.9340 0.0046 -0.3573
vn 0.9132 0.4076 0.0046
vn 0.3573 -0.9340 0.0046
vn -0.9930 -0.1181 -0.0095
vn -0.4029 0.3503 0.8455
vn 0.9339 -0.3575 0.0046
vn 0.1183 0.9929 -0.0095
vn -0.4077 -0.9131 0.0046
vn 0.9340 -0.3573 -0.0046
vn 0.1182 0.9929 0.0095
vn -0.4076 -0.9132 -0.0046
vn -0.7857 0.6185 0.0095
vn 0.3575 -0.9339 -0.0046
vn 0.9131 0.4077 -0.0046
vn 0.8456 0.4027 -0.3503
vn 0.9132 0.0046 -0.4076
vn 0.3573 0.0046 0.9340
vn -0.3573 0.0046 -0.9340
vn 0.9929 -0.0095 -0.1182
vn 0.9930 -0.0095 -0.1181
vn -0.9132 0.0046 0.4076
vn 0.4027 -0.3503 0.8457
vn 0.4076 0.9132 -0.0046
vn -0.9340 0.3573 -0.0046
vn -0.1182 -0.9929 0.0095
vn -0.1181 -0.9930 0.0095
vn -0.4023 0.3504 0.8458
vn 0.8996 -0.1664 -0.4039
vn -0.0000 0.9199 -0.3920
vn -0.4027 -0.3503 -0.8457
vn 0.3503 -0.8457 0.4027
vn 0.1753 0.8888 0.4233
vn -0.3503 0.4027 -0.8456
vn 0.9199 -0.3920 -0.0000
vn 0.8457 0.4027 0.3503
vn 0.1753 0.8889 -0.4233
vn -0.3503 0.4027 0.8457
vn 0.3503 -0.4027 0.8456
vn -0.9131 0.0046 -0.4077
vn 0.6186 -0.0095 -0.7857
vn -0.3575 0.0046 0.9339
vn 0.9359 -0.1363 0.3248
vn 0.9359 -0.1363 -0.3247
vn -0.9131 -0.4077 -0.0046
vn 0.6186 -0.7857 0.0095
vn -0.3575 0.9339 -0.0046
vn 0.9929 0.1183 0.0095
vn -0.9131 0.4077 0.0046
vn -0.3575 -0.9339 0.0046
vn 0.9929 -0.1182 -0.0095
vn 0.4077 0.9131 0.0046
vn 0.7857 -0.6186 -0.0095
vn -0.9339 0.3575 0.0046
vn -0.1183 -0.9929 -0.0095
vn 0.3575 0.9339 0.0046
vn -0.9929 0.1183 -0.0095
vn 0.9131 -0.4077 0.0046
vn -0.6186 -0.7857 -0.0095
vn -0.3573 0.9340 0.0046
vn 0.9929 0.1182 -0.0095
vn -0.9132 -0.4076 0.0046
vn 0.4077 0.0046 -0.9131
vn 0.7857 -0.0095 0.6186
vn -0.9339 0.0046 -0.3575
vn 0.9339 0.0046 0.3575
vn 0.1183 -0.0095 -0.9929
vn -0.4077 0.0046 0.9131
vn -0.7857 -0.0095 -0.6186
vn 0.3575 0.0046 -0.9339
vn -0.9929 -0.0095 -0.1183
vn 0.9131 0.0046 0.4077
vn -0.4076 0.9132 0.0046
vn 0.9340 0.3573 0.0046
vn 0.1182 -0.9929 -0.0095
vn -0.3573 -0.9340 -0.0046
vn -0.9132 0.4076 -0.0046
vn 0.9339 0.3575 -0.0046
vn 0.1183 -0.9929 0.0095
vn -0.4077 0.9131 -0.0046
vn -0.9340 0.0046 0.3573
vn -0.1182 -0.0095 -0.9929
vn 0.4076 0.0046 0.9132
vn 0.7857 -0.0095 -0.6185
vn -0.9167 0.0001 -0.3996
vn 0.9167 0.0001 -0.3995
vn -0.0000 0.9199 0.3920
vn 0.8888 0.4233 -0.1753
vn 0.9167 0.0001 0.3996
vn -0.9167 0.0001 0.3995
vn 0.3503 -0.4027 -0.8456
vn 0.9132 -0.4076 -0.0046
vn 0.3573 0.9340 -0.0046
vn -0.9930 0.1181 0.0095
vn -0.9340 -0.3573 0.0046
vn -0.1182 0.9929 -0.0095
vn 0.4076 -0.9132 0.0046
vn 0.7857 0.6185 -0.0095
vn 0.4023 0.3504 -0.8458
vn -0.4027 0.3504 -0.8456
vn -0.8888 0.1754 0.4233
vn 0.3183 0.9388 0.1319
vn -0.4089 -0.8119 0.4167
vn 0.3183 -0.1318 0.9388
vn -0.8430 0.3491 0.4093
vn 0.1318 -0.3183 0.9388
vn -0.8430 -0.4093 0.3492
vn -0.8430 -0.4093 -0.3491
vn 0.9388 0.1319 0.3183
vn 0.4089 0.8040 -0.4316
vn 0.3183 0.1319 0.9388
vn -0.8429 0.3492 -0.4093
vt 0.000000 0.000000
s 0
f 265/1/1 161/1/1 157/1/1
f 266/1/2 158/1/2 162/1/2
f 267/1/3 266/1/3 157/1/3
f 266/1/4 267/1/4 150/1/4
f 268/1/5 267/1/5 149/1/5
f 267/1/6 268/1/6 154/1/6
f 268/1/7 153/1/7 161/1/7
f 265/1/8 162/1/8 154/1/8
f 269/1/9 223/1/9 37/1/9
f 270/1/10 38/1/10 224/1/10
f 270/1/11 37/1/11 43/1/11
f 271/1/12 44/1/12 38/1/12
f 272/1/13 271/1/13 43/1/13
f 271/1/14 272/1/14 220/1/14
f 269/1/15 272/1/15 219/1/15
f 272/1/16 269/1/16 224/1/16
f 274/1/17 273/1/17 21/1/17
f 274/1/18 26/1/18 22/1/18
f 274/1/19 25/1/19 23/1/19
f 274/1/20 275/1/20 24/1/20
f 275/1/21 23/1/21 19/1/21
f 275/1/22 276/1/22 20/1/22
f 277/1/23 276/1/23 19/1/23
f 277/1/24 30/1/24 20/1/24
f 278/1/25 277/1/25 29/1/25
f 278/1/26 28/1/26 30/1/26
f 279/1/27 278/1/27 27/1/27
f 278/1/28 279/1/28 32/1/28
f 279/1/29 31/1/29 33/1/29
f 280/1/30 34/1/30 32/1/30
f 281/1/31 280/1/31 33/1/31
f 280/1/32 281/1/32 36/1/32
f 281/1/33 35/1/33 21/1/33
f 281/1/34 273/1/35 22/1/34
f 283/1/36 282/1/36 73/1/36
f 283/1/37 76/1/37 74/1/37
f 283/1/38 75/1/38 69/1/38
f 283/1/39 284/1/39 70/1/39
f 285/1/40 284/1/40 69/1/40
f 285/1/41 82/1/41 70/1/41
f 286/1/42 285/1/42 81/1/42
f 285/1/43 286/1/43 84/1/43
f 287/1/44 286/1/44 83/1/44
f 287/1/45 72/1/45 84/1/45
f 288/1/46 287/1/46 71/1/46
f 288/1/47 80/1/47 72/1/47
f 288/1/48 79/1/48 77/1/48
f 288/1/49 289/1/49 78/1/49
f 282/1/50 289/1/50 77/1/50
f 289/1/51 282/1/51 74/1/51
f 291/1/52 290/1/52 161/1/52
f 290/1/53 291/1/53 154/1/53
f 291/1/54 153/1/54 225/1/54
f 292/1/55 226/1/55 154/1/55
f 293/1/56 292/1/56 225/1/56
f 293/1/57 228/1/57 226/1/57
f 290/1/58 293/1/58 227/1/58
f 293/1/59 290/1/59 162/1/59
f 295/1/60 294/1/60 61/1/60
f 295/1/61 66/1/61 62/1/61
f 296/1/56 295/1/56 65/1/56
f 296/1/62 68/1/62 66/1/62
f 296/1/63 67/1/63 53/1/63
f 296/1/64 297/1/64 54/1/64
f 298/1/65 297/1/65 53/1/65
f 298/1/66 60/1/66 54/1/66
f 298/1/67 59/1/67 55/1/67
f 298/1/68 299/1/68 56/1/68
f 299/1/69 55/1/69 57/1/69
f 299/1/70 300/1/70 58/1/70
f 301/1/71 300/1/71 57/1/71
f 301/1/72 64/1/72 58/1/72
f 294/1/73 301/1/73 63/1/73
f 301/1/74 294/1/74 62/1/74
f 302/1/75 123/1/75 175/1/75
f 303/1/76 176/1/76 124/1/76
f 303/1/77 175/1/77 179/1/77
f 303/1/78 304/1/78 180/1/78
f 305/1/79 304/1/79 179/1/79
f 304/1/80 305/1/80 132/1/80
f 302/1/81 305/1/81 131/1/81
f 305/1/82 302/1/82 124/1/82
f 306/1/83 129/1/83 127/1/83
f 307/1/3 128/1/3 130/1/3
f 308/1/84 307/1/84 127/1/84
f 307/1/85 308/1/85 132/1/85
f 309/1/86 308/1/86 131/1/86
f 308/1/87 309/1/87 126/1/87
f 309/1/88 125/1/88 129/1/88
f 306/1/89 130/1/89 126/1/89
f 311/1/90 310/1/90 201/1/90
f 310/1/91 311/1/91 198/1/91
f 312/1/92 311/1/92 197/1/92
f 311/1/93 312/1/93 190/1/93
f 312/1/94 189/1/94 193/1/94
f 313/1/95 194/1/95 190/1/95
f 313/1/96 193/1/96 201/1/96
f 310/1/97 202/1/97 194/1/97
f 315/1/98 314/1/98 249/1/98
f 315/1/99 10/1/99 250/1/99
f 315/1/100 9/1/100 13/1/101
f 316/1/102 14/1/102 10/1/102
f 317/1/103 316/1/103 13/1/103
f 316/1/104 317/1/104 248/1/104
f 314/1/105 317/1/105 247/1/105
f 317/1/106 314/1/106 250/1/106
f 319/1/107 318/1/107 193/1/107
f 318/1/108 319/1/108 190/1/108
f 320/1/109 319/1/109 189/1/109
f 320/1/110 184/1/110 190/1/110
f 320/1/111 183/1/111 181/1/111
f 321/1/112 182/1/112 184/1/112
f 318/1/83 321/1/83 181/1/83
f 321/1/113 318/1/113 194/1/113
f 322/1/114 159/1/114 163/1/114
f 323/1/115 164/1/115 160/1/115
f 323/1/116 163/1/116 157/1/116
f 324/1/117 158/1/117 164/1/117
f 325/1/118 324/1/118 157/1/118
f 324/1/119 325/1/119 162/1/119
f 322/1/120 325/1/120 161/1/120
f 325/1/121 322/1/121 160/1/121
f 327/1/122 326/1/122 155/1/122
f 326/1/123 327/1/123 164/1/123
f 328/1/124 327/1/124 163/1/124
f 327/1/125 328/1/126 160/1/125
f 328/1/127 159/1/127 151/1/127
f 329/1/128 152/1/128 160/1/128
f 329/1/129 151/1/129 155/1/129
f 326/1/130 156/1/130 152/1/130
f 331/1/131 330/1/131 69/1/131
f 330/1/132 331/1/132 172/1/132
f 332/1/133 331/1/133 171/1/133
f 332/1/134 166/1/134 172/1/134
f 333/1/135 332/1/135 165/1/135
f 332/1/136 333/1/136 82/1/136
f 330/1/137 333/1/137 81/1/137
f 333/1/138 330/1/138 70/1/138
f 335/1/139 334/1/139 5/1/139
f 334/1/140 335/1/140 258/1/140
f 336/1/141 335/1/141 257/1/141
f 336/1/142 256/1/142 258/1/142
f 337/1/143 336/1/143 255/1/143
f 336/1/144 337/1/144 2/1/144
f 334/1/145 337/1/145 1/1/145
f 337/1/146 334/1/146 6/1/146
f 338/1/147 215/1/147 41/1/147
f 339/1/148 42/1/148 216/1/148
f 340/1/149 339/1/149 41/1/149
f 339/1/150 340/1/150 40/1/150
f 341/1/151 340/1/151 39/1/151
f 340/1/152 341/1/152 214/1/152
f 338/1/153 341/1/153 213/1/153
f 341/1/154 338/1/154 216/1/154
f 343/1/155 342/1/155 121/1/155
f 342/1/156 343/1/156 118/1/156
f 344/1/157 343/1/157 117/1/157
f 343/1/158 344/1/158 110/1/158
f 344/1/159 109/1/159 113/1/159
f 345/1/160 114/1/160 110/1/160
f 345/1/161 113/1/161 121/1/161
f 342/1/162 122/1/162 114/1/162
f 347/1/163 346/1/163 115/1/163
f 346/1/164 347/1/164 124/1/164
f 347/1/165 123/1/165 119/1/165
f 348/1/166 120/1/166 124/1/166
f 348/1/162 119/1/162 111/1/162
f 348/1/161 349/1/161 112/1/161
f 346/1/167 349/1/167 111/1/167
f 349/1/168 346/1/168 116/1/168
f 351/1/169 350/1/169 219/1/169
f 351/1/170 44/1/170 220/1/170
f 352/1/171 351/1/171 43/1/171
f 351/1/172 352/1/172 42/1/172
f 353/1/173 352/1/173 41/1/173
f 352/1/174 353/1/174 216/1/174
f 353/1/175 215/1/175 219/1/175
f 350/1/176 220/1/176 216/1/176
f 355/1/177 354/1/177 11/1/177
f 354/1/178 355/1/178 254/1/178
f 356/1/179 355/1/179 253/1/179
f 355/1/180 356/1/180 248/1/180
f 357/1/181 356/1/181 247/1/181
f 357/1/182 14/1/182 248/1/182
f 357/1/183 13/1/183 11/1/183
f 354/1/184 12/1/184 14/1/184
f 359/1/185 358/1/185 87/1/185
f 359/1/186 68/1/186 88/1/186
f 360/1/187 359/1/187 67/1/187
f 359/1/188 360/1/188 66/1/188
f 361/1/189 360/1/189 65/1/189
f 360/1/190 361/1/190 86/1/190
f 361/1/191 85/1/191 87/1/191
f 358/1/192 88/1/192 86/1/192
f 362/1/117 135/1/117 139/1/117
f 363/1/116 140/1/116 136/1/116
f 364/1/193 363/1/193 139/1/193
f 363/1/194 364/1/194 138/1/194
f 365/1/195 364/1/195 137/1/195
f 364/1/196 365/1/196 134/1/196
f 365/1/197 133/1/197 135/1/197
f 362/1/198 136/1/198 134/1/198
f 367/1/185 366/1/185 51/1/185
f 366/1/186 367/1/186 228/1/186
f 368/1/187 367/1/187 227/1/187
f 367/1/188 368/1/188 226/1/188
f 368/1/189 225/1/189 49/1/189
f 369/1/190 50/1/190 226/1/190
f 369/1/191 49/1/191 51/1/191
f 366/1/192 52/1/192 50/1/192
f 370/1/98 19/1/98 233/1/98
f 370/1/99 371/1/99 234/1/99
f 371/1/100 233/1/100 229/1/100
f 372/1/102 230/1/102 234/1/102
f 373/1/103 372/1/103 229/1/103
f 373/1/104 30/1/104 230/1/104
f 370/1/105 373/1/105 29/1/105
f 373/1/199 370/1/199 20/1/200
f 375/1/139 374/1/139 239/1/139
f 374/1/140 375/1/140 34/1/140
f 375/1/141 33/1/141 31/1/141
f 375/1/142 376/1/142 32/1/142
f 377/1/143 376/1/143 31/1/143
f 376/1/144 377/1/144 238/1/144
f 374/1/145 377/1/145 237/1/145
f 374/1/146 240/1/146 238/1/146
f 379/1/201 378/1/201 95/1/201
f 378/1/202 379/1/202 92/1/202
f 379/1/203 91/1/203 61/1/203
f 380/1/204 62/1/204 92/1/204
f 380/1/205 61/1/205 63/1/205
f 381/1/206 64/1/206 62/1/206
f 381/1/207 63/1/207 95/1/207
f 381/1/208 378/1/208 96/1/208
f 382/1/209 89/1/209 53/1/209
f 383/1/210 54/1/210 90/1/210
f 383/1/211 53/1/211 67/1/211
f 384/1/212 68/1/212 54/1/212
f 385/1/213 384/1/213 67/1/213
f 384/1/214 385/1/214 88/1/214
f 382/1/215 385/1/215 87/1/215
f 385/1/216 382/1/216 90/1/216
f 387/1/217 386/1/217 241/1/217
f 386/1/218 387/1/218 36/1/218
f 388/1/219 387/1/219 35/1/219
f 387/1/220 388/1/220 34/1/220
f 388/1/221 33/1/221 239/1/221
f 388/1/222 389/1/222 240/1/222
f 389/1/223 239/1/223 241/1/223
f 386/1/224 242/1/224 240/1/224
f 390/1/149 97/1/149 99/1/149
f 390/1/150 391/1/150 100/1/150
f 391/1/225 99/1/225 57/1/225
f 392/1/152 58/1/152 100/1/152
f 393/1/153 392/1/153 57/1/153
f 392/1/154 393/1/154 56/1/154
f 390/1/147 393/1/147 55/1/147
f 393/1/148 390/1/148 98/1/148
f 394/1/226 99/1/226 95/1/226
f 395/1/227 96/1/227 100/1/227
f 396/1/228 395/1/228 95/1/228
f 396/1/229 64/1/229 96/1/229
f 397/1/230 396/1/230 63/1/230
f 396/1/231 397/1/231 58/1/231
f 394/1/232 397/1/232 57/1/232
f 397/1/233 394/1/233 100/1/233
f 398/1/234 169/1/234 71/1/234
f 399/1/235 72/1/235 170/1/235
f 399/1/236 71/1/236 83/1/236
f 399/1/237 400/1/237 84/1/237
f 401/1/238 400/1/238 83/1/238
f 400/1/239 401/1/239 168/1/239
f 401/1/240 167/1/240 169/1/240
f 398/1/241 170/1/241 168/1/241
f 403/1/242 402/1/242 173/1/242
f 402/1/243 403/1/243 80/1/243
f 404/1/244 403/1/244 79/1/244
f 403/1/245 404/1/245 72/1/245
f 405/1/246 404/1/246 71/1/246
f 404/1/247 405/1/247 170/1/247
f 405/1/248 169/1/248 173/1/248
f 402/1/249 174/1/249 170/1/249
f 406/1/173 97/1/173 55/1/173
f 407/1/174 56/1/174 98/1/174
f 407/1/175 55/1/175 59/1/175
f 408/1/176 60/1/176 56/1/176
f 409/1/169 408/1/169 59/1/169
f 408/1/170 409/1/170 94/1/170
f 406/1/171 409/1/171 93/1/171
f 409/1/172 406/1/172 98/1/172
f 410/1/250 177/1/250 77/1/250
f 411/1/251 78/1/251 178/1/251
f 411/1/252 77/1/252 79/1/252
f 411/1/253 412/1/253 80/1/253
f 412/1/254 79/1/254 173/1/254
f 412/1/255 413/1/255 174/1/255
f 413/1/256 173/1/256 177/1/256
f 413/1/257 410/1/257 178/1/257
f 415/1/258 414/1/258 75/1/258
f 414/1/259 415/1/259 176/1/259
f 416/1/260 415/1/260 175/1/260
f 415/1/261 416/1/261 172/1/261
f 416/1/262 171/1/262 69/1/262
f 416/1/263 417/1/263 70/1/263
f 417/1/264 69/1/264 75/1/264
f 414/1/265 76/1/265 70/1/265
f 419/1/266 418/1/266 77/1/266
f 418/1/267 419/1/267 178/1/267
f 419/1/268 177/1/268 179/1/268
f 420/1/269 180/1/269 178/1/269
f 420/1/270 179/1/270 73/1/270
f 421/1/271 74/1/271 180/1/271
f 418/1/272 421/1/272 73/1/272
f 418/1/273 78/1/273 74/1/273
f 423/1/274 422/1/274 73/1/274
f 422/1/275 423/1/275 180/1/275
f 423/1/276 179/1/276 175/1/276
f 424/1/277 176/1/277 180/1/277
f 425/1/278 424/1/278 175/1/278
f 425/1/279 76/1/279 176/1/279
f 422/1/280 425/1/280 75/1/280
f 425/1/281 422/1/281 74/1/281
f 426/1/282 107/1/282 115/1/282
f 427/1/283 116/1/283 108/1/283
f 427/1/284 115/1/284 111/1/284
f 428/1/285 112/1/285 116/1/285
f 429/1/286 428/1/286 111/1/286
f 428/1/287 429/1/287 106/1/287
f 426/1/288 429/1/288 105/1/288
f 429/1/289 426/1/289 108/1/289
f 430/1/13 93/1/13 59/1/13
f 431/1/14 60/1/14 94/1/14
f 432/1/15 431/1/15 59/1/15
f 431/1/16 432/1/16 54/1/16
f 433/1/9 432/1/9 53/1/9
f 432/1/10 433/1/10 90/1/10
f 433/1/11 89/1/11 93/1/11
f 430/1/12 94/1/12 90/1/12
f 435/1/290 434/1/290 3/1/290
f 435/1/291 8/1/291 4/1/291
f 436/1/292 435/1/292 7/1/292
f 435/1/293 436/1/293 6/1/293
f 436/1/294 5/1/294 1/1/294
f 436/1/295 437/1/295 2/1/295
f 438/1/296 437/1/296 1/1/296
f 437/1/297 438/1/297 12/1/297
f 439/1/298 438/1/298 11/1/298
f 438/1/299 439/1/299 14/1/299
f 439/1/300 13/1/300 9/1/300
f 439/1/301 440/1/301 10/1/301
f 441/1/302 440/1/302 9/1/302
f 441/1/303 18/1/303 10/1/303
f 441/1/20 17/1/20 15/1/20
f 441/1/19 442/1/19 16/1/19
f 442/1/304 15/1/304 3/1/304
f 442/1/305 434/1/305 4/1/305
f 443/1/306 145/1/306 141/1/306
f 444/1/307 142/1/307 146/1/307
f 445/1/123 444/1/123 141/1/123
f 444/1/122 445/1/122 136/1/122
f 446/1/308 445/1/308 135/1/308
f 445/1/309 446/1/310 134/1/309
f 446/1/311 133/1/311 145/1/311
f 443/1/312 146/1/312 134/1/312
f 447/1/313 187/1/313 195/1/313
f 448/1/314 196/1/314 188/1/314
f 448/1/315 195/1/315 191/1/315
f 449/1/316 192/1/316 196/1/316
f 450/1/317 449/1/317 191/1/317
f 449/1/318 450/1/318 186/1/318
f 447/1/319 450/1/319 185/1/319
f 450/1/320 447/1/320 188/1/320
f 452/1/321 451/1/321 203/1/321
f 452/1/322 212/1/322 204/1/322
f 452/1/323 211/1/323 207/1/323
f 453/1/324 208/1/324 212/1/324
f 454/1/113 453/1/113 207/1/113
f 453/1/83 454/1/83 200/1/83
f 451/1/325 454/1/325 199/1/325
f 454/1/326 451/1/326 204/1/326
f 456/1/213 455/1/213 227/1/213
f 456/1/214 52/1/214 228/1/214
f 457/1/215 456/1/215 51/1/215
f 456/1/216 457/1/216 38/1/216
f 458/1/209 457/1/209 37/1/209
f 457/1/210 458/1/210 224/1/210
f 458/1/211 223/1/211 227/1/211
f 455/1/212 228/1/212 224/1/212
f 460/1/327 459/1/327 209/1/327
f 459/1/328 460/1/328 206/1/328
f 460/1/329 205/1/329 197/1/329
f 460/1/330 461/1/330 198/1/330
f 461/1/331 197/1/331 201/1/331
f 462/1/332 202/1/332 198/1/332
f 459/1/318 462/1/318 201/1/318
f 462/1/317 459/1/317 210/1/317
f 463/1/333 195/1/333 203/1/333
f 463/1/334 464/1/334 204/1/334
f 464/1/335 203/1/335 199/1/335
f 465/1/336 200/1/336 204/1/336
f 465/1/97 199/1/97 191/1/97
f 466/1/96 192/1/96 200/1/96
f 463/1/337 466/1/337 191/1/337
f 466/1/338 463/1/339 196/1/338
f 468/1/340 467/1/340 91/1/340
f 467/1/341 468/1/341 86/1/341
f 468/1/342 85/1/342 65/1/342
f 469/1/343 66/1/343 86/1/343
f 470/1/344 469/1/344 65/1/344
f 469/1/345 470/1/345 62/1/345
f 467/1/346 470/1/346 61/1/346
f 470/1/347 467/1/347 92/1/347
f 471/1/348 131/1/348 127/1/348
f 472/1/349 128/1/349 132/1/349
f 473/1/350 472/1/350 127/1/350
f 473/1/116 120/1/116 128/1/116
f 474/1/351 473/1/351 119/1/351
f 473/1/352 474/1/352 124/1/352
f 471/1/353 474/1/353 123/1/353
f 474/1/354 471/1/354 132/1/354
f 476/1/355 475/1/355 113/1/355
f 475/1/356 476/1/356 110/1/356
f 476/1/357 109/1/357 103/1/357
f 477/1/358 104/1/358 110/1/358
f 477/1/359 103/1/359 101/1/359
f 478/1/360 102/1/360 104/1/360
f 475/1/116 478/1/116 101/1/116
f 478/1/350 475/1/350 114/1/350
f 480/1/177 479/1/177 231/1/177
f 480/1/178 28/1/178 232/1/178
f 481/1/179 480/1/179 27/1/179
f 480/1/180 481/1/180 30/1/180
f 481/1/181 29/1/181 229/1/181
f 481/1/182 482/1/182 230/1/182
f 482/1/183 229/1/183 231/1/183
f 482/1/361 479/1/361 232/1/361
f 484/1/362 483/1/362 129/1/362
f 483/1/363 484/1/364 126/1/363
f 485/1/365 484/1/365 125/1/365
f 485/1/366 118/1/366 126/1/366
f 485/1/367 117/1/367 121/1/367
f 486/1/368 122/1/368 118/1/368
f 483/1/287 486/1/287 121/1/287
f 486/1/286 483/1/286 130/1/286
f 488/1/342 487/1/342 49/1/342
f 487/1/343 488/1/343 226/1/343
f 489/1/344 488/1/344 225/1/344
f 488/1/345 489/1/345 222/1/345
f 489/1/346 221/1/346 45/1/346
f 489/1/347 490/1/347 46/1/347
f 490/1/340 45/1/340 49/1/340
f 490/1/341 487/1/341 50/1/341
f 492/1/203 491/1/203 45/1/203
f 491/1/204 492/1/204 222/1/204
f 492/1/205 221/1/205 217/1/205
f 493/1/206 218/1/206 222/1/206
f 494/1/207 493/1/207 217/1/207
f 494/1/208 48/1/208 218/1/208
f 491/1/201 494/1/201 47/1/201
f 494/1/202 491/1/202 46/1/202
f 496/1/369 495/1/369 207/1/369
f 495/1/370 496/1/370 212/1/370
f 497/1/371 496/1/371 211/1/371
f 496/1/372 497/1/372 206/1/372
f 497/1/373 205/1/373 209/1/373
f 498/1/374 210/1/374 206/1/374
f 495/1/375 498/1/375 209/1/375
f 495/1/350 208/1/350 210/1/350
f 499/1/376 153/1/376 149/1/376
f 500/1/377 150/1/377 154/1/377
f 500/1/378 149/1/378 141/1/378
f 501/1/379 142/1/379 150/1/379
f 502/1/380 501/1/380 141/1/380
f 501/1/381 502/1/381 146/1/381
f 499/1/382 502/1/382 145/1/382
f 502/1/383 499/1/383 154/1/383
f 504/1/4 503/1/4 139/1/4
f 503/1/3 504/1/3 148/1/3
f 505/1/384 504/1/384 147/1/384
f 504/1/385 505/1/385 144/1/385
f 505/1/386 143/1/386 137/1/386
f 505/1/387 506/1/387 138/1/387
f 506/1/388 137/1/388 139/1/388
f 503/1/389 140/1/389 138/1/389
f 508/1/390 507/1/390 103/1/390
f 508/1/391 108/1/391 104/1/391
f 508/1/392 107/1/392 105/1/392
f 509/1/393 106/1/393 108/1/393
f 509/1/3 105/1/3 101/1/3
f 510/1/83 102/1/83 106/1/83
f 507/1/394 510/1/394 101/1/394
f 510/1/395 507/1/395 104/1/395
f 512/1/396 511/1/396 237/1/396
f 511/1/397 512/1/397 32/1/397
f 513/1/398 512/1/398 31/1/398
f 513/1/399 28/1/399 32/1/399
f 514/1/400 513/1/400 27/1/400
f 513/1/401 514/1/401 232/1/401
f 511/1/402 514/1/402 231/1/402
f 514/1/403 511/1/403 238/1/403
f 515/1/404 23/1/404 235/1/404
f 515/1/405 516/1/405 236/1/405
f 517/1/406 516/1/406 235/1/406
f 516/1/407 517/1/407 234/1/407
f 518/1/408 517/1/408 233/1/408
f 518/1/409 20/1/409 234/1/409
f 518/1/410 19/1/410 23/1/410
f 515/1/411 24/1/411 20/1/411
f 520/1/396 519/1/396 1/1/396
f 519/1/397 520/1/397 256/1/397
f 520/1/398 255/1/398 253/1/398
f 521/1/399 254/1/399 256/1/399
f 522/1/400 521/1/400 253/1/400
f 522/1/401 12/1/401 254/1/401
f 522/1/412 11/1/412 1/1/412
f 519/1/403 2/1/403 12/1/403
f 524/1/413 523/1/413 25/1/413
f 523/1/414 524/1/414 22/1/414
f 525/1/415 524/1/415 21/1/415
f 524/1/416 525/1/416 244/1/416
f 525/1/417 243/1/417 245/1/417
f 526/1/418 246/1/418 244/1/418
f 523/1/405 526/1/405 245/1/405
f 526/1/419 523/1/419 26/1/419
f 527/1/420 167/1/420 83/1/420
f 528/1/421 84/1/421 168/1/421
f 528/1/422 83/1/422 81/1/422
f 529/1/423 82/1/423 84/1/423
f 530/1/424 529/1/424 81/1/424
f 529/1/425 530/1/425 166/1/425
f 530/1/426 165/1/426 167/1/426
f 527/1/427 168/1/427 166/1/427
f 531/1/379 147/1/379 155/1/379
f 532/1/378 156/1/378 148/1/378
f 533/1/428 532/1/428 155/1/428
f 532/1/429 533/1/430 152/1/429
f 534/1/431 533/1/431 151/1/431
f 533/1/432 534/1/432 144/1/432
f 534/1/433 143/1/433 147/1/433
f 531/1/434 148/1/434 144/1/434
f 536/1/435 535/1/435 183/1/435
f 535/1/436 536/1/436 188/1/436
f 536/1/437 187/1/437 185/1/437
f 537/1/438 186/1/438 188/1/438
f 538/1/350 537/1/350 185/1/350
f 538/1/375 182/1/375 186/1/375
f 535/1/439 538/1/439 181/1/439
f 538/1/440 535/1/440 184/1/440
f 540/1/404 539/1/404 251/1/404
f 539/1/441 540/1/441 18/1/441
f 541/1/406 540/1/406 17/1/406
f 540/1/407 541/1/407 10/1/407
f 541/1/408 9/1/408 249/1/408
f 541/1/409 542/1/409 250/1/409
f 542/1/410 249/1/410 251/1/410
f 539/1/411 252/1/411 250/1/411
f 544/1/442 543/1/442 243/1/442
f 544/1/443 22/1/443 244/1/443
f 544/1/444 21/1/444 35/1/444
f 545/1/445 36/1/445 22/1/445
f 546/1/446 545/1/446 35/1/446
f 545/1/447 546/1/447 242/1/447
f 543/1/448 546/1/448 241/1/448
f 546/1/449 543/1/449 244/1/449
f 548/1/217 547/1/217 7/1/217
f 547/1/218 548/1/218 260/1/218
f 549/1/219 548/1/219 259/1/219
f 549/1/450 258/1/450 260/1/450
f 550/1/221 549/1/221 257/1/221
f 549/1/222 550/1/222 6/1/222
f 547/1/223 550/1/223 5/1/223
f 547/1/224 8/1/224 6/1/224
f 552/1/228 551/1/228 47/1/228
f 551/1/229 552/1/229 218/1/229
f 553/1/230 552/1/230 217/1/230
f 552/1/231 553/1/231 214/1/231
f 553/1/232 213/1/232 39/1/232
f 554/1/233 40/1/233 214/1/233
f 554/1/226 39/1/226 47/1/226
f 551/1/451 48/1/451 40/1/451
f 556/1/452 555/1/452 223/1/452
f 555/1/453 556/1/453 160/1/453
f 556/1/454 159/1/454 161/1/454
f 556/1/455 557/1/455 162/1/455
f 557/1/456 161/1/456 227/1/456
f 558/1/457 228/1/457 162/1/457
f 558/1/63 227/1/63 223/1/63
f 558/1/458 555/1/458 224/1/458
f 559/1/459 203/1/459 195/1/459
f 559/1/460 560/1/460 196/1/460
f 560/1/461 195/1/461 91/1/461
f 561/1/462 92/1/462 196/1/462
f 562/1/463 561/1/463 91/1/463
f 562/1/464 96/1/464 92/1/464
f 559/1/465 562/1/465 95/1/465
f 562/1/466 559/1/466 204/1/466
f 564/1/467 563/1/467 173/1/467
f 564/1/468 170/1/468 174/1/468
f 565/1/469 564/1/469 169/1/469
f 564/1/470 565/1/470 110/1/470
f 566/1/471 565/1/471 109/1/471
f 566/1/472 118/1/472 110/1/472
f 566/1/473 117/1/473 173/1/473
f 563/1/474 174/1/474 118/1/474
f 567/1/475 145/1/475 221/1/475
f 568/1/476 222/1/476 146/1/476
f 569/1/60 568/1/60 221/1/60
f 569/1/61 226/1/61 222/1/61
f 570/1/477 569/1/477 225/1/477
f 569/1/478 570/1/478 154/1/478
f 570/1/479 153/1/479 145/1/479
f 570/1/480 567/1/480 146/1/480
f 572/1/481 571/1/481 173/1/481
f 571/1/482 572/1/482 118/1/482
f 572/1/483 117/1/483 125/1/483
f 572/1/484 573/1/484 126/1/484
f 573/1/485 125/1/485 177/1/485
f 574/1/486 178/1/486 126/1/486
f 574/1/487 177/1/487 173/1/487
f 574/1/488 571/1/488 174/1/488
f 575/1/489 103/1/489 167/1/489
f 576/1/490 168/1/490 104/1/490
f 576/1/491 167/1/491 165/1/491
f 577/1/492 166/1/492 168/1/492
f 578/1/493 577/1/493 165/1/493
f 577/1/494 578/1/494 108/1/494
f 578/1/495 107/1/495 103/1/495
f 578/1/496 575/1/496 104/1/496
f 580/1/69 579/1/69 215/1/69
f 580/1/70 214/1/70 216/1/70
f 581/1/497 580/1/497 213/1/497
f 580/1/498 581/1/498 138/1/498
f 582/1/499 581/1/499 137/1/499
f 582/1/500 144/1/500 138/1/500
f 582/1/501 143/1/501 215/1/501
f 579/1/502 216/1/502 144/1/502
f 584/1/503 583/1/503 177/1/503
f 583/1/504 584/1/504 126/1/504
f 584/1/505 125/1/505 131/1/505
f 584/1/506 585/1/506 132/1/506
f 585/1/507 131/1/507 179/1/507
f 586/1/508 180/1/508 132/1/508
f 586/1/509 179/1/509 177/1/509
f 586/1/510 583/1/510 178/1/510
f 587/1/511 133/1/511 137/1/511
f 587/1/512 588/1/512 138/1/512
f 588/1/513 137/1/513 213/1/513
f 589/1/514 214/1/514 138/1/514
f 590/1/71 589/1/71 213/1/71
f 590/1/72 218/1/72 214/1/72
f 587/1/515 590/1/515 217/1/515
f 590/1/516 587/1/516 134/1/516
f 592/1/517 591/1/517 93/1/517
f 592/1/518 90/1/518 94/1/518
f 593/1/519 592/1/519 89/1/519
f 592/1/520 593/1/520 190/1/520
f 594/1/521 593/1/521 189/1/521
f 593/1/522 594/1/522 198/1/522
f 594/1/523 197/1/523 93/1/523
f 591/1/524 94/1/524 198/1/524
f 595/1/525 133/1/525 217/1/525
f 596/1/526 218/1/526 134/1/526
f 596/1/73 217/1/73 221/1/73
f 596/1/74 597/1/74 222/1/74
f 598/1/527 597/1/527 221/1/527
f 597/1/528 598/1/528 146/1/528
f 595/1/529 598/1/529 145/1/529
f 595/1/530 134/1/530 146/1/530
f 600/1/67 599/1/67 219/1/67
f 600/1/531 216/1/531 220/1/531
f 601/1/532 600/1/532 215/1/532
f 600/1/533 601/1/533 144/1/533
f 602/1/534 601/1/534 143/1/534
f 602/1/535 152/1/535 144/1/535
f 602/1/536 151/1/536 219/1/536
f 599/1/537 220/1/537 152/1/537
f 603/1/538 203/1/538 95/1/538
f 604/1/539 96/1/539 204/1/539
f 604/1/540 95/1/540 99/1/540
f 604/1/541 605/1/541 100/1/541
f 606/1/542 605/1/542 99/1/542
f 605/1/543 606/1/543 212/1/543
f 603/1/544 606/1/544 211/1/544
f 603/1/545 204/1/545 212/1/545
f 608/1/546 607/1/546 93/1/546
f 607/1/547 608/1/547 198/1/547
f 608/1/548 197/1/548 205/1/548
f 608/1/549 609/1/549 206/1/549
f 609/1/550 205/1/550 97/1/550
f 610/1/551 98/1/551 206/1/551
f 610/1/552 97/1/552 93/1/552
f 610/1/553 607/1/553 94/1/553
f 612/1/554 611/1/554 89/1/554
f 612/1/555 88/1/555 90/1/555
f 613/1/556 612/1/556 87/1/556
f 612/1/557 613/1/557 184/1/557
f 614/1/558 613/1/558 183/1/558
f 614/1/559 190/1/559 184/1/559
f 614/1/560 189/1/560 89/1/560
f 611/1/561 90/1/561 190/1/561
f 615/1/562 183/1/562 87/1/562
f 616/1/563 88/1/563 184/1/563
f 616/1/564 87/1/564 85/1/564
f 616/1/565 617/1/565 86/1/565
f 618/1/566 617/1/566 85/1/566
f 617/1/567 618/1/567 188/1/567
f 618/1/568 187/1/568 183/1/568
f 618/1/569 615/1/569 184/1/569
f 619/1/570 115/1/570 107/1/570
f 619/1/571 620/1/571 108/1/571
f 620/1/572 107/1/572 165/1/572
f 621/1/573 166/1/573 108/1/573
f 621/1/574 165/1/574 171/1/574
f 621/1/575 622/1/575 172/1/575
f 619/1/576 622/1/576 171/1/576
f 622/1/577 619/1/577 116/1/577
f 624/1/578 623/1/578 195/1/578
f 624/1/579 188/1/579 196/1/579
f 624/1/580 187/1/580 85/1/580
f 625/1/581 86/1/581 188/1/581
f 625/1/582 85/1/582 91/1/582
f 625/1/583 626/1/583 92/1/583
f 623/1/584 626/1/584 91/1/584
f 626/1/585 623/1/585 196/1/585
f 628/1/586 627/1/586 219/1/586
f 627/1/587 628/1/587 152/1/587
f 629/1/588 628/1/588 151/1/588
f 628/1/589 629/1/589 160/1/589
f 629/1/590 159/1/590 223/1/590
f 630/1/591 224/1/591 160/1/591
f 630/1/65 223/1/65 219/1/65
f 630/1/66 627/1/66 220/1/66
f 632/1/592 631/1/592 97/1/592
f 631/1/593 632/1/593 206/1/593
f 632/1/594 205/1/594 211/1/594
f 632/1/595 633/1/595 212/1/595
f 633/1/596 211/1/596 99/1/596
f 634/1/597 100/1/597 212/1/597
f 634/1/598 99/1/598 97/1/598
f 634/1/599 631/1/599 98/1/599
f 636/1/600 635/1/600 123/1/600
f 636/1/601 116/1/601 124/1/601
f 636/1/602 115/1/602 171/1/602
f 637/1/603 172/1/603 116/1/603
f 638/1/604 637/1/604 171/1/604
f 638/1/605 176/1/605 172/1/605
f 635/1/606 638/1/606 175/1/606
f 638/1/607 635/1/607 124/1/607
f 640/1/413 639/1/413 263/1/413
f 639/1/414 640/1/414 262/1/414
f 641/1/415 640/1/415 261/1/415
f 641/1/416 4/1/416 262/1/416
f 641/1/417 3/1/417 15/1/417
f 642/1/418 16/1/418 4/1/418
f 642/1/405 15/1/405 263/1/405
f 642/1/404 639/1/404 264/1/404
f 644/1/302 643/1/302 233/1/302
f 644/1/303 236/1/303 234/1/303
f 645/1/20 644/1/20 235/1/20
f 644/1/608 645/1/608 246/1/608
f 645/1/304 245/1/304 243/1/304
f 645/1/305 646/1/305 244/1/305
f 647/1/290 646/1/290 243/1/290
f 647/1/291 242/1/291 244/1/291
f 647/1/292 241/1/292 239/1/292
f 648/1/293 240/1/293 242/1/293
f 649/1/294 648/1/294 239/1/294
f 648/1/295 649/1/295 238/1/295
f 650/1/296 649/1/296 237/1/296
f 649/1/297 650/1/297 232/1/297
f 651/1/298 650/1/298 231/1/298
f 651/1/299 230/1/299 232/1/299
f 651/1/300 229/1/300 233/1/300
f 651/1/301 643/1/301 234/1/301
f 653/1/609 652/1/609 169/1/609
f 653/1/610 168/1/610 170/1/610
f 654/1/611 653/1/611 167/1/611
f 653/1/612 654/1/612 104/1/612
f 655/1/613 654/1/613 103/1/613
f 655/1/614 110/1/614 104/1/614
f 655/1/615 109/1/615 169/1/615
f 652/1/616 170/1/616 110/1/616
f 656/1/442 3/1/442 261/1/442
f 656/1/443 657/1/443 262/1/443
f 657/1/444 261/1/444 259/1/444
f 658/1/445 260/1/445 262/1/445
f 659/1/446 658/1/446 259/1/446
f 658/1/447 659/1/447 8/1/447
f 656/1/448 659/1/448 7/1/448
f 659/1/617 656/1/617 4/1/449
f 661/1/23 660/1/23 249/1/23
f 661/1/24 248/1/24 250/1/24
f 661/1/25 247/1/25 253/1/25
f 662/1/26 254/1/26 248/1/26
f 663/1/27 662/1/27 253/1/27
f 662/1/28 663/1/28 256/1/28
f 664/1/29 663/1/29 255/1/29
f 663/1/30 664/1/30 258/1/30
f 665/1/31 664/1/31 257/1/31
f 664/1/618 665/1/618 260/1/618
f 665/1/33 259/1/33 261/1/33
f 665/1/34 666/1/35 262/1/34
f 667/1/17 666/1/17 261/1/17
f 667/1/18 264/1/18 262/1/18
f 668/1/19 667/1/19 263/1/19
f 667/1/619 668/1/619 252/1/619
f 668/1/21 251/1/21 249/1/21
f 668/1/22 660/1/22 250/1/22
f 670/1/598 669/1/598 39/1/598
f 670/1/599 42/1/599 40/1/599
f 671/1/620 670/1/620 41/1/620
f 671/1/553 44/1/553 42/1/553
f 671/1/621 43/1/621 37/1/621
f 671/1/518 672/1/518 38/1/518
f 673/1/554 672/1/554 37/1/554
f 673/1/555 52/1/555 38/1/555
f 674/1/564 673/1/564 51/1/564
f 673/1/622 674/1/622 50/1/622
f 674/1/582 49/1/582 45/1/582
f 674/1/583 675/1/583 46/1/583
f 676/1/623 675/1/623 45/1/623
f 676/1/464 48/1/464 46/1/464
f 676/1/624 47/1/624 39/1/624
f 676/1/541 669/1/541 40/1/541
f 265/1/625 157/1/625 266/1/625
f 266/1/626 162/1/626 265/1/2
f 267/1/3 157/1/3 149/1/3
f 266/1/4 150/1/4 158/1/4
f 268/1/627 149/1/627 153/1/627
f 267/1/628 154/1/628 150/1/628
f 268/1/7 161/1/7 265/1/7
f 265/1/8 154/1/8 268/1/8
f 269/1/9 37/1/9 270/1/9
f 270/1/10 224/1/10 269/1/10
f 270/1/11 43/1/11 271/1/11
f 271/1/12 38/1/12 270/1/12
f 272/1/13 43/1/13 219/1/13
f 271/1/14 220/1/14 44/1/14
f 269/1/15 219/1/15 223/1/15
f 272/1/16 224/1/16 220/1/16
f 274/1/17 21/1/17 25/1/17
f 274/1/18 22/1/18 273/1/18
f 274/1/608 23/1/608 275/1/608
f 274/1/20 24/1/20 26/1/20
f 275/1/21 19/1/21 276/1/21
f 275/1/22 20/1/22 24/1/22
f 277/1/23 19/1/23 29/1/23
f 277/1/629 20/1/629 276/1/629
f 278/1/25 29/1/25 27/1/25
f 278/1/26 30/1/26 277/1/26
f 279/1/27 27/1/27 31/1/27
f 278/1/28 32/1/28 28/1/28
f 279/1/29 33/1/29 280/1/29
f 280/1/30 32/1/30 279/1/30
f 281/1/31 33/1/31 35/1/31
f 280/1/32 36/1/32 34/1/32
f 281/1/33 21/1/33 273/1/33
f 281/1/630 22/1/630 36/1/630
f 283/1/631 73/1/631 75/1/631
f 283/1/37 74/1/37 282/1/37
f 283/1/632 69/1/632 284/1/632
f 283/1/39 70/1/39 76/1/39
f 285/1/633 69/1/633 81/1/633
f 285/1/41 70/1/41 284/1/41
f 286/1/634 81/1/634 83/1/634
f 285/1/43 84/1/43 82/1/43
f 287/1/44 83/1/44 71/1/44
f 287/1/45 84/1/45 286/1/45
f 288/1/635 71/1/635 79/1/635
f 288/1/47 72/1/47 287/1/47
f 288/1/636 77/1/636 289/1/636
f 288/1/637 78/1/637 80/1/637
f 282/1/50 77/1/50 73/1/50
f 289/1/51 74/1/51 78/1/51
f 291/1/52 161/1/52 153/1/52
f 290/1/53 154/1/53 162/1/53
f 291/1/54 225/1/54 292/1/54
f 292/1/55 154/1/55 291/1/55
f 293/1/56 225/1/56 227/1/56
f 293/1/57 226/1/57 292/1/57
f 290/1/58 227/1/58 161/1/58
f 293/1/59 162/1/59 228/1/59
f 295/1/60 61/1/60 65/1/60
f 295/1/61 62/1/61 294/1/61
f 296/1/56 65/1/56 67/1/56
f 296/1/62 66/1/62 295/1/62
f 296/1/63 53/1/63 297/1/63
f 296/1/64 54/1/64 68/1/64
f 298/1/638 53/1/638 59/1/638
f 298/1/66 54/1/66 297/1/66
f 298/1/639 55/1/639 299/1/639
f 298/1/531 56/1/531 60/1/531
f 299/1/69 57/1/69 300/1/69
f 299/1/70 58/1/70 56/1/70
f 301/1/640 57/1/640 63/1/640
f 301/1/72 58/1/72 300/1/72
f 294/1/73 63/1/73 61/1/73
f 301/1/74 62/1/74 64/1/74
f 302/1/75 175/1/75 303/1/75
f 303/1/76 124/1/76 302/1/76
f 303/1/641 179/1/641 304/1/641
f 303/1/78 180/1/78 176/1/78
f 305/1/79 179/1/79 131/1/79
f 304/1/80 132/1/80 180/1/80
f 302/1/81 131/1/81 123/1/81
f 305/1/82 124/1/82 132/1/82
f 306/1/83 127/1/83 307/1/83
f 307/1/3 130/1/3 306/1/3
f 308/1/642 127/1/642 131/1/642
f 307/1/85 132/1/85 128/1/85
f 309/1/86 131/1/86 125/1/86
f 308/1/87 126/1/87 132/1/87
f 309/1/643 129/1/643 306/1/643
f 306/1/89 126/1/89 309/1/89
f 311/1/644 201/1/644 197/1/644
f 310/1/91 198/1/91 202/1/91
f 312/1/92 197/1/92 189/1/92
f 311/1/93 190/1/93 198/1/93
f 312/1/645 193/1/645 313/1/645
f 313/1/646 190/1/646 312/1/646
f 313/1/96 201/1/96 310/1/96
f 310/1/97 194/1/97 313/1/97
f 315/1/98 249/1/98 9/1/98
f 315/1/99 250/1/99 314/1/99
f 315/1/100 13/1/100 316/1/100
f 316/1/102 10/1/647 315/1/102
f 317/1/103 13/1/103 247/1/103
f 316/1/104 248/1/104 14/1/104
f 314/1/105 247/1/105 249/1/105
f 317/1/200 250/1/200 248/1/200
f 319/1/648 193/1/648 189/1/648
f 318/1/649 190/1/649 194/1/649
f 320/1/109 189/1/109 183/1/109
f 320/1/110 190/1/110 319/1/110
f 320/1/650 181/1/650 321/1/650
f 321/1/112 184/1/112 320/1/112
f 318/1/83 181/1/83 193/1/83
f 321/1/113 194/1/113 182/1/113
f 322/1/651 163/1/651 323/1/651
f 323/1/652 160/1/652 322/1/652
f 323/1/116 157/1/116 324/1/116
f 324/1/117 164/1/117 323/1/117
f 325/1/653 157/1/653 161/1/653
f 324/1/654 162/1/654 158/1/654
f 322/1/120 161/1/120 159/1/120
f 325/1/121 160/1/121 162/1/121
f 327/1/122 155/1/122 163/1/122
f 326/1/123 164/1/123 156/1/123
f 328/1/655 163/1/655 159/1/655
f 327/1/126 160/1/126 164/1/126
f 328/1/127 151/1/127 329/1/127
f 329/1/128 160/1/128 328/1/128
f 329/1/656 155/1/656 326/1/656
f 326/1/130 152/1/130 329/1/130
f 331/1/131 69/1/131 171/1/131
f 330/1/132 172/1/132 70/1/132
f 332/1/133 171/1/133 165/1/133
f 332/1/134 172/1/134 331/1/134
f 333/1/135 165/1/135 81/1/135
f 332/1/136 82/1/136 166/1/136
f 330/1/137 81/1/137 69/1/137
f 333/1/657 70/1/657 82/1/657
f 335/1/139 5/1/139 257/1/139
f 334/1/140 258/1/140 6/1/140
f 336/1/141 257/1/141 255/1/141
f 336/1/142 258/1/142 335/1/142
f 337/1/143 255/1/143 1/1/143
f 336/1/144 2/1/144 256/1/144
f 334/1/145 1/1/145 5/1/145
f 337/1/146 6/1/146 2/1/146
f 338/1/147 41/1/147 339/1/147
f 339/1/148 216/1/148 338/1/148
f 340/1/149 41/1/149 39/1/149
f 339/1/150 40/1/150 42/1/150
f 341/1/225 39/1/225 213/1/225
f 340/1/152 214/1/152 40/1/152
f 338/1/153 213/1/153 215/1/153
f 341/1/154 216/1/154 214/1/154
f 343/1/658 121/1/658 117/1/658
f 342/1/156 118/1/156 122/1/156
f 344/1/157 117/1/157 109/1/157
f 343/1/158 110/1/158 118/1/158
f 344/1/659 113/1/659 345/1/659
f 345/1/160 110/1/160 344/1/160
f 345/1/161 121/1/161 342/1/161
f 342/1/162 114/1/162 345/1/162
f 347/1/163 115/1/163 123/1/163
f 346/1/164 124/1/164 116/1/164
f 347/1/660 119/1/660 348/1/660
f 348/1/661 124/1/661 347/1/662
f 348/1/162 111/1/162 349/1/162
f 348/1/161 112/1/161 120/1/161
f 346/1/663 111/1/663 115/1/663
f 349/1/168 116/1/168 112/1/168
f 351/1/169 219/1/169 43/1/169
f 351/1/170 220/1/170 350/1/170
f 352/1/171 43/1/171 41/1/171
f 351/1/172 42/1/172 44/1/172
f 353/1/173 41/1/173 215/1/173
f 352/1/174 216/1/174 42/1/174
f 353/1/175 219/1/175 350/1/175
f 350/1/176 216/1/176 353/1/176
f 355/1/177 11/1/177 253/1/177
f 354/1/178 254/1/178 12/1/178
f 356/1/179 253/1/179 247/1/179
f 355/1/664 248/1/664 254/1/664
f 357/1/181 247/1/181 13/1/181
f 357/1/182 248/1/182 356/1/182
f 357/1/183 11/1/183 354/1/183
f 354/1/361 14/1/361 357/1/361
f 359/1/185 87/1/185 67/1/185
f 359/1/186 88/1/186 358/1/186
f 360/1/187 67/1/187 65/1/187
f 359/1/188 66/1/188 68/1/188
f 361/1/189 65/1/189 85/1/189
f 360/1/190 86/1/190 66/1/190
f 361/1/191 87/1/191 358/1/191
f 358/1/192 86/1/192 361/1/192
f 362/1/117 139/1/117 363/1/117
f 363/1/116 136/1/116 362/1/116
f 364/1/665 139/1/665 137/1/665
f 363/1/194 138/1/194 140/1/194
f 365/1/195 137/1/195 133/1/195
f 364/1/196 134/1/196 138/1/196
f 365/1/666 135/1/666 362/1/666
f 362/1/667 134/1/668 365/1/668
f 367/1/185 51/1/185 227/1/185
f 366/1/186 228/1/186 52/1/186
f 368/1/187 227/1/187 225/1/187
f 367/1/188 226/1/188 228/1/188
f 368/1/189 49/1/189 369/1/189
f 369/1/190 226/1/190 368/1/190
f 369/1/191 51/1/191 366/1/191
f 366/1/192 50/1/192 369/1/192
f 370/1/98 233/1/98 371/1/98
f 370/1/99 234/1/99 20/1/99
f 371/1/100 229/1/100 372/1/100
f 372/1/669 234/1/669 371/1/669
f 373/1/103 229/1/103 29/1/103
f 373/1/104 230/1/104 372/1/104
f 370/1/670 29/1/670 19/1/670
f 373/1/200 20/1/200 30/1/200
f 375/1/139 239/1/139 33/1/139
f 374/1/140 34/1/140 240/1/140
f 375/1/141 31/1/141 376/1/141
f 375/1/142 32/1/142 34/1/142
f 377/1/671 31/1/671 237/1/671
f 376/1/144 238/1/144 32/1/144
f 374/1/145 237/1/145 239/1/145
f 374/1/146 238/1/146 377/1/146
f 379/1/201 95/1/201 91/1/201
f 378/1/202 92/1/202 96/1/202
f 379/1/203 61/1/203 380/1/203
f 380/1/204 92/1/204 379/1/204
f 380/1/205 63/1/205 381/1/205
f 381/1/206 62/1/206 380/1/206
f 381/1/207 95/1/207 378/1/207
f 381/1/208 96/1/208 64/1/208
f 382/1/209 53/1/209 383/1/209
f 383/1/210 90/1/210 382/1/210
f 383/1/211 67/1/211 384/1/211
f 384/1/212 54/1/212 383/1/212
f 385/1/213 67/1/213 87/1/213
f 384/1/214 88/1/214 68/1/214
f 382/1/215 87/1/215 89/1/215
f 385/1/216 90/1/216 88/1/216
f 387/1/217 241/1/217 35/1/217
f 386/1/218 36/1/218 242/1/218
f 388/1/219 35/1/219 33/1/219
f 387/1/450 34/1/450 36/1/450
f 388/1/221 239/1/221 389/1/221
f 388/1/222 240/1/222 34/1/222
f 389/1/223 241/1/223 386/1/223
f 386/1/672 240/1/672 389/1/672
f 390/1/149 99/1/149 391/1/149
f 390/1/150 100/1/150 98/1/150
f 391/1/151 57/1/151 392/1/151
f 392/1/152 100/1/152 391/1/152
f 393/1/153 57/1/153 55/1/153
f 392/1/154 56/1/154 58/1/154
f 390/1/147 55/1/147 97/1/147
f 393/1/148 98/1/148 56/1/148
f 394/1/226 95/1/226 395/1/226
f 395/1/227 100/1/227 394/1/227
f 396/1/228 95/1/228 63/1/228
f 396/1/229 96/1/229 395/1/229
f 397/1/230 63/1/230 57/1/230
f 396/1/673 58/1/673 64/1/673
f 394/1/232 57/1/232 99/1/232
f 397/1/233 100/1/233 58/1/233
f 398/1/234 71/1/234 399/1/234
f 399/1/235 170/1/235 398/1/235
f 399/1/674 83/1/674 400/1/674
f 399/1/675 84/1/675 72/1/675
f 401/1/238 83/1/238 167/1/238
f 400/1/239 168/1/239 84/1/239
f 401/1/240 169/1/240 398/1/240
f 398/1/241 168/1/241 401/1/241
f 403/1/242 173/1/242 79/1/242
f 402/1/243 80/1/243 174/1/243
f 404/1/244 79/1/244 71/1/244
f 403/1/245 72/1/245 80/1/245
f 405/1/246 71/1/246 169/1/246
f 404/1/247 170/1/247 72/1/247
f 405/1/248 173/1/248 402/1/248
f 402/1/249 170/1/249 405/1/249
f 406/1/173 55/1/173 407/1/173
f 407/1/174 98/1/174 406/1/174
f 407/1/175 59/1/175 408/1/175
f 408/1/176 56/1/176 407/1/176
f 409/1/676 59/1/676 93/1/676
f 408/1/170 94/1/170 60/1/170
f 406/1/171 93/1/171 97/1/171
f 409/1/172 98/1/172 94/1/172
f 410/1/250 77/1/250 411/1/250
f 411/1/251 178/1/251 410/1/251
f 411/1/252 79/1/252 412/1/252
f 411/1/253 80/1/253 78/1/253
f 412/1/254 173/1/254 413/1/254
f 412/1/255 174/1/255 80/1/255
f 413/1/256 177/1/256 410/1/256
f 413/1/257 178/1/257 174/1/257
f 415/1/258 75/1/258 175/1/258
f 414/1/259 176/1/259 76/1/259
f 416/1/260 175/1/260 171/1/260
f 415/1/261 172/1/261 176/1/261
f 416/1/262 69/1/262 417/1/262
f 416/1/263 70/1/263 172/1/263
f 417/1/264 75/1/264 414/1/264
f 414/1/677 70/1/677 417/1/677
f 419/1/266 77/1/266 177/1/266
f 418/1/267 178/1/267 78/1/267
f 419/1/268 179/1/268 420/1/268
f 420/1/269 178/1/269 419/1/269
f 420/1/270 73/1/270 421/1/270
f 421/1/271 180/1/271 420/1/271
f 418/1/678 73/1/678 77/1/678
f 418/1/679 74/1/679 421/1/679
f 423/1/274 73/1/274 179/1/274
f 422/1/275 180/1/275 74/1/275
f 423/1/276 175/1/276 424/1/276
f 424/1/680 180/1/680 423/1/680
f 425/1/278 175/1/278 75/1/278
f 425/1/279 176/1/279 424/1/279
f 422/1/280 75/1/280 73/1/280
f 425/1/281 74/1/281 76/1/281
f 426/1/282 115/1/282 427/1/282
f 427/1/283 108/1/283 426/1/283
f 427/1/681 111/1/681 428/1/681
f 428/1/682 116/1/682 427/1/682
f 429/1/286 111/1/286 105/1/286
f 428/1/287 106/1/287 112/1/287
f 426/1/683 105/1/683 107/1/683
f 429/1/289 108/1/289 106/1/289
f 430/1/13 59/1/13 431/1/13
f 431/1/14 94/1/14 430/1/14
f 432/1/15 59/1/15 53/1/15
f 431/1/16 54/1/16 60/1/16
f 433/1/9 53/1/9 89/1/9
f 432/1/10 90/1/10 54/1/10
f 433/1/11 93/1/11 430/1/11
f 430/1/12 90/1/12 433/1/12
f 435/1/290 3/1/290 7/1/290
f 435/1/684 4/1/684 434/1/684
f 436/1/292 7/1/292 5/1/292
f 435/1/293 6/1/293 8/1/293
f 436/1/294 1/1/294 437/1/294
f 436/1/295 2/1/295 6/1/295
f 438/1/296 1/1/296 11/1/296
f 437/1/297 12/1/297 2/1/297
f 439/1/298 11/1/298 13/1/298
f 438/1/299 14/1/299 12/1/299
f 439/1/300 9/1/300 440/1/300
f 439/1/685 10/1/685 14/1/685
f 441/1/302 9/1/302 17/1/302
f 441/1/303 10/1/303 440/1/303
f 441/1/619 15/1/619 442/1/619
f 441/1/19 16/1/19 18/1/19
f 442/1/304 3/1/304 434/1/304
f 442/1/305 4/1/305 16/1/305
f 443/1/686 141/1/686 444/1/686
f 444/1/687 146/1/687 443/1/687
f 445/1/123 141/1/123 135/1/123
f 444/1/122 136/1/122 142/1/122
f 446/1/688 135/1/688 133/1/688
f 445/1/689 134/1/689 136/1/689
f 446/1/311 145/1/311 443/1/311
f 443/1/312 134/1/312 446/1/312
f 447/1/313 195/1/313 448/1/313
f 448/1/314 188/1/314 447/1/314
f 448/1/690 191/1/690 449/1/690
f 449/1/316 196/1/316 448/1/316
f 450/1/317 191/1/317 185/1/317
f 449/1/318 186/1/318 192/1/318
f 447/1/691 185/1/691 187/1/691
f 450/1/692 188/1/692 186/1/692
f 452/1/321 203/1/321 211/1/321
f 452/1/322 204/1/322 451/1/322
f 452/1/693 207/1/693 453/1/693
f 453/1/694 212/1/694 452/1/324
f 454/1/113 207/1/113 199/1/113
f 453/1/83 200/1/83 208/1/83
f 451/1/695 199/1/695 203/1/695
f 454/1/696 204/1/696 200/1/696
f 456/1/213 227/1/213 51/1/213
f 456/1/214 228/1/214 455/1/214
f 457/1/215 51/1/215 37/1/215
f 456/1/216 38/1/216 52/1/216
f 458/1/209 37/1/209 223/1/209
f 457/1/210 224/1/210 38/1/210
f 458/1/211 227/1/211 455/1/211
f 455/1/212 224/1/212 458/1/212
f 460/1/697 209/1/697 205/1/697
f 459/1/698 206/1/698 210/1/698
f 460/1/329 197/1/329 461/1/329
f 460/1/330 198/1/330 206/1/330
f 461/1/699 201/1/699 462/1/699
f 462/1/700 198/1/700 461/1/700
f 459/1/318 201/1/318 209/1/318
f 462/1/317 210/1/317 202/1/317
f 463/1/333 203/1/333 464/1/333
f 463/1/334 204/1/334 196/1/334
f 464/1/701 199/1/701 465/1/701
f 465/1/702 204/1/702 464/1/702
f 465/1/97 191/1/97 466/1/97
f 466/1/96 200/1/96 465/1/96
f 463/1/703 191/1/703 195/1/703
f 466/1/339 196/1/339 192/1/339
f 468/1/340 91/1/340 85/1/340
f 467/1/341 86/1/341 92/1/341
f 468/1/342 65/1/342 469/1/342
f 469/1/343 86/1/343 468/1/343
f 470/1/344 65/1/344 61/1/344
f 469/1/345 62/1/345 66/1/345
f 467/1/346 61/1/346 91/1/346
f 470/1/347 92/1/347 62/1/347
f 471/1/704 127/1/704 472/1/704
f 472/1/705 132/1/705 471/1/705
f 473/1/350 127/1/350 119/1/350
f 473/1/116 128/1/116 472/1/116
f 474/1/706 119/1/706 123/1/706
f 473/1/352 124/1/352 120/1/352
f 471/1/353 123/1/353 131/1/353
f 474/1/354 132/1/354 124/1/354
f 476/1/707 113/1/707 109/1/707
f 475/1/708 110/1/708 114/1/708
f 476/1/357 103/1/357 477/1/357
f 477/1/358 110/1/358 476/1/358
f 477/1/709 101/1/709 478/1/709
f 478/1/360 104/1/360 477/1/710
f 475/1/116 101/1/116 113/1/116
f 478/1/350 114/1/350 102/1/350
f 480/1/177 231/1/177 27/1/177
f 480/1/178 232/1/178 479/1/178
f 481/1/179 27/1/179 29/1/179
f 480/1/664 30/1/664 28/1/664
f 481/1/181 229/1/181 482/1/181
f 481/1/182 230/1/182 30/1/182
f 482/1/183 231/1/183 479/1/183
f 482/1/361 232/1/361 230/1/361
f 484/1/711 129/1/711 125/1/711
f 483/1/712 126/1/712 130/1/712
f 485/1/365 125/1/365 117/1/365
f 485/1/366 126/1/366 484/1/366
f 485/1/713 121/1/713 486/1/713
f 486/1/368 118/1/368 485/1/368
f 483/1/287 121/1/287 129/1/287
f 486/1/286 130/1/286 122/1/286
f 488/1/342 49/1/342 225/1/342
f 487/1/343 226/1/343 50/1/343
f 489/1/344 225/1/344 221/1/344
f 488/1/345 222/1/345 226/1/345
f 489/1/346 45/1/346 490/1/346
f 489/1/347 46/1/347 222/1/347
f 490/1/340 49/1/340 487/1/340
f 490/1/341 50/1/341 46/1/341
f 492/1/203 45/1/203 221/1/203
f 491/1/204 222/1/204 46/1/204
f 492/1/205 217/1/205 493/1/205
f 493/1/206 222/1/206 492/1/206
f 494/1/207 217/1/207 47/1/207
f 494/1/208 218/1/208 493/1/208
f 491/1/201 47/1/201 45/1/201
f 494/1/202 46/1/202 48/1/202
f 496/1/714 207/1/714 211/1/714
f 495/1/370 212/1/370 208/1/370
f 497/1/371 211/1/371 205/1/371
f 496/1/372 206/1/372 212/1/372
f 497/1/715 209/1/715 498/1/715
f 498/1/716 206/1/716 497/1/716
f 495/1/375 209/1/375 207/1/375
f 495/1/350 210/1/350 498/1/350
f 499/1/717 149/1/717 500/1/717
f 500/1/377 154/1/377 499/1/377
f 500/1/378 141/1/378 501/1/378
f 501/1/379 150/1/379 500/1/379
f 502/1/718 141/1/718 145/1/718
f 501/1/381 146/1/381 142/1/381
f 499/1/382 145/1/382 153/1/382
f 502/1/383 154/1/383 146/1/383
f 504/1/4 139/1/4 147/1/4
f 503/1/3 148/1/3 140/1/3
f 505/1/719 147/1/719 143/1/719
f 504/1/720 144/1/720 148/1/720
f 505/1/386 137/1/386 506/1/386
f 505/1/387 138/1/387 144/1/387
f 506/1/721 139/1/721 503/1/721
f 503/1/389 138/1/389 506/1/389
f 508/1/390 103/1/390 107/1/390
f 508/1/391 104/1/391 507/1/391
f 508/1/722 105/1/722 509/1/722
f 509/1/723 108/1/723 508/1/723
f 509/1/3 101/1/3 510/1/3
f 510/1/83 106/1/83 509/1/83
f 507/1/724 101/1/724 103/1/724
f 510/1/725 104/1/725 102/1/725
f 512/1/396 237/1/396 31/1/396
f 511/1/397 32/1/397 238/1/397
f 513/1/398 31/1/398 27/1/398
f 513/1/399 32/1/399 512/1/399
f 514/1/400 27/1/400 231/1/400
f 513/1/401 232/1/401 28/1/401
f 511/1/412 231/1/412 237/1/412
f 514/1/403 238/1/403 232/1/403
f 515/1/404 235/1/404 516/1/404
f 515/1/405 236/1/405 24/1/405
f 517/1/726 235/1/726 233/1/726
f 516/1/407 234/1/407 236/1/407
f 518/1/408 233/1/408 19/1/408
f 518/1/409 234/1/409 517/1/409
f 518/1/727 23/1/727 515/1/727
f 515/1/411 20/1/411 518/1/411
f 520/1/728 1/1/728 255/1/728
f 519/1/397 256/1/397 2/1/397
f 520/1/729 253/1/729 521/1/729
f 521/1/399 256/1/399 520/1/399
f 522/1/400 253/1/400 11/1/400
f 522/1/401 254/1/401 521/1/401
f 522/1/412 1/1/412 519/1/412
f 519/1/403 12/1/403 522/1/403
f 524/1/730 25/1/730 21/1/730
f 523/1/414 22/1/414 26/1/414
f 525/1/415 21/1/415 243/1/415
f 524/1/416 244/1/416 22/1/416
f 525/1/731 245/1/731 526/1/731
f 526/1/418 244/1/418 525/1/418
f 523/1/405 245/1/405 25/1/405
f 526/1/404 26/1/404 246/1/404
f 527/1/420 83/1/420 528/1/420
f 528/1/421 168/1/421 527/1/421
f 528/1/422 81/1/422 529/1/422
f 529/1/423 84/1/423 528/1/423
f 530/1/424 81/1/424 165/1/424
f 529/1/425 166/1/425 82/1/425
f 530/1/426 167/1/426 527/1/426
f 527/1/732 166/1/732 530/1/732
f 531/1/379 155/1/379 532/1/379
f 532/1/378 148/1/378 531/1/378
f 533/1/733 155/1/733 151/1/733
f 532/1/430 152/1/430 156/1/430
f 534/1/431 151/1/431 143/1/431
f 533/1/432 144/1/432 152/1/432
f 534/1/734 147/1/734 531/1/734
f 531/1/735 144/1/735 534/1/735
f 536/1/435 183/1/435 187/1/435
f 535/1/436 188/1/436 184/1/436
f 536/1/736 185/1/736 537/1/736
f 537/1/737 188/1/737 536/1/737
f 538/1/350 185/1/350 181/1/350
f 538/1/375 186/1/375 537/1/375
f 535/1/738 181/1/738 183/1/738
f 538/1/739 184/1/739 182/1/739
f 540/1/404 251/1/404 17/1/404
f 539/1/405 18/1/405 252/1/405
f 541/1/726 17/1/726 9/1/726
f 540/1/407 10/1/407 18/1/407
f 541/1/408 249/1/408 542/1/408
f 541/1/409 250/1/409 10/1/409
f 542/1/727 251/1/727 539/1/727
f 539/1/411 250/1/411 542/1/411
f 544/1/442 243/1/442 21/1/442
f 544/1/443 244/1/443 543/1/443
f 544/1/444 35/1/444 545/1/444
f 545/1/740 22/1/740 544/1/740
f 546/1/446 35/1/446 241/1/446
f 545/1/447 242/1/447 36/1/447
f 543/1/448 241/1/448 243/1/448
f 546/1/741 244/1/741 242/1/741
f 548/1/217 7/1/217 259/1/217
f 547/1/218 260/1/218 8/1/218
f 549/1/219 259/1/219 257/1/219
f 549/1/450 260/1/450 548/1/450
f 550/1/221 257/1/221 5/1/221
f 549/1/222 6/1/222 258/1/222
f 547/1/742 5/1/742 7/1/742
f 547/1/672 6/1/672 550/1/672
f 552/1/228 47/1/228 217/1/228
f 551/1/229 218/1/229 48/1/229
f 553/1/230 217/1/230 213/1/230
f 552/1/231 214/1/231 218/1/231
f 553/1/232 39/1/232 554/1/232
f 554/1/233 214/1/233 553/1/233
f 554/1/226 47/1/226 551/1/226
f 551/1/227 40/1/227 554/1/227
f 556/1/452 223/1/452 159/1/452
f 555/1/453 160/1/453 224/1/453
f 556/1/454 161/1/454 557/1/454
f 556/1/455 162/1/455 160/1/455
f 557/1/456 227/1/456 558/1/456
f 558/1/457 162/1/457 557/1/457
f 558/1/63 223/1/63 555/1/63
f 558/1/64 224/1/64 228/1/64
f 559/1/459 195/1/459 560/1/459
f 559/1/460 196/1/460 204/1/460
f 560/1/461 91/1/461 561/1/461
f 561/1/462 196/1/462 560/1/462
f 562/1/623 91/1/623 95/1/623
f 562/1/464 92/1/464 561/1/464
f 559/1/465 95/1/465 203/1/465
f 562/1/466 204/1/466 96/1/466
f 564/1/467 173/1/467 169/1/467
f 564/1/743 174/1/743 563/1/743
f 565/1/469 169/1/744 109/1/469
f 564/1/470 110/1/470 170/1/470
f 566/1/471 109/1/471 117/1/471
f 566/1/472 110/1/472 565/1/472
f 566/1/473 173/1/473 563/1/473
f 563/1/474 118/1/474 566/1/474
f 567/1/475 221/1/475 568/1/475
f 568/1/476 146/1/476 567/1/476
f 569/1/60 221/1/60 225/1/60
f 569/1/61 222/1/61 568/1/61
f 570/1/477 225/1/477 153/1/477
f 569/1/478 154/1/478 226/1/478
f 570/1/479 145/1/479 567/1/479
f 570/1/480 146/1/480 154/1/480
f 572/1/481 173/1/481 117/1/481
f 571/1/482 118/1/482 174/1/482
f 572/1/483 125/1/483 573/1/483
f 572/1/484 126/1/484 118/1/484
f 573/1/485 177/1/485 574/1/485
f 574/1/486 126/1/486 573/1/486
f 574/1/487 173/1/487 571/1/487
f 574/1/488 174/1/488 178/1/488
f 575/1/489 167/1/489 576/1/489
f 576/1/490 104/1/490 575/1/490
f 576/1/491 165/1/491 577/1/491
f 577/1/492 168/1/492 576/1/492
f 578/1/493 165/1/493 107/1/493
f 577/1/494 108/1/494 166/1/494
f 578/1/495 103/1/495 575/1/495
f 578/1/496 104/1/496 108/1/496
f 580/1/69 215/1/69 213/1/69
f 580/1/70 216/1/70 579/1/70
f 581/1/497 213/1/497 137/1/497
f 580/1/498 138/1/498 214/1/498
f 582/1/499 137/1/499 143/1/499
f 582/1/500 138/1/500 581/1/500
f 582/1/501 215/1/501 579/1/501
f 579/1/502 144/1/502 582/1/502
f 584/1/503 177/1/503 125/1/503
f 583/1/504 126/1/504 178/1/504
f 584/1/505 131/1/505 585/1/505
f 584/1/506 132/1/506 126/1/506
f 585/1/507 179/1/507 586/1/507
f 586/1/508 132/1/508 585/1/508
f 586/1/509 177/1/509 583/1/509
f 586/1/510 178/1/510 180/1/510
f 587/1/511 137/1/511 588/1/511
f 587/1/512 138/1/512 134/1/512
f 588/1/513 213/1/513 589/1/513
f 589/1/514 138/1/514 588/1/514
f 590/1/71 213/1/71 217/1/71
f 590/1/72 214/1/72 589/1/72
f 587/1/515 217/1/515 133/1/515
f 590/1/516 134/1/516 218/1/516
f 592/1/517 93/1/517 89/1/517
f 592/1/745 94/1/745 591/1/745
f 593/1/519 89/1/519 189/1/519
f 592/1/520 190/1/520 90/1/520
f 594/1/521 189/1/521 197/1/521
f 593/1/522 198/1/522 190/1/522
f 594/1/523 93/1/523 591/1/523
f 591/1/524 198/1/524 594/1/524
f 595/1/525 217/1/525 596/1/525
f 596/1/526 134/1/526 595/1/526
f 596/1/746 221/1/746 597/1/746
f 596/1/74 222/1/74 218/1/74
f 598/1/527 221/1/527 145/1/527
f 597/1/528 146/1/528 222/1/528
f 595/1/529 145/1/529 133/1/529
f 595/1/530 146/1/530 598/1/530
f 600/1/67 219/1/67 215/1/67
f 600/1/531 220/1/531 599/1/531
f 601/1/532 215/1/532 143/1/532
f 600/1/533 144/1/533 216/1/533
f 602/1/534 143/1/534 151/1/534
f 602/1/535 144/1/535 601/1/535
f 602/1/536 219/1/536 599/1/536
f 599/1/537 152/1/537 602/1/537
f 603/1/538 95/1/538 604/1/538
f 604/1/539 204/1/539 603/1/539
f 604/1/540 99/1/540 605/1/540
f 604/1/541 100/1/541 96/1/541
f 606/1/542 99/1/542 211/1/542
f 605/1/543 212/1/543 100/1/543
f 603/1/544 211/1/544 203/1/544
f 603/1/545 212/1/545 606/1/545
f 608/1/546 93/1/546 197/1/546
f 607/1/547 198/1/547 94/1/547
f 608/1/548 205/1/548 609/1/548
f 608/1/549 206/1/549 198/1/549
f 609/1/550 97/1/550 610/1/550
f 610/1/551 206/1/551 609/1/551
f 610/1/552 93/1/552 607/1/552
f 610/1/553 94/1/553 98/1/553
f 612/1/554 89/1/554 87/1/554
f 612/1/747 90/1/747 611/1/747
f 613/1/556 87/1/556 183/1/556
f 612/1/557 184/1/557 88/1/557
f 614/1/558 183/1/558 189/1/558
f 614/1/559 184/1/559 613/1/559
f 614/1/560 89/1/560 611/1/560
f 611/1/561 190/1/561 614/1/561
f 615/1/562 87/1/562 616/1/562
f 616/1/563 184/1/563 615/1/563
f 616/1/564 85/1/564 617/1/564
f 616/1/565 86/1/565 88/1/565
f 618/1/566 85/1/566 187/1/566
f 617/1/567 188/1/567 86/1/567
f 618/1/568 183/1/568 615/1/568
f 618/1/569 184/1/569 188/1/569
f 619/1/570 107/1/570 620/1/570
f 619/1/571 108/1/571 116/1/571
f 620/1/572 165/1/572 621/1/572
f 621/1/573 108/1/573 620/1/573
f 621/1/748 171/1/748 622/1/748
f 621/1/575 172/1/575 166/1/575
f 619/1/576 171/1/576 115/1/576
f 622/1/577 116/1/577 172/1/577
f 624/1/578 195/1/578 187/1/578
f 624/1/579 196/1/579 623/1/579
f 624/1/580 85/1/580 625/1/580
f 625/1/581 188/1/581 624/1/581
f 625/1/582 91/1/582 626/1/582
f 625/1/583 92/1/583 86/1/583
f 623/1/584 91/1/584 195/1/584
f 626/1/585 196/1/585 92/1/585
f 628/1/586 219/1/586 151/1/586
f 627/1/587 152/1/587 220/1/587
f 629/1/588 151/1/588 159/1/588
f 628/1/589 160/1/589 152/1/589
f 629/1/590 223/1/590 630/1/590
f 630/1/591 160/1/591 629/1/591
f 630/1/65 219/1/65 627/1/65
f 630/1/66 220/1/66 224/1/66
f 632/1/592 97/1/592 205/1/592
f 631/1/593 206/1/593 98/1/593
f 632/1/594 211/1/594 633/1/594
f 632/1/595 212/1/595 206/1/595
f 633/1/596 99/1/596 634/1/596
f 634/1/597 212/1/597 633/1/597
f 634/1/598 97/1/598 631/1/598
f 634/1/599 98/1/599 100/1/599
f 636/1/600 123/1/600 115/1/600
f 636/1/601 124/1/601 635/1/601
f 636/1/602 171/1/602 637/1/602
f 637/1/603 116/1/603 636/1/603
f 638/1/749 171/1/749 175/1/749
f 638/1/605 172/1/605 637/1/605
f 635/1/606 175/1/606 123/1/606
f 638/1/607 124/1/607 176/1/607
f 640/1/730 263/1/730 261/1/730
f 639/1/414 262/1/414 264/1/414
f 641/1/415 261/1/415 3/1/415
f 641/1/416 262/1/416 640/1/416
f 641/1/731 15/1/731 642/1/731
f 642/1/418 4/1/418 641/1/418
f 642/1/405 263/1/405 639/1/405
f 642/1/404 264/1/404 16/1/404
f 644/1/302 233/1/302 235/1/302
f 644/1/303 234/1/303 643/1/303
f 645/1/619 235/1/619 245/1/619
f 644/1/19 246/1/19 236/1/19
f 645/1/304 243/1/304 646/1/304
f 645/1/305 244/1/305 246/1/305
f 647/1/290 243/1/290 241/1/290
f 647/1/684 244/1/684 646/1/684
f 647/1/292 239/1/292 648/1/292
f 648/1/750 242/1/750 647/1/750
f 649/1/294 239/1/294 237/1/294
f 648/1/295 238/1/295 240/1/295
f 650/1/296 237/1/296 231/1/296
f 649/1/297 232/1/297 238/1/297
f 651/1/298 231/1/298 229/1/298
f 651/1/299 232/1/299 650/1/299
f 651/1/300 233/1/300 643/1/300
f 651/1/685 234/1/685 230/1/685
f 653/1/609 169/1/609 167/1/609
f 653/1/610 170/1/610 652/1/610
f 654/1/611 167/1/611 103/1/611
f 653/1/612 104/1/612 168/1/612
f 655/1/613 103/1/613 109/1/613
f 655/1/614 104/1/614 654/1/614
f 655/1/615 169/1/615 652/1/615
f 652/1/751 110/1/751 655/1/751
f 656/1/442 261/1/442 657/1/442
f 656/1/443 262/1/443 4/1/443
f 657/1/444 259/1/444 658/1/444
f 658/1/740 262/1/740 657/1/740
f 659/1/446 259/1/446 7/1/446
f 658/1/447 8/1/447 260/1/447
f 656/1/448 7/1/448 3/1/448
f 659/1/741 4/1/741 8/1/741
f 661/1/23 249/1/23 247/1/23
f 661/1/629 250/1/629 660/1/629
f 661/1/25 253/1/25 662/1/25
f 662/1/26 248/1/26 661/1/26
f 663/1/27 253/1/27 255/1/27
f 662/1/28 256/1/28 254/1/28
f 664/1/29 255/1/29 257/1/29
f 663/1/30 258/1/30 256/1/30
f 665/1/31 257/1/31 259/1/31
f 664/1/32 260/1/32 258/1/32
f 665/1/33 261/1/33 666/1/33
f 665/1/630 262/1/630 260/1/630
f 667/1/17 261/1/17 263/1/17
f 667/1/18 262/1/18 666/1/18
f 668/1/608 263/1/608 251/1/608
f 667/1/20 252/1/20 264/1/20
f 668/1/21 249/1/21 660/1/21
f 668/1/22 250/1/22 252/1/22
f 670/1/598 39/1/598 41/1/598
f 670/1/599 40/1/599 669/1/599
f 671/1/552 41/1/552 43/1/552
f 671/1/752 42/1/752 670/1/752
f 671/1/517 37/1/517 672/1/517
f 671/1/518 38/1/518 44/1/518
f 673/1/554 37/1/554 51/1/554
f 673/1/555 38/1/555 672/1/555
f 674/1/564 51/1/564 49/1/564
f 673/1/622 50/1/622 52/1/622
f 674/1/582 45/1/582 675/1/582
f 674/1/583 46/1/583 50/1/583
f 676/1/753 45/1/753 47/1/753
f 676/1/464 46/1/464 675/1/464
f 676/1/540 39/1/540 669/1/540
f 676/1/541 40/1/541 48/1/541
