# Blender 5.2.0 LTS
# www.blender.org
mtllib glass bolt inner.mtl
o bolt_inner
v -0.402110 -0.063571 -0.060589
v -0.403910 -0.065268 -0.062286
v -0.402110 -0.063571 0.060588
v -0.403910 -0.065268 0.062285
v -0.402110 -0.002984 -0.085685
v -0.403910 -0.002984 -0.088085
v -0.402110 -0.088669 0.000000
v -0.403910 -0.091069 0.000000
v -0.402110 0.057604 0.060588
v -0.403910 0.059301 0.062285
v -0.402110 -0.002984 0.085685
v -0.403910 -0.002984 0.088085
v -0.402110 0.057604 -0.060589
v -0.403910 0.059301 -0.062286
v -0.402110 0.082702 -0.000000
v -0.403910 0.085102 0.000000
v 0.402110 -0.103645 0.000000
v 0.403910 -0.106045 0.000000
v 0.402110 0.103645 -0.000000
v 0.403910 0.106045 -0.000000
v 0.402110 -0.073288 0.073288
v 0.403910 -0.074985 0.074985
v 0.402110 0.000000 0.103645
v 0.403910 0.000000 0.106045
v 0.402110 0.073289 0.073288
v 0.403910 0.074986 0.074985
v 0.402110 -0.073288 -0.073288
v 0.403910 -0.074985 -0.074985
v 0.402110 -0.000000 -0.103645
v 0.403910 -0.000000 -0.106045
v 0.402110 0.073289 -0.073288
v 0.403910 0.074986 -0.074985
v 0.275780 -0.063571 0.060588
v 0.275780 -0.065692 0.062709
v 0.275780 -0.002984 0.085685
v 0.275780 -0.002984 0.088685
v 0.275780 -0.088669 0.000000
v 0.275780 -0.091669 0.000000
v 0.275780 0.057604 0.060588
v 0.275780 0.059725 0.062709
v 0.275780 -0.063571 -0.060589
v 0.275780 -0.065692 -0.062710
v 0.275780 0.082702 -0.000000
v 0.275780 0.085702 0.000000
v 0.275780 -0.002984 -0.085685
v 0.275780 -0.002984 -0.088685
v 0.275780 0.057604 -0.060589
v 0.275780 0.059725 -0.062710
v 0.264022 0.000000 0.103645
v 0.262222 0.000000 0.106045
v 0.264022 -0.073288 0.073288
v 0.262222 -0.074985 0.074985
v 0.264022 0.073289 0.073288
v 0.262222 0.074986 0.074985
v 0.264022 -0.103645 0.000000
v 0.262222 -0.106045 0.000000
v 0.264022 0.103645 -0.000000
v 0.262222 0.106045 -0.000000
v 0.264022 -0.073288 -0.073288
v 0.262222 -0.074985 -0.074985
v 0.264022 0.073289 -0.073288
v 0.262222 0.074986 -0.074985
v 0.264022 -0.000000 -0.103645
v 0.262222 -0.000000 -0.106045
v 0.263122 -0.103221 0.000000
v 0.263122 -0.072988 0.072988
v 0.263122 0.000000 0.103221
v 0.263122 0.072989 0.072988
v 0.263122 0.103221 -0.000000
v 0.263122 0.072989 -0.072988
v 0.263122 -0.000000 -0.103221
v 0.263122 -0.072988 -0.072988
v -0.403010 0.057304 -0.060289
v -0.403010 -0.002984 -0.085261
v -0.403010 -0.063271 -0.060289
v -0.403010 -0.088245 0.000000
v -0.403010 -0.063271 0.060288
v -0.403010 -0.002984 0.085261
v -0.403010 0.057304 0.060288
v -0.403010 0.082278 -0.000000
v 0.403010 -0.103221 0.000000
v 0.403010 -0.072988 -0.072988
v 0.403010 -0.000000 -0.103221
v 0.403010 0.072989 -0.072988
v 0.403010 0.103221 -0.000000
v 0.403010 0.072989 0.072988
v 0.403010 0.000000 0.103221
v 0.403010 -0.072988 0.072988
v -0.401510 0.057067 -0.062012
v 0.274280 0.057279 -0.062224
v 0.274280 -0.001598 -0.086611
v -0.401510 -0.001598 -0.086311
v 0.274280 0.083628 0.001386
v -0.401510 0.083328 0.001386
v -0.401510 0.059027 0.060051
v 0.274280 0.059239 0.060263
v -0.401510 -0.064994 -0.060052
v 0.274280 -0.065206 -0.060264
v 0.274280 -0.089595 -0.001386
v -0.401510 -0.089295 -0.001386
v 0.264622 -0.074711 -0.072751
v 0.401510 -0.074711 -0.072751
v 0.401510 -0.104271 -0.001386
v 0.264622 -0.104271 -0.001386
v 0.401510 0.001386 -0.104271
v 0.264622 0.001386 -0.104271
v 0.264622 0.072752 -0.074711
v 0.401510 0.072752 -0.074711
v 0.274280 -0.004370 0.086611
v -0.401510 -0.004370 0.086311
v -0.401510 -0.063034 0.062011
v 0.274280 -0.063246 0.062223
v 0.264622 -0.104271 0.001386
v 0.401510 -0.104271 0.001386
v 0.401510 -0.074711 0.072751
v 0.264622 -0.074711 0.072751
v 0.401510 0.074712 -0.072751
v 0.264622 0.074712 -0.072751
v 0.264622 0.104271 -0.001386
v 0.401510 0.104271 -0.001386
v 0.274280 0.059239 -0.060264
v -0.401510 0.059027 -0.060052
v -0.401510 0.083328 -0.001386
v 0.274280 0.083628 -0.001386
v 0.274280 0.057279 0.062223
v -0.401510 0.057067 0.062011
v -0.401510 -0.001598 0.086311
v 0.274280 -0.001598 0.086611
v 0.401510 0.072752 0.074711
v 0.264622 0.072752 0.074711
v 0.264622 0.001386 0.104271
v 0.401510 0.001386 0.104271
v 0.401510 0.104271 0.001386
v 0.264622 0.104271 0.001386
v 0.264622 0.074712 0.072751
v 0.401510 0.074712 0.072751
v -0.401510 -0.004370 -0.086311
v 0.274280 -0.004370 -0.086611
v 0.274280 -0.063246 -0.062224
v -0.401510 -0.063034 -0.062012
v 0.264622 -0.072751 0.074711
v 0.401510 -0.072751 0.074711
v 0.401510 -0.001386 0.104271
v 0.264622 -0.001386 0.104271
v -0.401510 -0.089295 0.001386
v 0.274280 -0.089595 0.001386
v 0.274280 -0.065206 0.060263
v -0.401510 -0.064994 0.060051
v 0.264622 -0.001386 -0.104271
v 0.401510 -0.001386 -0.104271
v 0.401510 -0.072751 -0.074711
v 0.264622 -0.072751 -0.074711
vn -0.3988 -0.8473 0.3509
vn 0.9453 -0.3013 0.1248
vn -0.3987 -0.3510 0.8472
vn 0.9453 -0.1248 0.3013
vn -0.3987 0.3509 0.8473
vn 0.9453 0.1248 0.3013
vn -0.3988 0.8472 0.3510
vn 0.9453 0.3013 0.1248
vn -0.3988 0.8472 -0.3510
vn 0.9453 0.3013 -0.1248
vn -0.3988 0.3509 -0.8472
vn 0.9453 0.1248 -0.3013
vn -0.3988 -0.3509 -0.8473
vn 0.9453 -0.1248 -0.3013
vn -0.3987 -0.8473 -0.3509
vn 0.9453 -0.3013 -0.1248
vn -0.3988 0.3509 -0.8473
vn -0.4005 0.3453 -0.8487
vn 0.9509 0.1328 -0.2797
vn 0.9453 0.1046 -0.3090
vn -0.4004 -0.3560 -0.8444
vn -0.3988 -0.3454 -0.8495
vn 0.9504 -0.1058 -0.2924
vn -0.3988 -0.8472 -0.3510
vn -0.4037 -0.8463 -0.3476
vn 0.9513 -0.2780 -0.1334
vn 0.9452 -0.3093 -0.1047
vn -0.3987 -0.8473 0.3509
vn -0.4005 -0.8443 0.3559
vn 0.9503 -0.2926 0.1063
vn -0.4005 -0.3453 0.8487
vn 0.9513 -0.1334 0.2780
vn 0.9452 -0.1052 0.3091
vn -0.3988 0.3509 0.8472
vn -0.4004 0.3560 0.8443
vn -0.3988 0.3454 0.8495
vn 0.9503 0.1063 0.2926
vn -0.3987 0.8473 0.3510
vn -0.4037 0.8463 0.3476
vn 0.9509 0.2797 0.1328
vn 0.9452 0.3091 0.1053
vn -0.3988 0.8473 -0.3509
vn -0.4005 0.8443 -0.3560
vn -0.3988 0.8495 -0.3453
vn 0.9477 0.3019 -0.1033
vn 0.3987 -0.8473 -0.3509
vn -0.9453 -0.3013 -0.1248
vn 0.3988 -0.3509 -0.8473
vn -0.9453 -0.1248 -0.3013
vn 0.3987 0.3510 -0.8473
vn -0.9453 0.1248 -0.3013
vn 0.3987 0.8473 -0.3509
vn -0.9453 0.3013 -0.1248
vn 0.3988 0.8472 0.3509
vn -0.9453 0.3013 0.1248
vn 0.3988 0.3510 0.8472
vn -0.9453 0.1248 0.3013
vn 0.3987 -0.3509 0.8473
vn -0.9453 -0.1248 0.3013
vn 0.3988 -0.8472 0.3510
vn -0.9453 -0.3013 0.1248
vn 0.0268 0.9303 -0.3659
vn -0.0041 0.9455 -0.3257
vn 0.0054 0.9349 -0.3550
vn 0.0208 0.2161 0.9762
vn -0.0186 0.2182 0.9757
vn -0.0091 0.1897 0.9818
vn 0.6953 0.2569 -0.6712
vn 0.6752 0.2757 -0.6841
vn 0.6785 0.2887 -0.6755
vn 0.6991 -0.2837 0.6564
vn 0.6757 -0.2733 0.6847
vn 0.6784 -0.2911 0.6745
vn 0.0094 -0.5793 -0.8151
vn -0.0075 -0.5528 -0.8333
vn 0.0011 -0.5605 -0.8282
vn -0.0034 -0.8063 0.5915
vn 0.0210 -0.7808 0.6245
vn 0.0108 -0.7884 0.6151
vn -0.8791 0.1545 -0.4509
vn -0.8933 0.1709 -0.4158
vn -0.8789 0.1880 -0.4385
vn -0.4195 -0.3196 0.8496
vn -0.4446 -0.3332 0.8314
vn -0.4134 -0.3674 0.8331
vn -0.0228 0.8212 -0.5701
vn -0.0076 0.8333 -0.5527
vn 0.0011 0.8281 -0.5605
vn -0.0034 -0.5916 -0.8063
vn 0.0210 -0.6245 -0.7808
vn 0.0108 -0.6151 -0.7884
vn -0.8792 0.4507 0.1545
vn -0.8933 0.4158 0.1709
vn -0.8789 0.4385 0.1881
vn -0.4195 -0.8496 -0.3197
vn -0.4451 -0.8240 -0.3505
vn -0.4074 -0.8373 -0.3647
vn 0.0287 0.3668 0.9299
vn 0.0123 0.3281 0.9446
vn 0.0032 0.3580 0.9337
vn -0.0257 -0.9775 0.2092
vn -0.0199 -0.9753 0.2198
vn -0.0091 -0.9818 0.1897
vn 0.6788 0.6668 0.3076
vn 0.6962 0.6711 0.2548
vn 0.6752 0.6841 0.2759
vn 0.6920 -0.6751 -0.2557
vn 0.6757 -0.6847 -0.2733
vn 0.6784 -0.6745 -0.2911
vn 0.0268 -0.3659 -0.9303
vn -0.0041 -0.3256 -0.9455
vn 0.0032 -0.3580 -0.9337
vn 0.0208 0.9762 -0.2160
vn -0.0186 0.9757 -0.2182
vn -0.0092 0.9818 -0.1897
vn 0.6953 -0.6712 -0.2569
vn 0.6752 -0.6841 -0.2758
vn 0.6785 -0.6755 -0.2887
vn 0.6991 0.6563 0.2838
vn 0.6757 0.6847 0.2733
vn 0.6784 0.6745 0.2911
vn 0.0094 -0.8151 0.5793
vn -0.0075 -0.8333 0.5528
vn 0.0012 -0.8282 0.5605
vn -0.0034 0.5915 0.8063
vn 0.0225 0.6252 0.7802
vn 0.0108 0.6151 0.7884
vn -0.8791 -0.4508 -0.1545
vn -0.8933 -0.4157 -0.1709
vn -0.8789 -0.4384 -0.1880
vn -0.4195 0.8496 0.3196
vn -0.4446 0.8314 0.3333
vn -0.4071 0.8372 0.3651
vn -0.0000 -0.3533 -0.9355
vn -0.0000 0.9925 -0.1219
vn 0.8795 -0.4397 -0.1821
vn 0.4194 0.8387 0.3474
vn -0.0000 -0.9113 0.4117
vn -0.0000 0.6156 0.7881
vn -0.8795 -0.4397 -0.1821
vn -0.4194 0.8387 0.3474
vn -0.0000 -0.4117 -0.9113
vn -0.0000 -0.7881 0.6156
vn -0.8795 0.1821 -0.4397
vn -0.4194 -0.3474 0.8387
vn -0.0000 0.9355 -0.3533
vn -0.0000 0.1219 0.9925
vn 0.8795 0.1821 -0.4398
vn 0.4194 -0.3474 0.8387
vn -0.0239 0.5708 0.8207
vn -0.0075 0.5528 0.8333
vn 0.0011 0.5605 0.8282
vn -0.0034 0.8063 -0.5915
vn 0.0226 0.7801 -0.6252
vn 0.0108 0.7884 -0.6151
vn -0.8792 -0.1544 0.4508
vn -0.8933 -0.1709 0.4158
vn -0.8788 -0.1880 0.4385
vn -0.4195 0.3196 -0.8496
vn -0.4451 0.3504 -0.8240
vn -0.4074 0.3647 -0.8373
vn 0.0268 -0.9303 0.3659
vn 0.0123 -0.9446 0.3281
vn 0.0055 -0.9349 0.3549
vn -0.0257 -0.2092 -0.9775
vn -0.0186 -0.2182 -0.9757
vn -0.0091 -0.1897 -0.9818
vn 0.6953 -0.2569 0.6712
vn 0.6752 -0.2758 0.6841
vn 0.6785 -0.2887 0.6755
vn 0.6926 0.2545 -0.6749
vn 0.6757 0.2733 -0.6847
vn 0.6784 0.2911 -0.6745
vn -0.0000 -0.9113 -0.4117
vn -0.0000 0.6156 -0.7881
vn 0.8795 -0.4397 0.1821
vn 0.4194 0.8387 -0.3474
vn -0.0000 -0.3533 0.9355
vn -0.0000 0.9925 0.1219
vn -0.8795 -0.4398 0.1821
vn -0.4194 0.8387 -0.3474
vn -0.0000 0.3533 -0.9355
vn -0.0000 -0.9925 -0.1220
vn -0.8794 0.4398 -0.1821
vn -0.4193 -0.8387 0.3474
vn -0.0000 0.9113 0.4117
vn -0.0000 -0.6156 0.7880
vn 0.8795 0.4397 -0.1821
vn 0.4194 -0.8387 0.3474
vn -0.0239 0.1767 -0.9840
vn -0.0077 0.1984 -0.9801
vn 0.0012 0.1893 -0.9819
vn -0.0032 -0.9886 -0.1506
vn 0.0216 -0.9928 -0.1178
vn 0.0113 -0.9924 -0.1225
vn -0.8927 0.4158 -0.1737
vn -0.8789 0.4429 -0.1771
vn -0.8794 0.4375 -0.1878
vn -0.4195 -0.8273 0.3737
vn -0.4362 -0.8408 0.3207
vn -0.4058 -0.8513 0.3326
vn 0.0268 0.9165 0.3990
vn 0.0264 0.9041 0.4266
vn 0.0055 0.9121 0.4100
vn -0.0071 -0.5810 0.8139
vn -0.0186 -0.5357 0.8442
vn -0.0087 -0.5599 0.8285
vn 0.6788 0.6895 -0.2528
vn 0.6951 0.6563 -0.2935
vn 0.6752 0.6788 -0.2887
vn 0.6787 -0.6896 0.2528
vn 0.6923 -0.6573 0.2979
vn 0.6754 -0.6774 0.2913
vn -0.0239 0.9840 0.1767
vn -0.0076 0.9801 0.1984
vn 0.0012 0.9796 0.2009
vn -0.0034 0.1518 -0.9884
vn 0.0187 0.1119 -0.9935
vn 0.0113 0.1225 -0.9924
vn -0.8932 0.1733 0.4148
vn -0.8776 0.1791 0.4446
vn -0.8794 0.1878 0.4375
vn -0.4359 -0.3226 -0.8402
vn -0.4050 -0.3312 -0.8523
vn -0.4190 -0.3668 -0.8306
vn 0.0268 -0.3991 0.9165
vn 0.0249 -0.4258 0.9045
vn 0.0054 -0.4101 0.9120
vn -0.0067 -0.8149 -0.5796
vn -0.0186 -0.8442 -0.5357
vn -0.0087 -0.8285 -0.5599
vn 0.6788 0.2528 0.6895
vn 0.6951 0.2935 0.6563
vn 0.6752 0.2886 0.6788
vn 0.6787 -0.2528 -0.6896
vn 0.6923 -0.2978 -0.6573
vn 0.6754 -0.2913 -0.6774
vn -0.0000 0.9355 0.3533
vn -0.0000 0.1219 -0.9925
vn -0.8794 0.1822 0.4398
vn -0.4194 -0.3474 -0.8387
vn -0.0000 -0.4117 0.9113
vn -0.0000 -0.7881 -0.6156
vn 0.8795 0.1821 0.4397
vn 0.4194 -0.3474 -0.8387
vn -0.0000 0.9113 -0.4117
vn -0.0000 -0.6156 -0.7880
vn -0.8795 0.4397 0.1821
vn -0.4194 -0.8387 -0.3474
vn -0.0000 0.3533 0.9355
vn -0.0000 -0.9925 0.1220
vn 0.8795 0.4397 0.1822
vn 0.4194 -0.8387 -0.3474
vn 0.0268 0.3991 -0.9165
vn -0.0043 0.4400 -0.8980
vn 0.0054 0.4101 -0.9120
vn 0.0221 0.8437 0.5363
vn -0.0186 0.8442 0.5357
vn -0.0087 0.8285 0.5599
vn 0.6789 -0.2527 -0.6894
vn 0.6951 -0.2935 -0.6563
vn 0.6752 -0.2886 -0.6788
vn 0.6787 0.2528 0.6896
vn 0.6849 0.3054 0.6615
vn 0.6754 0.2914 0.6774
vn -0.0291 -0.9821 -0.1863
vn -0.0077 -0.9801 -0.1984
vn 0.0012 -0.9796 -0.2008
vn -0.0032 -0.1506 0.9886
vn 0.0192 -0.1116 0.9936
vn 0.0114 -0.1226 0.9924
vn -0.8927 -0.1737 -0.4158
vn -0.8776 -0.1791 -0.4446
vn -0.8794 -0.1877 -0.4375
vn -0.4195 0.3736 0.8273
vn -0.4461 0.3526 0.8226
vn -0.4058 0.3325 0.8513
vn -0.0000 -0.9355 0.3533
vn -0.0000 -0.1219 -0.9925
vn 0.8795 -0.1821 0.4397
vn 0.4194 0.3474 -0.8387
vn -0.0000 0.4117 0.9113
vn -0.0000 0.7881 -0.6156
vn -0.8795 -0.1822 0.4397
vn -0.4194 0.3474 -0.8387
vn 0.0268 -0.9165 -0.3990
vn -0.0041 -0.8988 -0.4383
vn 0.0054 -0.9120 -0.4101
vn 0.0208 0.5374 -0.8430
vn -0.0186 0.5356 -0.8442
vn -0.0087 0.5599 -0.8285
vn 0.6789 -0.6894 0.2527
vn 0.6951 -0.6563 0.2935
vn 0.6752 -0.6788 0.2886
vn 0.6787 0.6895 -0.2528
vn 0.6849 0.6615 -0.3054
vn 0.6754 0.6774 -0.2913
vn -0.0290 -0.1863 0.9821
vn -0.0077 -0.1984 0.9801
vn 0.0012 -0.1892 0.9819
vn -0.0034 0.9884 0.1518
vn 0.0187 0.9935 0.1119
vn 0.0113 0.9924 0.1225
vn -0.8932 -0.4149 0.1733
vn -0.8789 -0.4430 0.1770
vn -0.8794 -0.4375 0.1878
vn -0.4446 0.8235 -0.3525
vn -0.4050 0.8522 -0.3312
vn -0.4190 0.8306 -0.3668
vn -0.0000 0.4117 -0.9113
vn -0.0000 0.7881 0.6156
vn 0.8795 -0.1821 -0.4397
vn 0.4194 0.3474 0.8387
vn -0.0000 -0.9355 -0.3533
vn -0.0000 -0.1219 0.9925
vn -0.8795 -0.1821 -0.4397
vn -0.4194 0.3474 0.8387
vn -0.3988 -0.3509 0.8473
vn -0.3987 0.8473 0.3509
vn -0.3987 0.3509 -0.8473
vn -0.3987 -0.3510 -0.8472
vn -0.3988 0.3453 -0.8495
vn -0.4037 0.3527 -0.8442
vn 0.9504 0.1058 -0.2924
vn -0.4005 -0.3454 -0.8487
vn 0.9453 -0.1046 -0.3090
vn 0.9477 -0.1424 -0.2856
vn -0.3988 -0.8473 -0.3509
vn -0.3988 -0.8495 -0.3454
vn -0.4037 -0.8442 -0.3526
vn 0.9477 -0.3019 -0.1033
vn -0.3988 -0.8472 0.3510
vn -0.3988 -0.8449 0.3565
vn -0.4037 -0.8463 0.3476
vn 0.9453 -0.3088 0.1051
vn 0.9479 -0.2844 0.1438
vn -0.3988 -0.3510 0.8472
vn -0.3988 -0.3453 0.8495
vn -0.4037 -0.3527 0.8442
vn 0.9477 -0.1039 0.3019
vn -0.3988 0.3510 0.8472
vn -0.4005 0.3454 0.8487
vn 0.9453 0.1051 0.3088
vn 0.9479 0.1438 0.2844
vn -0.3988 0.8495 0.3454
vn -0.4037 0.8442 0.3527
vn 0.9477 0.3019 0.1039
vn -0.4037 0.8463 -0.3476
vn 0.9452 0.3093 -0.1047
vn 0.9477 0.2856 -0.1424
vn 0.3988 -0.8472 -0.3510
vn 0.3988 -0.3510 -0.8472
vn 0.3988 0.3509 -0.8473
vn 0.3988 0.8472 -0.3509
vn 0.3987 0.8473 0.3509
vn 0.3988 0.3509 0.8473
vn 0.3988 -0.3510 0.8472
vn 0.3987 -0.8473 0.3509
vn -0.0075 0.9861 -0.1662
vn 0.0012 0.9796 -0.2009
vn -0.0077 0.9801 -0.1984
vn 0.0289 0.1315 0.9909
vn 0.0113 0.1225 0.9924
vn 0.0192 0.1116 0.9936
vn 0.6786 0.2528 -0.6896
vn 0.6752 0.2886 -0.6788
vn 0.6862 0.3044 -0.6607
vn 0.6789 -0.2527 0.6894
vn 0.6754 -0.2913 0.6774
vn 0.7001 -0.2793 0.6572
vn -0.0131 -0.3862 -0.9223
vn 0.0032 -0.4071 -0.9134
vn 0.0249 -0.4258 -0.9045
vn -0.0066 -0.8149 0.5796
vn -0.0087 -0.8285 0.5599
vn -0.0279 -0.8373 0.5460
vn -0.8834 0.1528 -0.4431
vn -0.8794 0.1877 -0.4374
vn -0.8776 0.1791 -0.4446
vn -0.4359 -0.3226 0.8402
vn -0.4190 -0.3673 0.8304
vn -0.4135 -0.3272 0.8497
vn 0.0063 0.8994 -0.4370
vn 0.0032 0.9134 -0.4070
vn 0.0249 0.9045 -0.4257
vn -0.0066 -0.5796 -0.8149
vn -0.0087 -0.5599 -0.8285
vn -0.0016 -0.5314 -0.8471
vn -0.8907 0.4263 0.1580
vn -0.8794 0.4374 0.1878
vn -0.8789 0.4429 0.1771
vn -0.4358 -0.8402 -0.3226
vn -0.4187 -0.8307 -0.3669
vn -0.4135 -0.8497 -0.3272
vn -0.0080 0.1641 0.9864
vn 0.0012 0.1893 0.9819
vn -0.0076 0.1984 0.9801
vn 0.0166 -0.9889 0.1474
vn 0.0113 -0.9924 0.1225
vn 0.0211 -0.9928 0.1179
vn 0.6994 0.6588 0.2772
vn 0.6785 0.6818 0.2735
vn 0.6753 0.6787 0.2887
vn 0.6785 -0.6892 -0.2542
vn 0.6754 -0.6774 -0.2913
vn 0.7016 -0.6557 -0.2791
vn -0.0075 -0.1662 -0.9861
vn 0.0012 -0.1893 -0.9819
vn -0.0077 -0.1984 -0.9801
vn 0.0289 0.9909 -0.1315
vn 0.0114 0.9924 -0.1225
vn 0.0216 0.9928 -0.1178
vn 0.6786 -0.6897 -0.2528
vn 0.6752 -0.6788 -0.2886
vn 0.6862 -0.6607 -0.3044
vn 0.6788 0.6894 0.2527
vn 0.6754 0.6774 0.2914
vn 0.7000 0.6572 0.2793
vn -0.0131 -0.9223 0.3862
vn 0.0032 -0.9134 0.4071
vn 0.0249 -0.9045 0.4258
vn -0.0066 0.5796 0.8149
vn -0.0087 0.5599 0.8285
vn -0.0279 0.5460 0.8373
vn -0.8834 -0.4431 -0.1528
vn -0.8794 -0.4374 -0.1877
vn -0.8789 -0.4429 -0.1771
vn -0.4359 0.8402 0.3226
vn -0.4187 0.8305 0.3674
vn -0.4130 0.8505 0.3257
vn -0.8795 -0.4398 -0.1821
vn -0.8794 0.1822 -0.4398
vn 0.8795 0.1821 -0.4397
vn 0.0066 0.4382 0.8988
vn 0.0032 0.4071 0.9134
vn 0.0249 0.4258 0.9045
vn -0.0066 0.8149 -0.5796
vn -0.0087 0.8285 -0.5599
vn -0.0017 0.8478 -0.5303
vn -0.8907 -0.1580 0.4263
vn -0.8794 -0.1877 0.4374
vn -0.8776 -0.1791 0.4447
vn -0.4359 0.3226 -0.8402
vn -0.4187 0.3669 -0.8307
vn -0.4130 0.3256 -0.8505
vn -0.0075 -0.9861 0.1662
vn 0.0012 -0.9796 0.2009
vn -0.0077 -0.9801 0.1984
vn 0.0166 -0.1474 -0.9889
vn 0.0113 -0.1225 -0.9924
vn 0.0211 -0.1179 -0.9928
vn 0.6786 -0.2528 0.6896
vn 0.6752 -0.2886 0.6788
vn 0.7003 -0.2773 0.6578
vn 0.6785 0.2529 -0.6897
vn 0.6754 0.2913 -0.6774
vn 0.7001 0.2793 -0.6572
vn -0.8795 -0.4397 0.1821
vn -0.8795 0.4397 -0.1821
vn -0.4194 -0.8387 0.3474
vn -0.0000 -0.6156 0.7881
vn 0.8794 0.4398 -0.1821
vn 0.0066 0.3257 -0.9455
vn 0.0032 0.3580 -0.9337
vn 0.0239 0.3391 -0.9404
vn -0.0063 -0.9858 -0.1675
vn -0.0091 -0.9818 -0.1897
vn -0.0017 -0.9745 -0.2245
vn -0.8793 0.4501 -0.1555
vn -0.8776 0.4410 -0.1878
vn -0.8941 0.4143 -0.1703
vn -0.4352 -0.8229 0.3653
vn -0.4186 -0.8478 0.3255
vn -0.4072 -0.8371 0.3653
vn -0.0075 0.8148 0.5797
vn 0.0011 0.8348 0.5506
vn -0.0076 0.8333 0.5527
vn -0.0036 -0.5901 0.8073
vn 0.0108 -0.6151 0.7884
vn 0.0237 -0.6190 0.7850
vn 0.7004 0.6610 -0.2693
vn 0.6785 0.6755 -0.2888
vn 0.6752 0.6841 -0.2758
vn 0.7001 -0.6620 0.2676
vn 0.6784 -0.6745 0.2911
vn 0.6757 -0.6847 0.2733
vn 0.0066 0.9454 0.3257
vn 0.0054 0.9349 0.3549
vn 0.0249 0.9406 0.3385
vn -0.0066 0.1664 -0.9860
vn -0.0091 0.1897 -0.9818
vn -0.0017 0.2245 -0.9745
vn -0.8793 0.1544 0.4506
vn -0.8776 0.1877 0.4411
vn -0.8933 0.1709 0.4158
vn -0.4195 -0.3196 -0.8496
vn -0.4136 -0.3669 -0.8333
vn -0.4352 -0.3666 -0.8223
vn -0.0075 -0.5798 0.8148
vn 0.0011 -0.5506 0.8348
vn -0.0075 -0.5528 0.8333
vn -0.0034 -0.8063 -0.5915
vn 0.0108 -0.7884 -0.6151
vn 0.0255 -0.7847 -0.6193
vn 0.7004 0.2693 0.6610
vn 0.6785 0.2887 0.6755
vn 0.6753 0.2758 0.6841
vn 0.7001 -0.2676 -0.6620
vn 0.6784 -0.2911 -0.6745
vn 0.6757 -0.2733 -0.6847
vn -0.8795 0.1821 0.4397
vn 0.8795 0.1821 0.4398
vn -0.0000 -0.6156 -0.7881
vn -0.8794 0.4398 0.1821
vn -0.4193 -0.8387 -0.3474
vn 0.8795 0.4397 0.1821
vn -0.0075 0.5798 -0.8148
vn 0.0011 0.5506 -0.8348
vn -0.0075 0.5528 -0.8333
vn 0.0307 0.7940 0.6072
vn 0.0108 0.7884 0.6151
vn 0.0237 0.7850 0.6190
vn 0.7003 -0.2781 -0.6575
vn 0.6785 -0.2887 -0.6755
vn 0.6752 -0.2757 -0.6841
vn 0.7001 0.2676 0.6620
vn 0.6784 0.2911 0.6745
vn 0.6757 0.2733 0.6847
vn -0.0215 -0.9427 -0.3329
vn 0.0054 -0.9349 -0.3549
vn 0.0239 -0.9404 -0.3392
vn -0.0063 -0.1675 0.9858
vn -0.0092 -0.1897 0.9818
vn 0.0084 -0.2236 0.9747
vn -0.8793 -0.1555 -0.4502
vn -0.8776 -0.1877 -0.4411
vn -0.8834 -0.2070 -0.4205
vn -0.4352 0.3653 0.8229
vn -0.4186 0.3255 0.8478
vn -0.4139 0.3675 0.8328
vn -0.8795 -0.1821 0.4397
vn -0.0075 -0.8148 -0.5798
vn 0.0012 -0.8348 -0.5506
vn -0.0075 -0.8333 -0.5528
vn 0.0290 0.6076 -0.7937
vn 0.0108 0.6151 -0.7884
vn 0.0255 0.6193 -0.7847
vn 0.7002 -0.6575 0.2781
vn 0.6785 -0.6755 0.2887
vn 0.6753 -0.6841 0.2758
vn 0.7001 0.6620 -0.2676
vn 0.6784 0.6745 -0.2911
vn 0.6757 0.6847 -0.2733
vn -0.0215 -0.3329 0.9427
vn 0.0032 -0.3580 0.9337
vn 0.0249 -0.3385 0.9406
vn -0.0066 0.9860 0.1664
vn -0.0091 0.9818 0.1897
vn 0.0084 0.9747 0.2235
vn -0.8793 -0.4506 0.1544
vn -0.8776 -0.4411 0.1878
vn -0.8832 -0.4216 0.2056
vn -0.4201 0.8493 -0.3195
vn -0.4136 0.8333 -0.3669
vn -0.4352 0.8223 -0.3666
vn -0.8795 -0.1822 -0.4397
vt 0.000000 0.000000
s 0
f 65/1/1 55/1/1 51/1/1
f 65/1/2 66/1/2 52/1/2
f 66/1/3 51/1/3 49/1/3
f 66/1/4 67/1/4 50/1/4
f 68/1/5 67/1/5 49/1/5
f 67/1/6 68/1/6 54/1/6
f 69/1/7 68/1/7 53/1/7
f 68/1/8 69/1/8 58/1/8
f 70/1/9 69/1/9 57/1/9
f 70/1/10 62/1/10 58/1/10
f 70/1/11 61/1/11 63/1/11
f 70/1/12 71/1/12 64/1/12
f 72/1/13 71/1/13 63/1/13
f 71/1/14 72/1/14 60/1/14
f 72/1/15 59/1/15 55/1/15
f 72/1/16 65/1/16 56/1/16
f 74/1/17 73/1/17 13/1/18
f 74/1/12 6/1/19 14/1/20
f 74/1/13 5/1/21 1/1/22
f 74/1/14 75/1/14 2/1/23
f 76/1/24 75/1/24 1/1/25
f 76/1/16 8/1/26 2/1/27
f 77/1/28 76/1/28 7/1/29
f 76/1/2 77/1/2 4/1/30
f 78/1/3 77/1/3 3/1/31
f 78/1/4 12/1/32 4/1/33
f 78/1/34 11/1/35 9/1/36
f 78/1/6 79/1/6 10/1/37
f 80/1/38 79/1/38 9/1/39
f 80/1/8 16/1/40 10/1/41
f 80/1/42 15/1/43 13/1/44
f 80/1/10 73/1/10 14/1/45
f 82/1/46 81/1/46 17/1/46
f 82/1/47 28/1/47 18/1/47
f 82/1/48 27/1/48 29/1/48
f 82/1/49 83/1/49 30/1/49
f 84/1/50 83/1/50 29/1/50
f 84/1/51 32/1/51 30/1/51
f 85/1/52 84/1/52 31/1/52
f 84/1/53 85/1/53 20/1/53
f 85/1/54 19/1/54 25/1/54
f 86/1/55 26/1/55 20/1/55
f 87/1/56 86/1/56 25/1/56
f 87/1/57 24/1/57 26/1/57
f 87/1/58 23/1/58 21/1/58
f 88/1/59 22/1/59 24/1/59
f 88/1/60 21/1/60 17/1/60
f 88/1/61 81/1/61 18/1/61
f 90/1/62 89/1/63 13/1/64
f 89/1/65 90/1/66 48/1/67
f 90/1/68 47/1/69 45/1/70
f 91/1/71 46/1/72 48/1/73
f 91/1/74 45/1/75 5/1/76
f 92/1/77 6/1/78 46/1/79
f 89/1/80 92/1/81 5/1/82
f 92/1/83 89/1/84 14/1/85
f 93/1/86 43/1/87 15/1/88
f 94/1/89 16/1/90 44/1/91
f 95/1/92 94/1/93 15/1/94
f 94/1/95 95/1/96 10/1/97
f 96/1/98 95/1/99 9/1/100
f 95/1/101 96/1/102 40/1/103
f 93/1/104 96/1/105 39/1/106
f 93/1/107 44/1/108 40/1/109
f 98/1/110 97/1/111 1/1/112
f 97/1/113 98/1/114 42/1/115
f 98/1/116 41/1/117 37/1/118
f 99/1/119 38/1/120 42/1/121
f 99/1/122 37/1/123 7/1/124
f 100/1/125 8/1/126 38/1/127
f 97/1/128 100/1/129 7/1/130
f 100/1/131 97/1/132 2/1/133
f 102/1/134 101/1/134 59/1/134
f 101/1/135 102/1/135 28/1/135
f 102/1/136 27/1/136 17/1/136
f 102/1/137 103/1/137 18/1/137
f 103/1/138 17/1/138 55/1/138
f 103/1/139 104/1/139 56/1/139
f 104/1/140 55/1/140 59/1/140
f 101/1/141 60/1/141 56/1/141
f 105/1/142 29/1/142 63/1/142
f 105/1/143 106/1/143 64/1/143
f 106/1/144 63/1/144 61/1/144
f 107/1/145 62/1/145 64/1/145
f 108/1/146 107/1/146 61/1/146
f 107/1/147 108/1/147 32/1/147
f 105/1/148 108/1/148 31/1/148
f 108/1/149 105/1/149 30/1/149
f 109/1/150 35/1/151 11/1/152
f 110/1/153 12/1/154 36/1/155
f 111/1/156 110/1/157 11/1/158
f 110/1/159 111/1/160 4/1/161
f 112/1/162 111/1/163 3/1/164
f 111/1/165 112/1/166 34/1/167
f 112/1/168 33/1/169 35/1/170
f 109/1/171 36/1/172 34/1/173
f 113/1/174 55/1/174 17/1/174
f 113/1/175 114/1/175 18/1/175
f 115/1/176 114/1/176 17/1/176
f 115/1/177 22/1/177 18/1/177
f 116/1/178 115/1/178 21/1/178
f 115/1/179 116/1/179 52/1/179
f 113/1/180 116/1/180 51/1/180
f 113/1/181 56/1/181 52/1/181
f 118/1/182 117/1/182 31/1/182
f 117/1/183 118/1/183 62/1/183
f 119/1/184 118/1/184 61/1/184
f 118/1/185 119/1/185 58/1/185
f 120/1/186 119/1/186 57/1/186
f 119/1/187 120/1/187 20/1/187
f 117/1/188 120/1/188 19/1/188
f 117/1/189 32/1/189 20/1/189
f 121/1/190 47/1/191 13/1/192
f 122/1/193 14/1/194 48/1/195
f 122/1/196 13/1/197 15/1/198
f 122/1/199 123/1/200 16/1/201
f 124/1/202 123/1/203 15/1/204
f 123/1/205 124/1/206 44/1/207
f 121/1/208 124/1/209 43/1/210
f 124/1/211 121/1/212 48/1/213
f 125/1/214 39/1/215 9/1/216
f 126/1/217 10/1/218 40/1/219
f 126/1/220 9/1/221 11/1/222
f 127/1/223 12/1/224 10/1/225
f 128/1/226 127/1/227 11/1/228
f 127/1/229 128/1/230 36/1/231
f 125/1/232 128/1/233 35/1/234
f 128/1/235 125/1/236 40/1/237
f 130/1/238 129/1/238 25/1/238
f 129/1/239 130/1/239 54/1/239
f 131/1/240 130/1/240 53/1/240
f 130/1/241 131/1/241 50/1/241
f 131/1/242 49/1/242 23/1/242
f 131/1/243 132/1/243 24/1/243
f 132/1/244 23/1/244 25/1/244
f 129/1/245 26/1/245 24/1/245
f 134/1/246 133/1/246 19/1/246
f 133/1/247 134/1/247 58/1/247
f 134/1/248 57/1/248 53/1/248
f 135/1/249 54/1/249 58/1/249
f 136/1/250 135/1/250 53/1/250
f 135/1/251 136/1/251 26/1/251
f 133/1/252 136/1/252 25/1/252
f 136/1/253 133/1/253 20/1/253
f 138/1/254 137/1/255 5/1/256
f 137/1/257 138/1/258 46/1/259
f 139/1/260 138/1/261 45/1/262
f 138/1/263 139/1/264 42/1/265
f 139/1/266 41/1/267 1/1/268
f 140/1/269 2/1/270 42/1/271
f 140/1/272 1/1/273 5/1/274
f 140/1/275 137/1/276 6/1/277
f 141/1/278 51/1/278 21/1/278
f 141/1/279 142/1/279 22/1/279
f 142/1/280 21/1/280 23/1/280
f 142/1/281 143/1/281 24/1/281
f 143/1/282 23/1/282 49/1/282
f 143/1/283 144/1/283 50/1/283
f 141/1/284 144/1/284 49/1/284
f 141/1/285 52/1/285 50/1/285
f 146/1/286 145/1/287 7/1/288
f 145/1/289 146/1/290 38/1/291
f 147/1/292 146/1/293 37/1/294
f 146/1/295 147/1/296 34/1/297
f 147/1/298 33/1/299 3/1/300
f 148/1/301 4/1/302 34/1/303
f 148/1/304 3/1/305 7/1/306
f 145/1/307 8/1/308 4/1/309
f 149/1/310 63/1/310 29/1/310
f 149/1/311 150/1/311 30/1/311
f 150/1/312 29/1/312 27/1/312
f 151/1/313 28/1/313 30/1/313
f 151/1/314 27/1/314 59/1/314
f 151/1/315 152/1/315 60/1/315
f 152/1/316 59/1/316 63/1/316
f 152/1/317 149/1/317 64/1/317
f 65/1/1 51/1/1 66/1/1
f 65/1/2 52/1/2 56/1/2
f 66/1/318 49/1/318 67/1/318
f 66/1/4 50/1/4 52/1/4
f 68/1/34 49/1/34 53/1/34
f 67/1/6 54/1/6 50/1/6
f 69/1/319 53/1/319 57/1/319
f 68/1/8 58/1/8 54/1/8
f 70/1/42 57/1/42 61/1/42
f 70/1/10 58/1/10 69/1/10
f 70/1/320 63/1/320 71/1/320
f 70/1/12 64/1/12 62/1/12
f 72/1/321 63/1/321 59/1/321
f 71/1/14 60/1/14 64/1/14
f 72/1/24 55/1/24 65/1/24
f 72/1/16 56/1/16 60/1/16
f 74/1/17 13/1/322 5/1/323
f 74/1/12 14/1/324 73/1/12
f 74/1/13 1/1/325 75/1/13
f 74/1/14 2/1/326 6/1/327
f 76/1/328 1/1/329 7/1/330
f 76/1/16 2/1/331 75/1/16
f 77/1/332 7/1/333 3/1/334
f 76/1/2 4/1/335 8/1/336
f 78/1/337 3/1/338 11/1/339
f 78/1/4 4/1/340 77/1/4
f 78/1/341 9/1/342 79/1/341
f 78/1/6 10/1/343 12/1/344
f 80/1/7 9/1/345 15/1/346
f 80/1/8 10/1/347 79/1/8
f 80/1/9 13/1/348 73/1/9
f 80/1/10 14/1/349 16/1/350
f 82/1/351 17/1/351 27/1/351
f 82/1/47 18/1/47 81/1/47
f 82/1/352 29/1/352 83/1/352
f 82/1/49 30/1/49 28/1/49
f 84/1/353 29/1/353 31/1/353
f 84/1/51 30/1/51 83/1/51
f 85/1/354 31/1/354 19/1/354
f 84/1/53 20/1/53 32/1/53
f 85/1/355 25/1/355 86/1/355
f 86/1/55 20/1/55 85/1/55
f 87/1/356 25/1/356 23/1/356
f 87/1/57 26/1/57 86/1/57
f 87/1/357 21/1/357 88/1/357
f 88/1/59 24/1/59 87/1/59
f 88/1/358 17/1/358 81/1/358
f 88/1/61 18/1/61 22/1/61
f 90/1/359 13/1/360 47/1/361
f 89/1/362 48/1/363 14/1/364
f 90/1/365 45/1/366 91/1/367
f 91/1/368 48/1/369 90/1/370
f 91/1/371 5/1/372 92/1/373
f 92/1/374 46/1/375 91/1/376
f 89/1/377 5/1/378 13/1/379
f 92/1/380 14/1/381 6/1/382
f 93/1/383 15/1/384 94/1/385
f 94/1/386 44/1/387 93/1/388
f 95/1/389 15/1/390 9/1/391
f 94/1/392 10/1/393 16/1/394
f 96/1/395 9/1/396 39/1/397
f 95/1/398 40/1/399 10/1/400
f 93/1/401 39/1/402 43/1/403
f 93/1/404 40/1/405 96/1/406
f 98/1/407 1/1/408 41/1/409
f 97/1/410 42/1/411 2/1/412
f 98/1/413 37/1/414 99/1/415
f 99/1/416 42/1/417 98/1/418
f 99/1/419 7/1/420 100/1/421
f 100/1/422 38/1/423 99/1/424
f 97/1/425 7/1/426 1/1/427
f 100/1/428 2/1/429 8/1/430
f 102/1/134 59/1/134 27/1/134
f 101/1/135 28/1/135 60/1/135
f 102/1/136 17/1/136 103/1/136
f 102/1/137 18/1/137 28/1/137
f 103/1/138 55/1/138 104/1/138
f 103/1/139 56/1/139 18/1/139
f 104/1/431 59/1/431 101/1/431
f 101/1/141 56/1/141 104/1/141
f 105/1/142 63/1/142 106/1/142
f 105/1/143 64/1/143 30/1/143
f 106/1/432 61/1/432 107/1/432
f 107/1/145 64/1/145 106/1/145
f 108/1/146 61/1/146 31/1/146
f 107/1/147 32/1/147 62/1/147
f 105/1/433 31/1/433 29/1/433
f 108/1/149 30/1/149 32/1/149
f 109/1/434 11/1/435 110/1/436
f 110/1/437 36/1/438 109/1/439
f 111/1/440 11/1/441 3/1/442
f 110/1/443 4/1/444 12/1/445
f 112/1/446 3/1/447 33/1/448
f 111/1/449 34/1/450 4/1/451
f 112/1/452 35/1/453 109/1/454
f 109/1/455 34/1/456 112/1/457
f 113/1/174 17/1/174 114/1/174
f 113/1/175 18/1/175 56/1/175
f 115/1/176 17/1/176 21/1/176
f 115/1/177 18/1/177 114/1/177
f 116/1/178 21/1/178 51/1/178
f 115/1/179 52/1/179 22/1/179
f 113/1/458 51/1/458 55/1/458
f 113/1/181 52/1/181 116/1/181
f 118/1/182 31/1/182 61/1/182
f 117/1/183 62/1/183 32/1/183
f 119/1/459 61/1/459 57/1/459
f 118/1/460 58/1/460 62/1/460
f 120/1/186 57/1/186 19/1/186
f 119/1/461 20/1/461 58/1/461
f 117/1/462 19/1/462 31/1/462
f 117/1/189 20/1/189 120/1/189
f 121/1/463 13/1/464 122/1/465
f 122/1/466 48/1/467 121/1/468
f 122/1/469 15/1/470 123/1/471
f 122/1/472 16/1/473 14/1/474
f 124/1/475 15/1/476 43/1/477
f 123/1/478 44/1/479 16/1/480
f 121/1/481 43/1/482 47/1/483
f 124/1/484 48/1/485 44/1/486
f 125/1/487 9/1/488 126/1/489
f 126/1/490 40/1/491 125/1/492
f 126/1/493 11/1/494 127/1/495
f 127/1/496 10/1/497 126/1/498
f 128/1/499 11/1/500 35/1/501
f 127/1/502 36/1/503 12/1/504
f 125/1/505 35/1/506 39/1/507
f 128/1/508 40/1/509 36/1/510
f 130/1/238 25/1/238 53/1/238
f 129/1/239 54/1/239 26/1/239
f 131/1/511 53/1/511 49/1/511
f 130/1/241 50/1/241 54/1/241
f 131/1/242 23/1/242 132/1/242
f 131/1/243 24/1/243 50/1/243
f 132/1/512 25/1/512 129/1/512
f 129/1/245 24/1/245 132/1/245
f 134/1/246 19/1/246 57/1/246
f 133/1/513 58/1/513 20/1/513
f 134/1/514 53/1/514 135/1/514
f 135/1/515 58/1/515 134/1/515
f 136/1/250 53/1/250 25/1/250
f 135/1/251 26/1/251 54/1/251
f 133/1/516 25/1/516 19/1/516
f 136/1/253 20/1/253 26/1/253
f 138/1/517 5/1/518 45/1/519
f 137/1/520 46/1/521 6/1/522
f 139/1/523 45/1/524 41/1/525
f 138/1/526 42/1/527 46/1/528
f 139/1/529 1/1/530 140/1/531
f 140/1/532 42/1/533 139/1/534
f 140/1/535 5/1/536 137/1/537
f 140/1/538 6/1/539 2/1/540
f 141/1/278 21/1/278 142/1/278
f 141/1/279 22/1/279 52/1/279
f 142/1/280 23/1/280 143/1/280
f 142/1/281 24/1/281 22/1/281
f 143/1/282 49/1/282 144/1/282
f 143/1/283 50/1/283 24/1/283
f 141/1/541 49/1/541 51/1/541
f 141/1/285 50/1/285 144/1/285
f 146/1/542 7/1/543 37/1/544
f 145/1/545 38/1/546 8/1/547
f 147/1/548 37/1/549 33/1/550
f 146/1/551 34/1/552 38/1/553
f 147/1/554 3/1/555 148/1/556
f 148/1/557 34/1/558 147/1/559
f 148/1/560 7/1/561 145/1/562
f 145/1/563 4/1/564 148/1/565
f 149/1/310 29/1/310 150/1/310
f 149/1/311 30/1/311 64/1/311
f 150/1/312 27/1/312 151/1/312
f 151/1/313 30/1/313 150/1/313
f 151/1/314 59/1/314 152/1/314
f 151/1/315 60/1/315 28/1/315
f 152/1/566 63/1/566 149/1/566
f 152/1/317 64/1/317 60/1/317
