# Blender 5.2.0 LTS
# www.blender.org
mtllib glass bolts.mtl
o body_bolts
v -1.007653 0.217058 -0.120660
v -1.005324 0.217058 -0.122551
v -1.048141 0.257546 -0.120660
v -1.048141 0.259875 -0.122551
v -1.019511 0.245687 -0.120660
v -1.017864 0.247334 -0.122551
v -1.076770 0.245687 -0.120660
v -1.078417 0.247334 -0.122551
v -1.048141 0.176570 -0.120660
v -1.048141 0.174241 -0.122551
v -1.019511 0.188428 -0.120660
v -1.017864 0.186781 -0.122551
v -1.088629 0.217058 -0.120660
v -1.090958 0.217058 -0.122551
v -1.076770 0.188428 -0.120660
v -1.078417 0.186781 -0.122551
v -1.088629 0.217058 0.120660
v -1.090958 0.217058 0.122551
v -1.048141 0.176570 0.120660
v -1.048141 0.174241 0.122551
v -1.076770 0.245687 0.120660
v -1.078417 0.247334 0.122551
v -1.076770 0.188428 0.120660
v -1.078417 0.186781 0.122551
v -1.007653 0.217058 0.120660
v -1.005324 0.217058 0.122551
v -1.019511 0.188428 0.120660
v -1.017864 0.186781 0.122551
v -1.048141 0.257546 0.120660
v -1.048141 0.259875 0.122551
v -1.019511 0.245687 0.120660
v -1.017864 0.247334 0.122551
v 0.289017 0.109002 -0.120660
v 0.291346 0.109002 -0.122551
v 0.248528 0.149490 -0.120660
v 0.248528 0.151819 -0.122551
v 0.277158 0.137632 -0.120660
v 0.278805 0.139279 -0.122551
v 0.277158 0.080373 -0.120660
v 0.278805 0.078726 -0.122551
v 0.219899 0.080373 -0.120660
v 0.218252 0.078726 -0.122551
v 0.248528 0.068514 -0.120660
v 0.248528 0.066185 -0.122551
v 0.208040 0.109002 -0.120660
v 0.205711 0.109002 -0.122551
v 0.219899 0.137632 -0.120660
v 0.218252 0.139279 -0.122551
v 0.219899 0.080373 0.120660
v 0.218252 0.078726 0.122551
v 0.248528 0.149490 0.120660
v 0.248528 0.151819 0.122551
v 0.208040 0.109002 0.120660
v 0.205711 0.109002 0.122551
v 0.219899 0.137632 0.120660
v 0.218252 0.139279 0.122551
v 0.277158 0.080373 0.120660
v 0.278805 0.078726 0.122551
v 0.248528 0.068514 0.120660
v 0.248528 0.066185 0.122551
v 0.289017 0.109002 0.120660
v 0.291346 0.109002 0.122551
v 0.277158 0.137632 0.120660
v 0.278805 0.139279 0.122551
v 0.850907 0.109002 -0.120660
v 0.853236 0.109002 -0.122551
v 0.810418 0.149490 -0.120660
v 0.810418 0.151819 -0.122551
v 0.839048 0.137632 -0.120660
v 0.840695 0.139279 -0.122551
v 0.839048 0.080373 -0.120660
v 0.840695 0.078726 -0.122551
v 0.781789 0.080373 -0.120660
v 0.780142 0.078726 -0.122551
v 0.810418 0.068514 -0.120660
v 0.810418 0.066185 -0.122551
v 0.769930 0.109002 -0.120660
v 0.767601 0.109002 -0.122551
v 0.781789 0.137632 -0.120660
v 0.780142 0.139279 -0.122551
v 0.781789 0.080373 0.120660
v 0.780142 0.078726 0.122551
v 0.810418 0.149490 0.120660
v 0.810418 0.151819 0.122551
v 0.769930 0.109002 0.120660
v 0.767601 0.109002 0.122551
v 0.781789 0.137632 0.120660
v 0.780142 0.139279 0.122551
v 0.839048 0.080373 0.120660
v 0.840695 0.078726 0.122551
v 0.810418 0.068514 0.120660
v 0.810418 0.066185 0.122551
v 0.850907 0.109002 0.120660
v 0.853236 0.109002 0.122551
v 0.839048 0.137632 0.120660
v 0.840695 0.139279 0.122551
v 1.007653 -0.217057 -0.120660
v 1.005324 -0.217057 -0.122551
v 1.048141 -0.176569 -0.120660
v 1.048141 -0.174240 -0.122551
v 1.076770 -0.188428 -0.120660
v 1.078417 -0.186781 -0.122551
v 1.019511 -0.188428 -0.120660
v 1.017864 -0.186781 -0.122551
v 1.076770 -0.245687 -0.120660
v 1.078417 -0.247334 -0.122551
v 1.088629 -0.217057 -0.120660
v 1.090958 -0.217057 -0.122551
v 1.048141 -0.257546 -0.120660
v 1.048141 -0.259875 -0.122551
v 1.019511 -0.245687 -0.120660
v 1.017864 -0.247334 -0.122551
v 1.007653 -0.217057 0.120660
v 1.005324 -0.217057 0.122551
v 1.048141 -0.257546 0.120660
v 1.048141 -0.259875 0.122551
v 1.076770 -0.245687 0.120660
v 1.078417 -0.247334 0.122551
v 1.019511 -0.245687 0.120660
v 1.017864 -0.247334 0.122551
v 1.076770 -0.188428 0.120660
v 1.078417 -0.186781 0.122551
v 1.088629 -0.217057 0.120660
v 1.090958 -0.217057 0.122551
v 1.048141 -0.176569 0.120660
v 1.048141 -0.174240 0.122551
v 1.019511 -0.188428 0.120660
v 1.017864 -0.186781 0.122551
v -1.076445 0.245362 -0.121605
v -1.048141 0.257087 -0.121605
v -1.019836 0.245362 -0.121605
v -1.008112 0.217058 -0.121605
v -1.019836 0.188753 -0.121605
v -1.048141 0.177029 -0.121605
v -1.076445 0.188753 -0.121605
v -1.088170 0.217058 -0.121605
v -1.076445 0.245362 0.121605
v -1.088170 0.217058 0.121605
v -1.076445 0.188753 0.121605
v -1.048141 0.177029 0.121605
v -1.019836 0.188753 0.121605
v -1.008112 0.217058 0.121605
v -1.019836 0.245362 0.121605
v -1.048141 0.257087 0.121605
v 0.248528 0.149031 -0.121605
v 0.276833 0.137307 -0.121605
v 0.288558 0.109002 -0.121605
v 0.276833 0.080698 -0.121605
v 0.248528 0.068973 -0.121605
v 0.220224 0.080698 -0.121605
v 0.208499 0.109002 -0.121605
v 0.220224 0.137307 -0.121605
v 0.248528 0.149031 0.121605
v 0.220224 0.137307 0.121605
v 0.208499 0.109002 0.121605
v 0.220224 0.080698 0.121605
v 0.248528 0.068973 0.121605
v 0.276833 0.080698 0.121605
v 0.288558 0.109002 0.121605
v 0.276833 0.137307 0.121605
v 0.810418 0.149031 -0.121605
v 0.838723 0.137307 -0.121605
v 0.850448 0.109002 -0.121605
v 0.838723 0.080698 -0.121605
v 0.810418 0.068973 -0.121605
v 0.782114 0.080698 -0.121605
v 0.770389 0.109002 -0.121605
v 0.782114 0.137307 -0.121605
v 0.810418 0.149031 0.121605
v 0.782114 0.137307 0.121605
v 0.770389 0.109002 0.121605
v 0.782114 0.080698 0.121605
v 0.810418 0.068973 0.121605
v 0.838723 0.080698 0.121605
v 0.850448 0.109002 0.121605
v 0.838723 0.137307 0.121605
v 1.008112 -0.217057 -0.121605
v 1.019836 -0.188753 -0.121605
v 1.048141 -0.177028 -0.121605
v 1.076445 -0.188753 -0.121605
v 1.088170 -0.217057 -0.121605
v 1.076445 -0.245362 -0.121605
v 1.048141 -0.257087 -0.121605
v 1.019836 -0.245362 -0.121605
v 1.008112 -0.217057 0.121605
v 1.019836 -0.245362 0.121605
v 1.048141 -0.257087 0.121605
v 1.076445 -0.245362 0.121605
v 1.088170 -0.217057 0.121605
v 1.076445 -0.188753 0.121605
v 1.048141 -0.177028 0.121605
v 1.019836 -0.188753 0.121605
v -1.020073 0.247085 0.120105
v -1.020073 0.247084 -0.120105
v -1.046755 0.258137 -0.120105
v -1.046755 0.258137 0.120105
v 0.220461 0.139029 -0.120105
v 0.220461 0.139030 0.120105
v 0.247142 0.150081 0.120105
v 0.247142 0.150081 -0.120105
v 0.289608 0.110388 0.120105
v 0.289608 0.110388 -0.120105
v 0.278555 0.137070 -0.120105
v 0.278555 0.137070 0.120105
v -1.078167 0.188990 -0.120105
v -1.078167 0.188990 0.120105
v -1.089220 0.215672 0.120105
v -1.089220 0.215672 -0.120105
v -1.049527 0.175979 -0.120105
v -1.049527 0.175979 0.120105
v -1.076208 0.187031 0.120105
v -1.076208 0.187030 -0.120105
v -1.007062 0.218444 0.120105
v -1.007062 0.218444 -0.120105
v -1.018113 0.245125 -0.120105
v -1.018113 0.245125 0.120105
v 1.020073 -0.187031 -0.120105
v 1.020073 -0.187030 0.120105
v 1.046755 -0.175978 0.120105
v 1.046755 -0.175978 -0.120105
v 0.780391 0.080935 -0.120105
v 0.780391 0.080935 0.120105
v 0.769340 0.107616 0.120105
v 0.769340 0.107616 -0.120105
v 0.249914 0.067923 0.120105
v 0.249914 0.067923 -0.120105
v 0.276596 0.078975 -0.120105
v 0.276596 0.078975 0.120105
v 0.851498 0.110388 0.120105
v 0.851498 0.110388 -0.120105
v 0.840446 0.137070 -0.120105
v 0.840446 0.137070 0.120105
v 0.218501 0.080935 -0.120105
v 0.218501 0.080935 0.120105
v 0.207449 0.107616 0.120105
v 0.207449 0.107616 -0.120105
v 0.838486 0.139030 0.120105
v 0.838486 0.139029 -0.120105
v 0.811804 0.150081 -0.120105
v 0.811804 0.150081 0.120105
v 0.782351 0.139029 -0.120105
v 0.782351 0.139030 0.120105
v 0.809032 0.150081 0.120105
v 0.809032 0.150081 -0.120105
v 0.278556 0.080935 0.120105
v 0.278556 0.080935 -0.120105
v 0.289608 0.107616 -0.120105
v 0.289608 0.107616 0.120105
v 0.276596 0.139030 0.120105
v 0.276596 0.139029 -0.120105
v 0.249914 0.150081 -0.120105
v 0.249914 0.150081 0.120105
v -1.089220 0.218444 -0.120105
v -1.089220 0.218444 0.120105
v -1.078167 0.245125 0.120105
v -1.078167 0.245125 -0.120105
v 0.809032 0.067923 -0.120105
v 0.809032 0.067923 0.120105
v 0.782351 0.078975 0.120105
v 0.782351 0.078975 -0.120105
v 1.018113 -0.245125 -0.120105
v 1.018113 -0.245125 0.120105
v 1.007062 -0.218443 0.120105
v 1.007062 -0.218443 -0.120105
v -1.076208 0.247085 -0.120105
v -1.076208 0.247085 0.120105
v -1.049527 0.258137 0.120105
v -1.049527 0.258137 -0.120105
v -1.018113 0.188990 0.120105
v -1.018113 0.188990 -0.120105
v -1.007062 0.215672 -0.120105
v -1.007062 0.215672 0.120105
v 0.811804 0.067923 0.120105
v 0.811804 0.067923 -0.120105
v 0.838486 0.078975 -0.120105
v 0.838486 0.078975 0.120105
v 1.089220 -0.215671 0.120105
v 1.089220 -0.215671 -0.120105
v 1.078167 -0.188990 -0.120105
v 1.078167 -0.188990 0.120105
v 0.769340 0.110388 -0.120105
v 0.769340 0.110388 0.120105
v 0.780391 0.137070 0.120105
v 0.780391 0.137070 -0.120105
v 1.007062 -0.215671 -0.120105
v 1.007062 -0.215671 0.120105
v 1.018113 -0.188990 0.120105
v 1.018113 -0.188990 -0.120105
v 0.207449 0.110388 -0.120105
v 0.207449 0.110388 0.120105
v 0.218501 0.137070 0.120105
v 0.218501 0.137070 -0.120105
v 1.046755 -0.258137 -0.120105
v 1.046755 -0.258137 0.120105
v 1.020073 -0.247084 0.120105
v 1.020073 -0.247084 -0.120105
v 0.247142 0.067923 -0.120105
v 0.247142 0.067923 0.120105
v 0.220461 0.078975 0.120105
v 0.220461 0.078975 -0.120105
v -1.046755 0.175979 0.120105
v -1.046755 0.175979 -0.120105
v -1.020073 0.187031 -0.120105
v -1.020073 0.187031 0.120105
v 1.076208 -0.187030 0.120105
v 1.076208 -0.187030 -0.120105
v 1.049527 -0.175978 -0.120105
v 1.049527 -0.175978 0.120105
v 0.840446 0.080935 0.120105
v 0.840446 0.080935 -0.120105
v 0.851498 0.107616 -0.120105
v 0.851498 0.107616 0.120105
v 1.078167 -0.245125 0.120105
v 1.078167 -0.245125 -0.120105
v 1.089220 -0.218443 -0.120105
v 1.089220 -0.218443 0.120105
v 1.049527 -0.258137 0.120105
v 1.049527 -0.258137 -0.120105
v 1.076208 -0.247085 -0.120105
v 1.076208 -0.247085 0.120105
vn -0.3492 0.8429 -0.4093
vn -0.1319 0.3183 0.9388
vn 0.3492 0.8429 -0.4093
vn 0.1318 0.3183 0.9388
vn 0.8430 0.3491 -0.4093
vn 0.3183 0.1318 0.9388
vn 0.8429 -0.3491 -0.4093
vn 0.3183 -0.1318 0.9388
vn 0.3491 -0.8430 -0.4093
vn 0.1318 -0.3183 0.9388
vn -0.3491 -0.8430 -0.4093
vn -0.1318 -0.3183 0.9388
vn -0.8430 -0.3492 -0.4092
vn -0.3183 -0.1318 0.9388
vn -0.8429 0.3492 -0.4093
vn -0.3183 0.1319 0.9388
vn -0.8430 0.3492 0.4092
vn -0.3183 0.1319 -0.9388
vn -0.8429 -0.3492 0.4093
vn -0.3183 -0.1319 -0.9388
vn -0.3492 -0.8430 0.4092
vn -0.1318 -0.3183 -0.9388
vn 0.3491 -0.8430 0.4093
vn 0.1318 -0.3183 -0.9388
vn 0.8430 -0.3491 0.4093
vn 0.3183 -0.1318 -0.9388
vn 0.8429 0.3491 0.4093
vn 0.3183 0.1318 -0.9388
vn 0.3492 0.8430 0.4093
vn 0.1319 0.3183 -0.9388
vn -0.3492 0.8430 0.4093
vn -0.1319 0.3183 -0.9388
vn 0.3491 0.8430 -0.4093
vn 0.8430 0.3492 -0.4093
vn 0.8429 -0.3492 -0.4093
vn 0.3183 -0.1319 0.9388
vn 0.3492 -0.8430 -0.4093
vn -0.3492 -0.8430 -0.4093
vn -0.1319 -0.3183 0.9388
vn -0.8430 -0.3492 -0.4093
vn -0.3183 -0.1319 0.9388
vn -0.8430 0.3492 -0.4093
vn -0.3183 0.1318 0.9388
vn -0.3491 0.8430 -0.4093
vn -0.1318 0.3183 0.9388
vn -0.3491 0.8430 0.4093
vn -0.1318 0.3183 -0.9388
vn -0.8430 0.3492 0.4093
vn -0.3183 0.1318 -0.9388
vn -0.8430 -0.3492 0.4093
vn -0.3492 -0.8430 0.4093
vn -0.1319 -0.3183 -0.9388
vn 0.3492 -0.8430 0.4093
vn 0.1319 -0.3183 -0.9388
vn 0.8430 -0.3492 0.4093
vn 0.3183 -0.1319 -0.9388
vn 0.8430 0.3492 0.4093
vn 0.3491 0.8430 0.4093
vn 0.1318 0.3183 -0.9388
vn -0.3492 0.8430 -0.4093
vn -0.8429 0.3491 -0.4093
vn 0.3492 0.8430 -0.4093
vn 0.1319 0.3183 0.9388
vn 0.8430 0.3492 -0.4092
vn 0.3183 0.1319 0.9388
vn 0.3492 -0.8429 -0.4093
vn 0.1319 -0.3183 0.9388
vn -0.8430 -0.3491 -0.4093
vn -0.8430 -0.3491 0.4093
vn -0.3183 -0.1318 -0.9388
vn -0.3491 -0.8429 0.4093
vn 0.3492 -0.8429 0.4093
vn 0.8429 -0.3492 0.4093
vn 0.8429 0.3492 0.4093
vn 0.3183 0.1319 -0.9388
vn -0.3492 0.8430 0.4092
vn -0.8430 0.3491 0.4093
vn 0.9277 0.3734 -0.0000
vn 0.1122 -0.9937 -0.0000
vn 0.1753 0.4233 -0.8889
vn -0.3503 -0.8456 -0.4027
vn -0.3920 0.9200 -0.0000
vn -0.7820 -0.6233 -0.0000
vn 0.1753 0.4233 0.8889
vn -0.3503 -0.8456 0.4027
vn -0.9277 0.3733 -0.0000
vn -0.1122 -0.9937 -0.0000
vn -0.1753 0.4233 0.8889
vn 0.3503 -0.8457 0.4027
vn 0.3920 0.9200 -0.0000
vn 0.7820 -0.6233 -0.0000
vn -0.1753 0.4233 -0.8889
vn 0.3503 -0.8457 -0.4027
vn 0.9199 -0.3921 -0.0000
vn -0.6233 -0.7820 -0.0000
vn 0.4233 0.1753 -0.8889
vn -0.8456 -0.3503 -0.4027
vn 0.3733 0.9277 -0.0000
vn -0.9937 0.1122 -0.0000
vn 0.4233 0.1753 0.8889
vn -0.8456 -0.3503 0.4027
vn -0.3733 -0.9277 -0.0000
vn 0.9937 -0.1121 -0.0000
vn -0.4233 -0.1753 0.8889
vn 0.8457 0.3503 0.4027
vn -0.9200 0.3920 -0.0000
vn 0.6233 0.7820 -0.0000
vn -0.4233 -0.1753 -0.8889
vn 0.8456 0.3503 -0.4027
vn 0.3920 -0.9200 -0.0000
vn 0.7819 0.6234 -0.0000
vn -0.1753 -0.4233 0.8889
vn 0.3503 0.8457 0.4027
vn -0.9277 -0.3733 -0.0000
vn -0.1122 0.9937 -0.0000
vn -0.1753 -0.4233 -0.8889
vn 0.3503 0.8456 -0.4027
vn -0.6233 -0.7819 -0.0000
vn -0.9937 0.1123 -0.0000
vn -0.8457 -0.3503 0.4027
vn -0.9277 0.3734 -0.0000
vn 0.3503 -0.8456 0.4027
vn 0.3503 -0.8456 -0.4027
vn 0.9937 -0.1122 -0.0000
vn 0.8456 0.3503 0.4027
vn -0.4233 -0.1754 -0.8888
vn -0.3920 -0.9200 -0.0000
vn -0.7820 0.6233 -0.0000
vn 0.1753 -0.4233 -0.8889
vn -0.3503 0.8456 -0.4027
vn 0.9277 -0.3733 -0.0000
vn 0.1122 0.9937 -0.0000
vn 0.1753 -0.4233 0.8889
vn -0.3503 0.8456 0.4027
vn 0.9200 -0.3920 -0.0000
vn 0.4233 0.1753 -0.8888
vn 0.9277 0.3733 -0.0000
vn -0.3503 -0.8457 -0.4027
vn -0.3921 0.9199 -0.0000
vn -0.3503 -0.8457 0.4027
vn -0.9277 0.3732 -0.0000
vn 0.3733 -0.9277 -0.0000
vn -0.9937 -0.1122 -0.0000
vn 0.4233 -0.1753 -0.8889
vn -0.8456 0.3503 -0.4027
vn 0.9199 0.3920 -0.0000
vn -0.6233 0.7820 -0.0000
vn 0.4233 -0.1753 0.8889
vn -0.8456 0.3503 0.4027
vn -0.3920 0.9199 -0.0000
vn -0.9200 -0.3920 -0.0000
vn 0.6233 -0.7820 -0.0000
vn -0.4233 0.1753 0.8889
vn 0.8456 -0.3503 0.4027
vn -0.3733 0.9277 -0.0000
vn 0.9937 0.1122 -0.0000
vn -0.4233 0.1754 -0.8889
vn 0.8456 -0.3503 -0.4027
vn 0.7820 0.6233 -0.0000
vn 0.3503 0.8456 0.4027
vn 0.9937 -0.1123 -0.0000
vn -0.9199 0.3921 -0.0000
vn 0.6234 0.7819 -0.0000
vn 0.8457 0.3502 -0.4027
vn -0.9937 -0.1123 -0.0000
vn -0.8457 0.3503 -0.4027
vn 0.9199 0.3921 -0.0000
vn -0.6234 0.7819 -0.0000
vn -0.8457 0.3502 0.4027
vn -0.8456 -0.3503 -0.4028
vn 0.4233 0.1754 0.8889
vn -0.4233 0.1753 0.8888
vn -0.4233 0.1753 -0.8889
vn -0.9199 -0.3921 -0.0000
vn 0.6233 -0.7819 -0.0000
vn 0.8457 -0.3503 0.4027
vn 0.9937 0.1123 -0.0000
vn 0.8457 -0.3503 -0.4027
vn -0.9277 -0.3734 -0.0000
vn -0.7819 0.6234 -0.0000
vn -0.3503 0.8457 -0.4027
vn 0.9277 -0.3734 -0.0000
vn -0.3503 0.8457 0.4027
vn 0.9277 0.3732 -0.0000
vn 0.9200 0.3920 -0.0000
vn 0.4233 -0.1754 0.8889
vn -0.9937 -0.1121 -0.0000
vn 0.1754 -0.4233 -0.8889
vn 0.8429 0.3491 -0.4093
vn 0.8430 -0.3491 -0.4093
vn -0.3492 -0.8430 -0.4092
vn -0.8429 -0.3492 -0.4093
vn -0.8430 0.3492 -0.4092
vn -0.8429 0.3492 0.4093
vn -0.8430 -0.3492 0.4092
vn -0.3491 -0.8430 0.4093
vn 0.8429 -0.3491 0.4093
vn 0.3492 0.8429 0.4093
vn -0.3492 0.8429 0.4093
vn 0.8430 -0.3492 -0.4093
vn -0.8430 0.3491 -0.4093
vn 0.8429 0.3492 -0.4093
vn -0.3492 -0.8429 -0.4093
vn 0.8430 0.3492 0.4092
vn -0.8429 0.3491 0.4093
vn 0.9278 0.3732 -0.0000
vn 0.3920 0.9199 -0.0000
vn 0.9199 -0.3920 -0.0000
vn 0.8457 0.3503 -0.4027
vn 0.3503 0.8457 -0.4027
vn -0.8457 -0.3503 -0.4027
vn -0.9937 0.1121 -0.0000
vn -0.9278 0.3732 -0.0000
vn 0.3921 0.9199 -0.0000
vn -0.4233 -0.1754 0.8888
vn -0.3920 -0.9199 -0.0000
vn 0.4233 0.1753 0.8888
vn -0.9199 -0.3920 -0.0000
vn -0.4233 0.1754 0.8889
vn -0.3734 0.9277 -0.0000
vn -0.1754 -0.4233 -0.8889
vn 0.8457 0.3502 0.4027
vn 0.7821 -0.6232 -0.0000
vn -0.8457 0.3502 -0.4027
vn -0.8457 0.3503 0.4027
vn 0.4233 0.1754 -0.8889
vn 0.3734 0.9277 -0.0000
vn -0.8456 -0.3503 0.4028
vn -0.4233 0.1753 -0.8888
vn 0.9937 0.1121 -0.0000
vn 0.3921 -0.9199 -0.0000
vn -0.9278 -0.3732 -0.0000
vn -0.3921 -0.9199 -0.0000
vn 0.9278 -0.3731 -0.0000
vn -0.7821 -0.6232 -0.0000
vn 0.4233 -0.1754 -0.8889
vn -0.7821 0.6232 -0.0000
vn 0.1754 -0.4233 0.8889
vt 0.000000 0.000000
s 0
f 130/1/1 129/1/1 7/1/1
f 130/1/2 4/1/2 8/1/2
f 131/1/3 130/1/3 3/1/3
f 131/1/4 6/1/4 4/1/4
f 132/1/5 131/1/5 5/1/5
f 131/1/6 132/1/6 2/1/6
f 132/1/7 1/1/7 11/1/7
f 133/1/8 12/1/8 2/1/8
f 133/1/9 11/1/9 9/1/9
f 133/1/10 134/1/10 10/1/10
f 134/1/11 9/1/11 15/1/11
f 135/1/12 16/1/12 10/1/12
f 136/1/13 135/1/13 15/1/13
f 136/1/14 14/1/14 16/1/14
f 129/1/15 136/1/15 13/1/15
f 136/1/16 129/1/16 8/1/16
f 138/1/17 137/1/17 21/1/17
f 138/1/18 18/1/18 22/1/18
f 138/1/19 17/1/19 23/1/19
f 138/1/20 139/1/20 24/1/20
f 140/1/21 139/1/21 23/1/21
f 139/1/22 140/1/22 20/1/22
f 141/1/23 140/1/23 19/1/23
f 141/1/24 28/1/24 20/1/24
f 142/1/25 141/1/25 27/1/25
f 141/1/26 142/1/26 26/1/26
f 143/1/27 142/1/27 25/1/27
f 143/1/28 32/1/28 26/1/28
f 143/1/29 31/1/29 29/1/29
f 143/1/30 144/1/30 30/1/30
f 144/1/31 29/1/31 21/1/31
f 144/1/32 137/1/32 22/1/32
f 146/1/33 145/1/33 35/1/33
f 146/1/4 38/1/4 36/1/4
f 147/1/34 146/1/34 37/1/34
f 146/1/6 147/1/6 34/1/6
f 147/1/35 33/1/35 39/1/35
f 147/1/36 148/1/36 40/1/36
f 149/1/37 148/1/37 39/1/37
f 149/1/10 44/1/10 40/1/10
f 150/1/38 149/1/38 43/1/38
f 149/1/39 150/1/39 42/1/39
f 151/1/40 150/1/40 41/1/40
f 151/1/41 46/1/41 42/1/41
f 152/1/42 151/1/42 45/1/42
f 152/1/43 48/1/43 46/1/43
f 152/1/44 47/1/44 35/1/44
f 152/1/45 145/1/45 36/1/45
f 154/1/46 153/1/46 51/1/46
f 154/1/47 56/1/47 52/1/47
f 155/1/48 154/1/48 55/1/48
f 154/1/49 155/1/49 54/1/49
f 155/1/50 53/1/50 49/1/50
f 155/1/20 156/1/20 50/1/20
f 157/1/51 156/1/51 49/1/51
f 157/1/52 60/1/52 50/1/52
f 158/1/53 157/1/53 59/1/53
f 157/1/54 158/1/54 58/1/54
f 159/1/55 158/1/55 57/1/55
f 159/1/56 62/1/56 58/1/56
f 160/1/57 159/1/57 61/1/57
f 160/1/28 64/1/28 62/1/28
f 160/1/58 63/1/58 51/1/58
f 160/1/59 153/1/59 52/1/59
f 161/1/33 67/1/33 69/1/33
f 162/1/4 70/1/4 68/1/4
f 163/1/34 162/1/34 69/1/34
f 162/1/6 163/1/6 66/1/6
f 163/1/35 65/1/35 71/1/35
f 163/1/8 164/1/8 72/1/8
f 164/1/37 71/1/37 75/1/37
f 165/1/10 76/1/10 72/1/10
f 165/1/38 75/1/38 73/1/38
f 165/1/39 166/1/39 74/1/39
f 167/1/40 166/1/40 73/1/40
f 166/1/41 167/1/41 78/1/41
f 168/1/42 167/1/42 77/1/42
f 168/1/43 80/1/43 78/1/43
f 161/1/60 168/1/60 79/1/60
f 168/1/45 161/1/45 68/1/45
f 170/1/46 169/1/46 83/1/46
f 170/1/47 88/1/47 84/1/47
f 170/1/48 87/1/48 85/1/48
f 170/1/49 171/1/49 86/1/49
f 171/1/19 85/1/19 81/1/19
f 171/1/20 172/1/20 82/1/20
f 173/1/51 172/1/51 81/1/51
f 173/1/52 92/1/52 82/1/52
f 173/1/53 91/1/53 89/1/53
f 173/1/24 174/1/24 90/1/24
f 175/1/55 174/1/55 89/1/55
f 175/1/56 94/1/56 90/1/56
f 175/1/57 93/1/57 95/1/57
f 176/1/28 96/1/28 94/1/28
f 169/1/58 176/1/58 95/1/58
f 176/1/59 169/1/59 84/1/59
f 177/1/61 97/1/61 103/1/61
f 178/1/43 104/1/43 98/1/43
f 179/1/1 178/1/1 103/1/1
f 178/1/2 179/1/2 100/1/2
f 180/1/62 179/1/62 99/1/62
f 179/1/63 180/1/63 102/1/63
f 180/1/64 101/1/64 107/1/64
f 180/1/65 181/1/65 108/1/65
f 181/1/35 107/1/35 105/1/35
f 181/1/8 182/1/8 106/1/8
f 183/1/66 182/1/66 105/1/66
f 183/1/67 110/1/67 106/1/67
f 183/1/38 109/1/38 111/1/38
f 184/1/12 112/1/12 110/1/12
f 177/1/68 184/1/68 111/1/68
f 184/1/14 177/1/14 98/1/14
f 186/1/69 185/1/69 113/1/69
f 186/1/70 120/1/70 114/1/70
f 186/1/71 119/1/71 115/1/71
f 186/1/22 187/1/22 116/1/22
f 188/1/72 187/1/72 115/1/72
f 187/1/54 188/1/54 118/1/54
f 189/1/73 188/1/73 117/1/73
f 189/1/26 124/1/26 118/1/26
f 190/1/74 189/1/74 123/1/74
f 190/1/75 122/1/75 124/1/75
f 191/1/29 190/1/29 121/1/29
f 191/1/30 126/1/30 122/1/30
f 192/1/76 191/1/76 125/1/76
f 192/1/47 128/1/47 126/1/47
f 185/1/77 192/1/77 127/1/77
f 192/1/49 185/1/49 114/1/49
f 194/1/78 193/1/78 31/1/78
f 193/1/79 194/1/79 6/1/79
f 195/1/80 194/1/80 5/1/80
f 195/1/81 4/1/81 6/1/81
f 196/1/82 195/1/82 3/1/82
f 195/1/83 196/1/83 30/1/83
f 196/1/84 29/1/84 31/1/84
f 196/1/85 193/1/85 32/1/85
f 198/1/86 197/1/86 47/1/86
f 197/1/87 198/1/87 56/1/87
f 199/1/88 198/1/88 55/1/88
f 198/1/89 199/1/89 52/1/89
f 200/1/90 199/1/90 51/1/90
f 199/1/91 200/1/91 36/1/91
f 200/1/92 35/1/92 47/1/92
f 197/1/93 48/1/93 36/1/93
f 202/1/94 201/1/94 61/1/94
f 201/1/95 202/1/95 34/1/95
f 203/1/96 202/1/96 33/1/96
f 202/1/97 203/1/97 38/1/97
f 204/1/98 203/1/98 37/1/98
f 203/1/99 204/1/99 64/1/99
f 204/1/100 63/1/100 61/1/100
f 204/1/101 201/1/101 62/1/101
f 206/1/102 205/1/102 15/1/102
f 205/1/103 206/1/103 24/1/103
f 207/1/104 206/1/104 23/1/104
f 207/1/105 18/1/105 24/1/105
f 208/1/106 207/1/106 17/1/106
f 207/1/107 208/1/107 14/1/107
f 208/1/108 13/1/108 15/1/108
f 208/1/109 205/1/109 16/1/109
f 210/1/110 209/1/110 9/1/110
f 209/1/111 210/1/111 20/1/111
f 210/1/112 19/1/112 23/1/112
f 211/1/113 24/1/113 20/1/113
f 212/1/114 211/1/114 23/1/114
f 211/1/115 212/1/115 16/1/115
f 209/1/116 212/1/116 15/1/116
f 212/1/117 209/1/117 10/1/117
f 214/1/94 213/1/94 25/1/94
f 213/1/118 214/1/118 2/1/118
f 215/1/96 214/1/96 1/1/96
f 214/1/97 215/1/97 6/1/97
f 216/1/98 215/1/98 5/1/98
f 215/1/119 216/1/119 32/1/119
f 213/1/100 216/1/100 31/1/100
f 216/1/120 213/1/120 26/1/120
f 218/1/121 217/1/121 103/1/121
f 217/1/87 218/1/87 128/1/87
f 219/1/88 218/1/88 127/1/88
f 218/1/122 219/1/122 126/1/122
f 220/1/90 219/1/90 125/1/90
f 219/1/91 220/1/91 100/1/91
f 217/1/92 220/1/92 99/1/92
f 217/1/123 104/1/123 100/1/123
f 222/1/102 221/1/102 73/1/102
f 221/1/124 222/1/124 82/1/124
f 222/1/104 81/1/104 85/1/104
f 223/1/125 86/1/125 82/1/125
f 224/1/106 223/1/106 85/1/106
f 223/1/107 224/1/107 78/1/107
f 221/1/126 224/1/126 77/1/126
f 224/1/109 221/1/109 74/1/109
f 226/1/127 225/1/127 59/1/127
f 225/1/128 226/1/128 44/1/128
f 227/1/129 226/1/129 43/1/129
f 226/1/130 227/1/130 40/1/130
f 228/1/131 227/1/131 39/1/131
f 227/1/132 228/1/132 58/1/132
f 225/1/133 228/1/133 57/1/133
f 225/1/134 60/1/134 58/1/134
f 230/1/135 229/1/135 93/1/135
f 229/1/95 230/1/95 66/1/95
f 230/1/136 65/1/136 69/1/136
f 231/1/97 70/1/97 66/1/97
f 232/1/98 231/1/98 69/1/98
f 231/1/99 232/1/99 96/1/99
f 229/1/100 232/1/100 95/1/100
f 232/1/101 229/1/101 94/1/101
f 234/1/102 233/1/102 41/1/102
f 233/1/124 234/1/124 50/1/124
f 234/1/104 49/1/104 53/1/104
f 235/1/125 54/1/125 50/1/125
f 236/1/106 235/1/106 53/1/106
f 235/1/107 236/1/107 46/1/107
f 233/1/108 236/1/108 45/1/108
f 236/1/109 233/1/109 42/1/109
f 238/1/137 237/1/137 95/1/137
f 237/1/79 238/1/79 70/1/79
f 239/1/80 238/1/80 69/1/80
f 238/1/138 239/1/138 68/1/138
f 240/1/139 239/1/139 67/1/139
f 239/1/83 240/1/83 84/1/83
f 240/1/84 83/1/84 95/1/84
f 237/1/140 96/1/140 84/1/140
f 242/1/141 241/1/141 79/1/141
f 241/1/87 242/1/87 88/1/87
f 243/1/88 242/1/88 87/1/88
f 242/1/89 243/1/89 84/1/89
f 244/1/90 243/1/90 83/1/90
f 243/1/91 244/1/91 68/1/91
f 244/1/92 67/1/92 79/1/92
f 241/1/93 80/1/93 68/1/93
f 246/1/142 245/1/142 57/1/142
f 245/1/143 246/1/143 40/1/143
f 246/1/144 39/1/144 33/1/144
f 247/1/145 34/1/145 40/1/145
f 248/1/146 247/1/146 33/1/146
f 247/1/147 248/1/147 62/1/147
f 245/1/148 248/1/148 61/1/148
f 248/1/149 245/1/149 58/1/149
f 250/1/137 249/1/137 63/1/137
f 249/1/79 250/1/79 38/1/79
f 251/1/80 250/1/80 37/1/80
f 250/1/138 251/1/138 36/1/138
f 252/1/150 251/1/150 35/1/150
f 251/1/83 252/1/83 52/1/83
f 252/1/84 51/1/84 63/1/84
f 249/1/140 64/1/140 52/1/140
f 254/1/151 253/1/151 13/1/151
f 253/1/152 254/1/152 18/1/152
f 255/1/153 254/1/153 17/1/153
f 254/1/154 255/1/154 22/1/154
f 256/1/155 255/1/155 21/1/155
f 255/1/156 256/1/156 8/1/156
f 256/1/157 7/1/157 13/1/157
f 253/1/158 14/1/158 8/1/158
f 258/1/110 257/1/110 75/1/110
f 257/1/159 258/1/159 92/1/159
f 259/1/112 258/1/112 91/1/112
f 258/1/160 259/1/160 82/1/160
f 260/1/114 259/1/114 81/1/114
f 259/1/115 260/1/115 74/1/115
f 257/1/116 260/1/116 73/1/116
f 257/1/117 76/1/117 74/1/117
f 262/1/102 261/1/102 111/1/102
f 261/1/161 262/1/161 120/1/161
f 263/1/104 262/1/104 119/1/104
f 262/1/105 263/1/105 114/1/105
f 264/1/162 263/1/162 113/1/162
f 263/1/163 264/1/163 98/1/163
f 264/1/108 97/1/108 111/1/108
f 261/1/164 112/1/164 98/1/164
f 266/1/141 265/1/141 7/1/141
f 265/1/87 266/1/87 22/1/87
f 266/1/88 21/1/88 29/1/88
f 267/1/122 30/1/122 22/1/122
f 268/1/90 267/1/90 29/1/90
f 267/1/91 268/1/91 4/1/91
f 265/1/92 268/1/92 3/1/92
f 268/1/123 265/1/123 8/1/123
f 270/1/142 269/1/142 27/1/142
f 269/1/165 270/1/165 12/1/165
f 271/1/144 270/1/144 11/1/144
f 270/1/166 271/1/166 2/1/166
f 272/1/167 271/1/167 1/1/167
f 271/1/168 272/1/168 26/1/168
f 272/1/148 25/1/148 27/1/148
f 269/1/169 28/1/169 26/1/169
f 274/1/127 273/1/127 91/1/127
f 273/1/128 274/1/128 76/1/128
f 274/1/129 75/1/129 71/1/129
f 275/1/130 72/1/130 76/1/130
f 276/1/131 275/1/131 71/1/131
f 275/1/132 276/1/132 90/1/132
f 273/1/133 276/1/133 89/1/133
f 276/1/134 273/1/134 92/1/134
f 278/1/135 277/1/135 123/1/135
f 277/1/95 278/1/95 108/1/95
f 279/1/96 278/1/96 107/1/96
f 278/1/170 279/1/170 102/1/170
f 280/1/98 279/1/98 101/1/98
f 279/1/99 280/1/99 122/1/99
f 280/1/171 121/1/171 123/1/171
f 277/1/101 124/1/101 122/1/101
f 282/1/151 281/1/151 77/1/151
f 281/1/152 282/1/152 86/1/152
f 282/1/172 85/1/172 87/1/172
f 283/1/154 88/1/154 86/1/154
f 284/1/155 283/1/155 87/1/155
f 283/1/156 284/1/156 80/1/156
f 281/1/173 284/1/173 79/1/173
f 284/1/158 281/1/158 78/1/158
f 286/1/174 285/1/174 97/1/174
f 285/1/175 286/1/175 114/1/175
f 286/1/153 113/1/153 127/1/153
f 287/1/176 128/1/176 114/1/176
f 288/1/155 287/1/155 127/1/155
f 287/1/177 288/1/177 104/1/177
f 285/1/173 288/1/173 103/1/173
f 288/1/178 285/1/178 98/1/178
f 290/1/151 289/1/151 45/1/151
f 289/1/152 290/1/152 54/1/152
f 291/1/153 290/1/153 53/1/153
f 290/1/154 291/1/154 56/1/154
f 292/1/155 291/1/155 55/1/155
f 291/1/156 292/1/156 48/1/156
f 292/1/173 47/1/173 45/1/173
f 292/1/158 289/1/158 46/1/158
f 294/1/110 293/1/110 109/1/110
f 293/1/159 294/1/159 116/1/159
f 295/1/112 294/1/112 115/1/112
f 294/1/160 295/1/160 120/1/160
f 296/1/179 295/1/179 119/1/179
f 295/1/115 296/1/115 112/1/115
f 296/1/116 111/1/116 109/1/116
f 296/1/117 293/1/117 110/1/117
f 298/1/110 297/1/110 43/1/110
f 297/1/159 298/1/159 60/1/159
f 299/1/112 298/1/112 59/1/112
f 298/1/160 299/1/160 50/1/160
f 300/1/114 299/1/114 49/1/114
f 299/1/115 300/1/115 42/1/115
f 300/1/116 41/1/116 43/1/116
f 297/1/117 44/1/117 42/1/117
f 302/1/127 301/1/127 19/1/127
f 301/1/180 302/1/180 10/1/180
f 302/1/129 9/1/129 11/1/129
f 303/1/181 12/1/181 10/1/181
f 304/1/182 303/1/182 11/1/182
f 303/1/132 304/1/132 28/1/132
f 301/1/133 304/1/133 27/1/133
f 304/1/183 301/1/183 20/1/183
f 306/1/184 305/1/184 121/1/184
f 305/1/79 306/1/79 102/1/79
f 306/1/80 101/1/80 99/1/80
f 306/1/81 307/1/81 100/1/81
f 308/1/82 307/1/82 99/1/82
f 307/1/83 308/1/83 126/1/83
f 305/1/84 308/1/84 125/1/84
f 305/1/85 122/1/85 126/1/85
f 310/1/142 309/1/142 89/1/142
f 309/1/143 310/1/143 72/1/143
f 311/1/144 310/1/144 71/1/144
f 311/1/145 66/1/145 72/1/145
f 312/1/185 311/1/185 65/1/185
f 311/1/147 312/1/147 94/1/147
f 312/1/186 93/1/186 89/1/186
f 312/1/149 309/1/149 90/1/149
f 314/1/142 313/1/142 117/1/142
f 313/1/187 314/1/187 106/1/187
f 315/1/144 314/1/144 105/1/144
f 314/1/166 315/1/166 108/1/166
f 316/1/185 315/1/185 107/1/185
f 315/1/147 316/1/147 124/1/147
f 316/1/148 123/1/148 117/1/148
f 316/1/149 313/1/149 118/1/149
f 318/1/127 317/1/127 115/1/127
f 317/1/128 318/1/128 110/1/128
f 319/1/188 318/1/188 109/1/188
f 318/1/130 319/1/130 106/1/130
f 320/1/131 319/1/131 105/1/131
f 319/1/132 320/1/132 118/1/132
f 320/1/133 117/1/133 115/1/133
f 320/1/134 317/1/134 116/1/134
f 130/1/60 7/1/60 3/1/60
f 130/1/2 8/1/2 129/1/2
f 131/1/62 3/1/62 5/1/62
f 131/1/63 4/1/63 130/1/63
f 132/1/189 5/1/189 1/1/189
f 131/1/6 2/1/6 6/1/6
f 132/1/190 11/1/190 133/1/190
f 133/1/8 2/1/8 132/1/8
f 133/1/9 9/1/9 134/1/9
f 133/1/10 10/1/10 12/1/10
f 134/1/191 15/1/191 135/1/191
f 135/1/12 10/1/12 134/1/12
f 136/1/192 15/1/192 13/1/192
f 136/1/14 16/1/14 135/1/14
f 129/1/193 13/1/193 7/1/193
f 136/1/16 8/1/16 14/1/16
f 138/1/194 21/1/194 17/1/194
f 138/1/18 22/1/18 137/1/18
f 138/1/195 23/1/195 139/1/195
f 138/1/70 24/1/70 18/1/70
f 140/1/196 23/1/196 19/1/196
f 139/1/22 20/1/22 24/1/22
f 141/1/23 19/1/23 27/1/23
f 141/1/24 20/1/24 140/1/24
f 142/1/197 27/1/197 25/1/197
f 141/1/26 26/1/26 28/1/26
f 143/1/27 25/1/27 31/1/27
f 143/1/28 26/1/28 142/1/28
f 143/1/198 29/1/198 144/1/198
f 143/1/59 30/1/59 32/1/59
f 144/1/199 21/1/199 137/1/199
f 144/1/32 22/1/32 30/1/32
f 146/1/33 35/1/33 37/1/33
f 146/1/4 36/1/4 145/1/4
f 147/1/34 37/1/34 33/1/34
f 146/1/6 34/1/6 38/1/6
f 147/1/200 39/1/200 148/1/200
f 147/1/36 40/1/36 34/1/36
f 149/1/37 39/1/37 43/1/37
f 149/1/67 40/1/67 148/1/67
f 150/1/38 43/1/38 41/1/38
f 149/1/39 42/1/39 44/1/39
f 151/1/40 41/1/40 45/1/40
f 151/1/41 42/1/41 150/1/41
f 152/1/42 45/1/42 47/1/42
f 152/1/43 46/1/43 151/1/43
f 152/1/44 35/1/44 145/1/44
f 152/1/45 36/1/45 48/1/45
f 154/1/46 51/1/46 55/1/46
f 154/1/47 52/1/47 153/1/47
f 155/1/48 55/1/48 53/1/48
f 154/1/49 54/1/49 56/1/49
f 155/1/50 49/1/50 156/1/50
f 155/1/20 50/1/20 54/1/20
f 157/1/51 49/1/51 59/1/51
f 157/1/52 50/1/52 156/1/52
f 158/1/53 59/1/53 57/1/53
f 157/1/24 58/1/24 60/1/24
f 159/1/73 57/1/73 61/1/73
f 159/1/56 58/1/56 158/1/56
f 160/1/57 61/1/57 63/1/57
f 160/1/28 62/1/28 159/1/28
f 160/1/58 51/1/58 153/1/58
f 160/1/59 52/1/59 64/1/59
f 161/1/33 69/1/33 162/1/33
f 162/1/4 68/1/4 161/1/4
f 163/1/34 69/1/34 65/1/34
f 162/1/6 66/1/6 70/1/6
f 163/1/200 71/1/200 164/1/200
f 163/1/36 72/1/36 66/1/36
f 164/1/37 75/1/37 165/1/37
f 165/1/10 72/1/10 164/1/10
f 165/1/38 73/1/38 166/1/38
f 165/1/39 74/1/39 76/1/39
f 167/1/192 73/1/192 77/1/192
f 166/1/41 78/1/41 74/1/41
f 168/1/42 77/1/42 79/1/42
f 168/1/43 78/1/43 167/1/43
f 161/1/44 79/1/44 67/1/44
f 168/1/45 68/1/45 80/1/45
f 170/1/31 83/1/31 87/1/31
f 170/1/47 84/1/47 169/1/47
f 170/1/48 85/1/48 171/1/48
f 170/1/49 86/1/49 88/1/49
f 171/1/50 81/1/50 172/1/50
f 171/1/20 82/1/20 86/1/20
f 173/1/51 81/1/51 91/1/51
f 173/1/52 82/1/52 172/1/52
f 173/1/53 89/1/53 174/1/53
f 173/1/24 90/1/24 92/1/24
f 175/1/73 89/1/73 93/1/73
f 175/1/26 90/1/26 174/1/26
f 175/1/57 95/1/57 176/1/57
f 176/1/28 94/1/28 175/1/28
f 169/1/58 95/1/58 83/1/58
f 176/1/59 84/1/59 96/1/59
f 177/1/201 103/1/201 178/1/201
f 178/1/43 98/1/43 177/1/43
f 179/1/60 103/1/60 99/1/60
f 178/1/45 100/1/45 104/1/45
f 180/1/62 99/1/62 101/1/62
f 179/1/63 102/1/63 100/1/63
f 180/1/202 107/1/202 181/1/202
f 180/1/65 108/1/65 102/1/65
f 181/1/35 105/1/35 182/1/35
f 181/1/8 106/1/8 108/1/8
f 183/1/37 105/1/37 109/1/37
f 183/1/67 106/1/67 182/1/67
f 183/1/203 111/1/203 184/1/203
f 184/1/12 110/1/12 183/1/12
f 177/1/68 111/1/68 97/1/68
f 184/1/14 98/1/14 112/1/14
f 186/1/69 113/1/69 119/1/69
f 186/1/70 114/1/70 185/1/70
f 186/1/51 115/1/51 187/1/51
f 186/1/22 116/1/22 120/1/22
f 188/1/53 115/1/53 117/1/53
f 187/1/54 118/1/54 116/1/54
f 189/1/73 117/1/73 123/1/73
f 189/1/26 118/1/26 188/1/26
f 190/1/204 123/1/204 121/1/204
f 190/1/75 124/1/75 189/1/75
f 191/1/29 121/1/29 125/1/29
f 191/1/30 122/1/30 190/1/30
f 192/1/199 125/1/199 127/1/199
f 192/1/32 126/1/32 191/1/32
f 185/1/205 127/1/205 113/1/205
f 192/1/49 114/1/49 128/1/49
f 194/1/206 31/1/206 5/1/206
f 193/1/79 6/1/79 32/1/79
f 195/1/80 5/1/80 3/1/80
f 195/1/81 6/1/81 194/1/81
f 196/1/139 3/1/139 29/1/139
f 195/1/83 30/1/83 4/1/83
f 196/1/84 31/1/84 193/1/84
f 196/1/85 32/1/85 30/1/85
f 198/1/86 47/1/86 55/1/86
f 197/1/87 56/1/87 48/1/87
f 199/1/88 55/1/88 51/1/88
f 198/1/89 52/1/89 56/1/89
f 200/1/207 51/1/207 35/1/207
f 199/1/91 36/1/91 52/1/91
f 200/1/92 47/1/92 197/1/92
f 197/1/93 36/1/93 200/1/93
f 202/1/208 61/1/208 33/1/208
f 201/1/95 34/1/95 62/1/95
f 203/1/96 33/1/96 37/1/96
f 202/1/97 38/1/97 34/1/97
f 204/1/98 37/1/98 63/1/98
f 203/1/99 64/1/99 38/1/99
f 204/1/100 61/1/100 201/1/100
f 204/1/101 62/1/101 64/1/101
f 206/1/102 15/1/102 23/1/102
f 205/1/124 24/1/124 16/1/124
f 207/1/104 23/1/104 17/1/104
f 207/1/125 24/1/125 206/1/125
f 208/1/106 17/1/106 13/1/106
f 207/1/107 14/1/107 18/1/107
f 208/1/108 15/1/108 205/1/108
f 208/1/209 16/1/209 14/1/209
f 210/1/110 9/1/110 19/1/110
f 209/1/159 20/1/159 10/1/159
f 210/1/112 23/1/112 211/1/112
f 211/1/160 20/1/160 210/1/160
f 212/1/114 23/1/114 15/1/114
f 211/1/115 16/1/115 24/1/115
f 209/1/116 15/1/116 9/1/116
f 212/1/210 10/1/210 16/1/210
f 214/1/135 25/1/135 1/1/135
f 213/1/95 2/1/95 26/1/95
f 215/1/96 1/1/96 5/1/96
f 214/1/211 6/1/211 2/1/211
f 216/1/98 5/1/98 31/1/98
f 215/1/212 32/1/212 6/1/212
f 213/1/100 31/1/100 25/1/100
f 216/1/120 26/1/120 32/1/120
f 218/1/213 103/1/213 127/1/213
f 217/1/87 128/1/87 104/1/87
f 219/1/88 127/1/88 125/1/88
f 218/1/122 126/1/122 128/1/122
f 220/1/214 125/1/214 99/1/214
f 219/1/91 100/1/91 126/1/91
f 217/1/92 99/1/92 103/1/92
f 217/1/123 100/1/123 220/1/123
f 222/1/102 73/1/102 81/1/102
f 221/1/124 82/1/124 74/1/124
f 222/1/215 85/1/215 223/1/215
f 223/1/125 82/1/125 222/1/125
f 224/1/106 85/1/106 77/1/106
f 223/1/107 78/1/107 86/1/107
f 221/1/108 77/1/108 73/1/108
f 224/1/109 74/1/109 78/1/109
f 226/1/216 59/1/216 43/1/216
f 225/1/128 44/1/128 60/1/128
f 227/1/129 43/1/129 39/1/129
f 226/1/130 40/1/130 44/1/130
f 228/1/131 39/1/131 57/1/131
f 227/1/132 58/1/132 40/1/132
f 225/1/133 57/1/133 59/1/133
f 225/1/134 58/1/134 228/1/134
f 230/1/208 93/1/208 65/1/208
f 229/1/95 66/1/95 94/1/95
f 230/1/96 69/1/96 231/1/96
f 231/1/97 66/1/97 230/1/97
f 232/1/98 69/1/98 95/1/98
f 231/1/99 96/1/99 70/1/99
f 229/1/217 95/1/217 93/1/217
f 232/1/101 94/1/101 96/1/101
f 234/1/102 41/1/102 49/1/102
f 233/1/124 50/1/124 42/1/124
f 234/1/104 53/1/104 235/1/104
f 235/1/125 50/1/125 234/1/125
f 236/1/106 53/1/106 45/1/106
f 235/1/107 46/1/107 54/1/107
f 233/1/108 45/1/108 41/1/108
f 236/1/109 42/1/109 46/1/109
f 238/1/137 95/1/137 69/1/137
f 237/1/79 70/1/79 96/1/79
f 239/1/80 69/1/80 67/1/80
f 238/1/138 68/1/138 70/1/138
f 240/1/82 67/1/82 83/1/82
f 239/1/83 84/1/83 68/1/83
f 240/1/84 95/1/84 237/1/84
f 237/1/140 84/1/140 240/1/140
f 242/1/86 79/1/86 87/1/86
f 241/1/87 88/1/87 80/1/87
f 243/1/88 87/1/88 83/1/88
f 242/1/89 84/1/89 88/1/89
f 244/1/214 83/1/214 67/1/214
f 243/1/91 68/1/91 84/1/91
f 244/1/92 79/1/92 241/1/92
f 241/1/93 68/1/93 244/1/93
f 246/1/142 57/1/142 39/1/142
f 245/1/143 40/1/143 58/1/143
f 246/1/144 33/1/144 247/1/144
f 247/1/145 40/1/145 246/1/145
f 248/1/185 33/1/185 61/1/185
f 247/1/147 62/1/147 34/1/147
f 245/1/148 61/1/148 57/1/148
f 248/1/149 58/1/149 62/1/149
f 250/1/137 63/1/137 37/1/137
f 249/1/79 38/1/79 64/1/79
f 251/1/80 37/1/80 35/1/80
f 250/1/138 36/1/138 38/1/138
f 252/1/82 35/1/82 51/1/82
f 251/1/83 52/1/83 36/1/83
f 252/1/84 63/1/84 249/1/84
f 249/1/140 52/1/140 252/1/140
f 254/1/218 13/1/218 17/1/218
f 253/1/152 18/1/152 14/1/152
f 255/1/219 17/1/219 21/1/219
f 254/1/154 22/1/154 18/1/154
f 256/1/220 21/1/220 7/1/220
f 255/1/177 8/1/177 22/1/177
f 256/1/173 13/1/173 253/1/173
f 253/1/158 8/1/158 256/1/158
f 258/1/110 75/1/110 91/1/110
f 257/1/159 92/1/159 76/1/159
f 259/1/112 91/1/112 81/1/112
f 258/1/160 82/1/160 92/1/160
f 260/1/114 81/1/114 73/1/114
f 259/1/115 74/1/115 82/1/115
f 257/1/221 73/1/221 75/1/221
f 257/1/117 74/1/117 260/1/117
f 262/1/102 111/1/102 119/1/102
f 261/1/103 120/1/103 112/1/103
f 263/1/104 119/1/104 113/1/104
f 262/1/222 114/1/222 120/1/222
f 264/1/106 113/1/106 97/1/106
f 263/1/107 98/1/107 114/1/107
f 264/1/108 111/1/108 261/1/108
f 261/1/209 98/1/209 264/1/209
f 266/1/86 7/1/86 21/1/86
f 265/1/87 22/1/87 8/1/87
f 266/1/88 29/1/88 267/1/88
f 267/1/122 22/1/122 266/1/122
f 268/1/90 29/1/90 3/1/90
f 267/1/223 4/1/223 30/1/223
f 265/1/92 3/1/92 7/1/92
f 268/1/123 8/1/123 4/1/123
f 270/1/142 27/1/142 11/1/142
f 269/1/187 12/1/187 28/1/187
f 271/1/144 11/1/144 1/1/144
f 270/1/224 2/1/224 12/1/224
f 272/1/185 1/1/185 25/1/185
f 271/1/147 26/1/147 2/1/147
f 272/1/148 27/1/148 269/1/148
f 269/1/225 26/1/225 272/1/225
f 274/1/127 91/1/127 75/1/127
f 273/1/128 76/1/128 92/1/128
f 274/1/129 71/1/129 275/1/129
f 275/1/130 76/1/130 274/1/130
f 276/1/131 71/1/131 89/1/131
f 275/1/132 90/1/132 72/1/132
f 273/1/133 89/1/133 91/1/133
f 276/1/134 92/1/134 90/1/134
f 278/1/208 123/1/208 107/1/208
f 277/1/95 108/1/95 124/1/95
f 279/1/226 107/1/226 101/1/226
f 278/1/97 102/1/97 108/1/97
f 280/1/227 101/1/227 121/1/227
f 279/1/119 122/1/119 102/1/119
f 280/1/100 123/1/100 277/1/100
f 277/1/228 122/1/228 280/1/228
f 282/1/218 77/1/218 85/1/218
f 281/1/152 86/1/152 78/1/152
f 282/1/153 87/1/153 283/1/153
f 283/1/154 86/1/154 282/1/154
f 284/1/155 87/1/155 79/1/155
f 283/1/156 80/1/156 88/1/156
f 281/1/229 79/1/229 77/1/229
f 284/1/158 78/1/158 80/1/158
f 286/1/151 97/1/151 113/1/151
f 285/1/152 114/1/152 98/1/152
f 286/1/153 127/1/153 287/1/153
f 287/1/176 114/1/176 286/1/176
f 288/1/155 127/1/155 103/1/155
f 287/1/230 104/1/230 128/1/230
f 285/1/173 103/1/173 97/1/173
f 288/1/178 98/1/178 104/1/178
f 290/1/218 45/1/218 53/1/218
f 289/1/152 54/1/152 46/1/152
f 291/1/153 53/1/153 55/1/153
f 290/1/154 56/1/154 54/1/154
f 292/1/155 55/1/155 47/1/155
f 291/1/156 48/1/156 56/1/156
f 292/1/173 45/1/173 289/1/173
f 292/1/158 46/1/158 48/1/158
f 294/1/231 109/1/231 115/1/231
f 293/1/159 116/1/159 110/1/159
f 295/1/112 115/1/112 119/1/112
f 294/1/160 120/1/160 116/1/160
f 296/1/232 119/1/232 111/1/232
f 295/1/115 112/1/115 120/1/115
f 296/1/116 109/1/116 293/1/116
f 296/1/117 110/1/117 112/1/117
f 298/1/110 43/1/110 59/1/110
f 297/1/159 60/1/159 44/1/159
f 299/1/112 59/1/112 49/1/112
f 298/1/160 50/1/160 60/1/160
f 300/1/114 49/1/114 41/1/114
f 299/1/115 42/1/115 50/1/115
f 300/1/116 43/1/116 297/1/116
f 297/1/117 42/1/117 300/1/117
f 302/1/233 19/1/233 9/1/233
f 301/1/128 10/1/128 20/1/128
f 302/1/129 11/1/129 303/1/129
f 303/1/181 10/1/181 302/1/181
f 304/1/234 11/1/234 27/1/234
f 303/1/132 28/1/132 12/1/132
f 301/1/133 27/1/133 19/1/133
f 304/1/183 20/1/183 28/1/183
f 306/1/137 121/1/137 101/1/137
f 305/1/79 102/1/79 122/1/79
f 306/1/80 99/1/80 307/1/80
f 306/1/81 100/1/81 102/1/81
f 308/1/82 99/1/82 125/1/82
f 307/1/235 126/1/235 100/1/235
f 305/1/84 125/1/84 121/1/84
f 305/1/85 126/1/85 308/1/85
f 310/1/142 89/1/142 71/1/142
f 309/1/143 72/1/143 90/1/143
f 311/1/236 71/1/236 65/1/236
f 311/1/145 72/1/145 310/1/145
f 312/1/185 65/1/185 93/1/185
f 311/1/147 94/1/147 66/1/147
f 312/1/148 89/1/148 309/1/148
f 312/1/149 90/1/149 94/1/149
f 314/1/142 117/1/142 105/1/142
f 313/1/143 106/1/143 118/1/143
f 315/1/144 105/1/144 107/1/144
f 314/1/145 108/1/145 106/1/145
f 316/1/185 107/1/185 123/1/185
f 315/1/147 124/1/147 108/1/147
f 316/1/148 117/1/148 313/1/148
f 316/1/225 118/1/225 124/1/225
f 318/1/127 115/1/127 109/1/127
f 317/1/237 110/1/237 116/1/237
f 319/1/129 109/1/129 105/1/129
f 318/1/130 106/1/130 110/1/130
f 320/1/131 105/1/131 117/1/131
f 319/1/132 118/1/132 106/1/132
f 320/1/238 115/1/238 317/1/238
f 320/1/134 116/1/134 118/1/134
