# Blender 5.2.0 LTS
# www.blender.org
mtllib glass jump pad glowy.mtl
o glowy
v 2.300000 -0.085128 2.300000
v 2.302887 -0.088015 2.302887
v 2.300000 -0.085128 -2.300000
v 2.302887 -0.088015 -2.302887
v 2.300000 0.085128 -2.300000
v 2.302887 0.088015 -2.302887
v 2.300000 0.085128 2.300000
v 2.302887 0.088015 2.302887
v -2.300000 -0.085128 2.300000
v -2.302887 -0.088015 2.302887
v -2.300000 0.085128 2.300000
v -2.302887 0.088015 2.302887
v -2.300000 -0.085128 -2.300000
v -2.302887 -0.088015 -2.302887
v -2.300000 0.085128 -2.300000
v -2.302887 0.088015 -2.302887
v -2.298943 0.086571 -2.298943
v -2.298943 0.086572 2.298943
v 2.298943 0.086572 2.298943
v 2.298943 0.086571 -2.298943
v -2.301443 -0.084072 -2.298943
v -2.301443 -0.084071 2.298943
v -2.301443 0.084072 2.298943
v -2.301443 0.084071 -2.298943
v 2.301443 0.084071 -2.298943
v 2.301443 0.084072 2.298943
v 2.301443 -0.084071 2.298943
v 2.301443 -0.084072 -2.298943
v 2.298943 -0.084072 -2.301443
v -2.298943 -0.084072 -2.301443
v -2.298943 0.084071 -2.301443
v 2.298943 0.084071 -2.301443
v 2.298943 0.084072 2.301443
v -2.298943 0.084072 2.301443
v -2.298943 -0.084071 2.301443
v 2.298943 -0.084071 2.301443
v 2.298943 -0.086572 -2.298943
v 2.298943 -0.086571 2.298943
v -2.298943 -0.086571 2.298943
v -2.298943 -0.086572 -2.298943
vn -0.6242 -0.4699 0.6242
vn -0.6242 -0.4699 -0.6242
vn -0.5773 0.5773 -0.5774
vn 0.5773 -0.5774 -0.5773
vn 0.6242 -0.4699 0.6242
vn -0.5773 0.5774 0.5773
vn -0.5774 -0.5773 -0.5774
vn 0.6242 -0.4699 -0.6242
vn 0.5773 0.5773 0.5774
vn -0.5773 -0.5774 0.5773
vn 0.5773 0.5774 -0.5773
vn 0.5774 -0.5773 0.5774
vn 0.4699 -0.6241 0.6242
vn 0.4700 -0.6242 -0.6241
vn -0.5773 -0.5774 -0.5773
vn 0.5774 0.5773 -0.5774
vn 0.4700 0.6242 0.6241
vn -0.5773 -0.5773 0.5774
vn 0.4699 0.6241 -0.6242
vn 0.5773 0.5774 0.5773
vn -0.4699 0.6241 0.6242
vn -0.4700 0.6242 -0.6241
vn -0.4700 -0.6242 0.6241
vn -0.5773 0.5774 -0.5773
vn -0.4699 -0.6241 -0.6242
vn 0.5773 -0.5774 0.5773
vn -0.5774 0.5773 0.5774
vn 0.5773 -0.5773 -0.5774
vn -0.6242 -0.6242 0.4699
vn 0.6241 -0.6242 0.4699
vn -0.6241 0.6242 0.4699
vn 0.6242 0.6242 0.4699
vn -0.6242 0.6242 -0.4699
vn 0.6241 0.6242 -0.4699
vn -0.6241 -0.6242 -0.4699
vn 0.6242 -0.6242 -0.4699
vn 0.6242 0.4699 0.6242
vn 0.6242 0.4699 -0.6242
vn -0.6242 0.4699 0.6242
vn -0.6242 0.4699 -0.6242
vt 0.000000 0.000000
s 1
f 18/1/1 17/1/2 15/1/3
f 17/1/2 18/1/1 12/1/4
f 19/1/5 18/1/1 11/1/6
f 18/1/1 19/1/5 8/1/7
f 20/1/8 19/1/5 7/1/9
f 19/1/5 20/1/8 6/1/10
f 17/1/2 20/1/8 5/1/11
f 20/1/8 17/1/2 16/1/12
f 22/1/13 21/1/14 13/1/15
f 21/1/14 22/1/13 10/1/16
f 23/1/17 22/1/13 9/1/18
f 22/1/13 23/1/17 12/1/4
f 24/1/19 23/1/17 11/1/6
f 23/1/17 24/1/19 16/1/12
f 21/1/14 24/1/19 15/1/3
f 24/1/19 21/1/14 14/1/20
f 26/1/21 25/1/22 5/1/11
f 25/1/22 26/1/21 8/1/7
f 27/1/23 26/1/21 7/1/9
f 26/1/21 27/1/23 2/1/24
f 28/1/25 27/1/23 1/1/26
f 27/1/23 28/1/25 4/1/27
f 25/1/22 28/1/25 3/1/28
f 28/1/25 25/1/22 6/1/10
f 30/1/29 29/1/30 3/1/28
f 29/1/30 30/1/29 14/1/20
f 31/1/31 30/1/29 13/1/15
f 30/1/29 31/1/31 16/1/12
f 32/1/32 31/1/31 15/1/3
f 31/1/31 32/1/32 6/1/10
f 29/1/30 32/1/32 5/1/11
f 32/1/32 29/1/30 4/1/27
f 34/1/33 33/1/34 7/1/9
f 33/1/34 34/1/33 12/1/4
f 35/1/35 34/1/33 11/1/6
f 34/1/33 35/1/35 10/1/16
f 36/1/36 35/1/35 9/1/18
f 35/1/35 36/1/36 2/1/24
f 33/1/34 36/1/36 1/1/26
f 36/1/36 33/1/34 8/1/7
f 38/1/37 37/1/38 3/1/28
f 37/1/38 38/1/37 2/1/24
f 39/1/39 38/1/37 1/1/26
f 38/1/37 39/1/39 10/1/16
f 40/1/40 39/1/39 9/1/18
f 39/1/39 40/1/40 14/1/20
f 37/1/38 40/1/40 13/1/15
f 40/1/40 37/1/38 4/1/27
f 18/1/1 15/1/3 11/1/6
f 17/1/2 12/1/4 16/1/12
f 19/1/5 11/1/6 7/1/9
f 18/1/1 8/1/7 12/1/4
f 20/1/8 7/1/9 5/1/11
f 19/1/5 6/1/10 8/1/7
f 17/1/2 5/1/11 15/1/3
f 20/1/8 16/1/12 6/1/10
f 22/1/13 13/1/15 9/1/18
f 21/1/14 10/1/16 14/1/20
f 23/1/17 9/1/18 11/1/6
f 22/1/13 12/1/4 10/1/16
f 24/1/19 11/1/6 15/1/3
f 23/1/17 16/1/12 12/1/4
f 21/1/14 15/1/3 13/1/15
f 24/1/19 14/1/20 16/1/12
f 26/1/21 5/1/11 7/1/9
f 25/1/22 8/1/7 6/1/10
f 27/1/23 7/1/9 1/1/26
f 26/1/21 2/1/24 8/1/7
f 28/1/25 1/1/26 3/1/28
f 27/1/23 4/1/27 2/1/24
f 25/1/22 3/1/28 5/1/11
f 28/1/25 6/1/10 4/1/27
f 30/1/29 3/1/28 13/1/15
f 29/1/30 14/1/20 4/1/27
f 31/1/31 13/1/15 15/1/3
f 30/1/29 16/1/12 14/1/20
f 32/1/32 15/1/3 5/1/11
f 31/1/31 6/1/10 16/1/12
f 29/1/30 5/1/11 3/1/28
f 32/1/32 4/1/27 6/1/10
f 34/1/33 7/1/9 11/1/6
f 33/1/34 12/1/4 8/1/7
f 35/1/35 11/1/6 9/1/18
f 34/1/33 10/1/16 12/1/4
f 36/1/36 9/1/18 1/1/26
f 35/1/35 2/1/24 10/1/16
f 33/1/34 1/1/26 7/1/9
f 36/1/36 8/1/7 2/1/24
f 38/1/37 3/1/28 1/1/26
f 37/1/38 2/1/24 4/1/27
f 39/1/39 1/1/26 9/1/18
f 38/1/37 10/1/16 2/1/24
f 40/1/40 9/1/18 13/1/15
f 39/1/39 14/1/20 10/1/16
f 37/1/38 13/1/15 3/1/28
f 40/1/40 4/1/27 14/1/20
