# Blender 5.2.0 LTS
# www.blender.org
mtllib glass shotgun pump.mtl
o RenderMesh_13988956869
v 0.786763 -0.135673 -0.086916
v 0.787969 -0.136690 -0.088146
v 0.786763 -0.135673 0.086915
v 0.787969 -0.136690 0.088145
v 0.786762 -0.182689 0.000000
v 0.787892 -0.184340 0.000000
v 0.786763 -0.022165 0.122917
v 0.788023 -0.022180 0.124470
v 0.786763 -0.022165 -0.122917
v 0.788023 -0.022180 -0.124470
v 0.786762 0.111625 -0.083379
v 0.788289 0.111991 -0.084617
v 0.786762 0.111625 0.083378
v 0.788289 0.111991 0.084616
v -0.786763 0.179032 0.065382
v -0.787918 0.180061 0.064114
v -0.786763 0.041359 0.079521
v -0.788141 0.041323 0.078072
v -0.786763 0.045016 0.114292
v -0.788141 0.045052 0.115741
v -0.786763 0.182689 0.100153
v -0.787917 0.183957 0.101182
v -0.786763 -0.000674 0.111883
v -0.787935 -0.001790 0.113058
v -0.786763 -0.004331 0.077111
v -0.787902 -0.005523 0.075979
v -0.358722 0.179032 0.065382
v -0.357567 0.180061 0.064114
v -0.358722 0.182689 0.100153
v -0.357568 0.183957 0.101182
v -0.358722 0.045016 0.114292
v -0.357344 0.045052 0.115741
v -0.358722 -0.000674 0.111883
v -0.357550 -0.001790 0.113058
v 0.229402 -0.135673 0.086915
v 0.228196 -0.136690 0.088145
v 0.229402 -0.022165 0.122917
v 0.228142 -0.022180 0.124470
v 0.229402 0.111625 0.083378
v 0.227875 0.111991 0.084616
v 0.229402 -0.182689 0.000000
v 0.228272 -0.184340 0.000000
v 0.229402 -0.135673 -0.086916
v 0.228196 -0.136690 -0.088146
v 0.229402 -0.022165 -0.122917
v 0.228142 -0.022180 -0.124470
v 0.229402 0.111625 -0.083379
v 0.227875 0.111991 -0.084617
v -0.358722 -0.004331 0.077111
v -0.357583 -0.005523 0.075979
v -0.358722 0.041359 0.079521
v -0.357344 0.041323 0.078072
v 0.228799 -0.135494 0.086699
v 0.228772 -0.022162 0.122648
v 0.228638 0.110808 0.083250
v 0.228638 0.110808 -0.083251
v 0.228772 -0.022162 -0.122648
v 0.228799 -0.135494 -0.086700
v 0.228837 -0.182377 0.000000
v -0.358136 -0.000327 0.111517
v -0.358153 -0.003810 0.077605
v -0.358033 0.041366 0.079799
v -0.358145 0.178656 0.065845
v -0.358145 0.182224 0.099775
v -0.358033 0.045009 0.114014
v -0.787452 0.041366 0.079799
v -0.787333 -0.003810 0.077605
v -0.787349 -0.000327 0.111517
v -0.787452 0.045009 0.114014
v -0.787340 0.182224 0.099775
v -0.787341 0.178656 0.065845
v 0.787366 -0.135494 -0.086700
v 0.787393 -0.022162 -0.122648
v 0.787526 0.110808 -0.083251
v 0.787526 0.110808 0.083250
v 0.787393 -0.022162 0.122648
v 0.787366 -0.135494 0.086699
v 0.787327 -0.182377 0.000000
v -0.359136 -0.001336 0.111476
v -0.786349 -0.001336 0.111476
v -0.786333 -0.004823 0.077540
v -0.359152 -0.004823 0.077540
v -0.786349 -0.000233 0.112523
v -0.359136 -0.000233 0.112523
v -0.359033 0.044035 0.114964
v -0.786452 0.044035 0.114964
v 0.786393 -0.023126 0.123391
v 0.229772 -0.023126 0.123391
v 0.229799 -0.135228 0.087832
v 0.786366 -0.135228 0.087832
v -0.786340 0.183218 0.099673
v -0.359145 0.183218 0.099673
v -0.359145 0.179651 0.065743
v -0.786341 0.179651 0.065743
v 0.229799 -0.136657 -0.086651
v 0.786366 -0.136657 -0.086651
v 0.786327 -0.183038 -0.000880
v 0.229837 -0.183038 -0.000880
v 0.229772 -0.021214 -0.123410
v 0.229638 0.110849 -0.084282
v 0.786526 0.110849 -0.084282
v 0.786393 -0.021214 -0.123410
v -0.786452 0.046029 0.114914
v -0.359033 0.046029 0.114914
v -0.359145 0.182328 0.100770
v -0.786340 0.182328 0.100770
v 0.229799 -0.136657 0.086650
v 0.229837 -0.183038 0.000880
v 0.786327 -0.183038 0.000880
v 0.786366 -0.136657 0.086650
v 0.786526 0.110849 0.084281
v 0.229638 0.110849 0.084281
v 0.229772 -0.021214 0.123410
v 0.786393 -0.021214 0.123410
v 0.229772 -0.023126 -0.123391
v 0.786393 -0.023126 -0.123391
v 0.786366 -0.135228 -0.087833
v 0.229799 -0.135228 -0.087833
v -0.359145 0.178552 0.064850
v -0.359033 0.042336 0.078694
v -0.786452 0.042336 0.078694
v -0.786341 0.178552 0.064850
v -0.359033 0.040342 0.078744
v -0.359152 -0.003929 0.076598
v -0.786333 -0.003929 0.076598
v -0.786452 0.040342 0.078744
vn -0.3871 -0.2788 0.8789
vn 0.9427 -0.1006 0.3182
vn -0.4020 0.2596 0.8781
vn 0.9249 0.1094 0.3642
vn -0.7305 0.6829 -0.0000
vn 0.8402 0.5424 -0.0000
vn -0.4020 0.2596 -0.8781
vn 0.9249 0.1094 -0.3642
vn -0.3871 -0.2788 -0.8789
vn 0.9427 -0.1006 -0.3181
vn -0.4162 -0.7999 -0.4325
vn 0.9477 -0.2806 -0.1523
vn -0.4162 -0.7999 0.4325
vn 0.9476 -0.2806 0.1523
vn 0.5927 -0.8012 0.0831
vn -0.9388 -0.3425 0.0355
vn 0.5096 0.0429 -0.8593
vn -0.9325 0.0204 -0.3607
vn 0.4836 -0.0888 -0.8708
vn -0.9335 -0.0372 -0.3566
vn 0.5907 0.8024 -0.0844
vn -0.9391 0.3419 -0.0359
vn 0.4844 0.0900 0.8702
vn -0.9335 0.0361 0.3567
vn 0.4606 -0.0483 0.8863
vn -0.9340 -0.0169 0.3570
vn -0.5095 0.0429 -0.8594
vn 0.9325 0.0204 -0.3606
vn -0.5927 -0.8011 0.0831
vn -0.5927 -0.8011 0.0832
vn 0.9389 -0.3424 0.0355
vn -0.4607 -0.0483 0.8862
vn 0.9340 -0.0169 0.3570
vn -0.4843 0.0900 0.8703
vn 0.9335 0.0361 0.3567
vn -0.5908 0.8024 -0.0844
vn -0.5907 0.8025 -0.0844
vn 0.9391 0.3418 -0.0359
vn -0.4836 -0.0888 -0.8708
vn 0.9335 -0.0372 -0.3566
vn 0.3871 -0.2789 -0.8788
vn -0.9427 -0.1006 -0.3182
vn 0.4020 0.2596 -0.8781
vn -0.9249 0.1094 -0.3642
vn 0.7306 0.6828 -0.0000
vn -0.8401 0.5424 -0.0000
vn 0.4020 0.2597 0.8781
vn -0.9249 0.1094 0.3642
vn 0.3871 -0.2789 0.8789
vn -0.9427 -0.1006 0.3181
vn 0.4161 -0.7999 0.4325
vn -0.9477 -0.2805 0.1523
vn 0.4162 -0.7998 -0.4325
vn -0.9476 -0.2807 -0.1523
vn -0.0000 -0.5234 0.8521
vn -0.0000 0.9613 0.2754
vn -0.8061 -0.5886 0.0610
vn -0.3425 0.9347 -0.0953
vn -0.0000 -0.6572 -0.7537
vn -0.0000 0.9122 -0.4097
vn 0.8060 -0.5887 0.0610
vn 0.3425 0.9347 -0.0953
vn -0.0000 -0.8237 0.5670
vn -0.0000 -0.3251 -0.9457
vn 0.8796 -0.0266 0.4750
vn 0.3786 0.0507 -0.9242
vn -0.0000 0.5652 0.8249
vn -0.0000 0.6073 -0.7944
vn -0.8796 -0.0266 0.4749
vn -0.3786 0.0507 -0.9242
vn -0.0000 0.4427 0.8967
vn -0.0000 0.7521 -0.6590
vn -0.8881 -0.1391 0.4381
vn -0.4169 0.2747 -0.8664
vn -0.4169 0.2747 -0.8665
vn -0.0000 -0.8998 0.4363
vn -0.0000 -0.2091 -0.9779
vn 0.8881 -0.1391 0.4381
vn 0.4169 0.2747 -0.8665
vn -0.0000 0.6716 0.7409
vn -0.0000 -0.8982 0.4396
vn 0.8065 0.5880 -0.0618
vn 0.3432 -0.9341 0.0982
vn -0.0000 0.5033 -0.8641
vn -0.0000 -0.9697 -0.2441
vn -0.8069 0.5874 -0.0618
vn -0.3435 -0.9340 0.0982
vn -0.0000 -0.2597 -0.9657
vn -0.0000 0.9998 -0.0219
vn 0.8696 -0.4344 -0.2348
vn 0.4199 0.7982 0.4318
vn -0.0000 -0.9293 0.3692
vn -0.0000 0.5601 0.8284
vn -0.8695 -0.4345 -0.2348
vn -0.4199 0.7983 0.4319
vn -0.4199 0.7982 0.4318
vn -0.9164 0.1132 -0.3840
vn -0.3786 -0.2638 0.8872
vn -0.0000 0.7582 -0.6520
vn -0.0000 0.2820 0.9594
vn 0.9164 0.1132 -0.3839
vn 0.9164 0.1131 -0.3839
vn 0.3785 -0.2638 0.8872
vn -0.0000 -0.4604 -0.8877
vn -0.0000 -0.7389 0.6738
vn -0.0000 -0.5236 0.8520
vn -0.0000 -0.6460 -0.7633
vn 0.8709 0.0508 0.4889
vn 0.8709 0.0508 0.4888
vn 0.3698 -0.0959 -0.9242
vn -0.0000 0.8632 0.5049
vn -0.0000 0.2455 -0.9694
vn -0.8708 0.0508 0.4890
vn -0.3698 -0.0959 -0.9242
vn -0.8695 -0.4345 0.2348
vn -0.4202 0.7981 -0.4318
vn -0.4203 0.7981 -0.4318
vn -0.0000 -0.9293 -0.3693
vn -0.0000 0.5601 -0.8285
vn 0.8696 -0.4345 0.2348
vn 0.4198 0.7983 -0.4319
vn 0.4197 0.7983 -0.4319
vn -0.0000 -0.2597 0.9657
vn -0.0000 0.9998 0.0219
vn -0.0000 0.7582 0.6520
vn -0.0000 0.2820 -0.9594
vn -0.9164 0.1132 0.3840
vn -0.9164 0.1131 0.3840
vn -0.3786 -0.2638 -0.8872
vn -0.0000 -0.4604 0.8877
vn -0.0000 -0.7389 -0.6738
vn 0.9164 0.1131 0.3839
vn 0.9164 0.1132 0.3839
vn 0.3786 -0.2638 -0.8872
vn -0.0000 0.4427 -0.8967
vn -0.0000 0.7521 0.6590
vn 0.8881 -0.1390 -0.4382
vn 0.4169 0.2747 0.8665
vn -0.0000 -0.8998 -0.4363
vn -0.0000 -0.2091 0.9779
vn -0.8881 -0.1391 -0.4381
vn -0.4168 0.2747 0.8665
vn 0.8711 -0.0496 -0.4886
vn 0.3701 0.0939 0.9242
vn -0.8712 -0.0496 -0.4884
vn -0.3701 0.0939 0.9242
vn -0.0000 0.7421 -0.6703
vn -0.0000 0.4383 0.8988
vn 0.8618 0.0245 -0.5067
vn 0.3605 -0.0448 0.9317
vn -0.0000 -0.7869 -0.6171
vn -0.0000 -0.3616 0.9323
vn -0.8617 0.0245 -0.5068
vn -0.3605 -0.0448 0.9317
vn -0.0000 0.6074 -0.7944
vn 0.9427 -0.1006 0.3181
vn -0.7306 0.6828 -0.0000
vn 0.8401 0.5424 -0.0000
vn 0.9427 -0.1006 -0.3182
vn -0.4162 -0.7998 0.4325
vn 0.9477 -0.2806 0.1523
vn 0.5927 -0.8011 0.0831
vn -0.9389 -0.3425 0.0355
vn 0.5095 0.0429 -0.8594
vn 0.5095 0.0449 -0.8593
vn -0.9325 0.0204 -0.3606
vn 0.4837 -0.0888 -0.8707
vn 0.5906 0.8025 -0.0844
vn -0.9391 0.3418 -0.0359
vn 0.4843 0.0900 0.8702
vn 0.4843 0.0900 0.8703
vn 0.4607 -0.0483 0.8862
vn -0.9339 -0.0169 0.3570
vn -0.5096 0.0429 -0.8593
vn 0.9325 0.0204 -0.3607
vn -0.5926 -0.8012 0.0831
vn 0.9388 -0.3425 0.0355
vn -0.4606 -0.0483 0.8863
vn -0.4844 0.0900 0.8702
vn -0.5905 0.8026 -0.0844
vn 0.9390 0.3419 -0.0359
vn -0.4835 -0.0888 -0.8708
vn 0.9335 -0.0372 -0.3565
vn 0.3871 -0.2788 -0.8789
vn -0.9427 -0.1006 -0.3181
vn -0.8402 0.5423 -0.0000
vn 0.4020 0.2596 0.8781
vn 0.3871 -0.2788 0.8789
vn -0.9427 -0.1006 0.3182
vn 0.4161 -0.7999 0.4324
vn -0.9477 -0.2806 0.1524
vn 0.4161 -0.7999 -0.4325
vn -0.8060 -0.5887 0.0610
vn 0.8061 -0.5886 0.0610
vn 0.8796 -0.0266 0.4749
vn -0.8796 -0.0266 0.4750
vn 0.8881 -0.1390 0.4381
vn 0.4169 0.2747 -0.8664
vn 0.4170 0.2747 -0.8664
vn 0.8071 0.5872 -0.0618
vn 0.3435 -0.9340 0.0982
vn -0.0000 0.5034 -0.8641
vn -0.8068 0.5876 -0.0618
vn -0.8069 0.5875 -0.0618
vn -0.3440 -0.9338 0.0982
vn 0.8695 -0.4345 -0.2348
vn 0.4199 0.7983 0.4319
vn -0.0000 -0.9293 0.3693
vn -0.8696 -0.4344 -0.2348
vn -0.4200 0.7982 0.4318
vn -0.4199 0.7982 0.4319
vn 0.8708 0.0509 0.4890
vn 0.8708 0.0508 0.4890
vn -0.8709 0.0508 0.4888
vn -0.8696 -0.4344 0.2348
vn -0.4199 0.7982 -0.4319
vn -0.4198 0.7983 -0.4319
vn -0.0000 0.5601 -0.8284
vn 0.8696 -0.4344 0.2348
vn 0.4203 0.7980 -0.4318
vn 0.4202 0.7981 -0.4318
vn 0.3785 -0.2638 -0.8872
vn 0.8881 -0.1391 -0.4381
vn 0.4168 0.2747 0.8665
vn 0.4167 0.2747 0.8665
vn -0.4169 0.2747 0.8664
vn 0.8712 -0.0496 -0.4884
vn -0.8711 -0.0496 -0.4886
vn 0.8617 0.0245 -0.5069
vn 0.8617 0.0245 -0.5068
vn -0.8618 0.0245 -0.5067
vn -0.0000 0.5652 0.8250
vt 0.000000 0.000000
s 0
f 53/1/1 35/1/1 37/1/1
f 53/1/2 54/1/2 38/1/2
f 55/1/3 54/1/3 37/1/3
f 55/1/4 40/1/4 38/1/4
f 56/1/5 55/1/5 39/1/5
f 55/1/6 56/1/6 48/1/6
f 56/1/7 47/1/7 45/1/7
f 56/1/8 57/1/8 46/1/8
f 58/1/9 57/1/9 45/1/9
f 58/1/10 44/1/10 46/1/10
f 59/1/11 58/1/11 43/1/11
f 59/1/12 42/1/12 44/1/12
f 59/1/13 41/1/13 35/1/13
f 59/1/14 53/1/14 36/1/14
f 61/1/15 60/1/15 33/1/15
f 61/1/16 50/1/16 34/1/16
f 61/1/17 49/1/17 51/1/17
f 61/1/18 62/1/18 52/1/18
f 63/1/19 62/1/19 51/1/19
f 63/1/20 28/1/20 52/1/20
f 64/1/21 63/1/21 27/1/21
f 64/1/22 30/1/22 28/1/22
f 64/1/23 29/1/23 31/1/23
f 64/1/24 65/1/24 32/1/24
f 60/1/25 65/1/25 31/1/25
f 60/1/26 34/1/26 32/1/26
f 67/1/27 66/1/27 17/1/27
f 67/1/28 26/1/28 18/1/28
f 67/1/29 25/1/30 23/1/29
f 67/1/31 68/1/31 24/1/31
f 68/1/32 23/1/32 19/1/32
f 68/1/33 69/1/33 20/1/33
f 70/1/34 69/1/34 19/1/34
f 70/1/35 22/1/35 20/1/35
f 70/1/36 21/1/37 15/1/37
f 70/1/38 71/1/38 16/1/38
f 71/1/39 15/1/39 17/1/39
f 71/1/40 66/1/40 18/1/40
f 72/1/41 1/1/41 9/1/41
f 72/1/42 73/1/42 10/1/42
f 74/1/43 73/1/43 9/1/43
f 74/1/44 12/1/44 10/1/44
f 75/1/45 74/1/45 11/1/45
f 74/1/46 75/1/46 14/1/46
f 75/1/47 13/1/47 7/1/47
f 75/1/48 76/1/48 8/1/48
f 77/1/49 76/1/49 7/1/49
f 77/1/50 4/1/50 8/1/50
f 78/1/51 77/1/51 3/1/51
f 78/1/52 6/1/52 4/1/52
f 78/1/53 5/1/53 1/1/53
f 78/1/54 72/1/54 2/1/54
f 80/1/55 79/1/55 33/1/55
f 79/1/56 80/1/56 24/1/56
f 80/1/57 23/1/57 25/1/57
f 81/1/58 26/1/58 24/1/58
f 82/1/59 81/1/59 25/1/59
f 81/1/60 82/1/60 50/1/60
f 79/1/61 82/1/61 49/1/61
f 82/1/62 79/1/62 34/1/62
f 84/1/63 83/1/63 23/1/63
f 83/1/64 84/1/64 34/1/64
f 85/1/65 84/1/65 33/1/65
f 84/1/66 85/1/66 32/1/66
f 86/1/67 85/1/67 31/1/67
f 85/1/68 86/1/68 20/1/68
f 86/1/69 19/1/69 23/1/69
f 83/1/70 24/1/70 20/1/70
f 87/1/71 7/1/71 37/1/71
f 88/1/72 38/1/72 8/1/72
f 88/1/73 37/1/73 35/1/73
f 89/1/74 36/1/74 38/1/75
f 90/1/76 89/1/76 35/1/76
f 89/1/77 90/1/77 4/1/77
f 87/1/78 90/1/78 3/1/78
f 90/1/79 87/1/79 8/1/79
f 91/1/80 21/1/80 29/1/80
f 91/1/81 92/1/81 30/1/81
f 93/1/82 92/1/82 29/1/82
f 92/1/83 93/1/83 28/1/83
f 94/1/84 93/1/84 27/1/84
f 93/1/85 94/1/85 16/1/85
f 94/1/86 15/1/86 21/1/86
f 91/1/87 22/1/87 16/1/87
f 96/1/88 95/1/88 43/1/88
f 95/1/89 96/1/89 2/1/89
f 96/1/90 1/1/90 5/1/90
f 97/1/91 6/1/91 2/1/91
f 98/1/92 97/1/92 5/1/92
f 97/1/93 98/1/93 42/1/93
f 95/1/94 98/1/94 41/1/94
f 98/1/95 95/1/95 44/1/96
f 100/1/97 99/1/97 45/1/97
f 99/1/98 100/1/98 48/1/98
f 101/1/99 100/1/99 47/1/99
f 101/1/100 12/1/100 48/1/100
f 101/1/101 11/1/102 9/1/102
f 102/1/103 10/1/103 12/1/103
f 99/1/104 102/1/104 9/1/104
f 102/1/105 99/1/105 46/1/105
f 104/1/106 103/1/106 19/1/106
f 103/1/107 104/1/107 32/1/107
f 104/1/108 31/1/108 29/1/109
f 105/1/110 30/1/110 32/1/110
f 106/1/111 105/1/111 29/1/111
f 106/1/112 22/1/112 30/1/112
f 103/1/113 106/1/113 21/1/113
f 106/1/114 103/1/114 20/1/114
f 107/1/115 35/1/115 41/1/115
f 108/1/116 42/1/117 36/1/117
f 109/1/118 108/1/118 41/1/118
f 108/1/119 109/1/119 6/1/119
f 110/1/120 109/1/120 5/1/120
f 109/1/121 110/1/122 4/1/122
f 107/1/123 110/1/123 3/1/123
f 110/1/124 107/1/124 36/1/124
f 112/1/125 111/1/125 13/1/125
f 111/1/126 112/1/126 40/1/126
f 112/1/127 39/1/128 37/1/128
f 113/1/129 38/1/129 40/1/129
f 113/1/130 37/1/130 7/1/130
f 113/1/131 114/1/131 8/1/131
f 111/1/132 114/1/132 7/1/133
f 114/1/134 111/1/134 14/1/134
f 115/1/135 45/1/135 9/1/135
f 115/1/136 116/1/136 10/1/136
f 116/1/137 9/1/137 1/1/137
f 117/1/138 2/1/138 10/1/138
f 118/1/139 117/1/139 1/1/139
f 117/1/140 118/1/140 44/1/140
f 115/1/141 118/1/141 43/1/141
f 118/1/142 115/1/142 46/1/142
f 120/1/143 119/1/143 27/1/143
f 119/1/144 120/1/144 52/1/144
f 121/1/107 120/1/107 51/1/107
f 121/1/106 18/1/106 52/1/106
f 121/1/145 17/1/145 15/1/145
f 122/1/146 16/1/146 18/1/146
f 119/1/147 122/1/147 15/1/147
f 122/1/148 119/1/148 28/1/148
f 123/1/149 51/1/149 49/1/149
f 124/1/150 50/1/150 52/1/150
f 125/1/151 124/1/151 49/1/151
f 124/1/152 125/1/152 26/1/152
f 126/1/153 125/1/153 25/1/153
f 125/1/154 126/1/154 18/1/154
f 123/1/155 126/1/155 17/1/155
f 126/1/67 123/1/67 52/1/67
f 53/1/1 37/1/1 54/1/1
f 53/1/156 38/1/156 36/1/156
f 55/1/3 37/1/3 39/1/3
f 55/1/4 38/1/4 54/1/4
f 56/1/157 39/1/157 47/1/157
f 55/1/158 48/1/158 40/1/158
f 56/1/7 45/1/7 57/1/7
f 56/1/8 46/1/8 48/1/8
f 58/1/9 45/1/9 43/1/9
f 58/1/159 46/1/159 57/1/159
f 59/1/11 43/1/11 41/1/11
f 59/1/12 44/1/12 58/1/12
f 59/1/160 35/1/160 53/1/160
f 59/1/161 36/1/161 42/1/161
f 61/1/162 33/1/162 49/1/162
f 61/1/163 34/1/163 60/1/163
f 61/1/164 51/1/165 62/1/165
f 61/1/166 52/1/166 50/1/166
f 63/1/167 51/1/167 27/1/167
f 63/1/20 52/1/20 62/1/20
f 64/1/168 27/1/168 29/1/168
f 64/1/169 28/1/169 63/1/169
f 64/1/170 31/1/171 65/1/170
f 64/1/24 32/1/24 30/1/24
f 60/1/172 31/1/172 33/1/172
f 60/1/173 32/1/173 65/1/173
f 67/1/174 17/1/174 25/1/174
f 67/1/175 18/1/175 66/1/175
f 67/1/176 23/1/176 68/1/176
f 67/1/177 24/1/177 26/1/177
f 68/1/178 19/1/178 69/1/178
f 68/1/33 20/1/33 24/1/33
f 70/1/179 19/1/179 21/1/179
f 70/1/35 20/1/35 69/1/35
f 70/1/180 15/1/180 71/1/180
f 70/1/181 16/1/181 22/1/181
f 71/1/182 17/1/182 66/1/182
f 71/1/183 18/1/183 16/1/183
f 72/1/184 9/1/184 73/1/184
f 72/1/185 10/1/185 2/1/185
f 74/1/43 9/1/43 11/1/43
f 74/1/44 10/1/44 73/1/44
f 75/1/45 11/1/45 13/1/45
f 74/1/186 14/1/186 12/1/186
f 75/1/187 7/1/187 76/1/187
f 75/1/48 8/1/48 14/1/48
f 77/1/188 7/1/188 3/1/188
f 77/1/189 8/1/50 76/1/189
f 78/1/190 3/1/190 5/1/190
f 78/1/191 4/1/191 77/1/191
f 78/1/192 1/1/192 72/1/192
f 78/1/54 2/1/54 6/1/54
f 80/1/55 33/1/55 23/1/55
f 79/1/56 24/1/56 34/1/56
f 80/1/193 25/1/193 81/1/193
f 81/1/58 24/1/58 80/1/58
f 82/1/59 25/1/59 49/1/59
f 81/1/60 50/1/60 26/1/60
f 79/1/194 49/1/194 33/1/194
f 82/1/62 34/1/62 50/1/62
f 84/1/63 23/1/63 33/1/63
f 83/1/64 34/1/64 24/1/64
f 85/1/195 33/1/195 31/1/195
f 84/1/66 32/1/66 34/1/66
f 86/1/67 31/1/67 19/1/67
f 85/1/68 20/1/68 32/1/68
f 86/1/196 23/1/196 83/1/196
f 83/1/70 20/1/70 86/1/70
f 87/1/71 37/1/71 88/1/71
f 88/1/72 8/1/72 87/1/72
f 88/1/73 35/1/73 89/1/73
f 89/1/75 38/1/75 88/1/75
f 90/1/76 35/1/76 3/1/76
f 89/1/77 4/1/77 36/1/77
f 87/1/197 3/1/197 7/1/197
f 90/1/198 8/1/199 4/1/199
f 91/1/80 29/1/80 92/1/80
f 91/1/81 30/1/81 22/1/81
f 93/1/200 29/1/200 27/1/200
f 92/1/201 28/1/201 30/1/201
f 94/1/202 27/1/202 15/1/202
f 93/1/85 16/1/85 28/1/85
f 94/1/203 21/1/204 91/1/204
f 91/1/205 16/1/205 94/1/205
f 96/1/88 43/1/88 1/1/88
f 95/1/89 2/1/89 44/1/89
f 96/1/206 5/1/206 97/1/206
f 97/1/91 2/1/207 96/1/207
f 98/1/208 5/1/208 41/1/208
f 97/1/93 42/1/93 6/1/93
f 95/1/209 41/1/209 43/1/209
f 98/1/210 44/1/211 42/1/210
f 100/1/97 45/1/97 47/1/97
f 99/1/98 48/1/98 46/1/98
f 101/1/99 47/1/99 11/1/99
f 101/1/100 48/1/100 100/1/100
f 101/1/102 9/1/102 102/1/101
f 102/1/103 12/1/103 101/1/103
f 99/1/104 9/1/104 45/1/104
f 102/1/105 46/1/105 10/1/105
f 104/1/106 19/1/106 31/1/106
f 103/1/107 32/1/107 20/1/107
f 104/1/212 29/1/213 105/1/213
f 105/1/110 32/1/110 104/1/110
f 106/1/111 29/1/111 21/1/111
f 106/1/112 30/1/112 105/1/112
f 103/1/214 21/1/214 19/1/214
f 106/1/114 20/1/114 22/1/114
f 107/1/215 41/1/215 108/1/215
f 108/1/216 36/1/217 107/1/216
f 109/1/118 41/1/118 5/1/118
f 108/1/218 6/1/218 42/1/218
f 110/1/219 5/1/219 3/1/219
f 109/1/220 4/1/221 6/1/221
f 107/1/123 3/1/123 35/1/123
f 110/1/124 36/1/124 4/1/124
f 112/1/125 13/1/125 39/1/125
f 111/1/126 40/1/126 14/1/126
f 112/1/127 37/1/127 113/1/127
f 113/1/129 40/1/129 112/1/129
f 113/1/130 7/1/130 114/1/130
f 113/1/131 8/1/131 38/1/131
f 111/1/133 7/1/133 13/1/133
f 114/1/222 14/1/222 8/1/222
f 115/1/135 9/1/135 116/1/135
f 115/1/136 10/1/136 46/1/136
f 116/1/223 1/1/223 117/1/223
f 117/1/224 10/1/225 116/1/224
f 118/1/139 1/1/139 43/1/139
f 117/1/140 44/1/140 2/1/140
f 115/1/141 43/1/141 45/1/141
f 118/1/226 46/1/226 44/1/226
f 120/1/227 27/1/227 51/1/227
f 119/1/144 52/1/144 28/1/144
f 121/1/107 51/1/107 17/1/107
f 121/1/106 52/1/106 120/1/106
f 121/1/228 15/1/228 122/1/228
f 122/1/146 18/1/146 121/1/146
f 119/1/147 15/1/147 27/1/147
f 122/1/148 28/1/148 16/1/148
f 123/1/229 49/1/230 124/1/229
f 124/1/150 52/1/150 123/1/150
f 125/1/151 49/1/151 25/1/151
f 124/1/152 26/1/152 50/1/152
f 126/1/231 25/1/231 17/1/231
f 125/1/154 18/1/154 26/1/154
f 123/1/155 17/1/155 51/1/155
f 126/1/232 52/1/232 18/1/232
