# Blender 5.2.0 LTS
# www.blender.org
mtllib glass irons.mtl
o irons
v -0.523236 -0.018066 0.021948
v -0.524322 -0.017181 0.023375
v -0.523236 0.017351 -0.000000
v -0.524350 0.019012 -0.000000
v -0.523236 -0.018066 -0.021948
v -0.524322 -0.017181 -0.023375
v 0.524663 -0.010845 0.016207
v 0.526077 -0.010845 0.017621
v 0.524663 0.016981 0.016207
v 0.525994 0.017272 0.017671
v 0.524663 -0.010845 -0.016207
v 0.526077 -0.010845 -0.017621
v 0.524663 0.016981 -0.016207
v 0.525994 0.017272 -0.017671
v 0.524663 0.016981 0.012966
v 0.526166 0.016916 0.011649
v 0.524663 0.007813 0.009168
v 0.525923 0.008911 0.008070
v 0.524663 0.004015 -0.000000
v 0.525923 0.005568 -0.000000
v 0.524663 0.028441 0.011460
v 0.525923 0.029539 0.012558
v 0.524663 0.026149 0.009168
v 0.525923 0.025051 0.008070
v 0.524663 0.007813 -0.009168
v 0.525923 0.008911 -0.008070
v 0.524663 0.029947 -0.000000
v 0.525923 0.028394 -0.000000
v 0.524663 0.016981 -0.012966
v 0.526271 0.016981 -0.011777
v 0.524663 0.033189 -0.000000
v 0.525923 0.034742 -0.000000
v 0.524663 0.028441 -0.011460
v 0.525923 0.029539 -0.012558
v 0.524663 0.026149 -0.009168
v 0.525923 0.025051 -0.008070
v 0.520000 0.001420 -0.019451
v 0.520023 0.002957 -0.020730
v 0.532235 -0.003648 0.019451
v 0.533333 -0.002550 0.020712
v 0.532235 -0.003648 -0.019451
v 0.533333 -0.002550 -0.020712
v 0.520000 0.001420 0.019451
v 0.519977 0.002957 0.020730
v 0.537304 -0.015884 0.019451
v 0.538857 -0.015884 0.020711
v 0.537304 -0.015884 -0.019451
v 0.538857 -0.015884 -0.020711
v 0.532235 -0.028120 0.019451
v 0.533333 -0.029218 0.020712
v 0.532235 -0.028120 -0.019451
v 0.533333 -0.029218 -0.020712
v 0.520000 -0.033188 0.019451
v 0.520000 -0.034741 0.020712
v 0.520000 -0.033188 -0.019451
v 0.520000 -0.034741 -0.020712
v 0.507764 -0.028120 0.019451
v 0.506666 -0.029218 0.020712
v 0.507764 -0.028120 -0.019451
v 0.506666 -0.029218 -0.020712
v 0.502696 -0.015884 0.019451
v 0.501143 -0.015884 0.020712
v 0.502696 -0.015884 -0.019451
v 0.501143 -0.015884 -0.020712
v 0.507764 -0.003648 0.019451
v 0.506666 -0.002550 0.020712
v 0.507764 -0.003648 -0.019451
v 0.506666 -0.002550 -0.020712
v -0.520000 -0.033188 0.019451
v -0.520000 -0.034741 0.020712
v -0.502697 -0.015884 0.019451
v -0.501144 -0.015884 0.020712
v -0.537304 -0.015884 0.019451
v -0.538857 -0.015884 0.020712
v -0.507765 -0.028120 0.019451
v -0.506667 -0.029218 0.020712
v -0.532236 -0.028120 0.019451
v -0.533334 -0.029218 0.020712
v -0.520000 0.001420 0.019451
v -0.520023 0.002957 0.020730
v -0.507765 -0.003648 0.019451
v -0.506667 -0.002550 0.020712
v -0.532236 -0.003648 0.019451
v -0.533334 -0.002550 0.020712
v -0.502697 -0.015884 -0.019451
v -0.501144 -0.015884 -0.020712
v -0.520000 0.001420 -0.019451
v -0.519977 0.002957 -0.020730
v -0.507765 -0.003648 -0.019451
v -0.506667 -0.002550 -0.020712
v -0.537304 -0.015884 -0.019451
v -0.538857 -0.015884 -0.020712
v -0.532236 -0.003648 -0.019451
v -0.533334 -0.002550 -0.020712
v -0.520000 -0.033188 -0.019451
v -0.520000 -0.034741 -0.020712
v -0.532236 -0.028120 -0.019451
v -0.533334 -0.029218 -0.020712
v -0.507765 -0.028120 -0.019451
v -0.506667 -0.029218 -0.020712
v 0.515248 0.028441 -0.011460
v 0.513987 0.029539 -0.012558
v 0.515248 0.033189 -0.000000
v 0.513987 0.034742 -0.000000
v 0.515248 0.016981 -0.016207
v 0.513917 0.017272 -0.017671
v 0.515248 -0.010845 -0.016207
v 0.513834 -0.010845 -0.017621
v 0.515248 0.028441 0.011460
v 0.513987 0.029539 0.012558
v 0.515248 0.016981 0.016207
v 0.513917 0.017272 0.017671
v 0.515248 -0.010845 0.016207
v 0.513834 -0.010845 0.017621
v -0.516669 -0.018066 0.021948
v -0.515583 -0.017181 0.023375
v -0.516669 0.017351 -0.000000
v -0.515555 0.019012 -0.000000
v -0.516669 -0.018066 -0.021948
v -0.515583 -0.017181 -0.023375
v 0.515248 0.016981 0.012966
v 0.513745 0.017046 0.011649
v 0.515248 0.007813 0.009168
v 0.513987 0.008911 0.008070
v 0.515248 0.004015 -0.000000
v 0.513987 0.005568 -0.000000
v 0.515248 0.007813 -0.009168
v 0.513987 0.008911 -0.008070
v 0.515248 0.016981 -0.012966
v 0.513640 0.016981 -0.011777
v 0.515248 0.026149 -0.009168
v 0.513987 0.025051 -0.008070
v 0.515248 0.029947 -0.000000
v 0.513987 0.028394 -0.000000
v 0.515248 0.026149 0.009168
v 0.513987 0.025051 0.008070
v -0.523779 -0.016624 0.020866
v -0.523793 0.016283 -0.000000
v -0.523779 -0.016624 -0.020866
v 0.525370 -0.009845 0.015914
v 0.525370 -0.009845 -0.015914
v 0.525329 0.016127 -0.015939
v 0.525467 0.015981 -0.013040
v 0.525293 0.007597 -0.009384
v 0.525293 0.003709 -0.000000
v 0.525293 0.007597 0.009384
v 0.525415 0.015948 0.012976
v 0.525329 0.016127 0.015939
v 0.514618 0.026365 -0.009384
v 0.514618 0.030253 -0.000000
v 0.514618 0.026365 0.009384
v 0.514496 0.018014 0.012976
v 0.514582 0.018127 0.015442
v 0.514618 0.028225 0.011244
v 0.514618 0.032883 -0.000000
v 0.514618 0.028225 -0.011244
v 0.514582 0.018127 -0.015442
v 0.514444 0.017981 -0.013040
v 0.514541 -0.009845 0.015914
v 0.514582 0.016127 0.015939
v 0.514496 0.016014 0.012976
v 0.514618 0.007597 0.009384
v 0.514618 0.003709 -0.000000
v 0.514618 0.007597 -0.009384
v 0.514444 0.015981 -0.013040
v 0.514582 0.016127 -0.015939
v 0.514541 -0.009845 -0.015914
v -0.502303 -0.014960 0.019081
v -0.502303 -0.014960 -0.019081
v -0.506833 -0.004023 -0.019081
v -0.506833 -0.004023 0.019081
v 0.515618 0.033583 -0.000924
v 0.524293 0.033583 -0.000924
v 0.524293 0.029373 -0.011085
v 0.515618 0.029373 -0.011085
v 0.519065 0.001806 0.019091
v 0.519088 0.001806 -0.019091
v 0.508139 -0.002716 -0.019081
v 0.508139 -0.002716 0.019081
v 0.524293 0.007979 -0.007695
v 0.515618 0.007979 -0.007695
v 0.515618 0.005174 -0.000924
v 0.524293 0.005174 -0.000924
v -0.517126 -0.016774 0.022135
v -0.517112 0.017332 0.000527
v -0.522793 0.017332 0.000527
v -0.522779 -0.016774 0.022135
v 0.524293 0.009286 -0.009002
v 0.524467 0.016057 -0.011989
v 0.515444 0.016057 -0.011989
v 0.515618 0.009286 -0.009002
v 0.524467 0.017905 -0.011989
v 0.524293 0.024676 -0.009002
v 0.515618 0.024676 -0.009002
v 0.515444 0.017905 -0.011989
v 0.503002 -0.015884 0.020081
v 0.507980 -0.027904 0.020081
v 0.520000 -0.032882 0.020081
v 0.532019 -0.027904 0.020081
v 0.536998 -0.015884 0.020081
v 0.532019 -0.003864 0.020081
v 0.519988 0.001106 0.020091
v 0.507980 -0.003864 0.020081
v 0.503002 -0.015884 -0.020081
v 0.507980 -0.003864 -0.020081
v 0.520012 0.001106 -0.020091
v 0.532019 -0.003864 -0.020081
v 0.536998 -0.015884 -0.020081
v 0.532019 -0.027904 -0.020081
v 0.520000 -0.032882 -0.020081
v 0.507980 -0.027904 -0.020081
v -0.520012 0.001106 0.020091
v -0.532020 -0.003864 0.020081
v -0.536998 -0.015884 0.020081
v -0.532020 -0.027904 0.020081
v -0.520000 -0.032882 0.020081
v -0.507981 -0.027904 0.020081
v -0.503003 -0.015884 0.020081
v -0.507981 -0.003864 0.020081
v -0.519988 0.001106 -0.020091
v -0.507981 -0.003864 -0.020081
v -0.503003 -0.015884 -0.020081
v -0.507981 -0.027904 -0.020081
v -0.520000 -0.032882 -0.020081
v -0.532020 -0.027904 -0.020081
v -0.536998 -0.015884 -0.020081
v -0.532020 -0.003864 -0.020081
v 0.520935 0.001806 -0.019091
v 0.520912 0.001806 0.019091
v 0.531860 -0.002716 0.019081
v 0.531860 -0.002716 -0.019081
v 0.524293 0.025983 0.007695
v 0.515618 0.025983 0.007695
v 0.515618 0.028788 0.000924
v 0.524293 0.028788 0.000924
v -0.519076 -0.033582 0.019081
v -0.519076 -0.033582 -0.019081
v -0.508140 -0.029052 -0.019081
v -0.508140 -0.029052 0.019081
v 0.537698 -0.014960 0.019081
v 0.537698 -0.014960 -0.019081
v 0.533167 -0.004023 -0.019081
v 0.533167 -0.004023 0.019081
v 0.524370 -0.009845 -0.016914
v 0.515541 -0.009845 -0.016914
v 0.515582 0.016127 -0.016939
v 0.524329 0.016127 -0.016939
v -0.519065 0.001806 -0.019091
v -0.519088 0.001806 0.019091
v -0.508140 -0.002716 0.019081
v -0.508140 -0.002716 -0.019081
v 0.506832 -0.004023 0.019081
v 0.506832 -0.004023 -0.019081
v 0.502302 -0.014960 -0.019081
v 0.502302 -0.014960 0.019081
v 0.502302 -0.016808 0.019081
v 0.502302 -0.016808 -0.019081
v 0.506832 -0.027745 -0.019081
v 0.506832 -0.027745 0.019081
v 0.508139 -0.029052 0.019081
v 0.508139 -0.029052 -0.019081
v 0.519076 -0.033582 -0.019081
v 0.519076 -0.033582 0.019081
v 0.524293 0.028788 -0.000924
v 0.515618 0.028788 -0.000924
v 0.515618 0.025983 -0.007695
v 0.524293 0.025983 -0.007695
v 0.524293 0.005174 0.000924
v 0.515618 0.005174 0.000924
v 0.515618 0.007979 0.007695
v 0.524293 0.007979 0.007695
v 0.524293 0.009286 0.009002
v 0.515618 0.009286 0.009002
v 0.515496 0.016090 0.011925
v 0.524415 0.016025 0.011925
v -0.517112 0.017332 -0.000527
v -0.517126 -0.016774 -0.022135
v -0.522779 -0.016774 -0.022135
v -0.522793 0.017332 -0.000527
v -0.533168 -0.004023 0.019081
v -0.533168 -0.004023 -0.019081
v -0.537698 -0.014960 -0.019081
v -0.537698 -0.014960 0.019081
v 0.524415 0.017872 0.011925
v 0.515496 0.017937 0.011925
v 0.515618 0.024676 0.009002
v 0.524293 0.024676 0.009002
v 0.520924 -0.033582 0.019081
v 0.520924 -0.033582 -0.019081
v 0.531860 -0.029052 -0.019081
v 0.531860 -0.029052 0.019081
v 0.525293 0.032883 -0.000000
v 0.525293 0.028225 0.011244
v 0.525329 0.018127 0.015442
v 0.525415 0.017948 0.012976
v 0.525293 0.026365 0.009384
v 0.525293 0.030253 -0.000000
v 0.525293 0.026365 -0.009384
v 0.525467 0.017981 -0.013040
v 0.525329 0.018127 -0.015442
v 0.525293 0.028225 -0.011244
v -0.537698 -0.016808 0.019081
v -0.537698 -0.016808 -0.019081
v -0.533168 -0.027745 -0.019081
v -0.533168 -0.027745 0.019081
v 0.524370 -0.009845 0.016914
v 0.524329 0.016127 0.016939
v 0.515582 0.016127 0.016939
v 0.515541 -0.009845 0.016914
v 0.524329 0.018050 -0.016556
v 0.515582 0.018050 -0.016556
v 0.515618 0.028066 -0.012392
v 0.524293 0.028066 -0.012392
v 0.515618 0.029373 0.011085
v 0.524293 0.029373 0.011085
v 0.524293 0.033583 0.000924
v 0.515618 0.033583 0.000924
v 0.515582 0.018050 0.016556
v 0.524329 0.018050 0.016556
v 0.524293 0.028066 0.012392
v 0.515618 0.028066 0.012392
v -0.531861 -0.029052 0.019081
v -0.531861 -0.029052 -0.019081
v -0.520924 -0.033582 -0.019081
v -0.520924 -0.033582 0.019081
v -0.506833 -0.027745 0.019081
v -0.506833 -0.027745 -0.019081
v -0.502303 -0.016808 -0.019081
v -0.502303 -0.016808 0.019081
v 0.533167 -0.027745 0.019081
v 0.533167 -0.027745 -0.019081
v 0.537698 -0.016808 -0.019081
v 0.537698 -0.016808 0.019081
v -0.516126 -0.016624 -0.020866
v -0.516112 0.016283 -0.000000
v -0.516126 -0.016624 0.020866
v -0.520935 0.001806 0.019091
v -0.520912 0.001806 -0.019091
v -0.531861 -0.002716 -0.019081
v -0.531861 -0.002716 0.019081
vn 0.5469 -0.4445 -0.7095
vn -0.9483 -0.1716 -0.2671
vn 0.5469 -0.4445 0.7095
vn -0.9483 -0.1716 0.2671
vn 0.9358 0.3524 -0.0000
vn -0.7164 0.6977 -0.0000
vn -0.8165 0.5774 -0.0000
vn 0.8165 0.5773 -0.0000
vn -0.3783 0.0001 0.9257
vn 0.9287 0.0026 0.3708
vn -0.7838 -0.6210 0.0030
vn 0.8162 -0.5738 -0.0671
vn -0.4574 -0.3437 -0.8202
vn 0.9198 -0.1842 -0.3465
vn -0.4093 -0.8429 -0.3492
vn 0.9388 -0.3183 -0.1319
vn -0.4093 -0.8429 0.3492
vn 0.9388 -0.3183 0.1319
vn -0.4467 -0.3451 0.8254
vn 0.9257 -0.1690 0.3384
vn -0.7991 -0.6011 0.0062
vn 0.8240 -0.5637 0.0572
vn -0.3783 0.0001 -0.9257
vn 0.9287 0.0026 -0.3708
vn 0.4092 0.8430 -0.3492
vn -0.9388 0.3183 -0.1319
vn 0.4092 0.8430 0.3492
vn -0.9388 0.3183 0.1319
vn 0.4467 0.3450 0.8255
vn -0.9257 0.1690 0.3384
vn 0.8416 0.5396 -0.0234
vn -0.7894 0.6139 -0.0005
vn 0.3902 -0.3534 -0.8502
vn -0.9364 -0.1311 -0.3255
vn 0.4093 -0.8429 -0.3492
vn -0.9388 -0.3183 -0.1319
vn 0.4093 -0.8429 0.3492
vn -0.9388 -0.3183 0.1319
vn 0.3902 -0.3534 0.8502
vn -0.9364 -0.1311 0.3255
vn 0.8296 0.5572 0.0347
vn -0.7820 0.6232 -0.0063
vn 0.4574 0.3437 -0.8202
vn -0.9198 0.1842 -0.3465
vn 0.3783 0.0001 -0.9257
vn -0.9287 0.0026 -0.3708
vn 0.7892 -0.6141 0.0002
vn -0.8335 -0.5507 0.0447
vn 0.4329 -0.3467 0.8321
vn -0.9267 -0.1664 0.3370
vn 0.4574 -0.3437 -0.8202
vn -0.9198 -0.1842 -0.3465
vn 0.7838 -0.6210 0.0030
vn -0.8162 -0.5739 -0.0671
vn 0.3783 0.0001 0.9257
vn -0.9287 0.0026 0.3708
vn 0.8165 0.5774 -0.0000
vn -0.9199 0.3920 -0.0000
vn 0.6233 0.7820 -0.0000
vn -0.4233 -0.1753 0.8889
vn 0.8456 0.3503 0.4027
vn -0.3733 -0.9277 -0.0000
vn 0.9937 -0.1122 -0.0000
vn -0.4233 -0.1753 -0.8889
vn 0.8456 0.3503 -0.4027
vn -0.0000 -0.9200 -0.3920
vn -0.0000 0.6233 -0.7820
vn -0.8889 -0.4233 0.1754
vn -0.4027 0.8456 -0.3503
vn -0.0000 -0.3732 0.9277
vn -0.0000 0.9937 0.1121
vn 0.8889 -0.4233 0.1754
vn 0.4027 0.8456 -0.3503
vn -0.6967 -0.7101 0.1020
vn -0.7063 -0.7065 0.0441
vn -0.4376 -0.8183 -0.3728
vn -0.2806 -0.8844 0.3730
vn -0.8469 0.4202 -0.3257
vn -0.9083 0.3450 0.2366
vn -0.5484 0.7930 0.2655
vn -0.4908 0.8649 -0.1055
vn 0.4148 -0.1149 0.9026
vn 0.1748 -0.4217 0.8897
vn 0.3721 -0.6603 0.6523
vn -0.3494 0.8478 0.3990
vn -0.3394 0.6147 0.7120
vn 0.0235 0.8589 0.5116
vn 0.9277 -0.3732 -0.0000
vn 0.1122 0.9937 -0.0000
vn 0.1741 -0.4196 -0.8909
vn 0.3006 -0.0564 -0.9521
vn 0.4926 -0.5273 -0.6923
vn -0.2115 0.6642 -0.7170
vn -0.3499 0.8466 -0.4011
vn 0.0263 0.9358 -0.3515
vn -0.0000 -0.9937 0.1122
vn -0.0000 0.3733 0.9277
vn 0.8889 -0.4232 -0.1754
vn 0.4027 0.8456 0.3503
vn -0.0000 -0.6233 -0.7820
vn -0.0000 0.9200 -0.3920
vn -0.8889 -0.4233 -0.1754
vn -0.4027 0.8456 0.3503
vn -0.8181 -0.3052 -0.4874
vn -0.3835 0.4979 0.7778
vn -0.0000 -0.9993 -0.0369
vn -0.0000 0.2991 0.9542
vn 0.8181 -0.3052 -0.4874
vn 0.3835 0.4979 0.7778
vn -0.0000 0.1432 -0.9897
vn -0.0000 0.9500 0.3122
vn -0.9130 -0.1513 -0.3789
vn -0.3464 0.3958 0.8505
vn -0.0000 -0.7266 -0.6870
vn -0.0000 -0.2233 0.9748
vn 0.9130 -0.1514 -0.3789
vn 0.3464 0.3958 0.8505
vn -0.0000 0.1122 -0.9937
vn -0.0000 0.9277 0.3733
vn -0.9130 0.1513 -0.3789
vn -0.3464 -0.3958 0.8505
vn -0.0000 -0.1122 -0.9937
vn -0.0000 -0.9277 0.3733
vn 0.9130 0.1514 -0.3789
vn 0.3464 -0.3958 0.8505
vn -0.0000 0.7266 -0.6870
vn -0.0000 0.2233 0.9748
vn 0.8430 0.3492 -0.4092
vn 0.3183 0.1318 0.9388
vn 0.3491 0.8430 -0.4093
vn 0.1318 0.3183 0.9388
vn -0.3492 0.8430 -0.4093
vn -0.1319 0.3183 0.9388
vn -0.8429 0.3492 -0.4093
vn -0.3183 0.1319 0.9388
vn -0.8429 -0.3492 -0.4093
vn -0.3183 -0.1319 0.9388
vn -0.3482 -0.8412 -0.4137
vn -0.1318 -0.3219 0.9376
vn 0.3493 -0.8433 -0.4084
vn 0.1318 -0.3210 0.9379
vn 0.8430 -0.3492 -0.4092
vn 0.3183 -0.1318 0.9388
vn 0.8430 -0.3492 0.4092
vn 0.3183 -0.1318 -0.9388
vn 0.3481 -0.8412 0.4137
vn 0.1318 -0.3219 -0.9376
vn -0.3494 -0.8433 0.4084
vn -0.1318 -0.3210 -0.9379
vn -0.8429 -0.3492 0.4093
vn -0.3183 -0.1319 -0.9388
vn -0.8429 0.3492 0.4093
vn -0.3183 0.1319 -0.9388
vn -0.3492 0.8430 0.4093
vn -0.1319 0.3183 -0.9388
vn 0.3491 0.8430 0.4093
vn 0.1318 0.3183 -0.9388
vn 0.8430 0.3492 0.4092
vn 0.3183 0.1318 -0.9388
vn -0.8430 0.3492 -0.4092
vn -0.3183 0.1318 0.9388
vn -0.8430 -0.3492 -0.4092
vn -0.3183 -0.1318 0.9388
vn -0.8430 -0.3492 0.4092
vn -0.3183 -0.1318 -0.9388
vn -0.8430 0.3492 0.4092
vn -0.3183 0.1318 -0.9388
vn 0.6967 -0.7101 -0.1020
vn 0.7063 -0.7065 -0.0441
vn 0.4376 -0.8183 0.3728
vn 0.2806 -0.8844 -0.3730
vn 0.8470 0.4202 0.3257
vn 0.9083 0.3449 -0.2366
vn 0.5484 0.7930 -0.2655
vn 0.4908 0.8649 0.1055
vn -0.4148 -0.1149 -0.9026
vn -0.1748 -0.4217 -0.8897
vn -0.3721 -0.6603 -0.6523
vn 0.3494 0.8478 -0.3990
vn 0.3395 0.6147 -0.7120
vn -0.0235 0.8589 -0.5116
vn -0.9277 -0.3733 -0.0000
vn -0.1122 0.9937 -0.0000
vn -0.1741 -0.4196 0.8909
vn -0.3006 -0.0563 0.9521
vn -0.4926 -0.5273 0.6923
vn 0.2115 0.6642 0.7170
vn 0.3499 0.8466 0.4011
vn -0.0263 0.9358 0.3515
vn -0.0000 0.9937 -0.1122
vn -0.0000 -0.3733 -0.9277
vn 0.8889 0.4232 0.1754
vn 0.4027 -0.8456 -0.3503
vn -0.0000 0.6233 0.7820
vn -0.0000 -0.9200 0.3920
vn -0.8889 0.4233 0.1754
vn -0.4027 -0.8456 -0.3503
vn 0.3920 0.9200 -0.0000
vn 0.7820 -0.6233 -0.0000
vn -0.1753 0.4233 0.8889
vn 0.3503 -0.8456 0.4027
vn -0.9277 0.3732 -0.0000
vn -0.1122 -0.9937 -0.0000
vn -0.1753 0.4233 -0.8889
vn 0.3503 -0.8456 -0.4027
vn -0.9200 0.3920 -0.0000
vn -0.4233 -0.1754 0.8889
vn 0.9937 -0.1121 -0.0000
vn -0.4233 -0.1754 -0.8889
vn -0.0000 0.5773 0.8165
vn -0.0000 0.5774 -0.8165
vn 0.9167 -0.0005 0.3995
vn 0.3923 -0.0022 -0.9198
vn -0.0000 -0.6505 0.7595
vn -0.0000 -0.5384 -0.8427
vn -0.9167 -0.0005 0.3995
vn -0.3923 -0.0022 -0.9198
vn 0.4375 -0.8183 0.3728
vn -0.9277 -0.3732 -0.0000
vn 0.3733 -0.9277 -0.0000
vn -0.9937 -0.1122 -0.0000
vn 0.4233 -0.1753 0.8889
vn -0.8456 0.3503 0.4027
vn 0.9200 0.3920 -0.0000
vn -0.6233 0.7820 -0.0000
vn 0.4233 -0.1753 -0.8889
vn -0.8456 0.3503 -0.4027
vn 0.9200 -0.3920 -0.0000
vn -0.6233 -0.7820 -0.0000
vn 0.4233 0.1753 0.8889
vn -0.8456 -0.3503 0.4027
vn 0.3733 0.9277 -0.0000
vn -0.9937 0.1122 -0.0000
vn 0.4233 0.1753 -0.8889
vn -0.8456 -0.3503 -0.4027
vn 0.9277 0.3732 -0.0000
vn 0.1122 -0.9937 -0.0000
vn 0.1753 0.4233 0.8889
vn -0.3503 -0.8457 0.4027
vn -0.3920 0.9200 -0.0000
vn -0.7820 -0.6233 -0.0000
vn 0.1753 0.4233 -0.8889
vn -0.3503 -0.8457 -0.4027
vn 0.8889 0.4233 -0.1754
vn 0.4027 -0.8456 0.3503
vn -0.0000 0.9937 0.1122
vn -0.0000 -0.3733 0.9277
vn -0.8889 0.4233 -0.1754
vn -0.4027 -0.8456 0.3503
vn -0.0000 -0.6233 0.7820
vn -0.0000 0.9200 0.3920
vn -0.0000 -0.9937 -0.1122
vn -0.0000 0.3733 -0.9277
vn -0.8889 -0.4232 0.1754
vn -0.0000 0.1122 0.9937
vn -0.0000 0.9277 -0.3733
vn 0.9078 -0.1568 0.3890
vn 0.6891 -0.3755 0.6197
vn 0.8801 -0.4556 0.1337
vn 0.0372 0.2082 -0.9774
vn 0.3683 0.3785 -0.8491
vn 0.5356 0.0303 -0.8439
vn 0.2332 -0.4944 0.8374
vn 0.0641 -0.4390 0.8962
vn -0.3827 -0.6911 0.6131
vn 0.2987 -0.8501 0.4337
vn -0.3846 -0.2616 -0.8852
vn 0.1130 0.0853 -0.9899
vn 0.3657 -0.3631 -0.8570
vn -0.3403 -0.4365 -0.8328
vn -0.8419 -0.4955 0.2136
vn -0.9048 -0.1598 0.3947
vn -0.9097 -0.4059 0.0879
vn -0.3620 0.3836 -0.8496
vn 0.0037 0.5318 -0.8468
vn -0.3446 0.0088 -0.9387
vn -0.8181 -0.3052 0.4874
vn -0.3835 0.4979 -0.7778
vn -0.0000 0.1432 0.9897
vn -0.0000 0.9500 -0.3122
vn 0.8181 -0.3052 0.4874
vn 0.3835 0.4979 -0.7778
vn -0.0000 -0.9993 0.0369
vn -0.0000 0.2991 -0.9542
vn -0.9937 -0.1123 -0.0000
vn 0.9199 0.3921 -0.0000
vn -0.2332 0.4944 0.8374
vn -0.0641 0.4390 0.8962
vn 0.3827 0.6911 0.6131
vn -0.2987 0.8501 0.4337
vn 0.3846 0.2616 -0.8852
vn -0.1130 -0.0853 -0.9899
vn -0.3657 0.3631 -0.8570
vn 0.3403 0.4365 -0.8328
vn 0.8419 0.4956 0.2136
vn 0.9048 0.1598 0.3947
vn 0.9097 0.4059 0.0879
vn 0.3620 -0.3836 -0.8496
vn -0.0037 -0.5318 -0.8468
vn 0.3446 -0.0088 -0.9387
vn -0.0000 -0.1122 0.9937
vn -0.0000 -0.9277 -0.3733
vn -0.9078 0.1568 0.3890
vn -0.6891 0.3755 0.6197
vn -0.8801 0.4556 0.1337
vn -0.0372 -0.2082 -0.9774
vn -0.3683 -0.3785 -0.8492
vn -0.5356 -0.0303 -0.8439
vn -0.9277 0.3733 -0.0000
vn -0.3902 -0.3534 -0.8502
vn 0.9364 -0.1311 -0.3255
vn -0.8350 0.5495 -0.0297
vn 0.8025 0.5965 -0.0132
vn -0.4329 0.3466 0.8321
vn 0.9267 0.1664 0.3370
vn -0.4093 0.8429 0.3492
vn 0.9388 0.3183 0.1319
vn -0.4093 0.8429 -0.3492
vn 0.9388 0.3183 -0.1319
vn -0.4574 0.3437 -0.8202
vn 0.9198 0.1842 -0.3465
vn -0.8297 0.5572 0.0347
vn 0.7820 0.6232 -0.0063
vn -0.3902 -0.3534 0.8502
vn 0.9364 -0.1311 0.3255
vn 0.9199 -0.3921 -0.0000
vn -0.9937 0.1123 -0.0000
vn -0.9167 -0.0005 -0.3995
vn -0.3923 -0.0022 0.9198
vn -0.0000 -0.6505 -0.7595
vn -0.0000 -0.5384 0.8427
vn 0.9167 -0.0005 -0.3995
vn 0.3923 -0.0022 0.9198
vn -0.0000 0.5773 -0.8165
vn -0.0000 0.5774 0.8165
vn -0.0000 0.3104 0.9506
vn -0.0000 0.8199 -0.5725
vn 0.8995 -0.1687 0.4029
vn 0.4025 0.3502 -0.8458
vn -0.8995 -0.1687 0.4029
vn -0.4025 0.3502 -0.8458
vn -0.0000 -0.3732 -0.9277
vn -0.0000 0.9937 -0.1121
vn 0.8889 -0.4233 -0.1754
vn -0.0000 0.3104 -0.9506
vn -0.0000 0.8199 0.5725
vn -0.8995 -0.1687 -0.4029
vn -0.4025 0.3502 0.8458
vn 0.8995 -0.1687 -0.4029
vn 0.4025 0.3502 0.8458
vn -0.3921 0.9199 -0.0000
vn -0.3733 0.9277 -0.0000
vn 0.9937 0.1122 -0.0000
vn -0.4233 0.1753 0.8889
vn 0.8456 -0.3503 0.4027
vn -0.9199 -0.3920 -0.0000
vn 0.6233 -0.7820 -0.0000
vn -0.4233 0.1753 -0.8889
vn 0.8456 -0.3503 -0.4027
vn 0.9937 0.1121 -0.0000
vn -0.4233 0.1754 0.8889
vn -0.9200 -0.3920 -0.0000
vn -0.4233 0.1754 -0.8889
vn -0.5469 -0.4445 0.7095
vn 0.9483 -0.1716 0.2671
vn -0.5469 -0.4445 -0.7095
vn 0.9483 -0.1716 -0.2671
vn -0.9358 0.3524 -0.0000
vn 0.7164 0.6977 -0.0000
vt 0.375000 0.500000
vt 0.625000 0.750000
vt 0.375000 0.750000
vt 0.750000 0.490000
vt 0.750000 0.010000
vt 0.750000 0.058000
vt 0.885764 0.114236
vt 0.942000 0.250000
vt 0.885765 0.385765
vt 0.750000 0.442000
vt 0.114236 0.114235
vt 0.058000 0.250000
vt 0.114236 0.385765
vt 0.250000 0.442000
vt 0.250000 0.490000
vt 0.080294 0.419706
vt 0.010000 0.250000
vt 0.080294 0.080294
vt 0.250000 0.010000
vt 0.250000 0.058000
vt 0.385765 0.385765
vt 0.442000 0.250000
vt 0.385765 0.114236
vt 0.250000 0.500000
vt 0.250000 1.000000
vt 0.125000 1.000000
vt 0.125000 0.500000
vt 0.375000 1.000000
vt 1.000000 0.500000
vt 1.000000 1.000000
vt 0.875000 1.000000
vt 0.875000 0.500000
vt 0.625000 0.650934
vt 0.625000 0.694268
vt 0.750000 0.694268
vt 0.750000 0.650934
vt 0.375000 0.250000
vt 0.625000 0.250000
vt 0.625000 0.500000
vt 0.500000 0.650934
vt 0.500000 0.694268
vt 0.375000 0.650934
vt 0.375000 0.694268
vt 0.990000 0.250000
vt 0.919706 0.080294
vt 0.580294 0.080294
vt 0.510000 0.250000
vt 0.580294 0.419706
vt 0.919706 0.419706
vt 0.490000 0.250000
vt 0.419706 0.419706
vt 0.419706 0.080294
vt 0.000000 1.000000
vt 0.000000 0.500000
vt 0.125000 0.650934
vt 0.125000 0.694268
vt 0.250000 0.694268
vt 0.250000 0.650934
vt 0.500000 0.500000
vt 0.500000 1.000000
vt 0.750000 1.000000
vt 0.750000 0.500000
vt 0.625000 1.000000
vt 0.875000 0.694268
vt 0.875000 0.650934
vt 1.000000 0.694268
vt 1.000000 0.650934
vt 0.000000 0.650934
vt 0.000000 0.694268
vt 0.614236 0.385764
vt 0.558000 0.250000
vt 0.614235 0.114235
vt 0.375000 0.000000
s 0
f 137/1/1 138/2/1 3/2/1 1/1/1
f 138/2/2 137/1/2 2/1/2 4/2/2
f 138/2/3 139/3/3 5/3/3 3/2/3
f 139/3/4 138/2/4 4/2/4 6/3/4
f 139/3/5 137/1/5 1/1/5 5/3/5
f 137/1/6 139/3/6 6/3/6 2/1/6
f 140/4/7 141/5/7 11/5/7 7/4/7
f 141/5/8 140/4/8 8/4/8 12/5/8
f 141/5/9 142/5/9 13/5/9 11/5/9
f 142/5/10 141/5/10 12/5/10 14/5/10
f 142/5/11 143/6/11 29/6/11 13/5/11
f 143/6/12 142/5/12 14/5/12 30/6/12
f 143/6/13 144/7/13 25/7/13 29/6/13
f 144/7/14 143/6/14 30/6/14 26/7/14
f 144/7/15 145/8/15 19/8/15 25/7/15
f 145/8/16 144/7/16 26/7/16 20/8/16
f 145/8/17 146/9/17 17/9/17 19/8/17
f 146/9/18 145/8/18 20/8/18 18/9/18
f 146/9/19 147/10/19 15/10/19 17/9/19
f 147/10/20 146/9/20 18/9/20 16/10/20
f 147/10/21 148/4/21 9/4/21 15/10/21
f 148/4/22 147/10/22 16/10/22 10/4/22
f 148/4/23 140/4/23 7/4/23 9/4/23
f 140/4/24 148/4/24 10/4/24 8/4/24
f 149/11/25 150/12/25 133/12/25 131/11/25
f 150/12/26 149/11/26 132/11/26 134/12/26
f 150/12/27 151/13/27 135/13/27 133/12/27
f 151/13/28 150/12/28 134/12/28 136/13/28
f 151/13/29 152/14/29 121/14/29 135/13/29
f 152/14/30 151/13/30 136/13/30 122/14/30
f 152/14/31 153/15/31 111/15/31 121/14/31
f 153/15/32 152/14/32 122/14/32 112/15/32
f 153/15/33 154/16/33 109/16/33 111/15/33
f 154/16/34 153/15/34 112/15/34 110/16/34
f 154/16/35 155/17/35 103/17/35 109/16/35
f 155/17/36 154/16/36 110/16/36 104/17/36
f 155/17/37 156/18/37 101/18/37 103/17/37
f 156/18/38 155/17/38 104/17/38 102/18/38
f 156/18/39 157/19/39 105/19/39 101/18/39
f 157/19/40 156/18/40 102/18/40 106/19/40
f 157/19/41 158/20/41 129/20/41 105/19/41
f 158/20/42 157/19/42 106/19/42 130/20/42
f 158/20/43 149/11/43 131/11/43 129/20/43
f 149/11/44 158/20/44 130/20/44 132/11/44
f 159/15/45 160/15/45 111/15/45 113/15/45
f 160/15/46 159/15/46 114/15/46 112/15/46
f 160/15/47 161/14/47 121/14/47 111/15/47
f 161/14/48 160/15/48 112/15/48 122/14/48
f 161/14/49 162/21/49 123/21/49 121/14/49
f 162/21/50 161/14/50 122/14/50 124/21/50
f 162/21/37 163/22/37 125/22/37 123/21/37
f 163/22/38 162/21/38 124/21/38 126/22/38
f 163/22/35 164/23/35 127/23/35 125/22/35
f 164/23/36 163/22/36 126/22/36 128/23/36
f 164/23/51 165/20/51 129/20/51 127/23/51
f 165/20/52 164/23/52 128/23/52 130/20/52
f 165/20/53 166/19/53 105/19/53 129/20/53
f 166/19/54 165/20/54 130/20/54 106/19/54
f 166/19/55 167/19/55 107/19/55 105/19/55
f 167/19/56 166/19/56 106/19/56 108/19/56
f 167/19/57 159/15/57 113/15/57 107/19/57
f 159/15/7 167/19/7 108/19/7 114/15/7
f 168/24/58 169/25/58 85/25/58 71/24/58
f 169/25/59 168/24/59 72/24/59 86/25/59
f 169/25/60 170/26/60 89/26/60 85/25/60
f 170/26/61 169/25/61 86/25/61 90/26/61
f 170/26/62 171/27/62 81/27/62 89/26/62
f 171/27/63 170/26/63 90/26/63 82/27/63
f 171/27/64 168/24/64 71/24/64 81/27/64
f 168/24/65 171/27/65 82/27/65 72/24/65
f 172/25/66 173/24/66 31/24/66 103/25/66
f 173/24/67 172/25/67 104/25/67 32/24/67
f 173/24/68 174/1/68 33/1/68 31/24/68
f 174/1/69 173/24/69 32/24/69 34/1/69
f 174/1/70 175/28/70 101/28/70 33/1/70
f 175/28/71 174/1/71 34/1/71 102/28/71
f 175/28/72 172/25/72 103/25/72 101/28/72
f 172/25/73 175/28/73 102/28/73 104/25/73
f 176/29/74 177/30/75 37/30/76 43/29/77
f 177/30/78 176/29/79 44/29/80 38/30/81
f 177/30/82 178/31/83 67/31/83 37/30/84
f 178/31/85 177/30/86 38/30/87 68/31/85
f 178/31/88 179/32/88 65/32/88 67/31/88
f 179/32/89 178/31/89 68/31/89 66/32/89
f 179/32/90 176/29/91 43/29/92 65/32/90
f 176/29/93 179/32/94 66/32/94 44/29/95
f 180/33/96 181/34/96 127/34/96 25/33/96
f 181/34/97 180/33/97 26/33/97 128/34/97
f 181/34/98 182/35/98 125/35/98 127/34/98
f 182/35/99 181/34/99 128/34/99 126/35/99
f 182/35/100 183/36/100 19/36/100 125/35/100
f 183/36/101 182/35/101 126/35/101 20/36/101
f 183/36/102 180/33/102 25/33/102 19/36/102
f 180/33/103 183/36/103 20/36/103 26/33/103
f 184/37/104 185/38/104 117/38/104 115/37/104
f 185/38/105 184/37/105 116/37/105 118/38/105
f 185/38/106 186/39/106 3/39/106 117/38/106
f 186/39/107 185/38/107 118/38/107 4/39/107
f 186/39/108 187/1/108 1/1/108 3/39/108
f 187/1/109 186/39/109 4/39/109 2/1/109
f 187/1/110 184/37/110 115/37/110 1/1/110
f 184/37/111 187/1/111 2/1/111 116/37/111
f 188/33/112 189/40/112 29/40/112 25/33/112
f 189/40/113 188/33/113 26/33/113 30/40/113
f 189/40/114 190/41/114 129/41/114 29/40/114
f 190/41/115 189/40/115 30/40/115 130/41/115
f 190/41/116 191/34/116 127/34/116 129/41/116
f 191/34/117 190/41/117 130/41/117 128/34/117
f 191/34/118 188/33/118 25/33/118 127/34/118
f 188/33/119 191/34/119 128/34/119 26/33/119
f 192/40/120 193/42/120 35/42/120 29/40/120
f 193/42/121 192/40/121 30/40/121 36/42/121
f 193/42/122 194/43/122 131/43/122 35/42/122
f 194/43/123 193/42/123 36/42/123 132/43/123
f 194/43/124 195/41/124 129/41/124 131/43/124
f 195/41/125 194/43/125 132/43/125 130/41/125
f 195/41/126 192/40/126 29/40/126 129/41/126
f 192/40/127 195/41/127 130/41/127 30/40/127
f 196/44/128 197/45/128 57/45/128 61/44/128
f 197/45/129 196/44/129 62/44/129 58/45/129
f 197/45/130 198/5/130 53/5/130 57/45/130
f 198/5/131 197/45/131 58/45/131 54/5/131
f 198/5/132 199/46/132 49/46/132 53/5/132
f 199/46/133 198/5/133 54/5/133 50/46/133
f 199/46/134 200/47/134 45/47/134 49/46/134
f 200/47/135 199/46/135 50/46/135 46/47/135
f 200/47/136 201/48/136 39/48/136 45/47/136
f 201/48/137 200/47/137 46/47/137 40/48/137
f 201/48/138 202/4/138 43/4/138 39/48/138
f 202/4/139 201/48/139 40/48/139 44/4/139
f 202/4/140 203/49/140 65/49/140 43/4/140
f 203/49/141 202/4/141 44/4/141 66/49/141
f 203/49/142 196/44/142 61/44/142 65/49/142
f 196/44/143 203/49/143 66/49/143 62/44/143
f 204/50/144 205/51/144 67/51/144 63/50/144
f 205/51/145 204/50/145 64/50/145 68/51/145
f 205/51/146 206/15/146 37/15/146 67/51/146
f 206/15/147 205/51/147 68/51/147 38/15/147
f 206/15/148 207/16/148 41/16/148 37/15/148
f 207/16/149 206/15/149 38/15/149 42/16/149
f 207/16/150 208/17/150 47/17/150 41/16/150
f 208/17/151 207/16/151 42/16/151 48/17/151
f 208/17/152 209/18/152 51/18/152 47/17/152
f 209/18/153 208/17/153 48/17/153 52/18/153
f 209/18/154 210/19/154 55/19/154 51/18/154
f 210/19/155 209/18/155 52/18/155 56/19/155
f 210/19/156 211/52/156 59/52/156 55/19/156
f 211/52/157 210/19/157 56/19/157 60/52/157
f 211/52/158 204/50/158 63/50/158 59/52/158
f 204/50/159 211/52/159 60/52/159 64/50/159
f 212/4/140 213/49/140 83/49/140 79/4/140
f 213/49/141 212/4/141 80/4/141 84/49/141
f 213/49/142 214/44/142 73/44/142 83/49/142
f 214/44/143 213/49/143 84/49/143 74/44/143
f 214/44/128 215/45/128 77/45/128 73/44/128
f 215/45/129 214/44/129 74/44/129 78/45/129
f 215/45/130 216/5/130 69/5/130 77/45/130
f 216/5/131 215/45/131 78/45/131 70/5/131
f 216/5/132 217/46/132 75/46/132 69/5/132
f 217/46/133 216/5/133 70/5/133 76/46/133
f 217/46/160 218/47/160 71/47/160 75/46/160
f 218/47/161 217/46/161 76/46/161 72/47/161
f 218/47/162 219/48/162 81/48/162 71/47/162
f 219/48/163 218/47/163 72/47/163 82/48/163
f 219/48/138 212/4/138 79/4/138 81/48/138
f 212/4/139 219/48/139 82/48/139 80/4/139
f 220/15/148 221/16/148 89/16/148 87/15/148
f 221/16/149 220/15/149 88/15/149 90/16/149
f 221/16/164 222/17/164 85/17/164 89/16/164
f 222/17/165 221/16/165 90/16/165 86/17/165
f 222/17/166 223/18/166 99/18/166 85/17/166
f 223/18/167 222/17/167 86/17/167 100/18/167
f 223/18/154 224/19/154 95/19/154 99/18/154
f 224/19/155 223/18/155 100/18/155 96/19/155
f 224/19/156 225/52/156 97/52/156 95/19/156
f 225/52/157 224/19/157 96/19/157 98/52/157
f 225/52/158 226/50/158 91/50/158 97/52/158
f 226/50/159 225/52/159 98/52/159 92/50/159
f 226/50/144 227/51/144 93/51/144 91/50/144
f 227/51/145 226/50/145 92/50/145 94/51/145
f 227/51/146 220/15/146 87/15/146 93/51/146
f 220/15/147 227/51/147 94/51/147 88/15/147
f 228/53/168 229/54/169 43/54/170 37/53/171
f 229/54/172 228/53/173 38/53/174 44/54/175
f 229/54/176 230/27/177 39/27/177 43/54/178
f 230/27/179 229/54/180 44/54/181 40/27/179
f 230/27/182 231/26/182 41/26/182 39/27/182
f 231/26/183 230/27/183 40/27/183 42/26/183
f 231/26/184 228/53/185 37/53/186 41/26/184
f 228/53/187 231/26/188 42/26/188 38/53/189
f 232/55/190 233/56/190 135/56/190 23/55/190
f 233/56/191 232/55/191 24/55/191 136/56/191
f 233/56/192 234/57/192 133/57/192 135/56/192
f 234/57/193 233/56/193 136/56/193 134/57/193
f 234/57/194 235/58/194 27/58/194 133/57/194
f 235/58/195 234/57/195 134/57/195 28/58/195
f 235/58/196 232/55/196 23/55/196 27/58/196
f 232/55/197 235/58/197 28/58/197 24/55/197
f 236/59/198 237/60/198 95/60/198 69/59/198
f 237/60/199 236/59/199 70/59/199 96/60/199
f 237/60/200 238/28/200 99/28/200 95/60/200
f 238/28/201 237/60/201 96/60/201 100/28/201
f 238/28/202 239/1/202 75/1/202 99/28/202
f 239/1/203 238/28/203 100/28/203 76/1/203
f 239/1/204 236/59/204 69/59/204 75/1/204
f 236/59/205 239/1/205 76/1/205 70/59/205
f 240/24/206 241/25/206 47/25/206 45/24/206
f 241/25/59 240/24/59 46/24/59 48/25/59
f 241/25/207 242/26/207 41/26/207 47/25/207
f 242/26/61 241/25/61 48/25/61 42/26/61
f 242/26/62 243/27/62 39/27/62 41/26/62
f 243/27/208 242/26/208 42/26/208 40/27/208
f 243/27/209 240/24/209 45/24/209 39/27/209
f 240/24/65 243/27/65 40/27/65 46/24/65
f 244/59/210 245/60/210 107/60/210 11/59/210
f 245/60/211 244/59/211 12/59/211 108/60/211
f 245/60/212 246/60/212 105/60/212 107/60/212
f 246/60/213 245/60/213 108/60/213 106/60/213
f 246/60/214 247/59/214 13/59/214 105/60/214
f 247/59/215 246/60/215 106/60/215 14/59/215
f 247/59/216 244/59/216 11/59/216 13/59/216
f 244/59/217 247/59/217 14/59/217 12/59/217
f 248/53/168 249/54/169 79/54/218 87/53/171
f 249/54/172 248/53/173 88/53/174 80/54/175
f 249/54/176 250/27/177 81/27/177 79/54/178
f 250/27/179 249/54/180 80/54/181 82/27/179
f 250/27/219 251/26/219 89/26/219 81/27/219
f 251/26/183 250/27/183 82/27/183 90/26/183
f 251/26/184 248/53/185 87/53/186 89/26/184
f 248/53/187 251/26/188 90/26/188 88/53/189
f 252/32/220 253/31/220 67/31/220 65/32/220
f 253/31/221 252/32/221 66/32/221 68/31/221
f 253/31/222 254/61/222 63/61/222 67/31/222
f 254/61/223 253/31/223 68/31/223 64/61/223
f 254/61/224 255/62/224 61/62/224 63/61/224
f 255/62/225 254/61/225 64/61/225 62/62/225
f 255/62/226 252/32/226 65/32/226 61/62/226
f 252/32/227 255/62/227 62/62/227 66/32/227
f 256/62/228 257/61/228 63/61/228 61/62/228
f 257/61/229 256/62/229 62/62/229 64/61/229
f 257/61/230 258/63/230 59/63/230 63/61/230
f 258/63/231 257/61/231 64/61/231 60/63/231
f 258/63/232 259/39/232 57/39/232 59/63/232
f 259/39/233 258/63/233 60/63/233 58/39/233
f 259/39/234 256/62/234 61/62/234 57/39/234
f 256/62/235 259/39/235 58/39/235 62/62/235
f 260/39/236 261/63/236 59/63/236 57/39/236
f 261/63/237 260/39/237 58/39/237 60/63/237
f 261/63/238 262/60/238 55/60/238 59/63/238
f 262/60/239 261/63/239 60/63/239 56/60/239
f 262/60/240 263/59/240 53/59/240 55/60/240
f 263/59/241 262/60/241 56/60/241 54/59/241
f 263/59/242 260/39/242 57/39/242 53/59/242
f 260/39/243 263/59/243 54/59/243 58/39/243
f 264/58/67 265/57/67 133/57/67 27/58/67
f 265/57/66 264/58/66 28/58/66 134/57/66
f 265/57/244 266/43/244 131/43/244 133/57/244
f 266/43/245 265/57/245 134/57/245 132/43/245
f 266/43/246 267/42/246 35/42/246 131/43/246
f 267/42/247 266/43/247 132/43/247 36/42/247
f 267/42/248 264/58/248 27/58/248 35/42/248
f 264/58/249 267/42/249 36/42/249 28/58/249
f 268/36/250 269/35/250 125/35/250 19/36/250
f 269/35/251 268/36/251 20/36/251 126/35/251
f 269/35/72 270/64/72 123/64/72 125/35/72
f 270/64/73 269/35/73 126/35/73 124/64/73
f 270/64/252 271/65/252 17/65/252 123/64/252
f 271/65/253 270/64/253 124/64/253 18/65/253
f 271/65/254 268/36/254 19/36/254 17/65/254
f 268/36/69 271/65/69 18/65/69 20/36/69
f 272/65/255 273/64/255 123/64/255 17/65/255
f 273/64/256 272/65/256 18/65/256 124/64/256
f 273/64/257 274/66/258 121/66/259 123/64/257
f 274/66/260 273/64/261 124/64/261 122/66/262
f 274/66/263 275/67/264 15/67/265 121/66/266
f 275/67/267 274/66/268 122/66/269 16/67/270
f 275/67/271 272/65/272 17/65/272 15/67/273
f 272/65/274 275/67/275 16/67/276 18/65/274
f 276/63/277 277/28/277 119/28/277 117/63/277
f 277/28/278 276/63/278 118/63/278 120/28/278
f 277/28/279 278/3/279 5/3/279 119/28/279
f 278/3/280 277/28/280 120/28/280 6/3/280
f 278/3/281 279/2/281 3/2/281 5/3/281
f 279/2/282 278/3/282 6/3/282 4/2/282
f 279/2/283 276/63/283 117/63/283 3/2/283
f 276/63/284 279/2/284 4/2/284 118/63/284
f 280/32/220 281/31/220 93/31/220 83/32/220
f 281/31/285 280/32/285 84/32/285 94/31/285
f 281/31/222 282/61/222 91/61/222 93/31/222
f 282/61/223 281/31/223 94/31/223 92/61/223
f 282/61/286 283/62/286 73/62/286 91/61/286
f 283/62/225 282/61/225 92/61/225 74/62/225
f 283/62/226 280/32/226 83/32/226 73/62/226
f 280/32/227 283/62/227 74/62/227 84/32/227
f 284/68/287 285/69/288 121/69/289 15/68/290
f 285/69/291 284/68/292 16/68/293 122/69/294
f 285/69/295 286/56/296 135/56/296 121/69/297
f 286/56/298 285/69/299 122/69/300 136/56/298
f 286/56/301 287/55/301 23/55/301 135/56/301
f 287/55/302 286/56/302 136/56/302 24/55/302
f 287/55/303 284/68/304 15/68/305 23/55/303
f 284/68/306 287/55/307 24/55/307 16/68/308
f 288/59/198 289/60/198 55/60/198 53/59/198
f 289/60/199 288/59/199 54/59/199 56/60/199
f 289/60/200 290/28/200 51/28/200 55/60/200
f 290/28/201 289/60/201 56/60/201 52/28/201
f 290/28/309 291/1/309 49/1/309 51/28/309
f 291/1/203 290/28/203 52/28/203 50/1/203
f 291/1/204 288/59/204 53/59/204 49/1/204
f 288/59/205 291/1/205 50/1/205 54/59/205
f 292/47/15 293/48/15 21/48/15 31/47/15
f 293/48/16 292/47/16 32/47/16 22/48/16
f 293/48/310 294/4/310 9/4/310 21/48/310
f 294/4/311 293/48/311 22/48/311 10/4/311
f 294/4/312 295/10/312 15/10/312 9/4/312
f 295/10/313 294/4/313 10/4/313 16/10/313
f 295/10/314 296/70/314 23/70/314 15/10/314
f 296/70/315 295/10/315 16/10/315 24/70/315
f 296/70/316 297/71/316 27/71/316 23/70/316
f 297/71/317 296/70/317 24/70/317 28/71/317
f 297/71/318 298/72/318 35/72/318 27/71/318
f 298/72/319 297/71/319 28/71/319 36/72/319
f 298/72/320 299/6/320 29/6/320 35/72/320
f 299/6/321 298/72/321 36/72/321 30/6/321
f 299/6/322 300/5/322 13/5/322 29/6/322
f 300/5/323 299/6/323 30/6/323 14/5/323
f 300/5/324 301/46/324 33/46/324 13/5/324
f 301/46/325 300/5/325 14/5/325 34/46/325
f 301/46/17 292/47/17 31/47/17 33/46/17
f 292/47/18 301/46/18 34/46/18 32/47/18
f 302/62/326 303/61/326 91/61/326 73/62/326
f 303/61/229 302/62/229 74/62/229 92/61/229
f 303/61/230 304/63/230 97/63/230 91/61/230
f 304/63/231 303/61/231 92/61/231 98/63/231
f 304/63/232 305/39/232 77/39/232 97/63/232
f 305/39/327 304/63/327 98/63/327 78/39/327
f 305/39/234 302/62/234 73/62/234 77/39/234
f 302/62/235 305/39/235 78/39/235 74/62/235
f 306/54/328 307/54/328 9/54/328 7/54/328
f 307/54/329 306/54/329 8/54/329 10/54/329
f 307/54/330 308/53/330 111/53/330 9/54/330
f 308/53/331 307/54/331 10/54/331 112/53/331
f 308/53/332 309/53/332 113/53/332 111/53/332
f 309/53/333 308/53/333 112/53/333 114/53/333
f 309/53/334 306/54/334 7/54/334 113/53/334
f 306/54/335 309/53/335 114/53/335 8/54/335
f 310/59/336 311/60/336 105/60/336 13/59/336
f 311/60/337 310/59/337 14/59/337 106/60/337
f 311/60/338 312/28/338 101/28/338 105/60/338
f 312/28/339 311/60/339 106/60/339 102/28/339
f 312/28/123 313/1/123 33/1/123 101/28/123
f 313/1/122 312/28/122 102/28/122 34/1/122
f 313/1/340 310/59/340 13/59/340 33/1/340
f 310/59/341 313/1/341 34/1/341 14/59/341
f 314/26/342 315/27/342 21/27/342 109/26/342
f 315/27/343 314/26/343 110/26/343 22/27/343
f 315/27/102 316/24/102 31/24/102 21/27/102
f 316/24/103 315/27/103 22/27/103 32/24/103
f 316/24/195 317/25/195 103/25/195 31/24/195
f 317/25/194 316/24/194 32/24/194 104/25/194
f 317/25/344 314/26/344 109/26/344 103/25/344
f 314/26/99 317/25/99 104/25/99 110/26/99
f 318/53/345 319/54/345 9/54/345 111/53/345
f 319/54/346 318/53/346 112/53/346 10/54/346
f 319/54/347 320/27/347 21/27/347 9/54/347
f 320/27/348 319/54/348 10/54/348 22/27/348
f 320/27/302 321/26/302 109/26/302 21/27/302
f 321/26/301 320/27/301 22/27/301 110/26/301
f 321/26/349 318/53/349 111/53/349 109/26/349
f 318/53/350 321/26/350 110/26/350 112/53/350
f 322/39/236 323/63/236 97/63/236 77/39/236
f 323/63/237 322/39/237 78/39/237 98/63/237
f 323/63/238 324/60/238 95/60/238 97/63/238
f 324/60/239 323/63/239 98/63/239 96/60/239
f 324/60/351 325/59/351 69/59/351 95/60/351
f 325/59/241 324/60/241 96/60/241 70/59/241
f 325/59/242 322/39/242 77/39/242 69/59/242
f 322/39/243 325/59/243 70/59/243 78/39/243
f 326/1/352 327/28/352 99/28/352 75/1/352
f 327/28/353 326/1/353 76/1/353 100/28/353
f 327/28/354 328/25/354 85/25/354 99/28/354
f 328/25/355 327/28/355 100/28/355 86/25/355
f 328/25/356 329/24/356 71/24/356 85/25/356
f 329/24/357 328/25/357 86/25/357 72/24/357
f 329/24/358 326/1/358 75/1/358 71/24/358
f 326/1/359 329/24/359 72/24/359 76/1/359
f 330/1/352 331/28/352 51/28/352 49/1/352
f 331/28/360 330/1/360 50/1/360 52/28/360
f 331/28/361 332/25/361 47/25/361 51/28/361
f 332/25/355 331/28/355 52/28/355 48/25/355
f 332/25/362 333/24/362 45/24/362 47/25/362
f 333/24/357 332/25/357 48/25/357 46/24/357
f 333/24/363 330/1/363 49/1/363 45/24/363
f 330/1/359 333/24/359 46/24/359 50/1/359
f 334/73/364 335/38/364 117/38/364 119/73/364
f 335/38/365 334/73/365 120/73/365 118/38/365
f 335/38/366 336/37/366 115/37/366 117/38/366
f 336/37/367 335/38/367 118/38/367 116/37/367
f 336/37/368 334/73/368 119/73/368 115/37/368
f 334/73/369 336/37/369 116/37/369 120/73/369
f 337/29/74 338/30/75 87/30/76 79/29/77
f 338/30/78 337/29/79 80/29/80 88/30/81
f 338/30/82 339/31/83 93/31/83 87/30/84
f 339/31/85 338/30/86 88/30/87 94/31/85
f 339/31/88 340/32/88 83/32/88 93/31/88
f 340/32/89 339/31/89 94/31/89 84/32/89
f 340/32/90 337/29/91 79/29/92 83/32/90
f 337/29/93 340/32/94 84/32/94 80/29/95
