# Blender 5.2.0 LTS
# www.blender.org
mtllib glass rpg rings.mtl
o rings
v 1.074445 -0.078688 -0.078688
v 1.075645 -0.079819 -0.079819
v 1.074445 -0.078688 0.078688
v 1.075645 -0.079819 0.079819
v 1.074445 -0.111282 0.000000
v 1.075645 -0.112882 0.000000
v 1.074445 0.078688 -0.078688
v 1.075645 0.079819 -0.079819
v 1.074445 -0.000000 -0.111282
v 1.075645 -0.000000 -0.112882
v 1.074445 0.078688 0.078688
v 1.075645 0.079819 0.079819
v 1.074445 0.000000 0.111282
v 1.075645 0.000000 0.112882
v 1.074445 0.111282 -0.000000
v 1.075645 0.112882 -0.000000
v -1.074445 -0.074243 0.000000
v -1.075645 -0.075843 0.000000
v -1.074445 0.000000 0.074243
v -1.075645 0.000000 0.075843
v -1.074445 -0.000000 -0.074243
v -1.075645 -0.000000 -0.075843
v -1.074445 -0.052498 0.052498
v -1.075645 -0.053629 0.053629
v -1.074445 -0.052498 -0.052498
v -1.075645 -0.053629 -0.053629
v -1.074445 0.074243 -0.000000
v -1.075645 0.075843 -0.000000
v -1.074445 0.052498 -0.052498
v -1.075645 0.053629 -0.053629
v -1.074445 0.052498 0.052498
v -1.075645 0.053629 0.053629
v -0.928423 -0.074243 0.000000
v -0.929623 -0.075843 0.000000
v -0.928423 0.000000 0.074243
v -0.929623 0.000000 0.075843
v -0.928423 -0.000000 -0.074243
v -0.929623 -0.000000 -0.075843
v -0.928423 -0.052498 0.052498
v -0.929623 -0.053629 0.053629
v -0.928423 -0.052498 -0.052498
v -0.929623 -0.053629 -0.053629
v -0.928423 0.074243 -0.000000
v -0.929623 0.075843 -0.000000
v -0.928423 0.052498 -0.052498
v -0.929623 0.053629 -0.053629
v -0.928423 0.052498 0.052498
v -0.929623 0.053629 0.053629
v -0.629752 -0.078688 -0.078688
v -0.630952 -0.079819 -0.079819
v -0.629752 0.078688 -0.078688
v -0.630952 0.079819 -0.079819
v -0.629752 -0.000000 -0.111282
v -0.630952 -0.000000 -0.112882
v -0.629752 -0.078688 0.078688
v -0.630952 -0.079819 0.079819
v -0.629752 -0.111282 0.000000
v -0.630952 -0.112882 0.000000
v -0.629752 0.078688 0.078688
v -0.630952 0.079819 0.079819
v -0.629752 0.000000 0.111282
v -0.630952 0.000000 0.112882
v -0.629752 0.111282 -0.000000
v -0.630952 0.112882 -0.000000
v -0.336635 -0.078688 -0.078688
v -0.335435 -0.079819 -0.079819
v -0.336635 -0.078688 0.078688
v -0.335435 -0.079819 0.079819
v -0.336635 -0.111282 0.000000
v -0.335435 -0.112882 0.000000
v -0.336635 0.078688 -0.078688
v -0.335435 0.079819 -0.079819
v -0.336635 -0.000000 -0.111282
v -0.335435 -0.000000 -0.112882
v -0.336635 0.078688 0.078688
v -0.335435 0.079819 0.079819
v -0.336635 0.000000 0.111282
v -0.335435 0.000000 0.112882
v -0.336635 0.111282 -0.000000
v -0.335435 0.112882 -0.000000
v -0.410881 -0.078688 -0.078688
v -0.412081 -0.079819 -0.079819
v -0.410881 0.078688 -0.078688
v -0.412081 0.079819 -0.079819
v -0.410881 -0.000000 -0.111282
v -0.412081 -0.000000 -0.112882
v -0.410881 -0.078688 0.078688
v -0.412081 -0.079819 0.079819
v -0.410881 -0.111282 0.000000
v -0.412081 -0.112882 0.000000
v -0.410881 0.078688 0.078688
v -0.412081 0.079819 0.079819
v -0.410881 0.000000 0.111282
v -0.412081 0.000000 0.112882
v -0.410881 0.111282 -0.000000
v -0.412081 0.112882 -0.000000
v -0.555506 -0.078688 0.078688
v -0.554306 -0.079819 0.079819
v -0.555506 0.000000 0.111282
v -0.554306 0.000000 0.112882
v -0.555506 -0.111282 0.000000
v -0.554306 -0.112882 0.000000
v -0.555506 0.078688 0.078688
v -0.554306 0.079819 0.079819
v -0.555506 -0.078688 -0.078688
v -0.554306 -0.079819 -0.079819
v -0.555506 0.111282 -0.000000
v -0.554306 0.112882 -0.000000
v -0.555506 -0.000000 -0.111282
v -0.554306 -0.000000 -0.112882
v -0.555506 0.078688 -0.078688
v -0.554306 0.079819 -0.079819
v 1.000198 -0.078688 0.078688
v 0.998998 -0.079819 0.079819
v 1.000198 -0.111282 0.000000
v 0.998998 -0.112882 0.000000
v 1.000198 0.000000 0.111282
v 0.998998 0.000000 0.112882
v 1.000198 -0.078688 -0.078688
v 0.998998 -0.079819 -0.079819
v 1.000198 0.078688 0.078688
v 0.998998 0.079819 0.079819
v 1.000198 -0.000000 -0.111282
v 0.998998 -0.000000 -0.112882
v 1.000198 0.111282 -0.000000
v 0.998998 0.112882 -0.000000
v 1.000198 0.078688 -0.078688
v 0.998998 0.079819 -0.079819
v -0.878888 -0.052498 0.052498
v -0.877688 -0.053629 0.053629
v -0.878888 0.000000 0.074243
v -0.877688 0.000000 0.075843
v -0.878888 -0.074243 0.000000
v -0.877688 -0.075843 0.000000
v -0.878888 0.052498 0.052498
v -0.877688 0.053629 0.053629
v -0.878888 -0.052498 -0.052498
v -0.877688 -0.053629 -0.053629
v -0.878888 0.074243 -0.000000
v -0.877688 0.075843 -0.000000
v -0.878888 -0.000000 -0.074243
v -0.877688 -0.000000 -0.075843
v -0.878888 0.052498 -0.052498
v -0.877688 0.053629 -0.053629
v -1.024909 -0.052498 0.052498
v -1.023709 -0.053629 0.053629
v -1.024909 0.000000 0.074243
v -1.023709 0.000000 0.075843
v -1.024909 -0.074243 0.000000
v -1.023709 -0.075843 0.000000
v -1.024909 0.052498 0.052498
v -1.023709 0.053629 0.053629
v -1.024909 -0.052498 -0.052498
v -1.023709 -0.053629 -0.053629
v -1.024909 0.074243 -0.000000
v -1.023709 0.075843 -0.000000
v -1.024909 -0.000000 -0.074243
v -1.023709 -0.000000 -0.075843
v -1.024909 0.052498 -0.052498
v -1.023709 0.053629 -0.053629
v 1.074045 0.111699 0.000924
v 1.000598 0.111699 0.000924
v 1.000598 0.079636 0.078330
v 1.074045 0.079636 0.078330
v 1.075045 -0.078488 0.078488
v 1.075045 -0.111000 0.000000
v 1.075045 -0.078488 -0.078488
v 1.075045 -0.000000 -0.111000
v 1.075045 0.078488 -0.078488
v 1.075045 0.111000 -0.000000
v 1.075045 0.078488 0.078488
v 1.075045 0.000000 0.111000
v -1.074045 -0.053446 -0.052140
v -1.025309 -0.053446 -0.052140
v -1.025309 -0.074660 -0.000924
v -1.074045 -0.074660 -0.000924
v -1.075045 -0.000000 -0.073961
v -1.075045 -0.052298 -0.052298
v -1.075045 -0.073961 0.000000
v -1.075045 -0.052298 0.052298
v -1.075045 0.000000 0.073961
v -1.075045 0.052298 0.052298
v -1.075045 0.073961 -0.000000
v -1.075045 0.052298 -0.052298
v -0.928023 -0.053446 -0.052140
v -0.879288 -0.053446 -0.052140
v -0.879288 -0.074660 -0.000924
v -0.928023 -0.074660 -0.000924
v -0.929023 -0.000000 -0.073961
v -0.929023 -0.052298 -0.052298
v -0.929023 -0.073961 0.000000
v -0.929023 -0.052298 0.052298
v -0.929023 0.000000 0.073961
v -0.929023 0.052298 0.052298
v -0.929023 0.073961 -0.000000
v -0.929023 0.052298 -0.052298
v -0.629352 0.078330 -0.079636
v -0.555906 0.078330 -0.079636
v -0.555906 0.000924 -0.111699
v -0.629352 0.000924 -0.111699
v -0.630352 0.078488 0.078488
v -0.630352 0.111000 -0.000000
v -0.630352 0.078488 -0.078488
v -0.630352 -0.000000 -0.111000
v -0.630352 -0.078488 -0.078488
v -0.630352 -0.111000 0.000000
v -0.630352 -0.078488 0.078488
v -0.630352 0.000000 0.111000
v 1.074045 -0.000924 0.111699
v 1.000598 -0.000924 0.111699
v 1.000598 -0.078330 0.079636
v 1.074045 -0.078330 0.079636
v -0.336035 -0.078488 0.078488
v -0.336035 -0.111000 0.000000
v -0.336035 -0.078488 -0.078488
v -0.336035 -0.000000 -0.111000
v -0.336035 0.078488 -0.078488
v -0.336035 0.111000 -0.000000
v -0.336035 0.078488 0.078488
v -0.336035 0.000000 0.111000
v 1.000598 0.078330 -0.079636
v 1.074045 0.078330 -0.079636
v 1.074045 0.000924 -0.111699
v 1.000598 0.000924 -0.111699
v -0.411481 0.078488 0.078488
v -0.411481 0.111000 -0.000000
v -0.411481 0.078488 -0.078488
v -0.411481 -0.000000 -0.111000
v -0.411481 -0.078488 -0.078488
v -0.411481 -0.111000 0.000000
v -0.411481 -0.078488 0.078488
v -0.411481 0.000000 0.111000
v -0.410481 -0.079636 -0.078330
v -0.337035 -0.079636 -0.078330
v -0.337035 -0.111699 -0.000924
v -0.410481 -0.111699 -0.000924
v -0.928023 0.052140 -0.053446
v -0.879288 0.052140 -0.053446
v -0.879288 0.000924 -0.074660
v -0.928023 0.000924 -0.074660
v -0.629352 -0.079636 -0.078330
v -0.555906 -0.079636 -0.078330
v -0.555906 -0.111699 -0.000924
v -0.629352 -0.111699 -0.000924
v -0.410481 0.078330 -0.079636
v -0.337035 0.078330 -0.079636
v -0.337035 0.000924 -0.111699
v -0.410481 0.000924 -0.111699
v -0.410481 0.079636 -0.078330
v -0.410481 0.111699 -0.000924
v -0.337035 0.111699 -0.000924
v -0.337035 0.079636 -0.078330
v -0.629352 -0.111699 0.000924
v -0.555906 -0.111699 0.000924
v -0.555906 -0.079636 0.078330
v -0.629352 -0.079636 0.078330
v 1.000598 -0.000924 -0.111699
v 1.074045 -0.000924 -0.111699
v 1.074045 -0.078330 -0.079636
v 1.000598 -0.078330 -0.079636
v -0.629352 -0.000924 -0.111699
v -0.555906 -0.000924 -0.111699
v -0.555906 -0.078330 -0.079636
v -0.629352 -0.078330 -0.079636
v -0.410481 -0.111699 0.000924
v -0.337035 -0.111699 0.000924
v -0.337035 -0.079636 0.078330
v -0.410481 -0.079636 0.078330
v -0.928023 0.074660 0.000924
v -0.928023 0.053446 0.052140
v -0.879288 0.053446 0.052140
v -0.879288 0.074660 0.000924
v -0.337035 -0.000924 0.111699
v -0.410481 -0.000924 0.111699
v -0.410481 -0.078330 0.079636
v -0.337035 -0.078330 0.079636
v -1.074045 0.074660 0.000924
v -1.074045 0.053446 0.052140
v -1.025309 0.053446 0.052140
v -1.025309 0.074660 0.000924
v 1.000598 -0.111699 0.000924
v 1.074045 -0.111699 0.000924
v 1.074045 -0.079636 0.078330
v 1.000598 -0.079636 0.078330
v -0.410481 -0.000924 -0.111699
v -0.337035 -0.000924 -0.111699
v -0.337035 -0.078330 -0.079636
v -0.410481 -0.078330 -0.079636
v 1.000598 -0.079636 -0.078330
v 1.074045 -0.079636 -0.078330
v 1.074045 -0.111699 -0.000924
v 1.000598 -0.111699 -0.000924
v 1.074045 0.078330 0.079636
v 1.000598 0.078330 0.079636
v 1.000598 0.000924 0.111699
v 1.074045 0.000924 0.111699
v -0.555906 0.078330 0.079636
v -0.629352 0.078330 0.079636
v -0.629352 0.000924 0.111699
v -0.555906 0.000924 0.111699
v 1.000598 0.079636 -0.078330
v 1.000598 0.111699 -0.000924
v 1.074045 0.111699 -0.000924
v 1.074045 0.079636 -0.078330
v -0.879288 -0.000924 0.074660
v -0.928023 -0.000924 0.074660
v -0.928023 -0.052140 0.053446
v -0.879288 -0.052140 0.053446
v -0.555906 -0.000924 0.111699
v -0.629352 -0.000924 0.111699
v -0.629352 -0.078330 0.079636
v -0.555906 -0.078330 0.079636
v -0.879288 0.052140 0.053446
v -0.928023 0.052140 0.053446
v -0.928023 0.000924 0.074660
v -0.879288 0.000924 0.074660
v -0.928023 -0.074660 0.000924
v -0.879288 -0.074660 0.000924
v -0.879288 -0.053446 0.052140
v -0.928023 -0.053446 0.052140
v -0.337035 0.078330 0.079636
v -0.410481 0.078330 0.079636
v -0.410481 0.000924 0.111699
v -0.337035 0.000924 0.111699
v -0.629352 0.079636 -0.078330
v -0.629352 0.111699 -0.000924
v -0.555906 0.111699 -0.000924
v -0.555906 0.079636 -0.078330
v -0.928023 -0.000924 -0.074660
v -0.879288 -0.000924 -0.074660
v -0.879288 -0.052140 -0.053446
v -0.928023 -0.052140 -0.053446
v -1.025309 -0.000924 0.074660
v -1.074045 -0.000924 0.074660
v -1.074045 -0.052140 0.053446
v -1.025309 -0.052140 0.053446
v -0.629352 0.111699 0.000924
v -0.629352 0.079636 0.078330
v -0.555906 0.079636 0.078330
v -0.555906 0.111699 0.000924
v -1.025309 0.052140 0.053446
v -1.074045 0.052140 0.053446
v -1.074045 0.000924 0.074660
v -1.025309 0.000924 0.074660
v -1.074045 -0.074660 0.000924
v -1.025309 -0.074660 0.000924
v -1.025309 -0.053446 0.052140
v -1.074045 -0.053446 0.052140
v -0.928023 0.053446 -0.052140
v -0.928023 0.074660 -0.000924
v -0.879288 0.074660 -0.000924
v -0.879288 0.053446 -0.052140
v -1.074045 -0.000924 -0.074660
v -1.025309 -0.000924 -0.074660
v -1.025309 -0.052140 -0.053446
v -1.074045 -0.052140 -0.053446
v -0.554906 -0.078488 0.078488
v -0.554906 -0.111000 0.000000
v -0.554906 -0.078488 -0.078488
v -0.554906 -0.000000 -0.111000
v -0.554906 0.078488 -0.078488
v -0.554906 0.111000 -0.000000
v -0.554906 0.078488 0.078488
v -0.554906 0.000000 0.111000
v -1.074045 0.053446 -0.052140
v -1.074045 0.074660 -0.000924
v -1.025309 0.074660 -0.000924
v -1.025309 0.053446 -0.052140
v -0.878288 0.000000 0.073961
v -0.878288 -0.052298 0.052298
v -0.878288 -0.073961 0.000000
v -0.878288 -0.052298 -0.052298
v -0.878288 -0.000000 -0.073961
v -0.878288 0.052298 -0.052298
v -0.878288 0.073961 -0.000000
v -0.878288 0.052298 0.052298
v -1.074045 0.052140 -0.053446
v -1.025309 0.052140 -0.053446
v -1.025309 0.000924 -0.074660
v -1.074045 0.000924 -0.074660
v -1.024309 0.000000 0.073961
v -1.024309 -0.052298 0.052298
v -1.024309 -0.073961 0.000000
v -1.024309 -0.052298 -0.052298
v -1.024309 -0.000000 -0.073961
v -1.024309 0.052298 -0.052298
v -1.024309 0.073961 -0.000000
v -1.024309 0.052298 0.052298
v -0.410481 0.111699 0.000924
v -0.410481 0.079636 0.078330
v -0.337035 0.079636 0.078330
v -0.337035 0.111699 0.000924
v 0.999598 0.078488 0.078488
v 0.999598 0.111000 -0.000000
v 0.999598 0.078488 -0.078488
v 0.999598 -0.000000 -0.111000
v 0.999598 -0.078488 -0.078488
v 0.999598 -0.111000 0.000000
v 0.999598 -0.078488 0.078488
v 0.999598 0.000000 0.111000
vn -0.6863 -0.1305 -0.7155
vn 0.6863 -0.1305 -0.7156
vn 0.4476 0.8942 -0.0000
vn 0.6416 -0.7670 -0.0000
vn -0.4476 0.8942 -0.0000
vn -0.4476 0.6324 0.6323
vn -0.6863 -0.5982 0.4137
vn 0.6416 -0.5424 -0.5423
vn 0.6863 -0.5982 0.4137
vn -0.6416 -0.5423 -0.5424
vn 0.4476 0.6323 0.6323
vn -0.6416 -0.7670 -0.0000
vn -0.4870 -0.8734 -0.0000
vn -0.4870 -0.6176 0.6175
vn 0.4476 -0.6323 0.6323
vn -0.6416 0.7670 -0.0000
vn -0.6416 0.5423 -0.5424
vn 0.4476 -0.8942 -0.0000
vn 0.4476 -0.6323 -0.6323
vn -0.4870 -0.6176 -0.6176
vn -0.6416 0.5423 0.5424
vn 0.4476 -0.0000 -0.8942
vn -0.4870 -0.0000 -0.8734
vn -0.6416 -0.0000 0.7670
vn -0.4870 0.6176 -0.6175
vn -0.6416 -0.5423 0.5424
vn -0.4870 0.8734 -0.0000
vn 0.4476 0.6323 -0.6323
vn -0.4870 0.6176 0.6176
vn 0.4476 -0.0000 0.8942
vn -0.4870 -0.0000 0.8734
vn -0.6416 -0.0000 -0.7670
vn 0.6863 0.5982 -0.4137
vn -0.6863 0.5982 -0.4137
vn -0.4476 -0.6323 -0.6323
vn -0.6416 0.5424 0.5424
vn 0.6863 0.1304 0.7156
vn -0.6863 0.1305 0.7155
vn 0.4476 -0.8943 -0.0000
vn 0.6416 0.7670 -0.0000
vn -0.4476 -0.8942 -0.0000
vn 0.6416 0.5424 0.5424
vn 0.4870 -0.6176 -0.6176
vn 0.4870 -0.0000 -0.8734
vn -0.4476 -0.0000 -0.8942
vn 0.6416 -0.0000 0.7670
vn 0.4870 -0.8734 -0.0000
vn 0.4870 -0.6176 0.6176
vn 0.6416 0.5424 -0.5424
vn 0.4870 -0.0000 0.8734
vn -0.4476 -0.6323 0.6323
vn 0.6416 -0.0000 -0.7670
vn -0.4476 -0.0000 0.8942
vn -0.4476 0.6323 0.6323
vn 0.4870 0.6176 0.6176
vn 0.6416 -0.5424 -0.5424
vn 0.4870 0.8734 -0.0000
vn 0.4870 0.6176 -0.6176
vn 0.6416 -0.5424 0.5424
vn -0.4476 0.6323 -0.6323
vn -0.6863 0.5983 -0.4137
vn 0.4871 -0.6175 -0.6176
vn 0.4870 -0.6176 0.6175
vn 0.4871 0.6175 0.6176
vn 0.4870 0.6176 -0.6175
vn 0.6863 0.4137 0.5982
vn -0.6863 0.4137 0.5982
vn -0.6416 -0.5424 0.5424
vn 0.6863 -0.7155 0.1305
vn -0.6863 -0.7155 0.1305
vn 0.6416 0.5424 0.5423
vn -0.6863 0.7156 -0.1305
vn 0.6863 0.7155 -0.1305
vn -0.6863 -0.4137 -0.5982
vn 0.6863 -0.4137 -0.5982
vn -0.4870 -0.6176 0.6176
vn -0.6416 0.5424 -0.5424
vn -0.4870 0.6176 -0.6176
vn -0.6416 -0.5424 -0.5424
vn -0.6863 -0.7156 0.1305
vn 0.6863 0.1305 0.7155
vn -0.6863 -0.1305 0.7155
vn -0.6863 -0.5982 -0.4137
vn 0.6863 -0.1305 0.7155
vn 0.6863 -0.5982 -0.4137
vn 0.6863 0.1305 -0.7155
vn -0.6863 0.1305 -0.7155
vn 0.6863 0.5982 0.4137
vn -0.6863 0.5982 0.4137
vn 0.6863 0.7155 0.1305
vn -0.6863 0.7156 0.1305
vn 0.6863 -0.4137 0.5982
vn -0.6863 -0.4137 0.5982
vn -0.4476 -0.6324 -0.6323
vn -0.6863 0.7155 0.1305
vn -0.6863 -0.5983 0.4137
vn 0.6863 -0.1304 -0.7156
vn 0.4476 0.8943 -0.0000
vn -0.6863 0.7155 -0.1305
vn 0.6863 0.1305 -0.7156
vn 0.6863 0.1305 0.7156
vn -0.6863 0.4137 -0.5982
vn 0.6863 0.4137 -0.5982
vn -0.6863 -0.7156 -0.1305
vn 0.6863 -0.7155 -0.1305
vn -0.6863 -0.7155 -0.1305
vn 0.6863 -0.1305 0.7156
vn -0.6863 0.5983 0.4136
vn 0.6863 -0.1305 -0.7155
vn -0.6863 -0.5983 -0.4136
vn -0.4871 -0.6176 0.6176
vn -0.4871 0.6176 -0.6176
vn -0.4871 -0.8734 -0.0000
vn -0.4870 -0.6176 -0.6175
vn -0.4871 0.8734 -0.0000
vn -0.4870 0.6176 0.6175
vn 0.4871 0.8734 -0.0000
vn 0.4871 0.6176 0.6176
vn 0.4871 -0.6176 -0.6176
vn 0.4871 -0.8734 -0.0000
vt 0.000000 0.000000
s 1
f 162/1/1 161/1/2 15/1/3
f 161/1/2 162/1/1 126/1/4
f 162/1/1 125/1/5 121/1/6
f 162/1/1 163/1/7 122/1/8
f 164/1/9 163/1/7 121/1/6
f 163/1/7 164/1/9 12/1/10
f 161/1/2 164/1/9 11/1/11
f 164/1/9 161/1/2 16/1/12
f 166/1/13 165/1/14 3/1/15
f 166/1/13 6/1/16 4/1/17
f 166/1/13 5/1/18 1/1/19
f 167/1/20 2/1/21 6/1/16
f 167/1/20 1/1/19 9/1/22
f 168/1/23 10/1/24 2/1/21
f 169/1/25 168/1/23 9/1/22
f 168/1/23 169/1/25 8/1/26
f 170/1/27 169/1/25 7/1/28
f 170/1/27 16/1/12 8/1/26
f 170/1/27 15/1/3 11/1/11
f 171/1/29 12/1/10 16/1/12
f 171/1/29 11/1/11 13/1/30
f 172/1/31 14/1/32 12/1/10
f 165/1/14 172/1/31 13/1/30
f 172/1/31 165/1/14 4/1/17
f 174/1/33 173/1/34 25/1/35
f 173/1/34 174/1/33 154/1/36
f 175/1/37 174/1/33 153/1/19
f 175/1/37 150/1/16 154/1/36
f 176/1/38 175/1/37 149/1/39
f 175/1/37 176/1/38 18/1/40
f 173/1/34 176/1/38 17/1/41
f 173/1/34 26/1/42 18/1/40
f 178/1/43 177/1/44 21/1/45
f 178/1/43 26/1/42 22/1/46
f 178/1/43 25/1/35 17/1/41
f 179/1/47 18/1/40 26/1/42
f 180/1/48 179/1/47 17/1/41
f 180/1/48 24/1/49 18/1/40
f 181/1/50 180/1/48 23/1/51
f 181/1/50 20/1/52 24/1/49
f 181/1/50 19/1/53 31/1/54
f 182/1/55 32/1/56 20/1/52
f 182/1/55 31/1/54 27/1/5
f 183/1/57 28/1/4 32/1/56
f 184/1/58 183/1/57 27/1/5
f 184/1/58 30/1/59 28/1/4
f 177/1/44 184/1/58 29/1/60
f 184/1/58 177/1/44 22/1/46
f 186/1/33 185/1/61 41/1/35
f 185/1/61 186/1/33 138/1/36
f 187/1/37 186/1/33 137/1/19
f 186/1/33 187/1/37 134/1/16
f 188/1/38 187/1/37 133/1/39
f 187/1/37 188/1/38 34/1/40
f 185/1/61 188/1/38 33/1/41
f 188/1/38 185/1/61 42/1/42
f 189/1/44 37/1/45 41/1/35
f 189/1/44 190/1/62 42/1/42
f 190/1/62 41/1/35 33/1/41
f 190/1/62 191/1/47 34/1/40
f 192/1/63 191/1/47 33/1/41
f 192/1/63 40/1/49 34/1/40
f 192/1/63 39/1/51 35/1/53
f 192/1/63 193/1/50 36/1/52
f 193/1/50 35/1/53 47/1/54
f 193/1/50 194/1/64 48/1/56
f 194/1/64 47/1/54 43/1/5
f 194/1/64 195/1/57 44/1/4
f 196/1/65 195/1/57 43/1/5
f 196/1/65 46/1/59 44/1/4
f 196/1/65 45/1/60 37/1/45
f 196/1/65 189/1/44 38/1/46
f 198/1/66 197/1/67 51/1/60
f 197/1/67 198/1/66 112/1/68
f 198/1/66 111/1/28 109/1/22
f 198/1/66 199/1/69 110/1/24
f 199/1/69 109/1/22 53/1/45
f 199/1/69 200/1/70 54/1/46
f 197/1/67 200/1/70 53/1/45
f 200/1/70 197/1/67 52/1/59
f 202/1/57 201/1/55 59/1/54
f 202/1/57 64/1/4 60/1/8
f 202/1/57 63/1/5 51/1/60
f 203/1/58 52/1/59 64/1/4
f 204/1/44 203/1/58 51/1/60
f 204/1/44 54/1/46 52/1/59
f 204/1/44 53/1/45 49/1/35
f 204/1/44 205/1/43 50/1/71
f 206/1/47 205/1/43 49/1/35
f 206/1/47 58/1/40 50/1/71
f 206/1/47 57/1/41 55/1/51
f 207/1/48 56/1/49 58/1/40
f 208/1/50 207/1/48 55/1/51
f 208/1/50 62/1/52 56/1/49
f 201/1/55 208/1/50 61/1/53
f 208/1/50 201/1/55 60/1/8
f 210/1/72 209/1/73 13/1/30
f 209/1/73 210/1/72 118/1/52
f 210/1/72 117/1/53 113/1/51
f 210/1/72 211/1/74 114/1/49
f 212/1/75 211/1/74 113/1/51
f 211/1/74 212/1/75 4/1/17
f 209/1/73 212/1/75 3/1/15
f 212/1/75 209/1/73 14/1/32
f 214/1/13 213/1/76 67/1/15
f 214/1/13 70/1/16 68/1/77
f 215/1/20 214/1/13 69/1/18
f 214/1/13 215/1/20 66/1/36
f 216/1/23 215/1/20 65/1/19
f 215/1/20 216/1/23 74/1/24
f 217/1/78 216/1/23 73/1/22
f 216/1/23 217/1/78 72/1/68
f 218/1/27 217/1/78 71/1/28
f 218/1/27 80/1/12 72/1/68
f 219/1/29 218/1/27 79/1/3
f 218/1/27 219/1/29 76/1/79
f 220/1/31 219/1/29 75/1/11
f 219/1/29 220/1/31 78/1/32
f 213/1/76 220/1/31 77/1/30
f 220/1/31 213/1/76 68/1/77
f 222/1/66 221/1/67 127/1/60
f 221/1/67 222/1/66 8/1/26
f 223/1/69 222/1/66 7/1/28
f 222/1/66 223/1/69 10/1/24
f 224/1/80 223/1/69 9/1/22
f 223/1/69 224/1/80 124/1/46
f 224/1/80 123/1/45 127/1/60
f 224/1/80 221/1/67 128/1/59
f 226/1/57 225/1/55 91/1/54
f 226/1/57 96/1/4 92/1/56
f 226/1/57 95/1/5 83/1/60
f 226/1/57 227/1/58 84/1/59
f 227/1/58 83/1/60 85/1/45
f 227/1/58 228/1/44 86/1/46
f 229/1/43 228/1/44 85/1/45
f 229/1/43 82/1/42 86/1/46
f 230/1/47 229/1/43 81/1/35
f 230/1/47 90/1/40 82/1/42
f 230/1/47 89/1/41 87/1/51
f 230/1/47 231/1/48 88/1/49
f 231/1/48 87/1/51 93/1/53
f 231/1/48 232/1/50 94/1/52
f 225/1/55 232/1/50 93/1/53
f 225/1/55 92/1/56 94/1/52
f 234/1/33 233/1/34 81/1/35
f 233/1/34 234/1/33 66/1/36
f 235/1/81 234/1/33 65/1/19
f 235/1/81 70/1/16 66/1/36
f 236/1/38 235/1/81 69/1/18
f 235/1/81 236/1/38 90/1/40
f 236/1/38 89/1/41 81/1/35
f 236/1/38 233/1/34 82/1/42
f 238/1/66 237/1/67 45/1/60
f 237/1/67 238/1/66 144/1/68
f 239/1/69 238/1/66 143/1/28
f 239/1/69 142/1/24 144/1/68
f 240/1/80 239/1/69 141/1/22
f 239/1/69 240/1/80 38/1/46
f 240/1/80 37/1/45 45/1/60
f 240/1/80 237/1/67 46/1/59
f 242/1/33 241/1/34 49/1/35
f 241/1/34 242/1/33 106/1/36
f 243/1/81 242/1/33 105/1/19
f 242/1/33 243/1/81 102/1/16
f 244/1/38 243/1/81 101/1/18
f 243/1/81 244/1/38 58/1/40
f 244/1/38 57/1/41 49/1/35
f 244/1/38 241/1/34 50/1/71
f 246/1/66 245/1/67 83/1/60
f 245/1/67 246/1/66 72/1/68
f 246/1/66 71/1/28 73/1/22
f 247/1/69 74/1/24 72/1/68
f 248/1/70 247/1/69 73/1/22
f 247/1/69 248/1/70 86/1/46
f 248/1/70 85/1/45 83/1/60
f 248/1/70 245/1/67 84/1/59
f 250/1/82 249/1/83 83/1/60
f 250/1/82 96/1/4 84/1/59
f 251/1/84 250/1/82 95/1/5
f 250/1/82 251/1/84 80/1/12
f 251/1/84 79/1/3 71/1/28
f 251/1/84 252/1/85 72/1/68
f 249/1/83 252/1/85 71/1/28
f 252/1/85 249/1/83 84/1/59
f 254/1/86 253/1/87 57/1/41
f 253/1/87 254/1/86 102/1/16
f 254/1/86 101/1/18 97/1/15
f 254/1/86 255/1/88 98/1/77
f 256/1/89 255/1/88 97/1/15
f 255/1/88 256/1/89 56/1/49
f 253/1/87 256/1/89 55/1/51
f 253/1/87 58/1/40 56/1/49
f 258/1/90 257/1/91 123/1/45
f 257/1/91 258/1/90 10/1/24
f 259/1/92 258/1/90 9/1/22
f 258/1/90 259/1/92 2/1/21
f 260/1/93 259/1/92 1/1/19
f 259/1/92 260/1/93 120/1/71
f 257/1/91 260/1/93 119/1/94
f 260/1/93 257/1/91 124/1/46
f 261/1/95 53/1/45 109/1/22
f 261/1/95 262/1/90 110/1/24
f 263/1/92 262/1/90 109/1/22
f 263/1/92 106/1/36 110/1/24
f 264/1/93 263/1/92 105/1/19
f 263/1/92 264/1/93 50/1/71
f 264/1/93 49/1/35 53/1/45
f 261/1/95 54/1/46 50/1/71
f 266/1/86 265/1/87 89/1/41
f 265/1/87 266/1/86 70/1/16
f 266/1/86 69/1/18 67/1/15
f 266/1/86 267/1/88 68/1/77
f 268/1/89 267/1/88 67/1/15
f 267/1/88 268/1/89 88/1/49
f 265/1/87 268/1/89 87/1/51
f 265/1/87 90/1/40 88/1/49
f 270/1/96 269/1/1 43/1/5
f 269/1/1 270/1/96 48/1/56
f 271/1/9 270/1/96 47/1/54
f 270/1/96 271/1/9 136/1/79
f 272/1/97 271/1/9 135/1/11
f 271/1/9 272/1/97 140/1/12
f 269/1/1 272/1/97 139/1/98
f 272/1/97 269/1/1 44/1/4
f 274/1/99 273/1/73 77/1/30
f 273/1/73 274/1/99 94/1/52
f 274/1/99 93/1/53 87/1/51
f 274/1/99 275/1/74 88/1/49
f 276/1/75 275/1/74 87/1/51
f 275/1/74 276/1/75 68/1/77
f 276/1/75 67/1/15 77/1/30
f 273/1/73 78/1/32 68/1/77
f 278/1/7 277/1/1 27/1/5
f 278/1/7 32/1/56 28/1/4
f 279/1/9 278/1/7 31/1/54
f 278/1/7 279/1/9 152/1/79
f 280/1/97 279/1/9 151/1/11
f 280/1/97 156/1/12 152/1/79
f 277/1/1 280/1/97 155/1/98
f 280/1/97 277/1/1 28/1/4
f 282/1/100 281/1/87 115/1/41
f 281/1/87 282/1/100 6/1/16
f 282/1/100 5/1/18 3/1/15
f 283/1/88 4/1/17 6/1/16
f 284/1/89 283/1/88 3/1/15
f 283/1/88 284/1/89 114/1/49
f 281/1/87 284/1/89 113/1/51
f 281/1/87 116/1/40 114/1/49
f 286/1/90 285/1/95 85/1/45
f 285/1/95 286/1/90 74/1/24
f 287/1/92 286/1/90 73/1/22
f 286/1/90 287/1/92 66/1/36
f 288/1/93 287/1/92 65/1/19
f 287/1/92 288/1/93 82/1/42
f 288/1/93 81/1/35 85/1/45
f 285/1/95 86/1/46 82/1/42
f 290/1/33 289/1/34 119/1/94
f 289/1/34 290/1/33 2/1/21
f 291/1/101 290/1/33 1/1/19
f 290/1/33 291/1/101 6/1/16
f 292/1/38 291/1/101 5/1/18
f 291/1/101 292/1/38 116/1/40
f 292/1/38 115/1/41 119/1/94
f 292/1/38 289/1/34 120/1/71
f 294/1/102 293/1/103 11/1/11
f 293/1/103 294/1/102 122/1/8
f 295/1/104 294/1/102 121/1/6
f 294/1/102 295/1/104 118/1/52
f 296/1/105 295/1/104 117/1/53
f 295/1/104 296/1/105 14/1/32
f 293/1/103 296/1/105 13/1/30
f 296/1/105 293/1/103 12/1/10
f 298/1/102 297/1/103 103/1/11
f 297/1/103 298/1/102 60/1/8
f 298/1/102 59/1/54 61/1/53
f 299/1/106 62/1/52 60/1/8
f 299/1/106 61/1/53 99/1/30
f 299/1/106 300/1/105 100/1/32
f 297/1/103 300/1/105 99/1/30
f 297/1/103 104/1/79 100/1/32
f 302/1/82 301/1/83 127/1/60
f 302/1/82 126/1/4 128/1/59
f 303/1/107 302/1/82 125/1/5
f 302/1/82 303/1/107 16/1/12
f 303/1/107 15/1/3 7/1/28
f 304/1/85 8/1/26 16/1/12
f 301/1/83 304/1/85 7/1/28
f 304/1/85 301/1/83 128/1/59
f 306/1/72 305/1/73 131/1/30
f 305/1/73 306/1/72 36/1/52
f 306/1/72 35/1/53 39/1/51
f 306/1/72 307/1/74 40/1/49
f 308/1/75 307/1/74 39/1/51
f 307/1/74 308/1/75 130/1/77
f 305/1/73 308/1/75 129/1/15
f 305/1/73 132/1/32 130/1/77
f 309/1/73 99/1/30 61/1/53
f 309/1/73 310/1/99 62/1/52
f 311/1/74 310/1/99 61/1/53
f 310/1/99 311/1/74 56/1/49
f 312/1/75 311/1/74 55/1/51
f 311/1/74 312/1/75 98/1/77
f 312/1/75 97/1/15 99/1/30
f 312/1/75 309/1/73 100/1/32
f 314/1/102 313/1/103 135/1/11
f 313/1/103 314/1/102 48/1/56
f 315/1/106 314/1/102 47/1/54
f 315/1/106 36/1/52 48/1/56
f 316/1/105 315/1/106 35/1/53
f 315/1/106 316/1/105 132/1/32
f 316/1/105 131/1/30 135/1/11
f 316/1/105 313/1/103 136/1/79
f 318/1/86 317/1/87 33/1/41
f 317/1/87 318/1/86 134/1/16
f 319/1/88 318/1/86 133/1/39
f 318/1/86 319/1/88 130/1/77
f 320/1/108 319/1/88 129/1/15
f 319/1/88 320/1/108 40/1/49
f 320/1/108 39/1/51 33/1/41
f 320/1/108 317/1/87 34/1/40
f 322/1/102 321/1/103 75/1/11
f 321/1/103 322/1/102 92/1/56
f 322/1/102 91/1/54 93/1/53
f 323/1/106 94/1/52 92/1/56
f 324/1/105 323/1/106 93/1/53
f 323/1/106 324/1/105 78/1/32
f 321/1/103 324/1/105 77/1/30
f 324/1/105 321/1/103 76/1/79
f 326/1/82 325/1/83 51/1/60
f 326/1/82 64/1/4 52/1/59
f 327/1/84 326/1/82 63/1/5
f 326/1/82 327/1/84 108/1/12
f 327/1/84 107/1/3 111/1/28
f 327/1/84 328/1/85 112/1/68
f 325/1/83 328/1/85 111/1/28
f 328/1/85 325/1/83 52/1/59
f 330/1/90 329/1/95 37/1/45
f 329/1/95 330/1/90 142/1/24
f 330/1/90 141/1/22 137/1/19
f 330/1/90 331/1/92 138/1/36
f 332/1/93 331/1/92 137/1/19
f 331/1/92 332/1/93 42/1/42
f 329/1/95 332/1/93 41/1/35
f 329/1/95 38/1/46 42/1/42
f 334/1/99 333/1/73 147/1/30
f 333/1/73 334/1/99 20/1/52
f 334/1/99 19/1/53 23/1/51
f 335/1/74 24/1/49 20/1/52
f 336/1/75 335/1/74 23/1/51
f 335/1/74 336/1/75 146/1/17
f 336/1/75 145/1/15 147/1/30
f 336/1/75 333/1/73 148/1/32
f 337/1/1 63/1/5 59/1/54
f 337/1/1 338/1/7 60/1/8
f 339/1/9 338/1/7 59/1/54
f 338/1/7 339/1/9 104/1/79
f 340/1/109 339/1/9 103/1/11
f 339/1/9 340/1/109 108/1/12
f 337/1/1 340/1/109 107/1/3
f 340/1/109 337/1/1 64/1/4
f 342/1/102 341/1/103 151/1/11
f 341/1/103 342/1/102 32/1/56
f 342/1/102 31/1/54 19/1/53
f 342/1/102 343/1/106 20/1/52
f 344/1/105 343/1/106 19/1/53
f 343/1/106 344/1/105 148/1/32
f 344/1/105 147/1/30 151/1/11
f 341/1/103 152/1/79 148/1/32
f 346/1/100 345/1/87 17/1/41
f 345/1/87 346/1/100 150/1/16
f 347/1/88 346/1/100 149/1/39
f 347/1/88 146/1/17 150/1/16
f 348/1/89 347/1/88 145/1/15
f 347/1/88 348/1/89 24/1/49
f 348/1/89 23/1/51 17/1/41
f 345/1/87 18/1/40 24/1/49
f 349/1/110 45/1/60 43/1/5
f 349/1/110 350/1/82 44/1/4
f 351/1/84 350/1/82 43/1/5
f 350/1/82 351/1/84 140/1/12
f 352/1/85 351/1/84 139/1/98
f 351/1/84 352/1/85 144/1/68
f 349/1/110 352/1/85 143/1/28
f 352/1/85 349/1/110 46/1/59
f 354/1/90 353/1/91 21/1/45
f 353/1/91 354/1/90 158/1/24
f 354/1/90 157/1/22 153/1/19
f 355/1/92 154/1/36 158/1/24
f 356/1/93 355/1/92 153/1/19
f 355/1/92 356/1/93 26/1/42
f 356/1/93 25/1/35 21/1/45
f 353/1/91 22/1/46 26/1/42
f 358/1/13 357/1/76 97/1/15
f 358/1/13 102/1/16 98/1/77
f 358/1/13 101/1/18 105/1/19
f 358/1/13 359/1/20 106/1/36
f 360/1/23 359/1/20 105/1/19
f 359/1/20 360/1/23 110/1/24
f 361/1/78 360/1/23 109/1/22
f 360/1/23 361/1/78 112/1/68
f 362/1/27 361/1/78 111/1/28
f 362/1/27 108/1/12 112/1/68
f 362/1/27 107/1/3 103/1/11
f 362/1/27 363/1/29 104/1/79
f 364/1/31 363/1/29 103/1/11
f 363/1/29 364/1/31 100/1/32
f 357/1/76 364/1/31 99/1/30
f 364/1/31 357/1/76 98/1/77
f 365/1/83 29/1/60 27/1/5
f 366/1/82 28/1/4 30/1/59
f 367/1/107 366/1/82 27/1/5
f 366/1/82 367/1/107 156/1/12
f 368/1/85 367/1/107 155/1/98
f 368/1/85 160/1/26 156/1/12
f 365/1/83 368/1/85 159/1/28
f 368/1/85 365/1/83 30/1/59
f 369/1/31 131/1/30 129/1/15
f 369/1/31 370/1/111 130/1/77
f 371/1/13 370/1/111 129/1/15
f 371/1/13 134/1/16 130/1/77
f 372/1/20 371/1/13 133/1/39
f 372/1/20 138/1/36 134/1/16
f 373/1/23 372/1/20 137/1/19
f 373/1/23 142/1/24 138/1/36
f 373/1/23 141/1/22 143/1/28
f 373/1/23 374/1/112 144/1/68
f 375/1/27 374/1/112 143/1/28
f 375/1/27 140/1/12 144/1/68
f 376/1/29 375/1/27 139/1/98
f 376/1/29 136/1/79 140/1/12
f 369/1/31 376/1/29 135/1/11
f 369/1/31 132/1/32 136/1/79
f 378/1/66 377/1/67 29/1/60
f 377/1/67 378/1/66 160/1/26
f 378/1/66 159/1/28 157/1/22
f 378/1/66 379/1/69 158/1/24
f 380/1/70 379/1/69 157/1/22
f 379/1/69 380/1/70 22/1/46
f 380/1/70 21/1/45 29/1/60
f 377/1/67 30/1/59 22/1/46
f 381/1/31 147/1/30 145/1/15
f 381/1/31 382/1/76 146/1/17
f 382/1/76 145/1/15 149/1/39
f 383/1/113 150/1/16 146/1/17
f 383/1/113 149/1/39 153/1/19
f 383/1/113 384/1/114 154/1/36
f 385/1/23 384/1/114 153/1/19
f 384/1/114 385/1/23 158/1/24
f 385/1/23 157/1/22 159/1/28
f 385/1/23 386/1/78 160/1/26
f 386/1/78 159/1/28 155/1/98
f 387/1/115 156/1/12 160/1/26
f 387/1/115 155/1/98 151/1/11
f 387/1/115 388/1/116 152/1/79
f 381/1/31 388/1/116 151/1/11
f 388/1/116 381/1/31 148/1/32
f 389/1/1 95/1/5 91/1/54
f 389/1/1 390/1/7 92/1/56
f 391/1/9 390/1/7 91/1/54
f 390/1/7 391/1/9 76/1/79
f 392/1/109 391/1/9 75/1/11
f 392/1/109 80/1/12 76/1/79
f 389/1/1 392/1/109 79/1/3
f 392/1/109 389/1/1 96/1/4
f 394/1/117 393/1/118 121/1/6
f 394/1/117 126/1/4 122/1/8
f 395/1/58 394/1/117 125/1/5
f 395/1/58 128/1/59 126/1/4
f 395/1/58 127/1/60 123/1/45
f 396/1/44 124/1/46 128/1/59
f 397/1/119 396/1/44 123/1/45
f 396/1/44 397/1/119 120/1/71
f 398/1/120 397/1/119 119/1/94
f 398/1/120 116/1/40 120/1/71
f 399/1/48 398/1/120 115/1/41
f 399/1/48 114/1/49 116/1/40
f 399/1/48 113/1/51 117/1/53
f 400/1/50 118/1/52 114/1/49
f 393/1/118 400/1/50 117/1/53
f 400/1/50 393/1/118 122/1/8
f 162/1/1 15/1/3 125/1/5
f 161/1/2 126/1/4 16/1/12
f 162/1/1 121/1/6 163/1/7
f 162/1/1 122/1/8 126/1/4
f 164/1/9 121/1/6 11/1/11
f 163/1/7 12/1/10 122/1/8
f 161/1/2 11/1/11 15/1/3
f 164/1/9 16/1/12 12/1/10
f 166/1/13 3/1/15 5/1/18
f 166/1/13 4/1/17 165/1/14
f 166/1/13 1/1/19 167/1/20
f 167/1/20 6/1/16 166/1/13
f 167/1/20 9/1/22 168/1/23
f 168/1/23 2/1/21 167/1/20
f 169/1/25 9/1/22 7/1/28
f 168/1/23 8/1/26 10/1/24
f 170/1/27 7/1/28 15/1/3
f 170/1/27 8/1/26 169/1/25
f 170/1/27 11/1/11 171/1/29
f 171/1/29 16/1/12 170/1/27
f 171/1/29 13/1/30 172/1/31
f 172/1/31 12/1/10 171/1/29
f 165/1/14 13/1/30 3/1/15
f 172/1/31 4/1/17 14/1/32
f 174/1/33 25/1/35 153/1/19
f 173/1/34 154/1/36 26/1/42
f 175/1/37 153/1/19 149/1/39
f 175/1/37 154/1/36 174/1/33
f 176/1/38 149/1/39 17/1/41
f 175/1/37 18/1/40 150/1/16
f 173/1/34 17/1/41 25/1/35
f 173/1/34 18/1/40 176/1/38
f 178/1/43 21/1/45 25/1/35
f 178/1/43 22/1/46 177/1/44
f 178/1/43 17/1/41 179/1/47
f 179/1/47 26/1/42 178/1/43
f 180/1/48 17/1/41 23/1/51
f 180/1/48 18/1/40 179/1/47
f 181/1/50 23/1/51 19/1/53
f 181/1/50 24/1/49 180/1/48
f 181/1/50 31/1/54 182/1/55
f 182/1/55 20/1/52 181/1/50
f 182/1/55 27/1/5 183/1/57
f 183/1/57 32/1/56 182/1/55
f 184/1/58 27/1/5 29/1/60
f 184/1/58 28/1/4 183/1/57
f 177/1/44 29/1/60 21/1/45
f 184/1/58 22/1/46 30/1/59
f 186/1/33 41/1/35 137/1/19
f 185/1/61 138/1/36 42/1/42
f 187/1/37 137/1/19 133/1/39
f 186/1/33 134/1/16 138/1/36
f 188/1/38 133/1/39 33/1/41
f 187/1/37 34/1/40 134/1/16
f 185/1/61 33/1/41 41/1/35
f 188/1/38 42/1/42 34/1/40
f 189/1/44 41/1/35 190/1/62
f 189/1/44 42/1/42 38/1/46
f 190/1/62 33/1/41 191/1/47
f 190/1/62 34/1/40 42/1/42
f 192/1/63 33/1/41 39/1/51
f 192/1/63 34/1/40 191/1/47
f 192/1/63 35/1/53 193/1/50
f 192/1/63 36/1/52 40/1/49
f 193/1/50 47/1/54 194/1/64
f 193/1/50 48/1/56 36/1/52
f 194/1/64 43/1/5 195/1/57
f 194/1/64 44/1/4 48/1/56
f 196/1/65 43/1/5 45/1/60
f 196/1/65 44/1/4 195/1/57
f 196/1/65 37/1/45 189/1/44
f 196/1/65 38/1/46 46/1/59
f 198/1/66 51/1/60 111/1/28
f 197/1/67 112/1/68 52/1/59
f 198/1/66 109/1/22 199/1/69
f 198/1/66 110/1/24 112/1/68
f 199/1/69 53/1/45 200/1/70
f 199/1/69 54/1/46 110/1/24
f 197/1/67 53/1/45 51/1/60
f 200/1/70 52/1/59 54/1/46
f 202/1/57 59/1/54 63/1/5
f 202/1/57 60/1/8 201/1/55
f 202/1/57 51/1/60 203/1/58
f 203/1/58 64/1/4 202/1/57
f 204/1/44 51/1/60 53/1/45
f 204/1/44 52/1/59 203/1/58
f 204/1/44 49/1/35 205/1/43
f 204/1/44 50/1/71 54/1/46
f 206/1/47 49/1/35 57/1/41
f 206/1/47 50/1/71 205/1/43
f 206/1/47 55/1/51 207/1/48
f 207/1/48 58/1/40 206/1/47
f 208/1/50 55/1/51 61/1/53
f 208/1/50 56/1/49 207/1/48
f 201/1/55 61/1/53 59/1/54
f 208/1/50 60/1/8 62/1/52
f 210/1/72 13/1/30 117/1/53
f 209/1/73 118/1/52 14/1/32
f 210/1/72 113/1/51 211/1/74
f 210/1/72 114/1/49 118/1/52
f 212/1/75 113/1/51 3/1/15
f 211/1/74 4/1/17 114/1/49
f 209/1/73 3/1/15 13/1/30
f 212/1/75 14/1/32 4/1/17
f 214/1/13 67/1/15 69/1/18
f 214/1/13 68/1/77 213/1/76
f 215/1/20 69/1/18 65/1/19
f 214/1/13 66/1/36 70/1/16
f 216/1/23 65/1/19 73/1/22
f 215/1/20 74/1/24 66/1/36
f 217/1/78 73/1/22 71/1/28
f 216/1/23 72/1/68 74/1/24
f 218/1/27 71/1/28 79/1/3
f 218/1/27 72/1/68 217/1/78
f 219/1/29 79/1/3 75/1/11
f 218/1/27 76/1/79 80/1/12
f 220/1/31 75/1/11 77/1/30
f 219/1/29 78/1/32 76/1/79
f 213/1/76 77/1/30 67/1/15
f 220/1/31 68/1/77 78/1/32
f 222/1/66 127/1/60 7/1/28
f 221/1/67 8/1/26 128/1/59
f 223/1/69 7/1/28 9/1/22
f 222/1/66 10/1/24 8/1/26
f 224/1/80 9/1/22 123/1/45
f 223/1/69 124/1/46 10/1/24
f 224/1/80 127/1/60 221/1/67
f 224/1/80 128/1/59 124/1/46
f 226/1/57 91/1/54 95/1/5
f 226/1/57 92/1/56 225/1/55
f 226/1/57 83/1/60 227/1/58
f 226/1/57 84/1/59 96/1/4
f 227/1/58 85/1/45 228/1/44
f 227/1/58 86/1/46 84/1/59
f 229/1/43 85/1/45 81/1/35
f 229/1/43 86/1/46 228/1/44
f 230/1/47 81/1/35 89/1/41
f 230/1/47 82/1/42 229/1/43
f 230/1/47 87/1/51 231/1/48
f 230/1/47 88/1/49 90/1/40
f 231/1/48 93/1/53 232/1/50
f 231/1/48 94/1/52 88/1/49
f 225/1/55 93/1/53 91/1/54
f 225/1/55 94/1/52 232/1/50
f 234/1/33 81/1/35 65/1/19
f 233/1/34 66/1/36 82/1/42
f 235/1/81 65/1/19 69/1/18
f 235/1/81 66/1/36 234/1/33
f 236/1/38 69/1/18 89/1/41
f 235/1/81 90/1/40 70/1/16
f 236/1/38 81/1/35 233/1/34
f 236/1/38 82/1/42 90/1/40
f 238/1/66 45/1/60 143/1/28
f 237/1/67 144/1/68 46/1/59
f 239/1/69 143/1/28 141/1/22
f 239/1/69 144/1/68 238/1/66
f 240/1/80 141/1/22 37/1/45
f 239/1/69 38/1/46 142/1/24
f 240/1/80 45/1/60 237/1/67
f 240/1/80 46/1/59 38/1/46
f 242/1/33 49/1/35 105/1/19
f 241/1/34 106/1/36 50/1/71
f 243/1/81 105/1/19 101/1/18
f 242/1/33 102/1/16 106/1/36
f 244/1/38 101/1/18 57/1/41
f 243/1/81 58/1/40 102/1/16
f 244/1/38 49/1/35 241/1/34
f 244/1/38 50/1/71 58/1/40
f 246/1/66 83/1/60 71/1/28
f 245/1/67 72/1/68 84/1/59
f 246/1/66 73/1/22 247/1/69
f 247/1/69 72/1/68 246/1/66
f 248/1/70 73/1/22 85/1/45
f 247/1/69 86/1/46 74/1/24
f 248/1/70 83/1/60 245/1/67
f 248/1/70 84/1/59 86/1/46
f 250/1/82 83/1/60 95/1/5
f 250/1/82 84/1/59 249/1/83
f 251/1/84 95/1/5 79/1/3
f 250/1/82 80/1/12 96/1/4
f 251/1/84 71/1/28 252/1/85
f 251/1/84 72/1/68 80/1/12
f 249/1/83 71/1/28 83/1/60
f 252/1/85 84/1/59 72/1/68
f 254/1/86 57/1/41 101/1/18
f 253/1/87 102/1/16 58/1/40
f 254/1/86 97/1/15 255/1/88
f 254/1/86 98/1/77 102/1/16
f 256/1/89 97/1/15 55/1/51
f 255/1/88 56/1/49 98/1/77
f 253/1/87 55/1/51 57/1/41
f 253/1/87 56/1/49 256/1/89
f 258/1/90 123/1/45 9/1/22
f 257/1/91 10/1/24 124/1/46
f 259/1/92 9/1/22 1/1/19
f 258/1/90 2/1/21 10/1/24
f 260/1/93 1/1/19 119/1/94
f 259/1/92 120/1/71 2/1/21
f 257/1/91 119/1/94 123/1/45
f 260/1/93 124/1/46 120/1/71
f 261/1/95 109/1/22 262/1/90
f 261/1/95 110/1/24 54/1/46
f 263/1/92 109/1/22 105/1/19
f 263/1/92 110/1/24 262/1/90
f 264/1/93 105/1/19 49/1/35
f 263/1/92 50/1/71 106/1/36
f 264/1/93 53/1/45 261/1/95
f 261/1/95 50/1/71 264/1/93
f 266/1/86 89/1/41 69/1/18
f 265/1/87 70/1/16 90/1/40
f 266/1/86 67/1/15 267/1/88
f 266/1/86 68/1/77 70/1/16
f 268/1/89 67/1/15 87/1/51
f 267/1/88 88/1/49 68/1/77
f 265/1/87 87/1/51 89/1/41
f 265/1/87 88/1/49 268/1/89
f 270/1/96 43/1/5 47/1/54
f 269/1/1 48/1/56 44/1/4
f 271/1/9 47/1/54 135/1/11
f 270/1/96 136/1/79 48/1/56
f 272/1/97 135/1/11 139/1/98
f 271/1/9 140/1/12 136/1/79
f 269/1/1 139/1/98 43/1/5
f 272/1/97 44/1/4 140/1/12
f 274/1/99 77/1/30 93/1/53
f 273/1/73 94/1/52 78/1/32
f 274/1/99 87/1/51 275/1/74
f 274/1/99 88/1/49 94/1/52
f 276/1/75 87/1/51 67/1/15
f 275/1/74 68/1/77 88/1/49
f 276/1/75 77/1/30 273/1/73
f 273/1/73 68/1/77 276/1/75
f 278/1/7 27/1/5 31/1/54
f 278/1/7 28/1/4 277/1/1
f 279/1/9 31/1/54 151/1/11
f 278/1/7 152/1/79 32/1/56
f 280/1/97 151/1/11 155/1/98
f 280/1/97 152/1/79 279/1/9
f 277/1/1 155/1/98 27/1/5
f 280/1/97 28/1/4 156/1/12
f 282/1/100 115/1/41 5/1/18
f 281/1/87 6/1/16 116/1/40
f 282/1/100 3/1/15 283/1/88
f 283/1/88 6/1/16 282/1/100
f 284/1/89 3/1/15 113/1/51
f 283/1/88 114/1/49 4/1/17
f 281/1/87 113/1/51 115/1/41
f 281/1/87 114/1/49 284/1/89
f 286/1/90 85/1/45 73/1/22
f 285/1/95 74/1/24 86/1/46
f 287/1/92 73/1/22 65/1/19
f 286/1/90 66/1/36 74/1/24
f 288/1/93 65/1/19 81/1/35
f 287/1/92 82/1/42 66/1/36
f 288/1/93 85/1/45 285/1/95
f 285/1/95 82/1/42 288/1/93
f 290/1/33 119/1/94 1/1/19
f 289/1/34 2/1/21 120/1/71
f 291/1/101 1/1/19 5/1/18
f 290/1/33 6/1/16 2/1/21
f 292/1/38 5/1/18 115/1/41
f 291/1/101 116/1/40 6/1/16
f 292/1/38 119/1/94 289/1/34
f 292/1/38 120/1/71 116/1/40
f 294/1/102 11/1/11 121/1/6
f 293/1/103 122/1/8 12/1/10
f 295/1/104 121/1/6 117/1/53
f 294/1/102 118/1/52 122/1/8
f 296/1/105 117/1/53 13/1/30
f 295/1/104 14/1/32 118/1/52
f 293/1/103 13/1/30 11/1/11
f 296/1/105 12/1/10 14/1/32
f 298/1/102 103/1/11 59/1/54
f 297/1/103 60/1/8 104/1/79
f 298/1/102 61/1/53 299/1/106
f 299/1/106 60/1/8 298/1/102
f 299/1/106 99/1/30 300/1/105
f 299/1/106 100/1/32 62/1/52
f 297/1/103 99/1/30 103/1/11
f 297/1/103 100/1/32 300/1/105
f 302/1/82 127/1/60 125/1/5
f 302/1/82 128/1/59 301/1/83
f 303/1/107 125/1/5 15/1/3
f 302/1/82 16/1/12 126/1/4
f 303/1/107 7/1/28 304/1/85
f 304/1/85 16/1/12 303/1/107
f 301/1/83 7/1/28 127/1/60
f 304/1/85 128/1/59 8/1/26
f 306/1/72 131/1/30 35/1/53
f 305/1/73 36/1/52 132/1/32
f 306/1/72 39/1/51 307/1/74
f 306/1/72 40/1/49 36/1/52
f 308/1/75 39/1/51 129/1/15
f 307/1/74 130/1/77 40/1/49
f 305/1/73 129/1/15 131/1/30
f 305/1/73 130/1/77 308/1/75
f 309/1/73 61/1/53 310/1/99
f 309/1/73 62/1/52 100/1/32
f 311/1/74 61/1/53 55/1/51
f 310/1/99 56/1/49 62/1/52
f 312/1/75 55/1/51 97/1/15
f 311/1/74 98/1/77 56/1/49
f 312/1/75 99/1/30 309/1/73
f 312/1/75 100/1/32 98/1/77
f 314/1/102 135/1/11 47/1/54
f 313/1/103 48/1/56 136/1/79
f 315/1/106 47/1/54 35/1/53
f 315/1/106 48/1/56 314/1/102
f 316/1/105 35/1/53 131/1/30
f 315/1/106 132/1/32 36/1/52
f 316/1/105 135/1/11 313/1/103
f 316/1/105 136/1/79 132/1/32
f 318/1/86 33/1/41 133/1/39
f 317/1/87 134/1/16 34/1/40
f 319/1/88 133/1/39 129/1/15
f 318/1/86 130/1/77 134/1/16
f 320/1/108 129/1/15 39/1/51
f 319/1/88 40/1/49 130/1/77
f 320/1/108 33/1/41 317/1/87
f 320/1/108 34/1/40 40/1/49
f 322/1/102 75/1/11 91/1/54
f 321/1/103 92/1/56 76/1/79
f 322/1/102 93/1/53 323/1/106
f 323/1/106 92/1/56 322/1/102
f 324/1/105 93/1/53 77/1/30
f 323/1/106 78/1/32 94/1/52
f 321/1/103 77/1/30 75/1/11
f 324/1/105 76/1/79 78/1/32
f 326/1/82 51/1/60 63/1/5
f 326/1/82 52/1/59 325/1/83
f 327/1/84 63/1/5 107/1/3
f 326/1/82 108/1/12 64/1/4
f 327/1/84 111/1/28 328/1/85
f 327/1/84 112/1/68 108/1/12
f 325/1/83 111/1/28 51/1/60
f 328/1/85 52/1/59 112/1/68
f 330/1/90 37/1/45 141/1/22
f 329/1/95 142/1/24 38/1/46
f 330/1/90 137/1/19 331/1/92
f 330/1/90 138/1/36 142/1/24
f 332/1/93 137/1/19 41/1/35
f 331/1/92 42/1/42 138/1/36
f 329/1/95 41/1/35 37/1/45
f 329/1/95 42/1/42 332/1/93
f 334/1/99 147/1/30 19/1/53
f 333/1/73 20/1/52 148/1/32
f 334/1/99 23/1/51 335/1/74
f 335/1/74 20/1/52 334/1/99
f 336/1/75 23/1/51 145/1/15
f 335/1/74 146/1/17 24/1/49
f 336/1/75 147/1/30 333/1/73
f 336/1/75 148/1/32 146/1/17
f 337/1/1 59/1/54 338/1/7
f 337/1/1 60/1/8 64/1/4
f 339/1/9 59/1/54 103/1/11
f 338/1/7 104/1/79 60/1/8
f 340/1/109 103/1/11 107/1/3
f 339/1/9 108/1/12 104/1/79
f 337/1/1 107/1/3 63/1/5
f 340/1/109 64/1/4 108/1/12
f 342/1/102 151/1/11 31/1/54
f 341/1/103 32/1/56 152/1/79
f 342/1/102 19/1/53 343/1/106
f 342/1/102 20/1/52 32/1/56
f 344/1/105 19/1/53 147/1/30
f 343/1/106 148/1/32 20/1/52
f 344/1/105 151/1/11 341/1/103
f 341/1/103 148/1/32 344/1/105
f 346/1/100 17/1/41 149/1/39
f 345/1/87 150/1/16 18/1/40
f 347/1/88 149/1/39 145/1/15
f 347/1/88 150/1/16 346/1/100
f 348/1/89 145/1/15 23/1/51
f 347/1/88 24/1/49 146/1/17
f 348/1/89 17/1/41 345/1/87
f 345/1/87 24/1/49 348/1/89
f 349/1/110 43/1/5 350/1/82
f 349/1/110 44/1/4 46/1/59
f 351/1/84 43/1/5 139/1/98
f 350/1/82 140/1/12 44/1/4
f 352/1/85 139/1/98 143/1/28
f 351/1/84 144/1/68 140/1/12
f 349/1/110 143/1/28 45/1/60
f 352/1/85 46/1/59 144/1/68
f 354/1/90 21/1/45 157/1/22
f 353/1/91 158/1/24 22/1/46
f 354/1/90 153/1/19 355/1/92
f 355/1/92 158/1/24 354/1/90
f 356/1/93 153/1/19 25/1/35
f 355/1/92 26/1/42 154/1/36
f 356/1/93 21/1/45 353/1/91
f 353/1/91 26/1/42 356/1/93
f 358/1/13 97/1/15 101/1/18
f 358/1/13 98/1/77 357/1/76
f 358/1/13 105/1/19 359/1/20
f 358/1/13 106/1/36 102/1/16
f 360/1/23 105/1/19 109/1/22
f 359/1/20 110/1/24 106/1/36
f 361/1/78 109/1/22 111/1/28
f 360/1/23 112/1/68 110/1/24
f 362/1/27 111/1/28 107/1/3
f 362/1/27 112/1/68 361/1/78
f 362/1/27 103/1/11 363/1/29
f 362/1/27 104/1/79 108/1/12
f 364/1/31 103/1/11 99/1/30
f 363/1/29 100/1/32 104/1/79
f 357/1/76 99/1/30 97/1/15
f 364/1/31 98/1/77 100/1/32
f 365/1/83 27/1/5 366/1/82
f 366/1/82 30/1/59 365/1/83
f 367/1/107 27/1/5 155/1/98
f 366/1/82 156/1/12 28/1/4
f 368/1/85 155/1/98 159/1/28
f 368/1/85 156/1/12 367/1/107
f 365/1/83 159/1/28 29/1/60
f 368/1/85 30/1/59 160/1/26
f 369/1/31 129/1/15 370/1/111
f 369/1/31 130/1/77 132/1/32
f 371/1/13 129/1/15 133/1/39
f 371/1/13 130/1/77 370/1/111
f 372/1/20 133/1/39 137/1/19
f 372/1/20 134/1/16 371/1/13
f 373/1/23 137/1/19 141/1/22
f 373/1/23 138/1/36 372/1/20
f 373/1/23 143/1/28 374/1/112
f 373/1/23 144/1/68 142/1/24
f 375/1/27 143/1/28 139/1/98
f 375/1/27 144/1/68 374/1/112
f 376/1/29 139/1/98 135/1/11
f 376/1/29 140/1/12 375/1/27
f 369/1/31 135/1/11 131/1/30
f 369/1/31 136/1/79 376/1/29
f 378/1/66 29/1/60 159/1/28
f 377/1/67 160/1/26 30/1/59
f 378/1/66 157/1/22 379/1/69
f 378/1/66 158/1/24 160/1/26
f 380/1/70 157/1/22 21/1/45
f 379/1/69 22/1/46 158/1/24
f 380/1/70 29/1/60 377/1/67
f 377/1/67 22/1/46 380/1/70
f 381/1/31 145/1/15 382/1/76
f 381/1/31 146/1/17 148/1/32
f 382/1/76 149/1/39 383/1/113
f 383/1/113 146/1/17 382/1/76
f 383/1/113 153/1/19 384/1/114
f 383/1/113 154/1/36 150/1/16
f 385/1/23 153/1/19 157/1/22
f 384/1/114 158/1/24 154/1/36
f 385/1/23 159/1/28 386/1/78
f 385/1/23 160/1/26 158/1/24
f 386/1/78 155/1/98 387/1/115
f 387/1/115 160/1/26 386/1/78
f 387/1/115 151/1/11 388/1/116
f 387/1/115 152/1/79 156/1/12
f 381/1/31 151/1/11 147/1/30
f 388/1/116 148/1/32 152/1/79
f 389/1/1 91/1/54 390/1/7
f 389/1/1 92/1/56 96/1/4
f 391/1/9 91/1/54 75/1/11
f 390/1/7 76/1/79 92/1/56
f 392/1/109 75/1/11 79/1/3
f 392/1/109 76/1/79 391/1/9
f 389/1/1 79/1/3 95/1/5
f 392/1/109 96/1/4 80/1/12
f 394/1/117 121/1/6 125/1/5
f 394/1/117 122/1/8 393/1/118
f 395/1/58 125/1/5 127/1/60
f 395/1/58 126/1/4 394/1/117
f 395/1/58 123/1/45 396/1/44
f 396/1/44 128/1/59 395/1/58
f 397/1/119 123/1/45 119/1/94
f 396/1/44 120/1/71 124/1/46
f 398/1/120 119/1/94 115/1/41
f 398/1/120 120/1/71 397/1/119
f 399/1/48 115/1/41 113/1/51
f 399/1/48 116/1/40 398/1/120
f 399/1/48 117/1/53 400/1/50
f 400/1/50 114/1/49 399/1/48
f 393/1/118 117/1/53 121/1/6
f 400/1/50 122/1/8 118/1/52
