# Blender 5.2.0 LTS
# www.blender.org
mtllib glass mag inner.mtl
o mag_inner
v -0.060579 -0.260193 -0.082077
v -0.060309 -0.260949 -0.082673
v -0.060579 -0.260193 0.082077
v -0.060309 -0.260949 0.082673
v -0.092105 -0.250985 -0.082077
v -0.092884 -0.251263 -0.082639
v -0.092105 -0.250985 0.082077
v -0.092884 -0.251263 0.082639
v 0.057200 0.260193 -0.082077
v 0.056693 0.260846 -0.082640
v 0.057200 0.260193 0.082077
v 0.056693 0.260846 0.082639
v 0.088725 0.250986 -0.082077
v 0.089360 0.251478 -0.082673
v 0.088725 0.250986 0.082077
v 0.089360 0.251478 0.082673
v 0.055309 -0.294041 -0.082077
v 0.055579 -0.294797 -0.082673
v 0.055309 -0.294041 0.082077
v 0.055579 -0.294797 0.082673
v 0.023782 -0.284834 -0.082077
v 0.023003 -0.285112 -0.082639
v 0.023782 -0.284834 0.082077
v 0.023003 -0.285112 0.082639
v 0.173086 0.226345 -0.082077
v 0.172579 0.226998 -0.082639
v 0.173086 0.226345 0.082077
v 0.172579 0.226998 0.082639
v 0.204613 0.217136 -0.082077
v 0.205248 0.217628 -0.082673
v 0.204613 0.217136 0.082077
v 0.205248 0.217628 0.082673
v -0.176466 -0.226345 -0.082077
v -0.176196 -0.227101 -0.082673
v -0.176466 -0.226345 0.082077
v -0.176196 -0.227101 0.082673
v -0.207992 -0.217137 -0.082077
v -0.208771 -0.217415 -0.082639
v -0.207992 -0.217137 0.082077
v -0.208771 -0.217415 0.082639
v -0.058689 0.294041 -0.082077
v -0.059196 0.294694 -0.082640
v -0.058689 0.294041 0.082077
v -0.059196 0.294694 0.082639
v -0.027162 0.284833 -0.082077
v -0.026527 0.285325 -0.082673
v -0.027162 0.284833 0.082077
v -0.026527 0.285325 0.082673
v 0.207992 0.113688 -0.082077
v 0.208712 0.113667 -0.082771
v 0.207992 0.113688 0.082077
v 0.208712 0.113667 0.082771
v 0.197747 0.000059 -0.082077
v 0.198462 -0.000076 -0.082763
v 0.197747 0.000059 0.082077
v 0.198462 -0.000076 0.082763
v 0.166362 -0.107395 -0.082077
v 0.167037 -0.107666 -0.082763
v 0.166362 -0.107395 0.082077
v 0.167037 -0.107666 0.082763
v 0.113838 -0.208675 -0.082077
v 0.114456 -0.209045 -0.082771
v 0.113838 -0.208675 0.082077
v 0.114456 -0.209045 0.082771
v -0.055310 0.190593 -0.082077
v -0.056030 0.190614 -0.082771
v -0.055310 0.190593 0.082077
v -0.056030 0.190614 0.082771
v -0.065554 0.076964 0.082077
v -0.066269 0.077099 0.082763
v -0.065554 0.076964 -0.082077
v -0.066269 0.077099 -0.082763
v -0.096940 -0.030491 0.082077
v -0.097615 -0.030220 0.082763
v -0.096940 -0.030491 -0.082077
v -0.097615 -0.030220 -0.082763
v -0.149465 -0.131770 0.082077
v -0.150083 -0.131400 0.082771
v -0.149465 -0.131770 -0.082077
v -0.150083 -0.131400 -0.082771
v 0.060579 0.156744 0.082077
v 0.059859 0.156765 0.082771
v 0.092106 0.147536 0.082077
v 0.092826 0.147515 0.082771
v 0.050332 0.043116 0.082077
v 0.049617 0.043251 0.082763
v 0.081859 0.033907 0.082077
v 0.082574 0.033772 0.082763
v 0.018947 -0.064339 0.082077
v 0.018272 -0.064068 0.082763
v 0.050475 -0.073546 0.082077
v 0.051150 -0.073817 0.082763
v -0.002051 -0.174827 0.082077
v -0.001433 -0.175197 0.082771
v -0.033577 -0.165619 0.082077
v -0.034195 -0.165249 0.082771
v 0.060579 0.156744 -0.082077
v 0.059859 0.156765 -0.082771
v 0.092106 0.147536 -0.082077
v 0.092826 0.147515 -0.082771
v 0.050332 0.043116 -0.082077
v 0.049617 0.043251 -0.082763
v 0.081859 0.033907 -0.082077
v 0.082574 0.033772 -0.082763
v 0.018947 -0.064339 -0.082077
v 0.018272 -0.064068 -0.082763
v 0.050475 -0.073546 -0.082077
v 0.051150 -0.073817 -0.082763
v -0.002051 -0.174827 -0.082077
v -0.001433 -0.175197 -0.082771
v -0.033577 -0.165619 -0.082077
v -0.034195 -0.165249 -0.082771
v 0.176466 0.122896 0.082077
v 0.175746 0.122917 0.082771
v 0.166220 0.009267 0.082077
v 0.165505 0.009402 0.082763
v 0.134835 -0.098187 0.082077
v 0.134160 -0.097916 0.082763
v 0.082310 -0.199466 0.082077
v 0.081692 -0.199096 0.082771
v 0.176466 0.122896 -0.082077
v 0.175746 0.122917 -0.082771
v 0.166220 0.009267 -0.082077
v 0.165505 0.009402 -0.082763
v 0.134835 -0.098187 -0.082077
v 0.134160 -0.097916 -0.082763
v 0.082310 -0.199466 -0.082077
v 0.081692 -0.199096 -0.082771
v -0.023783 0.181384 0.082077
v -0.023063 0.181363 0.082771
v -0.034029 0.067756 0.082077
v -0.033314 0.067621 0.082763
v -0.065414 -0.039699 0.082077
v -0.064739 -0.039970 0.082763
v -0.117938 -0.140979 0.082077
v -0.117320 -0.141349 0.082771
v -0.023783 0.181384 -0.082077
v -0.023063 0.181363 -0.082771
v -0.034029 0.067756 -0.082077
v -0.033314 0.067621 -0.082763
v -0.065414 -0.039699 -0.082077
v -0.064739 -0.039970 -0.082763
v -0.117938 -0.140979 -0.082077
v -0.117320 -0.141349 -0.082771
v 0.060174 0.156256 -0.081924
v 0.050019 0.043682 -0.081920
v 0.050019 0.043682 0.081920
v 0.060174 0.156256 0.081924
v 0.082076 0.033359 0.081920
v 0.050953 -0.073201 0.081920
v 0.050953 -0.073201 -0.081920
v 0.082076 0.033359 -0.081920
v -0.055686 0.191103 0.081924
v -0.058926 0.293868 0.081858
v -0.058926 0.293868 -0.081858
v -0.055686 0.191103 -0.081924
v -0.002025 -0.175424 0.081924
v -0.060161 -0.260159 0.081875
v -0.060161 -0.260159 -0.081875
v -0.002025 -0.175424 -0.081924
v 0.089059 0.250732 0.081875
v 0.092450 0.148025 0.081924
v 0.092450 0.148025 -0.081924
v 0.089059 0.250732 -0.081875
v 0.166470 -0.107974 0.081920
v 0.114377 -0.208416 0.081924
v 0.114377 -0.208416 -0.081924
v 0.166470 -0.107974 -0.081920
v -0.065306 -0.040278 0.081920
v -0.117399 -0.140720 0.081924
v -0.117399 -0.140720 -0.081924
v -0.065306 -0.040278 -0.081920
v -0.060924 -0.260431 0.081875
v -0.092014 -0.251264 0.081858
v -0.092014 -0.251264 -0.081858
v -0.060924 -0.260431 -0.081875
v 0.092421 0.147028 0.081924
v 0.082261 0.034337 0.081920
v 0.082261 0.034337 -0.081920
v 0.092421 0.147028 -0.081924
v 0.057427 0.260379 0.081858
v 0.088562 0.251372 0.081875
v 0.088562 0.251372 -0.081875
v 0.057427 0.260379 -0.081858
v 0.173313 0.226531 0.081858
v 0.204450 0.217522 0.081875
v 0.204450 0.217522 -0.081875
v 0.173313 0.226531 -0.081858
v 0.050583 -0.074125 0.081920
v -0.001512 -0.174568 0.081924
v -0.001512 -0.174568 -0.081924
v 0.050583 -0.074125 -0.081920
v 0.204947 0.216882 0.081875
v 0.208336 0.114177 0.081924
v 0.208336 0.114177 -0.081924
v 0.204947 0.216882 -0.081875
v -0.026828 0.284579 0.081875
v -0.023439 0.181873 0.081924
v -0.023439 0.181873 -0.081924
v -0.026828 0.284579 -0.081875
v -0.058462 0.294227 0.081858
v -0.027325 0.285219 0.081875
v -0.027325 0.285219 -0.081875
v -0.058462 0.294227 -0.081858
v 0.197964 -0.000489 0.081920
v 0.166840 -0.107050 0.081920
v 0.166840 -0.107050 -0.081920
v 0.197964 -0.000489 -0.081920
v -0.034165 0.067782 0.082420
v -0.023924 0.181388 0.082424
v -0.027333 0.284701 0.082375
v -0.058420 0.293694 0.082358
v -0.055169 0.190589 0.082424
v -0.065418 0.076938 0.082420
v -0.096811 -0.030543 0.082420
v -0.149344 -0.131842 0.082424
v -0.207579 -0.216990 0.082358
v -0.176539 -0.226142 0.082375
v -0.118059 -0.140907 0.082424
v -0.065543 -0.039647 0.082420
v 0.091965 0.147540 0.082424
v 0.088554 0.250854 0.082375
v 0.057469 0.259846 0.082358
v 0.060720 0.156740 0.082424
v 0.050468 0.043090 0.082420
v 0.019076 -0.064391 0.082420
v -0.033456 -0.165691 0.082424
v -0.091692 -0.250838 0.082358
v -0.060652 -0.259990 0.082375
v -0.002172 -0.174755 0.082424
v 0.050346 -0.073494 0.082420
v 0.081723 0.033933 0.082420
v 0.207851 0.113692 -0.082424
v 0.197611 0.000085 -0.082420
v 0.166233 -0.107343 -0.082420
v 0.113717 -0.208603 -0.082424
v 0.055236 -0.293838 -0.082375
v 0.024195 -0.284686 -0.082358
v 0.082431 -0.199538 -0.082424
v 0.134964 -0.098239 -0.082420
v 0.166356 0.009241 -0.082420
v 0.176607 0.122892 -0.082424
v 0.173355 0.225998 -0.082358
v 0.204442 0.217004 -0.082375
v 0.197611 0.000085 0.082420
v 0.207851 0.113692 0.082424
v 0.204442 0.217004 0.082375
v 0.173355 0.225998 0.082358
v 0.176607 0.122892 0.082424
v 0.166356 0.009241 0.082420
v 0.134964 -0.098239 0.082420
v 0.082431 -0.199538 0.082424
v 0.024195 -0.284686 0.082358
v 0.055236 -0.293838 0.082375
v 0.113717 -0.208603 0.082424
v 0.166233 -0.107343 0.082420
v -0.023924 0.181388 -0.082424
v -0.034165 0.067782 -0.082420
v -0.065543 -0.039647 -0.082420
v -0.118059 -0.140907 -0.082424
v -0.176539 -0.226142 -0.082375
v -0.207579 -0.216990 -0.082358
v -0.149344 -0.131842 -0.082424
v -0.096811 -0.030543 -0.082420
v -0.065418 0.076938 -0.082420
v -0.055169 0.190589 -0.082424
v -0.058420 0.293694 -0.082358
v -0.027333 0.284701 -0.082375
v 0.091965 0.147540 -0.082424
v 0.081723 0.033933 -0.082420
v 0.050346 -0.073494 -0.082420
v -0.002172 -0.174755 -0.082424
v -0.060652 -0.259990 -0.082375
v -0.091692 -0.250838 -0.082358
v -0.033456 -0.165691 -0.082424
v 0.019076 -0.064391 -0.082420
v 0.050468 0.043090 -0.082420
v 0.060720 0.156740 -0.082424
v 0.057469 0.259846 -0.082358
v 0.088554 0.250854 -0.082375
v -0.176811 -0.226583 0.081875
v -0.207901 -0.217416 0.081858
v -0.207901 -0.217416 -0.081858
v -0.176811 -0.226583 -0.081875
v -0.208099 -0.216864 -0.081858
v -0.208099 -0.216864 0.081858
v -0.150057 -0.131997 0.081924
v -0.150057 -0.131997 -0.081924
v -0.097508 -0.030799 -0.081920
v -0.149544 -0.131141 -0.081924
v -0.149544 -0.131141 0.081924
v -0.097508 -0.030799 0.081920
v -0.066052 0.076552 -0.081920
v -0.097138 -0.029876 -0.081920
v -0.097138 -0.029876 0.081920
v -0.066052 0.076552 0.081920
v 0.113864 -0.209272 0.081924
v 0.055727 -0.294007 0.081875
v 0.055727 -0.294007 -0.081875
v 0.113864 -0.209272 -0.081924
v -0.092212 -0.250712 -0.081858
v -0.092212 -0.250712 0.081858
v -0.034169 -0.165846 0.081924
v -0.034169 -0.165846 -0.081924
v 0.208307 0.113180 0.081924
v 0.198149 0.000489 0.081920
v 0.198149 0.000489 -0.081920
v 0.208307 0.113180 -0.081924
v 0.165722 0.008855 -0.081920
v 0.134637 -0.097572 -0.081920
v 0.134637 -0.097572 0.081920
v 0.165722 0.008855 0.081920
v 0.018379 -0.064647 -0.081920
v -0.033656 -0.164990 -0.081924
v -0.033656 -0.164990 0.081924
v 0.018379 -0.064647 0.081920
v 0.049834 0.042704 -0.081920
v 0.018749 -0.063724 -0.081920
v 0.018749 -0.063724 0.081920
v 0.049834 0.042704 0.081920
v 0.060203 0.157254 0.081924
v 0.056963 0.260020 0.081858
v 0.056963 0.260020 -0.081858
v 0.060203 0.157254 -0.081924
v 0.176061 0.122408 -0.081924
v 0.165907 0.009833 -0.081920
v 0.165907 0.009833 0.081920
v 0.176061 0.122408 0.081924
v -0.033812 0.067208 0.081920
v -0.064936 -0.039354 0.081920
v -0.064936 -0.039354 -0.081920
v -0.033812 0.067208 -0.081920
v -0.055715 0.190105 -0.081924
v -0.065867 0.077530 -0.081920
v -0.065867 0.077530 0.081920
v -0.055715 0.190105 0.081924
v 0.054964 -0.294279 0.081875
v 0.023873 -0.285113 0.081858
v 0.023873 -0.285113 -0.081858
v 0.054964 -0.294279 -0.081875
v 0.176090 0.123406 0.081924
v 0.172849 0.226172 0.081858
v 0.172849 0.226172 -0.081858
v 0.176090 0.123406 -0.081924
v -0.117912 -0.141576 0.081924
v -0.176048 -0.226311 0.081875
v -0.176048 -0.226311 -0.081875
v -0.117912 -0.141576 -0.081924
v -0.023468 0.180876 0.081924
v -0.033627 0.068186 0.081920
v -0.033627 0.068186 -0.081920
v -0.023468 0.180876 -0.081924
v 0.134267 -0.098495 -0.081920
v 0.082231 -0.198837 -0.081924
v 0.082231 -0.198837 0.081924
v 0.134267 -0.098495 0.081920
v 0.023675 -0.284561 -0.081858
v 0.023675 -0.284561 0.081858
v 0.081718 -0.199693 0.081924
v 0.081718 -0.199693 -0.081924
vn 0.3933 -0.0355 0.9187
vn -0.9159 0.0827 0.3928
vn 0.8752 0.4837 -0.0000
vn -0.7304 0.6830 -0.0000
vn 0.3933 -0.0355 -0.9187
vn -0.9159 0.0827 -0.3928
vn 0.7693 -0.6388 -0.0000
vn -0.8499 -0.5269 -0.0000
vn -0.3819 0.1115 -0.9174
vn 0.8820 -0.2576 -0.3947
vn -0.5848 0.8112 -0.0000
vn 0.9521 0.3056 -0.0000
vn -0.3819 0.1115 0.9174
vn 0.8820 -0.2576 0.3947
vn -0.9295 -0.3688 -0.0000
vn 0.6380 -0.7701 -0.0000
vn 0.5251 0.0166 -0.8509
vn -0.9374 -0.0294 -0.3471
vn 0.5897 -0.8076 -0.0000
vn -0.9507 -0.3102 -0.0000
vn 0.5251 0.0166 0.8509
vn -0.9374 -0.0294 0.3471
vn 0.8046 0.5938 -0.0000
vn -0.8183 0.5747 -0.0000
vn -0.3797 0.2606 -0.8876
vn 0.7613 -0.5222 -0.3843
vn -0.0816 0.9967 -0.0000
vn 0.9830 -0.1837 -0.0000
vn -0.3797 0.2606 0.8876
vn 0.7613 -0.5222 0.3843
vn -0.9990 -0.0439 -0.0000
vn 0.3586 -0.9335 -0.0000
vn -0.4602 -0.0153 -0.8877
vn 0.9227 0.0303 -0.3843
vn -0.4602 -0.0153 0.8877
vn 0.9227 0.0303 0.3843
vn -0.6052 -0.7961 -0.0000
vn 0.9273 -0.3742 -0.0000
vn -0.3506 0.1818 -0.9187
vn 0.8164 -0.4234 -0.3928
vn -0.4327 0.9016 -0.0000
vn 0.9922 0.1243 -0.0000
vn -0.3506 0.1818 0.9187
vn 0.8164 -0.4234 0.3928
vn -0.9832 -0.1825 -0.0000
vn 0.4773 -0.8787 -0.0000
vn 0.1678 0.5712 -0.8034
vn -0.2669 -0.9023 -0.3385
vn 0.9512 0.3087 -0.0000
vn -0.0014 -1.0000 -0.0000
vn 0.1678 0.5712 0.8034
vn -0.2669 -0.9023 0.3385
vn -0.5678 0.8231 -0.0000
vn -0.6445 -0.7646 -0.0000
vn -0.3934 0.0355 -0.9187
vn 0.9159 -0.0825 -0.3927
vn -0.3934 0.0355 0.9187
vn 0.9159 -0.0825 0.3927
vn -0.1660 -0.5718 -0.8034
vn 0.2607 0.9041 -0.3385
vn -0.9216 -0.3881 -0.0000
vn -0.1317 0.9913 -0.0000
vn -0.1660 -0.5718 0.8034
vn 0.2607 0.9041 0.3385
vn 0.6355 -0.7721 -0.0000
vn 0.5370 0.8436 -0.0000
vn 0.5371 0.8435 -0.0000
vn -0.4603 -0.0153 -0.8877
vn -0.8184 0.5747 -0.0000
vn -0.4603 -0.0153 0.8877
vn -0.1660 -0.5718 -0.8035
vn 0.2607 0.9042 -0.3384
vn -0.1660 -0.5718 0.8035
vn 0.2607 0.9042 0.3384
vn 0.6354 -0.7722 -0.0000
vn -0.5848 0.8111 -0.0000
vn -0.9295 -0.3689 -0.0000
vn -0.9236 0.0833 -0.3743
vn -0.3704 0.0333 0.9283
vn -0.8978 -0.0296 -0.4394
vn -0.3574 -0.0112 0.9339
vn -0.2235 -0.7694 -0.5984
vn -0.0966 -0.3327 0.9381
vn 0.8441 0.0269 -0.5355
vn 0.3649 0.0122 0.9310
vn 0.9236 -0.0833 -0.3742
vn 0.3704 -0.0335 0.9283
vn 0.8906 -0.2601 -0.3730
vn 0.3548 -0.1036 0.9292
vn 0.8232 -0.4269 -0.3743
vn 0.3302 -0.1712 0.9283
vn 0.6969 -0.4770 -0.5355
vn 0.3010 -0.2067 0.9310
vn 0.2257 0.7687 -0.5984
vn 0.0977 0.3324 0.9381
vn -0.7407 0.5082 -0.4394
vn -0.2952 0.2018 0.9339
vn -0.8232 0.4269 -0.3742
vn -0.3301 0.1713 0.9283
vn -0.8906 0.2601 -0.3730
vn -0.3548 0.1036 0.9292
vn -0.0965 -0.3327 0.9381
vn 0.8232 -0.4269 -0.3742
vn 0.2257 0.7687 -0.5985
vn 0.0977 0.3323 0.9381
vn -0.9236 0.0833 0.3742
vn -0.3704 0.0333 -0.9283
vn -0.8906 0.2601 0.3730
vn -0.3548 0.1036 -0.9292
vn -0.8232 0.4269 0.3743
vn -0.3301 0.1713 -0.9283
vn -0.7407 0.5082 0.4394
vn -0.2952 0.2018 -0.9339
vn 0.2257 0.7687 0.5985
vn 0.0977 0.3323 -0.9381
vn 0.6969 -0.4770 0.5355
vn 0.3010 -0.2067 -0.9310
vn 0.8232 -0.4269 0.3742
vn 0.3302 -0.1712 -0.9283
vn 0.8906 -0.2601 0.3730
vn 0.3548 -0.1036 -0.9292
vn 0.9236 -0.0833 0.3742
vn 0.3704 -0.0335 -0.9283
vn 0.8441 0.0269 0.5355
vn 0.3649 0.0122 -0.9310
vn -0.2235 -0.7693 0.5985
vn -0.0966 -0.3327 -0.9381
vn -0.8978 -0.0296 0.4394
vn -0.3574 -0.0112 -0.9339
vn -0.9236 0.0833 -0.3742
vn -0.2235 -0.7693 -0.5985
vn -0.8232 0.4269 -0.3743
vn -0.9236 0.0833 0.3743
vn -0.8232 0.4269 0.3742
vn 0.2257 0.7687 0.5984
vn 0.0977 0.3324 -0.9381
vn 0.8232 -0.4269 0.3743
vn -0.2235 -0.7694 0.5984
vn -0.0965 -0.3327 -0.9381
vn 0.1679 0.5712 -0.8034
vn 0.9511 0.3088 -0.0000
vn 0.1679 0.5712 0.8034
vn -0.5679 0.8231 -0.0000
vn 0.9317 0.3632 -0.0000
vn -0.6342 0.7731 -0.0000
vn 0.4336 -0.2966 -0.8509
vn -0.7742 0.5293 -0.3471
vn 0.4336 -0.2966 0.8509
vn -0.7742 0.5293 0.3471
vn 0.3506 -0.1819 0.9187
vn -0.8164 0.4233 0.3927
vn 0.3506 -0.1819 -0.9187
vn -0.8164 0.4233 -0.3927
vn 0.3819 -0.1116 0.9174
vn -0.8820 0.2576 0.3947
vn 0.9521 0.3057 -0.0000
vn 0.3819 -0.1116 -0.9174
vn -0.8820 0.2576 -0.3947
vn 0.6379 -0.7701 -0.0000
vn -0.3796 0.2606 -0.8877
vn -0.3796 0.2606 0.8877
vn 0.3585 -0.9335 -0.0000
vn 0.9317 0.3633 -0.0000
vn 0.9159 -0.0825 -0.3928
vn 0.9159 -0.0825 0.3928
vn 0.7694 -0.6388 -0.0000
vn 0.3819 -0.1115 0.9174
vn 0.3819 -0.1115 -0.9174
vn 0.3506 -0.1818 0.9187
vn 0.3506 -0.1818 -0.9187
vn 0.3934 -0.0355 0.9187
vn -0.9159 0.0826 0.3928
vn 0.3934 -0.0355 -0.9187
vn -0.9159 0.0826 -0.3928
vn -0.8499 -0.5270 -0.0000
vn 0.1678 0.5713 -0.8034
vn 0.9511 0.3087 -0.0000
vn 0.1678 0.5713 0.8034
vn -0.3797 0.2606 -0.8877
vn -0.3797 0.2606 0.8877
vt 0.000000 0.000000
s 0
f 145/1/1 146/1/1 101/1/1 97/1/1
f 146/1/2 145/1/2 98/1/2 102/1/2
f 146/1/3 147/1/3 85/1/3 101/1/3
f 147/1/4 146/1/4 102/1/4 86/1/4
f 147/1/5 148/1/5 81/1/5 85/1/5
f 148/1/6 147/1/6 86/1/6 82/1/6
f 148/1/7 145/1/7 97/1/7 81/1/7
f 145/1/8 148/1/8 82/1/8 98/1/8
f 149/1/9 150/1/9 91/1/9 87/1/9
f 150/1/10 149/1/10 88/1/10 92/1/10
f 150/1/11 151/1/11 107/1/11 91/1/11
f 151/1/12 150/1/12 92/1/12 108/1/12
f 151/1/13 152/1/13 103/1/13 107/1/13
f 152/1/14 151/1/14 108/1/14 104/1/14
f 152/1/15 149/1/15 87/1/15 103/1/15
f 149/1/16 152/1/16 104/1/16 88/1/16
f 153/1/17 154/1/17 43/1/17 67/1/17
f 154/1/18 153/1/18 68/1/18 44/1/18
f 154/1/19 155/1/19 41/1/19 43/1/19
f 155/1/20 154/1/20 44/1/20 42/1/20
f 155/1/21 156/1/21 65/1/21 41/1/21
f 156/1/22 155/1/22 42/1/22 66/1/22
f 156/1/23 153/1/23 67/1/23 65/1/23
f 153/1/24 156/1/24 66/1/24 68/1/24
f 157/1/25 158/1/25 3/1/25 93/1/25
f 158/1/26 157/1/26 94/1/26 4/1/26
f 158/1/27 159/1/27 1/1/27 3/1/27
f 159/1/28 158/1/28 4/1/28 2/1/28
f 159/1/29 160/1/29 109/1/29 1/1/29
f 160/1/30 159/1/30 2/1/30 110/1/30
f 160/1/31 157/1/31 93/1/31 109/1/31
f 157/1/32 160/1/32 110/1/32 94/1/32
f 161/1/33 162/1/33 83/1/33 15/1/33
f 162/1/34 161/1/34 16/1/34 84/1/34
f 162/1/24 163/1/24 99/1/24 83/1/24
f 163/1/23 162/1/23 84/1/23 100/1/23
f 163/1/35 164/1/35 13/1/35 99/1/35
f 164/1/36 163/1/36 100/1/36 14/1/36
f 164/1/37 161/1/37 15/1/37 13/1/37
f 161/1/38 164/1/38 14/1/38 16/1/38
f 165/1/39 166/1/39 63/1/39 59/1/39
f 166/1/40 165/1/40 60/1/40 64/1/40
f 166/1/41 167/1/41 61/1/41 63/1/41
f 167/1/42 166/1/42 64/1/42 62/1/42
f 167/1/43 168/1/43 57/1/43 61/1/43
f 168/1/44 167/1/44 62/1/44 58/1/44
f 168/1/45 165/1/45 59/1/45 57/1/45
f 165/1/46 168/1/46 58/1/46 60/1/46
f 169/1/39 170/1/39 135/1/39 133/1/39
f 170/1/40 169/1/40 134/1/40 136/1/40
f 170/1/41 171/1/41 143/1/41 135/1/41
f 171/1/42 170/1/42 136/1/42 144/1/42
f 171/1/43 172/1/43 141/1/43 143/1/43
f 172/1/44 171/1/44 144/1/44 142/1/44
f 172/1/45 169/1/45 133/1/45 141/1/45
f 169/1/46 172/1/46 142/1/46 134/1/46
f 173/1/47 174/1/47 7/1/47 3/1/47
f 174/1/48 173/1/48 4/1/48 8/1/48
f 174/1/49 175/1/49 5/1/49 7/1/49
f 175/1/50 174/1/50 8/1/50 6/1/50
f 175/1/51 176/1/51 1/1/51 5/1/51
f 176/1/52 175/1/52 6/1/52 2/1/52
f 176/1/53 173/1/53 3/1/53 1/1/53
f 173/1/54 176/1/54 2/1/54 4/1/54
f 177/1/55 178/1/55 87/1/55 83/1/55
f 178/1/56 177/1/56 84/1/56 88/1/56
f 178/1/4 179/1/4 103/1/4 87/1/4
f 179/1/3 178/1/3 88/1/3 104/1/3
f 179/1/57 180/1/57 99/1/57 103/1/57
f 180/1/58 179/1/58 104/1/58 100/1/58
f 180/1/8 177/1/8 83/1/8 99/1/8
f 177/1/7 180/1/7 100/1/7 84/1/7
f 181/1/59 182/1/59 15/1/59 11/1/59
f 182/1/60 181/1/60 12/1/60 16/1/60
f 182/1/61 183/1/61 13/1/61 15/1/61
f 183/1/62 182/1/62 16/1/62 14/1/62
f 183/1/63 184/1/63 9/1/63 13/1/63
f 184/1/64 183/1/64 14/1/64 10/1/64
f 184/1/65 181/1/65 11/1/65 9/1/65
f 181/1/66 184/1/66 10/1/66 12/1/66
f 185/1/59 186/1/59 31/1/59 27/1/59
f 186/1/60 185/1/60 28/1/60 32/1/60
f 186/1/61 187/1/61 29/1/61 31/1/61
f 187/1/62 186/1/62 32/1/62 30/1/62
f 187/1/63 188/1/63 25/1/63 29/1/63
f 188/1/64 187/1/64 30/1/64 26/1/64
f 188/1/65 185/1/65 27/1/65 25/1/65
f 185/1/67 188/1/67 26/1/67 28/1/67
f 189/1/39 190/1/39 93/1/39 91/1/39
f 190/1/40 189/1/40 92/1/40 94/1/40
f 190/1/41 191/1/41 109/1/41 93/1/41
f 191/1/42 190/1/42 94/1/42 110/1/42
f 191/1/43 192/1/43 107/1/43 109/1/43
f 192/1/44 191/1/44 110/1/44 108/1/44
f 192/1/45 189/1/45 91/1/45 107/1/45
f 189/1/46 192/1/46 108/1/46 92/1/46
f 193/1/68 194/1/68 51/1/68 31/1/68
f 194/1/34 193/1/34 32/1/34 52/1/34
f 194/1/69 195/1/69 49/1/69 51/1/69
f 195/1/23 194/1/23 52/1/23 50/1/23
f 195/1/70 196/1/70 29/1/70 49/1/70
f 196/1/36 195/1/36 50/1/36 30/1/36
f 196/1/37 193/1/37 31/1/37 29/1/37
f 193/1/38 196/1/38 30/1/38 32/1/38
f 197/1/68 198/1/68 129/1/68 47/1/68
f 198/1/34 197/1/34 48/1/34 130/1/34
f 198/1/24 199/1/24 137/1/24 129/1/24
f 199/1/23 198/1/23 130/1/23 138/1/23
f 199/1/70 200/1/70 45/1/70 137/1/70
f 200/1/36 199/1/36 138/1/36 46/1/36
f 200/1/37 197/1/37 47/1/37 45/1/37
f 197/1/38 200/1/38 46/1/38 48/1/38
f 201/1/71 202/1/71 47/1/71 43/1/71
f 202/1/72 201/1/72 44/1/72 48/1/72
f 202/1/61 203/1/61 45/1/61 47/1/61
f 203/1/62 202/1/62 48/1/62 46/1/62
f 203/1/73 204/1/73 41/1/73 45/1/73
f 204/1/74 203/1/74 46/1/74 42/1/74
f 204/1/75 201/1/75 43/1/75 41/1/75
f 201/1/66 204/1/66 42/1/66 44/1/66
f 205/1/9 206/1/9 59/1/9 55/1/9
f 206/1/10 205/1/10 56/1/10 60/1/10
f 206/1/76 207/1/76 57/1/76 59/1/76
f 207/1/12 206/1/12 60/1/12 58/1/12
f 207/1/13 208/1/13 53/1/13 57/1/13
f 208/1/14 207/1/14 58/1/14 54/1/14
f 208/1/77 205/1/77 55/1/77 53/1/77
f 205/1/16 208/1/16 54/1/16 56/1/16
f 209/1/78 210/1/78 129/1/78 131/1/78
f 210/1/79 209/1/79 132/1/79 130/1/79
f 210/1/80 211/1/80 47/1/80 129/1/80
f 211/1/81 210/1/81 130/1/81 48/1/81
f 211/1/82 212/1/82 43/1/82 47/1/82
f 212/1/83 211/1/83 48/1/83 44/1/83
f 212/1/84 213/1/84 67/1/84 43/1/84
f 213/1/85 212/1/85 44/1/85 68/1/85
f 213/1/86 214/1/86 69/1/86 67/1/86
f 214/1/87 213/1/87 68/1/87 70/1/87
f 214/1/88 215/1/88 73/1/88 69/1/88
f 215/1/89 214/1/89 70/1/89 74/1/89
f 215/1/90 216/1/90 77/1/90 73/1/90
f 216/1/91 215/1/91 74/1/91 78/1/91
f 216/1/92 217/1/92 39/1/92 77/1/92
f 217/1/93 216/1/93 78/1/93 40/1/93
f 217/1/94 218/1/94 35/1/94 39/1/94
f 218/1/95 217/1/95 40/1/95 36/1/95
f 218/1/96 219/1/96 135/1/96 35/1/96
f 219/1/97 218/1/97 36/1/97 136/1/97
f 219/1/98 220/1/98 133/1/98 135/1/98
f 220/1/99 219/1/99 136/1/99 134/1/99
f 220/1/100 209/1/100 131/1/100 133/1/100
f 209/1/101 220/1/101 134/1/101 132/1/101
f 221/1/80 222/1/80 15/1/80 83/1/80
f 222/1/81 221/1/81 84/1/81 16/1/81
f 222/1/82 223/1/82 11/1/82 15/1/82
f 223/1/102 222/1/102 16/1/102 12/1/102
f 223/1/84 224/1/84 81/1/84 11/1/84
f 224/1/85 223/1/85 12/1/85 82/1/85
f 224/1/86 225/1/86 85/1/86 81/1/86
f 225/1/87 224/1/87 82/1/87 86/1/87
f 225/1/88 226/1/88 89/1/88 85/1/88
f 226/1/89 225/1/89 86/1/89 90/1/89
f 226/1/103 227/1/103 95/1/103 89/1/103
f 227/1/91 226/1/91 90/1/91 96/1/91
f 227/1/92 228/1/92 7/1/92 95/1/92
f 228/1/93 227/1/93 96/1/93 8/1/93
f 228/1/104 229/1/104 3/1/104 7/1/104
f 229/1/105 228/1/105 8/1/105 4/1/105
f 229/1/96 230/1/96 93/1/96 3/1/96
f 230/1/97 229/1/97 4/1/97 94/1/97
f 230/1/98 231/1/98 91/1/98 93/1/98
f 231/1/99 230/1/99 94/1/99 92/1/99
f 231/1/100 232/1/100 87/1/100 91/1/100
f 232/1/101 231/1/101 92/1/101 88/1/101
f 232/1/78 221/1/78 83/1/78 87/1/78
f 221/1/79 232/1/79 88/1/79 84/1/79
f 233/1/106 234/1/106 53/1/106 49/1/106
f 234/1/107 233/1/107 50/1/107 54/1/107
f 234/1/108 235/1/108 57/1/108 53/1/108
f 235/1/109 234/1/109 54/1/109 58/1/109
f 235/1/110 236/1/110 61/1/110 57/1/110
f 236/1/111 235/1/111 58/1/111 62/1/111
f 236/1/112 237/1/112 17/1/112 61/1/112
f 237/1/113 236/1/113 62/1/113 18/1/113
f 237/1/114 238/1/114 21/1/114 17/1/114
f 238/1/115 237/1/115 18/1/115 22/1/115
f 238/1/116 239/1/116 127/1/116 21/1/116
f 239/1/117 238/1/117 22/1/117 128/1/117
f 239/1/118 240/1/118 125/1/118 127/1/118
f 240/1/119 239/1/119 128/1/119 126/1/119
f 240/1/120 241/1/120 123/1/120 125/1/120
f 241/1/121 240/1/121 126/1/121 124/1/121
f 241/1/122 242/1/122 121/1/122 123/1/122
f 242/1/123 241/1/123 124/1/123 122/1/123
f 242/1/124 243/1/124 25/1/124 121/1/124
f 243/1/125 242/1/125 122/1/125 26/1/125
f 243/1/126 244/1/126 29/1/126 25/1/126
f 244/1/127 243/1/127 26/1/127 30/1/127
f 244/1/128 233/1/128 49/1/128 29/1/128
f 233/1/129 244/1/129 30/1/129 50/1/129
f 245/1/130 246/1/130 51/1/130 55/1/130
f 246/1/79 245/1/79 56/1/79 52/1/79
f 246/1/80 247/1/80 31/1/80 51/1/80
f 247/1/81 246/1/81 52/1/81 32/1/81
f 247/1/131 248/1/131 27/1/131 31/1/131
f 248/1/83 247/1/83 32/1/83 28/1/83
f 248/1/84 249/1/84 113/1/84 27/1/84
f 249/1/85 248/1/85 28/1/85 114/1/85
f 249/1/86 250/1/86 115/1/86 113/1/86
f 250/1/87 249/1/87 114/1/87 116/1/87
f 250/1/88 251/1/88 117/1/88 115/1/88
f 251/1/89 250/1/89 116/1/89 118/1/89
f 251/1/103 252/1/103 119/1/103 117/1/103
f 252/1/91 251/1/91 118/1/91 120/1/91
f 252/1/92 253/1/92 23/1/92 119/1/92
f 253/1/93 252/1/93 120/1/93 24/1/93
f 253/1/104 254/1/104 19/1/104 23/1/104
f 254/1/105 253/1/105 24/1/105 20/1/105
f 254/1/96 255/1/96 63/1/96 19/1/96
f 255/1/97 254/1/97 20/1/97 64/1/97
f 255/1/132 256/1/132 59/1/132 63/1/132
f 256/1/99 255/1/99 64/1/99 60/1/99
f 256/1/100 245/1/100 55/1/100 59/1/100
f 245/1/101 256/1/101 60/1/101 56/1/101
f 257/1/133 258/1/133 139/1/133 137/1/133
f 258/1/107 257/1/107 138/1/107 140/1/107
f 258/1/108 259/1/108 141/1/108 139/1/108
f 259/1/109 258/1/109 140/1/109 142/1/109
f 259/1/134 260/1/134 143/1/134 141/1/134
f 260/1/111 259/1/111 142/1/111 144/1/111
f 260/1/112 261/1/112 33/1/112 143/1/112
f 261/1/113 260/1/113 144/1/113 34/1/113
f 261/1/135 262/1/135 37/1/135 33/1/135
f 262/1/136 261/1/136 34/1/136 38/1/136
f 262/1/116 263/1/116 79/1/116 37/1/116
f 263/1/117 262/1/117 38/1/117 80/1/117
f 263/1/137 264/1/137 75/1/137 79/1/137
f 264/1/119 263/1/119 80/1/119 76/1/119
f 264/1/120 265/1/120 71/1/120 75/1/120
f 265/1/121 264/1/121 76/1/121 72/1/121
f 265/1/122 266/1/122 65/1/122 71/1/122
f 266/1/123 265/1/123 72/1/123 66/1/123
f 266/1/124 267/1/124 41/1/124 65/1/124
f 267/1/125 266/1/125 66/1/125 42/1/125
f 267/1/138 268/1/138 45/1/138 41/1/138
f 268/1/127 267/1/127 42/1/127 46/1/127
f 268/1/128 257/1/128 137/1/128 45/1/128
f 257/1/129 268/1/129 46/1/129 138/1/129
f 269/1/133 270/1/133 103/1/133 99/1/133
f 270/1/107 269/1/107 100/1/107 104/1/107
f 270/1/108 271/1/108 107/1/108 103/1/108
f 271/1/109 270/1/109 104/1/109 108/1/109
f 271/1/134 272/1/134 109/1/134 107/1/134
f 272/1/111 271/1/111 108/1/111 110/1/111
f 272/1/112 273/1/112 1/1/112 109/1/112
f 273/1/113 272/1/113 110/1/113 2/1/113
f 273/1/114 274/1/114 5/1/114 1/1/114
f 274/1/115 273/1/115 2/1/115 6/1/115
f 274/1/116 275/1/116 111/1/116 5/1/116
f 275/1/117 274/1/117 6/1/117 112/1/117
f 275/1/118 276/1/118 105/1/118 111/1/118
f 276/1/119 275/1/119 112/1/119 106/1/119
f 276/1/120 277/1/120 101/1/120 105/1/120
f 277/1/121 276/1/121 106/1/121 102/1/121
f 277/1/122 278/1/122 97/1/122 101/1/122
f 278/1/123 277/1/123 102/1/123 98/1/123
f 278/1/124 279/1/124 9/1/124 97/1/124
f 279/1/125 278/1/125 98/1/125 10/1/125
f 279/1/138 280/1/138 13/1/138 9/1/138
f 280/1/139 279/1/139 10/1/139 14/1/139
f 280/1/128 269/1/128 99/1/128 13/1/128
f 269/1/129 280/1/129 14/1/129 100/1/129
f 281/1/140 282/1/140 39/1/140 35/1/140
f 282/1/48 281/1/48 36/1/48 40/1/48
f 282/1/141 283/1/141 37/1/141 39/1/141
f 283/1/50 282/1/50 40/1/50 38/1/50
f 283/1/142 284/1/142 33/1/142 37/1/142
f 284/1/52 283/1/52 38/1/52 34/1/52
f 284/1/143 281/1/143 35/1/143 33/1/143
f 281/1/54 284/1/54 34/1/54 36/1/54
f 285/1/144 286/1/144 39/1/144 37/1/144
f 286/1/145 285/1/145 38/1/145 40/1/145
f 286/1/146 287/1/146 77/1/146 39/1/146
f 287/1/147 286/1/147 40/1/147 78/1/147
f 287/1/32 288/1/32 79/1/32 77/1/32
f 288/1/31 287/1/31 78/1/31 80/1/31
f 288/1/148 285/1/148 37/1/148 79/1/148
f 285/1/149 288/1/149 80/1/149 38/1/149
f 289/1/150 290/1/150 79/1/150 75/1/150
f 290/1/151 289/1/151 76/1/151 80/1/151
f 290/1/42 291/1/42 77/1/42 79/1/42
f 291/1/41 290/1/41 80/1/41 78/1/41
f 291/1/152 292/1/152 73/1/152 77/1/152
f 292/1/153 291/1/153 78/1/153 74/1/153
f 292/1/46 289/1/46 75/1/46 73/1/46
f 289/1/45 292/1/45 74/1/45 76/1/45
f 293/1/154 294/1/154 75/1/154 71/1/154
f 294/1/155 293/1/155 72/1/155 76/1/155
f 294/1/156 295/1/156 73/1/156 75/1/156
f 295/1/11 294/1/11 76/1/11 74/1/11
f 295/1/157 296/1/157 69/1/157 73/1/157
f 296/1/158 295/1/158 74/1/158 70/1/158
f 296/1/159 293/1/159 71/1/159 69/1/159
f 293/1/77 296/1/77 70/1/77 72/1/77
f 297/1/160 298/1/160 19/1/160 63/1/160
f 298/1/26 297/1/26 64/1/26 20/1/26
f 298/1/27 299/1/27 17/1/27 19/1/27
f 299/1/28 298/1/28 20/1/28 18/1/28
f 299/1/161 300/1/161 61/1/161 17/1/161
f 300/1/30 299/1/30 18/1/30 62/1/30
f 300/1/31 297/1/31 63/1/31 61/1/31
f 297/1/162 300/1/162 62/1/162 64/1/162
f 301/1/163 302/1/163 7/1/163 5/1/163
f 302/1/145 301/1/145 6/1/145 8/1/145
f 302/1/146 303/1/146 95/1/146 7/1/146
f 303/1/147 302/1/147 8/1/147 96/1/147
f 303/1/32 304/1/32 111/1/32 95/1/32
f 304/1/31 303/1/31 96/1/31 112/1/31
f 304/1/148 301/1/148 5/1/148 111/1/148
f 301/1/149 304/1/149 112/1/149 6/1/149
f 305/1/55 306/1/55 55/1/55 51/1/55
f 306/1/164 305/1/164 52/1/164 56/1/164
f 306/1/4 307/1/4 53/1/4 55/1/4
f 307/1/3 306/1/3 56/1/3 54/1/3
f 307/1/57 308/1/57 49/1/57 53/1/57
f 308/1/165 307/1/165 54/1/165 50/1/165
f 308/1/8 305/1/8 51/1/8 49/1/8
f 305/1/166 308/1/166 50/1/166 52/1/166
f 309/1/167 310/1/167 125/1/167 123/1/167
f 310/1/155 309/1/155 124/1/155 126/1/155
f 310/1/12 311/1/12 117/1/12 125/1/12
f 311/1/76 310/1/76 126/1/76 118/1/76
f 311/1/168 312/1/168 115/1/168 117/1/168
f 312/1/158 311/1/158 118/1/158 116/1/158
f 312/1/159 309/1/159 123/1/159 115/1/159
f 309/1/77 312/1/77 116/1/77 124/1/77
f 313/1/169 314/1/169 111/1/169 105/1/169
f 314/1/151 313/1/151 106/1/151 112/1/151
f 314/1/42 315/1/42 95/1/42 111/1/42
f 315/1/41 314/1/41 112/1/41 96/1/41
f 315/1/170 316/1/170 89/1/170 95/1/170
f 316/1/153 315/1/153 96/1/153 90/1/153
f 316/1/46 313/1/46 105/1/46 89/1/46
f 313/1/45 316/1/45 90/1/45 106/1/45
f 317/1/167 318/1/167 105/1/167 101/1/167
f 318/1/155 317/1/155 102/1/155 106/1/155
f 318/1/12 319/1/12 89/1/12 105/1/12
f 319/1/11 318/1/11 106/1/11 90/1/11
f 319/1/168 320/1/168 85/1/168 89/1/168
f 320/1/158 319/1/158 90/1/158 86/1/158
f 320/1/16 317/1/16 101/1/16 85/1/16
f 317/1/15 320/1/15 86/1/15 102/1/15
f 321/1/17 322/1/17 11/1/17 81/1/17
f 322/1/18 321/1/18 82/1/18 12/1/18
f 322/1/19 323/1/19 9/1/19 11/1/19
f 323/1/20 322/1/20 12/1/20 10/1/20
f 323/1/21 324/1/21 97/1/21 9/1/21
f 324/1/22 323/1/22 10/1/22 98/1/22
f 324/1/23 321/1/23 81/1/23 97/1/23
f 321/1/24 324/1/24 98/1/24 82/1/24
f 325/1/171 326/1/171 123/1/171 121/1/171
f 326/1/172 325/1/172 122/1/172 124/1/172
f 326/1/3 327/1/3 115/1/3 123/1/3
f 327/1/4 326/1/4 124/1/4 116/1/4
f 327/1/173 328/1/173 113/1/173 115/1/173
f 328/1/174 327/1/174 116/1/174 114/1/174
f 328/1/166 325/1/166 121/1/166 113/1/166
f 325/1/175 328/1/175 114/1/175 122/1/175
f 329/1/9 330/1/9 133/1/9 131/1/9
f 330/1/10 329/1/10 132/1/10 134/1/10
f 330/1/76 331/1/76 141/1/76 133/1/76
f 331/1/156 330/1/156 134/1/156 142/1/156
f 331/1/13 332/1/13 139/1/13 141/1/13
f 332/1/14 331/1/14 142/1/14 140/1/14
f 332/1/77 329/1/77 131/1/77 139/1/77
f 329/1/16 332/1/16 140/1/16 132/1/16
f 333/1/171 334/1/171 71/1/171 65/1/171
f 334/1/172 333/1/172 66/1/172 72/1/172
f 334/1/3 335/1/3 69/1/3 71/1/3
f 335/1/4 334/1/4 72/1/4 70/1/4
f 335/1/173 336/1/173 67/1/173 69/1/173
f 336/1/174 335/1/174 70/1/174 68/1/174
f 336/1/166 333/1/166 65/1/166 67/1/166
f 333/1/8 336/1/8 68/1/8 66/1/8
f 337/1/176 338/1/176 23/1/176 19/1/176
f 338/1/48 337/1/48 20/1/48 24/1/48
f 338/1/177 339/1/177 21/1/177 23/1/177
f 339/1/50 338/1/50 24/1/50 22/1/50
f 339/1/178 340/1/178 17/1/178 21/1/178
f 340/1/52 339/1/52 22/1/52 18/1/52
f 340/1/143 337/1/143 19/1/143 17/1/143
f 337/1/54 340/1/54 18/1/54 20/1/54
f 341/1/17 342/1/17 27/1/17 113/1/17
f 342/1/18 341/1/18 114/1/18 28/1/18
f 342/1/19 343/1/19 25/1/19 27/1/19
f 343/1/20 342/1/20 28/1/20 26/1/20
f 343/1/21 344/1/21 121/1/21 25/1/21
f 344/1/22 343/1/22 26/1/22 122/1/22
f 344/1/23 341/1/23 113/1/23 121/1/23
f 341/1/69 344/1/69 122/1/69 114/1/69
f 345/1/179 346/1/179 35/1/179 135/1/179
f 346/1/26 345/1/26 136/1/26 36/1/26
f 346/1/27 347/1/27 33/1/27 35/1/27
f 347/1/28 346/1/28 36/1/28 34/1/28
f 347/1/180 348/1/180 143/1/180 33/1/180
f 348/1/30 347/1/30 34/1/30 144/1/30
f 348/1/31 345/1/31 135/1/31 143/1/31
f 345/1/32 348/1/32 144/1/32 136/1/32
f 349/1/55 350/1/55 131/1/55 129/1/55
f 350/1/56 349/1/56 130/1/56 132/1/56
f 350/1/4 351/1/4 139/1/4 131/1/4
f 351/1/3 350/1/3 132/1/3 140/1/3
f 351/1/57 352/1/57 137/1/57 139/1/57
f 352/1/58 351/1/58 140/1/58 138/1/58
f 352/1/8 349/1/8 129/1/8 137/1/8
f 349/1/7 352/1/7 138/1/7 130/1/7
f 353/1/169 354/1/169 127/1/169 125/1/169
f 354/1/151 353/1/151 126/1/151 128/1/151
f 354/1/42 355/1/42 119/1/42 127/1/42
f 355/1/41 354/1/41 128/1/41 120/1/41
f 355/1/170 356/1/170 117/1/170 119/1/170
f 356/1/153 355/1/153 120/1/153 118/1/153
f 356/1/46 353/1/46 125/1/46 117/1/46
f 353/1/45 356/1/45 118/1/45 126/1/45
f 357/1/163 358/1/163 23/1/163 21/1/163
f 358/1/145 357/1/145 22/1/145 24/1/145
f 358/1/146 359/1/146 119/1/146 23/1/146
f 359/1/147 358/1/147 24/1/147 120/1/147
f 359/1/32 360/1/32 127/1/32 119/1/32
f 360/1/31 359/1/31 120/1/31 128/1/31
f 360/1/148 357/1/148 21/1/148 127/1/148
f 357/1/149 360/1/149 128/1/149 22/1/149
