# Blender 5.2.0 LTS
# www.blender.org
mtllib glass shotgun shell front.mtl
o RenderMesh_14781979687
v 0.119519 -0.077680 0.000000
v 0.120719 -0.079280 0.000000
v 0.119519 -0.000000 -0.077679
v 0.120719 -0.000000 -0.079279
v 0.119519 -0.054927 0.054927
v 0.120719 -0.056058 0.056058
v 0.119519 -0.054927 -0.054928
v 0.120719 -0.056058 -0.056059
v 0.119519 0.054927 0.054927
v 0.120719 0.056058 0.056058
v 0.119519 0.000000 0.077679
v 0.120719 0.000000 0.079279
v 0.119519 0.077680 -0.000000
v 0.120719 0.079280 -0.000000
v 0.119519 0.054927 -0.054928
v 0.120719 0.056058 -0.056059
v -0.119519 -0.054927 0.054927
v -0.119519 -0.056341 0.056341
v -0.119519 -0.077680 0.000000
v -0.119519 -0.079680 0.000000
v -0.119519 0.000000 0.077679
v -0.119519 0.000000 0.079679
v -0.119519 -0.054927 -0.054928
v -0.119519 -0.056341 -0.056342
v -0.119519 0.054927 0.054927
v -0.119519 0.056341 0.056341
v -0.119519 -0.000000 -0.077679
v -0.119519 -0.000000 -0.079679
v -0.119519 0.077680 -0.000000
v -0.119519 0.079680 0.000000
v -0.119519 0.054927 -0.054928
v -0.119519 0.056341 -0.056342
v 0.120119 0.077398 -0.000000
v 0.120119 0.054727 0.054727
v 0.120119 0.000000 0.077397
v 0.120119 -0.054727 0.054727
v 0.120119 -0.077398 0.000000
v 0.120119 -0.054727 -0.054728
v 0.120119 -0.000000 -0.077397
v 0.120119 0.054727 -0.054728
v -0.118519 -0.000924 -0.078296
v 0.119119 -0.000924 -0.078096
v 0.119119 -0.054569 -0.055876
v -0.118519 -0.054710 -0.056018
v 0.119119 0.078097 0.000924
v -0.118519 0.078297 0.000924
v -0.118519 0.056017 0.054710
v 0.119119 0.055875 0.054569
v 0.119119 -0.000924 0.078096
v -0.118519 -0.000924 0.078296
v -0.118519 -0.054710 0.056017
v 0.119119 -0.054569 0.055875
v -0.118519 -0.078297 0.000924
v 0.119119 -0.078097 0.000924
v 0.119119 -0.055875 0.054569
v -0.118519 -0.056017 0.054710
v 0.119119 0.054569 0.055875
v -0.118519 0.054710 0.056017
v -0.118519 0.000924 0.078296
v 0.119119 0.000924 0.078096
v -0.118519 -0.056017 -0.054711
v 0.119119 -0.055875 -0.054570
v 0.119119 -0.078097 -0.000924
v -0.118519 -0.078297 -0.000924
v 0.119119 0.055875 -0.054570
v -0.118519 0.056017 -0.054711
v -0.118519 0.078297 -0.000924
v 0.119119 0.078097 -0.000924
v -0.118519 0.054710 -0.056018
v 0.119119 0.054569 -0.055876
v 0.119119 0.000924 -0.078096
v -0.118519 0.000924 -0.078296
vn 0.3988 0.8472 0.3510
vn -0.9453 0.3013 0.1248
vn 0.3988 0.3509 0.8472
vn -0.9453 0.1248 0.3013
vn 0.3988 -0.3509 0.8472
vn -0.9453 -0.1248 0.3013
vn 0.3988 -0.8472 0.3510
vn -0.9453 -0.3013 0.1248
vn 0.3988 -0.8472 -0.3510
vn -0.9453 -0.3013 -0.1248
vn 0.3987 -0.3509 -0.8473
vn -0.9453 -0.1248 -0.3013
vn 0.3987 0.3509 -0.8473
vn -0.9453 0.1248 -0.3013
vn 0.3988 0.8472 -0.3510
vn -0.9453 0.3013 -0.1248
vn 0.0004 0.4887 -0.8725
vn -0.0007 0.8115 0.5844
vn 0.8795 -0.1821 -0.4397
vn 0.4194 0.3474 0.8387
vn 0.0004 -0.9625 -0.2714
vn -0.0007 -0.1607 0.9870
vn -0.6786 -0.2811 -0.6786
vn -0.6786 0.2811 0.6786
vn 0.0004 0.8725 -0.4886
vn -0.0007 -0.5843 -0.8115
vn -0.6786 0.6786 0.2811
vn -0.6786 -0.6786 -0.2811
vn 0.0004 0.2714 0.9625
vn -0.0007 -0.9870 0.1606
vn 0.8795 0.4397 0.1822
vn 0.4194 -0.8387 -0.3474
vn 0.0004 0.4886 0.8725
vn -0.0007 0.8115 -0.5843
vn -0.6786 -0.2811 0.6786
vn -0.6786 0.2811 -0.6786
vn 0.0004 -0.9625 0.2714
vn -0.0007 -0.1606 -0.9870
vn 0.8795 -0.1821 0.4397
vn 0.4194 0.3474 -0.8387
vn 0.0004 -0.8725 -0.4887
vn -0.0007 0.5844 -0.8115
vn 0.8795 -0.4397 0.1822
vn 0.4194 0.8387 -0.3474
vn 0.0004 -0.2714 0.9625
vn -0.0007 0.9870 0.1606
vn -0.6786 -0.6786 0.2811
vn -0.6786 0.6786 -0.2811
vn 0.0004 0.9625 0.2714
vn -0.0007 0.1607 -0.9870
vn 0.0004 -0.4887 0.8725
vn -0.0007 -0.8115 -0.5844
vn 0.8795 0.1822 0.4397
vn 0.4194 -0.3474 -0.8387
vn 0.0004 -0.2714 -0.9625
vn -0.0007 0.9870 -0.1606
vn 0.8795 -0.4397 -0.1822
vn 0.4194 0.8387 0.3474
vn 0.0004 -0.8725 0.4886
vn -0.0007 0.5843 0.8115
vn 0.0004 0.2714 -0.9625
vn -0.0007 -0.9870 -0.1606
vn 0.0004 0.8725 0.4887
vn -0.0007 -0.5844 0.8115
vn 0.8795 0.4397 -0.1822
vn 0.4194 -0.8387 0.3474
vn 0.0004 0.9625 -0.2714
vn -0.0007 0.1606 0.9870
vn 0.8795 0.1821 -0.4397
vn 0.4194 -0.3474 0.8387
vn 0.0004 -0.4886 -0.8725
vn 0.0004 -0.4887 -0.8725
vn -0.0007 -0.8115 0.5843
vn 0.3987 -0.3509 0.8473
vn 0.3988 -0.3509 -0.8472
vn 0.3988 0.3509 -0.8472
vn 0.0004 0.4886 -0.8725
vn -0.0007 0.8115 0.5843
vn -0.0007 -0.1606 0.9870
vn 0.0004 0.8725 -0.4887
vn -0.0007 -0.5844 -0.8115
vn 0.0004 0.4887 0.8725
vn -0.0007 -0.1607 -0.9870
vn 0.8795 -0.1822 0.4397
vn 0.0004 -0.8725 -0.4886
vn -0.0007 0.5843 -0.8115
vn -0.0007 0.1606 -0.9870
vn 0.0004 -0.4886 0.8725
vn -0.0007 -0.8115 -0.5843
vn 0.8795 -0.4398 -0.1822
vn 0.0004 -0.8725 0.4887
vn -0.0007 0.5844 0.8115
vn 0.0004 0.8725 0.4886
vn -0.0007 -0.5843 0.8115
vn -0.0007 0.1607 0.9870
vn -0.0007 -0.8115 0.5844
vt 0.000000 0.000000
s 0
f 34/1/1 33/1/1 13/1/1
f 33/1/2 34/1/2 10/1/2
f 35/1/3 34/1/3 9/1/3
f 35/1/4 12/1/4 10/1/4
f 36/1/5 35/1/5 11/1/5
f 36/1/6 6/1/6 12/1/6
f 36/1/7 5/1/7 1/1/7
f 37/1/8 2/1/8 6/1/8
f 37/1/9 1/1/9 7/1/9
f 37/1/10 38/1/10 8/1/10
f 38/1/11 7/1/11 3/1/11
f 38/1/12 39/1/12 4/1/12
f 39/1/13 3/1/13 15/1/13
f 40/1/14 16/1/14 4/1/14
f 40/1/15 15/1/15 13/1/15
f 33/1/16 14/1/16 16/1/16
f 41/1/17 27/1/17 3/1/17
f 42/1/18 4/1/18 28/1/18
f 43/1/19 42/1/19 3/1/19
f 42/1/20 43/1/20 8/1/20
f 44/1/21 43/1/21 7/1/21
f 43/1/22 44/1/22 24/1/22
f 41/1/23 44/1/23 23/1/23
f 44/1/24 41/1/24 28/1/24
f 46/1/25 45/1/25 13/1/25
f 45/1/26 46/1/26 30/1/26
f 47/1/27 46/1/27 29/1/27
f 46/1/28 47/1/28 26/1/28
f 47/1/29 25/1/29 9/1/29
f 48/1/30 10/1/30 26/1/30
f 45/1/31 48/1/31 9/1/31
f 45/1/32 14/1/32 10/1/32
f 50/1/33 49/1/33 11/1/33
f 49/1/34 50/1/34 22/1/34
f 51/1/35 50/1/35 21/1/35
f 50/1/36 51/1/36 18/1/36
f 51/1/37 17/1/37 5/1/37
f 52/1/38 6/1/38 18/1/38
f 52/1/39 5/1/39 11/1/39
f 52/1/40 49/1/40 12/1/40
f 53/1/41 19/1/41 1/1/41
f 54/1/42 2/1/42 20/1/42
f 55/1/43 54/1/43 1/1/43
f 54/1/44 55/1/44 6/1/44
f 56/1/45 55/1/45 5/1/45
f 55/1/46 56/1/46 18/1/46
f 53/1/47 56/1/47 17/1/47
f 53/1/48 20/1/48 18/1/48
f 58/1/49 57/1/49 9/1/49
f 57/1/50 58/1/50 26/1/50
f 58/1/24 25/1/24 21/1/24
f 58/1/23 59/1/23 22/1/23
f 59/1/51 21/1/51 11/1/51
f 60/1/52 12/1/52 22/1/52
f 60/1/53 11/1/53 9/1/53
f 60/1/54 57/1/54 10/1/54
f 61/1/55 23/1/55 7/1/55
f 62/1/56 8/1/56 24/1/56
f 63/1/57 62/1/57 7/1/57
f 63/1/58 2/1/58 8/1/58
f 64/1/59 63/1/59 1/1/59
f 63/1/60 64/1/60 20/1/60
f 61/1/28 64/1/28 19/1/28
f 64/1/27 61/1/27 24/1/27
f 66/1/61 65/1/61 15/1/61
f 65/1/62 66/1/62 32/1/62
f 67/1/48 66/1/48 31/1/48
f 67/1/47 30/1/47 32/1/47
f 67/1/63 29/1/63 13/1/63
f 68/1/64 14/1/64 30/1/64
f 65/1/65 68/1/65 13/1/65
f 68/1/66 65/1/66 16/1/66
f 69/1/67 31/1/67 15/1/67
f 70/1/68 16/1/68 32/1/68
f 71/1/69 70/1/69 15/1/69
f 70/1/70 71/1/70 4/1/70
f 72/1/71 71/1/71 3/1/72
f 71/1/73 72/1/73 28/1/73
f 69/1/36 72/1/36 27/1/36
f 72/1/35 69/1/35 32/1/35
f 34/1/1 13/1/1 9/1/1
f 33/1/2 10/1/2 14/1/2
f 35/1/3 9/1/3 11/1/3
f 35/1/4 10/1/4 34/1/4
f 36/1/74 11/1/74 5/1/74
f 36/1/6 12/1/6 35/1/6
f 36/1/7 1/1/7 37/1/7
f 37/1/8 6/1/8 36/1/8
f 37/1/9 7/1/9 38/1/9
f 37/1/10 8/1/10 2/1/10
f 38/1/75 3/1/75 39/1/75
f 38/1/12 4/1/12 8/1/12
f 39/1/76 15/1/76 40/1/76
f 40/1/14 4/1/14 39/1/14
f 40/1/15 13/1/15 33/1/15
f 33/1/16 16/1/16 40/1/16
f 41/1/17 3/1/77 42/1/77
f 42/1/78 28/1/78 41/1/78
f 43/1/19 3/1/19 7/1/19
f 42/1/20 8/1/20 4/1/20
f 44/1/21 7/1/21 23/1/21
f 43/1/79 24/1/79 8/1/79
f 41/1/23 23/1/23 27/1/23
f 44/1/24 28/1/24 24/1/24
f 46/1/80 13/1/80 29/1/80
f 45/1/81 30/1/81 14/1/81
f 47/1/27 29/1/27 25/1/27
f 46/1/28 26/1/28 30/1/28
f 47/1/29 9/1/29 48/1/29
f 48/1/30 26/1/30 47/1/30
f 45/1/31 9/1/31 13/1/31
f 45/1/32 10/1/32 48/1/32
f 50/1/82 11/1/82 21/1/82
f 49/1/34 22/1/34 12/1/34
f 51/1/35 21/1/35 17/1/35
f 50/1/36 18/1/36 22/1/36
f 51/1/37 5/1/37 52/1/37
f 52/1/83 18/1/83 51/1/83
f 52/1/84 11/1/84 49/1/84
f 52/1/40 12/1/40 6/1/40
f 53/1/85 1/1/85 54/1/85
f 54/1/86 20/1/86 53/1/86
f 55/1/43 1/1/43 5/1/43
f 54/1/44 6/1/44 2/1/44
f 56/1/45 5/1/45 17/1/45
f 55/1/46 18/1/46 6/1/46
f 53/1/47 17/1/47 19/1/47
f 53/1/48 18/1/48 56/1/48
f 58/1/49 9/1/49 25/1/49
f 57/1/87 26/1/87 10/1/87
f 58/1/24 21/1/24 59/1/24
f 58/1/23 22/1/23 26/1/23
f 59/1/88 11/1/88 60/1/88
f 60/1/89 22/1/89 59/1/89
f 60/1/53 9/1/53 57/1/53
f 60/1/54 10/1/54 12/1/54
f 61/1/55 7/1/55 62/1/55
f 62/1/56 24/1/56 61/1/56
f 63/1/90 7/1/90 1/1/90
f 63/1/58 8/1/58 62/1/58
f 64/1/91 1/1/91 19/1/91
f 63/1/92 20/1/92 2/1/92
f 61/1/28 19/1/28 23/1/28
f 64/1/27 24/1/27 20/1/27
f 66/1/61 15/1/61 31/1/61
f 65/1/62 32/1/62 16/1/62
f 67/1/48 31/1/48 29/1/48
f 67/1/47 32/1/47 66/1/47
f 67/1/93 13/1/93 68/1/93
f 68/1/94 30/1/94 67/1/94
f 65/1/65 13/1/65 15/1/65
f 68/1/66 16/1/66 14/1/66
f 69/1/67 15/1/67 70/1/67
f 70/1/95 32/1/95 69/1/95
f 71/1/69 15/1/69 3/1/69
f 70/1/70 4/1/70 16/1/70
f 72/1/72 3/1/72 27/1/72
f 71/1/96 28/1/96 4/1/96
f 69/1/36 27/1/36 31/1/36
f 72/1/35 32/1/35 28/1/35
