# Blender 5.2.0 LTS
# www.blender.org
mtllib glass scythe blade.mtl
o blade
v -1.038300 -0.466002 -0.029804
v -1.039192 -0.466079 -0.031592
v -0.981619 -0.381188 -0.029804
v -0.982775 -0.380340 -0.031198
v -1.038300 -0.466002 0.029804
v -1.039192 -0.466079 0.031592
v -1.066414 -0.509167 0.000000
v -1.068125 -0.510202 0.000000
v -0.981619 -0.381188 0.029804
v -0.982775 -0.380340 0.031198
v 0.892814 0.454060 -0.000000
v 0.894228 0.455474 -0.000000
v 0.892814 0.271531 0.029804
v 0.894106 0.271077 0.031262
v 0.892814 0.228367 -0.000000
v 0.893935 0.226711 -0.000000
v 0.892814 0.454060 0.029804
v 0.893969 0.455215 0.030959
v 0.892814 0.271531 -0.029804
v 0.894106 0.271077 -0.031262
v 0.892814 0.454060 -0.029804
v 0.893969 0.455215 -0.030959
v 0.966287 0.509167 -0.077042
v 0.966287 0.510813 -0.078179
v 0.889246 0.509167 -0.000000
v 0.888109 0.510813 -0.000000
v 0.966287 0.509167 0.077042
v 0.966287 0.510813 0.078179
v 0.911811 0.509167 0.054477
v 0.911007 0.510813 0.055281
v 0.911811 0.509167 -0.054477
v 0.911007 0.510813 -0.055281
v 1.043329 0.509167 -0.000000
v 1.044466 0.510813 -0.000000
v 1.020764 0.509167 -0.054477
v 1.021568 0.510813 -0.055281
v 1.020764 0.509167 0.054477
v 1.021568 0.510813 0.055281
v 0.827111 0.454060 -0.029804
v 0.827024 0.455503 -0.031186
v 0.827111 0.454060 0.029804
v 0.827024 0.455503 0.031186
v 0.454534 0.402563 -0.029804
v 0.454271 0.403978 -0.031192
v 0.454534 0.402563 0.029804
v 0.454271 0.403978 0.031192
v -0.020235 0.281640 -0.029804
v -0.020691 0.283009 -0.031189
v -0.233286 0.197903 -0.029804
v -0.233889 0.199211 -0.031192
v -0.020235 0.281640 0.029804
v -0.020691 0.283009 0.031189
v -0.444219 0.085547 -0.029804
v -0.444957 0.086780 -0.031195
v -0.233286 0.197903 0.029804
v -0.233889 0.199211 0.031192
v -0.661510 -0.059667 -0.029804
v -0.662395 -0.058524 -0.031186
v -0.444219 0.085547 0.029804
v -0.444957 0.086780 0.031195
v -0.661510 -0.059667 0.029804
v -0.662395 -0.058524 0.031186
v -0.878803 -0.253640 -0.029804
v -0.879855 -0.252640 -0.031180
v -0.878803 -0.253640 0.029804
v -0.879855 -0.252640 0.031180
v 0.966287 0.067824 -0.077042
v 0.966287 0.066178 -0.078179
v 0.966287 0.067824 0.077042
v 0.966287 0.066178 0.078179
v 0.889246 0.067824 -0.000000
v 0.888109 0.066178 -0.000000
v 0.911811 0.067824 0.054477
v 0.911007 0.066178 0.055281
v 0.911811 0.067824 -0.054477
v 0.911007 0.066178 -0.055281
v 1.043329 0.067824 -0.000000
v 1.044466 0.066178 -0.000000
v 1.020764 0.067824 0.054477
v 1.021568 0.066178 0.055281
v 1.020764 0.067824 -0.054477
v 1.021568 0.066178 -0.055281
v 0.827111 0.271531 0.029804
v 0.827146 0.270934 0.031712
v 0.757152 0.263052 0.029804
v 0.757371 0.262454 0.031700
v 0.706275 0.222243 0.029804
v 0.706737 0.221692 0.031670
v 0.651510 0.171896 0.029804
v 0.651878 0.171206 0.031645
v 0.454534 0.162179 0.029804
v 0.454586 0.161583 0.031712
v 0.257558 0.136564 0.029804
v 0.257662 0.135969 0.031711
v -0.020235 0.072457 0.029804
v -0.020080 0.071866 0.031708
v -0.233286 0.007800 0.029804
v -0.233079 0.007212 0.031704
v -0.444219 -0.081237 0.029804
v -0.443958 -0.081819 0.031700
v -0.661510 -0.187763 0.029804
v -0.661197 -0.188340 0.031693
v -0.878803 -0.326087 0.029804
v -0.878383 -0.326690 0.031664
v 0.827111 0.271531 -0.029804
v 0.827146 0.270934 -0.031713
v 0.757152 0.263052 -0.029804
v 0.757371 0.262454 -0.031700
v 0.706275 0.222243 -0.029804
v 0.706737 0.221692 -0.031670
v 0.651510 0.171896 -0.029804
v 0.651878 0.171206 -0.031645
v 0.454534 0.162179 -0.029804
v 0.454586 0.161583 -0.031712
v 0.257558 0.136564 -0.029804
v 0.257662 0.135969 -0.031711
v -0.020235 0.072457 -0.029804
v -0.020080 0.071866 -0.031708
v -0.233286 0.007800 -0.029804
v -0.233079 0.007212 -0.031704
v -0.444219 -0.081237 -0.029804
v -0.443958 -0.081819 -0.031700
v -0.661510 -0.187763 -0.029804
v -0.661197 -0.188340 -0.031693
v -0.878803 -0.326087 -0.029804
v -0.878383 -0.326690 -0.031664
v 0.827111 0.228367 -0.000000
v 0.827236 0.226371 -0.000000
v 0.757152 0.219887 -0.000000
v 0.758057 0.218103 -0.000000
v 0.706275 0.179078 -0.000000
v 0.707597 0.177577 -0.000000
v 0.651510 0.128731 -0.000000
v 0.652178 0.126846 -0.000000
v 0.454534 0.119014 -0.000000
v 0.454716 0.117022 -0.000000
v 0.257558 0.093399 -0.000000
v 0.257922 0.091432 -0.000000
v -0.020235 0.029292 -0.000000
v -0.019710 0.027362 -0.000000
v -0.233286 -0.035365 0.000000
v -0.232587 -0.037239 0.000000
v -0.444219 -0.124402 0.000000
v -0.443378 -0.126217 0.000000
v -0.661510 -0.230928 0.000000
v -0.660505 -0.232657 0.000000
v -0.878803 -0.369252 0.000000
v -0.877602 -0.370851 0.000000
v 0.895487 0.474026 0.070800
v 0.894125 0.474564 0.072162
v 0.895487 0.102965 0.070800
v 0.894125 0.102427 0.072162
v 0.966287 0.102965 0.100127
v 0.966287 0.102427 0.102053
v 0.866161 0.474026 -0.000000
v 0.864235 0.474564 -0.000000
v 0.866161 0.102965 -0.000000
v 0.864235 0.102427 -0.000000
v 1.037087 0.102965 0.070800
v 1.038449 0.102427 0.072162
v 0.966287 0.474026 0.100127
v 0.966287 0.474564 0.102053
v 1.066414 0.102965 -0.000000
v 1.068340 0.102427 -0.000000
v 1.037087 0.474026 0.070800
v 1.038449 0.474564 0.072162
v 1.066414 0.474026 -0.000000
v 1.068340 0.474564 -0.000000
v 1.037087 0.102965 -0.070800
v 1.038449 0.102427 -0.072162
v 1.037087 0.474026 -0.070800
v 1.038449 0.474564 -0.072162
v 0.966287 0.102965 -0.100127
v 0.966287 0.102427 -0.102053
v 0.966287 0.474026 -0.100127
v 0.966287 0.474564 -0.102053
v 0.895487 0.102965 -0.070800
v 0.894125 0.102427 -0.072162
v 0.895487 0.474026 -0.070800
v 0.894125 0.474564 -0.072162
v -0.019494 0.282571 -0.029497
v -0.019494 0.282571 0.029497
v 0.453433 0.403024 0.029498
v 0.453433 0.403024 -0.029498
v 0.893521 0.442437 0.001000
v 0.893460 0.271540 0.029481
v 0.893375 0.230747 0.001000
v 0.893460 0.283634 0.029533
v 0.893521 0.453767 0.001176
v 0.893391 0.453637 0.029381
v 0.893521 0.442437 -0.001000
v 0.893375 0.230747 -0.001000
v 0.893460 0.271540 -0.029481
v 0.893460 0.283634 -0.029533
v 0.893391 0.453637 -0.029381
v 0.893521 0.453767 -0.001177
v 0.650844 0.128563 -0.000569
v 0.455625 0.118891 -0.000569
v 0.455560 0.161107 -0.030190
v 0.650694 0.170678 -0.030156
v 0.966287 0.509990 -0.076528
v 0.912175 0.509990 -0.054114
v 0.889760 0.509990 -0.000000
v 0.912175 0.509990 0.054113
v 0.966287 0.509990 0.076528
v 1.020401 0.509990 0.054113
v 1.042815 0.509990 -0.000000
v 1.020401 0.509990 -0.054114
v -0.981570 -0.379986 -0.029501
v -0.981570 -0.379986 0.029501
v -0.879957 -0.253918 0.029492
v -0.879957 -0.253918 -0.029492
v -0.662699 -0.059761 -0.029495
v -0.878583 -0.252474 -0.029492
v -0.878583 -0.252474 0.029492
v -0.662699 -0.059761 0.029495
v -0.661121 -0.058540 -0.029495
v -0.661121 -0.058540 0.029495
v -0.445419 0.085608 0.029500
v -0.445419 0.085608 -0.029500
v 0.965363 0.103696 0.100707
v 0.965363 0.473295 0.100707
v 0.895730 0.473295 0.071864
v 0.895730 0.103696 0.071864
v 0.865580 0.473295 0.000924
v 0.865580 0.103696 0.000924
v 0.894423 0.103696 0.070557
v 0.894423 0.473295 0.070557
v 1.066994 0.103696 0.000924
v 1.066994 0.473295 0.000924
v 1.038151 0.473295 0.070557
v 1.038151 0.103696 0.070557
v 0.826077 0.454644 0.029495
v 0.826077 0.454644 -0.029495
v 0.455393 0.403408 -0.029498
v 0.455393 0.403408 0.029498
v 0.892627 0.454320 -0.000000
v 0.892391 0.454637 -0.029381
v 0.828067 0.454781 -0.029495
v 0.828067 0.454781 0.029495
v 0.892391 0.454637 0.029381
v -0.443705 0.086634 -0.029500
v -0.443705 0.086634 0.029500
v -0.234470 0.198087 0.029498
v -0.234470 0.198087 -0.029498
v 0.892375 0.228362 -0.000568
v 0.828173 0.228192 -0.000568
v 0.828128 0.270410 -0.030190
v 0.892460 0.270481 -0.029965
v 0.895730 0.103696 -0.071864
v 0.895730 0.473295 -0.071864
v 0.965363 0.473295 -0.100707
v 0.965363 0.103696 -0.100707
v 0.889760 0.067001 -0.000000
v 0.912175 0.067001 -0.054114
v 0.966287 0.067001 -0.076528
v 1.020401 0.067001 -0.054114
v 1.042815 0.067001 -0.000000
v 1.020401 0.067001 0.054114
v 0.966287 0.067001 0.076528
v 0.912175 0.067001 0.054114
v -0.233909 -0.035844 -0.000600
v -0.442826 -0.124030 -0.000600
v -0.443116 -0.081986 -0.030152
v -0.234155 0.006227 -0.030154
v 0.892460 0.272304 0.030533
v 0.892391 0.453637 0.030381
v 0.827136 0.453781 0.030495
v 0.454595 0.402288 0.030498
v -0.020155 0.281371 0.030497
v -0.233168 0.197647 0.030498
v -0.444074 0.085304 0.030500
v -0.661339 -0.059888 0.030495
v -0.878602 -0.253831 0.030492
v -0.981391 -0.381357 0.030501
v -1.033691 -0.460275 0.030698
v -0.879195 -0.325586 0.030734
v -0.661844 -0.187178 0.030749
v -0.444503 -0.080618 0.030752
v -0.233523 0.008448 0.030754
v -0.020415 0.073128 0.030756
v 0.257433 0.137252 0.030757
v 0.454471 0.162878 0.030758
v 0.651283 0.172532 0.030724
v 0.705854 0.222726 0.030737
v 0.756858 0.263711 0.030752
v 0.827068 0.272232 0.030758
v 0.826176 0.228075 -0.000571
v 0.758602 0.219943 -0.000571
v 0.758259 0.262047 -0.030181
v 0.826131 0.270285 -0.030187
v 0.256748 0.093024 -0.000578
v -0.018981 0.029393 -0.000578
v -0.019166 0.071553 -0.030178
v 0.256619 0.135201 -0.030179
v -0.444762 -0.124899 -0.000610
v -0.660044 -0.230437 -0.000610
v -0.660390 -0.188462 -0.030139
v -0.445052 -0.082883 -0.030142
v -0.661948 -0.231474 -0.000633
v -0.877262 -0.368535 -0.000633
v -0.877652 -0.326707 -0.030101
v -0.662294 -0.189567 -0.030115
v 0.707846 0.180017 0.000663
v 0.756694 0.219225 0.000663
v 0.756352 0.261063 0.030089
v 0.707416 0.221737 0.030074
v 0.827136 0.453781 -0.030495
v 0.892391 0.453637 -0.030381
v 0.892460 0.272304 -0.030533
v 0.827068 0.272232 -0.030758
v 0.756858 0.263711 -0.030752
v 0.705854 0.222726 -0.030737
v 0.651283 0.172532 -0.030724
v 0.454471 0.162878 -0.030758
v 0.257433 0.137252 -0.030757
v -0.020415 0.073128 -0.030756
v -0.233523 0.008448 -0.030754
v -0.444503 -0.080618 -0.030752
v -0.661844 -0.187178 -0.030749
v -0.879195 -0.325586 -0.030734
v -1.033691 -0.460275 -0.030698
v -0.981391 -0.381357 -0.030501
v -0.878602 -0.253831 -0.030492
v -0.661339 -0.059888 -0.030495
v -0.444074 0.085304 -0.030500
v -0.233168 0.197647 -0.030498
v -0.020155 0.281371 -0.030497
v 0.454595 0.402288 -0.030498
v -0.879123 -0.369793 -0.000653
v -1.065086 -0.507416 -0.000859
v -1.038241 -0.466159 -0.029792
v -0.879488 -0.328153 -0.030057
v 0.828173 0.228192 0.000568
v 0.892375 0.228362 0.000568
v 0.892460 0.270481 0.029965
v 0.828128 0.270410 0.030190
v 0.758602 0.219943 0.000571
v 0.826176 0.228075 0.000571
v 0.826131 0.270285 0.030187
v 0.758259 0.262047 0.030181
v 0.706050 0.178504 -0.000684
v 0.652730 0.129594 -0.000684
v 0.652580 0.171375 -0.030040
v 0.705620 0.220162 -0.030053
v 0.652730 0.129594 0.000684
v 0.706050 0.178504 0.000684
v 0.705620 0.220162 0.030053
v 0.652580 0.171375 0.030040
v 0.455625 0.118891 0.000569
v 0.650844 0.128563 0.000569
v 0.650694 0.170678 0.030156
v 0.455560 0.161107 0.030190
v -0.018981 0.029393 0.000578
v 0.256748 0.093024 0.000578
v 0.256619 0.135201 0.030179
v -0.019166 0.071553 0.030178
v -0.442826 -0.124030 0.000600
v -0.233909 -0.035844 0.000600
v -0.234155 0.006227 0.030154
v -0.443116 -0.081986 0.030152
v -0.660044 -0.230437 0.000610
v -0.444762 -0.124899 0.000610
v -0.445052 -0.082883 0.030142
v -0.660390 -0.188462 0.030139
v -0.877262 -0.368535 0.000633
v -0.661948 -0.231474 0.000633
v -0.662294 -0.189567 0.030115
v -0.877652 -0.326707 0.030101
v -1.065086 -0.507416 0.000859
v -0.879123 -0.369793 0.000653
v -0.879488 -0.328153 0.030058
v -1.038241 -0.466159 0.029792
v 0.258737 0.093373 0.000571
v 0.453628 0.118716 0.000571
v 0.453563 0.160924 0.030187
v 0.258607 0.135569 0.030186
v 0.756694 0.219225 -0.000663
v 0.707846 0.180017 -0.000663
v 0.707416 0.221737 -0.030074
v 0.756352 0.261063 -0.030089
v 0.453628 0.118716 -0.000571
v 0.258737 0.093373 -0.000571
v 0.258607 0.135569 -0.030186
v 0.453563 0.160924 -0.030187
v 0.888507 0.509135 0.000945
v 0.866151 0.475150 0.000945
v 0.894812 0.475150 0.070139
v 0.910621 0.509135 0.054331
v -0.020958 0.028875 -0.000585
v -0.231951 -0.035155 -0.000585
v -0.232197 0.006958 -0.030169
v -0.021143 0.071015 -0.030171
v -1.038580 -0.465828 0.029698
v -0.982753 -0.381596 0.029501
v -0.982753 -0.381596 -0.029501
v -1.038580 -0.465828 -0.029698
v -1.066180 -0.508011 0.000000
v -0.232657 0.198923 -0.029498
v -0.232657 0.198923 0.029498
v -0.021393 0.281959 0.029497
v -0.021393 0.281959 -0.029497
v -0.231951 -0.035155 0.000585
v -0.020958 0.028875 0.000585
v -0.021143 0.071015 0.030171
v -0.232197 0.006958 0.030169
v 0.866151 0.101841 -0.000945
v 0.894812 0.101841 -0.070139
v 0.910621 0.067856 -0.054331
v 0.888507 0.067856 -0.000945
v 1.020618 0.067856 -0.055667
v 0.967232 0.067856 -0.077781
v 0.967232 0.101841 -0.100137
v 1.036426 0.101841 -0.071475
v 1.020618 0.067856 0.055667
v 1.036426 0.101841 0.071475
v 0.967232 0.101841 0.100137
v 0.967232 0.067856 0.077781
v 0.965342 0.475150 -0.100137
v 0.896148 0.475150 -0.071475
v 0.911957 0.509135 -0.055667
v 0.965342 0.509135 -0.077781
v 1.044068 0.067856 0.000945
v 1.066424 0.101841 0.000945
v 1.037762 0.101841 0.070139
v 1.021954 0.067856 0.054331
v 0.911957 0.067856 -0.055667
v 0.896148 0.101841 -0.071475
v 0.965342 0.101841 -0.100137
v 0.965342 0.067856 -0.077781
v 0.910621 0.509135 -0.054331
v 0.894812 0.475150 -0.070139
v 0.866151 0.475150 -0.000945
v 0.888507 0.509135 -0.000945
v 0.967232 0.475150 -0.100137
v 0.967232 0.509135 -0.077781
v 1.020618 0.509135 -0.055667
v 1.036426 0.475150 -0.071475
v 0.866151 0.101841 0.000945
v 0.888507 0.067856 0.000945
v 0.910621 0.067856 0.054331
v 0.894812 0.101841 0.070139
v 1.021954 0.067856 -0.054331
v 1.037762 0.101841 -0.070139
v 1.066424 0.101841 -0.000945
v 1.044068 0.067856 -0.000945
v 1.066424 0.475150 0.000945
v 1.044068 0.509135 0.000945
v 1.021954 0.509135 0.054331
v 1.037762 0.475150 0.070139
v 1.036426 0.475150 0.071475
v 1.020618 0.509135 0.055667
v 0.967232 0.509135 0.077780
v 0.967232 0.475150 0.100137
v 1.038151 0.103696 -0.070557
v 1.038151 0.473295 -0.070557
v 1.066994 0.473295 -0.000924
v 1.066994 0.103696 -0.000924
v 0.911957 0.067856 0.055667
v 0.965342 0.067856 0.077781
v 0.965342 0.101841 0.100137
v 0.896148 0.101841 0.071475
v 1.066424 0.475150 -0.000945
v 1.037762 0.475150 -0.070139
v 1.021954 0.509135 -0.054331
v 1.044068 0.509135 -0.000945
v 0.965342 0.475150 0.100137
v 0.965342 0.509135 0.077780
v 0.911957 0.509135 0.055667
v 0.896148 0.475150 0.071475
v 0.967211 0.103696 -0.100707
v 0.967211 0.473295 -0.100707
v 1.036844 0.473295 -0.071864
v 1.036844 0.103696 -0.071864
v 1.036844 0.103696 0.071864
v 1.036844 0.473295 0.071864
v 0.967211 0.473295 0.100707
v 0.967211 0.103696 0.100707
v 0.865580 0.103696 -0.000924
v 0.865580 0.473295 -0.000924
v 0.894423 0.473295 -0.070557
v 0.894423 0.103696 -0.070557
vn 0.4747 0.4967 0.7266
vn 0.4759 0.4957 -0.7265
vn 0.2776 -0.8760 -0.3944
vn 0.2872 -0.8704 0.4000
vn -0.2098 0.6495 -0.7308
vn -0.2060 0.6374 0.7425
vn -0.6543 0.2065 -0.7275
vn 0.1693 -0.9023 -0.3963
vn -0.1375 0.6638 0.7352
vn -0.6543 0.2065 0.7275
vn 0.1814 -0.9012 0.3935
vn -0.1279 0.6557 -0.7441
vn 0.7520 -0.6044 -0.2631
vn 0.3433 0.2155 -0.9142
vn -0.5489 0.2263 -0.8047
vn -0.9005 -0.4349 -0.0000
vn 0.5602 0.8283 -0.0000
vn 0.6932 -0.2524 0.6751
vn 0.5135 0.8517 0.1043
vn -0.7266 0.6871 -0.0000
vn 0.4843 -0.8749 -0.0000
vn 0.7451 0.6251 -0.2325
vn 0.2058 -0.6742 0.7093
vn 0.5190 -0.6100 -0.5988
vn -0.5575 -0.5962 -0.5777
vn 0.5438 0.5795 0.6070
vn 0.7520 -0.6044 0.2631
vn 0.5135 0.8517 -0.1043
vn 0.3433 0.2155 0.9142
vn -0.5489 0.2263 0.8047
vn 0.6932 -0.2524 -0.6751
vn 0.7451 0.6251 0.2325
vn 0.5190 -0.6100 0.5988
vn -0.5575 -0.5962 0.5777
vn 0.5438 0.5795 -0.6070
vn 0.2058 -0.6742 -0.7093
vn -0.5830 0.2605 -0.7695
vn 0.5944 0.3680 -0.7150
vn -0.1280 0.9918 -0.0000
vn -0.4830 0.8756 -0.0000
vn 0.2261 -0.9741 -0.0000
vn 0.0605 -0.9982 -0.0000
vn 0.6668 -0.6645 0.3375
vn -0.0417 0.5246 0.8503
vn 0.0265 -0.1753 -0.9842
vn -0.6148 -0.7517 0.2387
vn -0.1721 0.4353 0.8837
vn 0.2170 -0.3009 -0.9287
vn -0.0000 0.3344 0.9424
vn 0.6664 0.3344 0.6664
vn 0.4603 -0.7591 0.4603
vn -0.0000 -0.7591 0.6510
vn -0.0000 0.8448 -0.5351
vn -0.3783 0.8448 -0.3783
vn 0.9424 0.3344 -0.0000
vn 0.6510 -0.7591 -0.0000
vn -0.5351 0.8448 -0.0000
vn 0.6664 0.3344 -0.6664
vn 0.4603 -0.7591 -0.4603
vn -0.3783 0.8448 0.3783
vn -0.0000 0.3344 -0.9424
vn -0.0000 -0.7591 -0.6510
vn -0.0000 0.8448 0.5351
vn -0.6664 0.3344 -0.6664
vn -0.4603 -0.7591 -0.4603
vn 0.3783 0.8448 0.3784
vn -0.9424 0.3344 -0.0000
vn -0.6510 -0.7591 -0.0000
vn 0.5351 0.8448 -0.0000
vn -0.6664 0.3344 0.6664
vn -0.4603 -0.7591 0.4603
vn 0.3783 0.8448 -0.3784
vn 0.0870 0.6856 0.7228
vn 0.0870 0.6856 -0.7228
vn 0.7263 -0.5345 -0.4322
vn 0.7263 -0.5345 0.4322
vn -0.5202 0.3845 -0.7626
vn -0.5202 0.3845 0.7626
vn -0.6575 -0.2278 -0.7182
vn 0.6646 -0.6320 -0.3987
vn -0.4941 0.4700 0.7314
vn -0.6575 -0.2278 0.7182
vn 0.6646 -0.6320 0.3987
vn -0.4941 0.4700 -0.7314
vn -0.6831 -0.1203 0.7203
vn 0.1956 0.6671 0.7188
vn 0.5619 -0.7255 0.3974
vn -0.4157 0.5366 -0.7343
vn 0.1956 0.6671 -0.7188
vn -0.6831 -0.1203 -0.7203
vn 0.5619 -0.7255 -0.3974
vn -0.4157 0.5366 0.7343
vn 0.2862 0.6327 0.7196
vn 0.2862 0.6327 -0.7196
vn -0.6914 -0.0250 -0.7220
vn 0.4715 -0.7879 -0.3960
vn -0.3455 0.5772 0.7399
vn -0.6914 -0.0250 0.7220
vn 0.4715 -0.7879 0.3960
vn -0.3455 0.5772 -0.7399
vn -0.7393 0.6732 -0.0108
vn -0.7393 -0.6733 -0.0108
vn -0.0000 -0.3082 -0.9513
vn -0.0000 0.3082 -0.9513
vn -0.0000 -0.2533 0.9674
vn -0.0000 0.2533 0.9674
vn 0.5304 -0.6733 0.5151
vn 0.6727 -0.3082 -0.6727
vn -0.6841 0.2533 0.6840
vn 0.5304 0.6732 0.5151
vn 0.6727 0.3082 -0.6727
vn -0.6841 -0.2533 0.6840
vn 0.0108 -0.6733 0.7393
vn 0.0108 0.6732 0.7394
vn 0.9513 0.3082 -0.0000
vn 0.9513 -0.3082 -0.0000
vn -0.9674 0.2533 -0.0000
vn -0.9674 -0.2533 -0.0000
vn -0.5151 0.6732 -0.5305
vn -0.5151 -0.6732 -0.5305
vn -0.0108 0.6732 0.7393
vn -0.0108 -0.6733 0.7393
vn -0.9513 -0.3082 -0.0000
vn -0.9513 0.3082 -0.0000
vn 0.9674 -0.2533 -0.0000
vn 0.9674 0.2533 -0.0000
vn 0.5152 -0.6732 -0.5304
vn -0.6727 -0.3082 -0.6727
vn 0.6840 0.2533 0.6840
vn 0.5152 0.6732 -0.5304
vn -0.6727 0.3082 -0.6727
vn 0.6840 -0.2533 0.6840
vn -0.6281 0.2818 -0.7254
vn -0.6287 0.2805 0.7253
vn 0.0663 -0.9077 0.4143
vn 0.0565 -0.9061 -0.4192
vn -0.0444 0.6826 0.7295
vn -0.0436 0.6713 -0.7399
vn 0.5301 0.4335 0.7287
vn 0.5301 0.4335 -0.7287
vn -0.9765 0.2156 -0.0000
vn -0.6433 0.4455 0.6227
vn 0.6142 0.3234 0.7199
vn 0.6142 0.3234 -0.7199
vn -0.6433 0.4455 -0.6227
vn 0.3484 0.5981 0.7217
vn 0.3484 0.5981 -0.7217
vn -0.6916 0.0457 -0.7208
vn 0.3843 -0.8336 -0.3968
vn -0.2825 0.6128 0.7381
vn -0.6916 0.0457 0.7208
vn 0.3843 -0.8336 0.3968
vn -0.2825 0.6128 -0.7381
vn -0.5815 0.1967 -0.7894
vn 0.6263 0.3782 -0.6817
vn -0.0870 0.9962 -0.0000
vn 0.0420 -0.9991 -0.0000
vn 0.6709 -0.6675 0.3228
vn -0.0285 0.5133 0.8577
vn 0.0187 -0.1684 -0.9855
vn -0.6487 -0.7569 0.0793
vn 0.5304 0.6732 -0.5151
vn 0.5304 -0.6733 -0.5151
vn 0.6727 -0.3082 0.6727
vn 0.6727 0.3082 0.6727
vn -0.6841 -0.2533 -0.6840
vn -0.6841 0.2533 -0.6840
vn -0.7393 -0.6733 0.0108
vn -0.0000 -0.3082 0.9513
vn -0.0000 0.2533 -0.9674
vn -0.7393 0.6732 0.0108
vn -0.0000 0.3082 0.9513
vn -0.0000 -0.2533 -0.9674
vn 0.9424 -0.3344 -0.0000
vn 0.6664 -0.3344 0.6664
vn 0.4603 0.7591 0.4603
vn 0.6510 0.7591 -0.0000
vn -0.5351 -0.8448 -0.0000
vn -0.3783 -0.8448 -0.3783
vn -0.0000 -0.3344 0.9424
vn -0.0000 0.7591 0.6510
vn -0.0000 -0.8448 -0.5351
vn -0.6664 -0.3344 0.6664
vn -0.4603 0.7591 0.4603
vn 0.3783 -0.8448 -0.3784
vn -0.9424 -0.3343 -0.0000
vn -0.6510 0.7591 -0.0000
vn 0.5351 -0.8448 -0.0000
vn -0.6664 -0.3344 -0.6664
vn -0.4603 0.7591 -0.4603
vn 0.3783 -0.8448 0.3784
vn -0.0000 -0.3344 -0.9424
vn -0.0000 0.7591 -0.6510
vn -0.0000 -0.8448 0.5351
vn 0.6664 -0.3344 -0.6664
vn 0.4603 0.7591 -0.4603
vn -0.3783 -0.8448 0.3783
vn -0.6034 0.1768 -0.7776
vn 0.5529 0.4755 -0.6842
vn -0.5458 0.8379 -0.0000
vn -0.4629 0.8864 -0.0000
vn 0.2423 -0.9702 -0.0000
vn 0.2972 -0.9548 -0.0000
vn 0.7833 -0.4670 0.4102
vn -0.1991 0.4974 0.8444
vn 0.1320 -0.1681 -0.9769
vn -0.4271 -0.8717 0.2402
vn -0.1625 0.5086 0.8455
vn 0.1013 -0.1615 -0.9817
vn -0.6610 0.6515 0.3724
vn -0.6105 -0.6087 0.5067
vn 0.0649 -0.9226 0.3803
vn 0.1760 -0.8994 0.4001
vn 0.2813 -0.8717 0.4012
vn 0.3837 -0.8323 0.4001
vn 0.4709 -0.7869 0.3987
vn 0.5602 -0.7234 0.4035
vn 0.6624 -0.6298 0.4058
vn 0.7579 -0.5538 0.3449
vn 0.3889 0.5131 0.7652
vn 0.2553 0.0161 -0.9667
vn -0.5875 -0.3136 0.7459
vn -0.5951 0.7978 0.0974
vn -0.2762 0.4396 -0.8547
vn 0.1688 -0.1234 0.9779
vn -0.4826 0.8599 0.1662
vn -0.2420 0.4928 -0.8358
vn 0.1536 -0.1587 0.9753
vn -0.4094 0.8983 0.1597
vn -0.1991 0.4974 -0.8444
vn 0.1320 -0.1681 0.9769
vn -0.3361 0.9291 0.1543
vn -0.1625 0.5086 -0.8455
vn 0.1013 -0.1615 0.9817
vn -0.2548 0.9549 0.1526
vn -0.1210 0.5123 -0.8503
vn 0.0780 -0.1699 0.9824
vn -0.1751 0.9731 0.1495
vn -0.0830 0.5191 -0.8507
vn 0.0515 -0.1652 0.9849
vn -0.0880 0.9838 0.1560
vn -0.0417 0.5246 -0.8503
vn 0.0265 -0.1753 0.9842
vn -0.3786 0.9007 0.2130
vn -0.1721 0.4353 -0.8837
vn 0.2170 -0.3009 0.9287
vn -0.6420 0.7464 0.1750
vn -0.3340 0.4540 -0.8260
vn 0.2278 -0.1510 0.9619
vn -0.3845 0.9117 0.1447
vn -0.2023 0.5300 -0.8235
vn 0.0700 -0.0834 0.9940
vn -0.0611 0.9884 0.1393
vn -0.0285 0.5133 -0.8577
vn 0.0187 -0.1684 0.9855
vn -0.6113 0.3087 -0.7287
vn 0.6129 0.4569 -0.6447
vn -0.5579 0.8299 -0.0000
vn 0.3276 -0.9448 -0.0000
vn 0.6994 -0.5972 0.3928
vn -0.2023 0.5300 0.8235
vn 0.0700 -0.0834 -0.9940
vn -0.5868 -0.7534 0.2968
vn -0.6028 0.2519 -0.7571
vn 0.5710 0.4205 -0.7051
vn -0.3580 0.9337 -0.0000
vn -0.2518 0.9678 -0.0000
vn 0.1219 -0.9925 -0.0000
vn 0.1781 -0.9840 -0.0000
vn 0.7337 -0.5721 0.3665
vn -0.1210 0.5123 0.8503
vn 0.0780 -0.1699 -0.9824
vn -0.5292 -0.8038 0.2717
vn -0.0830 0.5191 0.8507
vn 0.0515 -0.1652 -0.9849
vn -0.5998 0.1477 -0.7864
vn 0.5477 0.5012 -0.6699
vn -0.6288 0.7776 -0.0000
vn 0.3659 -0.9307 -0.0000
vn 0.7947 -0.4266 0.4319
vn -0.2420 0.4928 0.8358
vn 0.1536 -0.1587 -0.9753
vn -0.3897 -0.8927 0.2265
vn -0.5945 0.0992 -0.7980
vn 0.5363 0.5394 -0.6491
vn -0.7092 0.7050 -0.0000
vn 0.4663 -0.8846 -0.0000
vn 0.8101 -0.3474 0.4722
vn -0.2762 0.4396 0.8547
vn 0.1688 -0.1234 -0.9779
vn -0.3187 -0.9223 0.2187
vn 0.5224 0.5682 0.6358
vn -0.6039 0.0735 0.7936
vn -0.7743 0.6328 -0.0000
vn 0.5150 -0.8572 -0.0000
vn -0.2533 -0.9384 -0.2351
vn 0.8230 -0.2835 -0.4922
vn 0.0649 -0.9226 -0.3803
vn -0.6105 -0.6087 -0.5067
vn -0.6610 0.6515 -0.3724
vn -0.0611 0.9884 -0.1393
vn -0.3845 0.9117 -0.1447
vn -0.6420 0.7464 -0.1750
vn -0.3340 0.4540 0.8260
vn 0.2278 -0.1510 -0.9619
vn -0.3786 0.9007 -0.2130
vn -0.0880 0.9838 -0.1560
vn -0.1751 0.9731 -0.1495
vn -0.2548 0.9549 -0.1526
vn -0.3361 0.9291 -0.1543
vn -0.4094 0.8983 -0.1597
vn -0.4826 0.8599 -0.1662
vn -0.5951 0.7978 -0.0974
vn 0.3889 0.5131 -0.7652
vn 0.2553 0.0161 0.9667
vn -0.5875 -0.3136 -0.7459
vn 0.7579 -0.5538 -0.3449
vn 0.6624 -0.6298 -0.4058
vn 0.5602 -0.7234 -0.4035
vn 0.4709 -0.7869 -0.3987
vn 0.3837 -0.8323 -0.4001
vn 0.2813 -0.8717 -0.4012
vn 0.1760 -0.8994 -0.4001
vn -0.7363 -0.0089 -0.6766
vn -0.1871 0.5775 -0.7947
vn 0.2854 0.9584 -0.0000
vn -0.9534 -0.3017 -0.0000
vn 0.6501 -0.5937 0.4742
vn -0.2633 -0.9498 0.1691
vn 0.6263 0.3782 0.6817
vn -0.5815 0.1967 0.7894
vn -0.6487 -0.7569 -0.0793
vn 0.6709 -0.6675 -0.3228
vn 0.6129 0.4569 0.6447
vn -0.6113 0.3087 0.7287
vn -0.5868 -0.7534 -0.2968
vn 0.6994 -0.5972 -0.3928
vn -0.5813 0.0146 -0.8136
vn 0.5366 0.5059 -0.6754
vn 0.8382 -0.2703 0.4737
vn -0.1877 -0.9647 0.1849
vn 0.5366 0.5059 0.6754
vn -0.5813 0.0146 0.8136
vn -0.1877 -0.9647 -0.1849
vn 0.8382 -0.2703 -0.4737
vn 0.5944 0.3680 0.7150
vn -0.5830 0.2605 0.7695
vn -0.6148 -0.7517 -0.2387
vn 0.6668 -0.6645 -0.3375
vn 0.5710 0.4205 0.7051
vn -0.6028 0.2519 0.7571
vn -0.5292 -0.8038 -0.2717
vn 0.7337 -0.5721 -0.3665
vn 0.5529 0.4755 0.6842
vn -0.6034 0.1768 0.7776
vn -0.4271 -0.8717 -0.2402
vn 0.7833 -0.4670 -0.4102
vn 0.5477 0.5012 0.6699
vn -0.5998 0.1477 0.7864
vn -0.3897 -0.8927 -0.2265
vn 0.7947 -0.4266 -0.4319
vn 0.5363 0.5394 0.6491
vn -0.5945 0.0992 0.7980
vn -0.3187 -0.9223 -0.2187
vn 0.8101 -0.3474 -0.4722
vn -0.1873 0.5774 0.7947
vn -0.7363 -0.0089 0.6766
vn -0.2633 -0.9498 -0.1691
vn 0.6499 -0.5938 -0.4743
vn 0.5811 0.3900 0.7142
vn -0.5986 0.2906 0.7465
vn -0.5810 -0.7607 -0.2893
vn 0.6985 -0.6262 -0.3464
vn -0.6039 0.0735 -0.7936
vn 0.5224 0.5682 -0.6358
vn 0.8230 -0.2835 0.4922
vn -0.2533 -0.9384 0.2351
vn -0.5986 0.2906 -0.7465
vn 0.5811 0.3900 -0.7142
vn 0.6985 -0.6262 0.3464
vn -0.5810 -0.7607 0.2893
vn -0.3600 -0.4939 0.7915
vn 0.3741 0.6512 0.6603
vn -0.2024 0.6512 -0.7314
vn -0.8142 -0.4939 -0.3051
vn -0.6030 0.2207 -0.7667
vn 0.5654 0.4479 -0.6926
vn 0.7553 -0.5288 0.3872
vn -0.4897 -0.8334 0.2563
vn -0.2633 0.4353 -0.8609
vn -0.6695 -0.2758 -0.6897
vn -0.6695 -0.2758 0.6897
vn -0.2633 0.4353 0.8609
vn -0.0456 0.9990 -0.0000
vn 0.4147 0.5549 0.7211
vn 0.4147 0.5549 -0.7211
vn -0.6754 0.1198 -0.7276
vn -0.6754 0.1198 0.7276
vn 0.5654 0.4479 0.6926
vn -0.6030 0.2207 0.7667
vn -0.4897 -0.8334 -0.2563
vn 0.7553 -0.5288 -0.3872
vn 0.3740 -0.6512 -0.6603
vn -0.2024 -0.6512 0.7314
vn -0.8142 0.4939 0.3051
vn -0.3600 0.4939 -0.7915
vn -0.3051 0.4939 -0.8142
vn 0.7915 0.4939 -0.3600
vn 0.6603 -0.6512 0.3740
vn -0.7314 -0.6513 -0.2024
vn -0.6727 0.3082 0.6727
vn 0.6840 -0.2533 -0.6840
vn -0.3051 0.4939 0.8142
vn -0.7314 -0.6512 0.2024
vn 0.6603 -0.6512 -0.3740
vn 0.7915 0.4939 0.3600
vn -0.6603 0.6513 0.3740
vn 0.7314 0.6512 -0.2024
vn 0.3051 -0.4939 -0.8142
vn -0.7915 -0.4939 -0.3600
vn 0.3600 0.4939 0.7915
vn -0.3740 -0.6513 0.6603
vn 0.2024 -0.6512 -0.7314
vn 0.8142 0.4939 -0.3051
vn 0.3051 0.4939 -0.8142
vn 0.7314 -0.6512 -0.2024
vn -0.6603 -0.6513 0.3740
vn -0.7915 0.4939 -0.3600
vn -0.8142 -0.4939 0.3051
vn -0.2024 0.6512 0.7314
vn 0.3741 0.6512 -0.6603
vn -0.3600 -0.4939 -0.7915
vn 0.6603 0.6512 0.3740
vn 0.7915 -0.4939 -0.3600
vn -0.3051 -0.4939 -0.8142
vn -0.7314 0.6512 -0.2024
vn -0.6727 -0.3082 0.6727
vn 0.6840 0.2533 -0.6840
vn 0.3741 -0.6512 0.6603
vn -0.3600 0.4939 0.7915
vn -0.8142 0.4939 -0.3051
vn -0.2024 -0.6512 -0.7314
vn 0.8142 0.4939 0.3051
vn 0.2024 -0.6512 0.7314
vn -0.3740 -0.6513 -0.6603
vn 0.3600 0.4939 -0.7915
vn -0.3740 0.6513 0.6603
vn 0.3600 -0.4939 0.7915
vn 0.8142 -0.4939 -0.3051
vn 0.2024 0.6513 -0.7313
vn -0.7314 0.6513 0.2024
vn -0.3051 -0.4939 0.8142
vn 0.7915 -0.4939 0.3600
vn 0.6603 0.6512 -0.3740
vn 0.5152 0.6732 0.5304
vn 0.5152 -0.6732 0.5304
vn -0.0108 -0.6733 -0.7393
vn -0.0108 0.6732 -0.7393
vn 0.3051 0.4939 0.8142
vn -0.7915 0.4939 0.3600
vn -0.6603 -0.6513 -0.3740
vn 0.7314 -0.6512 0.2024
vn -0.3740 0.6513 -0.6603
vn 0.2024 0.6513 0.7313
vn 0.8142 -0.4939 0.3051
vn 0.3600 -0.4939 -0.7915
vn -0.6603 0.6513 -0.3740
vn -0.7915 -0.4939 0.3600
vn 0.3051 -0.4939 0.8142
vn 0.7314 0.6512 0.2024
vn 0.7393 0.6732 0.0108
vn 0.7393 -0.6733 0.0108
vn -0.5304 -0.6732 -0.5151
vn -0.5304 0.6732 -0.5151
vn -0.5304 0.6732 0.5151
vn -0.5304 -0.6732 0.5151
vn 0.7393 -0.6733 -0.0108
vn 0.7393 0.6732 -0.0108
vn 0.0108 0.6732 -0.7393
vn 0.0108 -0.6732 -0.7394
vn -0.5152 -0.6732 0.5304
vn -0.5151 0.6732 0.5305
vt 0.000000 0.000000
s 1
f 181/1/1 182/1/2 51/1/3 47/1/4
f 182/1/2 181/1/1 48/1/5 52/1/6
f 182/1/2 183/1/7 45/1/8 51/1/3
f 183/1/7 182/1/2 52/1/6 46/1/9
f 183/1/7 184/1/10 43/1/11 45/1/8
f 184/1/10 183/1/7 46/1/9 44/1/12
f 184/1/10 181/1/1 47/1/4 43/1/11
f 181/1/1 184/1/10 44/1/12 48/1/5
f 185/1/13 186/1/14 13/1/15 11/1/16
f 186/1/14 185/1/13 12/1/17 14/1/18
f 186/1/14 187/1/19 15/1/20 13/1/15
f 187/1/19 186/1/14 14/1/18 16/1/21
f 187/1/19 185/1/13 11/1/16 15/1/20
f 185/1/13 187/1/19 16/1/21 12/1/17
f 188/1/22 189/1/23 11/1/16 13/1/15
f 189/1/23 188/1/22 14/1/18 12/1/17
f 189/1/23 190/1/24 17/1/25 11/1/16
f 190/1/24 189/1/23 12/1/17 18/1/26
f 190/1/24 188/1/22 13/1/15 17/1/25
f 188/1/22 190/1/24 18/1/26 14/1/18
f 191/1/27 192/1/28 15/1/20 11/1/16
f 192/1/28 191/1/27 12/1/17 16/1/21
f 192/1/28 193/1/29 19/1/30 15/1/20
f 193/1/29 192/1/28 16/1/21 20/1/31
f 193/1/29 191/1/27 11/1/16 19/1/30
f 191/1/27 193/1/29 20/1/31 12/1/17
f 194/1/32 195/1/33 21/1/34 19/1/30
f 195/1/33 194/1/32 20/1/31 22/1/35
f 195/1/33 196/1/36 11/1/16 21/1/34
f 196/1/36 195/1/33 22/1/35 12/1/17
f 196/1/36 194/1/32 19/1/30 11/1/16
f 194/1/32 196/1/36 12/1/17 20/1/31
f 197/1/37 198/1/38 135/1/39 133/1/40
f 198/1/38 197/1/37 134/1/41 136/1/42
f 198/1/38 199/1/43 113/1/44 135/1/39
f 199/1/43 198/1/38 136/1/42 114/1/45
f 199/1/43 200/1/46 111/1/47 113/1/44
f 200/1/46 199/1/43 114/1/45 112/1/48
f 200/1/46 197/1/37 133/1/40 111/1/47
f 197/1/37 200/1/46 112/1/48 134/1/41
f 201/1/49 202/1/50 31/1/51 23/1/52
f 202/1/50 201/1/49 24/1/53 32/1/54
f 202/1/50 203/1/55 25/1/56 31/1/51
f 203/1/55 202/1/50 32/1/54 26/1/57
f 203/1/55 204/1/58 29/1/59 25/1/56
f 204/1/58 203/1/55 26/1/57 30/1/60
f 204/1/58 205/1/61 27/1/62 29/1/59
f 205/1/61 204/1/58 30/1/60 28/1/63
f 205/1/61 206/1/64 37/1/65 27/1/62
f 206/1/64 205/1/61 28/1/63 38/1/66
f 206/1/64 207/1/67 33/1/68 37/1/65
f 207/1/67 206/1/64 38/1/66 34/1/69
f 207/1/67 208/1/70 35/1/71 33/1/68
f 208/1/70 207/1/67 34/1/69 36/1/72
f 208/1/70 201/1/49 23/1/52 35/1/71
f 201/1/49 208/1/70 36/1/72 24/1/53
f 209/1/73 210/1/74 9/1/75 3/1/76
f 210/1/74 209/1/73 4/1/77 10/1/78
f 210/1/74 211/1/79 65/1/80 9/1/75
f 211/1/79 210/1/74 10/1/78 66/1/81
f 211/1/79 212/1/82 63/1/83 65/1/80
f 212/1/82 211/1/79 66/1/81 64/1/84
f 212/1/82 209/1/73 3/1/76 63/1/83
f 209/1/73 212/1/82 64/1/84 4/1/77
f 213/1/85 214/1/86 63/1/83 57/1/87
f 214/1/86 213/1/85 58/1/88 64/1/84
f 214/1/86 215/1/89 65/1/80 63/1/83
f 215/1/89 214/1/86 64/1/84 66/1/81
f 215/1/89 216/1/90 61/1/91 65/1/80
f 216/1/90 215/1/89 66/1/81 62/1/92
f 216/1/90 213/1/85 57/1/87 61/1/91
f 213/1/85 216/1/90 62/1/92 58/1/88
f 217/1/93 218/1/94 61/1/91 57/1/87
f 218/1/94 217/1/93 58/1/88 62/1/92
f 218/1/94 219/1/95 59/1/96 61/1/91
f 219/1/95 218/1/94 62/1/92 60/1/97
f 219/1/95 220/1/98 53/1/99 59/1/96
f 220/1/98 219/1/95 60/1/97 54/1/100
f 220/1/98 217/1/93 57/1/87 53/1/99
f 217/1/93 220/1/98 54/1/100 58/1/88
f 221/1/101 222/1/102 161/1/103 153/1/104
f 222/1/102 221/1/101 154/1/105 162/1/106
f 222/1/102 223/1/107 149/1/108 161/1/103
f 223/1/107 222/1/102 162/1/106 150/1/109
f 223/1/107 224/1/110 151/1/111 149/1/108
f 224/1/110 223/1/107 150/1/109 152/1/112
f 224/1/110 221/1/101 153/1/104 151/1/111
f 221/1/101 224/1/110 152/1/112 154/1/105
f 225/1/113 226/1/114 157/1/115 155/1/116
f 226/1/114 225/1/113 156/1/117 158/1/118
f 226/1/114 227/1/119 151/1/111 157/1/115
f 227/1/119 226/1/114 158/1/118 152/1/112
f 227/1/119 228/1/120 149/1/108 151/1/111
f 228/1/120 227/1/119 152/1/112 150/1/109
f 228/1/120 225/1/113 155/1/116 149/1/108
f 225/1/113 228/1/120 150/1/109 156/1/117
f 229/1/121 230/1/122 167/1/123 163/1/124
f 230/1/122 229/1/121 164/1/125 168/1/126
f 230/1/122 231/1/127 165/1/128 167/1/123
f 231/1/127 230/1/122 168/1/126 166/1/129
f 231/1/127 232/1/130 159/1/131 165/1/128
f 232/1/130 231/1/127 166/1/129 160/1/132
f 232/1/130 229/1/121 163/1/124 159/1/131
f 229/1/121 232/1/130 160/1/132 164/1/125
f 233/1/133 234/1/134 39/1/135 41/1/136
f 234/1/134 233/1/133 42/1/137 40/1/138
f 234/1/134 235/1/139 43/1/11 39/1/135
f 235/1/139 234/1/134 40/1/138 44/1/12
f 235/1/139 236/1/140 45/1/8 43/1/11
f 236/1/140 235/1/139 44/1/12 46/1/9
f 236/1/140 233/1/133 41/1/136 45/1/8
f 233/1/133 236/1/140 46/1/9 42/1/137
f 237/1/141 238/1/142 21/1/34 11/1/16
f 238/1/142 237/1/141 12/1/17 22/1/35
f 238/1/142 239/1/143 39/1/135 21/1/34
f 239/1/143 238/1/142 22/1/35 40/1/138
f 239/1/143 240/1/144 41/1/136 39/1/135
f 240/1/144 239/1/143 40/1/138 42/1/137
f 240/1/144 241/1/145 17/1/25 41/1/136
f 241/1/145 240/1/144 42/1/137 18/1/26
f 241/1/145 237/1/141 11/1/16 17/1/25
f 237/1/141 241/1/145 18/1/26 12/1/17
f 242/1/146 243/1/147 59/1/96 53/1/99
f 243/1/147 242/1/146 54/1/100 60/1/97
f 243/1/147 244/1/148 55/1/149 59/1/96
f 244/1/148 243/1/147 60/1/97 56/1/150
f 244/1/148 245/1/151 49/1/152 55/1/149
f 245/1/151 244/1/148 56/1/150 50/1/153
f 245/1/151 242/1/146 53/1/99 49/1/152
f 242/1/146 245/1/151 50/1/153 54/1/100
f 246/1/154 247/1/155 127/1/156 15/1/20
f 247/1/155 246/1/154 16/1/21 128/1/157
f 247/1/155 248/1/158 105/1/159 127/1/156
f 248/1/158 247/1/155 128/1/157 106/1/160
f 248/1/158 249/1/161 19/1/30 105/1/159
f 249/1/161 248/1/158 106/1/160 20/1/31
f 249/1/161 246/1/154 15/1/20 19/1/30
f 246/1/154 249/1/161 20/1/31 16/1/21
f 250/1/162 251/1/163 179/1/164 177/1/165
f 251/1/163 250/1/162 178/1/166 180/1/167
f 251/1/163 252/1/168 175/1/169 179/1/164
f 252/1/168 251/1/163 180/1/167 176/1/170
f 252/1/168 253/1/171 173/1/172 175/1/169
f 253/1/171 252/1/168 176/1/170 174/1/173
f 253/1/171 250/1/162 177/1/165 173/1/172
f 250/1/162 253/1/171 174/1/173 178/1/166
f 254/1/174 255/1/175 75/1/176 71/1/177
f 255/1/175 254/1/174 72/1/178 76/1/179
f 255/1/175 256/1/180 67/1/181 75/1/176
f 256/1/180 255/1/175 76/1/179 68/1/182
f 256/1/180 257/1/183 81/1/184 67/1/181
f 257/1/183 256/1/180 68/1/182 82/1/185
f 257/1/183 258/1/186 77/1/187 81/1/184
f 258/1/186 257/1/183 82/1/185 78/1/188
f 258/1/186 259/1/189 79/1/190 77/1/187
f 259/1/189 258/1/186 78/1/188 80/1/191
f 259/1/189 260/1/192 69/1/193 79/1/190
f 260/1/192 259/1/189 80/1/191 70/1/194
f 260/1/192 261/1/195 73/1/196 69/1/193
f 261/1/195 260/1/192 70/1/194 74/1/197
f 261/1/195 254/1/174 71/1/177 73/1/196
f 254/1/174 261/1/195 74/1/197 72/1/178
f 262/1/198 263/1/199 143/1/200 141/1/201
f 263/1/199 262/1/198 142/1/202 144/1/203
f 263/1/199 264/1/204 121/1/205 143/1/200
f 264/1/204 263/1/199 144/1/203 122/1/206
f 264/1/204 265/1/207 119/1/208 121/1/205
f 265/1/207 264/1/204 122/1/206 120/1/209
f 265/1/207 262/1/198 141/1/201 119/1/208
f 262/1/198 265/1/207 120/1/209 142/1/202
f 266/1/210 267/1/211 17/1/25 13/1/15
f 267/1/211 266/1/210 14/1/18 18/1/26
f 267/1/211 268/1/212 41/1/136 17/1/25
f 268/1/212 267/1/211 18/1/26 42/1/137
f 268/1/212 269/1/213 45/1/8 41/1/136
f 269/1/213 268/1/212 42/1/137 46/1/9
f 269/1/213 270/1/214 51/1/3 45/1/8
f 270/1/214 269/1/213 46/1/9 52/1/6
f 270/1/214 271/1/215 55/1/149 51/1/3
f 271/1/215 270/1/214 52/1/6 56/1/150
f 271/1/215 272/1/216 59/1/96 55/1/149
f 272/1/216 271/1/215 56/1/150 60/1/97
f 272/1/216 273/1/217 61/1/91 59/1/96
f 273/1/217 272/1/216 60/1/97 62/1/92
f 273/1/217 274/1/218 65/1/80 61/1/91
f 274/1/218 273/1/217 62/1/92 66/1/81
f 274/1/218 275/1/219 9/1/75 65/1/80
f 275/1/219 274/1/218 66/1/81 10/1/78
f 275/1/219 276/1/220 5/1/221 9/1/75
f 276/1/220 275/1/219 10/1/78 6/1/222
f 276/1/220 277/1/223 103/1/224 5/1/221
f 277/1/223 276/1/220 6/1/222 104/1/225
f 277/1/223 278/1/226 101/1/227 103/1/224
f 278/1/226 277/1/223 104/1/225 102/1/228
f 278/1/226 279/1/229 99/1/230 101/1/227
f 279/1/229 278/1/226 102/1/228 100/1/231
f 279/1/229 280/1/232 97/1/233 99/1/230
f 280/1/232 279/1/229 100/1/231 98/1/234
f 280/1/232 281/1/235 95/1/236 97/1/233
f 281/1/235 280/1/232 98/1/234 96/1/237
f 281/1/235 282/1/238 93/1/239 95/1/236
f 282/1/238 281/1/235 96/1/237 94/1/240
f 282/1/238 283/1/241 91/1/242 93/1/239
f 283/1/241 282/1/238 94/1/240 92/1/243
f 283/1/241 284/1/244 89/1/245 91/1/242
f 284/1/244 283/1/241 92/1/243 90/1/246
f 284/1/244 285/1/247 87/1/248 89/1/245
f 285/1/247 284/1/244 90/1/246 88/1/249
f 285/1/247 286/1/250 85/1/251 87/1/248
f 286/1/250 285/1/247 88/1/249 86/1/252
f 286/1/250 287/1/253 83/1/254 85/1/251
f 287/1/253 286/1/250 86/1/252 84/1/255
f 287/1/253 266/1/210 13/1/15 83/1/254
f 266/1/210 287/1/253 84/1/255 14/1/18
f 288/1/256 289/1/257 129/1/258 127/1/156
f 289/1/257 288/1/256 128/1/157 130/1/259
f 289/1/257 290/1/260 107/1/261 129/1/258
f 290/1/260 289/1/257 130/1/259 108/1/262
f 290/1/260 291/1/263 105/1/159 107/1/261
f 291/1/263 290/1/260 108/1/262 106/1/160
f 291/1/263 288/1/256 127/1/156 105/1/159
f 288/1/256 291/1/263 106/1/160 128/1/157
f 292/1/264 293/1/265 139/1/266 137/1/267
f 293/1/265 292/1/264 138/1/268 140/1/269
f 293/1/265 294/1/270 117/1/271 139/1/266
f 294/1/270 293/1/265 140/1/269 118/1/272
f 294/1/270 295/1/273 115/1/274 117/1/271
f 295/1/273 294/1/270 118/1/272 116/1/275
f 295/1/273 292/1/264 137/1/267 115/1/274
f 292/1/264 295/1/273 116/1/275 138/1/268
f 296/1/276 297/1/277 145/1/278 143/1/200
f 297/1/277 296/1/276 144/1/203 146/1/279
f 297/1/277 298/1/280 123/1/281 145/1/278
f 298/1/280 297/1/277 146/1/279 124/1/282
f 298/1/280 299/1/283 121/1/205 123/1/281
f 299/1/283 298/1/280 124/1/282 122/1/206
f 299/1/283 296/1/276 143/1/200 121/1/205
f 296/1/276 299/1/283 122/1/206 144/1/203
f 300/1/284 301/1/285 147/1/286 145/1/278
f 301/1/285 300/1/284 146/1/279 148/1/287
f 301/1/285 302/1/288 125/1/289 147/1/286
f 302/1/288 301/1/285 148/1/287 126/1/290
f 302/1/288 303/1/291 123/1/281 125/1/289
f 303/1/291 302/1/288 126/1/290 124/1/282
f 303/1/291 300/1/284 145/1/278 123/1/281
f 300/1/284 303/1/291 124/1/282 146/1/279
f 304/1/292 305/1/293 129/1/258 131/1/294
f 305/1/293 304/1/292 132/1/295 130/1/259
f 305/1/293 306/1/296 85/1/251 129/1/258
f 306/1/296 305/1/293 130/1/259 86/1/252
f 306/1/296 307/1/297 87/1/248 85/1/251
f 307/1/297 306/1/296 86/1/252 88/1/249
f 307/1/297 304/1/292 131/1/294 87/1/248
f 304/1/292 307/1/297 88/1/249 132/1/295
f 308/1/298 309/1/299 21/1/34 39/1/135
f 309/1/299 308/1/298 40/1/138 22/1/35
f 309/1/299 310/1/300 19/1/30 21/1/34
f 310/1/300 309/1/299 22/1/35 20/1/31
f 310/1/300 311/1/301 105/1/159 19/1/30
f 311/1/301 310/1/300 20/1/31 106/1/160
f 311/1/301 312/1/302 107/1/261 105/1/159
f 312/1/302 311/1/301 106/1/160 108/1/262
f 312/1/302 313/1/303 109/1/304 107/1/261
f 313/1/303 312/1/302 108/1/262 110/1/305
f 313/1/303 314/1/306 111/1/47 109/1/304
f 314/1/306 313/1/303 110/1/305 112/1/48
f 314/1/306 315/1/307 113/1/44 111/1/47
f 315/1/307 314/1/306 112/1/48 114/1/45
f 315/1/307 316/1/308 115/1/274 113/1/44
f 316/1/308 315/1/307 114/1/45 116/1/275
f 316/1/308 317/1/309 117/1/271 115/1/274
f 317/1/309 316/1/308 116/1/275 118/1/272
f 317/1/309 318/1/310 119/1/208 117/1/271
f 318/1/310 317/1/309 118/1/272 120/1/209
f 318/1/310 319/1/311 121/1/205 119/1/208
f 319/1/311 318/1/310 120/1/209 122/1/206
f 319/1/311 320/1/312 123/1/281 121/1/205
f 320/1/312 319/1/311 122/1/206 124/1/282
f 320/1/312 321/1/313 125/1/289 123/1/281
f 321/1/313 320/1/312 124/1/282 126/1/290
f 321/1/313 322/1/314 1/1/315 125/1/289
f 322/1/314 321/1/313 126/1/290 2/1/316
f 322/1/314 323/1/317 3/1/76 1/1/315
f 323/1/317 322/1/314 2/1/316 4/1/77
f 323/1/317 324/1/318 63/1/83 3/1/76
f 324/1/318 323/1/317 4/1/77 64/1/84
f 324/1/318 325/1/319 57/1/87 63/1/83
f 325/1/319 324/1/318 64/1/84 58/1/88
f 325/1/319 326/1/320 53/1/99 57/1/87
f 326/1/320 325/1/319 58/1/88 54/1/100
f 326/1/320 327/1/321 49/1/152 53/1/99
f 327/1/321 326/1/320 54/1/100 50/1/153
f 327/1/321 328/1/322 47/1/4 49/1/152
f 328/1/322 327/1/321 50/1/153 48/1/5
f 328/1/322 329/1/323 43/1/11 47/1/4
f 329/1/323 328/1/322 48/1/5 44/1/12
f 329/1/323 308/1/298 39/1/135 43/1/11
f 308/1/298 329/1/323 44/1/12 40/1/138
f 330/1/324 331/1/325 7/1/326 147/1/286
f 331/1/325 330/1/324 148/1/287 8/1/327
f 331/1/325 332/1/328 1/1/315 7/1/326
f 332/1/328 331/1/325 8/1/327 2/1/316
f 332/1/328 333/1/329 125/1/289 1/1/315
f 333/1/329 332/1/328 2/1/316 126/1/290
f 333/1/329 330/1/324 147/1/286 125/1/289
f 330/1/324 333/1/329 126/1/290 148/1/287
f 334/1/330 335/1/331 15/1/20 127/1/156
f 335/1/331 334/1/330 128/1/157 16/1/21
f 335/1/331 336/1/332 13/1/15 15/1/20
f 336/1/332 335/1/331 16/1/21 14/1/18
f 336/1/332 337/1/333 83/1/254 13/1/15
f 337/1/333 336/1/332 14/1/18 84/1/255
f 337/1/333 334/1/330 127/1/156 83/1/254
f 334/1/330 337/1/333 84/1/255 128/1/157
f 338/1/334 339/1/335 127/1/156 129/1/258
f 339/1/335 338/1/334 130/1/259 128/1/157
f 339/1/335 340/1/336 83/1/254 127/1/156
f 340/1/336 339/1/335 128/1/157 84/1/255
f 340/1/336 341/1/337 85/1/251 83/1/254
f 341/1/337 340/1/336 84/1/255 86/1/252
f 341/1/337 338/1/334 129/1/258 85/1/251
f 338/1/334 341/1/337 86/1/252 130/1/259
f 342/1/338 343/1/339 133/1/40 131/1/294
f 343/1/339 342/1/338 132/1/295 134/1/41
f 343/1/339 344/1/340 111/1/47 133/1/40
f 344/1/340 343/1/339 134/1/41 112/1/48
f 344/1/340 345/1/341 109/1/304 111/1/47
f 345/1/341 344/1/340 112/1/48 110/1/305
f 345/1/341 342/1/338 131/1/294 109/1/304
f 342/1/338 345/1/341 110/1/305 132/1/295
f 346/1/342 347/1/343 131/1/294 133/1/40
f 347/1/343 346/1/342 134/1/41 132/1/295
f 347/1/343 348/1/344 87/1/248 131/1/294
f 348/1/344 347/1/343 132/1/295 88/1/249
f 348/1/344 349/1/345 89/1/245 87/1/248
f 349/1/345 348/1/344 88/1/249 90/1/246
f 349/1/345 346/1/342 133/1/40 89/1/245
f 346/1/342 349/1/345 90/1/246 134/1/41
f 350/1/346 351/1/347 133/1/40 135/1/39
f 351/1/347 350/1/346 136/1/42 134/1/41
f 351/1/347 352/1/348 89/1/245 133/1/40
f 352/1/348 351/1/347 134/1/41 90/1/246
f 352/1/348 353/1/349 91/1/242 89/1/245
f 353/1/349 352/1/348 90/1/246 92/1/243
f 353/1/349 350/1/346 135/1/39 91/1/242
f 350/1/346 353/1/349 92/1/243 136/1/42
f 354/1/350 355/1/351 137/1/267 139/1/266
f 355/1/351 354/1/350 140/1/269 138/1/268
f 355/1/351 356/1/352 93/1/239 137/1/267
f 356/1/352 355/1/351 138/1/268 94/1/240
f 356/1/352 357/1/353 95/1/236 93/1/239
f 357/1/353 356/1/352 94/1/240 96/1/237
f 357/1/353 354/1/350 139/1/266 95/1/236
f 354/1/350 357/1/353 96/1/237 140/1/269
f 358/1/354 359/1/355 141/1/201 143/1/200
f 359/1/355 358/1/354 144/1/203 142/1/202
f 359/1/355 360/1/356 97/1/233 141/1/201
f 360/1/356 359/1/355 142/1/202 98/1/234
f 360/1/356 361/1/357 99/1/230 97/1/233
f 361/1/357 360/1/356 98/1/234 100/1/231
f 361/1/357 358/1/354 143/1/200 99/1/230
f 358/1/354 361/1/357 100/1/231 144/1/203
f 362/1/358 363/1/359 143/1/200 145/1/278
f 363/1/359 362/1/358 146/1/279 144/1/203
f 363/1/359 364/1/360 99/1/230 143/1/200
f 364/1/360 363/1/359 144/1/203 100/1/231
f 364/1/360 365/1/361 101/1/227 99/1/230
f 365/1/361 364/1/360 100/1/231 102/1/228
f 365/1/361 362/1/358 145/1/278 101/1/227
f 362/1/358 365/1/361 102/1/228 146/1/279
f 366/1/362 367/1/363 145/1/278 147/1/286
f 367/1/363 366/1/362 148/1/287 146/1/279
f 367/1/363 368/1/364 101/1/227 145/1/278
f 368/1/364 367/1/363 146/1/279 102/1/228
f 368/1/364 369/1/365 103/1/224 101/1/227
f 369/1/365 368/1/364 102/1/228 104/1/225
f 369/1/365 366/1/362 147/1/286 103/1/224
f 366/1/362 369/1/365 104/1/225 148/1/287
f 370/1/366 371/1/367 147/1/286 7/1/326
f 371/1/367 370/1/366 8/1/327 148/1/287
f 371/1/367 372/1/368 103/1/224 147/1/286
f 372/1/368 371/1/367 148/1/287 104/1/225
f 372/1/368 373/1/369 5/1/221 103/1/224
f 373/1/369 372/1/368 104/1/225 6/1/222
f 373/1/369 370/1/366 7/1/326 5/1/221
f 370/1/366 373/1/369 6/1/222 8/1/327
f 374/1/370 375/1/371 135/1/39 137/1/267
f 375/1/371 374/1/370 138/1/268 136/1/42
f 375/1/371 376/1/372 91/1/242 135/1/39
f 376/1/372 375/1/371 136/1/42 92/1/243
f 376/1/372 377/1/373 93/1/239 91/1/242
f 377/1/373 376/1/372 92/1/243 94/1/240
f 377/1/373 374/1/370 137/1/267 93/1/239
f 374/1/370 377/1/373 94/1/240 138/1/268
f 378/1/374 379/1/375 131/1/294 129/1/258
f 379/1/375 378/1/374 130/1/259 132/1/295
f 379/1/375 380/1/376 109/1/304 131/1/294
f 380/1/376 379/1/375 132/1/295 110/1/305
f 380/1/376 381/1/377 107/1/261 109/1/304
f 381/1/377 380/1/376 110/1/305 108/1/262
f 381/1/377 378/1/374 129/1/258 107/1/261
f 378/1/374 381/1/377 108/1/262 130/1/259
f 382/1/378 383/1/379 137/1/267 135/1/39
f 383/1/379 382/1/378 136/1/42 138/1/268
f 383/1/379 384/1/380 115/1/274 137/1/267
f 384/1/380 383/1/379 138/1/268 116/1/275
f 384/1/380 385/1/381 113/1/44 115/1/274
f 385/1/381 384/1/380 116/1/275 114/1/45
f 385/1/381 382/1/378 135/1/39 113/1/44
f 382/1/378 385/1/381 114/1/45 136/1/42
f 386/1/382 387/1/383 155/1/116 25/1/56
f 387/1/383 386/1/382 26/1/57 156/1/117
f 387/1/383 388/1/384 149/1/108 155/1/116
f 388/1/384 387/1/383 156/1/117 150/1/109
f 388/1/384 389/1/385 29/1/59 149/1/108
f 389/1/385 388/1/384 150/1/109 30/1/60
f 389/1/385 386/1/382 25/1/56 29/1/59
f 386/1/382 389/1/385 30/1/60 26/1/57
f 390/1/386 391/1/387 141/1/201 139/1/266
f 391/1/387 390/1/386 140/1/269 142/1/202
f 391/1/387 392/1/388 119/1/208 141/1/201
f 392/1/388 391/1/387 142/1/202 120/1/209
f 392/1/388 393/1/389 117/1/271 119/1/208
f 393/1/389 392/1/388 120/1/209 118/1/272
f 393/1/389 390/1/386 139/1/266 117/1/271
f 390/1/386 393/1/389 118/1/272 140/1/269
f 394/1/390 395/1/391 9/1/75 5/1/221
f 395/1/391 394/1/390 6/1/222 10/1/78
f 395/1/391 396/1/392 3/1/76 9/1/75
f 396/1/392 395/1/391 10/1/78 4/1/77
f 396/1/392 397/1/393 1/1/315 3/1/76
f 397/1/393 396/1/392 4/1/77 2/1/316
f 397/1/393 398/1/394 7/1/326 1/1/315
f 398/1/394 397/1/393 2/1/316 8/1/327
f 398/1/394 394/1/390 5/1/221 7/1/326
f 394/1/390 398/1/394 8/1/327 6/1/222
f 399/1/395 400/1/396 55/1/149 49/1/152
f 400/1/396 399/1/395 50/1/153 56/1/150
f 400/1/396 401/1/397 51/1/3 55/1/149
f 401/1/397 400/1/396 56/1/150 52/1/6
f 401/1/397 402/1/398 47/1/4 51/1/3
f 402/1/398 401/1/397 52/1/6 48/1/5
f 402/1/398 399/1/395 49/1/152 47/1/4
f 399/1/395 402/1/398 48/1/5 50/1/153
f 403/1/399 404/1/400 139/1/266 141/1/201
f 404/1/400 403/1/399 142/1/202 140/1/269
f 404/1/400 405/1/401 95/1/236 139/1/266
f 405/1/401 404/1/400 140/1/269 96/1/237
f 405/1/401 406/1/402 97/1/233 95/1/236
f 406/1/402 405/1/401 96/1/237 98/1/234
f 406/1/402 403/1/399 141/1/201 97/1/233
f 403/1/399 406/1/402 98/1/234 142/1/202
f 407/1/403 408/1/404 177/1/165 157/1/115
f 408/1/404 407/1/403 158/1/118 178/1/166
f 408/1/404 409/1/405 75/1/176 177/1/165
f 409/1/405 408/1/404 178/1/166 76/1/179
f 409/1/405 410/1/406 71/1/177 75/1/176
f 410/1/406 409/1/405 76/1/179 72/1/178
f 410/1/406 407/1/403 157/1/115 71/1/177
f 407/1/403 410/1/406 72/1/178 158/1/118
f 411/1/407 412/1/408 67/1/181 81/1/184
f 412/1/408 411/1/407 82/1/185 68/1/182
f 412/1/408 413/1/409 173/1/172 67/1/181
f 413/1/409 412/1/408 68/1/182 174/1/173
f 413/1/409 414/1/410 169/1/411 173/1/172
f 414/1/410 413/1/409 174/1/173 170/1/412
f 414/1/410 411/1/407 81/1/184 169/1/411
f 411/1/407 414/1/410 170/1/412 82/1/185
f 415/1/413 416/1/414 159/1/131 79/1/190
f 416/1/414 415/1/413 80/1/191 160/1/132
f 416/1/414 417/1/415 153/1/104 159/1/131
f 417/1/415 416/1/414 160/1/132 154/1/105
f 417/1/415 418/1/416 69/1/193 153/1/104
f 418/1/416 417/1/415 154/1/105 70/1/194
f 418/1/416 415/1/413 79/1/190 69/1/193
f 415/1/413 418/1/416 70/1/194 80/1/191
f 419/1/417 420/1/418 179/1/164 175/1/169
f 420/1/418 419/1/417 176/1/170 180/1/167
f 420/1/418 421/1/419 31/1/51 179/1/164
f 421/1/419 420/1/418 180/1/167 32/1/54
f 421/1/419 422/1/420 23/1/52 31/1/51
f 422/1/420 421/1/419 32/1/54 24/1/53
f 422/1/420 419/1/417 175/1/169 23/1/52
f 419/1/417 422/1/420 24/1/53 176/1/170
f 423/1/421 424/1/422 163/1/124 77/1/187
f 424/1/422 423/1/421 78/1/188 164/1/125
f 424/1/422 425/1/423 159/1/131 163/1/124
f 425/1/423 424/1/422 164/1/125 160/1/132
f 425/1/423 426/1/424 79/1/190 159/1/131
f 426/1/424 425/1/423 160/1/132 80/1/191
f 426/1/424 423/1/421 77/1/187 79/1/190
f 423/1/421 426/1/424 80/1/191 78/1/188
f 427/1/425 428/1/426 177/1/165 75/1/176
f 428/1/426 427/1/425 76/1/179 178/1/166
f 428/1/426 429/1/427 173/1/172 177/1/165
f 429/1/427 428/1/426 178/1/166 174/1/173
f 429/1/427 430/1/428 67/1/181 173/1/172
f 430/1/428 429/1/427 174/1/173 68/1/182
f 430/1/428 427/1/425 75/1/176 67/1/181
f 427/1/425 430/1/428 68/1/182 76/1/179
f 431/1/429 432/1/430 179/1/164 31/1/51
f 432/1/430 431/1/429 32/1/54 180/1/167
f 432/1/430 433/1/431 155/1/116 179/1/164
f 433/1/431 432/1/430 180/1/167 156/1/117
f 433/1/431 434/1/432 25/1/56 155/1/116
f 434/1/432 433/1/431 156/1/117 26/1/57
f 434/1/432 431/1/429 31/1/51 25/1/56
f 431/1/429 434/1/432 26/1/57 32/1/54
f 435/1/433 436/1/434 23/1/52 175/1/169
f 436/1/434 435/1/433 176/1/170 24/1/53
f 436/1/434 437/1/435 35/1/71 23/1/52
f 437/1/435 436/1/434 24/1/53 36/1/72
f 437/1/435 438/1/436 171/1/437 35/1/71
f 438/1/436 437/1/435 36/1/72 172/1/438
f 438/1/436 435/1/433 175/1/169 171/1/437
f 435/1/433 438/1/436 172/1/438 176/1/170
f 439/1/439 440/1/440 71/1/177 157/1/115
f 440/1/440 439/1/439 158/1/118 72/1/178
f 440/1/440 441/1/441 73/1/196 71/1/177
f 441/1/441 440/1/440 72/1/178 74/1/197
f 441/1/441 442/1/442 151/1/111 73/1/196
f 442/1/442 441/1/441 74/1/197 152/1/112
f 442/1/442 439/1/439 157/1/115 151/1/111
f 439/1/439 442/1/442 152/1/112 158/1/118
f 443/1/443 444/1/444 169/1/411 81/1/184
f 444/1/444 443/1/443 82/1/185 170/1/412
f 444/1/444 445/1/445 163/1/124 169/1/411
f 445/1/445 444/1/444 170/1/412 164/1/125
f 445/1/445 446/1/446 77/1/187 163/1/124
f 446/1/446 445/1/445 164/1/125 78/1/188
f 446/1/446 443/1/443 81/1/184 77/1/187
f 443/1/443 446/1/446 78/1/188 82/1/185
f 447/1/447 448/1/448 33/1/68 167/1/123
f 448/1/448 447/1/447 168/1/126 34/1/69
f 448/1/448 449/1/449 37/1/65 33/1/68
f 449/1/449 448/1/448 34/1/69 38/1/66
f 449/1/449 450/1/450 165/1/128 37/1/65
f 450/1/450 449/1/449 38/1/66 166/1/129
f 450/1/450 447/1/447 167/1/123 165/1/128
f 447/1/447 450/1/450 166/1/129 168/1/126
f 451/1/451 452/1/452 37/1/65 165/1/128
f 452/1/452 451/1/451 166/1/129 38/1/66
f 452/1/452 453/1/453 27/1/62 37/1/65
f 453/1/453 452/1/452 38/1/66 28/1/63
f 453/1/453 454/1/454 161/1/103 27/1/62
f 454/1/454 453/1/453 28/1/63 162/1/106
f 454/1/454 451/1/451 165/1/128 161/1/103
f 451/1/451 454/1/454 162/1/106 166/1/129
f 455/1/455 456/1/456 171/1/437 169/1/411
f 456/1/456 455/1/455 170/1/412 172/1/438
f 456/1/456 457/1/457 167/1/123 171/1/437
f 457/1/457 456/1/456 172/1/438 168/1/126
f 457/1/457 458/1/458 163/1/124 167/1/123
f 458/1/458 457/1/457 168/1/126 164/1/125
f 458/1/458 455/1/455 169/1/411 163/1/124
f 455/1/455 458/1/458 164/1/125 170/1/412
f 459/1/459 460/1/460 69/1/193 73/1/196
f 460/1/460 459/1/459 74/1/197 70/1/194
f 460/1/460 461/1/461 153/1/104 69/1/193
f 461/1/461 460/1/460 70/1/194 154/1/105
f 461/1/461 462/1/462 151/1/111 153/1/104
f 462/1/462 461/1/461 154/1/105 152/1/112
f 462/1/462 459/1/459 73/1/196 151/1/111
f 459/1/459 462/1/462 152/1/112 74/1/197
f 463/1/463 464/1/464 171/1/437 167/1/123
f 464/1/464 463/1/463 168/1/126 172/1/438
f 464/1/464 465/1/465 35/1/71 171/1/437
f 465/1/465 464/1/464 172/1/438 36/1/72
f 465/1/465 466/1/466 33/1/68 35/1/71
f 466/1/466 465/1/465 36/1/72 34/1/69
f 466/1/466 463/1/463 167/1/123 33/1/68
f 463/1/463 466/1/466 34/1/69 168/1/126
f 467/1/467 468/1/468 27/1/62 161/1/103
f 468/1/468 467/1/467 162/1/106 28/1/63
f 468/1/468 469/1/469 29/1/59 27/1/62
f 469/1/469 468/1/468 28/1/63 30/1/60
f 469/1/469 470/1/470 149/1/108 29/1/59
f 470/1/470 469/1/469 30/1/60 150/1/109
f 470/1/470 467/1/467 161/1/103 149/1/108
f 467/1/467 470/1/470 150/1/109 162/1/106
f 471/1/471 472/1/472 175/1/169 173/1/172
f 472/1/472 471/1/471 174/1/173 176/1/170
f 472/1/472 473/1/473 171/1/437 175/1/169
f 473/1/473 472/1/472 176/1/170 172/1/438
f 473/1/473 474/1/474 169/1/411 171/1/437
f 474/1/474 473/1/473 172/1/438 170/1/412
f 474/1/474 471/1/471 173/1/172 169/1/411
f 471/1/471 474/1/474 170/1/412 174/1/173
f 475/1/475 476/1/476 165/1/128 159/1/131
f 476/1/476 475/1/475 160/1/132 166/1/129
f 476/1/476 477/1/477 161/1/103 165/1/128
f 477/1/477 476/1/476 166/1/129 162/1/106
f 477/1/477 478/1/478 153/1/104 161/1/103
f 478/1/478 477/1/477 162/1/106 154/1/105
f 478/1/478 475/1/475 159/1/131 153/1/104
f 475/1/475 478/1/478 154/1/105 160/1/132
f 479/1/479 480/1/480 155/1/116 157/1/115
f 480/1/480 479/1/479 158/1/118 156/1/117
f 480/1/480 481/1/481 179/1/164 155/1/116
f 481/1/481 480/1/480 156/1/117 180/1/167
f 481/1/481 482/1/482 177/1/165 179/1/164
f 482/1/482 481/1/481 180/1/167 178/1/166
f 482/1/482 479/1/479 157/1/115 177/1/165
f 479/1/479 482/1/482 178/1/166 158/1/118
