# Blender 5.2.0 LTS
# www.blender.org
mtllib glass shotgun bolts.mtl
o RenderMesh_13158845253
v 0.098500 0.103841 -0.093814
v 0.100100 0.103841 -0.095014
v 0.065852 0.136490 -0.093814
v 0.065852 0.138090 -0.095014
v 0.088938 0.126927 -0.093814
v 0.090069 0.128058 -0.095014
v 0.033203 0.103841 -0.093814
v 0.031603 0.103841 -0.095014
v 0.042765 0.126927 -0.093814
v 0.041634 0.128058 -0.095014
v 0.065852 0.071192 -0.093814
v 0.065852 0.069592 -0.095014
v 0.042765 0.080755 -0.093814
v 0.041634 0.079624 -0.095014
v 0.088938 0.080755 -0.093814
v 0.090069 0.079624 -0.095014
v 0.065852 0.071192 0.093814
v 0.065852 0.069592 0.095014
v 0.098500 0.103841 0.093814
v 0.100100 0.103841 0.095014
v 0.033203 0.103841 0.093814
v 0.031603 0.103841 0.095014
v 0.088938 0.080755 0.093814
v 0.090069 0.079624 0.095014
v 0.042765 0.080755 0.093814
v 0.041634 0.079624 0.095014
v 0.065852 0.136490 0.093814
v 0.065852 0.138090 0.095014
v 0.088938 0.126927 0.093814
v 0.090069 0.128058 0.095014
v 0.042765 0.126927 0.093814
v 0.041634 0.128058 0.095014
v -0.042764 -0.126928 -0.093814
v -0.041633 -0.128059 -0.095014
v -0.088936 -0.080756 -0.093814
v -0.090067 -0.079625 -0.095014
v -0.042764 -0.080756 -0.093814
v -0.041633 -0.079625 -0.095014
v -0.065850 -0.071193 -0.093814
v -0.065850 -0.069593 -0.095014
v -0.033201 -0.103842 -0.093814
v -0.031601 -0.103842 -0.095014
v -0.088936 -0.126928 -0.093814
v -0.090067 -0.128059 -0.095014
v -0.098499 -0.103842 -0.093814
v -0.100099 -0.103842 -0.095014
v -0.065850 -0.136491 -0.093814
v -0.065850 -0.138091 -0.095014
v -0.088936 -0.126928 0.093814
v -0.090067 -0.128059 0.095014
v -0.088936 -0.080756 0.093814
v -0.090067 -0.079625 0.095014
v -0.098499 -0.103842 0.093814
v -0.100099 -0.103842 0.095014
v -0.042764 -0.126928 0.093814
v -0.041633 -0.128059 0.095014
v -0.065850 -0.136491 0.093814
v -0.065850 -0.138091 0.095014
v -0.042764 -0.080756 0.093814
v -0.041633 -0.079625 0.095014
v -0.065850 -0.071193 0.093814
v -0.065850 -0.069593 0.095014
v -0.033201 -0.103842 0.093814
v -0.031601 -0.103842 0.095014
v -0.088736 -0.126728 0.094414
v -0.065850 -0.136209 0.094414
v -0.042964 -0.126728 0.094414
v -0.033483 -0.103842 0.094414
v -0.042964 -0.080956 0.094414
v -0.065850 -0.071475 0.094414
v -0.088736 -0.080956 0.094414
v -0.098217 -0.103842 0.094414
v 0.065852 0.136208 0.094414
v 0.042965 0.126727 0.094414
v 0.033485 0.103841 0.094414
v 0.042965 0.080955 0.094414
v 0.065852 0.071474 0.094414
v 0.088738 0.080955 0.094414
v 0.098218 0.103841 0.094414
v 0.088738 0.126727 0.094414
v -0.042964 -0.126728 -0.094414
v -0.065850 -0.136209 -0.094414
v -0.088736 -0.126728 -0.094414
v -0.098217 -0.103842 -0.094414
v -0.088736 -0.080956 -0.094414
v -0.065850 -0.071475 -0.094414
v -0.042964 -0.080956 -0.094414
v -0.033483 -0.103842 -0.094414
v -0.098916 -0.102918 -0.093414
v -0.098916 -0.102918 0.093414
v -0.089884 -0.081114 0.093414
v -0.089884 -0.081114 -0.093414
v 0.033485 0.103841 -0.094414
v 0.042965 0.126727 -0.094414
v 0.065852 0.136208 -0.094414
v 0.088738 0.126727 -0.094414
v 0.098218 0.103841 -0.094414
v 0.088738 0.080955 -0.094414
v 0.065852 0.071474 -0.094414
v 0.042965 0.080955 -0.094414
v 0.032786 0.104765 -0.093414
v 0.032786 0.104765 0.093414
v 0.041817 0.126569 0.093414
v 0.041817 0.126569 -0.093414
v 0.088580 0.127875 0.093414
v 0.088580 0.127875 -0.093414
v 0.066776 0.136907 -0.093414
v 0.066776 0.136907 0.093414
v -0.089884 -0.126570 -0.093414
v -0.089884 -0.126570 0.093414
v -0.098916 -0.104766 0.093414
v -0.098916 -0.104766 -0.093414
v -0.066774 -0.136908 -0.093414
v -0.066774 -0.136908 0.093414
v -0.088578 -0.127876 0.093414
v -0.088578 -0.127876 -0.093414
v 0.041817 0.081113 -0.093414
v 0.041817 0.081113 0.093414
v 0.032786 0.102917 0.093414
v 0.032786 0.102917 -0.093414
v 0.089886 0.081113 0.093414
v 0.089886 0.081113 -0.093414
v 0.098917 0.102917 -0.093414
v 0.098917 0.102917 0.093414
v -0.032784 -0.102918 0.093414
v -0.032784 -0.102918 -0.093414
v -0.041816 -0.081114 -0.093414
v -0.041816 -0.081114 0.093414
v -0.041816 -0.126570 0.093414
v -0.041816 -0.126570 -0.093414
v -0.032784 -0.104766 -0.093414
v -0.032784 -0.104766 0.093414
v 0.043123 0.127875 -0.093414
v 0.043123 0.127875 0.093414
v 0.064928 0.136907 0.093414
v 0.064928 0.136907 -0.093414
v 0.064928 0.070775 -0.093414
v 0.064928 0.070775 0.093414
v 0.043123 0.079807 0.093414
v 0.043123 0.079807 -0.093414
v -0.088578 -0.079808 -0.093414
v -0.088578 -0.079808 0.093414
v -0.066774 -0.070776 0.093414
v -0.066774 -0.070776 -0.093414
v 0.098917 0.104765 0.093414
v 0.098917 0.104765 -0.093414
v 0.089886 0.126569 -0.093414
v 0.089886 0.126569 0.093414
v -0.043122 -0.079808 0.093414
v -0.043122 -0.079808 -0.093414
v -0.064926 -0.070776 -0.093414
v -0.064926 -0.070776 0.093414
v 0.066776 0.070775 0.093414
v 0.066776 0.070775 -0.093414
v 0.088580 0.079807 -0.093414
v 0.088580 0.079807 0.093414
v -0.064926 -0.136908 0.093414
v -0.064926 -0.136908 -0.093414
v -0.043122 -0.127876 -0.093414
v -0.043122 -0.127876 0.093414
vn -0.3510 -0.8472 0.3988
vn -0.1248 -0.3013 -0.9453
vn 0.3510 -0.8473 0.3987
vn 0.1248 -0.3013 -0.9453
vn 0.8473 -0.3510 0.3987
vn 0.3013 -0.1248 -0.9453
vn 0.8472 0.3510 0.3988
vn 0.3013 0.1248 -0.9453
vn 0.3510 0.8472 0.3988
vn 0.1248 0.3013 -0.9453
vn -0.3510 0.8472 0.3988
vn -0.1248 0.3013 -0.9453
vn -0.8472 0.3510 0.3987
vn -0.3013 0.1248 -0.9453
vn -0.8472 -0.3510 0.3988
vn -0.3013 -0.1248 -0.9453
vn -0.3509 0.8472 0.3988
vn -0.8473 0.3509 0.3988
vn -0.8473 -0.3509 0.3987
vn -0.3509 -0.8473 0.3987
vn 0.3510 -0.8472 0.3988
vn 0.8473 -0.3509 0.3988
vn 0.8473 0.3509 0.3988
vn 0.3510 -0.8472 -0.3988
vn 0.1248 -0.3013 0.9453
vn -0.3510 -0.8473 -0.3987
vn -0.1248 -0.3013 0.9453
vn -0.8473 -0.3510 -0.3987
vn -0.3013 -0.1248 0.9453
vn -0.8472 0.3510 -0.3988
vn -0.3013 0.1248 0.9453
vn -0.3510 0.8472 -0.3987
vn -0.1248 0.3013 0.9453
vn 0.3510 0.8472 -0.3988
vn 0.1248 0.3013 0.9453
vn 0.8472 0.3510 -0.3987
vn 0.3013 0.1248 0.9453
vn 0.8472 -0.3510 -0.3988
vn 0.3013 -0.1248 0.9453
vn -0.9113 -0.4116 -0.0000
vn 0.6156 -0.7881 -0.0000
vn -0.4397 0.1822 0.8795
vn 0.8387 -0.3474 0.4194
vn -0.3533 0.9355 -0.0000
vn 0.9925 0.1219 -0.0000
vn -0.4397 0.1822 -0.8795
vn 0.8387 -0.3474 -0.4194
vn -0.8473 0.3509 -0.3988
vn -0.3509 0.8473 -0.3988
vn 0.3510 0.8472 -0.3987
vn 0.8473 0.3509 -0.3988
vn 0.8473 -0.3509 -0.3988
vn -0.3509 -0.8472 -0.3988
vn -0.8473 -0.3509 -0.3988
vn -0.9113 -0.4117 -0.0000
vn 0.6156 -0.7880 -0.0000
vn -0.4398 0.1821 0.8795
vn 0.9925 0.1220 -0.0000
vn -0.4397 0.1821 -0.8795
vn 0.9355 0.3533 -0.0000
vn 0.1219 -0.9925 -0.0000
vn 0.1821 0.4397 -0.8795
vn -0.3474 -0.8387 -0.4194
vn -0.4116 0.9113 -0.0000
vn -0.7881 -0.6156 -0.0000
vn 0.1822 0.4397 0.8795
vn -0.3474 -0.8387 0.4194
vn -0.3533 -0.9355 -0.0000
vn 0.9925 -0.1219 -0.0000
vn -0.4397 -0.1822 0.8795
vn 0.8387 0.3474 0.4194
vn -0.9113 0.4116 -0.0000
vn 0.6156 0.7881 -0.0000
vn -0.4397 -0.1822 -0.8795
vn 0.8387 0.3474 -0.4194
vn 0.4117 -0.9113 -0.0000
vn 0.7881 0.6156 -0.0000
vn -0.1822 -0.4398 0.8795
vn 0.3474 0.8387 0.4194
vn -0.9355 -0.3533 -0.0000
vn -0.1219 0.9925 -0.0000
vn -0.1821 -0.4397 -0.8795
vn 0.3474 0.8387 -0.4194
vn 0.9925 -0.1220 -0.0000
vn -0.4397 -0.1821 0.8795
vn -0.9113 0.4117 -0.0000
vn 0.6156 0.7880 -0.0000
vn -0.4398 -0.1821 -0.8795
vn 0.3533 -0.9355 -0.0000
vn -0.9925 -0.1220 -0.0000
vn 0.4397 -0.1821 -0.8795
vn -0.8387 0.3474 -0.4194
vn 0.9113 0.4117 -0.0000
vn -0.6156 0.7880 -0.0000
vn 0.4398 -0.1821 0.8795
vn -0.8387 0.3474 0.4194
vn 0.9113 -0.4117 -0.0000
vn -0.6156 -0.7881 -0.0000
vn 0.4397 0.1822 -0.8795
vn -0.8387 -0.3474 -0.4194
vn 0.3533 0.9355 -0.0000
vn -0.9925 0.1219 -0.0000
vn 0.4397 0.1822 0.8795
vn -0.8387 -0.3474 0.4194
vn -0.9925 -0.1219 -0.0000
vn -0.6156 0.7881 -0.0000
vn 0.4397 -0.1822 0.8795
vn -0.9355 0.3533 -0.0000
vn -0.1219 -0.9925 -0.0000
vn -0.1821 0.4397 0.8795
vn 0.3474 -0.8387 0.4194
vn 0.4117 0.9113 -0.0000
vn 0.7881 -0.6156 -0.0000
vn -0.1821 0.4397 -0.8795
vn 0.3474 -0.8387 -0.4194
vn -0.1822 -0.4397 0.8795
vn -0.1822 -0.4397 -0.8795
vn -0.1822 0.4397 0.8795
vn 0.4116 0.9113 -0.0000
vn -0.1822 0.4397 -0.8795
vn -0.6156 -0.7880 -0.0000
vn 0.4398 0.1821 -0.8795
vn -0.9925 0.1220 -0.0000
vn 0.4397 0.1821 0.8795
vn 0.1822 0.4397 -0.8795
vn -0.4116 -0.9113 -0.0000
vn -0.7881 0.6156 -0.0000
vn 0.1822 -0.4397 -0.8795
vn -0.3474 0.8387 -0.4194
vn 0.9355 -0.3533 -0.0000
vn 0.1219 0.9925 -0.0000
vn 0.1822 -0.4397 0.8795
vn -0.3474 0.8387 0.4194
vn -0.4117 -0.9113 -0.0000
vn 0.1821 -0.4397 0.8795
vn -0.3510 -0.8473 0.3987
vn 0.8472 -0.3510 0.3988
vn 0.8472 0.3510 0.3987
vn -0.3510 0.8472 0.3987
vn -0.8472 0.3510 0.3988
vn -0.8473 -0.3510 0.3987
vn -0.3509 0.8473 0.3988
vn -0.8473 -0.3509 0.3988
vn -0.3509 -0.8472 0.3988
vn 0.3510 0.8473 0.3987
vn 0.3510 -0.8473 -0.3987
vn -0.3510 -0.8472 -0.3988
vn -0.8472 -0.3510 -0.3988
vn -0.3510 0.8472 -0.3988
vn 0.8472 0.3510 -0.3988
vn 0.8473 -0.3510 -0.3987
vn -0.3509 0.8472 -0.3988
vn 0.3509 -0.8472 -0.3988
vn -0.3509 -0.8473 -0.3988
vn -0.4397 0.1821 0.8795
vn -0.4398 0.1821 -0.8795
vn -0.4397 -0.1821 -0.8795
vn -0.1821 -0.4397 0.8795
vn -0.1822 -0.4398 -0.8795
vn -0.4398 -0.1821 0.8795
vn 0.4398 -0.1821 -0.8795
vn 0.4397 -0.1821 0.8795
vn 0.9113 -0.4116 -0.0000
vn 0.4397 -0.1822 -0.8795
vn 0.9113 0.4116 -0.0000
vn 0.4397 0.1821 -0.8795
vn 0.4398 0.1821 0.8795
vn 0.1821 -0.4397 -0.8795
vt 0.000000 0.000000
s 0
f 66/1/1 65/1/1 49/1/1
f 66/1/2 58/1/2 50/1/2
f 66/1/3 57/1/3 55/1/3
f 66/1/4 67/1/4 56/1/4
f 68/1/5 67/1/5 55/1/5
f 68/1/6 64/1/6 56/1/6
f 68/1/7 63/1/7 59/1/7
f 68/1/8 69/1/8 60/1/8
f 70/1/9 69/1/9 59/1/9
f 70/1/10 62/1/10 60/1/10
f 70/1/11 61/1/11 51/1/11
f 70/1/12 71/1/12 52/1/12
f 72/1/13 71/1/13 51/1/13
f 72/1/14 54/1/14 52/1/14
f 72/1/15 53/1/15 49/1/15
f 72/1/16 65/1/16 50/1/16
f 74/1/17 73/1/17 27/1/17
f 73/1/12 74/1/12 32/1/12
f 74/1/18 31/1/18 21/1/18
f 74/1/14 75/1/14 22/1/14
f 76/1/19 75/1/19 21/1/19
f 76/1/16 26/1/16 22/1/16
f 77/1/20 76/1/20 25/1/20
f 76/1/2 77/1/2 18/1/2
f 78/1/21 77/1/21 17/1/21
f 77/1/4 78/1/4 24/1/4
f 78/1/22 23/1/22 19/1/22
f 78/1/6 79/1/6 20/1/6
f 80/1/23 79/1/23 19/1/23
f 80/1/8 30/1/8 20/1/8
f 73/1/9 80/1/9 29/1/9
f 73/1/10 28/1/10 30/1/10
f 82/1/24 81/1/24 33/1/24
f 82/1/25 48/1/25 34/1/25
f 82/1/26 47/1/26 43/1/26
f 82/1/27 83/1/27 44/1/27
f 84/1/28 83/1/28 43/1/28
f 84/1/29 46/1/29 44/1/29
f 85/1/30 84/1/30 45/1/30
f 84/1/31 85/1/31 36/1/31
f 86/1/32 85/1/32 35/1/32
f 86/1/33 40/1/33 36/1/33
f 86/1/34 39/1/34 37/1/34
f 86/1/35 87/1/35 38/1/35
f 88/1/36 87/1/36 37/1/36
f 88/1/37 42/1/37 38/1/37
f 88/1/38 41/1/38 33/1/38
f 88/1/39 81/1/39 34/1/39
f 90/1/40 89/1/40 45/1/40
f 90/1/41 54/1/41 46/1/41
f 91/1/42 90/1/42 53/1/42
f 90/1/43 91/1/43 52/1/43
f 92/1/44 91/1/44 51/1/44
f 91/1/45 92/1/45 36/1/45
f 92/1/46 35/1/46 45/1/46
f 89/1/47 46/1/47 36/1/47
f 94/1/48 93/1/48 7/1/48
f 94/1/31 10/1/31 8/1/31
f 94/1/49 9/1/49 3/1/49
f 95/1/33 4/1/33 10/1/33
f 96/1/50 95/1/50 3/1/50
f 95/1/35 96/1/35 6/1/35
f 97/1/51 96/1/51 5/1/51
f 96/1/37 97/1/37 2/1/37
f 98/1/52 97/1/52 1/1/52
f 98/1/39 16/1/39 2/1/39
f 99/1/24 98/1/24 15/1/24
f 99/1/25 12/1/25 16/1/25
f 100/1/53 99/1/53 11/1/53
f 99/1/27 100/1/27 14/1/27
f 93/1/54 100/1/54 13/1/54
f 100/1/29 93/1/29 8/1/29
f 102/1/55 101/1/55 7/1/55
f 101/1/56 102/1/56 22/1/56
f 102/1/57 21/1/57 31/1/57
f 103/1/43 32/1/43 22/1/43
f 104/1/44 103/1/44 31/1/44
f 103/1/58 104/1/58 10/1/58
f 101/1/59 104/1/59 9/1/59
f 104/1/47 101/1/47 8/1/47
f 106/1/60 105/1/60 29/1/60
f 105/1/61 106/1/61 6/1/61
f 107/1/62 106/1/62 5/1/62
f 107/1/63 4/1/63 6/1/63
f 108/1/64 107/1/64 3/1/64
f 108/1/65 28/1/65 4/1/65
f 105/1/66 108/1/66 27/1/66
f 108/1/67 105/1/67 30/1/67
f 110/1/68 109/1/68 43/1/68
f 109/1/69 110/1/69 50/1/69
f 111/1/70 110/1/70 49/1/70
f 111/1/71 54/1/71 50/1/71
f 112/1/72 111/1/72 53/1/72
f 111/1/73 112/1/73 46/1/73
f 109/1/74 112/1/74 45/1/74
f 112/1/75 109/1/75 44/1/75
f 114/1/76 113/1/76 47/1/76
f 113/1/77 114/1/77 58/1/77
f 115/1/78 114/1/78 57/1/78
f 114/1/79 115/1/79 50/1/79
f 116/1/80 115/1/80 49/1/80
f 115/1/81 116/1/81 44/1/81
f 116/1/82 43/1/82 47/1/82
f 113/1/83 48/1/83 44/1/83
f 118/1/68 117/1/68 13/1/68
f 117/1/84 118/1/84 26/1/84
f 119/1/85 118/1/85 25/1/85
f 118/1/71 119/1/71 22/1/71
f 120/1/86 119/1/86 21/1/86
f 119/1/87 120/1/87 8/1/87
f 120/1/88 7/1/88 13/1/88
f 117/1/75 14/1/75 8/1/75
f 122/1/89 121/1/89 23/1/89
f 121/1/90 122/1/90 16/1/90
f 123/1/91 122/1/91 15/1/91
f 122/1/92 123/1/92 2/1/92
f 124/1/93 123/1/93 1/1/93
f 123/1/94 124/1/94 20/1/94
f 124/1/95 19/1/95 23/1/95
f 121/1/96 24/1/96 20/1/96
f 126/1/97 125/1/97 63/1/97
f 125/1/98 126/1/98 42/1/98
f 127/1/99 126/1/99 41/1/99
f 126/1/100 127/1/100 38/1/100
f 128/1/101 127/1/101 37/1/101
f 127/1/102 128/1/102 60/1/102
f 128/1/103 59/1/103 63/1/103
f 125/1/104 64/1/104 60/1/104
f 130/1/89 129/1/89 55/1/89
f 129/1/105 130/1/105 34/1/105
f 130/1/91 33/1/91 41/1/91
f 131/1/92 42/1/92 34/1/92
f 132/1/93 131/1/93 41/1/93
f 131/1/106 132/1/106 64/1/106
f 129/1/107 132/1/107 63/1/107
f 132/1/96 129/1/96 56/1/96
f 134/1/108 133/1/108 9/1/108
f 133/1/109 134/1/109 32/1/109
f 135/1/110 134/1/110 31/1/110
f 134/1/111 135/1/111 28/1/111
f 136/1/112 135/1/112 27/1/112
f 135/1/113 136/1/113 4/1/113
f 136/1/114 3/1/114 9/1/114
f 133/1/115 10/1/115 4/1/115
f 138/1/76 137/1/76 11/1/76
f 137/1/77 138/1/77 18/1/77
f 139/1/116 138/1/116 17/1/116
f 138/1/79 139/1/79 26/1/79
f 140/1/80 139/1/80 25/1/80
f 139/1/81 140/1/81 14/1/81
f 137/1/117 140/1/117 13/1/117
f 140/1/83 137/1/83 12/1/83
f 142/1/108 141/1/108 35/1/108
f 141/1/109 142/1/109 52/1/109
f 142/1/118 51/1/118 61/1/118
f 143/1/111 62/1/111 52/1/111
f 144/1/119 143/1/119 61/1/119
f 143/1/113 144/1/113 40/1/113
f 141/1/120 144/1/120 39/1/120
f 144/1/115 141/1/115 36/1/115
f 146/1/97 145/1/97 19/1/97
f 145/1/121 146/1/121 2/1/121
f 146/1/122 1/1/122 5/1/122
f 147/1/100 6/1/100 2/1/100
f 148/1/101 147/1/101 5/1/101
f 147/1/123 148/1/123 30/1/123
f 145/1/124 148/1/124 29/1/124
f 148/1/104 145/1/104 20/1/104
f 150/1/60 149/1/60 59/1/60
f 149/1/61 150/1/61 38/1/61
f 150/1/125 37/1/125 39/1/125
f 151/1/63 40/1/63 38/1/63
f 152/1/64 151/1/64 39/1/64
f 151/1/65 152/1/65 62/1/65
f 149/1/66 152/1/66 61/1/66
f 152/1/67 149/1/67 60/1/67
f 154/1/126 153/1/126 17/1/126
f 153/1/127 154/1/127 12/1/127
f 154/1/128 11/1/128 15/1/128
f 154/1/129 155/1/129 16/1/129
f 156/1/130 155/1/130 15/1/130
f 155/1/131 156/1/131 24/1/131
f 156/1/132 23/1/132 17/1/132
f 156/1/133 153/1/133 18/1/133
f 158/1/134 157/1/134 57/1/134
f 157/1/127 158/1/127 48/1/127
f 159/1/128 158/1/128 47/1/128
f 158/1/129 159/1/129 34/1/129
f 160/1/130 159/1/130 33/1/130
f 159/1/131 160/1/131 56/1/131
f 160/1/135 55/1/135 57/1/135
f 157/1/133 58/1/133 56/1/133
f 66/1/136 49/1/136 57/1/136
f 66/1/2 50/1/2 65/1/2
f 66/1/21 55/1/21 67/1/21
f 66/1/4 56/1/4 58/1/4
f 68/1/137 55/1/137 63/1/137
f 68/1/6 56/1/6 67/1/6
f 68/1/138 59/1/138 69/1/138
f 68/1/8 60/1/8 64/1/8
f 70/1/9 59/1/9 61/1/9
f 70/1/10 60/1/10 69/1/10
f 70/1/139 51/1/139 71/1/139
f 70/1/12 52/1/12 62/1/12
f 72/1/140 51/1/140 53/1/140
f 72/1/14 52/1/14 71/1/14
f 72/1/141 49/1/141 65/1/141
f 72/1/16 50/1/16 54/1/16
f 74/1/142 27/1/142 31/1/142
f 73/1/12 32/1/12 28/1/12
f 74/1/18 21/1/18 75/1/18
f 74/1/14 22/1/14 32/1/14
f 76/1/143 21/1/143 25/1/143
f 76/1/16 22/1/16 75/1/16
f 77/1/144 25/1/144 17/1/144
f 76/1/2 18/1/2 26/1/2
f 78/1/21 17/1/21 23/1/21
f 77/1/4 24/1/4 18/1/4
f 78/1/22 19/1/22 79/1/22
f 78/1/6 20/1/6 24/1/6
f 80/1/23 19/1/23 29/1/23
f 80/1/8 20/1/8 79/1/8
f 73/1/145 29/1/145 27/1/145
f 73/1/10 30/1/10 80/1/10
f 82/1/146 33/1/146 47/1/146
f 82/1/25 34/1/25 81/1/25
f 82/1/147 43/1/147 83/1/147
f 82/1/27 44/1/27 48/1/27
f 84/1/148 43/1/148 45/1/148
f 84/1/29 44/1/29 83/1/29
f 85/1/30 45/1/30 35/1/30
f 84/1/31 36/1/31 46/1/31
f 86/1/149 35/1/149 39/1/149
f 86/1/33 36/1/33 85/1/33
f 86/1/34 37/1/34 87/1/34
f 86/1/35 38/1/35 40/1/35
f 88/1/150 37/1/150 41/1/150
f 88/1/37 38/1/37 87/1/37
f 88/1/151 33/1/151 81/1/151
f 88/1/39 34/1/39 42/1/39
f 90/1/40 45/1/40 53/1/40
f 90/1/41 46/1/41 89/1/41
f 91/1/42 53/1/42 51/1/42
f 90/1/43 52/1/43 54/1/43
f 92/1/44 51/1/44 35/1/44
f 91/1/45 36/1/45 52/1/45
f 92/1/46 45/1/46 89/1/46
f 89/1/47 36/1/47 92/1/47
f 94/1/48 7/1/48 9/1/48
f 94/1/31 8/1/31 93/1/31
f 94/1/152 3/1/152 95/1/152
f 95/1/33 10/1/33 94/1/33
f 96/1/34 3/1/34 5/1/34
f 95/1/35 6/1/35 4/1/35
f 97/1/51 5/1/51 1/1/51
f 96/1/37 2/1/37 6/1/37
f 98/1/52 1/1/52 15/1/52
f 98/1/39 2/1/39 97/1/39
f 99/1/153 15/1/153 11/1/153
f 99/1/25 16/1/25 98/1/25
f 100/1/154 11/1/154 13/1/154
f 99/1/27 14/1/27 12/1/27
f 93/1/54 13/1/54 7/1/54
f 100/1/29 8/1/29 14/1/29
f 102/1/55 7/1/55 21/1/55
f 101/1/56 22/1/56 8/1/56
f 102/1/155 31/1/155 103/1/155
f 103/1/43 22/1/43 102/1/43
f 104/1/44 31/1/44 9/1/44
f 103/1/58 10/1/58 32/1/58
f 101/1/156 9/1/156 7/1/156
f 104/1/47 8/1/47 10/1/47
f 106/1/60 29/1/60 5/1/60
f 105/1/61 6/1/61 30/1/61
f 107/1/125 5/1/125 3/1/125
f 107/1/63 6/1/63 106/1/63
f 108/1/64 3/1/64 27/1/64
f 108/1/65 4/1/65 107/1/65
f 105/1/66 27/1/66 29/1/66
f 108/1/67 30/1/67 28/1/67
f 110/1/68 43/1/68 49/1/68
f 109/1/69 50/1/69 44/1/69
f 111/1/70 49/1/70 53/1/70
f 111/1/71 50/1/71 110/1/71
f 112/1/72 53/1/72 45/1/72
f 111/1/73 46/1/73 54/1/73
f 109/1/157 45/1/157 43/1/157
f 112/1/75 44/1/75 46/1/75
f 114/1/76 47/1/76 57/1/76
f 113/1/77 58/1/77 48/1/77
f 115/1/158 57/1/158 49/1/158
f 114/1/79 50/1/79 58/1/79
f 116/1/80 49/1/80 43/1/80
f 115/1/81 44/1/81 50/1/81
f 116/1/159 47/1/159 113/1/159
f 113/1/83 44/1/83 116/1/83
f 118/1/68 13/1/68 25/1/68
f 117/1/84 26/1/84 14/1/84
f 119/1/160 25/1/160 21/1/160
f 118/1/71 22/1/71 26/1/71
f 120/1/86 21/1/86 7/1/86
f 119/1/87 8/1/87 22/1/87
f 120/1/157 13/1/157 117/1/157
f 117/1/75 8/1/75 120/1/75
f 122/1/89 23/1/89 15/1/89
f 121/1/90 16/1/90 24/1/90
f 123/1/161 15/1/161 1/1/161
f 122/1/92 2/1/92 16/1/92
f 124/1/93 1/1/93 19/1/93
f 123/1/94 20/1/94 2/1/94
f 124/1/162 23/1/162 121/1/162
f 121/1/96 20/1/96 124/1/96
f 126/1/163 63/1/163 41/1/163
f 125/1/98 42/1/98 64/1/98
f 127/1/99 41/1/99 37/1/99
f 126/1/100 38/1/100 42/1/100
f 128/1/101 37/1/101 59/1/101
f 127/1/102 60/1/102 38/1/102
f 128/1/103 63/1/103 125/1/103
f 125/1/104 60/1/104 128/1/104
f 130/1/89 55/1/89 33/1/89
f 129/1/105 34/1/105 56/1/105
f 130/1/164 41/1/164 131/1/164
f 131/1/92 34/1/92 130/1/92
f 132/1/165 41/1/165 63/1/165
f 131/1/106 64/1/106 42/1/106
f 129/1/162 63/1/162 55/1/162
f 132/1/96 56/1/96 64/1/96
f 134/1/108 9/1/108 31/1/108
f 133/1/109 32/1/109 10/1/109
f 135/1/110 31/1/110 27/1/110
f 134/1/111 28/1/111 32/1/111
f 136/1/112 27/1/112 3/1/112
f 135/1/113 4/1/113 28/1/113
f 136/1/114 9/1/114 133/1/114
f 133/1/115 4/1/115 136/1/115
f 138/1/76 11/1/76 17/1/76
f 137/1/77 18/1/77 12/1/77
f 139/1/158 17/1/158 25/1/158
f 138/1/79 26/1/79 18/1/79
f 140/1/80 25/1/80 13/1/80
f 139/1/81 14/1/81 26/1/81
f 137/1/82 13/1/82 11/1/82
f 140/1/83 12/1/83 14/1/83
f 142/1/108 35/1/108 51/1/108
f 141/1/109 52/1/109 36/1/109
f 142/1/118 61/1/118 143/1/118
f 143/1/111 52/1/111 142/1/111
f 144/1/119 61/1/119 39/1/119
f 143/1/113 40/1/113 62/1/113
f 141/1/120 39/1/120 35/1/120
f 144/1/115 36/1/115 40/1/115
f 146/1/97 19/1/97 1/1/97
f 145/1/121 2/1/121 20/1/121
f 146/1/166 5/1/166 147/1/166
f 147/1/100 2/1/100 146/1/100
f 148/1/101 5/1/101 29/1/101
f 147/1/123 30/1/123 6/1/123
f 145/1/167 29/1/167 19/1/167
f 148/1/104 20/1/104 30/1/104
f 150/1/60 59/1/60 37/1/60
f 149/1/61 38/1/61 60/1/61
f 150/1/125 39/1/125 151/1/125
f 151/1/63 38/1/63 150/1/63
f 152/1/64 39/1/64 61/1/64
f 151/1/65 62/1/65 40/1/65
f 149/1/66 61/1/66 59/1/66
f 152/1/67 60/1/67 62/1/67
f 154/1/126 17/1/126 11/1/126
f 153/1/127 12/1/127 18/1/127
f 154/1/168 15/1/168 155/1/168
f 154/1/129 16/1/129 12/1/129
f 156/1/130 15/1/130 23/1/130
f 155/1/131 24/1/131 16/1/131
f 156/1/132 17/1/132 153/1/132
f 156/1/133 18/1/133 24/1/133
f 158/1/134 57/1/134 47/1/134
f 157/1/127 48/1/127 58/1/127
f 159/1/168 47/1/168 33/1/168
f 158/1/129 34/1/129 48/1/129
f 160/1/130 33/1/130 55/1/130
f 159/1/131 56/1/131 34/1/131
f 160/1/132 57/1/132 157/1/132
f 157/1/133 56/1/133 160/1/133
