# Blender 5.2.0 LTS
# www.blender.org
mtllib glass bolts.mtl
o bolts
v 0.744285 0.308427 -0.088444
v 0.743187 0.309525 -0.089705
v 0.757914 0.314072 0.088444
v 0.757914 0.315625 0.089704
v 0.757914 0.314072 -0.088444
v 0.757914 0.315625 -0.089705
v 0.771542 0.308427 0.088444
v 0.772640 0.309525 0.089704
v 0.744285 0.308427 0.088444
v 0.743187 0.309525 0.089704
v 0.771542 0.308427 -0.088444
v 0.772640 0.309525 -0.089705
v 0.738639 0.294797 -0.088444
v 0.737086 0.294797 -0.089705
v 0.777188 0.294797 0.088444
v 0.778741 0.294797 0.089704
v 0.738639 0.294797 0.088444
v 0.737086 0.294797 0.089704
v 0.777188 0.294797 -0.088444
v 0.778741 0.294797 -0.089705
v 0.744285 0.281168 -0.088444
v 0.743187 0.280070 -0.089705
v 0.771542 0.281168 0.088444
v 0.772640 0.280070 0.089704
v 0.744285 0.281168 0.088444
v 0.743187 0.280070 0.089704
v 0.771542 0.281168 -0.088444
v 0.772640 0.280070 -0.089705
v 0.757914 0.275523 -0.088444
v 0.757914 0.273970 -0.089705
v 0.757914 0.275523 0.088444
v 0.757914 0.273970 0.089704
v 0.650599 0.136720 -0.088444
v 0.650599 0.138273 -0.089705
v 0.664227 0.131075 0.088444
v 0.665325 0.132173 0.089705
v 0.664227 0.131075 -0.088444
v 0.665325 0.132173 -0.089705
v 0.669873 0.117446 0.088444
v 0.671426 0.117446 0.089704
v 0.650599 0.136720 0.088444
v 0.650599 0.138273 0.089705
v 0.669873 0.117446 -0.088444
v 0.671426 0.117446 -0.089705
v 0.636970 0.131075 -0.088444
v 0.635872 0.132173 -0.089705
v 0.664227 0.103816 0.088444
v 0.665325 0.102718 0.089705
v 0.636970 0.131075 0.088444
v 0.635872 0.132173 0.089705
v 0.664227 0.103816 -0.088444
v 0.665325 0.102718 -0.089705
v 0.631324 0.117446 -0.088444
v 0.629771 0.117446 -0.089705
v 0.650599 0.098171 0.088444
v 0.650599 0.096618 0.089705
v 0.631324 0.117446 0.088444
v 0.629771 0.117446 0.089704
v 0.650599 0.098171 -0.088444
v 0.650599 0.096618 -0.089705
v 0.636970 0.103816 -0.088444
v 0.635872 0.102718 -0.089705
v 0.636970 0.103816 0.088444
v 0.635872 0.102718 0.089704
v 0.175444 -0.184191 -0.101587
v 0.176516 -0.183068 -0.102848
v 0.176491 -0.229095 -0.101587
v 0.177614 -0.230167 -0.102847
v 0.154256 -0.238918 -0.101587
v 0.154292 -0.240470 -0.102847
v 0.185268 -0.206426 -0.101587
v 0.186820 -0.206390 -0.102847
v 0.131587 -0.230141 -0.101587
v 0.130515 -0.231264 -0.102847
v 0.121764 -0.207906 -0.101587
v 0.120212 -0.207942 -0.102848
v 0.152775 -0.175414 -0.101587
v 0.152739 -0.173862 -0.102847
v 0.130540 -0.185237 -0.101587
v 0.129417 -0.184165 -0.102847
v 0.121764 -0.207906 0.101587
v 0.120212 -0.207942 0.102848
v 0.175444 -0.184191 0.101587
v 0.176516 -0.183068 0.102848
v 0.152775 -0.175414 0.101587
v 0.152739 -0.173862 0.102848
v 0.130540 -0.185237 0.101587
v 0.129417 -0.184165 0.102848
v 0.131587 -0.230141 0.101587
v 0.130515 -0.231264 0.102848
v 0.154256 -0.238918 0.101587
v 0.154292 -0.240470 0.102848
v 0.176491 -0.229095 0.101587
v 0.177614 -0.230167 0.102848
v 0.185268 -0.206426 0.101587
v 0.186820 -0.206390 0.102848
v 0.597039 -0.304249 -0.101587
v 0.598162 -0.305321 -0.102847
v 0.573325 -0.250569 -0.101587
v 0.573289 -0.249017 -0.102847
v 0.595993 -0.259345 -0.101587
v 0.597065 -0.258222 -0.102847
v 0.605816 -0.281581 -0.101587
v 0.607368 -0.281545 -0.102847
v 0.551090 -0.260392 -0.101587
v 0.549967 -0.259320 -0.102847
v 0.542313 -0.283061 -0.101587
v 0.540761 -0.283097 -0.102847
v 0.552135 -0.305296 -0.101587
v 0.551063 -0.306419 -0.102847
v 0.574805 -0.314073 -0.101587
v 0.574841 -0.315625 -0.102847
v 0.597039 -0.304249 0.101587
v 0.598162 -0.305321 0.102847
v 0.542313 -0.283061 0.101587
v 0.540761 -0.283097 0.102848
v 0.552135 -0.305296 0.101587
v 0.551063 -0.306419 0.102848
v 0.574805 -0.314073 0.101587
v 0.574841 -0.315625 0.102848
v 0.551090 -0.260392 0.101587
v 0.549967 -0.259320 0.102848
v 0.573325 -0.250569 0.101587
v 0.573289 -0.249017 0.102848
v 0.595993 -0.259345 0.101587
v 0.597065 -0.258222 0.102848
v 0.605816 -0.281581 0.101587
v 0.607368 -0.281545 0.102848
v 0.227197 0.117446 -0.088444
v 0.228750 0.117446 -0.089705
v 0.207924 0.136720 -0.088444
v 0.207924 0.138273 -0.089705
v 0.221553 0.131075 -0.088444
v 0.222651 0.132173 -0.089704
v 0.207924 0.098171 -0.088444
v 0.207924 0.096618 -0.089705
v 0.221553 0.103816 -0.088444
v 0.222651 0.102718 -0.089704
v 0.188649 0.117446 -0.088444
v 0.187096 0.117446 -0.089705
v 0.194293 0.131075 -0.088444
v 0.193195 0.132173 -0.089704
v 0.194293 0.103816 -0.088444
v 0.193195 0.102718 -0.089704
v 0.207924 0.098171 0.088444
v 0.207924 0.096618 0.089705
v 0.207924 0.136720 0.088444
v 0.207924 0.138273 0.089705
v 0.188649 0.117446 0.088444
v 0.187096 0.117446 0.089705
v 0.194293 0.131075 0.088444
v 0.193195 0.132173 0.089704
v 0.194293 0.103816 0.088444
v 0.193195 0.102718 0.089704
v 0.227197 0.117446 0.088444
v 0.228750 0.117446 0.089705
v 0.221553 0.131075 0.088444
v 0.222651 0.132173 0.089704
v 0.221553 0.103816 0.088444
v 0.222651 0.102718 0.089704
v -0.470352 0.117446 -0.088444
v -0.468799 0.117446 -0.089705
v -0.489626 0.136720 -0.088444
v -0.489626 0.138273 -0.089705
v -0.475996 0.131075 -0.088444
v -0.474898 0.132173 -0.089704
v -0.503254 0.131075 -0.088444
v -0.504352 0.132173 -0.089705
v -0.503254 0.103816 -0.088444
v -0.504352 0.102718 -0.089705
v -0.508901 0.117446 -0.088444
v -0.510454 0.117446 -0.089704
v -0.489626 0.098171 -0.088444
v -0.489626 0.096618 -0.089705
v -0.475996 0.103816 -0.088444
v -0.474898 0.102718 -0.089704
v -0.503254 0.103816 0.088444
v -0.504352 0.102718 0.089705
v -0.503254 0.131075 0.088444
v -0.504352 0.132173 0.089705
v -0.508901 0.117446 0.088444
v -0.510454 0.117446 0.089704
v -0.470352 0.117446 0.088444
v -0.468799 0.117446 0.089705
v -0.489626 0.136720 0.088444
v -0.489626 0.138273 0.089705
v -0.475996 0.131075 0.088444
v -0.474898 0.132173 0.089704
v -0.489626 0.098171 0.088444
v -0.489626 0.096618 0.089705
v -0.475996 0.103816 0.088444
v -0.474898 0.102718 0.089704
v -0.771542 0.103816 0.088444
v -0.772640 0.102718 0.089704
v -0.771542 0.131075 0.088444
v -0.772640 0.132173 0.089705
v -0.777188 0.117446 0.088444
v -0.778741 0.117446 0.089704
v -0.738639 0.117446 0.088444
v -0.737086 0.117446 0.089704
v -0.757913 0.136720 0.088444
v -0.757913 0.138273 0.089705
v -0.744285 0.131075 0.088444
v -0.743187 0.132173 0.089705
v -0.757913 0.098171 0.088444
v -0.757913 0.096618 0.089705
v -0.744285 0.103816 0.088444
v -0.743187 0.102718 0.089705
v -0.738639 0.117446 -0.088444
v -0.737086 0.117446 -0.089705
v -0.757913 0.136720 -0.088444
v -0.757913 0.138273 -0.089705
v -0.744285 0.131075 -0.088444
v -0.743187 0.132173 -0.089705
v -0.771542 0.131075 -0.088444
v -0.772640 0.132173 -0.089705
v -0.771542 0.103816 -0.088444
v -0.772640 0.102718 -0.089705
v -0.777188 0.117446 -0.088444
v -0.778741 0.117446 -0.089705
v -0.757913 0.098171 -0.088444
v -0.757913 0.096618 -0.089705
v -0.744285 0.103816 -0.088444
v -0.743187 0.102718 -0.089705
v -0.623555 0.281168 -0.088444
v -0.622457 0.280070 -0.089705
v -0.656458 0.294797 -0.088444
v -0.658011 0.294797 -0.089705
v -0.623555 0.308427 -0.088444
v -0.622457 0.309525 -0.089705
v -0.617909 0.294797 -0.088444
v -0.616356 0.294797 -0.089705
v -0.637185 0.314072 -0.088444
v -0.637185 0.315625 -0.089705
v -0.650814 0.308427 -0.088444
v -0.651912 0.309525 -0.089705
v -0.637185 0.275523 -0.088444
v -0.637185 0.273970 -0.089705
v -0.650814 0.281168 -0.088444
v -0.651912 0.280070 -0.089705
v -0.656458 0.294797 0.088444
v -0.658011 0.294797 0.089705
v -0.637185 0.275523 0.088444
v -0.637185 0.273970 0.089704
v -0.623555 0.281168 0.088444
v -0.622457 0.280070 0.089704
v -0.650814 0.281168 0.088444
v -0.651912 0.280070 0.089704
v -0.623555 0.308427 0.088444
v -0.622457 0.309525 0.089704
v -0.617909 0.294797 0.088444
v -0.616356 0.294797 0.089704
v -0.637185 0.314072 0.088444
v -0.637185 0.315625 0.089704
v -0.650814 0.308427 0.088444
v -0.651912 0.309525 0.089704
v -0.475064 0.104191 0.088074
v -0.475064 0.104191 -0.088074
v -0.469958 0.116522 -0.088074
v -0.469958 0.116522 0.088074
v -0.771167 0.102884 0.088074
v -0.771167 0.102884 -0.088074
v -0.758837 0.097777 -0.088074
v -0.758837 0.097777 0.088074
v 0.207000 0.097777 -0.088074
v 0.207000 0.097777 0.088074
v 0.194668 0.102884 0.088074
v 0.194668 0.102884 -0.088074
v -0.622623 0.281543 0.088074
v -0.622623 0.281543 -0.088074
v -0.617515 0.293873 -0.088074
v -0.617515 0.293873 0.088074
v -0.772474 0.104191 -0.088074
v -0.772474 0.104191 0.088074
v -0.777582 0.116522 0.088074
v -0.777582 0.116522 -0.088074
v -0.756989 0.097777 0.088074
v -0.756989 0.097777 -0.088074
v -0.744660 0.102884 -0.088074
v -0.744660 0.102884 0.088074
v 0.744660 0.309359 -0.088074
v 0.744660 0.309359 0.088074
v 0.756990 0.314466 0.088074
v 0.756990 0.314466 -0.088074
v -0.509295 0.118370 -0.088074
v -0.509295 0.118370 0.088074
v -0.504186 0.130700 0.088074
v -0.504186 0.130700 -0.088074
v 0.636038 0.104191 -0.088074
v 0.636038 0.104191 0.088074
v 0.630930 0.116522 0.088074
v 0.630930 0.116522 -0.088074
v -0.656852 0.295721 -0.088074
v -0.656852 0.295721 0.088074
v -0.651746 0.308052 0.088074
v -0.651746 0.308052 -0.088074
v -0.490550 0.097777 -0.088074
v -0.490550 0.097777 0.088074
v -0.502879 0.102884 0.088074
v -0.502879 0.102884 -0.088074
v 0.597962 -0.303852 0.101217
v 0.597962 -0.303852 -0.101217
v 0.606231 -0.282495 -0.101217
v 0.606231 -0.282495 0.101217
v 0.153342 -0.239333 -0.101217
v 0.153342 -0.239333 0.101217
v 0.131983 -0.231064 0.101217
v 0.131983 -0.231064 -0.101217
v 0.541898 -0.282147 -0.101217
v 0.541898 -0.282147 0.101217
v 0.550167 -0.260789 0.101217
v 0.550167 -0.260789 -0.101217
v -0.777582 0.118370 -0.088074
v -0.777582 0.118370 0.088074
v -0.772474 0.130700 0.088074
v -0.772474 0.130700 -0.088074
v 0.772474 0.281543 0.088074
v 0.772474 0.281543 -0.088074
v 0.777582 0.293873 -0.088074
v 0.777582 0.293873 0.088074
v 0.175233 -0.184412 -0.102217
v 0.184962 -0.206433 -0.102217
v 0.176270 -0.228884 -0.102217
v 0.154249 -0.238612 -0.102217
v 0.131798 -0.229920 -0.102217
v 0.122070 -0.207899 -0.102217
v 0.130761 -0.185448 -0.102217
v 0.152782 -0.175720 -0.102217
v 0.123735 -0.203597 0.102217
v 0.148563 -0.177584 0.102217
v 0.130761 -0.185448 0.102217
v 0.153703 -0.238401 0.102217
v 0.173232 -0.187956 0.102217
v 0.132808 -0.230310 0.102217
v 0.175098 -0.188679 0.102217
v 0.156078 -0.237804 0.102217
v 0.176037 -0.228986 0.102217
v 0.177097 -0.188632 0.102217
v 0.177935 -0.224582 0.102217
v 0.184962 -0.206433 0.102217
v 0.595782 -0.259566 -0.102217
v 0.605510 -0.281588 -0.102217
v 0.596818 -0.304038 -0.102217
v 0.574798 -0.313767 -0.102217
v 0.552346 -0.305075 -0.102217
v 0.542619 -0.283054 -0.102217
v 0.551311 -0.260603 -0.102217
v 0.573332 -0.250875 -0.102217
v 0.592551 -0.303903 0.102217
v 0.543427 -0.284883 0.102217
v 0.552244 -0.304842 0.102217
v 0.592598 -0.305902 0.102217
v 0.556648 -0.306740 0.102217
v 0.574798 -0.313767 0.102217
v 0.542830 -0.282508 0.102217
v 0.593274 -0.302037 0.102217
v 0.550921 -0.261613 0.102217
v 0.594654 -0.300591 0.102217
v 0.572796 -0.251112 0.102217
v 0.552301 -0.260166 0.102217
v 0.596484 -0.299782 0.102217
v 0.595545 -0.259475 0.102217
v 0.575197 -0.251597 0.102217
v 0.597646 -0.263786 0.102217
v 0.598483 -0.299736 0.102217
v 0.605510 -0.281588 0.102217
v 0.207924 0.136414 -0.089074
v 0.221337 0.130859 -0.089074
v 0.226891 0.117446 -0.089074
v 0.221337 0.104032 -0.089074
v 0.207924 0.098477 -0.089074
v 0.194509 0.104032 -0.089074
v 0.188955 0.117446 -0.089074
v 0.194509 0.130859 -0.089074
v 0.207924 0.136414 0.089074
v 0.194509 0.130859 0.089074
v 0.188955 0.117446 0.089074
v 0.194509 0.104032 0.089074
v 0.207924 0.098477 0.089074
v 0.221337 0.104032 0.089074
v 0.226891 0.117446 0.089074
v 0.221337 0.130859 0.089074
v 0.637186 0.104032 0.089074
v 0.650599 0.098477 0.089074
v 0.664011 0.104032 0.089074
v 0.669567 0.117446 0.089074
v 0.664011 0.130859 0.089074
v 0.650599 0.136414 0.089074
v 0.637186 0.130859 0.089074
v 0.631630 0.117446 0.089074
v 0.667801 0.121708 -0.089074
v 0.654861 0.134649 -0.089074
v 0.664011 0.130859 -0.089074
v 0.650599 0.098477 -0.089074
v 0.637186 0.104032 -0.089074
v 0.631630 0.117446 -0.089074
v 0.637186 0.130859 -0.089074
v 0.650364 0.136317 -0.089074
v 0.669470 0.117211 -0.089074
v 0.664011 0.104032 -0.089074
v -0.503038 0.130859 -0.089074
v -0.489626 0.136414 -0.089074
v -0.476212 0.130859 -0.089074
v -0.470658 0.117446 -0.089074
v -0.476212 0.104032 -0.089074
v -0.489626 0.098477 -0.089074
v -0.503038 0.104032 -0.089074
v -0.508595 0.117446 -0.089074
v -0.503038 0.130859 0.089074
v -0.508595 0.117446 0.089074
v -0.503038 0.104032 0.089074
v -0.489626 0.098477 0.089074
v -0.476212 0.104032 0.089074
v -0.470658 0.117446 0.089074
v -0.476212 0.130859 0.089074
v -0.489626 0.136414 0.089074
v -0.771326 0.130859 0.089074
v -0.776882 0.117446 0.089074
v -0.771326 0.104032 0.089074
v -0.757913 0.098477 0.089074
v -0.744501 0.104032 0.089074
v -0.738945 0.117446 0.089074
v -0.744501 0.130859 0.089074
v -0.757913 0.136414 0.089074
v 0.122173 -0.208131 0.102217
v 0.131361 -0.228930 0.102217
v 0.174223 -0.184022 0.102217
v 0.153019 -0.175812 0.102217
v -0.771326 0.130859 -0.089074
v -0.757913 0.136414 -0.089074
v -0.744501 0.130859 -0.089074
v -0.738945 0.117446 -0.089074
v -0.744501 0.104032 -0.089074
v -0.757913 0.098477 -0.089074
v -0.771326 0.104032 -0.089074
v -0.776882 0.117446 -0.089074
v 0.744501 0.308211 0.089074
v 0.738945 0.294797 0.089074
v 0.744501 0.281384 0.089074
v 0.757914 0.275829 0.089074
v 0.771326 0.281384 0.089074
v 0.776882 0.294797 0.089074
v 0.771326 0.308211 0.089074
v 0.757914 0.313766 0.089074
v 0.771326 0.308211 -0.089074
v 0.776882 0.294797 -0.089074
v 0.771326 0.281384 -0.089074
v 0.757914 0.275829 -0.089074
v 0.744501 0.281384 -0.089074
v 0.738945 0.294797 -0.089074
v 0.744501 0.308211 -0.089074
v 0.757914 0.313766 -0.089074
v -0.637185 0.313766 -0.089074
v -0.623771 0.308211 -0.089074
v -0.618215 0.294797 -0.089074
v -0.623771 0.281384 -0.089074
v -0.637185 0.275829 -0.089074
v -0.650598 0.281384 -0.089074
v -0.656152 0.294797 -0.089074
v -0.650598 0.308211 -0.089074
v -0.637185 0.275829 0.089074
v -0.623771 0.281384 0.089074
v -0.618215 0.294797 0.089074
v -0.623771 0.308211 0.089074
v -0.637185 0.313766 0.089074
v -0.650598 0.308211 0.089074
v -0.656152 0.294797 0.089074
v -0.650598 0.281384 0.089074
v 0.758838 0.275129 0.088074
v 0.758838 0.275129 -0.088074
v 0.771167 0.280236 -0.088074
v 0.771167 0.280236 0.088074
v 0.595596 -0.258422 0.101217
v 0.595596 -0.258422 -0.101217
v 0.574239 -0.250154 -0.101217
v 0.574239 -0.250154 0.101217
v 0.222485 0.104191 0.088074
v 0.222485 0.104191 -0.088074
v 0.227591 0.116522 -0.088074
v 0.227591 0.116522 0.088074
v -0.502879 0.132007 -0.088074
v -0.502879 0.132007 0.088074
v -0.490550 0.137114 0.088074
v -0.490550 0.137114 -0.088074
v -0.617515 0.295721 0.088074
v -0.617515 0.295721 -0.088074
v -0.622623 0.308052 -0.088074
v -0.622623 0.308052 0.088074
v -0.651746 0.281543 -0.088074
v -0.651746 0.281543 0.088074
v -0.656852 0.293873 0.088074
v -0.656852 0.293873 -0.088074
v 0.185640 -0.205493 0.101217
v 0.185640 -0.205493 -0.101217
v 0.176384 -0.184544 -0.101217
v 0.176384 -0.184544 0.101217
v 0.637345 0.132007 -0.088074
v 0.637345 0.132007 0.088074
v 0.649675 0.137114 0.088074
v 0.649675 0.137114 -0.088074
v 0.121349 -0.206992 -0.101217
v 0.121349 -0.206992 0.101217
v 0.129617 -0.185634 0.101217
v 0.129617 -0.185634 -0.101217
v 0.637345 0.102884 0.088074
v 0.637345 0.102884 -0.088074
v 0.649675 0.097777 -0.088074
v 0.649675 0.097777 0.088074
v 0.193361 0.104191 -0.088074
v 0.193361 0.104191 0.088074
v 0.188255 0.116522 0.088074
v 0.188255 0.116522 -0.088074
v 0.130893 -0.184297 -0.101217
v 0.130893 -0.184297 0.101217
v 0.151842 -0.175042 0.101217
v 0.151842 -0.175042 -0.101217
v -0.488702 0.097777 0.088074
v -0.488702 0.097777 -0.088074
v -0.476371 0.102884 -0.088074
v -0.476371 0.102884 0.088074
v 0.606188 -0.280648 0.101217
v 0.606188 -0.280648 -0.101217
v 0.596933 -0.259698 -0.101217
v 0.596933 -0.259698 0.101217
v 0.227591 0.118370 0.088074
v 0.227591 0.118370 -0.088074
v 0.222485 0.130700 -0.088074
v 0.222485 0.130700 0.088074
v 0.630930 0.118370 -0.088074
v 0.630930 0.118370 0.088074
v 0.636038 0.130700 0.088074
v 0.636038 0.130700 -0.088074
v 0.155189 -0.239290 0.101217
v 0.155189 -0.239290 -0.101217
v 0.176138 -0.230035 -0.101217
v 0.176138 -0.230035 0.101217
v -0.738245 0.118370 0.088074
v -0.738245 0.118370 -0.088074
v -0.743353 0.130700 -0.088074
v -0.743353 0.130700 0.088074
v 0.194668 0.132007 -0.088074
v 0.194668 0.132007 0.088074
v 0.207000 0.137114 0.088074
v 0.207000 0.137114 -0.088074
v 0.188255 0.118370 -0.088074
v 0.188255 0.118370 0.088074
v 0.193361 0.130700 0.088074
v 0.193361 0.130700 -0.088074
v 0.130647 -0.229788 -0.101217
v 0.130647 -0.229788 0.101217
v 0.121392 -0.208839 0.101217
v 0.121392 -0.208839 -0.101217
v -0.756989 0.137114 -0.088074
v -0.756989 0.137114 0.088074
v -0.744660 0.132007 0.088074
v -0.744660 0.132007 -0.088074
v -0.623930 0.309359 0.088074
v -0.623930 0.309359 -0.088074
v -0.636261 0.314466 -0.088074
v -0.636261 0.314466 0.088074
v -0.743353 0.104191 0.088074
v -0.743353 0.104191 -0.088074
v -0.738245 0.116522 -0.088074
v -0.738245 0.116522 0.088074
v -0.650439 0.309359 -0.088074
v -0.650439 0.309359 0.088074
v -0.638109 0.314466 0.088074
v -0.638109 0.314466 -0.088074
v 0.208848 0.097777 0.088074
v 0.208848 0.097777 -0.088074
v 0.221178 0.102884 -0.088074
v 0.221178 0.102884 0.088074
v 0.738245 0.295721 -0.088074
v 0.738245 0.295721 0.088074
v 0.743353 0.308052 0.088074
v 0.743353 0.308052 -0.088074
v 0.670267 0.118370 0.088074
v 0.670267 0.118370 -0.088074
v 0.665159 0.130700 -0.088074
v 0.665159 0.130700 0.088074
v -0.771167 0.132007 -0.088074
v -0.771167 0.132007 0.088074
v -0.758837 0.137114 0.088074
v -0.758837 0.137114 -0.088074
v 0.777582 0.295721 0.088074
v 0.777582 0.295721 -0.088074
v 0.772474 0.308052 -0.088074
v 0.772474 0.308052 0.088074
v 0.221178 0.132007 0.088074
v 0.221178 0.132007 -0.088074
v 0.208848 0.137114 -0.088074
v 0.208848 0.137114 0.088074
v 0.756990 0.275129 -0.088074
v 0.756990 0.275129 0.088074
v 0.744660 0.280236 0.088074
v 0.744660 0.280236 -0.088074
v 0.665159 0.104191 0.088074
v 0.665159 0.104191 -0.088074
v 0.670267 0.116522 -0.088074
v 0.670267 0.116522 0.088074
v -0.636261 0.275129 0.088074
v -0.636261 0.275129 -0.088074
v -0.623930 0.280236 -0.088074
v -0.623930 0.280236 0.088074
v -0.638109 0.275129 -0.088074
v -0.638109 0.275129 0.088074
v -0.650439 0.280236 0.088074
v -0.650439 0.280236 -0.088074
v -0.504186 0.104191 -0.088074
v -0.504186 0.104191 0.088074
v -0.509295 0.116522 0.088074
v -0.509295 0.116522 -0.088074
v 0.651523 0.097777 0.088074
v 0.651523 0.097777 -0.088074
v 0.663852 0.102884 -0.088074
v 0.663852 0.102884 0.088074
v 0.175048 -0.183268 0.101217
v 0.175048 -0.183268 -0.101217
v 0.153689 -0.174999 -0.101217
v 0.153689 -0.174999 0.101217
v -0.476371 0.132007 0.088074
v -0.476371 0.132007 -0.088074
v -0.488702 0.137114 -0.088074
v -0.488702 0.137114 0.088074
v 0.651523 0.137114 -0.088074
v 0.651523 0.137114 0.088074
v 0.663852 0.132007 0.088074
v 0.663852 0.132007 -0.088074
v 0.551195 -0.304943 -0.101217
v 0.551195 -0.304943 0.101217
v 0.541941 -0.283994 0.101217
v 0.541941 -0.283994 -0.101217
v 0.771167 0.309359 0.088074
v 0.771167 0.309359 -0.088074
v 0.758838 0.314466 -0.088074
v 0.758838 0.314466 0.088074
v 0.743353 0.281543 -0.088074
v 0.743353 0.281543 0.088074
v 0.738245 0.293873 0.088074
v 0.738245 0.293873 -0.088074
v -0.469958 0.118370 0.088074
v -0.469958 0.118370 -0.088074
v -0.475064 0.130700 -0.088074
v -0.475064 0.130700 0.088074
v 0.177414 -0.228698 0.101217
v 0.177414 -0.228699 -0.101217
v 0.185683 -0.207340 -0.101217
v 0.185683 -0.207340 0.101217
v 0.551443 -0.259452 -0.101217
v 0.551443 -0.259452 0.101217
v 0.572392 -0.250197 0.101217
v 0.572392 -0.250197 -0.101217
v 0.573891 -0.314488 -0.101217
v 0.573891 -0.314488 0.101217
v 0.552531 -0.306219 0.101217
v 0.552531 -0.306219 -0.101217
v 0.575738 -0.314445 0.101217
v 0.575738 -0.314445 -0.101217
v 0.596686 -0.305189 -0.101217
v 0.596686 -0.305189 0.101217
vn 0.3733 -0.9277 -0.0000
vn -0.9937 -0.1123 -0.0000
vn 0.4233 -0.1753 -0.8888
vn -0.8457 0.3502 -0.4027
vn 0.9199 0.3921 -0.0000
vn -0.6234 0.7819 -0.0000
vn 0.4233 -0.1753 0.8889
vn -0.8457 0.3502 0.4027
vn -0.9276 -0.3735 -0.0000
vn -0.1122 0.9937 -0.0000
vn -0.1753 -0.4233 -0.8889
vn 0.3503 0.8457 -0.4027
vn 0.3921 -0.9199 -0.0000
vn 0.7820 0.6233 -0.0000
vn -0.1753 -0.4233 0.8889
vn 0.3503 0.8457 0.4027
vn 0.7819 0.6234 -0.0000
vn 0.3502 0.8457 0.4027
vn -0.9277 -0.3734 -0.0000
vn -0.1753 -0.4233 -0.8888
vn 0.3502 0.8457 -0.4027
vn 0.3732 -0.9277 -0.0000
vn -0.9937 -0.1122 -0.0000
vn 0.4233 -0.1754 -0.8889
vn -0.8456 0.3503 -0.4027
vn 0.9200 0.3920 -0.0000
vn -0.6232 0.7820 -0.0000
vn 0.4233 -0.1754 0.8889
vn -0.8456 0.3503 0.4027
vn -0.3733 -0.9277 -0.0000
vn 0.9937 -0.1121 -0.0000
vn -0.4233 -0.1753 0.8889
vn 0.8456 0.3503 0.4027
vn -0.9200 0.3918 -0.0000
vn 0.6233 0.7820 -0.0000
vn -0.4233 -0.1754 -0.8888
vn 0.8456 0.3503 -0.4027
vn -0.3920 -0.9199 -0.0000
vn -0.7820 0.6233 -0.0000
vn 0.1753 -0.4233 -0.8889
vn -0.3503 0.8456 -0.4027
vn 0.9277 -0.3733 -0.0000
vn 0.1122 0.9937 -0.0000
vn 0.1753 -0.4233 0.8889
vn -0.3503 0.8456 0.4027
vn -0.9277 0.3733 -0.0000
vn -0.1122 -0.9937 -0.0000
vn -0.1753 0.4234 0.8888
vn 0.3503 -0.8456 0.4027
vn 0.3921 0.9199 -0.0000
vn 0.7820 -0.6233 -0.0000
vn -0.1753 0.4233 -0.8889
vn 0.3503 -0.8457 -0.4027
vn -0.9199 -0.3920 -0.0000
vn 0.6232 -0.7820 -0.0000
vn -0.4233 0.1754 0.8888
vn 0.8456 -0.3504 0.4027
vn -0.3732 0.9277 -0.0000
vn 0.9937 0.1122 -0.0000
vn -0.4233 0.1754 -0.8889
vn 0.8456 -0.3504 -0.4027
vn -0.9199 0.3920 -0.0000
vn -0.9199 -0.3921 -0.0000
vn 0.6233 -0.7819 -0.0000
vn -0.4233 0.1753 0.8889
vn 0.8457 -0.3502 0.4027
vn -0.3734 0.9277 -0.0000
vn -0.4233 0.1753 -0.8889
vn 0.8457 -0.3502 -0.4027
vn 0.3920 -0.9200 -0.0000
vn 0.3503 0.8456 0.4027
vn -0.9277 -0.3733 -0.0000
vn 0.3503 0.8456 -0.4027
vn 0.3948 -0.9188 -0.0000
vn -0.9908 -0.1354 -0.0000
vn 0.4272 -0.1654 -0.8889
vn -0.8536 0.3305 -0.4027
vn 0.9106 0.4133 -0.0000
vn -0.6413 0.7673 -0.0000
vn 0.4273 -0.1654 0.8889
vn -0.8536 0.3305 0.4028
vn 0.4134 -0.9106 -0.0000
vn 0.7672 0.6414 -0.0000
vn -0.1654 -0.4273 0.8889
vn 0.3305 0.8536 0.4027
vn -0.9188 -0.3948 -0.0000
vn -0.1353 0.9908 -0.0000
vn -0.1654 -0.4273 -0.8889
vn 0.3305 0.8536 -0.4027
vn -0.9106 -0.4133 -0.0000
vn 0.6414 -0.7672 -0.0000
vn -0.4273 0.1654 0.8889
vn 0.8536 -0.3305 0.4027
vn -0.3948 0.9188 -0.0000
vn 0.9908 0.1353 -0.0000
vn -0.4272 0.1654 -0.8889
vn 0.8536 -0.3305 -0.4027
vn -0.9200 -0.3918 -0.0000
vn -0.4233 0.1754 0.8889
vn 0.8456 -0.3503 0.4027
vn -0.3732 0.9278 -0.0000
vn 0.9937 0.1120 -0.0000
vn 0.8456 -0.3503 -0.4027
vn -0.9937 -0.1120 -0.0000
vn 0.9200 0.3918 -0.0000
vn -0.6233 0.7820 -0.0000
vn 0.8346 0.3687 -0.4093
vn 0.3152 0.1392 0.9388
vn 0.8508 -0.3294 -0.4093
vn 0.3213 -0.1244 0.9388
vn 0.3687 -0.8346 -0.4092
vn 0.1392 -0.3152 0.9388
vn -0.3294 -0.8509 -0.4093
vn -0.1244 -0.3213 0.9388
vn -0.8346 -0.3687 -0.4093
vn -0.3152 -0.1392 0.9388
vn -0.8509 0.3294 -0.4093
vn -0.3213 0.1244 0.9388
vn -0.3687 0.8346 -0.4092
vn -0.1392 0.3151 0.9388
vn 0.3295 0.8509 -0.4092
vn 0.1244 0.3213 0.9388
vn 0.2726 -0.2602 0.9263
vn 0.5883 -0.5615 -0.5819
vn -0.3687 0.8346 0.4093
vn -0.1392 0.3152 -0.9388
vn -0.8509 0.3294 0.4093
vn -0.3213 0.1244 -0.9388
vn 0.6226 -0.2410 0.7445
vn 0.4076 -0.1578 -0.8994
vn -0.3857 0.3681 0.8460
vn -0.3857 0.3681 -0.8460
vn -0.3294 -0.8508 0.4093
vn -0.1244 -0.3213 -0.9388
vn -0.4075 0.1578 0.8994
vn -0.6226 0.2410 -0.7445
vn 0.3687 -0.8346 0.4093
vn 0.1392 -0.3152 -0.9388
vn 0.8130 0.0190 0.5819
vn 0.3768 0.0088 -0.9263
vn -0.3768 -0.0088 0.9263
vn -0.8130 -0.0190 -0.5820
vn 0.8509 -0.3294 0.4093
vn 0.3213 -0.1244 -0.9388
vn 0.8346 0.3687 0.4093
vn 0.3151 0.1392 -0.9388
vn 0.3151 0.1392 0.9388
vn 0.8509 -0.3294 -0.4093
vn 0.3688 -0.8346 -0.4093
vn 0.1392 -0.3151 0.9388
vn -0.3294 -0.8508 -0.4093
vn -0.8346 -0.3687 -0.4092
vn -0.8509 0.3294 -0.4092
vn -0.1392 0.3152 0.9388
vn 0.3294 0.8508 -0.4093
vn 0.1578 0.4075 0.8995
vn 0.2410 0.6226 -0.7445
vn -0.8346 -0.3687 0.4093
vn -0.3151 -0.1392 -0.9388
vn 0.0190 -0.8130 0.5819
vn 0.0088 -0.3768 -0.9263
vn -0.0088 0.3768 0.9263
vn -0.0190 0.8130 -0.5820
vn -0.3294 -0.8509 0.4093
vn 0.3687 -0.8345 0.4094
vn 0.1392 -0.3151 -0.9388
vn -0.2410 -0.6225 0.7445
vn -0.1578 -0.4075 -0.8995
vn 0.3681 0.3857 0.8460
vn 0.3682 0.3857 -0.8460
vn 0.6107 0.2698 0.7445
vn 0.3998 0.1766 -0.8994
vn -0.1392 0.3151 -0.9388
vn -0.3682 -0.3857 0.8460
vn -0.3681 -0.3857 -0.8460
vn 0.8130 0.0189 0.5819
vn 0.3294 0.8509 0.4093
vn 0.1244 0.3213 -0.9388
vn -0.3998 -0.1766 0.8994
vn -0.6107 -0.2698 -0.7445
vn -0.8130 -0.0189 -0.5820
vn 0.8509 -0.3295 0.4092
vn 0.3152 0.1392 -0.9388
vn 0.3492 0.8430 -0.4092
vn 0.1318 0.3183 0.9388
vn 0.8430 0.3491 -0.4093
vn 0.3183 0.1318 0.9388
vn 0.8430 -0.3491 -0.4092
vn 0.3183 -0.1318 0.9388
vn 0.3491 -0.8430 -0.4093
vn 0.1318 -0.3183 0.9388
vn -0.3491 -0.8430 -0.4093
vn -0.1318 -0.3183 0.9388
vn -0.8430 -0.3491 -0.4093
vn -0.3183 -0.1318 0.9388
vn -0.8430 0.3491 -0.4092
vn -0.3183 0.1318 0.9388
vn -0.3491 0.8430 -0.4093
vn -0.1318 0.3183 0.9388
vn -0.3491 0.8430 0.4093
vn -0.1318 0.3183 -0.9388
vn -0.8430 0.3491 0.4093
vn -0.3183 0.1318 -0.9388
vn -0.8430 -0.3491 0.4092
vn -0.3183 -0.1318 -0.9388
vn -0.3491 -0.8430 0.4093
vn -0.1318 -0.3183 -0.9388
vn 0.3492 -0.8430 0.4093
vn 0.1318 -0.3183 -0.9388
vn 0.8430 -0.3491 0.4093
vn 0.3183 -0.1318 -0.9388
vn 0.8430 0.3491 0.4092
vn 0.3183 0.1318 -0.9388
vn 0.3491 0.8429 0.4093
vn 0.1318 0.3183 -0.9388
vn -0.3492 -0.8430 0.4093
vn 0.1319 -0.3183 -0.9388
vn 0.8429 -0.3492 0.4093
vn 0.3183 -0.1319 -0.9388
vn 0.8429 0.3492 0.4093
vn 0.3183 0.1319 -0.9388
vn 0.3492 0.8430 0.4093
vn 0.1319 0.3183 -0.9388
vn -0.8430 0.3492 0.4093
vn -0.3183 0.1319 -0.9388
vn -0.8430 -0.3492 0.4093
vn -0.3183 -0.1319 -0.9388
vn -0.2665 -0.2665 -0.9263
vn -0.5750 -0.5750 0.5819
vn 0.3492 0.8429 -0.4093
vn 0.8429 0.3492 -0.4093
vn 0.3183 0.1319 0.9388
vn -0.8430 -0.3492 -0.4093
vn -0.8429 0.3492 -0.4093
vn -0.3183 0.1319 0.9388
vn -0.3492 0.8430 -0.4093
vn 0.5750 0.5750 -0.5820
vn 0.2665 0.2665 0.9263
vn 0.8430 -0.3492 -0.4092
vn 0.3183 -0.1319 0.9388
vn 0.3492 -0.8429 -0.4093
vn -0.1319 0.3183 0.9388
vn 0.3491 0.8430 -0.4093
vn 0.8430 -0.3491 -0.4093
vn -0.3492 -0.8430 -0.4093
vn -0.1319 -0.3183 0.9388
vn -0.8429 -0.3492 -0.4093
vn -0.3183 -0.1319 0.9388
vn -0.8429 0.3493 -0.4093
vn -0.8429 0.3493 0.4093
vn -0.8429 -0.3492 0.4093
vn -0.3492 -0.8430 0.4092
vn 0.3491 -0.8430 0.4093
vn 0.8430 0.3491 0.4093
vn 0.3491 0.8430 0.4093
vn -0.3492 0.8430 0.4093
vn -0.1319 0.3183 -0.9388
vn 0.3857 -0.3681 0.8460
vn 0.3857 -0.3681 -0.8460
vn -0.5883 0.5615 0.5820
vn -0.2727 0.2602 -0.9263
vn 0.3492 0.8430 -0.4093
vn 0.1319 0.3183 0.9388
vn 0.8430 0.3492 -0.4093
vn 0.8430 -0.3492 -0.4093
vn -0.8429 0.3492 0.4093
vn 0.3492 0.8429 0.4093
vn 0.8429 -0.3492 -0.4093
vn 0.3492 -0.8430 -0.4093
vn 0.1319 -0.3183 0.9388
vn -0.8430 0.3492 -0.4093
vn -0.8430 0.3491 -0.4093
vn -0.8430 -0.3491 0.4093
vn -0.3920 -0.9200 -0.0000
vn 0.9277 -0.3734 -0.0000
vn 0.9188 0.3947 -0.0000
vn 0.1353 -0.9908 -0.0000
vn 0.1654 0.4273 -0.8888
vn -0.3305 -0.8536 -0.4027
vn -0.4134 0.9106 -0.0000
vn -0.7672 -0.6414 -0.0000
vn 0.1654 0.4273 0.8889
vn -0.3305 -0.8536 0.4027
vn 0.3734 -0.9277 -0.0000
vn 0.4233 -0.1753 -0.8889
vn -0.1753 0.4233 0.8889
vn 0.3920 0.9200 -0.0000
vn 0.3503 -0.8456 -0.4027
vn 0.9200 -0.3920 -0.0000
vn -0.6232 -0.7820 -0.0000
vn 0.4233 0.1753 -0.8889
vn -0.8456 -0.3503 -0.4027
vn 0.3732 0.9277 -0.0000
vn -0.9937 0.1122 -0.0000
vn 0.4233 0.1754 0.8888
vn -0.8456 -0.3503 0.4027
vn 0.9937 -0.1122 -0.0000
vn 0.8457 0.3502 0.4027
vn -0.9199 0.3921 -0.0000
vn -0.4233 -0.1753 -0.8889
vn 0.8457 0.3502 -0.4027
vn 0.9288 -0.3705 -0.0000
vn -0.6049 -0.7963 -0.0000
vn 0.4191 0.1852 -0.8889
vn -0.8372 -0.3699 -0.4027
vn 0.3515 0.9362 -0.0000
vn -0.9960 0.0890 -0.0000
vn 0.4191 0.1852 0.8889
vn -0.8372 -0.3699 0.4027
vn 0.3503 -0.8457 0.4027
vn -0.9106 -0.4134 -0.0000
vn 0.9908 0.1354 -0.0000
vn -0.4273 0.1654 -0.8889
vn 0.3920 -0.9199 -0.0000
vn -0.3734 -0.9277 -0.0000
vn 0.9937 -0.1123 -0.0000
vn -0.4233 -0.1753 0.8888
vn 0.6234 0.7819 -0.0000
vn -0.9362 0.3516 -0.0000
vn -0.0890 -0.9960 -0.0000
vn -0.1852 0.4191 0.8889
vn 0.3699 -0.8373 0.4027
vn 0.3705 0.9288 -0.0000
vn 0.7963 -0.6049 -0.0000
vn -0.1851 0.4191 -0.8889
vn 0.3699 -0.8373 -0.4027
vn -0.3921 -0.9199 -0.0000
vn -0.7819 0.6233 -0.0000
vn -0.3502 0.8457 -0.4027
vn -0.3502 0.8457 0.4027
vn -0.8373 -0.3699 -0.4027
vn 0.3516 0.9361 -0.0000
vn -0.9960 0.0889 -0.0000
vn 0.4191 0.1852 0.8888
vn -0.8373 -0.3699 0.4027
vn 0.9199 -0.3921 -0.0000
vn -0.6233 -0.7820 -0.0000
vn -0.8457 -0.3502 -0.4027
vn 0.3734 0.9277 -0.0000
vn -0.9937 0.1123 -0.0000
vn 0.4233 0.1753 0.8888
vn -0.8457 -0.3502 0.4027
vn -0.9200 -0.3920 -0.0000
vn -0.3733 0.9277 -0.0000
vn 0.9937 0.1121 -0.0000
vn -0.3705 -0.9288 -0.0000
vn -0.7963 0.6049 -0.0000
vn 0.1851 -0.4191 -0.8889
vn -0.3699 0.8373 -0.4027
vn 0.9362 -0.3516 -0.0000
vn 0.0890 0.9960 -0.0000
vn 0.1852 -0.4191 0.8889
vn -0.3699 0.8373 0.4027
vn 0.3733 0.9277 -0.0000
vn 0.4233 0.1754 0.8889
vn -0.9277 0.3734 -0.0000
vn -0.1753 0.4233 0.8888
vn 0.3502 -0.8457 0.4027
vn 0.7819 -0.6234 -0.0000
vn 0.3502 -0.8457 -0.4027
vn 0.6234 -0.7819 -0.0000
vn 0.9937 0.1123 -0.0000
vn -0.4233 0.1753 -0.8888
vn -0.3516 -0.9362 -0.0000
vn 0.9960 -0.0890 -0.0000
vn -0.4191 -0.1852 0.8889
vn 0.8373 0.3699 0.4027
vn -0.9288 0.3705 -0.0000
vn 0.6049 0.7963 -0.0000
vn -0.4191 -0.1852 -0.8889
vn 0.8373 0.3699 -0.4027
vn -0.3920 0.9200 -0.0000
vn -0.7820 -0.6233 -0.0000
vn 0.1753 0.4233 0.8889
vn -0.3503 -0.8456 0.4027
vn 0.9277 0.3733 -0.0000
vn 0.1122 -0.9937 -0.0000
vn 0.1753 0.4233 -0.8889
vn -0.3503 -0.8456 -0.4027
vn 0.9277 0.3732 -0.0000
vn 0.1123 -0.9937 -0.0000
vn -0.3502 -0.8457 -0.4027
vn -0.3921 0.9199 -0.0000
vn -0.3502 -0.8457 0.4027
vn -0.9277 0.3732 -0.0000
vn -0.3503 0.8457 -0.4027
vn 0.1753 -0.4233 0.8888
vn 0.6233 -0.7820 -0.0000
vn 0.8456 -0.3503 -0.4028
vn 0.4233 0.1754 -0.8889
vn 0.3920 0.9199 -0.0000
vn 0.9200 -0.3918 -0.0000
vn -0.8457 -0.3503 -0.4027
vn -0.9937 0.1120 -0.0000
vn 0.4233 0.1753 0.8889
vn 0.1753 0.4233 -0.8888
vn -0.3920 0.9199 -0.0000
vn -0.3503 -0.8457 0.4027
vn -0.1753 -0.4233 0.8888
vn -0.8457 0.3503 0.4027
vn 0.9277 -0.3732 -0.0000
vn 0.1123 0.9937 -0.0000
vn -0.9277 -0.3732 -0.0000
vn 0.3503 0.8456 -0.4028
vn -0.4233 -0.1754 0.8889
vn -0.9200 0.3919 -0.0000
vn 0.9188 0.3948 -0.0000
vn 0.1654 0.4273 -0.8889
vn -0.7819 -0.6233 -0.0000
vn -0.7819 -0.6234 -0.0000
vn 0.9960 -0.0891 -0.0000
vn -0.4191 -0.1851 0.8889
vn -0.4191 -0.1851 -0.8889
vn 0.8373 0.3698 -0.4027
vn 0.9277 0.3734 -0.0000
vn 0.1754 0.4233 0.8888
vn 0.9937 -0.1120 -0.0000
vn -0.4233 -0.1754 -0.8889
vn -0.6234 -0.7819 -0.0000
vn -0.9908 -0.1353 -0.0000
vn 0.4273 -0.1654 -0.8888
vn 0.9105 0.4134 -0.0000
vn -0.6414 0.7672 -0.0000
vn 0.4273 -0.1654 0.8888
vn -0.8536 0.3305 0.4027
vn -0.9362 0.3515 -0.0000
vn -0.1852 0.4191 0.8888
vn 0.3699 -0.8372 0.4027
vn -0.9187 -0.3949 -0.0000
vn -0.3704 -0.9289 -0.0000
vn 0.1852 -0.4191 -0.8889
vn -0.3699 0.8372 -0.4027
vn 0.9362 -0.3515 -0.0000
vn -0.3699 0.8372 0.4027
vn 0.9199 0.3922 -0.0000
vn 0.4233 -0.1753 0.8888
vn -0.9937 -0.1121 -0.0000
vn -0.4233 -0.1754 0.8888
vn -0.9199 0.3922 -0.0000
vn -0.9200 -0.3919 -0.0000
vn -0.4233 0.1754 -0.8888
vn -0.9200 0.3920 -0.0000
vn -0.9908 -0.1352 -0.0000
vn 0.4273 -0.1654 -0.8889
vn 0.7672 0.6413 -0.0000
vn -0.1654 -0.4273 0.8888
vn 0.6413 -0.7673 -0.0000
vn -0.4273 0.1654 -0.8888
vn -0.9199 -0.3922 -0.0000
vn 0.3687 -0.8346 -0.4093
vn -0.3687 0.8346 -0.4093
vn 0.3294 0.8509 -0.4093
vn 0.5883 -0.5615 -0.5820
vn 0.4075 -0.1578 -0.8994
vn -0.4076 0.1578 0.8994
vn 0.8509 -0.3295 -0.4092
vn 0.3687 -0.8345 -0.4093
vn 0.1578 0.4076 0.8994
vn -0.3152 -0.1392 -0.9388
vn 0.0190 -0.8130 0.5820
vn -0.0190 0.8130 -0.5819
vn -0.3294 -0.8509 0.4092
vn -0.2410 -0.6226 0.7445
vn -0.1578 -0.4076 -0.8994
vn 0.3681 0.3857 -0.8460
vn 0.6106 0.2698 0.7445
vn 0.3998 0.1766 -0.8995
vn -0.3681 -0.3857 0.8460
vn 0.8130 0.0189 0.5820
vn 0.3294 0.8508 0.4093
vn -0.3997 -0.1766 0.8995
vn -0.6106 -0.2698 -0.7446
vn -0.3767 -0.0088 0.9263
vn 0.3491 0.8429 -0.4093
vn 0.8430 0.3491 -0.4092
vn -0.8430 -0.3491 -0.4092
vn -0.8430 0.3491 0.4092
vn 0.8430 -0.3491 0.4092
vn 0.3492 0.8430 0.4092
vn 0.3492 -0.8429 0.4093
vn 0.8430 -0.3492 0.4093
vn 0.8430 0.3492 0.4093
vn 0.5750 0.5750 -0.5819
vn -0.3492 -0.8430 -0.4092
vn -0.1319 -0.3183 -0.9388
vn -0.5883 0.5615 0.5819
vn -0.2726 0.2602 -0.9263
vn 0.8430 0.3492 0.4092
vn 0.1754 -0.4233 -0.8888
vn 0.1754 -0.4233 0.8888
vn 0.9187 0.3949 -0.0000
vn -0.4133 0.9106 -0.0000
vn 0.4233 0.1754 -0.8888
vn -0.9937 0.1121 -0.0000
vn 0.9289 -0.3704 -0.0000
vn -0.3948 0.9187 -0.0000
vn -0.4233 -0.1753 -0.8888
vn -0.1851 0.4191 0.8889
vn -0.1852 0.4191 -0.8889
vn 0.9288 -0.3706 -0.0000
vn -0.6050 -0.7962 -0.0000
vn 0.4191 0.1852 -0.8888
vn 0.3516 0.9362 -0.0000
vn -0.6233 -0.7819 -0.0000
vn 0.4233 0.1753 -0.8888
vn 0.1851 -0.4191 0.8889
vn 0.9200 -0.3919 -0.0000
vn -0.1753 0.4233 -0.8888
vn -0.4233 0.1753 0.8888
vn 0.9200 0.3919 -0.0000
vn 0.1753 -0.4233 -0.8888
vn -0.3503 0.8457 0.4027
vn 0.8457 -0.3503 -0.4027
vn 0.9199 -0.3922 -0.0000
vn -0.8457 -0.3503 0.4027
vn -0.3503 -0.8457 -0.4027
vn 0.1753 0.4233 0.8888
vn -0.8457 0.3503 -0.4027
vn 0.3503 0.8456 0.4028
vn -0.3732 -0.9277 -0.0000
vn 0.6232 0.7820 -0.0000
vn 0.1654 0.4273 0.8888
vn 0.8373 0.3698 0.4027
vn -0.9288 0.3706 -0.0000
vn 0.6050 0.7962 -0.0000
vn 0.1754 0.4233 -0.8888
vn -0.9361 0.3516 -0.0000
vn -0.1852 0.4191 -0.8888
vn 0.3699 -0.8372 -0.4027
vn 0.4133 -0.9106 -0.0000
vn 0.1852 -0.4191 -0.8888
vn 0.1852 -0.4191 0.8888
vt 0.000000 0.000000
s 0
f 258/1/1 257/1/1 191/1/1
f 258/1/2 176/1/2 192/1/2
f 259/1/3 258/1/3 175/1/3
f 258/1/4 259/1/4 162/1/4
f 260/1/5 259/1/5 161/1/5
f 259/1/6 260/1/6 184/1/6
f 260/1/7 183/1/7 191/1/7
f 257/1/8 192/1/8 184/1/8
f 262/1/9 261/1/9 193/1/9
f 261/1/10 262/1/10 218/1/10
f 263/1/11 262/1/11 217/1/11
f 263/1/12 222/1/12 218/1/12
f 264/1/13 263/1/13 221/1/13
f 263/1/14 264/1/14 206/1/14
f 264/1/15 205/1/15 193/1/15
f 264/1/16 261/1/16 194/1/16
f 266/1/13 265/1/13 135/1/13
f 265/1/17 266/1/17 146/1/17
f 266/1/15 145/1/15 153/1/15
f 267/1/18 154/1/18 146/1/18
f 268/1/19 267/1/19 153/1/19
f 267/1/10 268/1/10 144/1/10
f 265/1/20 268/1/20 143/1/20
f 268/1/21 265/1/21 136/1/21
f 270/1/22 269/1/22 245/1/22
f 269/1/23 270/1/23 226/1/23
f 271/1/24 270/1/24 225/1/24
f 271/1/25 232/1/25 226/1/25
f 272/1/26 271/1/26 231/1/26
f 271/1/27 272/1/27 252/1/27
f 269/1/28 272/1/28 251/1/28
f 272/1/29 269/1/29 246/1/29
f 274/1/30 273/1/30 217/1/30
f 273/1/31 274/1/31 194/1/31
f 274/1/32 193/1/32 197/1/32
f 274/1/33 275/1/33 198/1/33
f 276/1/34 275/1/34 197/1/34
f 275/1/35 276/1/35 220/1/35
f 273/1/36 276/1/36 219/1/36
f 276/1/37 273/1/37 218/1/37
f 278/1/38 277/1/38 205/1/38
f 277/1/39 278/1/39 222/1/39
f 279/1/40 278/1/40 221/1/40
f 278/1/41 279/1/41 224/1/41
f 280/1/42 279/1/42 223/1/42
f 279/1/43 280/1/43 208/1/43
f 280/1/44 207/1/44 205/1/44
f 277/1/45 206/1/45 208/1/45
f 282/1/46 281/1/46 1/1/46
f 281/1/47 282/1/47 10/1/47
f 283/1/48 282/1/48 9/1/48
f 282/1/49 283/1/49 4/1/49
f 284/1/50 283/1/50 3/1/50
f 283/1/51 284/1/51 6/1/51
f 281/1/52 284/1/52 5/1/52
f 281/1/53 2/1/53 6/1/53
f 286/1/54 285/1/54 171/1/54
f 285/1/55 286/1/55 182/1/55
f 287/1/56 286/1/56 181/1/56
f 286/1/57 287/1/57 180/1/57
f 288/1/58 287/1/58 179/1/58
f 287/1/59 288/1/59 168/1/59
f 288/1/60 167/1/60 171/1/60
f 285/1/61 172/1/61 168/1/61
f 290/1/30 289/1/30 61/1/30
f 289/1/31 290/1/31 64/1/31
f 290/1/32 63/1/32 57/1/32
f 291/1/33 58/1/33 64/1/33
f 292/1/62 291/1/62 57/1/62
f 291/1/35 292/1/35 54/1/35
f 289/1/36 292/1/36 53/1/36
f 289/1/37 62/1/37 54/1/37
f 294/1/63 293/1/63 227/1/63
f 293/1/64 294/1/64 242/1/64
f 294/1/65 241/1/65 255/1/65
f 295/1/66 256/1/66 242/1/66
f 296/1/67 295/1/67 255/1/67
f 295/1/59 296/1/59 236/1/59
f 293/1/68 296/1/68 235/1/68
f 296/1/69 293/1/69 228/1/69
f 298/1/70 297/1/70 173/1/70
f 297/1/14 298/1/14 190/1/14
f 299/1/15 298/1/15 189/1/15
f 299/1/71 178/1/71 190/1/71
f 300/1/72 299/1/72 177/1/72
f 300/1/10 170/1/10 178/1/10
f 300/1/11 169/1/11 173/1/11
f 300/1/73 297/1/73 174/1/73
f 302/1/74 301/1/74 113/1/74
f 301/1/75 302/1/75 98/1/75
f 303/1/76 302/1/76 97/1/76
f 303/1/77 104/1/77 98/1/77
f 304/1/78 303/1/78 103/1/78
f 303/1/79 304/1/79 128/1/79
f 304/1/80 127/1/80 113/1/80
f 301/1/81 114/1/81 128/1/81
f 305/1/82 69/1/82 91/1/82
f 306/1/83 92/1/83 70/1/83
f 307/1/84 306/1/84 91/1/84
f 306/1/85 307/1/85 90/1/85
f 308/1/86 307/1/86 89/1/86
f 308/1/87 74/1/87 90/1/87
f 308/1/88 73/1/88 69/1/88
f 305/1/89 70/1/89 74/1/89
f 310/1/90 309/1/90 107/1/90
f 310/1/91 116/1/91 108/1/91
f 310/1/92 115/1/92 121/1/92
f 311/1/93 122/1/93 116/1/93
f 312/1/94 311/1/94 121/1/94
f 311/1/95 312/1/95 106/1/95
f 309/1/96 312/1/96 105/1/96
f 309/1/97 108/1/97 106/1/97
f 314/1/98 313/1/98 219/1/98
f 313/1/55 314/1/55 198/1/55
f 315/1/99 314/1/99 197/1/99
f 314/1/100 315/1/100 196/1/100
f 316/1/101 315/1/101 195/1/101
f 315/1/102 316/1/102 216/1/102
f 316/1/60 215/1/60 219/1/60
f 313/1/103 220/1/103 216/1/103
f 318/1/22 317/1/22 23/1/22
f 317/1/104 318/1/104 28/1/104
f 318/1/24 27/1/24 19/1/24
f 319/1/25 20/1/25 28/1/25
f 320/1/105 319/1/105 19/1/105
f 319/1/106 320/1/106 16/1/106
f 317/1/28 320/1/28 15/1/28
f 320/1/29 317/1/29 24/1/29
f 322/1/107 321/1/107 65/1/107
f 322/1/108 72/1/108 66/1/108
f 322/1/109 71/1/109 67/1/109
f 322/1/110 323/1/110 68/1/110
f 323/1/111 67/1/111 69/1/111
f 324/1/112 70/1/112 68/1/112
f 325/1/113 324/1/113 69/1/113
f 324/1/114 325/1/114 74/1/114
f 326/1/115 325/1/115 73/1/115
f 326/1/116 76/1/116 74/1/116
f 327/1/117 326/1/117 75/1/117
f 327/1/118 80/1/118 76/1/118
f 327/1/119 79/1/119 77/1/119
f 327/1/120 328/1/120 78/1/120
f 328/1/121 77/1/121 65/1/121
f 328/1/122 321/1/122 66/1/122
f 329/1/123 81/1/123 85/1/123
f 329/1/124 330/1/124 86/1/124
f 330/1/125 85/1/125 87/1/125
f 330/1/126 331/1/126 88/1/126
f 329/1/127 331/1/127 87/1/127
f 329/1/128 82/1/128 88/1/128
f 333/1/129 332/1/129 91/1/129
f 333/1/130 84/1/130 92/1/130
f 333/1/131 83/1/131 89/1/131
f 333/1/132 334/1/132 90/1/132
f 334/1/133 89/1/133 91/1/133
f 334/1/134 332/1/134 92/1/134
f 335/1/135 83/1/135 91/1/135
f 335/1/136 336/1/136 92/1/136
f 336/1/137 91/1/137 93/1/137
f 336/1/138 337/1/138 94/1/138
f 335/1/139 337/1/139 93/1/139
f 335/1/140 84/1/140 94/1/140
f 339/1/141 338/1/141 83/1/141
f 338/1/142 339/1/142 94/1/142
f 339/1/143 93/1/143 95/1/143
f 339/1/144 340/1/144 96/1/144
f 338/1/145 340/1/145 95/1/145
f 338/1/146 84/1/146 96/1/146
f 342/1/107 341/1/107 101/1/107
f 341/1/147 342/1/147 104/1/147
f 343/1/148 342/1/148 103/1/148
f 342/1/110 343/1/110 98/1/110
f 344/1/149 343/1/149 97/1/149
f 344/1/150 112/1/150 98/1/150
f 345/1/151 344/1/151 111/1/151
f 344/1/114 345/1/114 110/1/114
f 345/1/152 109/1/152 107/1/152
f 345/1/116 346/1/116 108/1/116
f 347/1/153 346/1/153 107/1/153
f 347/1/118 106/1/118 108/1/118
f 348/1/119 347/1/119 105/1/119
f 347/1/154 348/1/154 100/1/154
f 341/1/155 348/1/155 99/1/155
f 348/1/122 341/1/122 102/1/122
f 349/1/156 113/1/156 115/1/156
f 349/1/157 350/1/157 116/1/157
f 350/1/158 115/1/158 117/1/158
f 350/1/159 351/1/159 118/1/159
f 349/1/160 351/1/160 117/1/160
f 349/1/161 114/1/161 118/1/161
f 353/1/162 352/1/162 113/1/162
f 353/1/163 118/1/163 114/1/163
f 353/1/164 117/1/164 119/1/164
f 353/1/134 354/1/134 120/1/134
f 352/1/165 354/1/165 119/1/165
f 352/1/166 114/1/166 120/1/166
f 356/1/167 355/1/167 115/1/167
f 356/1/168 114/1/168 116/1/168
f 356/1/169 113/1/169 121/1/169
f 356/1/170 357/1/170 122/1/170
f 357/1/127 121/1/127 115/1/127
f 357/1/128 355/1/128 116/1/128
f 358/1/171 113/1/171 123/1/171
f 358/1/172 359/1/172 124/1/172
f 360/1/125 359/1/125 123/1/125
f 360/1/173 122/1/173 124/1/173
f 358/1/174 360/1/174 121/1/174
f 358/1/175 114/1/175 122/1/175
f 361/1/176 113/1/176 125/1/176
f 361/1/140 362/1/140 126/1/140
f 363/1/177 362/1/177 125/1/177
f 363/1/178 124/1/178 126/1/178
f 361/1/179 363/1/179 123/1/179
f 361/1/180 114/1/180 124/1/180
f 364/1/141 125/1/141 113/1/141
f 364/1/181 365/1/181 114/1/181
f 365/1/182 113/1/182 127/1/182
f 365/1/144 366/1/144 128/1/144
f 364/1/145 366/1/145 127/1/145
f 364/1/183 126/1/183 128/1/183
f 368/1/184 367/1/184 131/1/184
f 368/1/185 134/1/185 132/1/185
f 368/1/186 133/1/186 129/1/186
f 368/1/187 369/1/187 130/1/187
f 370/1/188 369/1/188 129/1/188
f 370/1/189 138/1/189 130/1/189
f 370/1/190 137/1/190 135/1/190
f 370/1/191 371/1/191 136/1/191
f 372/1/192 371/1/192 135/1/192
f 372/1/193 144/1/193 136/1/193
f 372/1/194 143/1/194 139/1/194
f 372/1/195 373/1/195 140/1/195
f 374/1/196 373/1/196 139/1/196
f 374/1/197 142/1/197 140/1/197
f 374/1/198 141/1/198 131/1/198
f 374/1/199 367/1/199 132/1/199
f 376/1/200 375/1/200 147/1/200
f 376/1/201 152/1/201 148/1/201
f 376/1/202 151/1/202 149/1/202
f 376/1/203 377/1/203 150/1/203
f 378/1/204 377/1/204 149/1/204
f 378/1/205 154/1/205 150/1/205
f 378/1/206 153/1/206 145/1/206
f 378/1/207 379/1/207 146/1/207
f 380/1/208 379/1/208 145/1/208
f 380/1/209 160/1/209 146/1/209
f 380/1/210 159/1/210 155/1/210
f 380/1/211 381/1/211 156/1/211
f 382/1/212 381/1/212 155/1/212
f 382/1/213 158/1/213 156/1/213
f 382/1/214 157/1/214 147/1/214
f 382/1/215 375/1/215 148/1/215
f 383/1/216 63/1/216 55/1/216
f 384/1/207 56/1/207 64/1/207
f 385/1/208 384/1/208 55/1/208
f 384/1/217 385/1/217 48/1/217
f 386/1/218 385/1/218 47/1/218
f 386/1/219 40/1/219 48/1/219
f 386/1/220 39/1/220 35/1/220
f 386/1/221 387/1/221 36/1/221
f 388/1/222 387/1/222 35/1/222
f 388/1/223 42/1/223 36/1/223
f 388/1/200 41/1/200 49/1/200
f 388/1/201 389/1/201 50/1/201
f 390/1/224 389/1/224 49/1/224
f 390/1/225 58/1/225 50/1/225
f 390/1/226 57/1/226 63/1/226
f 383/1/227 64/1/227 58/1/227
f 391/1/228 43/1/228 33/1/228
f 391/1/229 392/1/229 34/1/229
f 392/1/230 33/1/230 37/1/230
f 392/1/185 393/1/185 38/1/185
f 391/1/231 393/1/231 37/1/231
f 391/1/232 44/1/232 38/1/232
f 395/1/192 394/1/192 59/1/192
f 394/1/193 395/1/193 62/1/193
f 396/1/233 395/1/233 61/1/233
f 395/1/195 396/1/195 54/1/195
f 396/1/234 53/1/234 45/1/234
f 396/1/235 397/1/235 46/1/235
f 398/1/236 397/1/236 45/1/236
f 398/1/199 34/1/199 46/1/199
f 399/1/237 398/1/237 33/1/237
f 399/1/238 44/1/238 34/1/238
f 399/1/239 43/1/239 51/1/239
f 399/1/240 400/1/240 52/1/240
f 400/1/241 51/1/241 59/1/241
f 400/1/191 394/1/191 60/1/191
f 402/1/236 401/1/236 167/1/236
f 402/1/242 164/1/242 168/1/242
f 403/1/243 402/1/243 163/1/243
f 403/1/185 166/1/185 164/1/185
f 403/1/186 165/1/186 161/1/186
f 403/1/187 404/1/187 162/1/187
f 405/1/244 404/1/244 161/1/244
f 405/1/189 176/1/189 162/1/189
f 405/1/190 175/1/190 173/1/190
f 405/1/191 406/1/191 174/1/191
f 406/1/245 173/1/245 169/1/245
f 406/1/246 407/1/246 170/1/246
f 408/1/247 407/1/247 169/1/247
f 408/1/248 172/1/248 170/1/248
f 408/1/249 171/1/249 167/1/249
f 408/1/235 401/1/235 168/1/235
f 410/1/250 409/1/250 179/1/250
f 410/1/225 182/1/225 180/1/225
f 410/1/251 181/1/251 177/1/251
f 410/1/227 411/1/227 178/1/227
f 412/1/252 411/1/252 177/1/252
f 412/1/207 190/1/207 178/1/207
f 413/1/253 412/1/253 189/1/253
f 413/1/209 192/1/209 190/1/209
f 413/1/210 191/1/210 183/1/210
f 413/1/211 414/1/211 184/1/211
f 415/1/254 414/1/254 183/1/254
f 415/1/213 188/1/213 184/1/213
f 415/1/255 187/1/255 185/1/255
f 415/1/215 416/1/215 186/1/215
f 416/1/256 185/1/256 179/1/256
f 416/1/257 409/1/257 180/1/257
f 418/1/224 417/1/224 195/1/224
f 418/1/225 198/1/225 196/1/225
f 418/1/226 197/1/226 193/1/226
f 418/1/227 419/1/227 194/1/227
f 419/1/216 193/1/216 205/1/216
f 420/1/207 206/1/207 194/1/207
f 421/1/208 420/1/208 205/1/208
f 420/1/217 421/1/217 208/1/217
f 422/1/218 421/1/218 207/1/218
f 422/1/219 200/1/219 208/1/219
f 423/1/220 422/1/220 199/1/220
f 422/1/221 423/1/221 204/1/221
f 424/1/222 423/1/222 203/1/222
f 423/1/223 424/1/223 202/1/223
f 424/1/200 201/1/200 195/1/200
f 417/1/201 196/1/201 202/1/201
f 426/1/158 425/1/158 81/1/158
f 426/1/159 90/1/159 82/1/159
f 426/1/258 89/1/258 83/1/258
f 426/1/259 427/1/259 84/1/259
f 427/1/177 83/1/177 85/1/177
f 427/1/178 428/1/178 86/1/178
f 428/1/260 85/1/260 81/1/260
f 428/1/261 425/1/261 82/1/261
f 429/1/236 215/1/236 211/1/236
f 429/1/199 430/1/199 212/1/199
f 431/1/262 430/1/262 211/1/262
f 430/1/263 431/1/263 214/1/263
f 432/1/264 431/1/264 213/1/264
f 432/1/232 210/1/232 214/1/232
f 432/1/265 209/1/265 223/1/265
f 432/1/240 433/1/240 224/1/240
f 433/1/241 223/1/241 221/1/241
f 434/1/191 222/1/191 224/1/191
f 435/1/192 434/1/192 221/1/192
f 434/1/193 435/1/193 218/1/193
f 436/1/233 435/1/233 217/1/233
f 436/1/248 220/1/248 218/1/248
f 429/1/234 436/1/234 219/1/234
f 436/1/235 429/1/235 216/1/235
f 437/1/266 9/1/266 17/1/266
f 437/1/203 438/1/203 18/1/203
f 438/1/251 17/1/251 25/1/251
f 438/1/227 439/1/227 26/1/227
f 440/1/216 439/1/216 25/1/216
f 439/1/207 440/1/207 32/1/207
f 440/1/208 31/1/208 23/1/208
f 440/1/209 441/1/209 24/1/209
f 442/1/218 441/1/218 23/1/218
f 442/1/219 16/1/219 24/1/219
f 442/1/220 15/1/220 7/1/220
f 442/1/221 443/1/221 8/1/221
f 443/1/267 7/1/267 3/1/267
f 443/1/223 444/1/223 4/1/223
f 444/1/200 3/1/200 9/1/200
f 437/1/201 10/1/201 4/1/201
f 446/1/231 445/1/231 11/1/231
f 446/1/232 20/1/232 12/1/232
f 446/1/268 19/1/268 27/1/268
f 446/1/240 447/1/240 28/1/240
f 448/1/269 447/1/269 27/1/269
f 448/1/270 30/1/270 28/1/270
f 448/1/192 29/1/192 21/1/192
f 448/1/193 449/1/193 22/1/193
f 450/1/247 449/1/247 21/1/247
f 450/1/248 14/1/248 22/1/248
f 451/1/271 450/1/271 13/1/271
f 451/1/235 2/1/235 14/1/235
f 451/1/198 1/1/198 5/1/198
f 452/1/199 6/1/199 2/1/199
f 445/1/184 452/1/184 5/1/184
f 452/1/263 445/1/263 12/1/263
f 454/1/243 453/1/243 233/1/243
f 454/1/185 230/1/185 234/1/185
f 454/1/264 229/1/264 231/1/264
f 454/1/187 455/1/187 232/1/187
f 456/1/268 455/1/268 231/1/268
f 455/1/240 456/1/240 226/1/240
f 456/1/190 225/1/190 237/1/190
f 456/1/191 457/1/191 238/1/191
f 458/1/192 457/1/192 237/1/192
f 458/1/193 240/1/193 238/1/193
f 458/1/194 239/1/194 227/1/194
f 458/1/195 459/1/195 228/1/195
f 460/1/272 459/1/272 227/1/272
f 460/1/197 236/1/197 228/1/197
f 460/1/198 235/1/198 233/1/198
f 460/1/199 453/1/199 234/1/199
f 462/1/253 461/1/253 243/1/253
f 462/1/209 246/1/209 244/1/209
f 463/1/218 462/1/218 245/1/218
f 463/1/219 252/1/219 246/1/219
f 463/1/220 251/1/220 249/1/220
f 464/1/221 250/1/221 252/1/221
f 464/1/214 249/1/214 253/1/214
f 464/1/215 465/1/215 254/1/215
f 466/1/256 465/1/256 253/1/256
f 466/1/201 256/1/201 254/1/201
f 466/1/202 255/1/202 241/1/202
f 466/1/203 467/1/203 242/1/203
f 468/1/273 467/1/273 241/1/273
f 468/1/205 248/1/205 242/1/205
f 468/1/252 247/1/252 243/1/252
f 468/1/207 461/1/207 244/1/207
f 470/1/274 469/1/274 31/1/274
f 469/1/39 470/1/39 30/1/39
f 470/1/40 29/1/40 27/1/40
f 470/1/41 471/1/41 28/1/41
f 472/1/275 471/1/275 27/1/275
f 471/1/43 472/1/43 24/1/43
f 472/1/44 23/1/44 31/1/44
f 469/1/45 32/1/45 24/1/45
f 474/1/276 473/1/276 125/1/276
f 473/1/277 474/1/277 102/1/277
f 475/1/278 474/1/278 101/1/278
f 475/1/279 100/1/279 102/1/279
f 476/1/280 475/1/280 99/1/280
f 475/1/281 476/1/281 124/1/281
f 473/1/282 476/1/282 123/1/282
f 476/1/283 473/1/283 126/1/283
f 478/1/284 477/1/284 159/1/284
f 478/1/2 138/1/2 160/1/2
f 479/1/285 478/1/285 137/1/285
f 478/1/4 479/1/4 130/1/4
f 480/1/5 479/1/5 129/1/5
f 479/1/6 480/1/6 156/1/6
f 480/1/7 155/1/7 159/1/7
f 477/1/8 160/1/8 156/1/8
f 482/1/46 481/1/46 167/1/46
f 481/1/47 482/1/47 180/1/47
f 483/1/286 482/1/286 179/1/286
f 482/1/49 483/1/49 186/1/49
f 484/1/287 483/1/287 185/1/287
f 483/1/51 484/1/51 164/1/51
f 484/1/52 163/1/52 167/1/52
f 484/1/288 481/1/288 168/1/288
f 486/1/289 485/1/289 251/1/289
f 485/1/290 486/1/290 232/1/290
f 486/1/291 231/1/291 229/1/291
f 487/1/292 230/1/292 232/1/292
f 488/1/293 487/1/293 229/1/293
f 487/1/294 488/1/294 250/1/294
f 485/1/295 488/1/295 249/1/295
f 488/1/296 485/1/296 252/1/296
f 490/1/30 489/1/30 239/1/30
f 489/1/297 490/1/297 248/1/297
f 491/1/32 490/1/32 247/1/32
f 490/1/298 491/1/298 242/1/298
f 492/1/299 491/1/299 241/1/299
f 491/1/35 492/1/35 228/1/35
f 492/1/300 227/1/300 239/1/300
f 489/1/301 240/1/301 228/1/301
f 494/1/302 493/1/302 95/1/302
f 493/1/303 494/1/303 72/1/303
f 495/1/304 494/1/304 71/1/304
f 494/1/305 495/1/305 66/1/305
f 496/1/306 495/1/306 65/1/306
f 495/1/307 496/1/307 84/1/307
f 493/1/308 496/1/308 83/1/308
f 493/1/309 96/1/309 84/1/309
f 498/1/46 497/1/46 45/1/46
f 497/1/47 498/1/47 50/1/47
f 498/1/286 49/1/286 41/1/286
f 498/1/310 499/1/310 42/1/310
f 500/1/50 499/1/50 41/1/50
f 499/1/51 500/1/51 34/1/51
f 500/1/52 33/1/52 45/1/52
f 497/1/288 46/1/288 34/1/288
f 501/1/311 75/1/311 81/1/311
f 501/1/91 502/1/91 82/1/91
f 503/1/92 502/1/92 81/1/92
f 503/1/93 88/1/93 82/1/93
f 504/1/94 503/1/94 87/1/94
f 503/1/312 504/1/312 80/1/312
f 501/1/313 504/1/313 79/1/313
f 504/1/97 501/1/97 76/1/97
f 506/1/72 505/1/72 63/1/72
f 505/1/10 506/1/10 62/1/10
f 506/1/11 61/1/11 59/1/11
f 507/1/73 60/1/73 62/1/73
f 508/1/314 507/1/314 59/1/314
f 507/1/14 508/1/14 56/1/14
f 505/1/15 508/1/15 55/1/15
f 508/1/16 505/1/16 64/1/16
f 510/1/315 509/1/315 143/1/315
f 509/1/316 510/1/316 154/1/316
f 511/1/317 510/1/317 153/1/317
f 510/1/298 511/1/298 150/1/298
f 512/1/299 511/1/299 149/1/299
f 511/1/318 512/1/318 140/1/318
f 512/1/300 139/1/300 143/1/300
f 509/1/301 144/1/301 140/1/301
f 514/1/319 513/1/319 79/1/319
f 513/1/320 514/1/320 88/1/320
f 515/1/321 514/1/321 87/1/321
f 514/1/322 515/1/322 86/1/322
f 516/1/323 515/1/323 85/1/323
f 515/1/324 516/1/324 78/1/324
f 516/1/325 77/1/325 79/1/325
f 513/1/326 80/1/326 78/1/326
f 518/1/327 517/1/327 189/1/327
f 517/1/328 518/1/328 174/1/328
f 518/1/40 173/1/40 175/1/40
f 519/1/329 176/1/329 174/1/329
f 520/1/42 519/1/42 175/1/42
f 519/1/43 520/1/43 192/1/43
f 517/1/44 520/1/44 191/1/44
f 520/1/330 517/1/330 190/1/330
f 522/1/302 521/1/302 127/1/302
f 521/1/303 522/1/303 104/1/303
f 523/1/304 522/1/304 103/1/304
f 522/1/331 523/1/331 102/1/331
f 523/1/332 101/1/332 125/1/332
f 523/1/333 524/1/333 126/1/333
f 524/1/334 125/1/334 127/1/334
f 524/1/335 521/1/335 128/1/335
f 526/1/336 525/1/336 155/1/336
f 525/1/337 526/1/337 130/1/337
f 526/1/291 129/1/291 133/1/291
f 527/1/338 134/1/338 130/1/338
f 528/1/339 527/1/339 133/1/339
f 527/1/340 528/1/340 158/1/340
f 525/1/341 528/1/341 157/1/341
f 528/1/342 525/1/342 156/1/342
f 530/1/343 529/1/343 53/1/343
f 529/1/55 530/1/55 58/1/55
f 531/1/99 530/1/99 57/1/99
f 530/1/100 531/1/100 50/1/100
f 532/1/344 531/1/344 49/1/344
f 531/1/345 532/1/345 46/1/345
f 532/1/60 45/1/60 53/1/60
f 529/1/103 54/1/103 46/1/103
f 534/1/346 533/1/346 91/1/346
f 533/1/347 534/1/347 70/1/347
f 534/1/348 69/1/348 67/1/348
f 534/1/349 535/1/349 68/1/349
f 535/1/350 67/1/350 93/1/350
f 536/1/351 94/1/351 68/1/351
f 536/1/352 93/1/352 91/1/352
f 536/1/353 533/1/353 92/1/353
f 538/1/336 537/1/336 199/1/336
f 537/1/337 538/1/337 210/1/337
f 539/1/291 538/1/291 209/1/291
f 538/1/292 539/1/292 214/1/292
f 540/1/354 539/1/354 213/1/354
f 539/1/340 540/1/340 204/1/340
f 540/1/355 203/1/355 199/1/355
f 537/1/296 200/1/296 204/1/296
f 542/1/356 541/1/356 141/1/356
f 542/1/47 152/1/47 142/1/47
f 543/1/357 542/1/357 151/1/357
f 542/1/358 543/1/358 148/1/358
f 543/1/50 147/1/50 131/1/50
f 543/1/359 544/1/359 132/1/359
f 544/1/52 131/1/52 141/1/52
f 541/1/360 142/1/360 132/1/360
f 546/1/63 545/1/63 139/1/63
f 545/1/361 546/1/361 150/1/361
f 546/1/65 149/1/65 151/1/65
f 547/1/66 152/1/66 150/1/66
f 548/1/344 547/1/344 151/1/344
f 547/1/362 548/1/362 142/1/362
f 545/1/363 548/1/363 141/1/363
f 548/1/69 545/1/69 140/1/69
f 550/1/364 549/1/364 73/1/364
f 549/1/365 550/1/365 90/1/365
f 551/1/366 550/1/366 89/1/366
f 550/1/367 551/1/367 82/1/367
f 552/1/368 551/1/368 81/1/368
f 551/1/369 552/1/369 76/1/369
f 552/1/370 75/1/370 73/1/370
f 549/1/371 74/1/371 76/1/371
f 554/1/372 553/1/372 211/1/372
f 553/1/373 554/1/373 202/1/373
f 554/1/374 201/1/374 203/1/374
f 554/1/375 555/1/375 204/1/375
f 556/1/376 555/1/376 203/1/376
f 555/1/377 556/1/377 214/1/377
f 553/1/378 556/1/378 213/1/378
f 553/1/379 212/1/379 214/1/379
f 558/1/380 557/1/380 249/1/380
f 557/1/381 558/1/381 230/1/381
f 558/1/378 229/1/378 233/1/378
f 558/1/382 559/1/382 234/1/382
f 560/1/383 559/1/383 233/1/383
f 559/1/373 560/1/373 254/1/373
f 557/1/374 560/1/374 253/1/374
f 557/1/384 250/1/384 254/1/384
f 562/1/1 561/1/1 207/1/1
f 561/1/2 562/1/2 224/1/2
f 562/1/285 223/1/285 209/1/285
f 562/1/25 563/1/25 210/1/25
f 564/1/5 563/1/5 209/1/5
f 563/1/106 564/1/106 200/1/106
f 561/1/7 564/1/7 199/1/7
f 561/1/29 208/1/29 200/1/29
f 566/1/385 565/1/385 235/1/385
f 565/1/47 566/1/47 256/1/47
f 567/1/357 566/1/357 255/1/357
f 566/1/49 567/1/49 254/1/49
f 568/1/287 567/1/287 253/1/287
f 567/1/51 568/1/51 234/1/51
f 568/1/52 233/1/52 235/1/52
f 565/1/53 236/1/53 234/1/53
f 570/1/38 569/1/38 145/1/38
f 569/1/39 570/1/39 136/1/39
f 570/1/40 135/1/40 137/1/40
f 571/1/386 138/1/386 136/1/386
f 572/1/42 571/1/42 137/1/42
f 571/1/43 572/1/43 160/1/43
f 569/1/387 572/1/387 159/1/387
f 572/1/45 569/1/45 146/1/45
f 574/1/63 573/1/63 13/1/63
f 573/1/388 574/1/388 18/1/388
f 574/1/65 17/1/65 9/1/65
f 574/1/100 575/1/100 10/1/100
f 576/1/344 575/1/344 9/1/344
f 575/1/59 576/1/59 2/1/59
f 576/1/60 1/1/60 13/1/60
f 576/1/389 573/1/389 14/1/389
f 577/1/336 39/1/336 43/1/336
f 577/1/337 578/1/337 44/1/337
f 578/1/390 43/1/390 37/1/390
f 578/1/292 579/1/292 38/1/292
f 580/1/354 579/1/354 37/1/354
f 579/1/294 580/1/294 36/1/294
f 580/1/355 35/1/355 39/1/355
f 577/1/296 40/1/296 36/1/296
f 582/1/356 581/1/356 215/1/356
f 581/1/47 582/1/47 196/1/47
f 582/1/286 195/1/286 201/1/286
f 582/1/310 583/1/310 202/1/310
f 584/1/391 583/1/391 201/1/391
f 583/1/51 584/1/51 212/1/51
f 581/1/52 584/1/52 211/1/52
f 581/1/288 216/1/288 212/1/288
f 586/1/392 585/1/392 15/1/392
f 585/1/337 586/1/337 20/1/337
f 587/1/390 586/1/390 19/1/390
f 587/1/393 12/1/393 20/1/393
f 588/1/293 587/1/293 11/1/293
f 587/1/394 588/1/394 8/1/394
f 588/1/395 7/1/395 15/1/395
f 588/1/296 585/1/296 16/1/296
f 590/1/376 589/1/376 157/1/376
f 589/1/377 590/1/377 134/1/377
f 591/1/396 590/1/396 133/1/396
f 590/1/379 591/1/379 132/1/379
f 592/1/397 591/1/397 131/1/397
f 591/1/373 592/1/373 148/1/373
f 592/1/374 147/1/374 157/1/374
f 589/1/398 158/1/398 148/1/398
f 594/1/13 593/1/13 29/1/13
f 593/1/14 594/1/14 32/1/14
f 595/1/399 594/1/399 31/1/399
f 594/1/16 595/1/16 26/1/16
f 596/1/72 595/1/72 25/1/72
f 596/1/10 22/1/10 26/1/10
f 596/1/11 21/1/11 29/1/11
f 593/1/12 30/1/12 22/1/12
f 598/1/1 597/1/1 47/1/1
f 597/1/23 598/1/23 52/1/23
f 599/1/285 598/1/285 51/1/285
f 599/1/25 44/1/25 52/1/25
f 600/1/26 599/1/26 43/1/26
f 599/1/106 600/1/106 40/1/106
f 600/1/28 39/1/28 47/1/28
f 600/1/400 597/1/400 48/1/400
f 602/1/327 601/1/327 243/1/327
f 601/1/39 602/1/39 238/1/39
f 602/1/40 237/1/40 225/1/40
f 603/1/329 226/1/329 238/1/329
f 604/1/401 603/1/401 225/1/401
f 603/1/402 604/1/402 246/1/402
f 601/1/44 604/1/44 245/1/44
f 604/1/330 601/1/330 244/1/330
f 606/1/70 605/1/70 237/1/70
f 605/1/14 606/1/14 244/1/14
f 606/1/15 243/1/15 247/1/15
f 607/1/16 248/1/16 244/1/16
f 608/1/403 607/1/403 247/1/403
f 607/1/10 608/1/10 240/1/10
f 605/1/20 608/1/20 239/1/20
f 608/1/404 605/1/404 238/1/404
f 610/1/30 609/1/30 169/1/30
f 609/1/31 610/1/31 178/1/31
f 610/1/405 177/1/405 181/1/405
f 611/1/33 182/1/33 178/1/33
f 611/1/406 181/1/406 171/1/406
f 611/1/35 612/1/35 172/1/35
f 609/1/36 612/1/36 171/1/36
f 612/1/37 609/1/37 170/1/37
f 614/1/38 613/1/38 55/1/38
f 613/1/39 614/1/39 60/1/39
f 615/1/40 614/1/40 59/1/40
f 614/1/41 615/1/41 52/1/41
f 616/1/42 615/1/42 51/1/42
f 615/1/43 616/1/43 48/1/43
f 613/1/44 616/1/44 47/1/44
f 613/1/45 56/1/45 48/1/45
f 618/1/407 617/1/407 83/1/407
f 618/1/277 66/1/277 84/1/277
f 618/1/408 65/1/408 77/1/408
f 619/1/279 78/1/279 66/1/279
f 619/1/280 77/1/280 85/1/280
f 620/1/281 86/1/281 78/1/281
f 620/1/282 85/1/282 83/1/282
f 620/1/283 617/1/283 84/1/283
f 622/1/376 621/1/376 187/1/376
f 622/1/377 166/1/377 188/1/377
f 623/1/378 622/1/378 165/1/378
f 622/1/382 623/1/382 164/1/382
f 624/1/383 623/1/383 163/1/383
f 623/1/409 624/1/409 186/1/409
f 624/1/374 185/1/374 187/1/374
f 621/1/384 188/1/384 186/1/384
f 626/1/372 625/1/372 33/1/372
f 625/1/410 626/1/410 42/1/410
f 627/1/374 626/1/374 41/1/374
f 626/1/375 627/1/375 36/1/375
f 628/1/376 627/1/376 35/1/376
f 627/1/377 628/1/377 38/1/377
f 625/1/378 628/1/378 37/1/378
f 625/1/379 34/1/379 38/1/379
f 629/1/364 109/1/364 117/1/364
f 629/1/411 630/1/411 118/1/411
f 631/1/412 630/1/412 117/1/412
f 630/1/367 631/1/367 116/1/367
f 632/1/368 631/1/368 115/1/368
f 631/1/369 632/1/369 108/1/369
f 629/1/413 632/1/413 107/1/413
f 629/1/414 110/1/414 108/1/414
f 634/1/415 633/1/415 7/1/415
f 633/1/377 634/1/377 12/1/377
f 634/1/378 11/1/378 5/1/378
f 634/1/379 635/1/379 6/1/379
f 636/1/372 635/1/372 5/1/372
f 635/1/373 636/1/373 4/1/373
f 633/1/416 636/1/416 3/1/416
f 636/1/375 633/1/375 8/1/375
f 638/1/30 637/1/30 21/1/30
f 638/1/417 26/1/417 22/1/417
f 638/1/405 25/1/405 17/1/405
f 639/1/33 18/1/33 26/1/33
f 640/1/299 639/1/299 17/1/299
f 639/1/35 640/1/35 14/1/35
f 637/1/418 640/1/418 13/1/418
f 640/1/37 637/1/37 22/1/37
f 642/1/336 641/1/336 183/1/336
f 641/1/419 642/1/419 162/1/419
f 642/1/291 161/1/291 165/1/291
f 643/1/338 166/1/338 162/1/338
f 644/1/339 643/1/339 165/1/339
f 644/1/340 188/1/340 166/1/340
f 641/1/341 644/1/341 187/1/341
f 644/1/342 641/1/342 184/1/342
f 646/1/74 645/1/74 93/1/74
f 645/1/420 646/1/420 68/1/420
f 646/1/421 67/1/421 71/1/421
f 647/1/77 72/1/77 68/1/77
f 648/1/422 647/1/422 71/1/422
f 647/1/423 648/1/423 96/1/423
f 645/1/424 648/1/424 95/1/424
f 648/1/425 645/1/425 94/1/425
f 650/1/426 649/1/426 105/1/426
f 649/1/320 650/1/320 122/1/320
f 651/1/427 650/1/427 121/1/427
f 650/1/428 651/1/428 124/1/428
f 652/1/323 651/1/323 123/1/323
f 651/1/324 652/1/324 100/1/324
f 652/1/325 99/1/325 105/1/325
f 649/1/326 106/1/326 100/1/326
f 654/1/82 653/1/82 111/1/82
f 653/1/83 654/1/83 120/1/83
f 654/1/84 119/1/84 117/1/84
f 655/1/85 118/1/85 120/1/85
f 656/1/429 655/1/429 117/1/429
f 656/1/87 110/1/87 118/1/87
f 653/1/88 656/1/88 109/1/88
f 653/1/89 112/1/89 110/1/89
f 658/1/430 657/1/430 119/1/430
f 657/1/347 658/1/347 112/1/347
f 659/1/431 658/1/431 111/1/431
f 658/1/432 659/1/432 98/1/432
f 660/1/433 659/1/433 97/1/433
f 659/1/351 660/1/351 114/1/351
f 660/1/352 113/1/352 119/1/352
f 657/1/434 120/1/434 114/1/434
f 258/1/284 191/1/284 175/1/284
f 258/1/23 192/1/23 257/1/23
f 259/1/285 175/1/285 161/1/285
f 258/1/4 162/1/4 176/1/4
f 260/1/435 161/1/435 183/1/435
f 259/1/6 184/1/6 162/1/6
f 260/1/436 191/1/436 257/1/436
f 257/1/8 184/1/8 260/1/8
f 262/1/72 193/1/72 217/1/72
f 261/1/10 218/1/10 194/1/10
f 263/1/11 217/1/11 221/1/11
f 263/1/12 218/1/12 262/1/12
f 264/1/70 221/1/70 205/1/70
f 263/1/14 206/1/14 222/1/14
f 264/1/15 193/1/15 261/1/15
f 264/1/16 194/1/16 206/1/16
f 266/1/13 135/1/13 145/1/13
f 265/1/14 146/1/14 136/1/14
f 266/1/399 153/1/399 267/1/399
f 267/1/18 146/1/18 266/1/18
f 268/1/72 153/1/72 143/1/72
f 267/1/10 144/1/10 154/1/10
f 265/1/11 143/1/11 135/1/11
f 268/1/21 136/1/21 144/1/21
f 270/1/1 245/1/1 225/1/1
f 269/1/437 226/1/437 246/1/437
f 271/1/24 225/1/24 231/1/24
f 271/1/25 226/1/25 270/1/25
f 272/1/5 231/1/5 251/1/5
f 271/1/106 252/1/106 232/1/106
f 269/1/28 251/1/28 245/1/28
f 272/1/29 246/1/29 252/1/29
f 274/1/30 217/1/30 193/1/30
f 273/1/316 194/1/316 218/1/316
f 274/1/438 197/1/438 275/1/438
f 274/1/33 198/1/33 194/1/33
f 276/1/439 197/1/439 219/1/439
f 275/1/35 220/1/35 198/1/35
f 273/1/300 219/1/300 217/1/300
f 276/1/37 218/1/37 220/1/37
f 278/1/327 205/1/327 221/1/327
f 277/1/39 222/1/39 206/1/39
f 279/1/40 221/1/40 223/1/40
f 278/1/41 224/1/41 222/1/41
f 280/1/275 223/1/275 207/1/275
f 279/1/43 208/1/43 224/1/43
f 280/1/44 205/1/44 277/1/44
f 277/1/45 208/1/45 280/1/45
f 282/1/356 1/1/356 9/1/356
f 281/1/47 10/1/47 2/1/47
f 283/1/286 9/1/286 3/1/286
f 282/1/310 4/1/310 10/1/310
f 284/1/50 3/1/50 5/1/50
f 283/1/51 6/1/51 4/1/51
f 281/1/52 5/1/52 1/1/52
f 281/1/288 6/1/288 284/1/288
f 286/1/440 171/1/440 181/1/440
f 285/1/55 182/1/55 172/1/55
f 287/1/99 181/1/99 179/1/99
f 286/1/57 180/1/57 182/1/57
f 288/1/58 179/1/58 167/1/58
f 287/1/345 168/1/345 180/1/345
f 288/1/441 171/1/441 285/1/441
f 285/1/61 168/1/61 288/1/61
f 290/1/30 61/1/30 63/1/30
f 289/1/297 64/1/297 62/1/297
f 290/1/438 57/1/438 291/1/438
f 291/1/33 64/1/33 290/1/33
f 292/1/442 57/1/442 53/1/442
f 291/1/35 54/1/35 58/1/35
f 289/1/300 53/1/300 61/1/300
f 289/1/37 54/1/37 292/1/37
f 294/1/54 227/1/54 241/1/54
f 293/1/361 242/1/361 228/1/361
f 294/1/65 255/1/65 295/1/65
f 295/1/66 242/1/66 294/1/66
f 296/1/67 255/1/67 235/1/67
f 295/1/362 236/1/362 256/1/362
f 293/1/68 235/1/68 227/1/68
f 296/1/69 228/1/69 236/1/69
f 298/1/70 173/1/70 189/1/70
f 297/1/14 190/1/14 174/1/14
f 299/1/15 189/1/15 177/1/15
f 299/1/71 190/1/71 298/1/71
f 300/1/72 177/1/72 169/1/72
f 300/1/10 178/1/10 299/1/10
f 300/1/11 173/1/11 297/1/11
f 300/1/73 174/1/73 170/1/73
f 302/1/74 113/1/74 97/1/74
f 301/1/443 98/1/443 114/1/443
f 303/1/444 97/1/444 103/1/444
f 303/1/77 98/1/77 302/1/77
f 304/1/78 103/1/78 127/1/78
f 303/1/423 128/1/423 104/1/423
f 304/1/80 113/1/80 301/1/80
f 301/1/425 128/1/425 304/1/425
f 305/1/82 91/1/82 306/1/82
f 306/1/445 70/1/445 305/1/445
f 307/1/446 91/1/446 89/1/446
f 306/1/85 90/1/85 92/1/85
f 308/1/86 89/1/86 73/1/86
f 308/1/87 90/1/87 307/1/87
f 308/1/88 69/1/88 305/1/88
f 305/1/89 74/1/89 308/1/89
f 310/1/90 107/1/90 115/1/90
f 310/1/447 108/1/447 309/1/447
f 310/1/92 121/1/92 311/1/92
f 311/1/93 116/1/93 310/1/93
f 312/1/94 121/1/94 105/1/94
f 311/1/95 106/1/95 122/1/95
f 309/1/448 105/1/448 107/1/448
f 309/1/97 106/1/97 312/1/97
f 314/1/449 219/1/449 197/1/449
f 313/1/388 198/1/388 220/1/388
f 315/1/99 197/1/99 195/1/99
f 314/1/100 196/1/100 198/1/100
f 316/1/344 195/1/344 215/1/344
f 315/1/59 216/1/59 196/1/59
f 316/1/60 219/1/60 313/1/60
f 313/1/103 216/1/103 316/1/103
f 318/1/1 23/1/1 27/1/1
f 317/1/23 28/1/23 24/1/23
f 318/1/24 19/1/24 319/1/24
f 319/1/25 28/1/25 318/1/25
f 320/1/435 19/1/435 15/1/435
f 319/1/106 16/1/106 20/1/106
f 317/1/28 15/1/28 23/1/28
f 320/1/29 24/1/29 16/1/29
f 322/1/107 65/1/107 71/1/107
f 322/1/147 66/1/147 321/1/147
f 322/1/148 67/1/148 323/1/148
f 322/1/110 68/1/110 72/1/110
f 323/1/450 69/1/450 324/1/450
f 324/1/150 68/1/150 323/1/150
f 325/1/113 69/1/113 73/1/113
f 324/1/114 74/1/114 70/1/114
f 326/1/115 73/1/115 75/1/115
f 326/1/116 74/1/116 325/1/116
f 327/1/117 75/1/117 79/1/117
f 327/1/118 76/1/118 326/1/118
f 327/1/451 77/1/451 328/1/451
f 327/1/120 78/1/120 80/1/120
f 328/1/452 65/1/452 321/1/452
f 328/1/122 66/1/122 78/1/122
f 329/1/123 85/1/123 330/1/123
f 329/1/453 86/1/453 82/1/453
f 330/1/125 87/1/125 331/1/125
f 330/1/126 88/1/126 86/1/126
f 329/1/127 87/1/127 81/1/127
f 329/1/128 88/1/128 331/1/128
f 333/1/129 91/1/129 83/1/129
f 333/1/454 92/1/454 332/1/454
f 333/1/131 89/1/131 334/1/131
f 333/1/132 90/1/132 84/1/132
f 334/1/164 91/1/164 332/1/164
f 334/1/134 92/1/134 90/1/134
f 335/1/455 91/1/455 336/1/455
f 335/1/136 92/1/136 84/1/136
f 336/1/137 93/1/137 337/1/137
f 336/1/138 94/1/138 92/1/138
f 335/1/139 93/1/139 83/1/139
f 335/1/140 94/1/140 337/1/140
f 339/1/141 83/1/141 93/1/141
f 338/1/142 94/1/142 84/1/142
f 339/1/143 95/1/143 340/1/143
f 339/1/144 96/1/144 94/1/144
f 338/1/145 95/1/145 83/1/145
f 338/1/146 96/1/146 340/1/146
f 342/1/107 101/1/107 103/1/107
f 341/1/108 104/1/108 102/1/108
f 343/1/456 103/1/456 97/1/456
f 342/1/110 98/1/110 104/1/110
f 344/1/457 97/1/457 111/1/457
f 344/1/150 98/1/150 343/1/150
f 345/1/113 111/1/113 109/1/113
f 344/1/114 110/1/114 112/1/114
f 345/1/152 107/1/152 346/1/152
f 345/1/116 108/1/116 110/1/116
f 347/1/153 107/1/153 105/1/153
f 347/1/118 108/1/118 346/1/118
f 348/1/451 105/1/451 99/1/451
f 347/1/120 100/1/120 106/1/120
f 341/1/155 99/1/155 101/1/155
f 348/1/122 102/1/122 100/1/122
f 349/1/458 115/1/458 350/1/458
f 349/1/157 116/1/157 114/1/157
f 350/1/158 117/1/158 351/1/158
f 350/1/459 118/1/459 116/1/459
f 349/1/460 117/1/460 113/1/460
f 349/1/161 118/1/161 351/1/161
f 353/1/162 113/1/162 117/1/162
f 353/1/461 114/1/461 352/1/461
f 353/1/462 119/1/462 354/1/462
f 353/1/134 120/1/134 118/1/134
f 352/1/137 119/1/137 113/1/137
f 352/1/166 120/1/166 354/1/166
f 356/1/463 115/1/463 113/1/463
f 356/1/464 116/1/464 355/1/464
f 356/1/169 121/1/169 357/1/169
f 356/1/465 122/1/465 114/1/465
f 357/1/127 115/1/127 355/1/127
f 357/1/128 116/1/128 122/1/128
f 358/1/466 123/1/466 359/1/466
f 358/1/467 124/1/467 114/1/467
f 360/1/125 123/1/125 121/1/125
f 360/1/126 124/1/126 359/1/126
f 358/1/468 121/1/468 113/1/468
f 358/1/175 122/1/175 360/1/175
f 361/1/469 125/1/469 362/1/469
f 361/1/140 126/1/140 114/1/140
f 363/1/470 125/1/470 123/1/470
f 363/1/178 126/1/178 362/1/178
f 361/1/471 123/1/471 113/1/471
f 361/1/472 124/1/472 363/1/472
f 364/1/473 113/1/473 365/1/473
f 364/1/181 114/1/181 126/1/181
f 365/1/143 127/1/143 366/1/143
f 365/1/144 128/1/144 114/1/144
f 364/1/145 127/1/145 125/1/145
f 364/1/183 128/1/183 366/1/183
f 368/1/474 131/1/474 133/1/474
f 368/1/185 132/1/185 367/1/185
f 368/1/475 129/1/475 369/1/475
f 368/1/187 130/1/187 134/1/187
f 370/1/244 129/1/244 137/1/244
f 370/1/189 130/1/189 369/1/189
f 370/1/269 135/1/269 371/1/269
f 370/1/191 136/1/191 138/1/191
f 372/1/192 135/1/192 143/1/192
f 372/1/193 136/1/193 371/1/193
f 372/1/476 139/1/476 373/1/476
f 372/1/195 140/1/195 144/1/195
f 374/1/272 139/1/272 141/1/272
f 374/1/197 140/1/197 373/1/197
f 374/1/198 131/1/198 367/1/198
f 374/1/199 132/1/199 142/1/199
f 376/1/200 147/1/200 151/1/200
f 376/1/201 148/1/201 375/1/201
f 376/1/477 149/1/477 377/1/477
f 376/1/203 150/1/203 152/1/203
f 378/1/273 149/1/273 153/1/273
f 378/1/205 150/1/205 377/1/205
f 378/1/206 145/1/206 379/1/206
f 378/1/207 146/1/207 154/1/207
f 380/1/253 145/1/253 159/1/253
f 380/1/209 146/1/209 379/1/209
f 380/1/478 155/1/478 381/1/478
f 380/1/211 156/1/211 160/1/211
f 382/1/254 155/1/254 157/1/254
f 382/1/213 156/1/213 381/1/213
f 382/1/479 147/1/479 375/1/479
f 382/1/215 148/1/215 158/1/215
f 383/1/206 55/1/206 384/1/206
f 384/1/207 64/1/207 383/1/207
f 385/1/480 55/1/480 47/1/480
f 384/1/209 48/1/209 56/1/209
f 386/1/481 47/1/481 39/1/481
f 386/1/219 48/1/219 385/1/219
f 386/1/482 35/1/482 387/1/482
f 386/1/221 36/1/221 40/1/221
f 388/1/222 35/1/222 41/1/222
f 388/1/215 36/1/215 387/1/215
f 388/1/200 49/1/200 389/1/200
f 388/1/201 50/1/201 42/1/201
f 390/1/266 49/1/266 57/1/266
f 390/1/225 50/1/225 389/1/225
f 390/1/226 63/1/226 383/1/226
f 383/1/227 58/1/227 390/1/227
f 391/1/228 33/1/228 392/1/228
f 391/1/229 34/1/229 44/1/229
f 392/1/262 37/1/262 393/1/262
f 392/1/263 38/1/263 34/1/263
f 391/1/231 37/1/231 43/1/231
f 391/1/232 38/1/232 393/1/232
f 395/1/245 59/1/245 61/1/245
f 394/1/193 62/1/193 60/1/193
f 396/1/233 61/1/233 53/1/233
f 395/1/248 54/1/248 62/1/248
f 396/1/271 45/1/271 397/1/271
f 396/1/235 46/1/235 54/1/235
f 398/1/198 45/1/198 33/1/198
f 398/1/199 46/1/199 397/1/199
f 399/1/483 33/1/483 43/1/483
f 399/1/238 34/1/238 398/1/238
f 399/1/268 51/1/268 400/1/268
f 399/1/240 52/1/240 44/1/240
f 400/1/269 59/1/269 394/1/269
f 400/1/191 60/1/191 52/1/191
f 402/1/236 167/1/236 163/1/236
f 402/1/242 168/1/242 401/1/242
f 403/1/243 163/1/243 165/1/243
f 403/1/185 164/1/185 402/1/185
f 403/1/186 161/1/186 404/1/186
f 403/1/187 162/1/187 166/1/187
f 405/1/244 161/1/244 175/1/244
f 405/1/189 162/1/189 404/1/189
f 405/1/190 173/1/190 406/1/190
f 405/1/191 174/1/191 176/1/191
f 406/1/484 169/1/484 407/1/484
f 406/1/193 170/1/193 174/1/193
f 408/1/247 169/1/247 171/1/247
f 408/1/248 170/1/248 407/1/248
f 408/1/249 167/1/249 401/1/249
f 408/1/235 168/1/235 172/1/235
f 410/1/250 179/1/250 181/1/250
f 410/1/225 180/1/225 409/1/225
f 410/1/251 177/1/251 411/1/251
f 410/1/227 178/1/227 182/1/227
f 412/1/216 177/1/216 189/1/216
f 412/1/485 178/1/485 411/1/485
f 413/1/253 189/1/253 191/1/253
f 413/1/209 190/1/209 412/1/209
f 413/1/210 183/1/210 414/1/210
f 413/1/211 184/1/211 192/1/211
f 415/1/254 183/1/254 187/1/254
f 415/1/213 184/1/213 414/1/213
f 415/1/255 185/1/255 416/1/255
f 415/1/215 186/1/215 188/1/215
f 416/1/256 179/1/256 409/1/256
f 416/1/257 180/1/257 186/1/257
f 418/1/266 195/1/266 197/1/266
f 418/1/225 196/1/225 417/1/225
f 418/1/226 193/1/226 419/1/226
f 418/1/227 194/1/227 198/1/227
f 419/1/206 205/1/206 420/1/206
f 420/1/207 194/1/207 419/1/207
f 421/1/480 205/1/480 207/1/480
f 420/1/209 208/1/209 206/1/209
f 422/1/481 207/1/481 199/1/481
f 422/1/219 208/1/219 421/1/219
f 423/1/482 199/1/482 203/1/482
f 422/1/221 204/1/221 200/1/221
f 424/1/222 203/1/222 201/1/222
f 423/1/215 202/1/215 204/1/215
f 424/1/200 195/1/200 417/1/200
f 417/1/201 202/1/201 424/1/201
f 426/1/158 81/1/158 89/1/158
f 426/1/459 82/1/459 425/1/459
f 426/1/258 83/1/258 427/1/258
f 426/1/259 84/1/259 90/1/259
f 427/1/177 85/1/177 428/1/177
f 427/1/178 86/1/178 84/1/178
f 428/1/486 81/1/486 425/1/486
f 428/1/487 82/1/487 86/1/487
f 429/1/198 211/1/198 430/1/198
f 429/1/199 212/1/199 216/1/199
f 431/1/262 211/1/262 213/1/262
f 430/1/185 214/1/185 212/1/185
f 432/1/231 213/1/231 209/1/231
f 432/1/232 214/1/232 431/1/232
f 432/1/268 223/1/268 433/1/268
f 432/1/240 224/1/240 210/1/240
f 433/1/269 221/1/269 434/1/269
f 434/1/270 224/1/270 433/1/270
f 435/1/245 221/1/245 217/1/245
f 434/1/193 218/1/193 222/1/193
f 436/1/233 217/1/233 219/1/233
f 436/1/248 218/1/248 435/1/248
f 429/1/271 219/1/271 215/1/271
f 436/1/235 216/1/235 220/1/235
f 437/1/224 17/1/224 438/1/224
f 437/1/225 18/1/225 10/1/225
f 438/1/251 25/1/251 439/1/251
f 438/1/227 26/1/227 18/1/227
f 440/1/206 25/1/206 31/1/206
f 439/1/207 32/1/207 26/1/207
f 440/1/208 23/1/208 441/1/208
f 440/1/217 24/1/217 32/1/217
f 442/1/218 23/1/218 15/1/218
f 442/1/219 24/1/219 441/1/219
f 442/1/220 7/1/220 443/1/220
f 442/1/221 8/1/221 16/1/221
f 443/1/479 3/1/479 444/1/479
f 443/1/223 4/1/223 8/1/223
f 444/1/256 9/1/256 437/1/256
f 437/1/201 4/1/201 444/1/201
f 446/1/231 11/1/231 19/1/231
f 446/1/232 12/1/232 445/1/232
f 446/1/268 27/1/268 447/1/268
f 446/1/240 28/1/240 20/1/240
f 448/1/269 27/1/269 29/1/269
f 448/1/191 28/1/191 447/1/191
f 448/1/245 21/1/245 449/1/245
f 448/1/193 22/1/193 30/1/193
f 450/1/247 21/1/247 13/1/247
f 450/1/248 22/1/248 449/1/248
f 451/1/234 13/1/234 1/1/234
f 451/1/197 14/1/197 450/1/197
f 451/1/236 5/1/236 452/1/236
f 452/1/199 2/1/199 451/1/199
f 445/1/230 5/1/230 11/1/230
f 452/1/263 12/1/263 6/1/263
f 454/1/474 233/1/474 229/1/474
f 454/1/185 234/1/185 453/1/185
f 454/1/264 231/1/264 455/1/264
f 454/1/232 232/1/232 230/1/232
f 456/1/265 231/1/265 225/1/265
f 455/1/240 226/1/240 232/1/240
f 456/1/190 237/1/190 457/1/190
f 456/1/191 238/1/191 226/1/191
f 458/1/484 237/1/484 239/1/484
f 458/1/193 238/1/193 457/1/193
f 458/1/194 227/1/194 459/1/194
f 458/1/195 228/1/195 240/1/195
f 460/1/272 227/1/272 235/1/272
f 460/1/197 228/1/197 459/1/197
f 460/1/236 233/1/236 453/1/236
f 460/1/199 234/1/199 236/1/199
f 462/1/253 243/1/253 245/1/253
f 462/1/209 244/1/209 461/1/209
f 463/1/218 245/1/218 251/1/218
f 463/1/219 246/1/219 462/1/219
f 463/1/488 249/1/488 464/1/488
f 464/1/213 252/1/213 463/1/213
f 464/1/255 253/1/255 465/1/255
f 464/1/215 254/1/215 250/1/215
f 466/1/200 253/1/200 255/1/200
f 466/1/201 254/1/201 465/1/201
f 466/1/202 241/1/202 467/1/202
f 466/1/203 242/1/203 256/1/203
f 468/1/273 241/1/273 247/1/273
f 468/1/205 242/1/205 467/1/205
f 468/1/206 243/1/206 461/1/206
f 468/1/207 244/1/207 248/1/207
f 470/1/274 31/1/274 29/1/274
f 469/1/39 30/1/39 32/1/39
f 470/1/489 27/1/489 471/1/489
f 470/1/41 28/1/41 30/1/41
f 472/1/42 27/1/42 23/1/42
f 471/1/43 24/1/43 28/1/43
f 472/1/490 31/1/490 469/1/490
f 469/1/45 24/1/45 472/1/45
f 474/1/491 125/1/491 101/1/491
f 473/1/277 102/1/277 126/1/277
f 475/1/408 101/1/408 99/1/408
f 475/1/279 102/1/279 474/1/279
f 476/1/492 99/1/492 123/1/492
f 475/1/281 124/1/281 100/1/281
f 473/1/282 123/1/282 125/1/282
f 476/1/283 126/1/283 124/1/283
f 478/1/284 159/1/284 137/1/284
f 478/1/2 160/1/2 477/1/2
f 479/1/285 137/1/285 129/1/285
f 478/1/4 130/1/4 138/1/4
f 480/1/5 129/1/5 155/1/5
f 479/1/6 156/1/6 130/1/6
f 480/1/7 159/1/7 477/1/7
f 477/1/8 156/1/8 480/1/8
f 482/1/46 167/1/46 179/1/46
f 481/1/47 180/1/47 168/1/47
f 483/1/286 179/1/286 185/1/286
f 482/1/49 186/1/49 180/1/49
f 484/1/287 185/1/287 163/1/287
f 483/1/51 164/1/51 186/1/51
f 484/1/52 167/1/52 481/1/52
f 484/1/288 168/1/288 164/1/288
f 486/1/336 251/1/336 231/1/336
f 485/1/337 232/1/337 252/1/337
f 486/1/493 229/1/493 487/1/493
f 487/1/292 232/1/292 486/1/292
f 488/1/354 229/1/354 249/1/354
f 487/1/494 250/1/494 230/1/494
f 485/1/395 249/1/395 251/1/395
f 488/1/296 252/1/296 250/1/296
f 490/1/30 239/1/30 247/1/30
f 489/1/316 248/1/316 240/1/316
f 491/1/32 247/1/32 241/1/32
f 490/1/298 242/1/298 248/1/298
f 492/1/299 241/1/299 227/1/299
f 491/1/318 228/1/318 242/1/318
f 492/1/300 239/1/300 489/1/300
f 489/1/301 228/1/301 492/1/301
f 494/1/495 95/1/495 71/1/495
f 493/1/303 72/1/303 96/1/303
f 495/1/304 71/1/304 65/1/304
f 494/1/305 66/1/305 72/1/305
f 496/1/306 65/1/306 83/1/306
f 495/1/307 84/1/307 66/1/307
f 493/1/308 83/1/308 95/1/308
f 493/1/309 84/1/309 496/1/309
f 498/1/356 45/1/356 49/1/356
f 497/1/47 50/1/47 46/1/47
f 498/1/286 41/1/286 499/1/286
f 498/1/310 42/1/310 50/1/310
f 500/1/287 41/1/287 33/1/287
f 499/1/51 34/1/51 42/1/51
f 500/1/52 45/1/52 497/1/52
f 497/1/53 34/1/53 500/1/53
f 501/1/311 81/1/311 502/1/311
f 501/1/91 82/1/91 76/1/91
f 503/1/92 81/1/92 87/1/92
f 503/1/93 82/1/93 502/1/93
f 504/1/496 87/1/496 79/1/496
f 503/1/95 80/1/95 88/1/95
f 501/1/313 79/1/313 75/1/313
f 504/1/97 76/1/97 80/1/97
f 506/1/19 63/1/19 61/1/19
f 505/1/10 62/1/10 64/1/10
f 506/1/11 59/1/11 507/1/11
f 507/1/12 62/1/12 506/1/12
f 508/1/13 59/1/13 55/1/13
f 507/1/14 56/1/14 60/1/14
f 505/1/15 55/1/15 63/1/15
f 508/1/71 64/1/71 56/1/71
f 510/1/315 143/1/315 153/1/315
f 509/1/316 154/1/316 144/1/316
f 511/1/32 153/1/32 149/1/32
f 510/1/298 150/1/298 154/1/298
f 512/1/299 149/1/299 139/1/299
f 511/1/318 140/1/318 150/1/318
f 512/1/497 143/1/497 509/1/497
f 509/1/301 140/1/301 512/1/301
f 514/1/319 79/1/319 87/1/319
f 513/1/320 88/1/320 80/1/320
f 515/1/498 87/1/498 85/1/498
f 514/1/322 86/1/322 88/1/322
f 516/1/323 85/1/323 77/1/323
f 515/1/324 78/1/324 86/1/324
f 516/1/499 79/1/499 513/1/499
f 513/1/326 78/1/326 516/1/326
f 518/1/327 189/1/327 173/1/327
f 517/1/39 174/1/39 190/1/39
f 518/1/40 175/1/40 519/1/40
f 519/1/329 174/1/329 518/1/329
f 520/1/401 175/1/401 191/1/401
f 519/1/43 192/1/43 176/1/43
f 517/1/44 191/1/44 189/1/44
f 520/1/330 190/1/330 192/1/330
f 522/1/500 127/1/500 103/1/500
f 521/1/501 104/1/501 128/1/501
f 523/1/502 103/1/502 101/1/502
f 522/1/331 102/1/331 104/1/331
f 523/1/503 125/1/503 524/1/503
f 523/1/307 126/1/307 102/1/307
f 524/1/308 127/1/308 521/1/308
f 524/1/335 128/1/335 126/1/335
f 526/1/336 155/1/336 129/1/336
f 525/1/504 130/1/504 156/1/504
f 526/1/505 133/1/505 527/1/505
f 527/1/338 130/1/338 526/1/338
f 528/1/339 133/1/339 157/1/339
f 527/1/340 158/1/340 134/1/340
f 525/1/395 157/1/395 155/1/395
f 528/1/342 156/1/342 158/1/342
f 530/1/343 53/1/343 57/1/343
f 529/1/388 58/1/388 54/1/388
f 531/1/99 57/1/99 49/1/99
f 530/1/100 50/1/100 58/1/100
f 532/1/344 49/1/344 45/1/344
f 531/1/59 46/1/59 50/1/59
f 532/1/60 53/1/60 529/1/60
f 529/1/103 46/1/103 532/1/103
f 534/1/346 91/1/346 69/1/346
f 533/1/347 70/1/347 92/1/347
f 534/1/348 67/1/348 535/1/348
f 534/1/349 68/1/349 70/1/349
f 535/1/350 93/1/350 536/1/350
f 536/1/351 68/1/351 535/1/351
f 536/1/506 91/1/506 533/1/506
f 536/1/353 92/1/353 94/1/353
f 538/1/507 199/1/507 209/1/507
f 537/1/337 210/1/337 200/1/337
f 539/1/390 209/1/390 213/1/390
f 538/1/292 214/1/292 210/1/292
f 540/1/354 213/1/354 203/1/354
f 539/1/394 204/1/394 214/1/394
f 540/1/395 199/1/395 537/1/395
f 537/1/296 204/1/296 540/1/296
f 542/1/46 141/1/46 151/1/46
f 542/1/47 142/1/47 541/1/47
f 543/1/286 151/1/286 147/1/286
f 542/1/358 148/1/358 152/1/358
f 543/1/50 131/1/50 544/1/50
f 543/1/51 132/1/51 148/1/51
f 544/1/508 141/1/508 541/1/508
f 541/1/360 132/1/360 544/1/360
f 546/1/63 139/1/63 149/1/63
f 545/1/388 150/1/388 140/1/388
f 546/1/509 151/1/509 547/1/509
f 547/1/66 150/1/66 546/1/66
f 548/1/67 151/1/67 141/1/67
f 547/1/362 142/1/362 152/1/362
f 545/1/68 141/1/68 139/1/68
f 548/1/69 140/1/69 142/1/69
f 550/1/364 73/1/364 89/1/364
f 549/1/365 90/1/365 74/1/365
f 551/1/366 89/1/366 81/1/366
f 550/1/367 82/1/367 90/1/367
f 552/1/368 81/1/368 75/1/368
f 551/1/369 76/1/369 82/1/369
f 552/1/370 73/1/370 549/1/370
f 549/1/371 76/1/371 552/1/371
f 554/1/383 211/1/383 201/1/383
f 553/1/373 202/1/373 212/1/373
f 554/1/374 203/1/374 555/1/374
f 554/1/375 204/1/375 202/1/375
f 556/1/415 203/1/415 213/1/415
f 555/1/377 214/1/377 204/1/377
f 553/1/378 213/1/378 211/1/378
f 553/1/379 214/1/379 556/1/379
f 558/1/415 249/1/415 229/1/415
f 557/1/381 230/1/381 250/1/381
f 558/1/378 233/1/378 559/1/378
f 558/1/382 234/1/382 230/1/382
f 560/1/383 233/1/383 253/1/383
f 559/1/409 254/1/409 234/1/409
f 557/1/374 253/1/374 249/1/374
f 557/1/384 254/1/384 560/1/384
f 562/1/1 207/1/1 223/1/1
f 561/1/104 224/1/104 208/1/104
f 562/1/285 209/1/285 563/1/285
f 562/1/25 210/1/25 224/1/25
f 564/1/510 209/1/510 199/1/510
f 563/1/106 200/1/106 210/1/106
f 561/1/7 199/1/7 207/1/7
f 561/1/29 200/1/29 564/1/29
f 566/1/46 235/1/46 255/1/46
f 565/1/47 256/1/47 236/1/47
f 567/1/286 255/1/286 253/1/286
f 566/1/310 254/1/310 256/1/310
f 568/1/391 253/1/391 233/1/391
f 567/1/51 234/1/51 254/1/51
f 568/1/508 235/1/508 565/1/508
f 565/1/288 234/1/288 568/1/288
f 570/1/274 145/1/274 135/1/274
f 569/1/39 136/1/39 146/1/39
f 570/1/511 137/1/511 571/1/511
f 571/1/41 136/1/41 570/1/41
f 572/1/42 137/1/42 159/1/42
f 571/1/43 160/1/43 138/1/43
f 569/1/44 159/1/44 145/1/44
f 572/1/512 146/1/512 160/1/512
f 574/1/440 13/1/440 17/1/440
f 573/1/388 18/1/388 14/1/388
f 574/1/56 9/1/56 575/1/56
f 574/1/100 10/1/100 18/1/100
f 576/1/344 9/1/344 1/1/344
f 575/1/345 2/1/345 10/1/345
f 576/1/68 13/1/68 573/1/68
f 576/1/513 14/1/513 2/1/513
f 577/1/289 43/1/289 578/1/289
f 577/1/337 44/1/337 40/1/337
f 578/1/390 37/1/390 579/1/390
f 578/1/292 38/1/292 44/1/292
f 580/1/354 37/1/354 35/1/354
f 579/1/494 36/1/494 38/1/494
f 580/1/395 39/1/395 577/1/395
f 577/1/296 36/1/296 580/1/296
f 582/1/46 215/1/46 195/1/46
f 581/1/47 196/1/47 216/1/47
f 582/1/286 201/1/286 583/1/286
f 582/1/49 202/1/49 196/1/49
f 584/1/287 201/1/287 211/1/287
f 583/1/51 212/1/51 202/1/51
f 581/1/52 211/1/52 215/1/52
f 581/1/53 212/1/53 584/1/53
f 586/1/514 15/1/514 19/1/514
f 585/1/337 20/1/337 16/1/337
f 587/1/291 19/1/291 11/1/291
f 587/1/292 20/1/292 586/1/292
f 588/1/354 11/1/354 7/1/354
f 587/1/294 8/1/294 12/1/294
f 588/1/355 15/1/355 585/1/355
f 588/1/515 16/1/515 8/1/515
f 590/1/376 157/1/376 133/1/376
f 589/1/377 134/1/377 158/1/377
f 591/1/378 133/1/378 131/1/378
f 590/1/516 132/1/516 134/1/516
f 592/1/372 131/1/372 147/1/372
f 591/1/373 148/1/373 132/1/373
f 592/1/517 157/1/517 589/1/517
f 589/1/375 148/1/375 592/1/375
f 594/1/13 29/1/13 31/1/13
f 593/1/14 32/1/14 30/1/14
f 595/1/15 31/1/15 25/1/15
f 594/1/16 26/1/16 32/1/16
f 596/1/19 25/1/19 21/1/19
f 596/1/10 26/1/10 595/1/10
f 596/1/20 29/1/20 593/1/20
f 593/1/12 22/1/12 596/1/12
f 598/1/1 47/1/1 51/1/1
f 597/1/437 52/1/437 48/1/437
f 599/1/285 51/1/285 43/1/285
f 599/1/518 52/1/518 598/1/518
f 600/1/5 43/1/5 39/1/5
f 599/1/106 40/1/106 44/1/106
f 600/1/7 47/1/7 597/1/7
f 600/1/29 48/1/29 40/1/29
f 602/1/327 243/1/327 237/1/327
f 601/1/328 238/1/328 244/1/328
f 602/1/40 225/1/40 603/1/40
f 603/1/329 238/1/329 602/1/329
f 604/1/275 225/1/275 245/1/275
f 603/1/402 246/1/402 226/1/402
f 601/1/44 245/1/44 243/1/44
f 604/1/330 244/1/330 246/1/330
f 606/1/314 237/1/314 243/1/314
f 605/1/14 244/1/14 238/1/14
f 606/1/399 247/1/399 607/1/399
f 607/1/519 244/1/519 606/1/519
f 608/1/72 247/1/72 239/1/72
f 607/1/10 240/1/10 248/1/10
f 605/1/11 239/1/11 237/1/11
f 608/1/12 238/1/12 240/1/12
f 610/1/520 169/1/520 177/1/520
f 609/1/31 178/1/31 170/1/31
f 610/1/438 181/1/438 611/1/438
f 611/1/33 178/1/33 610/1/33
f 611/1/62 171/1/62 612/1/62
f 611/1/521 172/1/521 182/1/521
f 609/1/418 171/1/418 169/1/418
f 612/1/37 170/1/37 172/1/37
f 614/1/274 55/1/274 59/1/274
f 613/1/39 60/1/39 56/1/39
f 615/1/40 59/1/40 51/1/40
f 614/1/41 52/1/41 60/1/41
f 616/1/42 51/1/42 47/1/42
f 615/1/43 48/1/43 52/1/43
f 613/1/44 47/1/44 55/1/44
f 613/1/45 48/1/45 616/1/45
f 618/1/407 83/1/407 65/1/407
f 618/1/277 84/1/277 617/1/277
f 618/1/408 77/1/408 619/1/408
f 619/1/279 66/1/279 618/1/279
f 619/1/492 85/1/492 620/1/492
f 620/1/281 78/1/281 619/1/281
f 620/1/522 83/1/522 617/1/522
f 620/1/283 84/1/283 86/1/283
f 622/1/380 187/1/380 165/1/380
f 622/1/377 188/1/377 621/1/377
f 623/1/378 165/1/378 163/1/378
f 622/1/382 164/1/382 166/1/382
f 624/1/383 163/1/383 185/1/383
f 623/1/373 186/1/373 164/1/373
f 624/1/374 187/1/374 621/1/374
f 621/1/384 186/1/384 624/1/384
f 626/1/372 33/1/372 41/1/372
f 625/1/373 42/1/373 34/1/373
f 627/1/374 41/1/374 35/1/374
f 626/1/375 36/1/375 42/1/375
f 628/1/376 35/1/376 37/1/376
f 627/1/377 38/1/377 36/1/377
f 625/1/378 37/1/378 33/1/378
f 625/1/379 38/1/379 628/1/379
f 629/1/364 117/1/364 630/1/364
f 629/1/411 118/1/411 110/1/411
f 631/1/412 117/1/412 115/1/412
f 630/1/523 116/1/523 118/1/523
f 632/1/524 115/1/524 107/1/524
f 631/1/525 108/1/525 116/1/525
f 629/1/413 107/1/413 109/1/413
f 629/1/371 108/1/371 632/1/371
f 634/1/376 7/1/376 11/1/376
f 633/1/377 12/1/377 8/1/377
f 634/1/526 5/1/526 635/1/526
f 634/1/379 6/1/379 12/1/379
f 636/1/372 5/1/372 3/1/372
f 635/1/373 4/1/373 6/1/373
f 633/1/374 3/1/374 7/1/374
f 636/1/398 8/1/398 4/1/398
f 638/1/30 21/1/30 25/1/30
f 638/1/316 22/1/316 637/1/316
f 638/1/32 17/1/32 639/1/32
f 639/1/33 26/1/33 638/1/33
f 640/1/406 17/1/406 13/1/406
f 639/1/35 14/1/35 18/1/35
f 637/1/418 13/1/418 21/1/418
f 640/1/37 22/1/37 14/1/37
f 642/1/336 183/1/336 161/1/336
f 641/1/504 162/1/504 184/1/504
f 642/1/505 165/1/505 643/1/505
f 643/1/338 162/1/338 642/1/338
f 644/1/354 165/1/354 187/1/354
f 644/1/340 166/1/340 643/1/340
f 641/1/395 187/1/395 183/1/395
f 644/1/342 184/1/342 188/1/342
f 646/1/74 93/1/74 67/1/74
f 645/1/420 68/1/420 94/1/420
f 646/1/444 71/1/444 647/1/444
f 647/1/77 68/1/77 646/1/77
f 648/1/78 71/1/78 95/1/78
f 647/1/79 96/1/79 72/1/79
f 645/1/424 95/1/424 93/1/424
f 648/1/425 94/1/425 96/1/425
f 650/1/527 105/1/527 121/1/527
f 649/1/320 122/1/320 106/1/320
f 651/1/498 121/1/498 123/1/498
f 650/1/322 124/1/322 122/1/322
f 652/1/323 123/1/323 99/1/323
f 651/1/324 100/1/324 124/1/324
f 652/1/528 105/1/528 649/1/528
f 649/1/529 100/1/529 652/1/529
f 654/1/530 111/1/530 119/1/530
f 653/1/83 120/1/83 112/1/83
f 654/1/84 117/1/84 655/1/84
f 655/1/85 120/1/85 654/1/85
f 656/1/86 117/1/86 109/1/86
f 656/1/87 118/1/87 655/1/87
f 653/1/88 109/1/88 111/1/88
f 653/1/89 110/1/89 656/1/89
f 658/1/430 119/1/430 111/1/430
f 657/1/347 112/1/347 120/1/347
f 659/1/531 111/1/531 97/1/531
f 658/1/432 98/1/432 112/1/432
f 660/1/350 97/1/350 113/1/350
f 659/1/351 114/1/351 98/1/351
f 660/1/532 119/1/532 657/1/532
f 657/1/434 114/1/434 660/1/434
