# Blender 5.2.0 LTS
# www.blender.org
mtllib glass rpg rocket body.mtl
o rocket_body
v 0.397761 -0.096421 0.000000
v 0.398961 -0.098021 0.000000
v 0.397761 0.096421 -0.000000
v 0.398961 0.098021 -0.000000
v 0.397761 0.000000 0.096421
v 0.398961 0.000000 0.098021
v 0.397761 0.068180 0.068180
v 0.398961 0.069311 0.069311
v 0.397761 -0.068180 0.068180
v 0.398961 -0.069311 0.069311
v 0.397761 -0.000000 -0.096421
v 0.398961 -0.000000 -0.098021
v 0.397761 -0.068180 -0.068180
v 0.398961 -0.069311 -0.069311
v 0.397761 0.068180 -0.068180
v 0.398961 0.069311 -0.069311
v -0.397761 -0.068180 0.068180
v -0.397761 -0.069594 0.069594
v -0.397761 -0.096421 0.000000
v -0.397761 -0.098421 0.000000
v -0.397761 0.000000 0.096421
v -0.397761 0.000000 0.098421
v -0.397761 -0.068180 -0.068180
v -0.397761 -0.069594 -0.069594
v -0.397761 0.068180 0.068180
v -0.397761 0.069594 0.069594
v -0.397761 -0.000000 -0.096421
v -0.397761 -0.000000 -0.098421
v -0.397761 0.096421 -0.000000
v -0.397761 0.098421 -0.000000
v -0.397761 0.068180 -0.068180
v -0.397761 0.069594 -0.069594
v -0.396761 -0.069270 -0.067963
v 0.397361 -0.069128 -0.067822
v 0.397361 -0.096838 -0.000924
v -0.396761 -0.097038 -0.000924
v 0.398361 -0.000000 -0.096139
v 0.398361 0.067980 -0.067980
v 0.398361 0.096139 -0.000000
v 0.398361 0.067980 0.067980
v 0.398361 0.000000 0.096139
v 0.398361 -0.067980 0.067980
v 0.398361 -0.096139 0.000000
v 0.398361 -0.067980 -0.067980
v -0.396761 -0.097038 0.000924
v 0.397361 -0.096838 0.000924
v 0.397361 -0.069128 0.067822
v -0.396761 -0.069270 0.067963
v -0.396761 -0.000924 -0.097038
v 0.397361 -0.000924 -0.096838
v 0.397361 -0.067822 -0.069128
v -0.396761 -0.067963 -0.069270
v 0.397361 -0.000924 0.096838
v -0.396761 -0.000924 0.097038
v -0.396761 -0.067963 0.069270
v 0.397361 -0.067822 0.069128
v 0.397361 0.069128 -0.067822
v -0.396761 0.069270 -0.067963
v -0.396761 0.097038 -0.000924
v 0.397361 0.096838 -0.000924
v 0.397361 0.096838 0.000924
v -0.396761 0.097038 0.000924
v -0.396761 0.069270 0.067963
v 0.397361 0.069128 0.067822
v 0.397361 0.067822 0.069128
v -0.396761 0.067963 0.069270
v -0.396761 0.000924 0.097038
v 0.397361 0.000924 0.096838
v -0.396761 0.067963 -0.069270
v 0.397361 0.067822 -0.069128
v 0.397361 0.000924 -0.096838
v -0.396761 0.000924 -0.097038
vn -0.7035 0.4063 -0.5831
vn -0.4580 -0.6286 -0.6286
vn 0.4539 -0.6301 -0.6301
vn 0.6629 0.6111 -0.4325
vn -0.6517 0.5363 0.5363
vn -0.4236 0.6405 0.6405
vn 0.4539 -0.8910 -0.0000
vn 0.6629 0.1263 0.7380
vn -0.6517 0.7585 -0.0000
vn -0.7035 -0.1250 0.6996
vn -0.4236 0.9059 -0.0000
vn -0.4580 -0.8890 -0.0000
vn -0.4870 -0.0000 -0.8734
vn 0.4539 -0.0000 -0.8910
vn 0.4539 0.6301 -0.6301
vn -0.4870 0.6176 -0.6176
vn -0.6517 -0.5363 0.5363
vn 0.4539 0.8910 -0.0000
vn -0.4870 0.8734 -0.0000
vn -0.6517 -0.7585 -0.0000
vn -0.4870 0.6176 0.6176
vn -0.6517 -0.5363 -0.5363
vn 0.4539 0.6301 0.6301
vn 0.4539 -0.0000 0.8910
vn -0.4870 -0.0000 0.8734
vn -0.6517 -0.0000 -0.7585
vn 0.4539 -0.6301 0.6301
vn -0.4870 -0.6176 0.6176
vn -0.6517 0.5363 -0.5363
vn -0.4870 -0.8734 -0.0000
vn -0.4870 -0.6176 -0.6176
vn -0.6517 -0.0000 0.7585
vn -0.7035 -0.1250 -0.6996
vn 0.6629 0.1263 -0.7380
vn 0.6629 0.6111 0.4325
vn -0.7035 0.4063 0.5831
vn -0.4236 0.6405 -0.6405
vn -0.4580 -0.6286 0.6286
vn -0.7035 0.6996 -0.1250
vn -0.4580 -0.0000 -0.8890
vn 0.6629 0.7380 0.1263
vn -0.4236 -0.0000 0.9059
vn 0.6629 -0.4326 0.6111
vn -0.7035 -0.5831 0.4063
vn -0.7035 0.6996 0.1250
vn 0.6629 0.7380 -0.1263
vn -0.4236 -0.0000 -0.9059
vn -0.7035 -0.5831 -0.4063
vn -0.4580 -0.0000 0.8890
vn 0.6629 -0.4325 -0.6111
vn -0.7035 -0.4063 -0.5831
vn 0.6629 -0.6111 -0.4325
vn -0.4236 -0.6405 0.6405
vn -0.4580 0.6286 -0.6286
vn -0.4580 0.8890 -0.0000
vn -0.7035 0.1250 0.6996
vn -0.4236 -0.9059 -0.0000
vn 0.6629 -0.1263 0.7380
vn -0.7035 0.1250 -0.6996
vn 0.6629 -0.1263 -0.7380
vn -0.4580 0.6286 0.6286
vn -0.7035 -0.4063 0.5831
vn -0.4236 -0.6405 -0.6405
vn 0.6629 -0.6111 0.4325
vn -0.7035 0.5831 -0.4063
vn 0.6629 0.4326 -0.6111
vn -0.7035 -0.6996 0.1250
vn 0.6629 -0.7380 -0.1263
vn -0.7035 0.5831 0.4063
vn 0.6629 0.4325 0.6111
vn 0.6629 -0.7380 0.1263
vn -0.7035 -0.6996 -0.1250
vt 0.000000 0.000000
s 1
f 33/1/1 23/1/2 13/1/3
f 34/1/4 14/1/5 24/1/6
f 34/1/4 13/1/3 1/1/7
f 35/1/8 2/1/9 14/1/5
f 36/1/10 35/1/8 1/1/7
f 35/1/8 36/1/10 20/1/11
f 36/1/10 19/1/12 23/1/2
f 33/1/1 24/1/6 20/1/11
f 37/1/13 11/1/14 15/1/15
f 37/1/13 38/1/16 16/1/17
f 38/1/16 15/1/15 3/1/18
f 39/1/19 4/1/20 16/1/17
f 40/1/21 39/1/19 3/1/18
f 39/1/19 40/1/21 8/1/22
f 40/1/21 7/1/23 5/1/24
f 41/1/25 6/1/26 8/1/22
f 41/1/25 5/1/24 9/1/27
f 41/1/25 42/1/28 10/1/29
f 42/1/28 9/1/27 1/1/7
f 43/1/30 2/1/9 10/1/29
f 44/1/31 43/1/30 1/1/7
f 43/1/30 44/1/31 14/1/5
f 44/1/31 13/1/3 11/1/14
f 37/1/13 12/1/32 14/1/5
f 45/1/33 19/1/12 1/1/7
f 46/1/34 2/1/9 20/1/11
f 46/1/34 1/1/7 9/1/27
f 47/1/35 10/1/29 2/1/9
f 48/1/36 47/1/35 9/1/27
f 47/1/35 48/1/36 18/1/37
f 48/1/36 17/1/38 19/1/12
f 45/1/33 20/1/11 18/1/37
f 49/1/39 27/1/40 11/1/14
f 50/1/41 12/1/32 28/1/42
f 50/1/41 11/1/14 13/1/3
f 50/1/41 51/1/43 14/1/5
f 52/1/44 51/1/43 13/1/3
f 51/1/43 52/1/44 24/1/6
f 52/1/44 23/1/2 27/1/40
f 52/1/44 49/1/39 28/1/42
f 54/1/45 53/1/46 5/1/24
f 53/1/46 54/1/45 22/1/47
f 55/1/48 54/1/45 21/1/49
f 54/1/45 55/1/48 18/1/37
f 55/1/48 17/1/38 9/1/27
f 56/1/50 10/1/29 18/1/37
f 53/1/46 56/1/50 9/1/27
f 53/1/46 6/1/26 10/1/29
f 58/1/51 57/1/52 15/1/15
f 57/1/52 58/1/51 32/1/53
f 58/1/51 31/1/54 29/1/55
f 59/1/56 30/1/57 32/1/53
f 59/1/56 29/1/55 3/1/18
f 60/1/58 4/1/20 30/1/57
f 60/1/58 3/1/18 15/1/15
f 57/1/52 16/1/17 4/1/20
f 62/1/59 61/1/60 3/1/18
f 61/1/60 62/1/59 30/1/57
f 62/1/59 29/1/55 25/1/61
f 63/1/62 26/1/63 30/1/57
f 63/1/62 25/1/61 7/1/23
f 64/1/64 8/1/22 26/1/63
f 64/1/64 7/1/23 3/1/18
f 61/1/60 4/1/20 8/1/22
f 66/1/65 65/1/66 7/1/23
f 65/1/66 66/1/65 26/1/63
f 66/1/65 25/1/61 21/1/49
f 66/1/65 67/1/67 22/1/47
f 67/1/67 21/1/49 5/1/24
f 68/1/68 6/1/26 22/1/47
f 68/1/68 5/1/24 7/1/23
f 68/1/68 65/1/66 8/1/22
f 69/1/69 31/1/54 15/1/15
f 70/1/70 16/1/17 32/1/53
f 71/1/71 70/1/70 15/1/15
f 71/1/71 12/1/32 16/1/17
f 72/1/72 71/1/71 11/1/14
f 71/1/71 72/1/72 28/1/42
f 69/1/69 72/1/72 27/1/40
f 72/1/72 69/1/69 32/1/53
f 33/1/1 13/1/3 34/1/4
f 34/1/4 24/1/6 33/1/1
f 34/1/4 1/1/7 35/1/8
f 35/1/8 14/1/5 34/1/4
f 36/1/10 1/1/7 19/1/12
f 35/1/8 20/1/11 2/1/9
f 36/1/10 23/1/2 33/1/1
f 33/1/1 20/1/11 36/1/10
f 37/1/13 15/1/15 38/1/16
f 37/1/13 16/1/17 12/1/32
f 38/1/16 3/1/18 39/1/19
f 39/1/19 16/1/17 38/1/16
f 40/1/21 3/1/18 7/1/23
f 39/1/19 8/1/22 4/1/20
f 40/1/21 5/1/24 41/1/25
f 41/1/25 8/1/22 40/1/21
f 41/1/25 9/1/27 42/1/28
f 41/1/25 10/1/29 6/1/26
f 42/1/28 1/1/7 43/1/30
f 43/1/30 10/1/29 42/1/28
f 44/1/31 1/1/7 13/1/3
f 43/1/30 14/1/5 2/1/9
f 44/1/31 11/1/14 37/1/13
f 37/1/13 14/1/5 44/1/31
f 45/1/33 1/1/7 46/1/34
f 46/1/34 20/1/11 45/1/33
f 46/1/34 9/1/27 47/1/35
f 47/1/35 2/1/9 46/1/34
f 48/1/36 9/1/27 17/1/38
f 47/1/35 18/1/37 10/1/29
f 48/1/36 19/1/12 45/1/33
f 45/1/33 18/1/37 48/1/36
f 49/1/39 11/1/14 50/1/41
f 50/1/41 28/1/42 49/1/39
f 50/1/41 13/1/3 51/1/43
f 50/1/41 14/1/5 12/1/32
f 52/1/44 13/1/3 23/1/2
f 51/1/43 24/1/6 14/1/5
f 52/1/44 27/1/40 49/1/39
f 52/1/44 28/1/42 24/1/6
f 54/1/45 5/1/24 21/1/49
f 53/1/46 22/1/47 6/1/26
f 55/1/48 21/1/49 17/1/38
f 54/1/45 18/1/37 22/1/47
f 55/1/48 9/1/27 56/1/50
f 56/1/50 18/1/37 55/1/48
f 53/1/46 9/1/27 5/1/24
f 53/1/46 10/1/29 56/1/50
f 58/1/51 15/1/15 31/1/54
f 57/1/52 32/1/53 16/1/17
f 58/1/51 29/1/55 59/1/56
f 59/1/56 32/1/53 58/1/51
f 59/1/56 3/1/18 60/1/58
f 60/1/58 30/1/57 59/1/56
f 60/1/58 15/1/15 57/1/52
f 57/1/52 4/1/20 60/1/58
f 62/1/59 3/1/18 29/1/55
f 61/1/60 30/1/57 4/1/20
f 62/1/59 25/1/61 63/1/62
f 63/1/62 30/1/57 62/1/59
f 63/1/62 7/1/23 64/1/64
f 64/1/64 26/1/63 63/1/62
f 64/1/64 3/1/18 61/1/60
f 61/1/60 8/1/22 64/1/64
f 66/1/65 7/1/23 25/1/61
f 65/1/66 26/1/63 8/1/22
f 66/1/65 21/1/49 67/1/67
f 66/1/65 22/1/47 26/1/63
f 67/1/67 5/1/24 68/1/68
f 68/1/68 22/1/47 67/1/67
f 68/1/68 7/1/23 65/1/66
f 68/1/68 8/1/22 6/1/26
f 69/1/69 15/1/15 70/1/70
f 70/1/70 32/1/53 69/1/69
f 71/1/71 15/1/15 11/1/14
f 71/1/71 16/1/17 70/1/70
f 72/1/72 11/1/14 27/1/40
f 71/1/71 28/1/42 12/1/32
f 69/1/69 27/1/40 31/1/54
f 72/1/72 32/1/53 28/1/42
