# Blender 5.2.0 LTS
# www.blender.org
mtllib glass scythe handle.mtl
o handle
v 0.382641 1.931223 -0.023092
v 0.381901 1.932927 -0.023832
v 0.428825 1.931223 -0.023092
v 0.429565 1.932927 -0.023832
v 0.382641 1.931223 0.023092
v 0.381901 1.932927 0.023832
v 0.428825 1.931223 0.023092
v 0.429565 1.932927 0.023832
v -0.367529 -1.929687 -0.024453
v -0.368240 -1.931298 -0.025400
v -0.367529 -1.929687 0.024453
v -0.368240 -1.931298 0.025401
v -0.319190 -1.922269 -0.024453
v -0.318028 -1.923593 -0.025400
v -0.319190 -1.922269 0.024453
v -0.318028 -1.923593 0.025401
v 0.368627 1.912907 0.037106
v 0.367312 1.913644 0.038420
v 0.368627 1.255938 0.037106
v 0.367251 1.256104 0.038548
v 0.368627 1.912907 -0.037106
v 0.367312 1.913644 -0.038421
v 0.442839 1.912907 0.037106
v 0.444154 1.913644 0.038420
v 0.442839 1.255938 0.037106
v 0.444272 1.255768 0.038491
v 0.350954 0.872815 0.037106
v 0.352319 0.872365 0.038497
v 0.442839 1.912907 -0.037106
v 0.444154 1.913644 -0.038421
v 0.442839 1.255938 -0.037106
v 0.444272 1.255768 -0.038491
v 0.368627 1.255938 -0.037106
v 0.367251 1.256104 -0.038548
v 0.350954 0.872815 -0.037106
v 0.352319 0.872365 -0.038497
v 0.282439 0.901329 0.037106
v 0.281113 0.901768 0.038537
v -0.132005 -0.220449 0.037106
v -0.130703 -0.220982 0.038527
v -0.269444 -0.595741 0.037106
v -0.268101 -0.596129 0.038536
v -0.132005 -0.220449 -0.037106
v -0.130703 -0.220982 -0.038527
v -0.269444 -0.595741 -0.037106
v -0.268101 -0.596129 -0.038536
v 0.282439 0.901329 -0.037106
v 0.281113 0.901768 -0.038537
v -0.330431 -0.880125 -0.037106
v -0.329046 -0.880354 -0.038531
v -0.200520 -0.191936 -0.037106
v -0.201840 -0.191398 -0.038509
v -0.342629 -0.583440 -0.037106
v -0.344005 -0.583045 -0.038502
v -0.368635 -1.208429 -0.037106
v -0.367237 -1.208501 -0.038534
v -0.330431 -0.880125 0.037106
v -0.329047 -0.880353 0.038532
v -0.368635 -1.208429 0.037106
v -0.367237 -1.208501 0.038535
v -0.200520 -0.191936 0.037106
v -0.201840 -0.191398 0.038509
v -0.342629 -0.583440 0.037106
v -0.344005 -0.583045 0.038503
v -0.364534 -1.543354 0.037106
v -0.363141 -1.543239 0.038537
v -0.403615 -0.867824 0.037106
v -0.405023 -0.867593 0.038508
v -0.364534 -1.543354 -0.037106
v -0.363141 -1.543239 -0.038536
v -0.442840 -1.209417 0.037106
v -0.444269 -1.209345 0.038504
v -0.403615 -0.867824 -0.037106
v -0.405023 -0.867593 -0.038508
v -0.442840 -1.209417 -0.037106
v -0.444269 -1.209345 -0.038504
v -0.437887 -1.554610 -0.037106
v -0.439313 -1.554729 -0.038504
v -0.437887 -1.554610 0.037106
v -0.439313 -1.554729 0.038504
v -0.384320 -1.903688 -0.037106
v -0.385590 -1.904413 -0.038471
v -0.384320 -1.903688 0.037106
v -0.385590 -1.904413 0.038471
v -0.310967 -1.892432 0.037106
v -0.309539 -1.892743 0.038471
v -0.310967 -1.892432 -0.037106
v -0.309539 -1.892743 -0.038471
v 0.443556 1.256853 0.036798
v 0.443556 1.256853 -0.036798
v 0.443496 1.912276 -0.036763
v 0.443496 1.912276 0.036763
v 0.428195 1.932075 0.022462
v 0.428195 1.932075 -0.022462
v 0.383271 1.932075 -0.022462
v 0.383271 1.932075 0.022462
v -0.319598 -1.923083 -0.023927
v -0.319598 -1.923083 0.023927
v -0.366896 -1.930341 0.023927
v -0.366896 -1.930341 -0.023927
v 0.368970 1.912276 0.037763
v 0.368939 1.257021 0.037827
v 0.442556 1.256853 0.037798
v 0.442496 1.912276 0.037763
v 0.442556 1.256853 -0.037798
v 0.368939 1.257021 -0.037827
v 0.368970 1.912276 -0.037763
v 0.442496 1.912276 -0.037763
v 0.369748 1.914070 0.037155
v 0.441718 1.914070 0.037155
v 0.428632 1.931281 0.024069
v 0.382833 1.931281 0.024069
v 0.442889 1.914070 -0.035986
v 0.429803 1.931281 -0.022900
v 0.429803 1.931281 0.022899
v 0.442889 1.914070 0.035985
v 0.351870 0.873563 -0.036802
v 0.443322 1.254881 -0.036798
v 0.443322 1.254881 0.036798
v 0.351870 0.873563 0.036801
v 0.441718 1.914070 -0.037156
v 0.369748 1.914070 -0.037156
v 0.382833 1.931281 -0.024070
v 0.428632 1.931281 -0.024070
v -0.384412 -1.904890 0.036299
v -0.384412 -1.904890 -0.036299
v -0.368427 -1.929653 -0.024255
v -0.368427 -1.929653 0.024255
v -0.131873 -0.219416 0.037817
v 0.350309 0.872060 0.037801
v 0.282295 0.900249 0.037821
v -0.199852 -0.191137 0.037807
v 0.367970 1.912276 0.036763
v 0.367970 1.912276 -0.036763
v 0.367939 1.257021 -0.036827
v 0.367939 1.257021 0.036827
v 0.368577 1.914070 0.035985
v 0.381663 1.931281 0.022899
v 0.381663 1.931281 -0.022900
v 0.368577 1.914070 -0.035986
v -0.404433 -0.868702 -0.036807
v -0.443440 -1.208387 -0.036805
v -0.443440 -1.208387 0.036805
v -0.404433 -0.868702 0.036807
v 0.350938 0.873964 -0.037802
v 0.282949 0.902143 -0.037822
v 0.368725 1.255021 -0.037827
v 0.442287 1.254853 -0.037798
v -0.131873 -0.219416 -0.037817
v -0.199852 -0.191137 -0.037807
v 0.282295 0.900249 -0.037822
v 0.350309 0.872060 -0.037802
v -0.367359 -1.929489 0.025336
v -0.319411 -1.922131 0.025336
v -0.311586 -1.893715 0.037380
v -0.383344 -1.904727 0.037380
v 0.350938 0.873964 0.037801
v 0.442287 1.254853 0.037798
v 0.368725 1.255021 0.037827
v 0.282949 0.902143 0.037821
v 0.281372 0.900634 0.036821
v 0.281372 0.900634 -0.036822
v -0.200776 -0.190753 -0.036807
v -0.200776 -0.190753 0.036807
v -0.131698 -0.221654 0.036817
v -0.268428 -0.594996 0.036821
v -0.268428 -0.594996 -0.036821
v -0.131698 -0.221654 -0.036817
v -0.269426 -0.594811 -0.037821
v -0.341967 -0.582455 -0.037804
v -0.200597 -0.192993 -0.037807
v -0.132622 -0.221271 -0.037817
v -0.367821 -1.207472 -0.036820
v -0.329854 -0.881233 -0.036818
v -0.329855 -0.881233 0.036819
v -0.367821 -1.207472 0.036820
v -0.437460 -1.555506 0.037805
v -0.384118 -1.902910 0.037789
v -0.311393 -1.891751 0.037789
v -0.364674 -1.544437 0.037821
v -0.342540 -0.584387 0.037804
v -0.403122 -0.866896 0.037807
v -0.330516 -0.879095 0.037819
v -0.269969 -0.596748 0.037821
v -0.403446 -0.868869 0.037807
v -0.442431 -1.208366 0.037805
v -0.368828 -1.207477 0.037820
v -0.330842 -0.881068 0.037819
v -0.201521 -0.192607 0.036807
v -0.201521 -0.192607 -0.036807
v -0.342976 -0.582302 -0.036804
v -0.342976 -0.582302 0.036804
v -0.363850 -1.542297 -0.036821
v -0.367924 -1.209465 -0.036820
v -0.367924 -1.209465 0.036820
v -0.363850 -1.542297 0.036821
v -0.329529 -0.879261 -0.036818
v -0.268982 -0.596913 -0.036821
v -0.268982 -0.596913 0.036821
v -0.329529 -0.879261 0.036819
v -0.343527 -0.584220 -0.036804
v -0.404109 -0.866731 -0.036807
v -0.404109 -0.866731 0.036807
v -0.343527 -0.584220 0.036804
v -0.200597 -0.192993 0.037807
v -0.341967 -0.582455 0.037804
v -0.269426 -0.594811 0.037821
v -0.132622 -0.221271 0.037817
v -0.330516 -0.879095 -0.037818
v -0.403122 -0.866896 -0.037807
v -0.342540 -0.584387 -0.037804
v -0.269969 -0.596748 -0.037821
v -0.368828 -1.207477 -0.037820
v -0.442431 -1.208366 -0.037805
v -0.403446 -0.868869 -0.037807
v -0.330842 -0.881068 -0.037818
v -0.438614 -1.553670 -0.036805
v -0.438614 -1.553670 0.036805
v -0.443540 -1.210381 0.036805
v -0.443540 -1.210381 -0.036805
v -0.364848 -1.542440 -0.037821
v -0.437616 -1.553507 -0.037805
v -0.442540 -1.210368 -0.037805
v -0.368924 -1.209478 -0.037820
v -0.364674 -1.544437 -0.037821
v -0.311393 -1.891751 -0.037788
v -0.384118 -1.902910 -0.037788
v -0.437460 -1.555506 -0.037805
v 0.367703 1.255049 0.036827
v 0.367703 1.255049 -0.036827
v 0.282012 0.902520 -0.036822
v 0.282012 0.902520 0.036821
v -0.310404 -1.891599 -0.036788
v -0.363686 -1.544285 -0.036821
v -0.363686 -1.544285 0.036821
v -0.310404 -1.891599 0.036789
v -0.385106 -1.903062 0.036789
v -0.438448 -1.555658 0.036805
v -0.438448 -1.555658 -0.036805
v -0.385106 -1.903062 -0.036788
v -0.437616 -1.553507 0.037805
v -0.364848 -1.542440 0.037821
v -0.368924 -1.209478 0.037820
v -0.442540 -1.210368 0.037805
v -0.311586 -1.893715 -0.037379
v -0.319411 -1.922131 -0.025335
v -0.367359 -1.929489 -0.025335
v -0.383344 -1.904727 -0.037379
v 0.351232 0.871675 0.036801
v -0.130950 -0.219801 0.036817
v -0.130950 -0.219801 -0.036817
v 0.351232 0.871675 -0.036802
v -0.318343 -1.921967 -0.024255
v -0.310518 -1.893551 -0.036299
v -0.310518 -1.893551 0.036299
v -0.318343 -1.921967 0.024255
vn 0.3715 0.6027 -0.7062
vn 0.3570 0.6028 0.7136
vn -0.7137 0.0884 0.6948
vn -0.7179 0.0906 -0.6902
vn 0.7210 -0.0652 0.6898
vn 0.7244 -0.0548 -0.6872
vn 0.4575 -0.5574 0.6928
vn -0.6343 -0.4698 0.6139
vn 0.6866 0.3251 -0.6503
vn 0.4632 -0.5791 -0.6709
vn -0.6335 -0.4709 -0.6139
vn 0.6547 0.3339 0.6782
vn -0.6712 0.3147 -0.6712
vn -0.6712 0.3147 0.6712
vn -0.2930 -0.9101 0.2930
vn -0.2930 -0.9101 -0.2930
vn 0.3710 0.8513 0.3710
vn 0.3710 0.8513 -0.3710
vn 0.6712 0.3147 0.6712
vn 0.2930 -0.9101 0.2930
vn -0.3710 0.8513 -0.3710
vn 0.6712 0.3147 -0.6712
vn 0.2930 -0.9101 -0.2930
vn -0.3710 0.8513 0.3710
vn -0.5807 -0.4919 0.6487
vn -0.5807 -0.4919 -0.6487
vn -0.5138 0.7630 -0.3922
vn -0.5138 0.7630 0.3922
vn 0.5655 -0.6882 -0.4546
vn 0.5655 -0.6882 0.4546
vn 0.7015 -0.2952 -0.6487
vn 0.2614 0.8820 -0.3922
vn -0.3331 -0.8261 0.4545
vn 0.7015 -0.2952 0.6487
vn 0.2614 0.8820 0.3921
vn -0.3331 -0.8261 -0.4545
vn 0.6939 -0.5575 0.4557
vn 0.7166 0.6091 0.3399
vn 0.6874 -0.1156 -0.7170
vn 0.6204 -0.4572 -0.6372
vn -0.6637 0.3404 0.6661
vn -0.6832 0.0427 0.7290
vn -0.7113 0.6033 0.3607
vn -0.6678 -0.5787 0.4682
vn -0.7202 0.5902 -0.3646
vn 0.7282 0.6065 -0.3193
vn 0.6877 -0.1156 0.7167
vn -0.6819 0.0743 -0.7277
vn 0.6934 -0.5575 -0.4565
vn 0.6136 -0.4698 0.6346
vn -0.6499 0.3251 -0.6869
vn -0.6813 -0.5846 -0.4405
vn 0.8349 0.5444 0.0806
vn -0.8354 0.5445 0.0749
vn -0.4690 -0.4417 0.7648
vn 0.4690 -0.4417 0.7648
vn 0.0809 0.5444 0.8349
vn 0.7648 -0.4417 0.4690
vn 0.7648 -0.4417 -0.4690
vn 0.0748 0.5445 -0.8354
vn 0.5051 0.4864 0.7129
vn 0.2420 -0.6517 0.7189
vn -0.6758 0.2173 0.7043
vn 0.6809 -0.2362 -0.6932
vn 0.2360 -0.6652 -0.7084
vn 0.5008 0.4911 -0.7128
vn -0.6811 0.2115 -0.7010
vn 0.6770 -0.2485 0.6927
vn -0.8481 0.5212 -0.0949
vn 0.8508 0.5218 -0.0622
vn 0.4690 -0.4417 -0.7648
vn -0.4690 -0.4417 -0.7648
vn -0.0755 -0.5713 -0.8173
vn -0.0858 -0.5637 0.8215
vn 0.6000 0.4384 0.6692
vn 0.5980 0.4429 -0.6680
vn -0.6429 -0.3413 0.6857
vn -0.6488 -0.3399 -0.6808
vn -0.7436 0.4061 0.5312
vn -0.7436 0.4061 -0.5312
vn -0.4349 0.8236 0.3641
vn -0.8910 -0.2617 0.3710
vn -0.6558 0.2588 -0.7092
vn 0.6500 -0.2682 0.7111
vn 0.4376 -0.8330 0.3385
vn 0.6705 -0.2028 -0.7136
vn -0.6559 0.2181 0.7226
vn 0.8985 0.2505 0.3605
vn 0.6615 -0.2622 -0.7026
vn -0.6626 0.2732 0.6974
vn -0.4648 -0.5829 -0.6665
vn -0.4415 -0.5845 0.6808
vn -0.3391 0.5863 0.7357
vn -0.3357 0.6053 -0.7218
vn -0.0946 0.5210 -0.8483
vn -0.7648 -0.4417 -0.4690
vn -0.7648 -0.4417 0.4690
vn -0.0965 0.5258 0.8451
vn -0.4364 -0.5400 0.7197
vn -0.3040 0.6285 0.7160
vn 0.7123 -0.0501 0.7001
vn 0.7009 -0.1120 0.7044
vn -0.7058 0.1165 -0.6987
vn -0.7198 0.0174 -0.6940
vn -0.2950 0.6277 -0.7204
vn 0.7122 -0.0501 -0.7002
vn -0.7181 0.0308 0.6953
vn -0.4347 -0.5429 -0.7186
vn 0.7038 -0.1103 -0.7017
vn -0.7070 0.1226 0.6965
vn -0.5169 0.7610 -0.3919
vn 0.8758 0.3554 -0.3266
vn 0.6546 -0.2257 0.7215
vn -0.6524 0.2434 -0.7177
vn 0.6541 -0.6755 -0.3403
vn -0.7864 -0.4811 -0.3875
vn -0.4310 0.8260 -0.3632
vn 0.8979 0.2472 -0.3643
vn 0.6615 -0.2622 0.7026
vn -0.6506 0.2591 0.7139
vn 0.6500 -0.2682 -0.7111
vn -0.6600 0.2686 -0.7016
vn 0.4388 -0.8201 -0.3673
vn -0.8977 -0.2534 -0.3603
vn 0.4470 0.5888 0.6734
vn -0.6030 0.4277 0.6734
vn -0.7250 -0.6696 0.1614
vn -0.7133 0.2375 -0.6593
vn 0.7209 -0.1284 0.6810
vn 0.8901 -0.4186 0.1803
vn -0.5195 0.7623 0.3861
vn -0.7768 -0.4848 0.4020
vn 0.6363 -0.6920 0.3408
vn 0.8789 0.3295 0.3450
vn -0.5568 -0.3850 -0.7360
vn -0.5454 -0.4135 0.7291
vn -0.0960 0.6839 0.7232
vn -0.1010 0.6832 -0.7233
vn 0.1387 -0.6733 -0.7262
vn 0.5249 0.4261 -0.7368
vn -0.6647 0.2189 -0.7143
vn 0.6735 -0.1619 0.7212
vn 0.5367 0.4217 0.7308
vn -0.6646 0.2188 0.7144
vn 0.6713 -0.1802 -0.7189
vn 0.1370 -0.6762 0.7238
vn -0.5460 0.7702 -0.3297
vn 0.8448 0.3625 -0.3936
vn 0.6847 -0.2056 0.6992
vn -0.6970 0.1745 -0.6956
vn 0.4654 -0.8050 -0.3680
vn -0.8899 -0.2896 -0.3524
vn 0.4093 0.5432 0.7331
vn 0.2826 -0.6193 0.7325
vn -0.6923 0.1077 0.7135
vn -0.7022 0.0513 0.7101
vn 0.6972 -0.0246 -0.7164
vn 0.6865 -0.1213 -0.7169
vn 0.2908 -0.6203 -0.7284
vn -0.6924 0.1081 -0.7134
vn 0.6896 -0.1096 0.7158
vn 0.4130 0.5370 -0.7356
vn -0.6971 0.0542 -0.7149
vn 0.6938 -0.0143 0.7200
vn 0.8069 -0.4746 0.3516
vn 0.6022 0.6764 0.4242
vn 0.7095 0.0456 -0.7032
vn -0.7133 -0.0717 0.6972
vn -0.7801 0.4504 0.4342
vn -0.6218 -0.7001 0.3511
vn -0.6992 -0.0387 -0.7139
vn 0.6889 0.0794 0.7205
vn 0.6005 -0.7153 0.3574
vn 0.8167 0.4396 0.3738
vn 0.6790 -0.2150 -0.7019
vn -0.6947 0.1791 0.6966
vn -0.6048 0.7125 0.3558
vn -0.8314 -0.4286 0.3537
vn 0.6382 -0.6732 0.3734
vn 0.7524 0.5333 0.3866
vn -0.7005 0.6284 0.3382
vn -0.8027 -0.4862 0.3453
vn -0.5404 -0.4279 -0.7244
vn -0.5428 -0.4239 0.7250
vn -0.1421 0.6794 0.7199
vn -0.1559 0.6749 -0.7213
vn 0.3354 0.5910 0.7336
vn 0.3522 -0.5873 0.7288
vn -0.7030 -0.0419 0.7100
vn 0.6937 0.0698 -0.7169
vn 0.3558 -0.5769 -0.7353
vn 0.3480 0.5968 -0.7229
vn 0.4700 0.5045 0.7243
vn 0.2111 -0.6506 0.7295
vn 0.2174 -0.6405 -0.7366
vn 0.4662 0.5032 -0.7276
vn -0.4794 -0.4967 0.7235
vn -0.2407 0.6477 0.7228
vn -0.2381 0.6534 -0.7186
vn -0.4810 -0.5005 -0.7198
vn 0.4630 -0.8064 0.3679
vn 0.8474 0.3695 0.3813
vn -0.5543 0.7628 0.3331
vn -0.8899 -0.2836 0.3573
vn -0.6086 0.7128 -0.3486
vn 0.8201 0.4388 -0.3672
vn 0.5961 -0.7186 -0.3582
vn -0.8253 -0.4298 -0.3662
vn -0.6943 0.6370 -0.3349
vn 0.7478 0.5417 -0.3839
vn 0.6358 -0.6740 -0.3762
vn -0.8067 -0.4781 -0.3472
vn -0.3825 0.5851 0.7150
vn -0.3854 0.5750 -0.7217
vn 0.7160 0.0449 0.6966
vn -0.7133 -0.0716 -0.6972
vn -0.3668 -0.5868 -0.7219
vn -0.3652 -0.5948 0.7161
vn -0.7733 0.5402 -0.3320
vn 0.6678 0.6367 -0.3856
vn 0.7253 -0.5797 -0.3714
vn -0.7220 -0.5903 -0.3609
vn -0.6332 -0.6962 -0.3383
vn -0.7801 0.4504 -0.4343
vn -0.7022 0.2429 0.6693
vn 0.7055 -0.1265 -0.6973
vn 0.6105 0.6673 -0.4266
vn 0.7987 -0.4799 -0.3630
vn -0.4799 -0.4996 -0.7212
vn -0.4604 -0.5001 0.7334
vn -0.2177 0.6504 0.7277
vn -0.1869 0.6549 -0.7322
vn 0.3485 0.6334 0.6909
vn 0.4202 -0.5394 0.7297
vn 0.4337 -0.5369 -0.7237
vn 0.3321 0.6349 -0.6976
vn -0.5021 0.5032 -0.7033
vn -0.2648 -0.6428 -0.7188
vn -0.2754 -0.6437 0.7140
vn -0.5044 0.4965 0.7065
vn 0.6732 0.6368 0.3759
vn -0.7662 0.5408 0.3470
vn -0.7274 -0.5907 0.3492
vn 0.7298 -0.5797 0.3624
vn -0.7161 -0.6755 -0.1758
vn -0.6030 0.4277 -0.6734
vn 0.4470 0.5888 -0.6734
vn 0.8945 -0.4133 -0.1702
vn 0.1120 -0.6806 -0.7241
vn 0.5650 0.3904 -0.7269
vn 0.5626 0.3974 0.7249
vn 0.1176 -0.6823 0.7215
vn 0.5876 0.6104 0.5311
vn 0.2615 -0.5151 0.8163
vn 0.2615 -0.5151 -0.8163
vn 0.5877 0.6104 -0.5311
vt 0.000000 0.000000
s 1
f 89/1/1 90/1/2 31/1/3 25/1/4
f 90/1/2 89/1/1 26/1/5 32/1/6
f 90/1/2 91/1/7 29/1/8 31/1/3
f 91/1/7 90/1/2 32/1/6 30/1/9
f 91/1/7 92/1/10 23/1/11 29/1/8
f 92/1/10 91/1/7 30/1/9 24/1/12
f 92/1/10 89/1/1 25/1/4 23/1/11
f 89/1/1 92/1/10 24/1/12 26/1/5
f 93/1/13 94/1/14 3/1/15 7/1/16
f 94/1/14 93/1/13 8/1/17 4/1/18
f 94/1/14 95/1/19 1/1/20 3/1/15
f 95/1/19 94/1/14 4/1/18 2/1/21
f 95/1/19 96/1/22 5/1/23 1/1/20
f 96/1/22 95/1/19 2/1/21 6/1/24
f 96/1/22 93/1/13 7/1/16 5/1/23
f 93/1/13 96/1/22 6/1/24 8/1/17
f 97/1/25 98/1/26 15/1/27 13/1/28
f 98/1/26 97/1/25 14/1/29 16/1/30
f 98/1/26 99/1/31 11/1/32 15/1/27
f 99/1/31 98/1/26 16/1/30 12/1/33
f 99/1/31 100/1/34 9/1/35 11/1/32
f 100/1/34 99/1/31 12/1/33 10/1/36
f 100/1/34 97/1/25 13/1/28 9/1/35
f 97/1/25 100/1/34 10/1/36 14/1/29
f 101/1/37 102/1/38 19/1/39 17/1/40
f 102/1/38 101/1/37 18/1/41 20/1/42
f 102/1/38 103/1/43 25/1/4 19/1/39
f 103/1/43 102/1/38 20/1/42 26/1/5
f 103/1/43 104/1/44 23/1/11 25/1/4
f 104/1/44 103/1/43 26/1/5 24/1/12
f 104/1/44 101/1/37 17/1/40 23/1/11
f 101/1/37 104/1/44 24/1/12 18/1/41
f 105/1/45 106/1/46 33/1/47 31/1/3
f 106/1/46 105/1/45 32/1/6 34/1/48
f 106/1/46 107/1/49 21/1/50 33/1/47
f 107/1/49 106/1/46 34/1/48 22/1/51
f 107/1/49 108/1/52 29/1/8 21/1/50
f 108/1/52 107/1/49 22/1/51 30/1/9
f 108/1/52 105/1/45 31/1/3 29/1/8
f 105/1/45 108/1/52 30/1/9 32/1/6
f 109/1/53 110/1/54 23/1/11 17/1/40
f 110/1/54 109/1/53 18/1/41 24/1/12
f 110/1/54 111/1/55 7/1/16 23/1/11
f 111/1/55 110/1/54 24/1/12 8/1/17
f 111/1/55 112/1/56 5/1/23 7/1/16
f 112/1/56 111/1/55 8/1/17 6/1/24
f 112/1/56 109/1/53 17/1/40 5/1/23
f 109/1/53 112/1/56 6/1/24 18/1/41
f 113/1/57 114/1/58 3/1/15 29/1/8
f 114/1/58 113/1/57 30/1/9 4/1/18
f 114/1/58 115/1/59 7/1/16 3/1/15
f 115/1/59 114/1/58 4/1/18 8/1/17
f 115/1/59 116/1/60 23/1/11 7/1/16
f 116/1/60 115/1/59 8/1/17 24/1/12
f 116/1/60 113/1/57 29/1/8 23/1/11
f 113/1/57 116/1/60 24/1/12 30/1/9
f 117/1/61 118/1/62 31/1/3 35/1/63
f 118/1/62 117/1/61 36/1/64 32/1/6
f 118/1/62 119/1/65 25/1/4 31/1/3
f 119/1/65 118/1/62 32/1/6 26/1/5
f 119/1/65 120/1/66 27/1/67 25/1/4
f 120/1/66 119/1/65 26/1/5 28/1/68
f 120/1/66 117/1/61 35/1/63 27/1/67
f 117/1/61 120/1/66 28/1/68 36/1/64
f 121/1/69 122/1/70 21/1/50 29/1/8
f 122/1/70 121/1/69 30/1/9 22/1/51
f 122/1/70 123/1/71 1/1/20 21/1/50
f 123/1/71 122/1/70 22/1/51 2/1/21
f 123/1/71 124/1/72 3/1/15 1/1/20
f 124/1/72 123/1/71 2/1/21 4/1/18
f 124/1/72 121/1/69 29/1/8 3/1/15
f 121/1/69 124/1/72 4/1/18 30/1/9
f 125/1/73 126/1/74 81/1/75 83/1/76
f 126/1/74 125/1/73 84/1/77 82/1/78
f 126/1/74 127/1/79 9/1/35 81/1/75
f 127/1/79 126/1/74 82/1/78 10/1/36
f 127/1/79 128/1/80 11/1/32 9/1/35
f 128/1/80 127/1/79 10/1/36 12/1/33
f 128/1/80 125/1/73 83/1/76 11/1/32
f 125/1/73 128/1/80 12/1/33 84/1/77
f 129/1/81 130/1/82 27/1/67 39/1/83
f 130/1/82 129/1/81 40/1/84 28/1/68
f 130/1/82 131/1/85 37/1/86 27/1/67
f 131/1/85 130/1/82 28/1/68 38/1/87
f 131/1/85 132/1/88 61/1/89 37/1/86
f 132/1/88 131/1/85 38/1/87 62/1/90
f 132/1/88 129/1/81 39/1/83 61/1/89
f 129/1/81 132/1/88 62/1/90 40/1/84
f 133/1/91 134/1/92 21/1/50 17/1/40
f 134/1/92 133/1/91 18/1/41 22/1/51
f 134/1/92 135/1/93 33/1/47 21/1/50
f 135/1/93 134/1/92 22/1/51 34/1/48
f 135/1/93 136/1/94 19/1/39 33/1/47
f 136/1/94 135/1/93 34/1/48 20/1/42
f 136/1/94 133/1/91 17/1/40 19/1/39
f 133/1/91 136/1/94 20/1/42 18/1/41
f 137/1/95 138/1/96 5/1/23 17/1/40
f 138/1/96 137/1/95 18/1/41 6/1/24
f 138/1/96 139/1/97 1/1/20 5/1/23
f 139/1/97 138/1/96 6/1/24 2/1/21
f 139/1/97 140/1/98 21/1/50 1/1/20
f 140/1/98 139/1/97 2/1/21 22/1/51
f 140/1/98 137/1/95 17/1/40 21/1/50
f 137/1/95 140/1/98 22/1/51 18/1/41
f 141/1/99 142/1/100 75/1/101 73/1/102
f 142/1/100 141/1/99 74/1/103 76/1/104
f 142/1/100 143/1/105 71/1/106 75/1/101
f 143/1/105 142/1/100 76/1/104 72/1/107
f 143/1/105 144/1/108 67/1/109 71/1/106
f 144/1/108 143/1/105 72/1/107 68/1/110
f 144/1/108 141/1/99 73/1/102 67/1/109
f 141/1/99 144/1/108 68/1/110 74/1/103
f 145/1/111 146/1/112 47/1/113 35/1/63
f 146/1/112 145/1/111 36/1/64 48/1/114
f 146/1/112 147/1/115 33/1/47 47/1/113
f 147/1/115 146/1/112 48/1/114 34/1/48
f 147/1/115 148/1/116 31/1/3 33/1/47
f 148/1/116 147/1/115 34/1/48 32/1/6
f 148/1/116 145/1/111 35/1/63 31/1/3
f 145/1/111 148/1/116 32/1/6 36/1/64
f 149/1/117 150/1/118 51/1/119 43/1/120
f 150/1/118 149/1/117 44/1/121 52/1/122
f 150/1/118 151/1/123 47/1/113 51/1/119
f 151/1/123 150/1/118 52/1/122 48/1/114
f 151/1/123 152/1/124 35/1/63 47/1/113
f 152/1/124 151/1/123 48/1/114 36/1/64
f 152/1/124 149/1/117 43/1/120 35/1/63
f 149/1/117 152/1/124 36/1/64 44/1/121
f 153/1/125 154/1/126 15/1/27 11/1/32
f 154/1/126 153/1/125 12/1/33 16/1/30
f 154/1/126 155/1/127 85/1/128 15/1/27
f 155/1/127 154/1/126 16/1/30 86/1/129
f 155/1/127 156/1/130 83/1/76 85/1/128
f 156/1/130 155/1/127 86/1/129 84/1/77
f 156/1/130 153/1/125 11/1/32 83/1/76
f 153/1/125 156/1/130 84/1/77 12/1/33
f 157/1/131 158/1/132 25/1/4 27/1/67
f 158/1/132 157/1/131 28/1/68 26/1/5
f 158/1/132 159/1/133 19/1/39 25/1/4
f 159/1/133 158/1/132 26/1/5 20/1/42
f 159/1/133 160/1/134 37/1/86 19/1/39
f 160/1/134 159/1/133 20/1/42 38/1/87
f 160/1/134 157/1/131 27/1/67 37/1/86
f 157/1/131 160/1/134 38/1/87 28/1/68
f 161/1/135 162/1/136 47/1/113 37/1/86
f 162/1/136 161/1/135 38/1/87 48/1/114
f 162/1/136 163/1/137 51/1/119 47/1/113
f 163/1/137 162/1/136 48/1/114 52/1/122
f 163/1/137 164/1/138 61/1/89 51/1/119
f 164/1/138 163/1/137 52/1/122 62/1/90
f 164/1/138 161/1/135 37/1/86 61/1/89
f 161/1/135 164/1/138 62/1/90 38/1/87
f 165/1/139 166/1/140 41/1/141 39/1/83
f 166/1/140 165/1/139 40/1/84 42/1/142
f 166/1/140 167/1/143 45/1/144 41/1/141
f 167/1/143 166/1/140 42/1/142 46/1/145
f 167/1/143 168/1/146 43/1/120 45/1/144
f 168/1/146 167/1/143 46/1/145 44/1/121
f 168/1/146 165/1/139 39/1/83 43/1/120
f 165/1/139 168/1/146 44/1/121 40/1/84
f 169/1/147 170/1/148 53/1/149 45/1/144
f 170/1/148 169/1/147 46/1/145 54/1/150
f 170/1/148 171/1/151 51/1/119 53/1/149
f 171/1/151 170/1/148 54/1/150 52/1/122
f 171/1/151 172/1/152 43/1/120 51/1/119
f 172/1/152 171/1/151 52/1/122 44/1/121
f 172/1/152 169/1/147 45/1/144 43/1/120
f 169/1/147 172/1/152 44/1/121 46/1/145
f 173/1/153 174/1/154 49/1/155 55/1/156
f 174/1/154 173/1/153 56/1/157 50/1/158
f 174/1/154 175/1/159 57/1/160 49/1/155
f 175/1/159 174/1/154 50/1/158 58/1/161
f 175/1/159 176/1/162 59/1/163 57/1/160
f 176/1/162 175/1/159 58/1/161 60/1/164
f 176/1/162 173/1/153 55/1/156 59/1/163
f 173/1/153 176/1/162 60/1/164 56/1/157
f 177/1/165 178/1/166 83/1/76 79/1/167
f 178/1/166 177/1/165 80/1/168 84/1/77
f 178/1/166 179/1/169 85/1/128 83/1/76
f 179/1/169 178/1/166 84/1/77 86/1/129
f 179/1/169 180/1/170 65/1/171 85/1/128
f 180/1/170 179/1/169 86/1/129 66/1/172
f 180/1/170 177/1/165 79/1/167 65/1/171
f 177/1/165 180/1/170 66/1/172 80/1/168
f 181/1/173 182/1/174 67/1/109 63/1/175
f 182/1/174 181/1/173 64/1/176 68/1/110
f 182/1/174 183/1/177 57/1/160 67/1/109
f 183/1/177 182/1/174 68/1/110 58/1/161
f 183/1/177 184/1/178 41/1/141 57/1/160
f 184/1/178 183/1/177 58/1/161 42/1/142
f 184/1/178 181/1/173 63/1/175 41/1/141
f 181/1/173 184/1/178 42/1/142 64/1/176
f 185/1/179 186/1/180 71/1/106 67/1/109
f 186/1/180 185/1/179 68/1/110 72/1/107
f 186/1/180 187/1/181 59/1/163 71/1/106
f 187/1/181 186/1/180 72/1/107 60/1/164
f 187/1/181 188/1/182 57/1/160 59/1/163
f 188/1/182 187/1/181 60/1/164 58/1/161
f 188/1/182 185/1/179 67/1/109 57/1/160
f 185/1/179 188/1/182 58/1/161 68/1/110
f 189/1/183 190/1/184 51/1/119 61/1/89
f 190/1/184 189/1/183 62/1/90 52/1/122
f 190/1/184 191/1/185 53/1/149 51/1/119
f 191/1/185 190/1/184 52/1/122 54/1/150
f 191/1/185 192/1/186 63/1/175 53/1/149
f 192/1/186 191/1/185 54/1/150 64/1/176
f 192/1/186 189/1/183 61/1/89 63/1/175
f 189/1/183 192/1/186 64/1/176 62/1/90
f 193/1/187 194/1/188 55/1/156 69/1/189
f 194/1/188 193/1/187 70/1/190 56/1/157
f 194/1/188 195/1/191 59/1/163 55/1/156
f 195/1/191 194/1/188 56/1/157 60/1/164
f 195/1/191 196/1/192 65/1/171 59/1/163
f 196/1/192 195/1/191 60/1/164 66/1/172
f 196/1/192 193/1/187 69/1/189 65/1/171
f 193/1/187 196/1/192 66/1/172 70/1/190
f 197/1/193 198/1/194 45/1/144 49/1/155
f 198/1/194 197/1/193 50/1/158 46/1/145
f 198/1/194 199/1/195 41/1/141 45/1/144
f 199/1/195 198/1/194 46/1/145 42/1/142
f 199/1/195 200/1/196 57/1/160 41/1/141
f 200/1/196 199/1/195 42/1/142 58/1/161
f 200/1/196 197/1/193 49/1/155 57/1/160
f 197/1/193 200/1/196 58/1/161 50/1/158
f 201/1/197 202/1/198 73/1/102 53/1/149
f 202/1/198 201/1/197 54/1/150 74/1/103
f 202/1/198 203/1/199 67/1/109 73/1/102
f 203/1/199 202/1/198 74/1/103 68/1/110
f 203/1/199 204/1/200 63/1/175 67/1/109
f 204/1/200 203/1/199 68/1/110 64/1/176
f 204/1/200 201/1/197 53/1/149 63/1/175
f 201/1/197 204/1/200 64/1/176 54/1/150
f 205/1/201 206/1/202 63/1/175 61/1/89
f 206/1/202 205/1/201 62/1/90 64/1/176
f 206/1/202 207/1/203 41/1/141 63/1/175
f 207/1/203 206/1/202 64/1/176 42/1/142
f 207/1/203 208/1/204 39/1/83 41/1/141
f 208/1/204 207/1/203 42/1/142 40/1/84
f 208/1/204 205/1/201 61/1/89 39/1/83
f 205/1/201 208/1/204 40/1/84 62/1/90
f 209/1/205 210/1/206 73/1/102 49/1/155
f 210/1/206 209/1/205 50/1/158 74/1/103
f 210/1/206 211/1/207 53/1/149 73/1/102
f 211/1/207 210/1/206 74/1/103 54/1/150
f 211/1/207 212/1/208 45/1/144 53/1/149
f 212/1/208 211/1/207 54/1/150 46/1/145
f 212/1/208 209/1/205 49/1/155 45/1/144
f 209/1/205 212/1/208 46/1/145 50/1/158
f 213/1/209 214/1/210 75/1/101 55/1/156
f 214/1/210 213/1/209 56/1/157 76/1/104
f 214/1/210 215/1/211 73/1/102 75/1/101
f 215/1/211 214/1/210 76/1/104 74/1/103
f 215/1/211 216/1/212 49/1/155 73/1/102
f 216/1/212 215/1/211 74/1/103 50/1/158
f 216/1/212 213/1/209 55/1/156 49/1/155
f 213/1/209 216/1/212 50/1/158 56/1/157
f 217/1/213 218/1/214 79/1/167 77/1/215
f 218/1/214 217/1/213 78/1/216 80/1/168
f 218/1/214 219/1/217 71/1/106 79/1/167
f 219/1/217 218/1/214 80/1/168 72/1/107
f 219/1/217 220/1/218 75/1/101 71/1/106
f 220/1/218 219/1/217 72/1/107 76/1/104
f 220/1/218 217/1/213 77/1/215 75/1/101
f 217/1/213 220/1/218 76/1/104 78/1/216
f 221/1/219 222/1/220 77/1/215 69/1/189
f 222/1/220 221/1/219 70/1/190 78/1/216
f 222/1/220 223/1/221 75/1/101 77/1/215
f 223/1/221 222/1/220 78/1/216 76/1/104
f 223/1/221 224/1/222 55/1/156 75/1/101
f 224/1/222 223/1/221 76/1/104 56/1/157
f 224/1/222 221/1/219 69/1/189 55/1/156
f 221/1/219 224/1/222 56/1/157 70/1/190
f 225/1/223 226/1/224 87/1/225 69/1/189
f 226/1/224 225/1/223 70/1/190 88/1/226
f 226/1/224 227/1/227 81/1/75 87/1/225
f 227/1/227 226/1/224 88/1/226 82/1/78
f 227/1/227 228/1/228 77/1/215 81/1/75
f 228/1/228 227/1/227 82/1/78 78/1/216
f 228/1/228 225/1/223 69/1/189 77/1/215
f 225/1/223 228/1/228 78/1/216 70/1/190
f 229/1/229 230/1/230 33/1/47 19/1/39
f 230/1/230 229/1/229 20/1/42 34/1/48
f 230/1/230 231/1/231 47/1/113 33/1/47
f 231/1/231 230/1/230 34/1/48 48/1/114
f 231/1/231 232/1/232 37/1/86 47/1/113
f 232/1/232 231/1/231 48/1/114 38/1/87
f 232/1/232 229/1/229 19/1/39 37/1/86
f 229/1/229 232/1/232 38/1/87 20/1/42
f 233/1/233 234/1/234 69/1/189 87/1/225
f 234/1/234 233/1/233 88/1/226 70/1/190
f 234/1/234 235/1/235 65/1/171 69/1/189
f 235/1/235 234/1/234 70/1/190 66/1/172
f 235/1/235 236/1/236 85/1/128 65/1/171
f 236/1/236 235/1/235 66/1/172 86/1/129
f 236/1/236 233/1/233 87/1/225 85/1/128
f 233/1/233 236/1/236 86/1/129 88/1/226
f 237/1/237 238/1/238 79/1/167 83/1/76
f 238/1/238 237/1/237 84/1/77 80/1/168
f 238/1/238 239/1/239 77/1/215 79/1/167
f 239/1/239 238/1/238 80/1/168 78/1/216
f 239/1/239 240/1/240 81/1/75 77/1/215
f 240/1/240 239/1/239 78/1/216 82/1/78
f 240/1/240 237/1/237 83/1/76 81/1/75
f 237/1/237 240/1/240 82/1/78 84/1/77
f 241/1/241 242/1/242 65/1/171 79/1/167
f 242/1/242 241/1/241 80/1/168 66/1/172
f 242/1/242 243/1/243 59/1/163 65/1/171
f 243/1/243 242/1/242 66/1/172 60/1/164
f 243/1/243 244/1/244 71/1/106 59/1/163
f 244/1/244 243/1/243 60/1/164 72/1/107
f 244/1/244 241/1/241 79/1/167 71/1/106
f 241/1/241 244/1/244 72/1/107 80/1/168
f 245/1/245 246/1/246 13/1/28 87/1/225
f 246/1/246 245/1/245 88/1/226 14/1/29
f 246/1/246 247/1/247 9/1/35 13/1/28
f 247/1/247 246/1/246 14/1/29 10/1/36
f 247/1/247 248/1/248 81/1/75 9/1/35
f 248/1/248 247/1/247 10/1/36 82/1/78
f 248/1/248 245/1/245 87/1/225 81/1/75
f 245/1/245 248/1/248 82/1/78 88/1/226
f 249/1/249 250/1/250 39/1/83 27/1/67
f 250/1/250 249/1/249 28/1/68 40/1/84
f 250/1/250 251/1/251 43/1/120 39/1/83
f 251/1/251 250/1/250 40/1/84 44/1/121
f 251/1/251 252/1/252 35/1/63 43/1/120
f 252/1/252 251/1/251 44/1/121 36/1/64
f 252/1/252 249/1/249 27/1/67 35/1/63
f 249/1/249 252/1/252 36/1/64 28/1/68
f 253/1/253 254/1/254 87/1/225 13/1/28
f 254/1/254 253/1/253 14/1/29 88/1/226
f 254/1/254 255/1/255 85/1/128 87/1/225
f 255/1/255 254/1/254 88/1/226 86/1/129
f 255/1/255 256/1/256 15/1/27 85/1/128
f 256/1/256 255/1/255 86/1/129 16/1/30
f 256/1/256 253/1/253 13/1/28 15/1/27
f 253/1/253 256/1/256 16/1/30 14/1/29
