# Blender 5.2.0 LTS
# www.blender.org
mtllib glass body.mtl
o body
v -1.755598 0.337366 -0.113183
v -1.757330 0.339098 -0.114915
v -1.755598 0.127274 -0.113183
v -1.757330 0.125542 -0.114915
v -1.755598 0.127274 0.113183
v -1.757330 0.125542 0.114915
v -1.755598 0.337366 0.113183
v -1.757330 0.339098 0.114915
v 0.059123 0.337366 0.113183
v 0.058396 0.339547 0.115110
v 0.059123 0.337366 -0.113183
v 0.058396 0.339547 -0.115110
v 0.015900 0.304949 -0.113183
v 0.015173 0.307130 -0.115110
v 0.015900 0.304949 0.113183
v 0.015173 0.307130 0.115110
v 0.934375 -0.337366 -0.113183
v 0.935189 -0.339534 -0.115090
v 1.193708 -0.110449 -0.113183
v 1.194347 -0.112151 -0.115569
v 0.934375 -0.337366 0.113183
v 0.935189 -0.339534 0.115091
v 1.193708 -0.110449 0.113183
v 1.194347 -0.112151 0.115569
v 1.392588 -0.110449 -0.113183
v 1.391548 -0.112561 -0.115043
v 1.392588 -0.110449 0.113183
v 1.391548 -0.112561 0.115043
v 1.500644 -0.250921 -0.113183
v 1.499604 -0.253033 -0.115043
v 1.500644 -0.250921 0.113183
v 1.499604 -0.253033 0.115043
v 1.755598 -0.250921 -0.113183
v 1.755598 -0.253042 -0.115304
v 1.755598 -0.250921 0.113183
v 1.755598 -0.253042 0.115304
v -0.496748 0.337366 0.113183
v -0.495857 0.339518 0.115074
v -0.496748 0.337366 -0.113183
v -0.495857 0.339518 -0.115074
v 0.458929 0.337366 0.113183
v 0.459558 0.339557 0.115133
v 0.458929 0.337366 -0.113183
v 0.459558 0.339557 -0.115133
v 0.545374 0.283338 0.113183
v 0.546002 0.285529 0.115133
v 0.545374 0.283338 -0.113183
v 0.546002 0.285529 -0.115133
v 1.193708 0.283338 0.113183
v 1.193708 0.285459 0.115304
v 1.193708 0.283338 -0.113183
v 1.193708 0.285459 -0.115304
v 1.755598 0.283338 0.113183
v 1.755598 0.285459 0.115304
v 1.755598 0.283338 -0.113183
v 1.755598 0.285459 -0.115304
v -0.464331 0.304949 -0.113183
v -0.463440 0.307101 -0.115074
v -0.464331 0.304949 0.113183
v -0.463440 0.307101 0.115074
v -0.399498 0.008413 -0.113183
v -0.399887 0.006220 -0.115192
v -0.399498 0.008413 0.113183
v -0.399887 0.006220 0.115192
v -0.723665 0.127274 0.113183
v -0.724054 0.125081 0.115192
v 0.210401 0.008413 -0.113183
v 0.209442 0.006278 -0.115059
v -0.723665 0.127274 -0.113183
v -0.724054 0.125081 -0.115192
v 0.210401 0.008413 0.113183
v 0.209442 0.006278 0.115059
v 0.296845 -0.088838 -0.113183
v 0.294679 -0.089661 -0.115089
v 0.296845 -0.088838 0.113183
v 0.294679 -0.089661 0.115089
v 0.296845 -0.218505 -0.113183
v 0.294671 -0.219281 -0.115099
v 0.296845 -0.218505 0.113183
v 0.294671 -0.219281 0.115099
v 0.394096 -0.337366 -0.113183
v 0.393090 -0.339488 -0.115050
v 0.394096 -0.337366 0.113183
v 0.393090 -0.339488 0.115050
v 0.435098 0.045689 0.113183
v 0.437135 0.044449 0.115003
v 0.435098 -0.032405 0.113183
v 0.437256 -0.031541 0.115080
v 0.645712 0.154517 0.113183
v 0.646246 0.152321 0.115156
v 0.856326 0.154517 0.113183
v 0.855792 0.152321 0.115156
v 0.549117 -0.151987 0.113183
v 0.549549 -0.149445 0.114717
v 0.849975 -0.151987 0.113183
v 0.848544 -0.149893 0.114785
v 0.850133 -0.151843 0.113183
v 0.848704 -0.150275 0.115304
v 0.965233 -0.046976 0.113183
v 0.963649 -0.046390 0.115662
v 0.946086 0.108136 0.113183
v 0.944708 0.107176 0.115669
v 0.435098 0.045689 -0.113183
v 0.437135 0.044449 -0.115003
v 0.645712 0.154517 -0.113183
v 0.646246 0.152321 -0.115156
v 0.435098 -0.032405 -0.113183
v 0.437256 -0.031541 -0.115080
v 0.856326 0.154517 -0.113183
v 0.855792 0.152321 -0.115156
v 0.549117 -0.151987 -0.113183
v 0.550065 -0.149773 -0.114971
v 0.573390 -0.151987 -0.113183
v 0.573390 -0.151987 -0.116183
v 0.849975 -0.151987 -0.113183
v 0.849114 -0.149765 -0.115005
v 0.850133 -0.151843 -0.113183
v 0.848704 -0.150275 -0.115304
v 0.965233 -0.046976 -0.113183
v 0.963649 -0.046390 -0.115662
v 0.946086 0.108136 -0.113183
v 0.944708 0.107176 -0.115669
v 0.544416 0.285229 0.112658
v 0.544416 0.285229 -0.112658
v 0.460515 0.337667 -0.112658
v 0.460515 0.337667 0.112658
v -0.398193 0.007316 0.112688
v -0.398193 0.007316 -0.112688
v 0.208422 0.007345 -0.112621
v 0.208422 0.007345 0.112621
v -1.756464 0.127908 0.112549
v -1.756464 0.336732 0.112549
v -1.756464 0.336732 -0.112549
v -1.756464 0.127908 -0.112549
v 1.499209 -0.250788 -0.112613
v 1.499209 -0.250788 0.112613
v 1.392983 -0.112694 0.112613
v 1.392983 -0.112694 -0.112613
v -1.754964 0.126408 -0.112549
v -0.725360 0.126177 -0.112688
v -0.725360 0.126177 0.112688
v -1.754964 0.126408 0.112549
v 0.294766 -0.088129 -0.112636
v 0.294766 -0.088129 0.112636
v 0.210918 0.006224 0.112621
v 0.210918 0.006224 -0.112621
v -0.722451 0.125661 -0.112688
v -0.401101 0.007833 -0.112688
v -0.401101 0.007833 0.112688
v -0.722451 0.125661 0.112688
v 0.854559 0.153419 0.112669
v 0.647479 0.153419 0.112669
v 0.647479 0.153419 -0.112669
v 0.854559 0.153419 -0.112669
v 0.965807 -0.045506 -0.114423
v 0.946995 0.106950 -0.114426
v 1.194185 0.282899 -0.114244
v 1.754098 0.282899 -0.114244
v 1.754098 -0.250482 -0.114244
v 1.500863 -0.250477 -0.114113
v 1.392807 -0.110005 -0.114113
v 1.194232 -0.109800 -0.114376
v 1.193708 0.284399 -0.112744
v 0.547188 0.284434 -0.112658
v 0.547188 0.284434 0.112658
v 1.193708 0.284399 0.112744
v 1.754098 0.284399 0.112744
v 1.754098 0.284399 -0.112744
v 1.192899 -0.112288 -0.112876
v 1.192899 -0.112288 0.112876
v 0.935911 -0.337462 0.112637
v 0.935911 -0.337462 -0.112637
v 0.457743 0.338462 -0.112658
v 0.060259 0.338457 -0.112647
v 0.060259 0.338457 0.112647
v 0.457743 0.338462 0.112658
v 0.016736 0.306940 -0.112647
v 0.016736 0.306940 0.112647
v 0.057559 0.337557 0.112647
v 0.057559 0.337557 -0.112647
v 1.390568 -0.111505 -0.112613
v 1.390568 -0.111505 0.112613
v 1.195528 -0.111300 0.112876
v 1.195528 -0.111300 -0.112876
v 0.933282 -0.338450 -0.112637
v 0.933282 -0.338450 0.112637
v 0.395093 -0.338427 0.112616
v 0.395093 -0.338427 -0.112616
v 1.194185 0.282899 0.114244
v 0.946995 0.106950 0.114426
v 0.965807 -0.045506 0.114423
v 1.194232 -0.109800 0.114376
v 1.392807 -0.110005 0.114113
v 1.500863 -0.250477 0.114113
v 1.754098 -0.250482 0.114244
v 1.754098 0.282899 0.114244
v 0.295758 -0.217393 -0.112641
v 0.295758 -0.217393 0.112641
v 0.295762 -0.090750 0.112636
v 0.295762 -0.090750 -0.112636
v -0.496924 0.336942 -0.114128
v -0.464507 0.304525 -0.114128
v 0.016036 0.304540 -0.114147
v 0.059259 0.336957 -0.114147
v 0.458813 0.336962 -0.114158
v 0.545258 0.282934 -0.114158
v 1.188991 0.282899 -0.114244
v 0.945275 0.109407 -0.114426
v 0.856424 0.154919 -0.114169
v 0.645614 0.154919 -0.114169
v 0.434616 0.045982 -0.114093
v 0.434677 -0.032574 -0.114131
v 0.548949 -0.152380 -0.114077
v 0.573390 -0.153487 -0.114683
v 0.850126 -0.152376 -0.114094
v 0.850429 -0.152168 -0.114244
v 0.964838 -0.048350 -0.114423
v 1.190948 -0.112001 -0.114376
v 0.934219 -0.336950 -0.114137
v 0.394304 -0.336927 -0.114116
v 0.297258 -0.218358 -0.114141
v 0.297262 -0.088679 -0.114136
v 0.210595 0.008845 -0.114121
v -0.399426 0.008816 -0.114188
v -0.723593 0.127677 -0.114188
v -1.754964 0.127908 -0.114049
v -1.754964 0.336732 -0.114049
v 0.850653 -0.149866 -0.112594
v 0.850368 -0.149929 0.112484
v 0.848310 -0.152069 0.112744
v 0.848310 -0.152069 -0.112744
v 1.754098 -0.251982 -0.112744
v 1.754098 -0.251982 0.112744
v 1.501624 -0.251977 0.112613
v 1.501624 -0.251977 -0.112613
v 0.437212 -0.033059 0.112631
v 0.548298 -0.149631 0.112450
v 0.548556 -0.149794 -0.112577
v 0.437212 -0.033059 -0.112631
v 0.392643 -0.337266 -0.112616
v 0.392643 -0.337266 0.112616
v 0.296708 -0.220054 0.112641
v 0.296708 -0.220054 -0.112641
v -1.754964 0.338232 -0.112549
v -1.754964 0.338232 0.112549
v -0.497802 0.338442 0.112628
v -0.497802 0.338442 -0.112628
v 0.436177 -0.030473 0.112631
v 0.436177 -0.030473 -0.112631
v 0.436116 0.043569 -0.112593
v 0.436116 0.043569 0.112593
v -0.462385 0.306025 0.112628
v 0.014036 0.306040 0.112647
v 0.014036 0.306040 -0.112647
v -0.462385 0.306025 -0.112628
v 0.850527 -0.150049 -0.112744
v 0.850527 -0.150049 0.112744
v 0.963332 -0.047693 0.112923
v 0.963332 -0.047693 -0.112923
v 0.644646 0.152730 0.112669
v 0.437449 0.045757 0.112593
v 0.437449 0.045757 -0.112593
v 0.644646 0.152730 -0.112669
v 0.944064 0.108345 0.112926
v 0.857392 0.152730 0.112669
v 0.857392 0.152730 -0.112669
v 0.944064 0.108345 -0.112926
v 0.848045 -0.150876 -0.112594
v 0.551091 -0.150880 -0.112577
v 0.550833 -0.150716 0.112450
v 0.847759 -0.150940 0.112484
v -0.495242 0.337381 -0.112628
v -0.495242 0.337381 0.112628
v -0.464946 0.307086 0.112628
v -0.464946 0.307086 -0.112628
v 0.964257 -0.045194 -0.112923
v 0.964257 -0.045194 0.112923
v 0.945581 0.106167 0.112926
v 0.945581 0.106167 -0.112926
v -0.399426 0.008816 0.114188
v 0.210595 0.008845 0.114121
v 0.297262 -0.088679 0.114136
v 0.297258 -0.218358 0.114141
v 0.394304 -0.336927 0.114116
v 0.934219 -0.336950 0.114137
v 1.190948 -0.112001 0.114376
v 0.964838 -0.048350 0.114423
v 0.850429 -0.152168 0.114244
v 0.849840 -0.152440 0.113984
v 0.548691 -0.152216 0.113950
v 0.434677 -0.032574 0.114131
v 0.434616 0.045982 0.114093
v 0.645614 0.154919 0.114169
v 0.856424 0.154919 0.114169
v 0.945275 0.109407 0.114426
v 1.188991 0.282899 0.114244
v 0.545258 0.282934 0.114158
v 0.458813 0.336962 0.114158
v 0.059259 0.336957 0.114147
v 0.016036 0.304540 0.114147
v -0.464507 0.304525 0.114128
v -0.496924 0.336942 0.114128
v -1.754964 0.336732 0.114049
v -1.754964 0.127908 0.114049
v -0.723593 0.127677 0.114188
vn 0.8921 0.4519 -0.0000
vn 0.1863 -0.9825 -0.0000
vn 0.2290 0.3664 -0.9018
vn -0.4846 -0.7754 -0.4048
vn -0.1863 0.9825 -0.0000
vn -0.8921 -0.4519 -0.0000
vn 0.2290 0.3664 0.9018
vn -0.4846 -0.7754 0.4048
vn -0.6433 -0.7656 -0.0000
vn -0.5433 0.8396 -0.0000
vn 0.0001 -0.4389 -0.8985
vn -0.0000 0.9160 -0.4011
vn 0.4747 -0.8801 -0.0000
vn 0.7229 0.6910 -0.0000
vn 0.0001 -0.4389 0.8985
vn -0.0000 0.9160 0.4011
vn -0.5907 -0.0000 0.8069
vn 0.9391 -0.0000 0.3437
vn -0.5907 0.8069 -0.0000
vn 0.9391 0.3437 -0.0000
vn -0.5907 -0.0000 -0.8069
vn 0.9391 -0.0000 -0.3437
vn -0.5907 -0.8069 -0.0000
vn 0.9391 -0.3437 -0.0000
vn -0.0923 -0.9957 -0.0000
vn 0.9849 0.1731 -0.0000
vn -0.3766 -0.2897 0.8799
vn 0.7269 0.5592 0.3986
vn -0.9849 -0.1731 -0.0000
vn 0.0923 0.9957 -0.0000
vn -0.3766 -0.2897 -0.8799
vn 0.7269 0.5592 -0.3986
vn -0.0001 -0.4987 -0.8668
vn 0.0002 0.9275 -0.3738
vn 0.5433 -0.8396 -0.0000
vn 0.6433 0.7656 -0.0000
vn -0.0001 -0.4986 0.8668
vn 0.0002 0.9275 0.3738
vn -0.8070 -0.5906 -0.0000
vn -0.3437 0.9391 -0.0000
vn -0.3229 -0.9464 -0.0000
vn 0.9984 -0.0563 -0.0000
vn -0.3426 -0.3044 0.8888
vn 0.6843 0.6081 0.4024
vn 0.6843 0.6081 0.4025
vn -0.9732 -0.2299 -0.0000
vn 0.0362 0.9993 -0.0000
vn -0.3426 -0.3044 -0.8888
vn 0.6842 0.6081 -0.4026
vn -0.1417 -0.3865 -0.9114
vn 0.3154 0.8601 -0.4011
vn 0.3404 -0.9403 -0.0000
vn 0.7991 0.6012 -0.0000
vn -0.1417 -0.3865 0.9114
vn 0.3154 0.8600 0.4011
vn -0.7991 -0.6013 -0.0000
vn -0.3404 0.9403 -0.0000
vn -0.0000 -0.4237 0.9058
vn -0.0000 0.9148 0.4040
vn -0.5278 -0.8494 -0.0000
vn -0.6650 0.7468 -0.0000
vn -0.0000 -0.4237 -0.9058
vn -0.0000 0.9148 -0.4040
vn 0.5278 -0.8493 -0.0000
vn 0.6650 0.7468 -0.0000
vn -0.8484 -0.1047 -0.5189
vn -0.4801 -0.0592 0.8752
vn -0.4800 -0.0592 0.8753
vn -0.4249 0.5991 -0.6786
vn -0.2974 0.4153 0.8597
vn -0.0000 0.9239 -0.3827
vn -0.0000 0.3827 0.9239
vn 0.5773 -0.0000 -0.8165
vn 0.5773 -0.0000 0.8165
vn -0.0001 -0.9141 -0.4056
vn 0.0007 -0.3625 0.9320
vn -0.7152 -0.5502 -0.4309
vn -0.2710 -0.2084 0.9398
vn -0.0002 -0.8891 -0.4578
vn -0.0024 -0.3966 0.9180
vn -0.0025 -0.3966 0.9180
vn -0.1942 -0.6946 -0.6927
vn -0.1509 -0.5316 0.8334
vn -0.1509 -0.5317 0.8334
vn -0.0000 0.4083 -0.9129
vn -0.0002 -0.9193 -0.3936
vn -0.5170 0.8560 -0.0000
vn -0.6787 -0.7344 -0.0000
vn -0.0000 0.4083 0.9129
vn -0.0001 0.4083 0.9129
vn -0.0002 -0.9193 0.3937
vn -0.0001 -0.9193 0.3937
vn -0.0000 -0.9239 0.3827
vn 0.5773 0.8165 -0.0000
vn 0.5773 -0.8165 -0.0000
vn -0.0000 0.3827 -0.9239
vn -0.0000 -0.9239 -0.3827
vn 0.9153 -0.4029 -0.0000
vn -0.0941 0.9956 -0.0000
vn 0.2655 -0.3037 0.9150
vn -0.6174 0.7036 0.3517
vn -0.0624 -0.9981 -0.0000
vn -0.9443 0.3290 -0.0000
vn 0.2655 -0.3037 -0.9150
vn -0.6174 0.7036 -0.3517
vn -0.0000 0.4367 -0.8996
vn -0.0000 -0.9144 -0.4048
vn -0.6924 0.7215 -0.0000
vn -0.5051 -0.8631 -0.0000
vn -0.0000 0.4368 0.8996
vn -0.0000 -0.9144 0.4048
vn 0.6787 0.7344 -0.0000
vn 0.5170 -0.8560 -0.0000
vn -0.9219 0.3874 -0.0000
vn -0.1210 -0.9927 -0.0000
vn -0.2648 0.3531 0.8973
vn 0.5486 -0.7315 0.4048
vn 0.1210 0.9927 -0.0000
vn 0.9219 -0.3874 -0.0000
vn -0.2648 0.3531 -0.8973
vn 0.5486 -0.7315 -0.4048
vn 0.4633 -0.8862 -0.0000
vn 0.7330 0.6802 -0.0000
vn 0.0004 -0.4179 0.9085
vn 0.0022 0.9372 0.3489
vn -0.4235 -0.9059 -0.0000
vn -0.5847 0.8112 -0.0000
vn 0.0004 -0.4179 -0.9085
vn 0.0022 0.9371 -0.3489
vn 0.7042 -0.7101 -0.0000
vn 0.4940 0.8694 -0.0000
vn -0.0000 -0.4606 0.8876
vn -0.0000 0.9157 0.4018
vn -0.7287 -0.6848 -0.0000
vn -0.4682 0.8836 -0.0000
vn -0.0000 -0.4606 -0.8876
vn -0.0000 0.9157 -0.4019
vn -0.4250 0.5992 0.6785
vn -0.2975 0.4154 -0.8596
vn -0.8484 -0.1047 0.5190
vn -0.4800 -0.0592 -0.8753
vn -0.1941 -0.6945 0.6928
vn -0.1508 -0.5316 -0.8335
vn -0.0002 -0.8890 0.4578
vn -0.0024 -0.3966 -0.9180
vn -0.7153 -0.5502 0.4309
vn -0.2710 -0.2084 -0.9397
vn -0.0001 -0.9141 0.4056
vn 0.0007 -0.3626 -0.9320
vn -0.0000 0.9239 0.3827
vn -0.7151 -0.6991 -0.0000
vn 0.8666 -0.4990 -0.0000
vn -0.4487 -0.0000 0.8937
vn 0.9148 -0.0000 0.4039
vn -0.8701 0.4929 -0.0000
vn 0.7089 0.7054 -0.0000
vn -0.4487 -0.0000 -0.8937
vn -0.4486 -0.0000 -0.8937
vn 0.9149 -0.0000 -0.4037
vn 0.9148 -0.0000 -0.4038
vn 0.6452 0.6452 -0.4093
vn 0.2436 0.2436 0.9388
vn -0.0000 0.9164 -0.4002
vn -0.0000 0.3466 0.9380
vn -0.5522 0.7363 -0.3911
vn -0.2092 0.2789 0.9373
vn -0.0000 0.9220 -0.3871
vn -0.0000 0.3501 0.9367
vn 0.4896 0.7833 -0.3830
vn 0.1864 0.2982 0.9361
vn -0.0000 0.9237 -0.3831
vn 0.0002 0.3670 0.9302
vn 0.2957 -0.4161 -0.8599
vn 0.2956 -0.4162 -0.8599
vn 0.4252 -0.5966 0.6807
vn -0.4063 -0.7884 -0.4618
vn -0.1864 -0.3732 0.9088
vn -0.0000 -0.9261 -0.3773
vn -0.0000 -0.3549 0.9349
vn 0.4159 -0.8054 -0.4223
vn 0.1598 -0.3086 0.9377
vn 0.8995 0.0005 -0.4369
vn 0.3425 -0.0003 0.9395
vn 0.6620 0.6312 -0.4041
vn 0.2419 0.2314 0.9423
vn 0.0101 0.7841 -0.6205
vn 0.0671 0.4889 0.8698
vn -0.0000 0.7871 -0.6168
vn -0.0009 0.7871 -0.6168
vn -0.0058 0.5048 0.8632
vn -0.6355 0.6687 -0.3859
vn 0.8449 0.3282 -0.4224
vn 0.8449 0.3282 -0.4225
vn -0.5977 0.6570 -0.4595
vn -0.2883 0.3207 0.9023
vn 0.1490 0.5324 -0.8333
vn 0.1489 0.5324 -0.8333
vn 0.1961 0.6930 0.6938
vn 0.5899 -0.6740 -0.4447
vn 0.2635 -0.2991 0.9171
vn -0.0000 -0.9108 -0.4127
vn -0.0000 -0.3444 0.9388
vn -0.7056 -0.5775 -0.4107
vn -0.2670 -0.2183 0.9387
vn -0.9172 -0.0000 -0.3984
vn -0.3465 -0.0000 0.9380
vn -0.6818 -0.6060 -0.4097
vn -0.6819 -0.6060 -0.4097
vn -0.2575 -0.2290 0.9388
vn -0.0000 -0.9186 -0.3951
vn -0.0001 -0.3521 0.9360
vn -0.3195 -0.8713 -0.3725
vn -0.1242 -0.3388 0.9326
vn -0.0001 -0.8746 -0.4849
vn -0.0001 -0.8745 -0.4849
vn 0.0001 -0.3528 0.9357
vn -0.8069 -0.0000 -0.5907
vn -0.3437 -0.0000 0.9391
vn -0.0001 0.8634 -0.5044
vn -0.0000 0.3445 0.9388
vn -0.0000 0.3441 0.9389
vn -0.8223 0.5577 -0.1129
vn -0.8130 0.5748 0.0934
vn -0.9056 0.2321 -0.3551
vn -0.0377 -0.9322 -0.3599
vn -0.0385 -0.9315 0.3618
vn -0.2612 -0.9234 0.2813
vn 0.4876 -0.0756 -0.8698
vn 0.1745 -0.6656 -0.7256
vn 0.2547 -0.3593 -0.8978
vn -0.7859 0.4658 -0.4067
vn -0.6218 0.5338 -0.5731
vn -0.1232 0.9924 -0.0000
vn 0.9767 -0.2147 -0.0000
vn 0.2558 -0.3370 0.9061
vn 0.1338 -0.6426 0.7545
vn -0.6771 0.6221 0.3930
vn -0.4419 0.5770 0.6868
vn -0.3960 0.7812 0.4825
vn -0.0002 -0.4304 0.9026
vn -0.0003 0.9206 0.3905
vn -0.7329 -0.6803 -0.0000
vn -0.4633 0.8862 -0.0000
vn -0.0002 -0.4305 -0.9026
vn -0.0003 0.9206 -0.3904
vn 0.6197 0.0410 0.7837
vn 0.3765 0.3582 0.8544
vn -0.6603 -0.6300 0.4087
vn -0.7949 -0.6059 0.0321
vn -0.3351 -0.8644 0.3749
vn 0.7671 0.6317 -0.1118
vn 0.8815 0.2674 0.3891
vn 0.8779 0.2663 -0.3980
vn 0.0684 -0.9181 0.3904
vn 0.0691 -0.9157 -0.3960
vn 0.2758 -0.9033 -0.3287
vn 0.3388 0.3229 -0.8837
vn 0.5834 0.0115 -0.8121
vn 0.4045 -0.0713 -0.9117
vn -0.6593 -0.6293 -0.4114
vn -0.3338 -0.8636 -0.3778
vn 0.2954 0.9554 -0.0000
vn -0.9996 0.0288 -0.0000
vn -0.0685 -0.9976 -0.0000
vn 0.9804 0.1972 -0.0000
vn -0.3549 -0.2905 0.8886
vn 0.7085 0.5799 0.4022
vn -0.9961 0.0882 -0.0000
vn 0.3548 0.9350 -0.0000
vn -0.3549 -0.2905 -0.8886
vn 0.7086 0.5799 -0.4020
vn -0.8070 0.5906 -0.0000
vn -0.3437 -0.9391 -0.0000
vn -0.0001 0.5221 0.8529
vn 0.0002 -0.9273 0.3743
vn 0.7142 0.6999 -0.0000
vn 0.4839 -0.8751 -0.0000
vn -0.0001 0.5220 -0.8529
vn 0.0002 -0.9273 -0.3743
vn 0.8731 -0.4876 -0.0000
vn -0.7035 -0.7107 -0.0000
vn 0.4781 0.0004 -0.8783
vn -0.9181 -0.0008 -0.3963
vn 0.9014 0.4330 -0.0000
vn -0.6537 0.7568 -0.0000
vn 0.4781 0.0004 0.8783
vn -0.9181 -0.0008 0.3963
vn -0.0000 0.4498 0.8931
vn -0.0000 -0.9148 0.4038
vn 0.5051 0.8631 -0.0000
vn 0.6924 -0.7215 -0.0000
vn -0.0000 0.4498 -0.8931
vn -0.0000 -0.9148 -0.4038
vn -0.4839 0.8751 -0.0000
vn -0.7142 -0.6999 -0.0000
vn -0.9767 0.2147 -0.0000
vn 0.1231 -0.9924 -0.0000
vn -0.2429 0.2663 0.9328
vn 0.6348 -0.7019 0.3230
vn -0.3530 0.9356 -0.0000
vn 0.9717 -0.2362 -0.0000
vn -0.2428 0.2663 -0.9328
vn 0.6348 -0.7019 -0.3231
vn 0.2120 -0.4109 0.8867
vn -0.4211 0.8156 0.3968
vn 0.0291 -0.9996 -0.0000
vn -0.9724 0.2334 -0.0000
vn 0.2121 -0.4109 -0.8867
vn -0.4211 0.8156 -0.3968
vn 0.8588 -0.5123 -0.0000
vn 0.2480 0.9688 -0.0000
vn -0.1777 -0.3428 0.9224
vn 0.4273 0.8410 0.3319
vn -0.8588 -0.5122 -0.0000
vn -0.2480 0.9688 -0.0000
vn -0.1777 -0.3429 -0.9224
vn 0.4274 0.8410 -0.3319
vn 0.4273 0.8410 -0.3319
vn -0.1027 -0.9947 -0.0000
vn 0.8760 0.4824 -0.0000
vn -0.3938 0.4318 -0.8115
vn 0.3604 0.4423 -0.8213
vn 0.3027 0.2686 -0.9145
vn -0.1349 -0.9870 -0.0869
vn 0.1425 -0.9884 -0.0526
vn -0.3934 -0.8347 -0.3853
vn -0.1929 0.9731 -0.1261
vn -0.1713 0.9798 0.1032
vn -0.4995 0.7752 -0.3868
vn -0.6594 -0.6413 -0.3923
vn -0.6595 -0.6400 0.3943
vn -0.8301 -0.4660 0.3061
vn 0.3630 0.4895 0.7929
vn -0.3908 0.4840 0.7829
vn -0.3007 0.2640 0.9165
vn 0.1714 -0.9795 0.1060
vn -0.1094 -0.9879 0.1100
vn 0.3554 -0.8337 0.4227
vn 0.1186 0.9879 -0.0998
vn 0.4313 0.8285 0.3571
vn 0.4299 0.8258 -0.3650
vn 0.7079 -0.6087 0.3584
vn 0.7070 -0.6069 -0.3631
vn 0.8341 -0.4628 -0.3003
vn -0.0101 0.9999 -0.0000
vn -0.9610 -0.2766 -0.0000
vn 0.3240 0.3240 0.8888
vn -0.6472 -0.6472 0.4027
vn 0.9610 0.2766 -0.0000
vn 0.0101 -0.9999 -0.0000
vn 0.3240 0.3240 -0.8889
vn -0.6472 -0.6472 -0.4027
vn -0.8771 -0.4803 -0.0000
vn 0.8913 -0.4534 -0.0000
vn -0.3254 -0.0402 0.9447
vn 0.9576 0.1181 0.2627
vn -0.9686 0.2486 -0.0000
vn 0.7562 0.6544 -0.0000
vn -0.3246 -0.0401 -0.9450
vn 0.9576 0.1181 -0.2629
vn 0.9576 0.1181 -0.2628
vn -0.0000 -0.9186 0.3951
vn -0.0001 -0.3521 -0.9360
vn -0.6818 -0.6060 0.4098
vn -0.2575 -0.2290 -0.9387
vn -0.2576 -0.2291 -0.9387
vn -0.9172 -0.0000 0.3984
vn -0.3469 -0.0000 -0.9379
vn -0.7056 -0.5775 0.4106
vn -0.2670 -0.2183 -0.9387
vn -0.0000 -0.9108 0.4128
vn -0.0000 -0.3444 -0.9388
vn 0.5899 -0.6740 0.4446
vn 0.2635 -0.2991 -0.9171
vn 0.1489 0.5322 0.8334
vn 0.1961 0.6929 -0.6939
vn -0.5977 0.6570 0.4595
vn -0.2883 0.3207 -0.9023
vn -0.5579 0.5264 0.6415
vn -0.5468 0.7547 0.3626
vn 0.2789 0.5381 -0.7954
vn 0.4403 0.8118 -0.3835
vn 0.6071 0.6210 -0.4957
vn 0.3725 0.8509 0.3704
vn 0.0511 0.9971 0.0567
vn -0.4056 0.8381 0.3647
vn -0.3948 0.2601 -0.8812
vn 0.1168 0.6187 -0.7769
vn 0.3631 0.2631 -0.8938
vn 0.8659 0.2705 0.4207
vn 0.7579 0.6467 0.0855
vn 0.6430 0.6126 0.4597
vn 0.2292 0.2205 -0.9481
vn 0.4801 -0.0795 -0.8736
vn 0.8995 0.0005 0.4368
vn 0.8995 0.0004 0.4368
vn 0.3425 -0.0003 -0.9395
vn 0.4159 -0.8054 0.4223
vn 0.1598 -0.3086 -0.9377
vn -0.0000 -0.9261 0.3773
vn -0.0000 -0.3549 -0.9349
vn -0.4063 -0.7884 0.4618
vn -0.1864 -0.3733 -0.9088
vn 0.2957 -0.4162 0.8598
vn 0.4252 -0.5967 -0.6806
vn 0.0002 0.3670 -0.9302
vn 0.4896 0.7833 0.3830
vn 0.1864 0.2982 -0.9361
vn -0.0000 0.9221 0.3870
vn -0.0000 0.3502 -0.9367
vn -0.5522 0.7363 0.3911
vn -0.2092 0.2789 -0.9373
vn -0.0000 0.9165 0.4001
vn -0.0000 0.3466 -0.9380
vn 0.6452 0.6452 0.4093
vn 0.2436 0.2436 -0.9388
vn -0.0001 0.8635 0.5043
vn -0.0000 0.3442 -0.9389
vn -0.8069 -0.0000 0.5907
vn -0.3437 -0.0000 -0.9391
vn -0.0001 -0.8745 0.4850
vn 0.0001 -0.3527 -0.9357
vn -0.3195 -0.8713 0.3725
vn -0.1242 -0.3388 -0.9326
vn 0.9390 0.3438 -0.0000
vn 0.9390 -0.3438 -0.0000
vn -0.9849 -0.1732 -0.0000
vn -0.0001 -0.4986 -0.8668
vn 0.5433 -0.8395 -0.0000
vn 0.6432 0.7657 -0.0000
vn -0.0001 -0.4987 0.8668
vn -0.8069 -0.5907 -0.0000
vn 0.9984 -0.0562 -0.0000
vn 0.6842 0.6081 0.4026
vn 0.6843 0.6081 -0.4024
vn 0.3154 0.8600 -0.4011
vn 0.3154 0.8601 0.4011
vn -0.7991 -0.6012 -0.0000
vn -0.5279 -0.8493 -0.0000
vn 0.5279 -0.8493 -0.0000
vn -0.8484 -0.1047 -0.5190
vn -0.4250 0.5992 -0.6785
vn -0.2975 0.4154 0.8596
vn 0.0007 -0.3626 0.9320
vn -0.7153 -0.5502 -0.4309
vn -0.2710 -0.2084 0.9397
vn -0.0002 -0.8890 -0.4578
vn -0.1941 -0.6945 -0.6928
vn -0.1508 -0.5316 0.8335
vn -0.0002 -0.9193 -0.3937
vn -0.0002 -0.9193 0.3936
vn 0.5774 0.8165 -0.0000
vn 0.5774 -0.8165 -0.0000
vn 0.9153 -0.4028 -0.0000
vn -0.9444 0.3289 -0.0000
vn -0.0000 0.4368 -0.8996
vn -0.0000 0.4367 0.8996
vn 0.7329 0.6803 -0.0000
vn 0.0022 0.9371 0.3489
vn -0.4236 -0.9058 -0.0000
vn -0.5848 0.8112 -0.0000
vn 0.0022 0.9372 -0.3489
vn 0.7041 -0.7101 -0.0000
vn 0.4941 0.8694 -0.0000
vn -0.0000 0.9157 0.4019
vn -0.0000 0.9157 0.4020
vn -0.0000 0.9157 -0.4018
vn -0.4249 0.5991 0.6786
vn -0.2975 0.4153 -0.8597
vn -0.2974 0.4153 -0.8597
vn -0.8483 -0.1047 0.5190
vn -0.1942 -0.6946 0.6927
vn -0.1509 -0.5316 -0.8334
vn -0.0002 -0.8891 0.4578
vn -0.0025 -0.3966 -0.9180
vn -0.7152 -0.5502 0.4309
vn -0.2710 -0.2084 -0.9398
vn 0.0007 -0.3625 -0.9320
vn -0.7151 -0.6990 -0.0000
vn 0.9149 -0.0000 0.4037
vn 0.7088 0.7054 -0.0000
vn 0.9148 -0.0000 -0.4039
vn -0.0000 0.9165 -0.4001
vn -0.0000 0.9221 -0.3870
vn -0.0000 0.3502 0.9367
vn 0.2957 -0.4162 -0.8598
vn 0.4252 -0.5967 0.6806
vn -0.1864 -0.3733 0.9088
vn -0.0000 -0.9261 -0.3774
vn 0.8995 0.0005 -0.4368
vn 0.6620 0.6313 -0.4040
vn 0.0101 0.7840 -0.6207
vn 0.0671 0.4887 0.8699
vn 0.0670 0.4887 0.8699
vn -0.0009 0.7872 -0.6167
vn -0.0084 0.5049 0.8631
vn -0.0058 0.5049 0.8631
vn -0.6355 0.6688 -0.3859
vn 0.8449 0.3283 -0.4224
vn 0.8449 0.3284 -0.4224
vn 0.1489 0.5322 -0.8334
vn 0.1961 0.6929 0.6939
vn 0.5899 -0.6740 -0.4446
vn -0.0000 -0.9108 -0.4129
vn -0.7056 -0.5775 -0.4106
vn -0.3469 -0.0000 0.9379
vn -0.6818 -0.6060 -0.4098
vn -0.2576 -0.2291 0.9387
vn -0.0001 -0.8745 -0.4850
vn 0.0001 -0.3527 0.9357
vn -0.0001 0.8635 -0.5043
vn -0.0000 0.3442 0.9389
vn -0.8224 0.5577 -0.1129
vn -0.9056 0.2320 -0.3551
vn -0.9012 0.2310 0.3669
vn -0.2613 -0.9234 0.2812
vn -0.2331 -0.9232 -0.3057
vn 0.4907 -0.0783 -0.8678
vn -0.7859 0.4658 -0.4066
vn -0.6217 0.5339 -0.5731
vn -0.5249 0.4552 -0.7192
vn 0.9767 -0.2145 -0.0000
vn 0.2558 -0.3371 0.9061
vn 0.1338 -0.6426 0.7544
vn 0.5018 -0.0671 0.8624
vn -0.6772 0.6220 0.3930
vn -0.3959 0.7813 0.4826
vn -0.0002 -0.4305 0.9026
vn -0.0003 0.9206 0.3904
vn -0.7330 -0.6803 -0.0000
vn -0.0002 -0.4304 -0.9026
vn -0.0003 0.9206 -0.3905
vn 0.6198 0.0410 0.7837
vn 0.4644 -0.0278 0.8852
vn -0.6603 -0.6300 0.4088
vn -0.3348 -0.8641 0.3759
vn 0.7671 0.6318 -0.1118
vn 0.7729 0.6264 0.1009
vn 0.0684 -0.9181 0.3903
vn 0.2757 -0.9033 -0.3286
vn 0.2612 -0.9002 0.3483
vn 0.4046 -0.0713 -0.9117
vn -0.6593 -0.6293 -0.4115
vn -0.3337 -0.8636 -0.3779
vn -0.8152 -0.5773 -0.0463
vn -0.9996 0.0289 -0.0000
vn 0.7086 0.5799 0.4020
vn 0.7085 0.5799 -0.4022
vn -0.8069 0.5907 -0.0000
vn -0.0001 0.5220 0.8529
vn -0.0001 0.5221 -0.8529
vn -0.6538 0.7567 -0.0000
vn -0.0000 -0.9149 0.4037
vn -0.2428 0.2663 0.9328
vn 0.6348 -0.7019 0.3231
vn 0.9717 -0.2363 -0.0000
vn -0.2429 0.2663 -0.9328
vn 0.6348 -0.7019 -0.3230
vn 0.2121 -0.4109 0.8867
vn 0.2120 -0.4108 -0.8867
vn -0.1777 -0.3429 0.9224
vn 0.4274 0.8410 0.3319
vn -0.8588 -0.5123 -0.0000
vn -0.1777 -0.3428 -0.9224
vn -0.3938 0.4359 -0.8093
vn 0.3027 0.2685 -0.9145
vn -0.3310 0.2497 -0.9100
vn -0.1347 -0.9871 -0.0868
vn -0.3934 -0.8335 -0.3879
vn 0.3608 -0.8470 -0.3904
vn -0.1928 0.9731 -0.1261
vn -0.4996 0.7751 -0.3868
vn -0.4964 0.7704 0.4001
vn -0.8056 -0.4891 -0.3344
vn 0.3629 0.4895 0.7929
vn 0.3122 0.3397 0.8872
vn 0.1715 -0.9795 0.1059
vn 0.3554 -0.8336 0.4227
vn -0.3987 -0.8178 0.4151
vn 0.1187 0.9879 -0.0998
vn 0.1259 0.9878 0.0915
vn 0.7079 -0.6086 0.3584
vn 0.8340 -0.4628 -0.3003
vn 0.8233 -0.4701 0.3180
vn 0.3240 0.3240 0.8889
vn -0.3246 -0.0401 0.9450
vn 0.9576 0.1181 0.2629
vn 0.7562 0.6543 -0.0000
vn -0.3254 -0.0402 -0.9447
vn 0.9576 0.1181 -0.2627
vn -0.6818 -0.6060 0.4097
vn -0.2575 -0.2290 -0.9388
vn -0.3465 -0.0000 -0.9380
vn -0.7056 -0.5775 0.4107
vn -0.0000 -0.9108 0.4127
vn 0.5899 -0.6740 0.4447
vn 0.1490 0.5324 0.8333
vn 0.1494 0.5322 0.8333
vn 0.1495 0.5322 0.8333
vn 0.1961 0.6930 -0.6938
vn -0.5971 0.6575 0.4595
vn -0.5581 0.5260 0.6417
vn -0.5472 0.7544 0.3627
vn -0.8071 0.4751 0.3505
vn 0.2788 0.5381 -0.7955
vn 0.6073 0.6210 -0.4956
vn 0.6073 0.6209 -0.4956
vn 0.3725 0.8509 0.3703
vn -0.4056 0.8382 0.3646
vn -0.1797 0.7141 0.6766
vn -0.3948 0.2602 -0.8812
vn 0.3631 0.2630 -0.8938
vn 0.1573 -0.0458 -0.9865
vn 0.4800 -0.0795 -0.8737
vn 0.0994 -0.1615 -0.9819
vn 0.8995 0.0005 0.4369
vn -0.0000 -0.9261 0.3774
vn -0.1864 -0.3732 -0.9088
vn 0.2956 -0.4161 0.8599
vn 0.2957 -0.4161 0.8599
vn 0.4252 -0.5966 -0.6807
vn -0.0000 0.9237 0.3831
vn -0.0000 0.3500 -0.9367
vn -0.0000 0.9164 0.4002
vn -0.0001 0.8634 0.5044
vn -0.0000 0.3445 -0.9388
vn -0.0001 -0.8746 0.4849
vn -0.0001 -0.8745 0.4849
vn 0.0001 -0.3528 -0.9357
vt 0.000000 0.000000
s 0
f 124/1/1 123/1/1 45/1/1
f 124/1/2 48/1/2 46/1/2
f 124/1/3 47/1/3 43/1/3
f 125/1/4 44/1/4 48/1/4
f 126/1/5 125/1/5 43/1/5
f 125/1/6 126/1/6 42/1/6
f 123/1/7 126/1/7 41/1/7
f 126/1/8 123/1/8 46/1/8
f 128/1/9 127/1/9 63/1/9
f 127/1/10 128/1/10 62/1/10
f 129/1/11 128/1/11 61/1/11
f 128/1/12 129/1/12 68/1/12
f 130/1/13 129/1/13 67/1/13
f 129/1/14 130/1/14 72/1/14
f 130/1/15 71/1/15 63/1/15
f 127/1/16 64/1/16 72/1/16
f 132/1/17 131/1/17 5/1/17
f 131/1/18 132/1/18 8/1/18
f 133/1/19 132/1/19 7/1/19
f 132/1/20 133/1/20 2/1/20
f 134/1/21 133/1/21 1/1/21
f 133/1/22 134/1/22 4/1/22
f 131/1/23 134/1/23 3/1/23
f 134/1/24 131/1/24 6/1/24
f 136/1/25 135/1/25 29/1/25
f 136/1/26 32/1/26 30/1/26
f 137/1/27 136/1/27 31/1/27
f 136/1/28 137/1/28 28/1/28
f 138/1/29 137/1/29 27/1/29
f 137/1/30 138/1/30 26/1/30
f 138/1/31 25/1/31 29/1/31
f 135/1/32 30/1/32 26/1/32
f 140/1/33 139/1/33 3/1/33
f 139/1/34 140/1/34 70/1/34
f 141/1/35 140/1/35 69/1/35
f 140/1/36 141/1/36 66/1/36
f 141/1/37 65/1/37 5/1/37
f 142/1/38 6/1/38 66/1/38
f 139/1/39 142/1/39 5/1/39
f 142/1/40 139/1/40 4/1/40
f 144/1/41 143/1/41 73/1/41
f 143/1/42 144/1/42 76/1/42
f 145/1/43 144/1/43 75/1/43
f 144/1/44 145/1/45 72/1/44
f 146/1/46 145/1/46 71/1/46
f 145/1/47 146/1/47 68/1/47
f 146/1/48 67/1/48 73/1/48
f 143/1/49 74/1/49 68/1/49
f 147/1/50 69/1/50 61/1/50
f 148/1/51 62/1/51 70/1/51
f 149/1/52 148/1/52 61/1/52
f 148/1/53 149/1/53 64/1/53
f 150/1/54 149/1/54 63/1/54
f 149/1/55 150/1/55 66/1/55
f 147/1/56 150/1/56 65/1/56
f 150/1/57 147/1/57 70/1/57
f 152/1/58 151/1/58 91/1/58
f 151/1/59 152/1/59 90/1/59
f 153/1/60 152/1/60 89/1/60
f 152/1/61 153/1/61 106/1/61
f 154/1/62 153/1/62 105/1/62
f 153/1/63 154/1/63 110/1/63
f 151/1/64 154/1/64 109/1/64
f 154/1/65 151/1/65 92/1/65
f 155/1/66 119/1/66 121/1/66
f 155/1/67 156/1/68 122/1/67
f 156/1/69 121/1/69 51/1/69
f 156/1/70 157/1/70 52/1/70
f 158/1/71 157/1/71 51/1/71
f 158/1/72 56/1/72 52/1/72
f 159/1/73 158/1/73 55/1/73
f 158/1/74 159/1/74 34/1/74
f 159/1/75 33/1/75 29/1/75
f 159/1/76 160/1/76 30/1/76
f 160/1/77 29/1/77 25/1/77
f 160/1/78 161/1/78 26/1/78
f 162/1/79 161/1/79 25/1/79
f 162/1/80 20/1/81 26/1/80
f 155/1/82 162/1/82 19/1/82
f 155/1/83 120/1/83 20/1/84
f 164/1/85 163/1/85 51/1/85
f 164/1/86 48/1/86 52/1/86
f 164/1/87 47/1/87 45/1/87
f 164/1/88 165/1/88 46/1/88
f 165/1/89 45/1/89 49/1/90
f 165/1/91 166/1/92 50/1/92
f 167/1/72 166/1/72 49/1/72
f 167/1/93 54/1/93 50/1/93
f 168/1/94 167/1/94 53/1/94
f 167/1/95 168/1/95 56/1/95
f 168/1/96 55/1/96 51/1/96
f 168/1/97 163/1/97 52/1/97
f 170/1/98 169/1/98 19/1/98
f 169/1/99 170/1/99 24/1/99
f 170/1/100 23/1/100 21/1/100
f 171/1/101 22/1/101 24/1/101
f 172/1/102 171/1/102 21/1/102
f 171/1/103 172/1/103 18/1/103
f 169/1/104 172/1/104 17/1/104
f 172/1/105 169/1/105 20/1/105
f 173/1/106 43/1/106 11/1/106
f 174/1/107 12/1/107 44/1/107
f 175/1/108 174/1/108 11/1/108
f 174/1/109 175/1/109 10/1/109
f 176/1/110 175/1/110 9/1/110
f 175/1/111 176/1/111 42/1/111
f 173/1/112 176/1/112 41/1/112
f 176/1/113 173/1/113 44/1/113
f 178/1/114 177/1/114 13/1/114
f 177/1/115 178/1/115 16/1/115
f 178/1/116 15/1/116 9/1/116
f 179/1/117 10/1/117 16/1/117
f 180/1/118 179/1/118 9/1/118
f 179/1/119 180/1/119 12/1/119
f 177/1/120 180/1/120 11/1/120
f 180/1/121 177/1/121 14/1/121
f 182/1/122 181/1/122 25/1/122
f 181/1/123 182/1/123 28/1/123
f 183/1/124 182/1/124 27/1/124
f 183/1/125 24/1/125 28/1/125
f 184/1/126 183/1/126 23/1/126
f 183/1/127 184/1/127 20/1/127
f 184/1/128 19/1/128 25/1/128
f 184/1/129 181/1/129 26/1/129
f 186/1/130 185/1/130 17/1/130
f 185/1/131 186/1/131 22/1/131
f 186/1/132 21/1/132 83/1/132
f 187/1/133 84/1/133 22/1/133
f 187/1/134 83/1/134 81/1/134
f 188/1/135 82/1/135 84/1/135
f 185/1/136 188/1/136 81/1/136
f 188/1/137 185/1/137 18/1/137
f 190/1/138 189/1/138 49/1/138
f 190/1/139 102/1/139 50/1/139
f 191/1/140 190/1/140 101/1/140
f 191/1/141 100/1/141 102/1/141
f 191/1/142 99/1/142 23/1/142
f 191/1/143 192/1/143 24/1/143
f 192/1/144 23/1/144 27/1/144
f 192/1/145 193/1/145 28/1/145
f 194/1/146 193/1/146 27/1/146
f 194/1/147 32/1/147 28/1/147
f 195/1/148 194/1/148 31/1/148
f 195/1/149 36/1/149 32/1/149
f 196/1/74 195/1/74 35/1/74
f 195/1/73 196/1/73 54/1/73
f 196/1/150 53/1/150 49/1/150
f 196/1/96 189/1/96 50/1/96
f 198/1/151 197/1/151 77/1/151
f 198/1/152 80/1/152 78/1/152
f 199/1/153 198/1/153 79/1/153
f 198/1/154 199/1/154 76/1/154
f 200/1/155 199/1/155 75/1/155
f 199/1/156 200/1/156 74/1/156
f 200/1/157 73/1/158 77/1/157
f 197/1/159 78/1/160 74/1/159
f 201/1/161 39/1/161 57/1/161
f 201/1/162 202/1/162 58/1/162
f 203/1/163 202/1/163 57/1/163
f 203/1/164 14/1/164 58/1/164
f 204/1/165 203/1/165 13/1/165
f 204/1/166 12/1/166 14/1/166
f 204/1/167 11/1/167 43/1/167
f 204/1/168 205/1/168 44/1/168
f 205/1/169 43/1/169 47/1/169
f 205/1/170 206/1/170 48/1/170
f 207/1/171 206/1/171 47/1/171
f 207/1/172 52/1/172 48/1/172
f 207/1/173 51/1/173 121/1/174
f 207/1/175 208/1/175 122/1/175
f 208/1/176 121/1/176 109/1/176
f 208/1/177 209/1/177 110/1/177
f 210/1/178 209/1/178 109/1/178
f 209/1/179 210/1/179 106/1/179
f 210/1/180 105/1/180 103/1/180
f 210/1/181 211/1/181 104/1/181
f 212/1/182 211/1/182 103/1/182
f 212/1/183 108/1/183 104/1/183
f 212/1/184 107/1/184 111/1/184
f 212/1/185 213/1/185 112/1/185
f 214/1/186 213/1/186 111/1/186
f 214/1/187 114/1/187 112/1/187
f 214/1/188 113/1/188 115/1/189
f 214/1/190 215/1/190 116/1/190
f 215/1/191 115/1/191 117/1/191
f 216/1/192 118/1/193 116/1/193
f 217/1/194 216/1/194 117/1/194
f 217/1/195 120/1/195 118/1/195
f 218/1/196 217/1/196 119/1/197
f 218/1/198 20/1/198 120/1/198
f 218/1/199 19/1/199 17/1/199
f 218/1/200 219/1/200 18/1/200
f 220/1/201 219/1/201 17/1/201
f 220/1/202 82/1/202 18/1/202
f 220/1/203 81/1/203 77/1/203
f 220/1/204 221/1/204 78/1/204
f 221/1/205 77/1/205 73/1/205
f 221/1/206 222/1/206 74/1/206
f 222/1/207 73/1/207 67/1/208
f 222/1/209 223/1/209 68/1/209
f 224/1/210 223/1/210 67/1/210
f 224/1/211 62/1/211 68/1/211
f 224/1/212 61/1/212 69/1/212
f 224/1/213 225/1/213 70/1/213
f 226/1/214 225/1/215 69/1/214
f 226/1/216 4/1/216 70/1/216
f 227/1/217 226/1/217 3/1/217
f 227/1/218 2/1/218 4/1/218
f 227/1/219 1/1/219 39/1/219
f 227/1/220 201/1/220 40/1/221
f 229/1/222 228/1/223 115/1/224
f 228/1/225 229/1/226 96/1/227
f 229/1/228 95/1/229 97/1/230
f 230/1/231 98/1/231 96/1/232
f 231/1/233 230/1/233 97/1/233
f 230/1/234 231/1/234 118/1/234
f 231/1/235 117/1/235 115/1/236
f 231/1/237 228/1/238 116/1/239
f 233/1/95 232/1/95 33/1/95
f 232/1/94 233/1/94 36/1/94
f 233/1/240 35/1/240 31/1/240
f 234/1/241 32/1/241 36/1/241
f 235/1/242 234/1/242 31/1/242
f 235/1/243 30/1/243 32/1/243
f 232/1/244 235/1/244 29/1/244
f 235/1/245 232/1/245 34/1/245
f 237/1/246 236/1/247 87/1/247
f 236/1/248 237/1/249 94/1/250
f 237/1/251 93/1/252 111/1/253
f 237/1/254 238/1/255 112/1/256
f 239/1/257 238/1/258 111/1/259
f 239/1/260 108/1/260 112/1/261
f 236/1/262 239/1/262 107/1/262
f 239/1/263 236/1/263 88/1/263
f 241/1/264 240/1/264 81/1/264
f 241/1/265 84/1/265 82/1/265
f 242/1/266 241/1/266 83/1/266
f 241/1/267 242/1/267 80/1/267
f 243/1/268 242/1/268 79/1/268
f 242/1/269 243/1/269 78/1/269
f 243/1/270 77/1/270 81/1/270
f 240/1/271 82/1/271 78/1/271
f 245/1/272 244/1/272 1/1/272
f 244/1/273 245/1/273 8/1/273
f 246/1/274 245/1/274 7/1/274
f 245/1/275 246/1/275 38/1/275
f 247/1/276 246/1/276 37/1/276
f 246/1/277 247/1/277 40/1/277
f 247/1/278 39/1/278 1/1/278
f 244/1/279 2/1/279 40/1/279
f 249/1/280 248/1/280 87/1/280
f 248/1/281 249/1/281 108/1/281
f 250/1/282 249/1/282 107/1/282
f 249/1/283 250/1/283 104/1/283
f 251/1/284 250/1/284 103/1/284
f 251/1/285 86/1/285 104/1/285
f 251/1/286 85/1/286 87/1/286
f 248/1/287 88/1/287 86/1/287
f 252/1/288 59/1/288 15/1/288
f 253/1/289 16/1/289 60/1/289
f 254/1/290 253/1/290 15/1/290
f 253/1/291 254/1/291 14/1/291
f 255/1/292 254/1/292 13/1/292
f 254/1/293 255/1/293 58/1/293
f 252/1/294 255/1/294 57/1/294
f 255/1/295 252/1/295 60/1/295
f 256/1/296 117/1/296 97/1/296
f 256/1/297 257/1/297 98/1/297
f 258/1/298 257/1/298 97/1/298
f 257/1/299 258/1/299 100/1/299
f 258/1/300 99/1/300 119/1/300
f 258/1/301 259/1/301 120/1/301
f 259/1/302 119/1/302 117/1/302
f 256/1/303 118/1/303 120/1/303
f 261/1/304 260/1/304 89/1/304
f 260/1/305 261/1/305 86/1/305
f 262/1/306 261/1/306 85/1/306
f 261/1/307 262/1/307 104/1/307
f 262/1/308 103/1/308 105/1/308
f 263/1/309 106/1/309 104/1/309
f 260/1/310 263/1/310 105/1/310
f 263/1/311 260/1/311 90/1/311
f 264/1/312 101/1/312 91/1/312
f 265/1/313 92/1/313 102/1/313
f 266/1/314 265/1/314 91/1/314
f 265/1/315 266/1/315 110/1/315
f 267/1/316 266/1/316 109/1/316
f 266/1/317 267/1/317 122/1/318
f 264/1/319 267/1/319 121/1/319
f 267/1/320 264/1/320 102/1/320
f 269/1/321 268/1/322 115/1/323
f 268/1/324 269/1/325 112/1/326
f 270/1/327 269/1/328 111/1/329
f 269/1/330 270/1/331 94/1/332
f 271/1/333 270/1/334 93/1/335
f 270/1/336 271/1/337 96/1/338
f 271/1/339 95/1/340 115/1/341
f 271/1/342 268/1/343 116/1/344
f 273/1/345 272/1/345 39/1/345
f 272/1/346 273/1/346 38/1/346
f 274/1/347 273/1/347 37/1/347
f 273/1/348 274/1/348 60/1/348
f 275/1/349 274/1/349 59/1/349
f 274/1/350 275/1/350 58/1/350
f 275/1/351 57/1/351 39/1/351
f 272/1/352 40/1/352 58/1/352
f 276/1/353 119/1/353 99/1/353
f 277/1/354 100/1/354 120/1/354
f 278/1/355 277/1/355 99/1/355
f 277/1/356 278/1/356 102/1/356
f 279/1/357 278/1/357 101/1/357
f 278/1/358 279/1/358 122/1/358
f 279/1/359 121/1/359 119/1/359
f 276/1/360 120/1/361 122/1/360
f 280/1/362 63/1/362 71/1/362
f 280/1/363 281/1/363 72/1/363
f 282/1/364 281/1/364 71/1/364
f 282/1/365 76/1/366 72/1/365
f 283/1/367 282/1/367 75/1/367
f 283/1/368 80/1/368 76/1/368
f 284/1/369 283/1/369 79/1/369
f 284/1/370 84/1/370 80/1/370
f 284/1/371 83/1/371 21/1/371
f 284/1/372 285/1/372 22/1/372
f 286/1/373 285/1/373 21/1/373
f 286/1/374 24/1/374 22/1/374
f 286/1/375 23/1/375 99/1/375
f 286/1/376 287/1/376 100/1/376
f 287/1/377 99/1/377 97/1/377
f 287/1/378 288/1/378 98/1/378
f 289/1/379 288/1/380 97/1/380
f 289/1/381 96/1/382 98/1/383
f 289/1/384 95/1/385 93/1/386
f 290/1/387 94/1/388 96/1/389
f 290/1/390 93/1/391 87/1/392
f 291/1/393 88/1/393 94/1/394
f 291/1/395 87/1/395 85/1/396
f 291/1/397 292/1/397 86/1/397
f 293/1/398 292/1/398 85/1/398
f 293/1/399 90/1/399 86/1/399
f 294/1/400 293/1/400 89/1/400
f 293/1/401 294/1/401 92/1/401
f 295/1/402 294/1/402 91/1/402
f 295/1/403 102/1/403 92/1/403
f 296/1/404 295/1/404 101/1/404
f 296/1/405 50/1/405 102/1/405
f 296/1/150 49/1/150 45/1/150
f 296/1/406 297/1/406 46/1/406
f 298/1/407 297/1/407 45/1/407
f 298/1/408 42/1/408 46/1/408
f 299/1/409 298/1/409 41/1/409
f 299/1/410 10/1/410 42/1/410
f 299/1/411 9/1/411 15/1/411
f 299/1/412 300/1/412 16/1/412
f 300/1/413 15/1/413 59/1/413
f 300/1/414 301/1/414 60/1/414
f 302/1/415 301/1/415 59/1/415
f 302/1/416 38/1/416 60/1/416
f 303/1/417 302/1/417 37/1/417
f 303/1/418 8/1/418 38/1/418
f 304/1/419 303/1/419 7/1/419
f 303/1/420 304/1/420 6/1/420
f 304/1/421 5/1/421 65/1/421
f 304/1/422 305/1/422 66/1/422
f 280/1/423 305/1/423 65/1/423
f 280/1/424 64/1/424 66/1/424
f 124/1/1 45/1/1 47/1/1
f 124/1/2 46/1/2 123/1/2
f 124/1/3 43/1/3 125/1/3
f 125/1/4 48/1/4 124/1/4
f 126/1/5 43/1/5 41/1/5
f 125/1/6 42/1/6 44/1/6
f 123/1/7 41/1/7 45/1/7
f 126/1/8 46/1/8 42/1/8
f 128/1/9 63/1/9 61/1/9
f 127/1/10 62/1/10 64/1/10
f 129/1/11 61/1/11 67/1/11
f 128/1/12 68/1/12 62/1/12
f 130/1/13 67/1/13 71/1/13
f 129/1/14 72/1/14 68/1/14
f 130/1/15 63/1/15 127/1/15
f 127/1/16 72/1/16 130/1/16
f 132/1/17 5/1/17 7/1/17
f 131/1/18 8/1/18 6/1/18
f 133/1/19 7/1/19 1/1/19
f 132/1/425 2/1/425 8/1/425
f 134/1/21 1/1/21 3/1/21
f 133/1/22 4/1/22 2/1/22
f 131/1/23 3/1/23 5/1/23
f 134/1/426 6/1/426 4/1/426
f 136/1/25 29/1/25 31/1/25
f 136/1/26 30/1/26 135/1/26
f 137/1/27 31/1/27 27/1/27
f 136/1/28 28/1/28 32/1/28
f 138/1/427 27/1/427 25/1/427
f 137/1/30 26/1/30 28/1/30
f 138/1/31 29/1/31 135/1/31
f 135/1/32 26/1/32 138/1/32
f 140/1/428 3/1/428 69/1/428
f 139/1/34 70/1/34 4/1/34
f 141/1/429 69/1/429 65/1/429
f 140/1/430 66/1/430 70/1/430
f 141/1/431 5/1/431 142/1/431
f 142/1/38 66/1/38 141/1/38
f 139/1/432 5/1/432 3/1/432
f 142/1/40 4/1/40 6/1/40
f 144/1/41 73/1/41 75/1/41
f 143/1/433 76/1/433 74/1/433
f 145/1/43 75/1/43 71/1/43
f 144/1/434 72/1/434 76/1/434
f 146/1/46 71/1/46 67/1/46
f 145/1/47 68/1/47 72/1/47
f 146/1/48 73/1/48 143/1/48
f 143/1/435 68/1/435 146/1/435
f 147/1/50 61/1/50 148/1/50
f 148/1/436 70/1/436 147/1/436
f 149/1/52 61/1/52 63/1/52
f 148/1/53 64/1/53 62/1/53
f 150/1/54 63/1/54 65/1/54
f 149/1/437 66/1/437 64/1/437
f 147/1/438 65/1/438 69/1/438
f 150/1/57 70/1/57 66/1/57
f 152/1/58 91/1/58 89/1/58
f 151/1/59 90/1/59 92/1/59
f 153/1/439 89/1/439 105/1/439
f 152/1/61 106/1/61 90/1/61
f 154/1/62 105/1/62 109/1/62
f 153/1/63 110/1/63 106/1/63
f 151/1/440 109/1/440 91/1/440
f 154/1/65 92/1/65 110/1/65
f 155/1/441 121/1/441 156/1/441
f 155/1/68 122/1/68 120/1/68
f 156/1/442 51/1/442 157/1/442
f 156/1/443 52/1/443 122/1/443
f 158/1/71 51/1/71 55/1/71
f 158/1/72 52/1/72 157/1/72
f 159/1/73 55/1/73 33/1/73
f 158/1/74 34/1/74 56/1/74
f 159/1/75 29/1/75 160/1/75
f 159/1/444 30/1/444 34/1/444
f 160/1/445 25/1/445 161/1/445
f 160/1/446 26/1/446 30/1/446
f 162/1/447 25/1/447 19/1/447
f 162/1/81 26/1/81 161/1/81
f 155/1/448 19/1/448 119/1/448
f 155/1/449 20/1/449 162/1/449
f 164/1/85 51/1/85 47/1/85
f 164/1/450 52/1/450 163/1/450
f 164/1/87 45/1/87 165/1/87
f 164/1/88 46/1/88 48/1/88
f 165/1/90 49/1/90 166/1/90
f 165/1/451 50/1/451 46/1/451
f 167/1/72 49/1/72 53/1/72
f 167/1/93 50/1/93 166/1/93
f 168/1/452 53/1/452 55/1/452
f 167/1/453 56/1/453 54/1/453
f 168/1/96 51/1/96 163/1/96
f 168/1/97 52/1/97 56/1/97
f 170/1/454 19/1/454 23/1/454
f 169/1/99 24/1/99 20/1/99
f 170/1/100 21/1/100 171/1/100
f 171/1/101 24/1/101 170/1/101
f 172/1/102 21/1/102 17/1/102
f 171/1/455 18/1/455 22/1/455
f 169/1/104 17/1/104 19/1/104
f 172/1/105 20/1/105 18/1/105
f 173/1/456 11/1/456 174/1/456
f 174/1/107 44/1/107 173/1/107
f 175/1/108 11/1/108 9/1/108
f 174/1/109 10/1/109 12/1/109
f 176/1/457 9/1/457 41/1/457
f 175/1/111 42/1/111 10/1/111
f 173/1/112 41/1/112 43/1/112
f 176/1/113 44/1/113 42/1/113
f 178/1/114 13/1/114 15/1/114
f 177/1/115 16/1/115 14/1/115
f 178/1/116 9/1/116 179/1/116
f 179/1/117 16/1/117 178/1/117
f 180/1/118 9/1/118 11/1/118
f 179/1/119 12/1/119 10/1/119
f 177/1/120 11/1/120 13/1/120
f 180/1/121 14/1/121 12/1/121
f 182/1/122 25/1/122 27/1/122
f 181/1/458 28/1/458 26/1/458
f 183/1/124 27/1/124 23/1/124
f 183/1/459 28/1/459 182/1/459
f 184/1/460 23/1/460 19/1/460
f 183/1/461 20/1/461 24/1/461
f 184/1/128 25/1/128 181/1/128
f 184/1/462 26/1/462 20/1/462
f 186/1/463 17/1/463 21/1/463
f 185/1/464 22/1/464 18/1/464
f 186/1/132 83/1/132 187/1/132
f 187/1/465 22/1/465 186/1/466
f 187/1/134 81/1/134 188/1/134
f 188/1/135 84/1/135 187/1/135
f 185/1/136 81/1/136 17/1/136
f 188/1/467 18/1/467 82/1/467
f 190/1/468 49/1/468 101/1/468
f 190/1/469 50/1/470 189/1/470
f 191/1/471 101/1/471 99/1/471
f 191/1/141 102/1/141 190/1/141
f 191/1/472 23/1/472 192/1/472
f 191/1/473 24/1/473 100/1/473
f 192/1/474 27/1/474 193/1/474
f 192/1/475 28/1/475 24/1/145
f 194/1/476 27/1/476 31/1/476
f 194/1/477 28/1/477 193/1/477
f 195/1/148 31/1/148 35/1/148
f 195/1/478 32/1/478 194/1/478
f 196/1/74 35/1/74 53/1/74
f 195/1/73 54/1/73 36/1/73
f 196/1/150 49/1/150 189/1/150
f 196/1/96 50/1/96 54/1/96
f 198/1/479 77/1/479 79/1/479
f 198/1/152 78/1/152 197/1/152
f 199/1/153 79/1/153 75/1/153
f 198/1/480 76/1/480 80/1/480
f 200/1/155 75/1/155 73/1/155
f 199/1/481 74/1/481 76/1/481
f 200/1/158 77/1/158 197/1/158
f 197/1/482 74/1/482 200/1/482
f 201/1/161 57/1/161 202/1/161
f 201/1/162 58/1/162 40/1/162
f 203/1/483 57/1/483 13/1/483
f 203/1/164 58/1/164 202/1/164
f 204/1/165 13/1/165 11/1/165
f 204/1/166 14/1/166 203/1/166
f 204/1/484 43/1/484 205/1/484
f 204/1/485 44/1/485 12/1/485
f 205/1/169 47/1/169 206/1/169
f 205/1/170 48/1/170 44/1/170
f 207/1/71 47/1/71 51/1/71
f 207/1/172 48/1/172 206/1/172
f 207/1/486 121/1/486 208/1/486
f 207/1/487 122/1/487 52/1/487
f 208/1/176 109/1/176 209/1/176
f 208/1/488 110/1/488 122/1/488
f 210/1/489 109/1/489 105/1/489
f 209/1/179 106/1/179 110/1/179
f 210/1/180 103/1/180 211/1/180
f 210/1/181 104/1/181 106/1/181
f 212/1/490 103/1/490 107/1/490
f 212/1/183 104/1/183 211/1/183
f 212/1/491 111/1/491 213/1/491
f 212/1/185 112/1/185 108/1/185
f 214/1/492 111/1/492 113/1/492
f 214/1/493 112/1/493 213/1/494
f 214/1/495 115/1/495 215/1/495
f 214/1/496 116/1/497 114/1/496
f 215/1/498 117/1/498 216/1/498
f 216/1/499 116/1/500 215/1/499
f 217/1/194 117/1/194 119/1/194
f 217/1/195 118/1/195 216/1/195
f 218/1/501 119/1/501 19/1/501
f 218/1/502 120/1/502 217/1/502
f 218/1/503 17/1/503 219/1/503
f 218/1/200 18/1/200 20/1/200
f 220/1/504 17/1/504 81/1/504
f 220/1/202 18/1/202 219/1/202
f 220/1/505 77/1/505 221/1/505
f 220/1/204 78/1/204 82/1/204
f 221/1/205 73/1/205 222/1/205
f 221/1/506 74/1/506 78/1/506
f 222/1/507 67/1/507 223/1/507
f 222/1/508 68/1/508 74/1/508
f 224/1/210 67/1/210 61/1/210
f 224/1/211 68/1/211 223/1/211
f 224/1/212 69/1/212 225/1/212
f 224/1/213 70/1/213 62/1/213
f 226/1/509 69/1/509 3/1/509
f 226/1/510 70/1/510 225/1/510
f 227/1/217 3/1/217 1/1/217
f 227/1/218 4/1/218 226/1/218
f 227/1/511 39/1/511 201/1/511
f 227/1/512 40/1/512 2/1/512
f 229/1/513 115/1/514 95/1/515
f 228/1/225 96/1/516 116/1/517
f 229/1/518 97/1/230 230/1/230
f 230/1/519 96/1/520 229/1/521
f 231/1/233 97/1/233 117/1/233
f 230/1/522 118/1/522 98/1/522
f 231/1/523 115/1/524 228/1/525
f 231/1/526 116/1/527 118/1/526
f 233/1/453 33/1/453 35/1/453
f 232/1/452 36/1/452 34/1/452
f 233/1/528 31/1/528 234/1/528
f 234/1/529 36/1/529 233/1/529
f 235/1/530 31/1/530 29/1/530
f 235/1/243 32/1/243 234/1/243
f 232/1/531 29/1/531 33/1/531
f 235/1/532 34/1/532 30/1/532
f 237/1/533 87/1/247 93/1/534
f 236/1/535 94/1/536 88/1/535
f 237/1/537 111/1/253 238/1/538
f 237/1/539 112/1/540 94/1/541
f 239/1/257 111/1/542 107/1/257
f 239/1/543 112/1/544 238/1/545
f 236/1/262 107/1/262 87/1/262
f 239/1/546 88/1/546 108/1/546
f 241/1/264 81/1/264 83/1/264
f 241/1/265 82/1/265 240/1/265
f 242/1/266 83/1/266 79/1/266
f 241/1/547 80/1/547 84/1/547
f 243/1/268 79/1/268 77/1/268
f 242/1/269 78/1/269 80/1/269
f 243/1/270 81/1/270 240/1/270
f 240/1/548 78/1/548 243/1/548
f 245/1/549 1/1/549 7/1/549
f 244/1/273 8/1/273 2/1/273
f 246/1/550 7/1/550 37/1/550
f 245/1/275 38/1/275 8/1/275
f 247/1/276 37/1/276 39/1/276
f 246/1/277 40/1/277 38/1/277
f 247/1/551 1/1/551 244/1/551
f 244/1/279 40/1/279 247/1/279
f 249/1/280 87/1/280 107/1/280
f 248/1/281 108/1/281 88/1/281
f 250/1/282 107/1/282 103/1/282
f 249/1/283 104/1/283 108/1/283
f 251/1/284 103/1/284 85/1/284
f 251/1/552 104/1/552 250/1/552
f 251/1/286 87/1/286 248/1/286
f 248/1/287 86/1/287 251/1/287
f 252/1/288 15/1/288 253/1/288
f 253/1/553 60/1/553 252/1/553
f 254/1/290 15/1/290 13/1/290
f 253/1/291 14/1/291 16/1/291
f 255/1/292 13/1/292 57/1/292
f 254/1/293 58/1/293 14/1/293
f 252/1/294 57/1/294 59/1/294
f 255/1/295 60/1/295 58/1/295
f 256/1/296 97/1/296 257/1/296
f 256/1/297 98/1/297 118/1/297
f 258/1/554 97/1/554 99/1/298
f 257/1/555 100/1/555 98/1/555
f 258/1/300 119/1/300 259/1/300
f 258/1/556 120/1/556 100/1/556
f 259/1/557 117/1/557 256/1/557
f 256/1/558 120/1/558 259/1/558
f 261/1/559 89/1/559 85/1/559
f 260/1/305 86/1/305 90/1/305
f 262/1/306 85/1/306 103/1/306
f 261/1/307 104/1/307 86/1/307
f 262/1/560 105/1/560 263/1/560
f 263/1/309 104/1/309 262/1/309
f 260/1/310 105/1/310 89/1/310
f 263/1/311 90/1/311 106/1/311
f 264/1/312 91/1/312 265/1/561
f 265/1/562 102/1/562 264/1/313
f 266/1/563 91/1/563 109/1/563
f 265/1/315 110/1/315 92/1/315
f 267/1/564 109/1/564 121/1/564
f 266/1/317 122/1/318 110/1/317
f 264/1/319 121/1/319 101/1/319
f 267/1/320 102/1/320 122/1/320
f 269/1/565 115/1/566 111/1/567
f 268/1/568 112/1/569 116/1/570
f 270/1/571 111/1/572 93/1/573
f 269/1/330 94/1/332 112/1/574
f 271/1/575 93/1/335 95/1/576
f 270/1/577 96/1/578 94/1/579
f 271/1/580 115/1/341 268/1/581
f 271/1/582 116/1/583 96/1/584
f 273/1/345 39/1/345 37/1/345
f 272/1/346 38/1/346 40/1/346
f 274/1/585 37/1/585 59/1/585
f 273/1/348 60/1/348 38/1/348
f 275/1/349 59/1/349 57/1/349
f 274/1/350 58/1/350 60/1/350
f 275/1/351 39/1/351 272/1/351
f 272/1/352 58/1/352 275/1/352
f 276/1/353 99/1/353 277/1/353
f 277/1/354 120/1/354 276/1/354
f 278/1/586 99/1/586 101/1/586
f 277/1/587 102/1/587 100/1/587
f 279/1/357 101/1/357 121/1/357
f 278/1/588 122/1/588 102/1/588
f 279/1/589 119/1/589 276/1/589
f 276/1/590 122/1/590 279/1/590
f 280/1/362 71/1/362 281/1/362
f 280/1/363 72/1/363 64/1/363
f 282/1/591 71/1/591 75/1/591
f 282/1/592 72/1/592 281/1/592
f 283/1/367 75/1/367 79/1/367
f 283/1/593 76/1/593 282/1/593
f 284/1/594 79/1/594 83/1/594
f 284/1/370 80/1/370 283/1/370
f 284/1/595 21/1/595 285/1/595
f 284/1/372 22/1/372 84/1/372
f 286/1/596 21/1/596 23/1/596
f 286/1/374 22/1/374 285/1/374
f 286/1/597 99/1/598 287/1/599
f 286/1/600 100/1/600 24/1/600
f 287/1/377 97/1/601 288/1/601
f 287/1/378 98/1/378 100/1/378
f 289/1/602 97/1/603 95/1/604
f 289/1/605 98/1/606 288/1/607
f 289/1/608 93/1/609 290/1/610
f 290/1/611 96/1/612 289/1/613
f 290/1/390 87/1/392 291/1/392
f 291/1/393 94/1/614 290/1/615
f 291/1/616 85/1/616 292/1/616
f 291/1/397 86/1/397 88/1/397
f 293/1/398 85/1/398 89/1/398
f 293/1/399 86/1/399 292/1/399
f 294/1/617 89/1/617 91/1/617
f 293/1/401 92/1/401 90/1/401
f 295/1/402 91/1/402 101/1/402
f 295/1/618 92/1/618 294/1/618
f 296/1/619 101/1/620 49/1/620
f 296/1/621 102/1/621 295/1/621
f 296/1/622 45/1/622 297/1/622
f 296/1/406 46/1/406 50/1/406
f 298/1/407 45/1/407 41/1/407
f 298/1/408 46/1/408 297/1/408
f 299/1/409 41/1/409 9/1/409
f 299/1/623 42/1/623 298/1/623
f 299/1/411 15/1/411 300/1/411
f 299/1/412 16/1/412 10/1/412
f 300/1/624 59/1/624 301/1/624
f 300/1/414 60/1/414 16/1/414
f 302/1/415 59/1/415 37/1/415
f 302/1/416 60/1/416 301/1/416
f 303/1/625 37/1/625 7/1/625
f 303/1/626 38/1/626 302/1/626
f 304/1/419 7/1/419 5/1/419
f 303/1/420 6/1/420 8/1/420
f 304/1/627 65/1/627 305/1/628
f 304/1/629 66/1/629 6/1/629
f 280/1/423 65/1/423 63/1/423
f 280/1/424 66/1/424 305/1/424
