# Blender 5.2.0 LTS
# www.blender.org
mtllib glass rpg rocket head.mtl
o rocket_head
v -1.686691 -0.053334 -0.053334
v -1.687593 -0.054596 -0.054596
v -1.704152 -0.000000 -0.040026
v -1.706072 -0.000000 -0.040585
v -1.686691 -0.000000 -0.075426
v -1.687612 0.000000 -0.077201
v -1.686691 0.053335 -0.053334
v -1.687593 0.054597 -0.054596
v -1.686691 0.075426 -0.000000
v -1.687612 0.077201 0.000000
v -1.704152 -0.040025 0.000000
v -1.706072 -0.040584 0.000000
v -1.686691 -0.075426 0.000000
v -1.687612 -0.077201 -0.000000
v -1.686691 -0.053334 0.053334
v -1.687593 -0.054596 0.054596
v -1.704152 0.040026 -0.000000
v -1.706072 0.040585 -0.000000
v -1.686691 0.053335 0.053334
v -1.687593 0.054597 0.054596
v -1.704152 0.000000 0.040026
v -1.706072 -0.000000 0.040585
v -1.686691 0.000000 0.075426
v -1.687612 -0.000000 0.077201
v 1.704152 -0.078563 0.078563
v 1.705352 -0.079694 0.079694
v 1.704152 -0.111105 0.000000
v 1.705352 -0.112705 0.000000
v 1.704152 -0.078563 -0.078563
v 1.705352 -0.079694 -0.079694
v 1.704152 0.000000 0.096421
v 1.706152 0.000000 0.096421
v 1.704152 -0.000000 -0.096421
v 1.706152 -0.000000 -0.096421
v 1.704152 0.000000 0.111105
v 1.705352 0.000000 0.112705
v 1.704152 -0.000000 -0.111105
v 1.705352 -0.000000 -0.112705
v 1.704152 0.078563 0.078563
v 1.705352 0.079694 0.079694
v 1.704152 0.078563 -0.078563
v 1.705352 0.079694 -0.079694
v 1.704152 0.111105 -0.000000
v 1.705352 0.112705 -0.000000
v 0.537707 0.126580 -0.000000
v 0.537920 0.128569 -0.000000
v 0.765903 0.089506 0.089506
v 0.765250 0.090843 0.090843
v 0.765903 0.126580 -0.000000
v 0.765250 0.128470 -0.000000
v 0.537707 0.089506 0.089506
v 0.537920 0.090912 0.090912
v 0.537707 0.089506 -0.089506
v 0.537920 0.090912 -0.090912
v 0.765903 0.000000 0.126580
v 0.765250 0.000000 0.128470
v 0.765903 0.089506 -0.089506
v 0.765250 0.090843 -0.090843
v -0.247375 0.292630 -0.000000
v -0.247172 0.294620 -0.000000
v 0.537707 0.000000 0.126580
v 0.537920 0.000000 0.128569
v 0.765903 -0.089506 0.089506
v 0.765250 -0.090843 0.090843
v 0.537707 -0.000000 -0.126580
v 0.537920 -0.000000 -0.128569
v 0.765903 -0.000000 -0.126580
v 0.765250 -0.000000 -0.128470
v 0.537707 -0.089506 0.089506
v 0.537920 -0.090912 0.090912
v 0.537707 -0.089506 -0.089506
v 0.537920 -0.090912 -0.090912
v 0.765903 -0.126580 0.000000
v 0.765250 -0.128470 0.000000
v -0.247375 -0.000000 -0.292630
v -0.247172 -0.000000 -0.294620
v 0.765903 -0.089506 -0.089506
v 0.765250 -0.090843 -0.090843
v 0.537707 -0.126580 0.000000
v 0.537920 -0.128569 0.000000
v -0.247375 -0.292630 0.000000
v -0.247172 -0.294620 0.000000
v -0.247375 -0.206921 -0.206921
v -0.247172 -0.208328 -0.208328
v -0.247375 -0.206921 0.206921
v -0.247172 -0.208328 0.208328
v -0.583133 -0.206920 -0.206921
v -0.583347 -0.208326 -0.208327
v -0.583133 -0.292630 0.000000
v -0.583347 -0.294618 0.000000
v -0.583133 -0.206920 0.206921
v -0.583347 -0.208326 0.208327
v -0.247375 0.000000 0.292630
v -0.247172 0.000000 0.294620
v -0.247375 0.206921 0.206921
v -0.247172 0.208328 0.208328
v -0.583133 0.000000 0.292630
v -0.583347 0.000000 0.294618
v -1.552551 -0.053334 0.053334
v -1.552777 -0.054739 0.054739
v -0.583133 0.206921 0.206921
v -0.583347 0.208327 0.208327
v -0.583133 0.292630 -0.000000
v -0.583347 0.294618 -0.000000
v -1.552551 0.053335 0.053334
v -1.552777 0.054740 0.054739
v -1.552551 0.000000 0.075426
v -1.552777 0.000000 0.077413
v -1.552551 -0.075426 0.000000
v -1.552777 -0.077413 0.000000
v -1.552551 -0.053334 -0.053334
v -1.552777 -0.054739 -0.054739
v -1.552551 0.075426 -0.000000
v -1.552777 0.077413 -0.000000
v -1.552551 0.053335 -0.053334
v -1.552777 0.054740 -0.054739
v -1.552551 -0.000000 -0.075426
v -1.552777 -0.000000 -0.077413
v -0.583133 -0.000000 -0.292630
v -0.583347 -0.000000 -0.294618
v -0.583133 0.206921 -0.206921
v -0.583347 0.208327 -0.208327
v -0.247375 0.206921 -0.206921
v -0.247172 0.208328 -0.208328
v 0.971501 0.124480 0.124480
v 0.972701 0.125611 0.125611
v 0.971501 0.096226 -0.000000
v 0.972701 0.097826 -0.000000
v 0.971501 0.176042 -0.000000
v 0.972701 0.177642 -0.000000
v 0.971501 0.124480 -0.124480
v 0.972701 0.125611 -0.125611
v 0.971501 0.068042 0.068042
v 0.972701 0.069173 0.069173
v 0.971501 0.068042 -0.068042
v 0.972701 0.069173 -0.069173
v 0.971501 0.000000 0.096226
v 0.973063 0.000000 0.097475
v 0.971501 -0.000000 -0.096226
v 0.973063 -0.000000 -0.097475
v 0.971501 0.000000 0.176042
v 0.972701 0.000000 0.177642
v 0.971501 -0.000000 -0.176042
v 0.972701 -0.000000 -0.177642
v 0.971501 -0.124480 0.124480
v 0.972701 -0.125611 0.125611
v 0.971501 -0.124480 -0.124480
v 0.972701 -0.125611 -0.125611
v 0.971501 -0.068042 0.068042
v 0.972701 -0.069173 0.069173
v 0.971501 -0.068042 -0.068042
v 0.972701 -0.069173 -0.069173
v 0.971501 -0.096226 0.000000
v 0.972701 -0.097826 0.000000
v 0.971501 -0.176042 0.000000
v 0.972701 -0.177642 0.000000
v 0.834803 0.124480 -0.124480
v 0.834238 0.125837 -0.125837
v 0.834803 0.176042 -0.000000
v 0.834238 0.177961 -0.000000
v 0.834803 -0.000000 -0.176042
v 0.834238 -0.000000 -0.177961
v 0.834803 0.124480 0.124480
v 0.834238 0.125837 0.125837
v 0.834803 -0.124480 -0.124480
v 0.834238 -0.125837 -0.125837
v 0.834803 0.000000 0.176042
v 0.834238 0.000000 0.177961
v 0.834803 -0.176042 0.000000
v 0.834238 -0.177961 0.000000
v 0.834803 -0.124480 0.124480
v 0.834238 -0.125837 0.125837
v 1.572859 -0.000000 -0.111105
v 1.571659 -0.000000 -0.112705
v 1.572859 -0.078563 -0.078563
v 1.571659 -0.079694 -0.079694
v 1.572859 -0.111105 0.000000
v 1.571659 -0.112705 0.000000
v 1.572859 0.078563 -0.078563
v 1.571659 0.079694 -0.079694
v 1.572859 -0.078563 0.078563
v 1.571659 -0.079694 0.079694
v 1.572859 0.111105 -0.000000
v 1.571659 0.112705 -0.000000
v 1.572859 0.000000 0.111105
v 1.571659 0.000000 0.112705
v 1.572859 0.078563 0.078563
v 1.571659 0.079694 0.079694
v 1.572859 -0.000000 -0.096226
v 1.571297 -0.000000 -0.097475
v 1.572859 0.068042 -0.068042
v 1.571659 0.069173 -0.069173
v 1.572859 0.096226 -0.000000
v 1.571659 0.097826 -0.000000
v 1.572859 -0.068042 -0.068042
v 1.571659 -0.069173 -0.069173
v 1.572859 0.068042 0.068042
v 1.571659 0.069173 0.069173
v 1.572859 -0.096226 0.000000
v 1.571659 -0.097826 0.000000
v 1.572859 0.000000 0.096226
v 1.571297 0.000000 0.097475
v 1.572859 -0.068042 0.068042
v 1.571659 -0.069173 0.069173
v -1.704540 -0.040550 0.000915
v -1.687622 -0.074951 0.000984
v -1.687142 -0.053200 0.053200
v -1.687622 -0.000984 0.074951
v -1.704540 -0.000915 0.040551
v 1.703752 -0.111522 0.000924
v 1.703752 -0.079511 0.078205
v 1.573259 -0.079511 0.078205
v 1.573259 -0.111522 0.000924
v -1.705112 0.000000 -0.038891
v -1.705112 -0.038890 0.000000
v -1.705112 0.000000 0.038891
v -1.705112 0.038891 -0.000000
v -1.687142 -0.053200 -0.053200
v -1.687622 -0.074951 -0.000984
v -1.704540 -0.040550 -0.000915
v -1.704540 -0.000915 -0.040551
v -1.687622 -0.000984 -0.074951
v -1.687142 0.053201 0.053200
v -1.687622 0.074951 0.000984
v -1.704540 0.040551 0.000915
v -1.704540 0.000915 0.040551
v -1.687622 0.000984 0.074951
v 1.705152 0.001000 -0.096421
v 1.704752 0.001000 -0.110408
v 1.704752 0.078363 -0.078363
v 1.704752 0.110823 -0.000000
v 1.704752 0.078363 0.078363
v 1.704752 0.001000 0.110408
v 1.705152 0.001000 0.096421
v 1.705152 -0.001000 0.096421
v 1.704752 -0.001000 0.110408
v 1.704752 -0.078363 0.078363
v 1.704752 -0.110823 0.000000
v 1.704752 -0.078363 -0.078363
v 1.704752 -0.001000 -0.110408
v 1.705152 -0.001000 -0.096421
v 0.971101 -0.125428 -0.124122
v 0.971101 -0.176459 -0.000924
v 0.835520 -0.176619 -0.000924
v 0.835520 -0.125541 -0.124234
v 0.538814 -0.127192 0.000924
v 0.764576 -0.127142 0.000924
v 0.764576 -0.090557 0.089250
v 0.538814 -0.090592 0.089285
v -0.246292 -0.207862 -0.206551
v 0.536832 -0.090740 -0.089429
v 0.536832 -0.127398 -0.000927
v -0.246292 -0.293033 -0.000927
v 0.536832 -0.090740 0.089429
v -0.246292 -0.207862 0.206551
v -0.246292 -0.293033 0.000927
v 0.536832 -0.127398 0.000927
v -1.686151 -0.075931 0.000924
v -1.553664 -0.076037 0.000924
v -1.553664 -0.054419 0.053113
v -1.686142 -0.054348 0.053041
v 0.538814 -0.089285 0.090592
v 0.764576 -0.089250 0.090557
v 0.764576 -0.000924 0.127142
v 0.538814 -0.000924 0.127192
v 1.571259 -0.067684 -0.068990
v 0.973101 -0.067684 -0.068990
v 0.973282 -0.000924 -0.096468
v 1.571078 -0.000924 -0.096468
v 0.538814 -0.090592 -0.089285
v 0.764576 -0.090557 -0.089250
v 0.764576 -0.127142 -0.000924
v 0.538814 -0.127192 -0.000924
v 0.536832 0.090740 -0.089429
v -0.246292 0.207862 -0.206551
v -0.246292 0.293033 -0.000927
v 0.536832 0.127398 -0.000927
v -1.551685 0.053266 -0.054576
v -0.584219 0.206542 -0.207853
v -0.584219 0.000927 -0.293021
v -1.551685 0.000927 -0.076255
v -0.582240 -0.000924 -0.293242
v -0.248273 -0.000924 -0.293242
v -0.248273 -0.206701 -0.208007
v -0.582240 -0.206699 -0.208007
v 0.536832 -0.000927 0.127398
v -0.246292 -0.000927 0.293033
v -0.246292 -0.206551 0.207862
v 0.536832 -0.089429 0.090740
v 0.536832 0.089429 0.090740
v -0.246292 0.206551 0.207862
v -0.246292 0.000927 0.293033
v 0.536832 0.000927 0.127398
v -0.248273 -0.000924 0.293242
v -0.582240 -0.000924 0.293242
v -0.582240 -0.206699 0.208007
v -0.248273 -0.206701 0.208007
v -0.246292 0.293033 0.000927
v -0.246292 0.207862 0.206551
v 0.536832 0.090740 0.089429
v 0.536832 0.127398 0.000927
v -0.582240 -0.208006 -0.206700
v -0.248273 -0.208007 -0.206701
v -0.248273 -0.293242 -0.000924
v -0.582240 -0.293242 -0.000924
v -0.246292 0.206551 -0.207862
v 0.536832 0.089429 -0.090740
v 0.536832 0.000927 -0.127398
v -0.246292 0.000927 -0.293033
v -0.582240 -0.293242 0.000924
v -0.248273 -0.293242 0.000924
v -0.248273 -0.208007 0.206701
v -0.582240 -0.208006 0.206700
v 0.536832 -0.089429 -0.090740
v -0.246292 -0.206551 -0.207862
v -0.246292 -0.000927 -0.293033
v 0.536832 -0.000927 -0.127398
v -0.584219 -0.206541 -0.207853
v -1.551685 -0.053265 -0.054576
v -1.551685 -0.000927 -0.076255
v -0.584219 -0.000927 -0.293021
v -0.584219 0.293021 0.000927
v -1.551685 0.076255 0.000927
v -1.551685 0.054577 0.053265
v -0.584219 0.207853 0.206542
v 1.703752 -0.079511 -0.078205
v 1.703752 -0.111522 -0.000924
v 1.573259 -0.111522 -0.000924
v 1.573259 -0.079511 -0.078205
v 0.764576 0.000924 -0.127142
v 0.538814 0.000924 -0.127192
v 0.538814 0.089285 -0.090592
v 0.764576 0.089250 -0.090557
v -1.551685 -0.054576 -0.053265
v -0.584219 -0.207852 -0.206542
v -0.584219 -0.293021 -0.000927
v -1.551685 -0.076255 -0.000927
v -0.584219 0.293021 -0.000927
v -0.584219 0.207853 -0.206542
v -1.551685 0.054577 -0.053265
v -1.551685 0.076255 -0.000927
v 0.971101 0.124122 -0.125428
v 0.971101 0.000924 -0.176459
v 0.835520 0.000924 -0.176619
v 0.835520 0.124234 -0.125541
v -1.686142 -0.053041 0.054348
v -1.553664 -0.053113 0.054419
v -1.553664 -0.000924 0.076037
v -1.686151 -0.000924 0.075931
v -0.582240 0.206700 -0.208007
v -0.248273 0.206701 -0.208007
v -0.248273 0.000924 -0.293242
v -0.582240 0.000924 -0.293242
v -0.248273 0.293242 -0.000924
v -0.248273 0.208007 -0.206701
v -0.582240 0.208007 -0.206700
v -0.582240 0.293242 -0.000924
v -1.551685 -0.076255 0.000927
v -0.584219 -0.293021 0.000927
v -0.584219 -0.207852 0.206542
v -1.551685 -0.054576 0.053265
v -0.582240 0.293242 0.000924
v -0.582240 0.208007 0.206700
v -0.248273 0.208007 0.206701
v -0.248273 0.293242 0.000924
v 1.573259 0.078205 -0.079511
v 1.703752 0.078205 -0.079511
v 1.703752 0.000924 -0.111522
v 1.573259 0.000924 -0.111522
v 0.766410 -0.089650 0.090990
v 0.833687 -0.123787 0.125128
v 0.833687 -0.000948 0.176010
v 0.766410 -0.000948 0.127731
v 1.703752 -0.000924 -0.111522
v 1.703752 -0.078205 -0.079511
v 1.573259 -0.078205 -0.079511
v 1.573259 -0.000924 -0.111522
v 1.571259 -0.068990 0.067684
v 0.973101 -0.068990 0.067684
v 0.973101 -0.096643 0.000924
v 1.571259 -0.096643 0.000924
v -0.584219 -0.000927 0.293021
v -1.551685 -0.000927 0.076255
v -1.551685 -0.053265 0.054576
v -0.584219 -0.206541 0.207853
v -1.551685 0.000927 0.076255
v -0.584219 0.000927 0.293021
v -0.584219 0.206542 0.207853
v -1.551685 0.053266 0.054576
v -1.553664 0.054420 0.053113
v -1.553664 0.076037 0.000924
v -1.686151 0.075931 0.000924
v -1.686142 0.054349 0.053041
v -1.553664 0.053114 0.054419
v -1.686142 0.053042 0.054348
v -1.686151 0.000924 0.075931
v -1.553664 0.000924 0.076037
v 1.572259 0.078363 0.078363
v 1.572259 0.110823 -0.000000
v 1.572259 0.078363 -0.078363
v 1.572259 0.001000 -0.110408
v 1.572078 0.001000 -0.097519
v 1.572259 0.069373 -0.069373
v 1.572259 0.098108 -0.000000
v 1.572259 0.069373 0.069373
v 1.572078 0.001000 0.097519
v 1.572259 0.001000 0.110408
v 1.572259 -0.110823 0.000000
v 1.572259 -0.078363 0.078363
v 1.572259 -0.001000 0.110408
v 1.572078 -0.001000 0.097519
v 1.572259 -0.069373 0.069373
v 1.572259 -0.098108 0.000000
v 1.572259 -0.069373 -0.069373
v 1.572078 -0.001000 -0.097519
v 1.572259 -0.001000 -0.110408
v 1.572259 -0.078363 -0.078363
v 0.972101 0.098108 -0.000000
v 0.972101 0.069373 -0.069373
v 0.972282 0.001000 -0.097519
v 0.972101 0.001000 -0.175345
v 0.972101 0.124280 -0.124280
v 0.972101 0.175760 -0.000000
v 0.972101 0.124280 0.124280
v 0.972101 0.001000 0.175345
v 0.972282 0.001000 0.097519
v 0.972101 0.069373 0.069373
v 0.972282 -0.001000 -0.097519
v 0.972101 -0.069373 -0.069373
v 0.972101 -0.098108 0.000000
v 0.972101 -0.069373 0.069373
v 0.972282 -0.001000 0.097519
v 0.972101 -0.001000 0.175345
v 0.972101 -0.124280 0.124280
v 0.972101 -0.175760 0.000000
v 0.972101 -0.124280 -0.124280
v 0.972101 -0.001000 -0.175345
v 0.538814 0.127192 0.000924
v 0.538814 0.090592 0.089285
v 0.764576 0.090557 0.089250
v 0.764576 0.127142 0.000924
v 0.835520 0.125541 -0.124234
v 0.835520 0.176619 -0.000924
v 0.971101 0.176459 -0.000924
v 0.971101 0.125428 -0.124122
v 0.835520 0.000924 0.176619
v 0.971101 0.000924 0.176459
v 0.971101 0.124122 0.125428
v 0.835520 0.124234 0.125541
v 0.835520 -0.176619 0.000924
v 0.971101 -0.176459 0.000924
v 0.971101 -0.125428 0.124122
v 0.835520 -0.125541 0.124234
v 0.971101 -0.000924 -0.176459
v 0.971101 -0.124122 -0.125428
v 0.835520 -0.124234 -0.125541
v 0.835520 -0.000924 -0.176619
v 0.835520 0.176619 0.000924
v 0.835520 0.125541 0.124234
v 0.971101 0.125428 0.124122
v 0.971101 0.176459 0.000924
v 0.764576 0.127142 -0.000924
v 0.764576 0.090557 -0.089250
v 0.538814 0.090592 -0.089285
v 0.538814 0.127192 -0.000924
v 0.835520 -0.124234 0.125541
v 0.971101 -0.124122 0.125428
v 0.971101 -0.000924 0.176459
v 0.835520 -0.000924 0.176619
v -1.553664 -0.053113 -0.054419
v -1.686142 -0.053041 -0.054348
v -1.686151 -0.000924 -0.075931
v -1.553664 -0.000924 -0.076037
v -1.553664 0.000924 -0.076037
v -1.686151 0.000924 -0.075931
v -1.686142 0.053042 -0.054348
v -1.553664 0.053114 -0.054419
v -1.553664 0.076037 -0.000924
v -1.553664 0.054420 -0.053113
v -1.686142 0.054349 -0.053041
v -1.686151 0.075931 -0.000924
v -0.582240 0.000924 0.293242
v -0.248273 0.000924 0.293242
v -0.248273 0.206701 0.208007
v -0.582240 0.206700 0.208007
v 0.764576 -0.089250 -0.090557
v 0.538814 -0.089285 -0.090592
v 0.538814 -0.000924 -0.127192
v 0.764576 -0.000924 -0.127142
v 0.538814 0.000924 0.127192
v 0.764576 0.000924 0.127142
v 0.764576 0.089250 0.090557
v 0.538814 0.089285 0.090592
v 0.973101 0.067684 -0.068990
v 1.571259 0.067684 -0.068990
v 1.571078 0.000924 -0.096468
v 0.973282 0.000924 -0.096468
v 0.973101 0.096643 0.000924
v 0.973101 0.068990 0.067684
v 1.571259 0.068990 0.067684
v 1.571259 0.096643 0.000924
v 1.573259 0.000924 0.111522
v 1.703752 0.000924 0.111522
v 1.703752 0.078205 0.079511
v 1.573259 0.078205 0.079511
v 1.703752 -0.078205 0.079511
v 1.703752 -0.000924 0.111522
v 1.573259 -0.000924 0.111522
v 1.573259 -0.078205 0.079511
v 1.573259 0.111522 0.000924
v 1.573259 0.079511 0.078205
v 1.703752 0.079511 0.078205
v 1.703752 0.111522 0.000924
v -1.686142 -0.054348 -0.053041
v -1.553664 -0.054419 -0.053113
v -1.553664 -0.076037 -0.000924
v -1.686151 -0.075931 -0.000924
v 1.571259 -0.096643 -0.000924
v 0.973101 -0.096643 -0.000924
v 0.973101 -0.068990 -0.067684
v 1.571259 -0.068990 -0.067684
v 0.973101 0.068990 -0.067684
v 0.973101 0.096643 -0.000924
v 1.571259 0.096643 -0.000924
v 1.571259 0.068990 -0.067684
v 1.573259 0.079511 -0.078205
v 1.573259 0.111522 -0.000924
v 1.703752 0.111522 -0.000924
v 1.703752 0.079511 -0.078205
v 0.973282 0.000924 0.096468
v 1.571078 0.000924 0.096468
v 1.571259 0.067684 0.068990
v 0.973101 0.067684 0.068990
v 0.766410 -0.000948 -0.127731
v 0.833687 -0.000948 -0.176010
v 0.833687 -0.123787 -0.125128
v 0.766410 -0.089650 -0.090990
v 0.766410 -0.127731 0.000948
v 0.833687 -0.176010 0.000948
v 0.833687 -0.125128 0.123787
v 0.766410 -0.090990 0.089650
v 0.766410 -0.090990 -0.089650
v 0.833687 -0.125128 -0.123787
v 0.833687 -0.176010 -0.000948
v 0.766410 -0.127731 -0.000948
v 0.833687 0.000948 0.176010
v 0.833687 0.123787 0.125128
v 0.766410 0.089650 0.090990
v 0.766410 0.000948 0.127731
v 0.833687 0.176010 -0.000948
v 0.833687 0.125128 -0.123787
v 0.766410 0.090990 -0.089650
v 0.766410 0.127731 -0.000948
v 0.833687 0.000948 -0.176010
v 0.766410 0.000948 -0.127731
v 0.766410 0.089650 -0.090990
v 0.833687 0.123787 -0.125128
v 0.833687 0.176010 0.000948
v 0.766410 0.127731 0.000948
v 0.766410 0.090990 0.089650
v 0.833687 0.125128 0.123787
v 1.571078 -0.000924 0.096468
v 0.973282 -0.000924 0.096468
v 0.973101 -0.067684 0.068990
v 1.571259 -0.067684 0.068990
v -1.687142 0.053201 -0.053200
v -1.687622 0.000984 -0.074951
v -1.704540 0.000915 -0.040551
v -1.704540 0.040551 -0.000915
v -1.687622 0.074951 -0.000984
vn 0.3567 -0.7928 -0.4942
vn -0.2919 0.3879 -0.8743
vn -0.9758 -0.2121 -0.0534
vn 0.5292 0.8451 -0.0757
vn 0.9034 0.4287 -0.0000
vn -0.5040 -0.8637 -0.0000
vn -0.3602 -0.6515 0.6677
vn 0.6424 -0.5420 0.5418
vn 0.5880 0.5720 -0.5719
vn 0.3567 0.4943 0.7927
vn 0.5292 0.0757 -0.8451
vn -0.5474 0.0660 0.8343
vn -0.9604 0.0421 0.2755
vn -0.2407 0.8890 -0.3897
vn 0.9226 -0.0704 -0.3793
vn 0.6863 0.5983 0.4137
vn 0.6863 0.1305 -0.7155
vn 0.4476 -0.8942 -0.0000
vn -0.6416 0.5423 -0.5424
vn -0.6863 0.5982 0.4137
vn 0.4476 -0.6323 0.6323
vn 0.6416 0.5424 -0.5424
vn -0.6863 0.1304 -0.7156
vn -0.4476 -0.6323 0.6323
vn 0.6416 0.7670 -0.0000
vn -0.4476 -0.8942 -0.0000
vn -0.6416 0.7670 -0.0000
vn 0.1127 -0.9936 -0.0000
vn 0.2154 -0.0325 -0.9760
vn -0.9797 -0.0420 -0.1959
vn 0.2084 0.0410 0.9772
vn -0.9839 0.1786 0.0001
vn 0.2085 0.9772 0.0409
vn 0.9114 -0.4081 0.0524
vn 0.9035 -0.0016 0.4286
vn 0.3567 -0.7928 0.4943
vn 0.6668 -0.4955 -0.5567
vn -0.3510 -0.6622 -0.6621
vn 0.5762 0.5907 0.5648
vn -0.3268 0.3170 0.8904
vn -0.2407 0.8889 0.3897
vn 0.3567 0.4943 -0.7928
vn 0.5292 0.0757 0.8451
vn -0.5040 -0.0000 -0.8637
vn 0.3566 0.7928 -0.4943
vn 0.6668 0.4955 0.5567
vn -0.3510 0.6622 0.6621
vn 0.5292 -0.8451 -0.0757
vn 0.5762 -0.5907 -0.5648
vn -0.5474 0.8343 -0.0660
vn -0.2195 -0.3125 -0.9242
vn -0.2195 -0.9242 -0.3126
vn 0.3567 -0.4942 0.7928
vn -0.4095 -0.4862 -0.7720
vn -0.0002 -1.0000 0.0074
vn 1.0000 -0.0000 -0.0073
vn -0.5866 -0.0000 0.8099
vn -0.9998 -0.0000 0.0204
vn 0.6817 -0.0000 -0.7316
vn 0.4476 0.6323 -0.6323
vn -0.4870 0.6176 -0.6176
vn -0.6416 -0.5423 0.5424
vn -0.4871 0.8733 0.0001
vn -0.6416 -0.7670 -0.0000
vn -0.4871 0.6176 0.6175
vn 0.4476 0.8942 -0.0000
vn -0.6416 -0.5423 -0.5424
vn -0.4095 -0.4863 0.7719
vn 0.4475 0.6324 0.6323
vn -0.5866 -0.0000 -0.8099
vn 0.6817 -0.0000 0.7316
vn 1.0000 -0.0000 0.0073
vn -0.0001 -1.0000 -0.0074
vn -0.9998 -0.0000 -0.0204
vn -0.4095 0.4862 0.7720
vn -0.0002 1.0000 -0.0074
vn -0.4870 -0.6176 0.6176
vn -0.4871 -0.8734 -0.0001
vn -0.4871 -0.6176 -0.6175
vn -0.6416 0.5423 0.5424
vn -0.4095 0.4863 -0.7719
vn 0.4475 -0.6324 -0.6323
vn -0.0001 1.0000 0.0074
vn 0.6673 0.1267 0.7339
vn 0.6673 0.6086 -0.4294
vn 0.4527 -0.6305 -0.6305
vn -0.6497 0.7602 -0.0000
vn -0.6916 -0.0096 0.7222
vn 0.4527 -0.8917 -0.0000
vn 0.2652 0.9642 -0.0000
vn -0.6916 0.5039 -0.5175
vn -0.3238 -0.9461 -0.0000
vn 0.2652 0.6818 0.6818
vn -0.3238 -0.6690 -0.6690
vn -0.6497 0.5376 0.5375
vn 0.6995 -0.2510 -0.6691
vn -0.6927 -0.1599 -0.7033
vn 0.1203 -0.9927 -0.0000
vn 0.3059 0.9520 -0.0000
vn -0.3645 -0.9312 -0.0000
vn -0.3647 -0.6584 0.6584
vn 0.6995 0.2956 0.6507
vn 0.3059 0.6732 -0.6732
vn 0.1203 -0.7020 0.7020
vn -0.6927 0.3843 0.6103
vn -0.0989 0.7036 -0.7036
vn -0.0989 0.9951 -0.0000
vn 0.6762 0.5100 -0.5316
vn -0.6766 0.3522 -0.6466
vn 0.1158 -0.7023 -0.7023
vn -0.0983 0.7037 0.7037
vn 0.6762 -0.0153 0.7366
vn 0.1203 -0.7020 -0.7020
vn 0.1158 -0.9933 -0.0000
vn -0.6766 -0.2082 0.7063
vn -0.0945 0.9955 -0.0000
vn -0.0945 0.7039 0.7039
vn 0.6762 0.5100 0.5317
vn 0.1158 -0.7023 0.7023
vn -0.6766 0.3522 0.6466
vn -0.0945 0.7039 -0.7039
vn -0.6766 -0.2081 -0.7063
vn 0.6762 -0.0153 -0.7365
vn 0.6992 -0.1663 -0.6953
vn -0.6654 0.0641 -0.7437
vn 0.1045 0.9945 -0.0000
vn 0.6986 0.3748 0.6095
vn -0.1268 -0.9919 -0.0000
vn 0.1043 0.7033 -0.7032
vn -0.1273 -0.7013 0.7014
vn -0.6641 0.5717 0.4819
vn 0.6995 -0.6506 -0.2956
vn -0.6927 -0.6103 -0.3843
vn -0.3650 -0.0000 0.9310
vn 0.6995 0.6691 0.2510
vn 0.3059 -0.0000 -0.9521
vn 0.1197 -0.0000 0.9928
vn -0.6927 0.7033 0.1598
vn -0.0989 -0.0000 -0.9951
vn 0.7216 -0.6900 0.0570
vn -0.8338 -0.3976 -0.3829
vn 0.8338 -0.3977 -0.3829
vn -0.7216 -0.6900 0.0569
vn -0.4441 0.6363 0.6307
vn -0.7644 0.4131 -0.4951
vn -0.7510 -0.0000 0.6603
vn 0.7644 0.4132 -0.4950
vn 0.8148 -0.0000 -0.5798
vn 0.7441 -0.0000 0.6680
vn -0.8137 -0.0000 -0.5812
vn 0.4441 0.6364 0.6307
vn 0.6995 0.2956 -0.6507
vn -0.6927 0.3843 -0.6103
vn 0.3058 0.6732 0.6732
vn 0.6995 -0.2510 0.6691
vn -0.3646 -0.6584 -0.6584
vn -0.6927 -0.1598 0.7033
vn 0.6762 -0.5100 -0.5317
vn 0.1203 0.7020 -0.7020
vn 0.1158 0.7023 -0.7023
vn -0.6766 -0.3522 -0.6466
vn -0.0945 -0.7039 0.7039
vn -0.0983 -0.7037 0.7037
vn -0.6766 0.2081 0.7063
vn -0.0945 -0.9955 -0.0000
vn 0.6762 0.0153 0.7365
vn 0.1158 0.9933 -0.0000
vn -0.0989 -0.9951 -0.0000
vn 0.1203 0.9927 -0.0000
vn -0.6756 0.5281 0.5145
vn -0.1268 0.7014 -0.7014
vn -0.1223 0.7018 -0.7018
vn 0.6761 0.6496 0.3477
vn 0.0998 -0.7036 0.7036
vn 0.1039 -0.7033 0.7033
vn 0.6761 -0.7052 -0.2135
vn 0.0998 -0.0000 0.9950
vn -0.6756 -0.7372 -0.0096
vn -0.1223 -0.0000 -0.9925
vn 0.1042 -0.0000 0.9946
vn -0.1266 -0.0000 -0.9920
vn 0.6770 0.7322 -0.0742
vn -0.6768 0.7326 -0.0721
vn -0.0945 -0.0000 0.9955
vn 0.6770 -0.5703 0.4653
vn 0.1158 -0.0000 -0.9933
vn -0.1223 -0.7018 -0.7018
vn -0.6768 -0.5690 0.4671
vn 0.0998 0.7036 0.7036
vn 0.6762 0.7366 0.0153
vn 0.1158 -0.0000 0.9933
vn -0.6766 0.7063 0.2081
vn -0.0945 -0.0000 -0.9955
vn -0.6766 -0.6466 -0.3522
vn 0.6762 -0.5317 -0.5100
vn 0.6762 0.5316 -0.5100
vn 0.1203 0.7020 0.7020
vn 0.1158 0.7023 0.7023
vn -0.6766 0.6466 -0.3522
vn -0.0945 -0.7039 -0.7039
vn -0.0986 -0.7037 -0.7037
vn -0.6766 -0.7063 0.2081
vn 0.6762 -0.7365 0.0153
vn 0.6770 0.7322 0.0742
vn -0.1223 -0.0000 0.9925
vn -0.6768 0.7327 0.0721
vn 0.0998 -0.0000 -0.9950
vn -0.6768 -0.5690 -0.4671
vn 0.0998 0.7036 -0.7036
vn 0.6770 -0.5703 -0.4653
vn -0.1223 -0.7018 0.7018
vn -0.6766 -0.3522 0.6466
vn -0.6766 0.2082 -0.7063
vn 0.6762 -0.5100 0.5316
vn 0.6762 0.0153 -0.7366
vn 0.6770 0.4653 -0.5702
vn -0.6768 0.4671 -0.5690
vn 0.6770 -0.0742 0.7322
vn -0.1223 -0.9925 -0.0000
vn -0.6768 -0.0721 0.7326
vn 0.0998 0.9950 -0.0000
vn 0.6762 0.5317 0.5100
vn -0.6766 0.6466 0.3522
vn 0.1197 -0.0000 -0.9928
vn 0.6762 -0.7366 -0.0153
vn -0.0989 -0.0000 0.9951
vn -0.6766 -0.7063 -0.2081
vn 0.6770 -0.0742 -0.7322
vn -0.6768 -0.0721 -0.7326
vn 0.6770 0.4653 0.5702
vn -0.6768 0.4671 0.5690
vn 0.6762 -0.5316 0.5100
vn -0.6766 -0.6466 0.3522
vn -0.6766 0.7063 -0.2082
vn 0.6762 0.7365 -0.0153
vn -0.6755 -0.5281 0.5145
vn 0.6761 -0.6496 0.3477
vn 0.1042 0.7033 0.7033
vn -0.1266 -0.7014 -0.7014
vn -0.6756 0.7372 -0.0096
vn 0.6761 0.7052 -0.2135
vn -0.6756 0.0096 -0.7372
vn 0.6761 0.2135 -0.7052
vn -0.1223 0.9925 -0.0000
vn 0.1039 -0.9946 -0.0000
vn -0.1267 0.9919 -0.0000
vn -0.1273 0.7013 0.7014
vn -0.6756 -0.5145 0.5281
vn 0.1048 -0.7032 -0.7032
vn -0.1223 0.7018 0.7018
vn 0.6761 -0.3477 0.6496
vn 0.0998 -0.7036 -0.7036
vn 0.0999 -0.9950 -0.0000
vn 0.6863 0.1306 0.7155
vn 0.6863 0.5982 -0.4137
vn -0.6863 0.1305 0.7155
vn -0.6863 0.5982 -0.4137
vn 0.6416 0.5423 0.5424
vn -0.4476 -0.6324 -0.6323
vn 0.6995 -0.6691 -0.2510
vn -0.3649 -0.0000 -0.9310
vn -0.6927 -0.7033 -0.1598
vn 0.3061 -0.0000 0.9520
vn -0.6927 0.6103 0.3843
vn 0.6995 0.6506 0.2956
vn 0.3058 -0.6732 0.6732
vn -0.3648 0.6584 -0.6584
vn -0.6755 0.5146 -0.5281
vn 0.6761 0.3477 -0.6496
vn 0.6761 -0.2135 0.7052
vn -0.6756 -0.0096 0.7372
vn 0.6761 -0.3477 -0.6496
vn 0.6761 0.2135 0.7052
vn -0.6756 -0.5145 -0.5281
vn -0.6756 0.0096 0.7372
vn 0.6673 -0.7340 0.1267
vn 0.6673 0.4294 0.6086
vn 0.4527 0.6305 -0.6305
vn -0.6035 -0.0000 0.7973
vn -0.6916 -0.7222 -0.0096
vn 0.6990 -0.0000 -0.7151
vn 0.2652 -0.0000 0.9642
vn -0.6916 0.5175 0.5040
vn -0.3238 -0.0000 -0.9461
vn 0.2653 -0.6818 0.6818
vn -0.3239 0.6690 -0.6690
vn -0.6497 -0.5376 0.5375
vn 0.6986 -0.6095 -0.3748
vn -0.6641 -0.4819 -0.5716
vn -0.1266 -0.0000 0.9920
vn 0.6992 0.6954 0.1663
vn 0.1045 -0.0000 -0.9945
vn -0.6654 0.7437 -0.0642
vn 0.6770 0.5703 0.4653
vn -0.6768 0.5690 0.4671
vn 0.6770 -0.7322 -0.0742
vn -0.6768 -0.7326 -0.0721
vn 0.6770 -0.4653 -0.5703
vn 0.6770 0.0742 0.7322
vn -0.6768 -0.4671 -0.5690
vn -0.6768 0.0721 0.7326
vn -0.6755 -0.0096 -0.7373
vn 0.6761 -0.2135 -0.7052
vn 0.6761 0.3477 0.6496
vn -0.6755 0.5146 0.5281
vn -0.6768 -0.4671 0.5690
vn -0.6768 0.0721 -0.7326
vn 0.6770 -0.4653 0.5703
vn 0.6770 0.0742 -0.7322
vn 0.6863 0.4138 0.5982
vn -0.6863 0.4137 0.5982
vn -0.4476 0.6324 -0.6323
vn 0.6416 -0.5423 0.5424
vn 0.6863 -0.7156 0.1305
vn -0.6863 -0.7155 0.1305
vn 0.5965 -0.0000 0.8026
vn -0.6910 -0.0000 -0.7228
vn -0.6269 -0.4022 -0.6673
vn -0.3240 -0.6690 0.6690
vn 0.6440 -0.7405 -0.1924
vn 0.2653 0.6818 -0.6818
vn -0.3238 -0.0000 0.9461
vn 0.6440 0.6596 0.3876
vn 0.2652 -0.0000 -0.9642
vn -0.6269 0.7562 -0.1875
vn 0.6863 -0.4138 0.5982
vn 0.6863 0.7156 0.1305
vn -0.6863 -0.4137 0.5982
vn -0.6863 0.7156 0.1305
vn 0.7311 0.0963 0.6754
vn -0.8338 -0.3977 0.3829
vn 0.8338 -0.3976 0.3829
vn -0.7311 0.0963 0.6754
vn -0.4441 0.6363 -0.6307
vn 0.8203 -0.5719 -0.0000
vn -0.7311 -0.4095 -0.5457
vn -0.4272 0.9041 -0.0000
vn 0.7311 -0.4095 -0.5457
vn 0.4273 0.9041 -0.0000
vn -0.8203 -0.5720 -0.0000
vn 0.4441 0.6364 -0.6307
vn -0.6756 0.7372 0.0096
vn 0.6761 0.7052 0.2135
vn -0.6756 -0.5281 -0.5145
vn 0.6761 -0.6496 -0.3477
vn -0.6756 -0.7372 0.0096
vn 0.6761 -0.7052 0.2135
vn 0.6761 0.6496 -0.3477
vn -0.6756 0.5281 -0.5145
vn 0.6986 -0.3747 0.6095
vn 0.6992 0.1663 -0.6954
vn -0.6654 -0.0641 -0.7438
vn -0.6641 -0.5716 0.4819
vn 0.6986 0.6095 -0.3748
vn -0.6642 0.4819 -0.5716
vn -0.6654 -0.7437 -0.0642
vn 0.6992 -0.6953 0.1663
vn 0.4870 0.6176 0.6176
vn -0.4476 0.6323 0.6323
vn -0.4476 0.8942 -0.0000
vn 0.4871 0.8734 -0.0001
vn 0.6416 -0.7670 -0.0000
vn 0.6416 -0.5423 -0.5424
vn 0.4870 0.6177 -0.6175
vn 0.4363 -0.4189 -0.7963
vn -0.2808 -0.7559 0.5914
vn -0.8338 0.3976 -0.3829
vn -0.3180 -0.6665 0.6742
vn 0.4441 -0.6364 0.6307
vn -0.3451 -0.9386 -0.0001
vn 0.4273 -0.9041 -0.0001
vn -0.3181 -0.6666 -0.6742
vn -0.8203 0.5720 -0.0000
vn 0.4440 -0.6364 -0.6307
vn -0.2808 -0.7559 -0.5914
vn -0.8338 0.3976 0.3829
vn 0.7441 -0.0000 -0.6680
vn -0.8137 -0.0000 0.5812
vn -0.6910 -0.0000 0.7229
vn 0.4363 -0.4189 0.7964
vn 0.5964 -0.0000 -0.8027
vn 0.4870 -0.6176 0.6176
vn 0.4870 -0.8734 -0.0000
vn 0.4363 0.4189 0.7964
vn -0.2808 0.7559 -0.5914
vn -0.3181 0.6665 -0.6742
vn -0.3451 0.9386 -0.0000
vn -0.3180 0.6666 0.6742
vn -0.2808 0.7559 0.5914
vn 0.4363 0.4189 -0.7964
vn 0.4870 -0.6176 -0.6175
vn 0.3451 -0.9386 -0.0000
vn 0.8203 0.5719 -0.0000
vn 0.8338 0.3976 -0.3829
vn 0.3180 -0.6665 0.6743
vn -0.4441 -0.6364 0.6307
vn 0.2824 -0.7552 0.5915
vn -0.4413 -0.4089 -0.7988
vn 0.4527 0.8917 -0.0000
vn -0.4870 0.8734 -0.0000
vn -0.6497 -0.7602 -0.0000
vn -0.4870 0.6176 0.6176
vn -0.6497 -0.5376 -0.5376
vn -0.4413 -0.4089 0.7988
vn 0.4527 0.6305 0.6305
vn -0.6035 -0.0000 -0.7973
vn 0.2824 -0.7552 -0.5915
vn 0.6990 -0.0000 0.7151
vn -0.7510 -0.0000 -0.6603
vn 0.8148 -0.0000 0.5798
vn 0.8338 0.3976 0.3829
vn 0.3180 -0.6665 -0.6743
vn -0.4441 -0.6363 -0.6307
vn -0.4272 -0.9041 -0.0000
vn 0.2825 0.7552 0.5915
vn 0.3180 0.6665 0.6743
vn 0.3451 0.9386 -0.0000
vn 0.3180 0.6665 -0.6743
vn 0.2824 0.7552 -0.5915
vn -0.4413 0.4089 0.7988
vn 0.4527 -0.6305 0.6305
vn -0.6497 0.5376 -0.5375
vn -0.4870 -0.8734 -0.0000
vn -0.4870 -0.6176 -0.6176
vn -0.4413 0.4089 -0.7988
vn -0.6927 0.1598 -0.7033
vn -0.6927 -0.3843 0.6103
vn 0.6995 -0.2956 0.6507
vn 0.3058 -0.6732 -0.6732
vn 0.6995 0.2510 -0.6691
vn -0.3646 0.6584 0.6584
vn 0.3058 -0.9521 -0.0000
vn -0.3645 0.9312 -0.0000
vn -0.6915 0.0096 0.7223
vn -0.6916 -0.5039 -0.5174
vn 0.2652 -0.9642 -0.0000
vn -0.3238 0.9461 -0.0000
vn 0.6673 -0.1267 0.7339
vn 0.6672 -0.6086 -0.4294
vn -0.6915 -0.7223 0.0096
vn 0.6673 -0.7339 -0.1267
vn 0.6673 0.4294 -0.6086
vn -0.6916 0.5175 -0.5039
vn 0.2653 -0.6818 -0.6818
vn -0.3238 0.6690 0.6690
vn -0.6915 -0.0096 -0.7223
vn 0.6673 0.1267 -0.7339
vn 0.6672 0.6086 0.4294
vn -0.6916 0.5039 0.5174
vn 0.6673 -0.4294 0.6086
vn 0.6673 0.7339 0.1267
vn -0.6916 -0.5175 0.5039
vn -0.6916 0.7222 -0.0096
vn -0.6916 -0.5039 0.5175
vn -0.6916 0.0096 -0.7222
vn 0.6673 -0.6086 0.4294
vn 0.6673 -0.1267 -0.7339
vn 0.6995 0.2510 0.6691
vn 0.6995 -0.2956 -0.6507
vn -0.6927 -0.3843 -0.6103
vn -0.6927 0.1599 0.7033
vn -0.6916 -0.5175 -0.5040
vn 0.6673 -0.4294 -0.6086
vn 0.6673 0.7339 -0.1267
vn -0.6916 0.7222 0.0096
vn 0.6986 -0.6095 0.3748
vn -0.6641 -0.4819 0.5716
vn -0.6654 0.7437 0.0642
vn 0.6992 0.6954 -0.1663
vn 0.6992 -0.6953 -0.1663
vn -0.6654 -0.7437 0.0642
vn -0.3602 0.6678 -0.6513
vn -0.6641 0.4819 0.5716
vn 0.5659 -0.5711 0.5946
vn 0.6986 0.6095 0.3748
vn 0.6992 0.1663 0.6954
vn 0.6987 -0.3747 -0.6095
vn -0.6641 -0.5716 -0.4819
vn -0.6654 -0.0641 0.7437
vn 0.6770 -0.7322 0.0742
vn -0.6768 -0.7326 0.0721
vn 0.6770 0.5703 -0.4653
vn -0.6768 0.5690 -0.4671
vn 0.6995 -0.6506 0.2956
vn -0.6927 -0.6103 0.3843
vn -0.6927 0.7033 -0.1599
vn 0.6995 0.6691 -0.2510
vn 0.6995 -0.6691 0.2510
vn -0.6927 -0.7033 0.1599
vn 0.6995 0.6506 -0.2956
vn -0.6927 0.6103 -0.3843
vn 0.7216 0.6900 0.0570
vn -0.7216 0.6900 0.0569
vn 0.7644 -0.4131 -0.4950
vn -0.7644 -0.4130 -0.4951
vn -0.7311 -0.0963 0.6754
vn -0.7311 0.4095 -0.5457
vn 0.7311 -0.0964 0.6755
vn 0.7311 0.4095 -0.5457
vn 0.6863 -0.7156 -0.1305
vn -0.6863 -0.7155 -0.1305
vn 0.6863 0.4138 -0.5982
vn -0.6863 0.4137 -0.5982
vn 0.6863 0.7156 -0.1305
vn 0.6863 -0.4138 -0.5982
vn -0.6863 0.7156 -0.1305
vn -0.6863 -0.4137 -0.5982
vn -0.6863 -0.1304 -0.7156
vn -0.6863 -0.5982 0.4137
vn 0.6863 -0.5982 0.4137
vn 0.6863 -0.1306 -0.7155
vn 0.6986 0.3748 -0.6095
vn -0.6641 0.5716 -0.4819
vn 0.6992 -0.1663 0.6954
vn -0.6654 0.0641 0.7437
vn 0.7311 -0.4095 0.5457
vn -0.7311 -0.4095 0.5457
vn -0.7311 0.0963 -0.6754
vn 0.7311 0.0962 -0.6754
vn -0.7311 -0.0963 -0.6754
vn -0.7311 0.4095 0.5457
vn 0.7311 0.4095 0.5457
vn 0.7311 -0.0964 -0.6755
vn -0.6863 -0.1304 0.7156
vn -0.6863 -0.5982 -0.4137
vn 0.6863 -0.1305 0.7155
vn 0.6863 -0.5983 -0.4137
vn 0.7644 -0.4132 0.4950
vn -0.7644 -0.4131 0.4951
vn 0.7216 0.6900 -0.0570
vn -0.7216 0.6900 -0.0569
vn -0.6268 0.7563 0.1875
vn 0.6439 0.6597 -0.3875
vn 0.6440 -0.7405 0.1924
vn -0.6268 -0.4022 0.6673
vn -0.6269 0.1874 -0.7562
vn 0.6439 -0.3875 -0.6597
vn 0.6439 0.1924 0.7405
vn -0.6268 0.6673 0.4022
vn -0.6269 0.6673 -0.4022
vn 0.6440 0.1923 -0.7405
vn 0.6439 -0.3875 0.6597
vn -0.6270 0.1874 0.7562
vn 0.6439 -0.6597 0.3875
vn 0.6440 0.7405 -0.1924
vn -0.6268 0.4022 -0.6673
vn -0.6268 -0.7563 -0.1875
vn 0.6439 -0.1924 -0.7405
vn 0.6440 0.3876 0.6596
vn -0.6269 -0.6673 -0.4022
vn -0.6268 -0.1874 0.7563
vn -0.6269 -0.7562 0.1875
vn 0.6440 -0.6595 -0.3876
vn -0.6268 0.4022 0.6673
vn 0.6440 0.7405 0.1924
vn -0.6269 -0.1874 -0.7562
vn 0.6439 0.3875 -0.6597
vn -0.6269 -0.6673 0.4022
vn 0.6440 -0.1923 0.7405
vn -0.7644 0.4130 0.4951
vn 0.7644 0.4131 0.4950
vn -0.7216 -0.6900 -0.0569
vn 0.7216 -0.6900 -0.0570
vn 0.3567 -0.4943 -0.7928
vn 0.6668 0.5567 -0.4954
vn -0.2195 -0.9242 0.3125
vn -0.2407 -0.3897 0.8889
vn 0.3567 0.7928 0.4942
vt 0.000000 0.000000
s 1
f 206/1/1 205/1/2 11/1/3
f 206/1/1 14/1/4 12/1/5
f 206/1/1 13/1/6 15/1/7
f 206/1/1 207/1/8 16/1/9
f 208/1/10 207/1/8 15/1/7
f 208/1/10 24/1/11 16/1/9
f 208/1/10 23/1/12 21/1/13
f 208/1/10 209/1/14 22/1/15
f 205/1/2 209/1/14 21/1/13
f 205/1/2 12/1/5 22/1/15
f 211/1/16 210/1/17 27/1/18
f 210/1/17 211/1/16 26/1/19
f 212/1/20 211/1/16 25/1/21
f 211/1/16 212/1/20 182/1/22
f 213/1/23 212/1/20 181/1/24
f 212/1/20 213/1/23 178/1/25
f 210/1/17 213/1/23 177/1/26
f 213/1/23 210/1/17 28/1/27
f 215/1/28 214/1/29 3/1/30
f 214/1/29 215/1/28 12/1/5
f 216/1/31 215/1/28 11/1/3
f 215/1/28 216/1/31 22/1/15
f 216/1/31 21/1/13 17/1/32
f 217/1/33 18/1/34 22/1/15
f 217/1/33 17/1/32 3/1/30
f 217/1/33 214/1/29 4/1/35
f 219/1/36 218/1/37 1/1/38
f 219/1/36 14/1/4 2/1/39
f 219/1/36 13/1/6 11/1/3
f 219/1/36 220/1/40 12/1/5
f 220/1/40 11/1/3 3/1/30
f 221/1/41 4/1/35 12/1/5
f 222/1/42 221/1/41 3/1/30
f 222/1/42 6/1/43 4/1/35
f 222/1/42 5/1/44 1/1/38
f 222/1/42 218/1/37 2/1/39
f 224/1/45 223/1/46 19/1/47
f 224/1/45 10/1/48 20/1/49
f 224/1/45 9/1/50 17/1/32
f 224/1/45 225/1/51 18/1/34
f 226/1/52 225/1/51 17/1/32
f 226/1/52 22/1/15 18/1/34
f 227/1/53 226/1/52 21/1/13
f 227/1/53 24/1/11 22/1/15
f 227/1/53 23/1/12 19/1/47
f 227/1/53 223/1/46 20/1/49
f 229/1/54 228/1/55 33/1/56
f 229/1/54 38/1/57 34/1/58
f 229/1/54 37/1/59 41/1/60
f 229/1/54 230/1/61 42/1/62
f 231/1/63 230/1/61 41/1/60
f 230/1/61 231/1/63 44/1/64
f 232/1/65 231/1/63 43/1/66
f 232/1/65 40/1/67 44/1/64
f 233/1/68 232/1/65 39/1/69
f 233/1/68 36/1/70 40/1/67
f 233/1/68 35/1/71 31/1/72
f 233/1/68 234/1/73 32/1/74
f 228/1/55 234/1/73 31/1/72
f 234/1/73 228/1/55 34/1/58
f 236/1/75 235/1/76 31/1/72
f 236/1/75 36/1/70 32/1/74
f 236/1/75 35/1/71 25/1/21
f 236/1/75 237/1/77 26/1/19
f 238/1/78 237/1/77 25/1/21
f 237/1/77 238/1/78 28/1/27
f 239/1/79 238/1/78 27/1/18
f 239/1/79 30/1/80 28/1/27
f 240/1/81 239/1/79 29/1/82
f 240/1/81 38/1/57 30/1/80
f 240/1/81 37/1/59 33/1/56
f 240/1/81 241/1/83 34/1/58
f 235/1/76 241/1/83 33/1/56
f 241/1/83 235/1/76 32/1/74
f 243/1/84 242/1/85 147/1/86
f 242/1/85 243/1/84 156/1/87
f 244/1/88 243/1/84 155/1/89
f 243/1/84 244/1/88 170/1/90
f 245/1/91 244/1/88 169/1/92
f 244/1/88 245/1/91 166/1/93
f 245/1/91 165/1/94 147/1/86
f 242/1/85 148/1/95 166/1/93
f 247/1/96 246/1/97 79/1/98
f 246/1/97 247/1/96 74/1/99
f 247/1/96 73/1/100 63/1/101
f 247/1/96 248/1/102 64/1/103
f 248/1/102 63/1/101 69/1/104
f 249/1/105 70/1/106 64/1/103
f 249/1/105 69/1/104 79/1/98
f 246/1/97 80/1/107 70/1/106
f 251/1/108 250/1/109 83/1/110
f 250/1/109 251/1/108 72/1/111
f 252/1/112 251/1/108 71/1/113
f 252/1/112 80/1/107 72/1/111
f 252/1/112 79/1/98 81/1/114
f 253/1/115 82/1/116 80/1/107
f 250/1/109 253/1/115 81/1/114
f 253/1/115 250/1/109 84/1/117
f 254/1/118 69/1/104 85/1/119
f 255/1/120 86/1/121 70/1/106
f 256/1/122 255/1/120 85/1/119
f 255/1/120 256/1/122 82/1/116
f 257/1/123 256/1/122 81/1/114
f 256/1/122 257/1/123 80/1/107
f 254/1/118 257/1/123 79/1/98
f 257/1/123 254/1/118 70/1/106
f 259/1/124 258/1/125 13/1/6
f 258/1/125 259/1/124 110/1/126
f 260/1/127 259/1/124 109/1/128
f 259/1/124 260/1/127 100/1/129
f 260/1/127 99/1/130 15/1/7
f 261/1/131 16/1/9 100/1/129
f 258/1/125 261/1/131 15/1/7
f 261/1/131 258/1/125 14/1/4
f 263/1/132 262/1/133 69/1/104
f 262/1/133 263/1/132 64/1/103
f 263/1/132 63/1/101 55/1/134
f 264/1/135 56/1/136 64/1/103
f 264/1/135 55/1/134 61/1/137
f 265/1/138 62/1/139 56/1/136
f 262/1/133 265/1/138 61/1/137
f 262/1/133 70/1/106 62/1/139
f 266/1/140 195/1/141 151/1/142
f 266/1/140 267/1/143 152/1/144
f 268/1/145 267/1/143 151/1/142
f 268/1/145 140/1/146 152/1/144
f 269/1/147 268/1/145 139/1/148
f 269/1/147 190/1/149 140/1/146
f 269/1/147 189/1/150 195/1/141
f 269/1/147 266/1/140 196/1/151
f 271/1/152 270/1/153 71/1/113
f 270/1/153 271/1/152 78/1/154
f 272/1/155 271/1/152 77/1/156
f 272/1/155 74/1/99 78/1/154
f 272/1/155 73/1/100 79/1/98
f 273/1/157 80/1/107 74/1/99
f 273/1/157 79/1/98 71/1/113
f 270/1/153 72/1/111 80/1/107
f 274/1/158 53/1/159 123/1/160
f 275/1/161 124/1/162 54/1/163
f 276/1/164 275/1/161 123/1/160
f 275/1/161 276/1/164 60/1/165
f 277/1/166 276/1/164 59/1/167
f 276/1/164 277/1/166 46/1/168
f 274/1/158 277/1/166 45/1/169
f 277/1/166 274/1/158 54/1/163
f 278/1/170 115/1/171 121/1/172
f 279/1/173 122/1/174 116/1/175
f 280/1/176 279/1/173 121/1/172
f 280/1/176 120/1/177 122/1/174
f 281/1/178 280/1/176 119/1/179
f 280/1/176 281/1/178 118/1/180
f 281/1/178 117/1/181 115/1/171
f 281/1/178 278/1/170 116/1/175
f 283/1/182 282/1/183 119/1/179
f 282/1/183 283/1/182 76/1/184
f 284/1/185 283/1/182 75/1/186
f 283/1/182 284/1/185 84/1/117
f 284/1/185 83/1/110 87/1/187
f 285/1/188 88/1/189 84/1/117
f 285/1/188 87/1/187 119/1/179
f 285/1/188 282/1/183 120/1/177
f 286/1/190 61/1/137 93/1/191
f 287/1/192 94/1/193 62/1/139
f 287/1/192 93/1/191 85/1/119
f 288/1/194 86/1/121 94/1/193
f 289/1/195 288/1/194 85/1/119
f 288/1/194 289/1/195 70/1/106
f 289/1/195 69/1/104 61/1/137
f 289/1/195 286/1/190 62/1/139
f 290/1/196 51/1/197 95/1/198
f 291/1/199 96/1/200 52/1/201
f 291/1/199 95/1/198 93/1/191
f 291/1/199 292/1/202 94/1/193
f 293/1/203 292/1/202 93/1/191
f 292/1/202 293/1/203 62/1/139
f 293/1/203 61/1/137 51/1/197
f 293/1/203 290/1/196 52/1/201
f 294/1/204 93/1/191 97/1/205
f 295/1/206 98/1/207 94/1/193
f 296/1/208 295/1/206 97/1/205
f 295/1/206 296/1/208 92/1/209
f 297/1/210 296/1/208 91/1/211
f 296/1/208 297/1/210 86/1/121
f 297/1/210 85/1/119 93/1/191
f 297/1/210 294/1/204 94/1/193
f 299/1/212 298/1/213 59/1/167
f 298/1/213 299/1/212 96/1/200
f 300/1/214 299/1/212 95/1/198
f 299/1/212 300/1/214 52/1/201
f 301/1/215 300/1/214 51/1/197
f 301/1/215 46/1/168 52/1/201
f 301/1/215 45/1/169 59/1/167
f 298/1/213 60/1/165 46/1/168
f 303/1/216 302/1/217 87/1/187
f 302/1/217 303/1/216 84/1/117
f 303/1/216 83/1/110 81/1/114
f 304/1/218 82/1/116 84/1/117
f 304/1/218 81/1/114 89/1/219
f 305/1/220 90/1/221 82/1/116
f 305/1/220 89/1/219 87/1/187
f 305/1/220 302/1/217 88/1/189
f 307/1/222 306/1/223 123/1/160
f 306/1/223 307/1/222 54/1/163
f 307/1/222 53/1/159 65/1/224
f 307/1/222 308/1/225 66/1/226
f 308/1/225 65/1/224 75/1/186
f 309/1/227 76/1/184 66/1/226
f 306/1/223 309/1/227 75/1/186
f 306/1/223 124/1/162 76/1/184
f 311/1/228 310/1/229 89/1/219
f 310/1/229 311/1/228 82/1/116
f 311/1/228 81/1/114 85/1/119
f 312/1/230 86/1/121 82/1/116
f 312/1/230 85/1/119 91/1/211
f 313/1/231 92/1/209 86/1/121
f 313/1/231 91/1/211 89/1/219
f 313/1/231 310/1/229 90/1/221
f 314/1/232 71/1/113 83/1/110
f 315/1/233 84/1/117 72/1/111
f 315/1/233 83/1/110 75/1/186
f 315/1/233 316/1/234 76/1/184
f 317/1/235 316/1/234 75/1/186
f 316/1/234 317/1/235 66/1/226
f 317/1/235 65/1/224 71/1/113
f 317/1/235 314/1/232 72/1/111
f 319/1/236 318/1/237 87/1/187
f 318/1/237 319/1/236 112/1/238
f 319/1/236 111/1/239 117/1/181
f 320/1/240 118/1/180 112/1/238
f 320/1/240 117/1/181 119/1/179
f 321/1/241 120/1/177 118/1/180
f 321/1/241 119/1/179 87/1/187
f 321/1/241 318/1/237 88/1/189
f 323/1/242 322/1/243 103/1/244
f 322/1/243 323/1/242 114/1/245
f 323/1/242 113/1/246 105/1/247
f 324/1/248 106/1/249 114/1/245
f 324/1/248 105/1/247 101/1/250
f 325/1/251 102/1/252 106/1/249
f 325/1/251 101/1/250 103/1/244
f 325/1/251 322/1/243 104/1/253
f 327/1/254 326/1/255 29/1/82
f 326/1/255 327/1/254 28/1/27
f 328/1/256 327/1/254 27/1/18
f 327/1/254 328/1/256 178/1/25
f 329/1/257 328/1/256 177/1/26
f 328/1/256 329/1/257 176/1/258
f 326/1/255 329/1/257 175/1/259
f 329/1/257 326/1/255 30/1/80
f 330/1/260 67/1/261 65/1/224
f 331/1/262 66/1/226 68/1/263
f 332/1/264 331/1/262 65/1/224
f 332/1/264 54/1/163 66/1/226
f 333/1/265 332/1/264 53/1/159
f 332/1/264 333/1/265 58/1/266
f 333/1/265 57/1/267 67/1/261
f 330/1/260 68/1/263 58/1/266
f 334/1/268 111/1/239 87/1/187
f 335/1/269 88/1/189 112/1/238
f 335/1/269 87/1/187 89/1/219
f 335/1/269 336/1/270 90/1/221
f 337/1/271 336/1/270 89/1/219
f 336/1/270 337/1/271 110/1/126
f 337/1/271 109/1/128 111/1/239
f 337/1/271 334/1/268 112/1/238
f 339/1/272 338/1/273 103/1/244
f 339/1/272 122/1/174 104/1/253
f 340/1/274 339/1/272 121/1/172
f 339/1/272 340/1/274 116/1/175
f 341/1/275 340/1/274 115/1/171
f 340/1/274 341/1/275 114/1/245
f 341/1/275 113/1/246 103/1/244
f 338/1/273 104/1/253 114/1/245
f 343/1/276 342/1/277 131/1/278
f 342/1/277 343/1/276 144/1/279
f 344/1/280 343/1/276 143/1/281
f 343/1/276 344/1/280 162/1/282
f 345/1/283 344/1/280 161/1/284
f 345/1/283 158/1/285 162/1/282
f 345/1/283 157/1/286 131/1/278
f 342/1/277 132/1/287 158/1/285
f 347/1/288 346/1/289 15/1/7
f 346/1/289 347/1/288 100/1/129
f 347/1/288 99/1/130 107/1/290
f 347/1/288 348/1/291 108/1/292
f 348/1/291 107/1/290 23/1/12
f 349/1/293 24/1/11 108/1/292
f 349/1/293 23/1/12 15/1/7
f 346/1/289 16/1/9 24/1/11
f 351/1/294 350/1/295 121/1/172
f 350/1/295 351/1/294 124/1/162
f 351/1/294 123/1/160 75/1/186
f 352/1/296 76/1/184 124/1/162
f 352/1/296 75/1/186 119/1/179
f 353/1/297 120/1/177 76/1/184
f 353/1/297 119/1/179 121/1/172
f 353/1/297 350/1/295 122/1/174
f 355/1/298 354/1/299 59/1/167
f 354/1/299 355/1/298 124/1/162
f 355/1/298 123/1/160 121/1/172
f 356/1/300 122/1/174 124/1/162
f 356/1/300 121/1/172 103/1/244
f 357/1/301 104/1/253 122/1/174
f 354/1/299 357/1/301 103/1/244
f 357/1/301 354/1/299 60/1/165
f 358/1/302 109/1/128 89/1/219
f 359/1/303 90/1/221 110/1/126
f 360/1/304 359/1/303 89/1/219
f 359/1/303 360/1/304 92/1/209
f 361/1/305 360/1/304 91/1/211
f 360/1/304 361/1/305 100/1/129
f 361/1/305 99/1/130 109/1/128
f 358/1/302 110/1/126 100/1/129
f 363/1/306 362/1/307 103/1/244
f 363/1/306 102/1/252 104/1/253
f 364/1/308 363/1/306 101/1/250
f 363/1/306 364/1/308 96/1/200
f 364/1/308 95/1/198 59/1/167
f 364/1/308 365/1/309 60/1/165
f 365/1/309 59/1/167 103/1/244
f 362/1/307 104/1/253 60/1/165
f 367/1/310 366/1/311 179/1/312
f 367/1/310 42/1/62 180/1/313
f 368/1/314 367/1/310 41/1/60
f 367/1/310 368/1/314 38/1/57
f 369/1/315 368/1/314 37/1/59
f 368/1/314 369/1/315 174/1/316
f 369/1/315 173/1/317 179/1/312
f 369/1/315 366/1/311 180/1/313
f 370/1/318 63/1/101 171/1/319
f 371/1/320 172/1/321 64/1/103
f 371/1/320 171/1/319 167/1/322
f 371/1/320 372/1/323 168/1/324
f 373/1/325 372/1/323 167/1/322
f 372/1/323 373/1/325 56/1/136
f 370/1/318 373/1/325 55/1/134
f 373/1/325 370/1/318 64/1/103
f 375/1/326 374/1/327 37/1/59
f 375/1/326 30/1/80 38/1/57
f 376/1/328 375/1/326 29/1/82
f 375/1/326 376/1/328 176/1/258
f 377/1/329 376/1/328 175/1/259
f 377/1/329 174/1/316 176/1/258
f 374/1/327 377/1/329 173/1/317
f 377/1/329 374/1/327 38/1/57
f 378/1/330 203/1/331 149/1/332
f 378/1/330 379/1/333 150/1/334
f 379/1/333 149/1/332 153/1/335
f 379/1/333 380/1/336 154/1/337
f 381/1/338 380/1/336 153/1/335
f 380/1/336 381/1/338 200/1/339
f 378/1/330 381/1/338 199/1/340
f 381/1/338 378/1/330 204/1/341
f 383/1/342 382/1/343 97/1/205
f 382/1/343 383/1/342 108/1/292
f 383/1/342 107/1/290 99/1/130
f 384/1/344 100/1/129 108/1/292
f 384/1/344 99/1/130 91/1/211
f 385/1/345 92/1/209 100/1/129
f 382/1/343 385/1/345 91/1/211
f 385/1/345 382/1/343 98/1/207
f 386/1/346 107/1/290 97/1/205
f 387/1/347 98/1/207 108/1/292
f 387/1/347 97/1/205 101/1/250
f 387/1/347 388/1/348 102/1/252
f 389/1/349 388/1/348 101/1/250
f 388/1/348 389/1/349 106/1/249
f 386/1/346 389/1/349 105/1/247
f 386/1/346 108/1/292 106/1/249
f 390/1/350 105/1/247 113/1/246
f 390/1/350 391/1/351 114/1/245
f 391/1/351 113/1/246 9/1/50
f 392/1/352 10/1/48 114/1/245
f 392/1/352 9/1/50 19/1/47
f 393/1/353 20/1/49 10/1/48
f 390/1/350 393/1/353 19/1/47
f 393/1/353 390/1/350 106/1/249
f 394/1/354 105/1/247 19/1/47
f 395/1/355 20/1/49 106/1/249
f 396/1/356 395/1/355 19/1/47
f 395/1/355 396/1/356 24/1/11
f 397/1/357 396/1/356 23/1/12
f 396/1/356 397/1/357 108/1/292
f 394/1/354 397/1/357 107/1/290
f 394/1/354 106/1/249 108/1/292
f 398/1/358 187/1/359 183/1/360
f 399/1/361 184/1/362 188/1/363
f 399/1/361 183/1/360 179/1/312
f 399/1/361 400/1/364 180/1/313
f 401/1/365 400/1/364 179/1/312
f 401/1/365 174/1/316 180/1/313
f 402/1/366 401/1/365 173/1/317
f 401/1/365 402/1/366 190/1/149
f 402/1/366 189/1/150 191/1/367
f 402/1/366 403/1/368 192/1/369
f 404/1/370 403/1/368 191/1/367
f 403/1/368 404/1/370 194/1/371
f 405/1/372 404/1/370 193/1/373
f 404/1/370 405/1/372 198/1/374
f 406/1/375 405/1/372 197/1/376
f 406/1/375 202/1/377 198/1/374
f 406/1/375 201/1/378 185/1/379
f 407/1/380 186/1/381 202/1/377
f 407/1/380 185/1/379 187/1/359
f 407/1/380 398/1/358 188/1/363
f 409/1/382 408/1/383 177/1/26
f 409/1/382 182/1/22 178/1/25
f 410/1/384 409/1/382 181/1/24
f 410/1/384 186/1/381 182/1/22
f 411/1/385 410/1/384 185/1/379
f 410/1/384 411/1/385 202/1/377
f 411/1/385 201/1/378 203/1/331
f 411/1/385 412/1/386 204/1/341
f 412/1/386 203/1/331 199/1/340
f 413/1/387 200/1/339 204/1/341
f 413/1/387 199/1/340 195/1/141
f 413/1/387 414/1/388 196/1/151
f 415/1/389 414/1/388 195/1/141
f 415/1/389 190/1/149 196/1/151
f 415/1/389 189/1/150 173/1/317
f 416/1/390 174/1/316 190/1/149
f 416/1/390 173/1/317 175/1/259
f 416/1/390 417/1/391 176/1/258
f 408/1/383 417/1/391 175/1/259
f 408/1/383 178/1/25 176/1/258
f 418/1/392 127/1/393 135/1/394
f 418/1/392 419/1/395 136/1/396
f 420/1/397 419/1/395 135/1/394
f 420/1/397 140/1/146 136/1/396
f 420/1/397 139/1/148 143/1/281
f 421/1/398 144/1/279 140/1/146
f 421/1/398 143/1/281 131/1/278
f 421/1/398 422/1/61 132/1/287
f 422/1/61 131/1/278 129/1/399
f 423/1/400 130/1/401 132/1/287
f 424/1/402 423/1/400 129/1/399
f 424/1/402 126/1/403 130/1/401
f 425/1/404 424/1/402 125/1/405
f 425/1/404 142/1/406 126/1/403
f 426/1/407 425/1/404 141/1/408
f 425/1/404 426/1/407 138/1/409
f 426/1/407 137/1/410 133/1/411
f 426/1/407 427/1/412 134/1/413
f 418/1/392 427/1/412 133/1/411
f 418/1/392 128/1/414 134/1/413
f 428/1/415 139/1/148 151/1/142
f 428/1/415 429/1/416 152/1/144
f 430/1/417 429/1/416 151/1/142
f 430/1/417 154/1/337 152/1/144
f 430/1/417 153/1/335 149/1/332
f 430/1/417 431/1/418 150/1/334
f 432/1/419 431/1/418 149/1/332
f 432/1/419 138/1/409 150/1/334
f 432/1/419 137/1/410 141/1/408
f 433/1/420 142/1/406 138/1/409
f 433/1/420 141/1/408 145/1/421
f 433/1/420 434/1/77 146/1/422
f 434/1/77 145/1/421 155/1/89
f 435/1/423 156/1/87 146/1/422
f 436/1/424 435/1/423 155/1/89
f 436/1/424 148/1/95 156/1/87
f 437/1/425 436/1/424 147/1/86
f 437/1/425 144/1/279 148/1/95
f 428/1/415 437/1/425 143/1/281
f 437/1/425 428/1/415 140/1/146
f 438/1/426 45/1/169 51/1/197
f 439/1/427 52/1/201 46/1/168
f 440/1/428 439/1/427 51/1/197
f 439/1/427 440/1/428 48/1/429
f 441/1/430 440/1/428 47/1/431
f 441/1/430 50/1/432 48/1/429
f 441/1/430 49/1/433 45/1/169
f 438/1/426 46/1/168 50/1/432
f 443/1/434 442/1/435 157/1/286
f 443/1/434 160/1/436 158/1/285
f 443/1/434 159/1/437 129/1/399
f 444/1/438 130/1/401 160/1/436
f 445/1/439 444/1/438 129/1/399
f 445/1/439 132/1/287 130/1/401
f 442/1/435 445/1/439 131/1/278
f 445/1/439 442/1/435 158/1/285
f 446/1/440 167/1/322 141/1/408
f 447/1/441 142/1/406 168/1/324
f 448/1/442 447/1/441 141/1/408
f 448/1/442 126/1/403 142/1/406
f 449/1/443 448/1/442 125/1/405
f 448/1/442 449/1/443 164/1/444
f 449/1/443 163/1/445 167/1/322
f 446/1/440 168/1/324 164/1/444
f 450/1/446 169/1/92 155/1/89
f 451/1/447 156/1/87 170/1/90
f 452/1/448 451/1/447 155/1/89
f 452/1/448 146/1/422 156/1/87
f 453/1/449 452/1/448 145/1/421
f 452/1/448 453/1/449 172/1/321
f 450/1/446 453/1/449 171/1/319
f 450/1/446 170/1/90 172/1/321
f 455/1/450 454/1/451 143/1/281
f 455/1/450 148/1/95 144/1/279
f 456/1/452 455/1/450 147/1/86
f 455/1/450 456/1/452 166/1/93
f 456/1/452 165/1/94 161/1/284
f 457/1/453 162/1/282 166/1/93
f 457/1/453 161/1/284 143/1/281
f 454/1/451 144/1/279 162/1/282
f 459/1/454 458/1/455 159/1/437
f 458/1/455 459/1/454 164/1/444
f 459/1/454 163/1/445 125/1/405
f 460/1/456 126/1/403 164/1/444
f 461/1/457 460/1/456 125/1/405
f 460/1/456 461/1/457 130/1/401
f 458/1/455 461/1/457 129/1/399
f 461/1/457 458/1/455 160/1/436
f 462/1/458 49/1/433 57/1/267
f 462/1/458 463/1/459 58/1/266
f 463/1/459 57/1/267 53/1/159
f 464/1/460 54/1/163 58/1/266
f 464/1/460 53/1/159 45/1/169
f 465/1/461 46/1/168 54/1/163
f 462/1/458 465/1/461 45/1/169
f 465/1/461 462/1/458 50/1/432
f 466/1/462 171/1/319 145/1/421
f 467/1/463 146/1/422 172/1/321
f 468/1/464 467/1/463 145/1/421
f 467/1/463 468/1/464 142/1/406
f 469/1/465 468/1/464 141/1/408
f 468/1/464 469/1/465 168/1/324
f 466/1/462 469/1/465 167/1/322
f 466/1/462 172/1/321 168/1/324
f 470/1/466 111/1/239 1/1/38
f 471/1/467 2/1/39 112/1/238
f 472/1/468 471/1/467 1/1/38
f 471/1/467 472/1/468 6/1/43
f 473/1/469 472/1/468 5/1/44
f 472/1/468 473/1/469 118/1/180
f 473/1/469 117/1/181 111/1/239
f 473/1/469 470/1/466 112/1/238
f 474/1/470 117/1/181 5/1/44
f 475/1/471 6/1/43 118/1/180
f 475/1/471 5/1/44 7/1/472
f 476/1/473 8/1/474 6/1/43
f 477/1/475 476/1/473 7/1/472
f 476/1/473 477/1/475 116/1/175
f 474/1/470 477/1/475 115/1/171
f 474/1/470 118/1/180 116/1/175
f 478/1/476 113/1/246 115/1/171
f 479/1/477 116/1/175 114/1/245
f 479/1/477 115/1/171 7/1/472
f 480/1/478 8/1/474 116/1/175
f 481/1/479 480/1/478 7/1/472
f 480/1/478 481/1/479 10/1/48
f 478/1/476 481/1/479 9/1/50
f 481/1/479 478/1/476 114/1/245
f 483/1/480 482/1/481 97/1/205
f 482/1/481 483/1/480 94/1/193
f 484/1/482 483/1/480 93/1/191
f 483/1/480 484/1/482 96/1/200
f 484/1/482 95/1/198 101/1/250
f 485/1/483 102/1/252 96/1/200
f 482/1/481 485/1/483 101/1/250
f 485/1/483 482/1/481 98/1/207
f 486/1/484 77/1/156 71/1/113
f 487/1/485 72/1/111 78/1/154
f 487/1/485 71/1/113 65/1/224
f 487/1/485 488/1/486 66/1/226
f 489/1/487 488/1/486 65/1/224
f 488/1/486 489/1/487 68/1/263
f 489/1/487 67/1/261 77/1/156
f 486/1/484 78/1/154 68/1/263
f 491/1/488 490/1/489 61/1/137
f 490/1/489 491/1/488 56/1/136
f 491/1/488 55/1/134 47/1/431
f 492/1/490 48/1/429 56/1/136
f 492/1/490 47/1/431 51/1/197
f 493/1/491 52/1/201 48/1/429
f 493/1/491 51/1/197 61/1/137
f 493/1/491 490/1/489 62/1/139
f 495/1/492 494/1/493 135/1/394
f 494/1/493 495/1/492 192/1/369
f 496/1/494 495/1/492 191/1/367
f 496/1/494 190/1/149 192/1/369
f 497/1/495 496/1/494 189/1/150
f 496/1/494 497/1/495 140/1/146
f 497/1/495 139/1/148 135/1/394
f 497/1/495 494/1/493 136/1/396
f 499/1/496 498/1/497 127/1/393
f 499/1/496 134/1/413 128/1/414
f 500/1/498 499/1/496 133/1/411
f 500/1/498 198/1/374 134/1/413
f 501/1/499 500/1/498 197/1/376
f 500/1/498 501/1/499 194/1/371
f 501/1/499 193/1/373 127/1/393
f 501/1/499 498/1/497 128/1/414
f 503/1/500 502/1/501 185/1/379
f 502/1/501 503/1/500 36/1/70
f 504/1/502 503/1/500 35/1/71
f 504/1/502 40/1/67 36/1/70
f 505/1/503 504/1/502 39/1/69
f 504/1/502 505/1/503 188/1/363
f 505/1/503 187/1/359 185/1/379
f 502/1/501 186/1/381 188/1/363
f 507/1/504 506/1/505 25/1/21
f 506/1/505 507/1/504 36/1/70
f 508/1/506 507/1/504 35/1/71
f 507/1/504 508/1/506 186/1/381
f 508/1/506 185/1/379 181/1/24
f 509/1/507 182/1/22 186/1/381
f 506/1/505 509/1/507 181/1/24
f 506/1/505 26/1/19 182/1/22
f 510/1/508 183/1/360 187/1/359
f 510/1/508 511/1/509 188/1/363
f 511/1/509 187/1/359 39/1/69
f 511/1/509 512/1/510 40/1/67
f 513/1/511 512/1/510 39/1/69
f 512/1/510 513/1/511 44/1/64
f 510/1/508 513/1/511 43/1/66
f 513/1/511 510/1/508 184/1/362
f 515/1/512 514/1/513 1/1/38
f 514/1/513 515/1/512 112/1/238
f 515/1/512 111/1/239 109/1/128
f 515/1/512 516/1/514 110/1/126
f 516/1/514 109/1/128 13/1/6
f 517/1/515 14/1/4 110/1/126
f 517/1/515 13/1/6 1/1/38
f 514/1/513 2/1/39 14/1/4
f 518/1/516 199/1/340 153/1/335
f 518/1/516 519/1/517 154/1/337
f 520/1/518 519/1/517 153/1/335
f 520/1/518 152/1/144 154/1/337
f 521/1/519 520/1/518 151/1/142
f 521/1/519 196/1/151 152/1/144
f 521/1/519 195/1/141 199/1/340
f 521/1/519 518/1/516 200/1/339
f 522/1/520 135/1/394 127/1/393
f 522/1/520 523/1/521 128/1/414
f 524/1/522 523/1/521 127/1/393
f 523/1/521 524/1/522 194/1/371
f 524/1/522 193/1/373 191/1/367
f 525/1/523 192/1/369 194/1/371
f 525/1/523 191/1/367 135/1/394
f 525/1/523 522/1/520 136/1/396
f 527/1/524 526/1/525 179/1/312
f 527/1/524 184/1/362 180/1/313
f 528/1/526 527/1/524 183/1/360
f 527/1/524 528/1/526 44/1/64
f 529/1/527 528/1/526 43/1/66
f 528/1/526 529/1/527 42/1/62
f 526/1/525 529/1/527 41/1/60
f 529/1/527 526/1/525 180/1/313
f 531/1/528 530/1/529 137/1/410
f 531/1/528 202/1/377 138/1/409
f 531/1/528 201/1/378 197/1/376
f 531/1/528 532/1/530 198/1/374
f 532/1/530 197/1/376 133/1/411
f 532/1/530 533/1/531 134/1/413
f 530/1/529 533/1/531 133/1/411
f 530/1/529 138/1/409 134/1/413
f 534/1/532 67/1/261 161/1/284
f 535/1/533 162/1/282 68/1/263
f 535/1/533 161/1/284 165/1/94
f 536/1/534 166/1/93 162/1/282
f 537/1/535 536/1/534 165/1/94
f 536/1/534 537/1/535 78/1/154
f 534/1/532 537/1/535 77/1/156
f 534/1/532 68/1/263 78/1/154
f 538/1/536 73/1/100 169/1/92
f 539/1/537 170/1/90 74/1/99
f 540/1/538 539/1/537 169/1/92
f 540/1/538 172/1/321 170/1/90
f 541/1/539 540/1/538 171/1/319
f 540/1/538 541/1/539 64/1/103
f 541/1/539 63/1/101 73/1/100
f 541/1/539 538/1/536 74/1/99
f 542/1/540 77/1/156 165/1/94
f 543/1/541 166/1/93 78/1/154
f 544/1/542 543/1/541 165/1/94
f 543/1/541 544/1/542 170/1/90
f 545/1/543 544/1/542 169/1/92
f 544/1/542 545/1/543 74/1/99
f 542/1/540 545/1/543 73/1/100
f 545/1/543 542/1/540 78/1/154
f 546/1/544 167/1/322 163/1/445
f 547/1/545 164/1/444 168/1/324
f 548/1/546 547/1/545 163/1/445
f 547/1/545 548/1/546 48/1/429
f 549/1/547 548/1/546 47/1/431
f 549/1/547 56/1/136 48/1/429
f 549/1/547 55/1/134 167/1/322
f 546/1/544 168/1/324 56/1/136
f 551/1/548 550/1/549 159/1/437
f 551/1/548 158/1/285 160/1/436
f 552/1/550 551/1/548 157/1/286
f 551/1/548 552/1/550 58/1/266
f 552/1/550 57/1/267 49/1/433
f 553/1/551 50/1/432 58/1/266
f 553/1/551 49/1/433 159/1/437
f 550/1/549 160/1/436 50/1/432
f 555/1/552 554/1/553 161/1/284
f 554/1/553 555/1/552 68/1/263
f 556/1/554 555/1/552 67/1/261
f 555/1/552 556/1/554 58/1/266
f 556/1/554 57/1/267 157/1/286
f 557/1/555 158/1/285 58/1/266
f 557/1/555 157/1/286 161/1/284
f 557/1/555 554/1/553 162/1/282
f 559/1/556 558/1/557 159/1/437
f 558/1/557 559/1/556 50/1/432
f 560/1/558 559/1/556 49/1/433
f 559/1/556 560/1/558 48/1/429
f 560/1/558 47/1/431 163/1/445
f 561/1/559 164/1/444 48/1/429
f 558/1/557 561/1/559 163/1/445
f 561/1/559 558/1/557 160/1/436
f 563/1/560 562/1/561 201/1/378
f 562/1/561 563/1/560 138/1/409
f 563/1/560 137/1/410 149/1/332
f 563/1/560 564/1/562 150/1/334
f 565/1/563 564/1/562 149/1/332
f 565/1/563 204/1/341 150/1/334
f 562/1/561 565/1/563 203/1/331
f 562/1/561 202/1/377 204/1/341
f 567/1/564 566/1/565 7/1/472
f 567/1/564 6/1/43 8/1/474
f 567/1/564 5/1/44 3/1/30
f 567/1/564 568/1/566 4/1/35
f 569/1/567 568/1/566 3/1/30
f 568/1/566 569/1/567 18/1/34
f 570/1/568 569/1/567 17/1/32
f 570/1/568 10/1/48 18/1/34
f 570/1/568 9/1/50 7/1/472
f 570/1/568 566/1/565 8/1/474
f 206/1/1 11/1/3 13/1/6
f 206/1/1 12/1/5 205/1/2
f 206/1/1 15/1/7 207/1/8
f 206/1/1 16/1/9 14/1/4
f 208/1/10 15/1/7 23/1/12
f 208/1/10 16/1/9 207/1/8
f 208/1/10 21/1/13 209/1/14
f 208/1/10 22/1/15 24/1/11
f 205/1/2 21/1/13 11/1/3
f 205/1/2 22/1/15 209/1/14
f 211/1/16 27/1/18 25/1/21
f 210/1/17 26/1/19 28/1/27
f 212/1/20 25/1/21 181/1/24
f 211/1/16 182/1/22 26/1/19
f 213/1/23 181/1/24 177/1/26
f 212/1/20 178/1/25 182/1/22
f 210/1/17 177/1/26 27/1/18
f 213/1/23 28/1/27 178/1/25
f 215/1/28 3/1/30 11/1/3
f 214/1/29 12/1/5 4/1/35
f 216/1/31 11/1/3 21/1/13
f 215/1/28 22/1/15 12/1/5
f 216/1/31 17/1/32 217/1/33
f 217/1/33 22/1/15 216/1/31
f 217/1/33 3/1/30 214/1/29
f 217/1/33 4/1/35 18/1/34
f 219/1/36 1/1/38 13/1/6
f 219/1/36 2/1/39 218/1/37
f 219/1/36 11/1/3 220/1/40
f 219/1/36 12/1/5 14/1/4
f 220/1/40 3/1/30 221/1/41
f 221/1/41 12/1/5 220/1/40
f 222/1/42 3/1/30 5/1/44
f 222/1/42 4/1/35 221/1/41
f 222/1/42 1/1/38 218/1/37
f 222/1/42 2/1/39 6/1/43
f 224/1/45 19/1/47 9/1/50
f 224/1/45 20/1/49 223/1/46
f 224/1/45 17/1/32 225/1/51
f 224/1/45 18/1/34 10/1/48
f 226/1/52 17/1/32 21/1/13
f 226/1/52 18/1/34 225/1/51
f 227/1/53 21/1/13 23/1/12
f 227/1/53 22/1/15 226/1/52
f 227/1/53 19/1/47 223/1/46
f 227/1/53 20/1/49 24/1/11
f 229/1/54 33/1/56 37/1/59
f 229/1/54 34/1/58 228/1/55
f 229/1/54 41/1/60 230/1/61
f 229/1/54 42/1/62 38/1/57
f 231/1/63 41/1/60 43/1/66
f 230/1/61 44/1/64 42/1/62
f 232/1/65 43/1/66 39/1/69
f 232/1/65 44/1/64 231/1/63
f 233/1/68 39/1/69 35/1/71
f 233/1/68 40/1/67 232/1/65
f 233/1/68 31/1/72 234/1/73
f 233/1/68 32/1/74 36/1/70
f 228/1/55 31/1/72 33/1/56
f 234/1/73 34/1/58 32/1/74
f 236/1/75 31/1/72 35/1/71
f 236/1/75 32/1/74 235/1/76
f 236/1/75 25/1/21 237/1/77
f 236/1/75 26/1/19 36/1/70
f 238/1/78 25/1/21 27/1/18
f 237/1/77 28/1/27 26/1/19
f 239/1/79 27/1/18 29/1/82
f 239/1/79 28/1/27 238/1/78
f 240/1/81 29/1/82 37/1/59
f 240/1/81 30/1/80 239/1/79
f 240/1/81 33/1/56 241/1/83
f 240/1/81 34/1/58 38/1/57
f 235/1/76 33/1/56 31/1/72
f 241/1/83 32/1/74 34/1/58
f 243/1/84 147/1/86 155/1/89
f 242/1/85 156/1/87 148/1/95
f 244/1/88 155/1/89 169/1/92
f 243/1/84 170/1/90 156/1/87
f 245/1/91 169/1/92 165/1/94
f 244/1/88 166/1/93 170/1/90
f 245/1/91 147/1/86 242/1/85
f 242/1/85 166/1/93 245/1/91
f 247/1/96 79/1/98 73/1/100
f 246/1/97 74/1/99 80/1/107
f 247/1/96 63/1/101 248/1/102
f 247/1/96 64/1/103 74/1/99
f 248/1/102 69/1/104 249/1/105
f 249/1/105 64/1/103 248/1/102
f 249/1/105 79/1/98 246/1/97
f 246/1/97 70/1/106 249/1/105
f 251/1/108 83/1/110 71/1/113
f 250/1/109 72/1/111 84/1/117
f 252/1/112 71/1/113 79/1/98
f 252/1/112 72/1/111 251/1/108
f 252/1/112 81/1/114 253/1/115
f 253/1/115 80/1/107 252/1/112
f 250/1/109 81/1/114 83/1/110
f 253/1/115 84/1/117 82/1/116
f 254/1/118 85/1/119 255/1/120
f 255/1/120 70/1/106 254/1/118
f 256/1/122 85/1/119 81/1/114
f 255/1/120 82/1/116 86/1/121
f 257/1/123 81/1/114 79/1/98
f 256/1/122 80/1/107 82/1/116
f 254/1/118 79/1/98 69/1/104
f 257/1/123 70/1/106 80/1/107
f 259/1/124 13/1/6 109/1/128
f 258/1/125 110/1/126 14/1/4
f 260/1/127 109/1/128 99/1/130
f 259/1/124 100/1/129 110/1/126
f 260/1/127 15/1/7 261/1/131
f 261/1/131 100/1/129 260/1/127
f 258/1/125 15/1/7 13/1/6
f 261/1/131 14/1/4 16/1/9
f 263/1/132 69/1/104 63/1/101
f 262/1/133 64/1/103 70/1/106
f 263/1/132 55/1/134 264/1/135
f 264/1/135 64/1/103 263/1/132
f 264/1/135 61/1/137 265/1/138
f 265/1/138 56/1/136 264/1/135
f 262/1/133 61/1/137 69/1/104
f 262/1/133 62/1/139 265/1/138
f 266/1/140 151/1/142 267/1/143
f 266/1/140 152/1/144 196/1/151
f 268/1/145 151/1/142 139/1/148
f 268/1/145 152/1/144 267/1/143
f 269/1/147 139/1/148 189/1/150
f 269/1/147 140/1/146 268/1/145
f 269/1/147 195/1/141 266/1/140
f 269/1/147 196/1/151 190/1/149
f 271/1/152 71/1/113 77/1/156
f 270/1/153 78/1/154 72/1/111
f 272/1/155 77/1/156 73/1/100
f 272/1/155 78/1/154 271/1/152
f 272/1/155 79/1/98 273/1/157
f 273/1/157 74/1/99 272/1/155
f 273/1/157 71/1/113 270/1/153
f 270/1/153 80/1/107 273/1/157
f 274/1/158 123/1/160 275/1/161
f 275/1/161 54/1/163 274/1/158
f 276/1/164 123/1/160 59/1/167
f 275/1/161 60/1/165 124/1/162
f 277/1/166 59/1/167 45/1/169
f 276/1/164 46/1/168 60/1/165
f 274/1/158 45/1/169 53/1/159
f 277/1/166 54/1/163 46/1/168
f 278/1/170 121/1/172 279/1/173
f 279/1/173 116/1/175 278/1/170
f 280/1/176 121/1/172 119/1/179
f 280/1/176 122/1/174 279/1/173
f 281/1/178 119/1/179 117/1/181
f 280/1/176 118/1/180 120/1/177
f 281/1/178 115/1/171 278/1/170
f 281/1/178 116/1/175 118/1/180
f 283/1/182 119/1/179 75/1/186
f 282/1/183 76/1/184 120/1/177
f 284/1/185 75/1/186 83/1/110
f 283/1/182 84/1/117 76/1/184
f 284/1/185 87/1/187 285/1/188
f 285/1/188 84/1/117 284/1/185
f 285/1/188 119/1/179 282/1/183
f 285/1/188 120/1/177 88/1/189
f 286/1/190 93/1/191 287/1/192
f 287/1/192 62/1/139 286/1/190
f 287/1/192 85/1/119 288/1/194
f 288/1/194 94/1/193 287/1/192
f 289/1/195 85/1/119 69/1/104
f 288/1/194 70/1/106 86/1/121
f 289/1/195 61/1/137 286/1/190
f 289/1/195 62/1/139 70/1/106
f 290/1/196 95/1/198 291/1/199
f 291/1/199 52/1/201 290/1/196
f 291/1/199 93/1/191 292/1/202
f 291/1/199 94/1/193 96/1/200
f 293/1/203 93/1/191 61/1/137
f 292/1/202 62/1/139 94/1/193
f 293/1/203 51/1/197 290/1/196
f 293/1/203 52/1/201 62/1/139
f 294/1/204 97/1/205 295/1/206
f 295/1/206 94/1/193 294/1/204
f 296/1/208 97/1/205 91/1/211
f 295/1/206 92/1/209 98/1/207
f 297/1/210 91/1/211 85/1/119
f 296/1/208 86/1/121 92/1/209
f 297/1/210 93/1/191 294/1/204
f 297/1/210 94/1/193 86/1/121
f 299/1/212 59/1/167 95/1/198
f 298/1/213 96/1/200 60/1/165
f 300/1/214 95/1/198 51/1/197
f 299/1/212 52/1/201 96/1/200
f 301/1/215 51/1/197 45/1/169
f 301/1/215 52/1/201 300/1/214
f 301/1/215 59/1/167 298/1/213
f 298/1/213 46/1/168 301/1/215
f 303/1/216 87/1/187 83/1/110
f 302/1/217 84/1/117 88/1/189
f 303/1/216 81/1/114 304/1/218
f 304/1/218 84/1/117 303/1/216
f 304/1/218 89/1/219 305/1/220
f 305/1/220 82/1/116 304/1/218
f 305/1/220 87/1/187 302/1/217
f 305/1/220 88/1/189 90/1/221
f 307/1/222 123/1/160 53/1/159
f 306/1/223 54/1/163 124/1/162
f 307/1/222 65/1/224 308/1/225
f 307/1/222 66/1/226 54/1/163
f 308/1/225 75/1/186 309/1/227
f 309/1/227 66/1/226 308/1/225
f 306/1/223 75/1/186 123/1/160
f 306/1/223 76/1/184 309/1/227
f 311/1/228 89/1/219 81/1/114
f 310/1/229 82/1/116 90/1/221
f 311/1/228 85/1/119 312/1/230
f 312/1/230 82/1/116 311/1/228
f 312/1/230 91/1/211 313/1/231
f 313/1/231 86/1/121 312/1/230
f 313/1/231 89/1/219 310/1/229
f 313/1/231 90/1/221 92/1/209
f 314/1/232 83/1/110 315/1/233
f 315/1/233 72/1/111 314/1/232
f 315/1/233 75/1/186 316/1/234
f 315/1/233 76/1/184 84/1/117
f 317/1/235 75/1/186 65/1/224
f 316/1/234 66/1/226 76/1/184
f 317/1/235 71/1/113 314/1/232
f 317/1/235 72/1/111 66/1/226
f 319/1/236 87/1/187 111/1/239
f 318/1/237 112/1/238 88/1/189
f 319/1/236 117/1/181 320/1/240
f 320/1/240 112/1/238 319/1/236
f 320/1/240 119/1/179 321/1/241
f 321/1/241 118/1/180 320/1/240
f 321/1/241 87/1/187 318/1/237
f 321/1/241 88/1/189 120/1/177
f 323/1/242 103/1/244 113/1/246
f 322/1/243 114/1/245 104/1/253
f 323/1/242 105/1/247 324/1/248
f 324/1/248 114/1/245 323/1/242
f 324/1/248 101/1/250 325/1/251
f 325/1/251 106/1/249 324/1/248
f 325/1/251 103/1/244 322/1/243
f 325/1/251 104/1/253 102/1/252
f 327/1/254 29/1/82 27/1/18
f 326/1/255 28/1/27 30/1/80
f 328/1/256 27/1/18 177/1/26
f 327/1/254 178/1/25 28/1/27
f 329/1/257 177/1/26 175/1/259
f 328/1/256 176/1/258 178/1/25
f 326/1/255 175/1/259 29/1/82
f 329/1/257 30/1/80 176/1/258
f 330/1/260 65/1/224 331/1/262
f 331/1/262 68/1/263 330/1/260
f 332/1/264 65/1/224 53/1/159
f 332/1/264 66/1/226 331/1/262
f 333/1/265 53/1/159 57/1/267
f 332/1/264 58/1/266 54/1/163
f 333/1/265 67/1/261 330/1/260
f 330/1/260 58/1/266 333/1/265
f 334/1/268 87/1/187 335/1/269
f 335/1/269 112/1/238 334/1/268
f 335/1/269 89/1/219 336/1/270
f 335/1/269 90/1/221 88/1/189
f 337/1/271 89/1/219 109/1/128
f 336/1/270 110/1/126 90/1/221
f 337/1/271 111/1/239 334/1/268
f 337/1/271 112/1/238 110/1/126
f 339/1/272 103/1/244 121/1/172
f 339/1/272 104/1/253 338/1/273
f 340/1/274 121/1/172 115/1/171
f 339/1/272 116/1/175 122/1/174
f 341/1/275 115/1/171 113/1/246
f 340/1/274 114/1/245 116/1/175
f 341/1/275 103/1/244 338/1/273
f 338/1/273 114/1/245 341/1/275
f 343/1/276 131/1/278 143/1/281
f 342/1/277 144/1/279 132/1/287
f 344/1/280 143/1/281 161/1/284
f 343/1/276 162/1/282 144/1/279
f 345/1/283 161/1/284 157/1/286
f 345/1/283 162/1/282 344/1/280
f 345/1/283 131/1/278 342/1/277
f 342/1/277 158/1/285 345/1/283
f 347/1/288 15/1/7 99/1/130
f 346/1/289 100/1/129 16/1/9
f 347/1/288 107/1/290 348/1/291
f 347/1/288 108/1/292 100/1/129
f 348/1/291 23/1/12 349/1/293
f 349/1/293 108/1/292 348/1/291
f 349/1/293 15/1/7 346/1/289
f 346/1/289 24/1/11 349/1/293
f 351/1/294 121/1/172 123/1/160
f 350/1/295 124/1/162 122/1/174
f 351/1/294 75/1/186 352/1/296
f 352/1/296 124/1/162 351/1/294
f 352/1/296 119/1/179 353/1/297
f 353/1/297 76/1/184 352/1/296
f 353/1/297 121/1/172 350/1/295
f 353/1/297 122/1/174 120/1/177
f 355/1/298 59/1/167 123/1/160
f 354/1/299 124/1/162 60/1/165
f 355/1/298 121/1/172 356/1/300
f 356/1/300 124/1/162 355/1/298
f 356/1/300 103/1/244 357/1/301
f 357/1/301 122/1/174 356/1/300
f 354/1/299 103/1/244 59/1/167
f 357/1/301 60/1/165 104/1/253
f 358/1/302 89/1/219 359/1/303
f 359/1/303 110/1/126 358/1/302
f 360/1/304 89/1/219 91/1/211
f 359/1/303 92/1/209 90/1/221
f 361/1/305 91/1/211 99/1/130
f 360/1/304 100/1/129 92/1/209
f 361/1/305 109/1/128 358/1/302
f 358/1/302 100/1/129 361/1/305
f 363/1/306 103/1/244 101/1/250
f 363/1/306 104/1/253 362/1/307
f 364/1/308 101/1/250 95/1/198
f 363/1/306 96/1/200 102/1/252
f 364/1/308 59/1/167 365/1/309
f 364/1/308 60/1/165 96/1/200
f 365/1/309 103/1/244 362/1/307
f 362/1/307 60/1/165 365/1/309
f 367/1/310 179/1/312 41/1/60
f 367/1/310 180/1/313 366/1/311
f 368/1/314 41/1/60 37/1/59
f 367/1/310 38/1/57 42/1/62
f 369/1/315 37/1/59 173/1/317
f 368/1/314 174/1/316 38/1/57
f 369/1/315 179/1/312 366/1/311
f 369/1/315 180/1/313 174/1/316
f 370/1/318 171/1/319 371/1/320
f 371/1/320 64/1/103 370/1/318
f 371/1/320 167/1/322 372/1/323
f 371/1/320 168/1/324 172/1/321
f 373/1/325 167/1/322 55/1/134
f 372/1/323 56/1/136 168/1/324
f 370/1/318 55/1/134 63/1/101
f 373/1/325 64/1/103 56/1/136
f 375/1/326 37/1/59 29/1/82
f 375/1/326 38/1/57 374/1/327
f 376/1/328 29/1/82 175/1/259
f 375/1/326 176/1/258 30/1/80
f 377/1/329 175/1/259 173/1/317
f 377/1/329 176/1/258 376/1/328
f 374/1/327 173/1/317 37/1/59
f 377/1/329 38/1/57 174/1/316
f 378/1/330 149/1/332 379/1/333
f 378/1/330 150/1/334 204/1/341
f 379/1/333 153/1/335 380/1/336
f 379/1/333 154/1/337 150/1/334
f 381/1/338 153/1/335 199/1/340
f 380/1/336 200/1/339 154/1/337
f 378/1/330 199/1/340 203/1/331
f 381/1/338 204/1/341 200/1/339
f 383/1/342 97/1/205 107/1/290
f 382/1/343 108/1/292 98/1/207
f 383/1/342 99/1/130 384/1/344
f 384/1/344 108/1/292 383/1/342
f 384/1/344 91/1/211 385/1/345
f 385/1/345 100/1/129 384/1/344
f 382/1/343 91/1/211 97/1/205
f 385/1/345 98/1/207 92/1/209
f 386/1/346 97/1/205 387/1/347
f 387/1/347 108/1/292 386/1/346
f 387/1/347 101/1/250 388/1/348
f 387/1/347 102/1/252 98/1/207
f 389/1/349 101/1/250 105/1/247
f 388/1/348 106/1/249 102/1/252
f 386/1/346 105/1/247 107/1/290
f 386/1/346 106/1/249 389/1/349
f 390/1/350 113/1/246 391/1/351
f 390/1/350 114/1/245 106/1/249
f 391/1/351 9/1/50 392/1/352
f 392/1/352 114/1/245 391/1/351
f 392/1/352 19/1/47 393/1/353
f 393/1/353 10/1/48 392/1/352
f 390/1/350 19/1/47 105/1/247
f 393/1/353 106/1/249 20/1/49
f 394/1/354 19/1/47 395/1/355
f 395/1/355 106/1/249 394/1/354
f 396/1/356 19/1/47 23/1/12
f 395/1/355 24/1/11 20/1/49
f 397/1/357 23/1/12 107/1/290
f 396/1/356 108/1/292 24/1/11
f 394/1/354 107/1/290 105/1/247
f 394/1/354 108/1/292 397/1/357
f 398/1/358 183/1/360 399/1/361
f 399/1/361 188/1/363 398/1/358
f 399/1/361 179/1/312 400/1/364
f 399/1/361 180/1/313 184/1/362
f 401/1/365 179/1/312 173/1/317
f 401/1/365 180/1/313 400/1/364
f 402/1/366 173/1/317 189/1/150
f 401/1/365 190/1/149 174/1/316
f 402/1/366 191/1/367 403/1/368
f 402/1/366 192/1/369 190/1/149
f 404/1/370 191/1/367 193/1/373
f 403/1/368 194/1/371 192/1/369
f 405/1/372 193/1/373 197/1/376
f 404/1/370 198/1/374 194/1/371
f 406/1/375 197/1/376 201/1/378
f 406/1/375 198/1/374 405/1/372
f 406/1/375 185/1/379 407/1/380
f 407/1/380 202/1/377 406/1/375
f 407/1/380 187/1/359 398/1/358
f 407/1/380 188/1/363 186/1/381
f 409/1/382 177/1/26 181/1/24
f 409/1/382 178/1/25 408/1/383
f 410/1/384 181/1/24 185/1/379
f 410/1/384 182/1/22 409/1/382
f 411/1/385 185/1/379 201/1/378
f 410/1/384 202/1/377 186/1/381
f 411/1/385 203/1/331 412/1/386
f 411/1/385 204/1/341 202/1/377
f 412/1/386 199/1/340 413/1/387
f 413/1/387 204/1/341 412/1/386
f 413/1/387 195/1/141 414/1/388
f 413/1/387 196/1/151 200/1/339
f 415/1/389 195/1/141 189/1/150
f 415/1/389 196/1/151 414/1/388
f 415/1/389 173/1/317 416/1/390
f 416/1/390 190/1/149 415/1/389
f 416/1/390 175/1/259 417/1/391
f 416/1/390 176/1/258 174/1/316
f 408/1/383 175/1/259 177/1/26
f 408/1/383 176/1/258 417/1/391
f 418/1/392 135/1/394 419/1/395
f 418/1/392 136/1/396 128/1/414
f 420/1/397 135/1/394 139/1/148
f 420/1/397 136/1/396 419/1/395
f 420/1/397 143/1/281 421/1/398
f 421/1/398 140/1/146 420/1/397
f 421/1/398 131/1/278 422/1/61
f 421/1/398 132/1/287 144/1/279
f 422/1/61 129/1/399 423/1/400
f 423/1/400 132/1/287 422/1/61
f 424/1/402 129/1/399 125/1/405
f 424/1/402 130/1/401 423/1/400
f 425/1/404 125/1/405 141/1/408
f 425/1/404 126/1/403 424/1/402
f 426/1/407 141/1/408 137/1/410
f 425/1/404 138/1/409 142/1/406
f 426/1/407 133/1/411 427/1/412
f 426/1/407 134/1/413 138/1/409
f 418/1/392 133/1/411 127/1/393
f 418/1/392 134/1/413 427/1/412
f 428/1/415 151/1/142 429/1/416
f 428/1/415 152/1/144 140/1/146
f 430/1/417 151/1/142 153/1/335
f 430/1/417 152/1/144 429/1/416
f 430/1/417 149/1/332 431/1/418
f 430/1/417 150/1/334 154/1/337
f 432/1/419 149/1/332 137/1/410
f 432/1/419 150/1/334 431/1/418
f 432/1/419 141/1/408 433/1/420
f 433/1/420 138/1/409 432/1/419
f 433/1/420 145/1/421 434/1/77
f 433/1/420 146/1/422 142/1/406
f 434/1/77 155/1/89 435/1/423
f 435/1/423 146/1/422 434/1/77
f 436/1/424 155/1/89 147/1/86
f 436/1/424 156/1/87 435/1/423
f 437/1/425 147/1/86 143/1/281
f 437/1/425 148/1/95 436/1/424
f 428/1/415 143/1/281 139/1/148
f 437/1/425 140/1/146 144/1/279
f 438/1/426 51/1/197 439/1/427
f 439/1/427 46/1/168 438/1/426
f 440/1/428 51/1/197 47/1/431
f 439/1/427 48/1/429 52/1/201
f 441/1/430 47/1/431 49/1/433
f 441/1/430 48/1/429 440/1/428
f 441/1/430 45/1/169 438/1/426
f 438/1/426 50/1/432 441/1/430
f 443/1/434 157/1/286 159/1/437
f 443/1/434 158/1/285 442/1/435
f 443/1/434 129/1/399 444/1/438
f 444/1/438 160/1/436 443/1/434
f 445/1/439 129/1/399 131/1/278
f 445/1/439 130/1/401 444/1/438
f 442/1/435 131/1/278 157/1/286
f 445/1/439 158/1/285 132/1/287
f 446/1/440 141/1/408 447/1/441
f 447/1/441 168/1/324 446/1/440
f 448/1/442 141/1/408 125/1/405
f 448/1/442 142/1/406 447/1/441
f 449/1/443 125/1/405 163/1/445
f 448/1/442 164/1/444 126/1/403
f 449/1/443 167/1/322 446/1/440
f 446/1/440 164/1/444 449/1/443
f 450/1/446 155/1/89 451/1/447
f 451/1/447 170/1/90 450/1/446
f 452/1/448 155/1/89 145/1/421
f 452/1/448 156/1/87 451/1/447
f 453/1/449 145/1/421 171/1/319
f 452/1/448 172/1/321 146/1/422
f 450/1/446 171/1/319 169/1/92
f 450/1/446 172/1/321 453/1/449
f 455/1/450 143/1/281 147/1/86
f 455/1/450 144/1/279 454/1/451
f 456/1/452 147/1/86 165/1/94
f 455/1/450 166/1/93 148/1/95
f 456/1/452 161/1/284 457/1/453
f 457/1/453 166/1/93 456/1/452
f 457/1/453 143/1/281 454/1/451
f 454/1/451 162/1/282 457/1/453
f 459/1/454 159/1/437 163/1/445
f 458/1/455 164/1/444 160/1/436
f 459/1/454 125/1/405 460/1/456
f 460/1/456 164/1/444 459/1/454
f 461/1/457 125/1/405 129/1/399
f 460/1/456 130/1/401 126/1/403
f 458/1/455 129/1/399 159/1/437
f 461/1/457 160/1/436 130/1/401
f 462/1/458 57/1/267 463/1/459
f 462/1/458 58/1/266 50/1/432
f 463/1/459 53/1/159 464/1/460
f 464/1/460 58/1/266 463/1/459
f 464/1/460 45/1/169 465/1/461
f 465/1/461 54/1/163 464/1/460
f 462/1/458 45/1/169 49/1/433
f 465/1/461 50/1/432 46/1/168
f 466/1/462 145/1/421 467/1/463
f 467/1/463 172/1/321 466/1/462
f 468/1/464 145/1/421 141/1/408
f 467/1/463 142/1/406 146/1/422
f 469/1/465 141/1/408 167/1/322
f 468/1/464 168/1/324 142/1/406
f 466/1/462 167/1/322 171/1/319
f 466/1/462 168/1/324 469/1/465
f 470/1/466 1/1/38 471/1/467
f 471/1/467 112/1/238 470/1/466
f 472/1/468 1/1/38 5/1/44
f 471/1/467 6/1/43 2/1/39
f 473/1/469 5/1/44 117/1/181
f 472/1/468 118/1/180 6/1/43
f 473/1/469 111/1/239 470/1/466
f 473/1/469 112/1/238 118/1/180
f 474/1/470 5/1/44 475/1/471
f 475/1/471 118/1/180 474/1/470
f 475/1/471 7/1/472 476/1/473
f 476/1/473 6/1/43 475/1/471
f 477/1/475 7/1/472 115/1/171
f 476/1/473 116/1/175 8/1/474
f 474/1/470 115/1/171 117/1/181
f 474/1/470 116/1/175 477/1/475
f 478/1/476 115/1/171 479/1/477
f 479/1/477 114/1/245 478/1/476
f 479/1/477 7/1/472 480/1/478
f 480/1/478 116/1/175 479/1/477
f 481/1/479 7/1/472 9/1/50
f 480/1/478 10/1/48 8/1/474
f 478/1/476 9/1/50 113/1/246
f 481/1/479 114/1/245 10/1/48
f 483/1/480 97/1/205 93/1/191
f 482/1/481 94/1/193 98/1/207
f 484/1/482 93/1/191 95/1/198
f 483/1/480 96/1/200 94/1/193
f 484/1/482 101/1/250 485/1/483
f 485/1/483 96/1/200 484/1/482
f 482/1/481 101/1/250 97/1/205
f 485/1/483 98/1/207 102/1/252
f 486/1/484 71/1/113 487/1/485
f 487/1/485 78/1/154 486/1/484
f 487/1/485 65/1/224 488/1/486
f 487/1/485 66/1/226 72/1/111
f 489/1/487 65/1/224 67/1/261
f 488/1/486 68/1/263 66/1/226
f 489/1/487 77/1/156 486/1/484
f 486/1/484 68/1/263 489/1/487
f 491/1/488 61/1/137 55/1/134
f 490/1/489 56/1/136 62/1/139
f 491/1/488 47/1/431 492/1/490
f 492/1/490 56/1/136 491/1/488
f 492/1/490 51/1/197 493/1/491
f 493/1/491 48/1/429 492/1/490
f 493/1/491 61/1/137 490/1/489
f 493/1/491 62/1/139 52/1/201
f 495/1/492 135/1/394 191/1/367
f 494/1/493 192/1/369 136/1/396
f 496/1/494 191/1/367 189/1/150
f 496/1/494 192/1/369 495/1/492
f 497/1/495 189/1/150 139/1/148
f 496/1/494 140/1/146 190/1/149
f 497/1/495 135/1/394 494/1/493
f 497/1/495 136/1/396 140/1/146
f 499/1/496 127/1/393 133/1/411
f 499/1/496 128/1/414 498/1/497
f 500/1/498 133/1/411 197/1/376
f 500/1/498 134/1/413 499/1/496
f 501/1/499 197/1/376 193/1/373
f 500/1/498 194/1/371 198/1/374
f 501/1/499 127/1/393 498/1/497
f 501/1/499 128/1/414 194/1/371
f 503/1/500 185/1/379 35/1/71
f 502/1/501 36/1/70 186/1/381
f 504/1/502 35/1/71 39/1/69
f 504/1/502 36/1/70 503/1/500
f 505/1/503 39/1/69 187/1/359
f 504/1/502 188/1/363 40/1/67
f 505/1/503 185/1/379 502/1/501
f 502/1/501 188/1/363 505/1/503
f 507/1/504 25/1/21 35/1/71
f 506/1/505 36/1/70 26/1/19
f 508/1/506 35/1/71 185/1/379
f 507/1/504 186/1/381 36/1/70
f 508/1/506 181/1/24 509/1/507
f 509/1/507 186/1/381 508/1/506
f 506/1/505 181/1/24 25/1/21
f 506/1/505 182/1/22 509/1/507
f 510/1/508 187/1/359 511/1/509
f 510/1/508 188/1/363 184/1/362
f 511/1/509 39/1/69 512/1/510
f 511/1/509 40/1/67 188/1/363
f 513/1/511 39/1/69 43/1/66
f 512/1/510 44/1/64 40/1/67
f 510/1/508 43/1/66 183/1/360
f 513/1/511 184/1/362 44/1/64
f 515/1/512 1/1/38 111/1/239
f 514/1/513 112/1/238 2/1/39
f 515/1/512 109/1/128 516/1/514
f 515/1/512 110/1/126 112/1/238
f 516/1/514 13/1/6 517/1/515
f 517/1/515 110/1/126 516/1/514
f 517/1/515 1/1/38 514/1/513
f 514/1/513 14/1/4 517/1/515
f 518/1/516 153/1/335 519/1/517
f 518/1/516 154/1/337 200/1/339
f 520/1/518 153/1/335 151/1/142
f 520/1/518 154/1/337 519/1/517
f 521/1/519 151/1/142 195/1/141
f 521/1/519 152/1/144 520/1/518
f 521/1/519 199/1/340 518/1/516
f 521/1/519 200/1/339 196/1/151
f 522/1/520 127/1/393 523/1/521
f 522/1/520 128/1/414 136/1/396
f 524/1/522 127/1/393 193/1/373
f 523/1/521 194/1/371 128/1/414
f 524/1/522 191/1/367 525/1/523
f 525/1/523 194/1/371 524/1/522
f 525/1/523 135/1/394 522/1/520
f 525/1/523 136/1/396 192/1/369
f 527/1/524 179/1/312 183/1/360
f 527/1/524 180/1/313 526/1/525
f 528/1/526 183/1/360 43/1/66
f 527/1/524 44/1/64 184/1/362
f 529/1/527 43/1/66 41/1/60
f 528/1/526 42/1/62 44/1/64
f 526/1/525 41/1/60 179/1/312
f 529/1/527 180/1/313 42/1/62
f 531/1/528 137/1/410 201/1/378
f 531/1/528 138/1/409 530/1/529
f 531/1/528 197/1/376 532/1/530
f 531/1/528 198/1/374 202/1/377
f 532/1/530 133/1/411 533/1/531
f 532/1/530 134/1/413 198/1/374
f 530/1/529 133/1/411 137/1/410
f 530/1/529 134/1/413 533/1/531
f 534/1/532 161/1/284 535/1/533
f 535/1/533 68/1/263 534/1/532
f 535/1/533 165/1/94 536/1/534
f 536/1/534 162/1/282 535/1/533
f 537/1/535 165/1/94 77/1/156
f 536/1/534 78/1/154 166/1/93
f 534/1/532 77/1/156 67/1/261
f 534/1/532 78/1/154 537/1/535
f 538/1/536 169/1/92 539/1/537
f 539/1/537 74/1/99 538/1/536
f 540/1/538 169/1/92 171/1/319
f 540/1/538 170/1/90 539/1/537
f 541/1/539 171/1/319 63/1/101
f 540/1/538 64/1/103 172/1/321
f 541/1/539 73/1/100 538/1/536
f 541/1/539 74/1/99 64/1/103
f 542/1/540 165/1/94 543/1/541
f 543/1/541 78/1/154 542/1/540
f 544/1/542 165/1/94 169/1/92
f 543/1/541 170/1/90 166/1/93
f 545/1/543 169/1/92 73/1/100
f 544/1/542 74/1/99 170/1/90
f 542/1/540 73/1/100 77/1/156
f 545/1/543 78/1/154 74/1/99
f 546/1/544 163/1/445 547/1/545
f 547/1/545 168/1/324 546/1/544
f 548/1/546 163/1/445 47/1/431
f 547/1/545 48/1/429 164/1/444
f 549/1/547 47/1/431 55/1/134
f 549/1/547 48/1/429 548/1/546
f 549/1/547 167/1/322 546/1/544
f 546/1/544 56/1/136 549/1/547
f 551/1/548 159/1/437 157/1/286
f 551/1/548 160/1/436 550/1/549
f 552/1/550 157/1/286 57/1/267
f 551/1/548 58/1/266 158/1/285
f 552/1/550 49/1/433 553/1/551
f 553/1/551 58/1/266 552/1/550
f 553/1/551 159/1/437 550/1/549
f 550/1/549 50/1/432 553/1/551
f 555/1/552 161/1/284 67/1/261
f 554/1/553 68/1/263 162/1/282
f 556/1/554 67/1/261 57/1/267
f 555/1/552 58/1/266 68/1/263
f 556/1/554 157/1/286 557/1/555
f 557/1/555 58/1/266 556/1/554
f 557/1/555 161/1/284 554/1/553
f 557/1/555 162/1/282 158/1/285
f 559/1/556 159/1/437 49/1/433
f 558/1/557 50/1/432 160/1/436
f 560/1/558 49/1/433 47/1/431
f 559/1/556 48/1/429 50/1/432
f 560/1/558 163/1/445 561/1/559
f 561/1/559 48/1/429 560/1/558
f 558/1/557 163/1/445 159/1/437
f 561/1/559 160/1/436 164/1/444
f 563/1/560 201/1/378 137/1/410
f 562/1/561 138/1/409 202/1/377
f 563/1/560 149/1/332 564/1/562
f 563/1/560 150/1/334 138/1/409
f 565/1/563 149/1/332 203/1/331
f 565/1/563 150/1/334 564/1/562
f 562/1/561 203/1/331 201/1/378
f 562/1/561 204/1/341 565/1/563
f 567/1/564 7/1/472 5/1/44
f 567/1/564 8/1/474 566/1/565
f 567/1/564 3/1/30 568/1/566
f 567/1/564 4/1/35 6/1/43
f 569/1/567 3/1/30 17/1/32
f 568/1/566 18/1/34 4/1/35
f 570/1/568 17/1/32 9/1/50
f 570/1/568 18/1/34 569/1/567
f 570/1/568 7/1/472 566/1/565
f 570/1/568 8/1/474 10/1/48
