# Blender 5.2.0 LTS
# www.blender.org
mtllib glass body.mtl
o body
v -1.147542 0.155464 -0.044140
v -1.148868 0.154000 -0.044453
v -1.147542 0.254454 -0.087639
v -1.148956 0.254454 -0.089053
v -1.147542 0.174938 -0.087639
v -1.148748 0.174070 -0.088978
v -1.147542 0.155464 0.044140
v -1.148868 0.154000 0.044453
v -1.147542 0.254454 0.087639
v -1.148956 0.254454 0.089053
v -1.147542 0.174938 0.087639
v -1.148748 0.174070 0.088978
v 0.323681 -0.487422 -0.087551
v 0.322833 -0.488817 -0.088706
v 0.654293 -0.406846 -0.087551
v 0.655688 -0.407694 -0.088706
v 0.654293 -0.406846 0.087551
v 0.655688 -0.407694 0.088706
v 0.323681 -0.487422 0.087551
v 0.322833 -0.488817 0.088706
v -0.284487 0.252981 -0.094189
v -0.285642 0.254136 -0.095344
v -0.284487 0.121721 -0.094189
v -0.285772 0.120752 -0.095376
v -0.284487 0.121721 0.094189
v -0.285772 0.120752 0.095376
v -0.284487 0.252981 0.094189
v -0.285642 0.254136 0.095344
v 0.569841 0.252981 0.094189
v 0.570996 0.254136 0.095344
v 0.569841 0.121720 -0.094189
v 0.571126 0.120751 -0.095376
v 0.569841 0.252981 -0.094189
v 0.570996 0.254136 -0.095344
v 0.569841 0.121720 0.094189
v 0.571126 0.120751 0.095376
v 0.518672 0.149619 0.087551
v 0.520046 0.149954 0.088965
v 0.518672 0.149619 -0.087551
v 0.520046 0.149954 -0.088965
v 0.624380 0.371157 -0.087242
v 0.624380 0.372571 -0.088656
v 0.624380 0.371157 0.087242
v 0.624380 0.372571 0.088656
v 1.147542 0.371157 -0.087242
v 1.147542 0.372571 -0.088656
v 1.147542 0.371157 0.087242
v 1.147542 0.372571 0.088656
v 0.000289 0.040373 -0.094189
v 0.000085 0.038916 -0.095543
v 0.000289 0.040373 0.094189
v 0.000085 0.038916 0.095543
v 0.285065 0.040373 0.094189
v 0.285269 0.038916 0.095543
v 0.285065 0.040373 -0.094189
v 0.285269 0.038916 -0.095543
v 0.332216 -0.384448 0.087551
v 0.330682 -0.384210 0.088812
v 0.219806 0.076780 0.087551
v 0.218432 0.076445 0.088965
v 0.308207 -0.423932 0.087551
v 0.306673 -0.423694 0.088812
v 0.332216 -0.384448 -0.087551
v 0.330682 -0.384210 -0.088811
v 0.219806 0.076780 -0.087551
v 0.218432 0.076445 -0.088965
v 0.308207 -0.423932 -0.087551
v 0.306673 -0.423694 -0.088811
v -0.362101 0.174938 -0.087639
v -0.361162 0.173803 -0.088992
v -0.320456 0.254454 -0.087639
v -0.319007 0.253683 -0.088782
v -0.362101 0.174938 0.087639
v -0.361162 0.173803 0.088992
v -0.320456 0.254454 0.087639
v -0.318991 0.253689 0.088765
v 1.147542 -0.002045 -0.087242
v 1.147035 -0.002784 -0.089030
v 0.958451 0.127786 -0.087242
v 0.958172 0.127201 -0.089134
v 0.772329 0.189346 -0.087242
v 0.772205 0.188699 -0.089130
v 0.624380 0.189441 -0.087242
v 0.624380 0.188746 -0.089117
v 0.958451 0.127786 0.087242
v 0.958171 0.127201 0.089134
v 1.147542 -0.002045 0.087242
v 1.147035 -0.002784 0.089030
v 0.772329 0.189346 0.087242
v 0.772206 0.188700 0.089131
v 0.624380 0.189441 0.087242
v 0.624380 0.188747 0.089118
v -0.373030 0.155464 -0.044140
v -0.372102 0.153714 -0.044417
v -0.373030 0.155464 0.044140
v -0.372105 0.153715 0.044432
v 0.949680 0.091171 0.059004
v 0.948878 0.089583 0.059918
v 1.147542 -0.044689 0.059004
v 1.146482 -0.046233 0.059705
v 0.751817 0.156527 0.059004
v 0.751559 0.154760 0.059904
v 0.624380 0.156527 0.059004
v 0.624380 0.154710 0.059839
v 0.751817 0.156527 -0.059004
v 0.751559 0.154760 -0.059905
v 0.624380 0.156527 -0.059004
v 0.624380 0.154710 -0.059839
v 0.949680 0.091171 -0.059004
v 0.948878 0.089583 -0.059919
v 1.147542 -0.044689 -0.059004
v 1.146482 -0.046233 -0.059705
v -1.147515 0.243146 0.101182
v -1.147515 0.241732 0.102596
v 0.571917 0.243146 0.101182
v 0.571917 0.241732 0.102596
v 0.571917 0.344328 0.143093
v 0.571917 0.344328 0.145093
v -1.147515 0.201235 -0.000000
v -1.147515 0.199235 -0.000000
v -1.147515 0.344328 0.143093
v -1.147515 0.344328 0.145093
v 0.571917 0.201235 -0.000000
v 0.571917 0.199235 -0.000000
v 0.571917 0.445510 0.101182
v 0.571917 0.446924 0.102596
v -1.147515 0.243146 -0.101182
v -1.147515 0.241732 -0.102596
v -1.147515 0.445511 0.101182
v -1.147515 0.446925 0.102596
v 0.571917 0.243146 -0.101182
v 0.571917 0.241732 -0.102596
v 0.571917 0.487421 -0.000000
v 0.571917 0.489421 -0.000000
v -1.147515 0.344328 -0.143093
v -1.147515 0.344328 -0.145093
v -1.147515 0.487422 -0.000000
v -1.147515 0.489422 -0.000000
v 0.571917 0.344328 -0.143093
v 0.571917 0.344328 -0.145093
v 0.571917 0.445510 -0.101182
v 0.571917 0.446924 -0.102596
v -1.147515 0.445511 -0.101182
v -1.147515 0.446925 -0.102596
v -1.148249 0.253454 0.087346
v -1.148249 0.253454 -0.087346
v -1.148145 0.175152 -0.087309
v -1.148205 0.155732 -0.044083
v -1.148205 0.155732 0.044083
v -1.148145 0.175152 0.087309
v -0.284064 0.253558 0.093766
v 0.569418 0.253558 0.093766
v 0.569418 0.253558 -0.093766
v -0.284064 0.253558 -0.093766
v 0.948330 0.090691 0.058461
v 0.752638 0.155330 0.058454
v 0.752638 0.155330 -0.058454
v 0.948330 0.090691 -0.058461
v 0.570917 0.343404 0.143710
v -1.146515 0.343404 0.143710
v -1.146515 0.243363 0.102272
v 0.570917 0.243363 0.102272
v 0.625380 0.371864 -0.086949
v 0.625380 0.371864 0.086949
v 1.146542 0.371864 0.086949
v 1.146542 0.371864 -0.086949
v 0.750688 0.155643 0.058454
v 0.625380 0.155618 0.058421
v 0.625380 0.155618 -0.058421
v 0.750688 0.155643 -0.058454
v -0.285130 0.122236 0.093782
v -0.285064 0.252558 0.093766
v -0.285064 0.252558 -0.093766
v -0.285130 0.122236 -0.093782
v 0.570418 0.252558 0.093766
v 0.570484 0.122235 0.093782
v 0.570484 0.122235 -0.093782
v 0.570418 0.252558 -0.093766
v 0.569522 0.120961 0.093782
v 0.286129 0.039919 0.093866
v 0.286129 0.039919 -0.093866
v 0.569522 0.120961 -0.093782
v 0.519596 0.148815 -0.087258
v 0.519596 0.148815 0.087258
v 0.654754 -0.406299 0.087128
v 0.654754 -0.406299 -0.087128
v 0.654019 -0.407507 0.087128
v 0.324228 -0.487883 0.087128
v 0.324228 -0.487883 -0.087128
v 0.654019 -0.407507 -0.087128
v 0.000327 0.040644 0.094866
v 0.285027 0.040644 0.094866
v 0.569484 0.121990 0.094782
v 0.569418 0.252558 0.094766
v -0.284064 0.252558 0.094766
v -0.284130 0.121991 0.094782
v 0.569418 0.252558 -0.094766
v 0.569484 0.121990 -0.094782
v 0.285027 0.040644 -0.094866
v 0.000327 0.040644 -0.094866
v -0.284130 0.121991 -0.094782
v -0.284064 0.252558 -0.094766
v 0.518624 0.148578 0.088258
v 0.220327 0.075878 0.088258
v 0.332518 -0.384495 0.088181
v 0.308509 -0.423979 0.088181
v 0.323992 -0.486911 0.088128
v 0.653782 -0.406535 0.088128
v -1.147205 0.155140 0.045209
v -0.373364 0.154998 0.045199
v -0.362887 0.173962 0.087403
v -1.147145 0.174096 0.087396
v 0.518624 0.148578 -0.088258
v 0.653782 -0.406535 -0.088128
v 0.323992 -0.486911 -0.088128
v 0.308509 -0.423979 -0.088181
v 0.332518 -0.384495 -0.088181
v 0.220327 0.075878 -0.088258
v 0.625380 0.370864 -0.087949
v 1.146542 0.370864 -0.087949
v 1.146288 -0.000515 -0.088136
v 0.958760 0.128399 -0.088188
v 0.772429 0.190022 -0.088186
v 0.625380 0.190093 -0.088180
v -0.362237 0.175370 -0.088315
v -1.147145 0.175504 -0.088309
v -1.147249 0.253454 -0.088346
v -0.321384 0.253068 -0.088210
v 0.772429 0.190023 0.088186
v 0.958760 0.128398 0.088188
v 1.146288 -0.000515 0.088136
v 1.146542 0.370864 0.087949
v 0.625380 0.370864 0.087949
v 0.625380 0.190093 0.088180
v -0.372077 0.155461 -0.044037
v -0.361361 0.174918 -0.087315
v -0.320196 0.253182 -0.087210
v -0.320187 0.253186 0.087202
v -0.361361 0.174918 0.087315
v -0.372078 0.155462 0.044044
v 0.570917 0.446600 -0.100965
v -1.146515 0.446601 -0.100965
v -1.146515 0.488039 -0.000924
v 0.570917 0.488038 -0.000924
v 0.323020 -0.487148 -0.087128
v 0.323020 -0.487148 0.087128
v 0.307677 -0.424785 0.087181
v 0.307677 -0.424785 -0.087181
v -0.000775 0.039919 0.093866
v -0.284168 0.120962 0.093782
v -0.284168 0.120962 -0.093782
v -0.000775 0.039919 -0.093866
v 0.772798 0.188005 0.087586
v 0.753092 0.156022 0.060055
v 0.948514 0.091471 0.060063
v 0.957173 0.127029 0.087587
v -1.147145 0.174096 -0.087396
v -0.362887 0.173962 -0.087403
v -0.373363 0.154998 -0.045191
v -1.147205 0.155140 -0.045209
v 0.307959 -0.422959 -0.087181
v 0.307959 -0.422959 0.087181
v 0.330929 -0.385184 0.087181
v 0.330929 -0.385184 -0.087181
v 1.146353 -0.002718 -0.087510
v 1.146077 -0.043873 -0.059981
v 0.950334 0.090598 -0.060088
v 0.958977 0.126091 -0.087562
v 0.772798 0.188005 -0.087586
v 0.957173 0.127029 -0.087587
v 0.948514 0.091471 -0.060063
v 0.753092 0.156022 -0.060055
v -0.362237 0.175370 0.088315
v -0.321376 0.253071 0.088202
v -1.147249 0.253454 0.088346
v -1.147145 0.175504 0.088309
v 0.625380 0.188334 0.087529
v 0.625380 0.156377 0.060072
v 0.751055 0.156401 0.060106
v 0.770687 0.188266 0.087534
v 0.751055 0.156402 -0.060107
v 0.625380 0.156377 -0.060073
v 0.625380 0.188334 -0.087529
v 0.770687 0.188265 -0.087534
v -0.373566 0.154589 -0.043278
v -0.373567 0.154590 0.043286
v -1.147205 0.154732 0.043296
v -1.147205 0.154732 -0.043296
v -1.146515 0.242056 -0.100965
v 0.570917 0.242056 -0.100965
v 0.570917 0.200618 -0.000924
v -1.146515 0.200618 -0.000924
v 0.950104 0.089811 -0.058461
v 1.146188 -0.044895 -0.058355
v 1.146188 -0.044895 0.058355
v 0.950104 0.089811 0.058461
v 0.331212 -0.383358 0.087181
v 0.219356 0.075641 0.087258
v 0.219356 0.075641 -0.087258
v 0.331212 -0.383358 -0.087181
v 0.284167 0.039644 0.093866
v 0.001187 0.039644 0.093866
v 0.001187 0.039644 -0.093866
v 0.284167 0.039644 -0.093866
v -1.146515 0.345252 -0.143710
v -1.146515 0.445294 -0.102272
v 0.570917 0.445293 -0.102272
v 0.570917 0.345252 -0.143710
v -1.146515 0.200618 0.000924
v 0.570917 0.200618 0.000924
v 0.570917 0.242056 0.100965
v -1.146515 0.242056 0.100965
v 0.570917 0.488038 0.000924
v -1.146515 0.488039 0.000924
v -1.146515 0.446601 0.100965
v 0.570917 0.446600 0.100965
v 0.570917 0.445293 0.102272
v -1.146515 0.445294 0.102272
v -1.146515 0.345252 0.143710
v 0.570917 0.345252 0.143710
v 0.950334 0.090598 0.060087
v 1.146077 -0.043873 0.059981
v 1.146353 -0.002718 0.087510
v 0.958977 0.126091 0.087562
v -1.146515 0.343404 -0.143710
v 0.570917 0.343404 -0.143710
v 0.570917 0.243363 -0.102272
v -1.146515 0.243363 -0.102272
vn -0.8165 0.5774 -0.0000
vn 0.8164 0.5774 -0.0000
vn -0.4294 -0.0005 -0.9031
vn 0.9323 0.0016 -0.3617
vn -0.4276 -0.8247 -0.3703
vn 0.9371 -0.3190 -0.1416
vn -0.3746 -0.9272 -0.0000
vn 0.9339 -0.3575 -0.0000
vn -0.4273 -0.8248 0.3702
vn -0.4273 -0.8249 0.3701
vn -0.4273 -0.8248 0.3701
vn 0.9372 -0.3188 0.1416
vn -0.4294 -0.0005 0.9031
vn 0.9323 0.0016 0.3617
vn -0.0000 0.5907 0.8069
vn -0.0000 -0.9391 0.3438
vn 0.8069 0.5907 -0.0000
vn 0.3437 -0.9391 -0.0000
vn -0.0000 0.5907 -0.8069
vn -0.0000 -0.9391 -0.3438
vn -0.8069 0.5907 -0.0000
vn -0.3437 -0.9391 -0.0000
vn -0.1655 -0.5010 0.8495
vn 0.2683 0.8124 0.5178
vn -0.8251 -0.5650 -0.0000
vn -0.8250 -0.5652 -0.0004
vn -0.4673 0.8841 -0.0000
vn -0.4672 0.8841 -0.0000
vn -0.1655 -0.5010 -0.8495
vn 0.2684 0.8125 -0.5174
vn 0.2683 0.8125 -0.5176
vn 0.3353 -0.9421 -0.0000
vn 0.3352 -0.9422 0.0003
vn 0.8960 0.4441 -0.0000
vn 0.8960 0.4440 -0.0000
vn -0.0000 0.5556 0.8314
vn -0.0000 0.8315 -0.5555
vn -0.0000 0.8314 -0.5556
vn -0.0000 0.8315 -0.5556
vn -0.6782 -0.2812 0.6789
vn -0.6783 -0.2812 0.6789
vn -0.6787 -0.2814 0.6783
vn -0.6783 0.2812 -0.6788
vn -0.6788 0.2813 -0.6784
vn -0.0000 -0.9809 0.1945
vn 0.0005 -0.9809 0.1947
vn -0.0000 -0.1956 -0.9807
vn -0.0004 -0.1954 -0.9807
vn 0.6786 -0.2811 0.6786
vn 0.6786 -0.2810 0.6786
vn 0.6787 0.2810 -0.6786
vn 0.6786 0.2810 -0.6786
vn 0.6786 0.2811 -0.6786
vn -0.5776 0.8163 -0.0000
vn -0.5774 0.8164 0.0003
vn -0.5773 -0.8165 -0.0000
vn -0.5774 -0.8165 -0.0000
vn -0.0000 0.3827 0.9239
vn -0.0000 0.3826 0.9239
vn -0.0000 -0.9239 0.3826
vn 0.5774 0.8165 -0.0000
vn 0.5773 0.8165 -0.0000
vn 0.5773 -0.8165 -0.0000
vn 0.5774 -0.8165 -0.0000
vn -0.0000 0.3827 -0.9239
vn -0.0000 -0.9239 -0.3826
vn -0.0000 -0.9239 -0.3827
vn -0.0001 -0.5341 0.8454
vn -0.0005 0.8480 0.5300
vn -0.6729 -0.7397 -0.0000
vn -0.6728 -0.7399 -0.0003
vn -0.6729 -0.7398 -0.0000
vn -0.6725 0.7401 -0.0000
vn -0.0001 -0.5341 -0.8454
vn -0.0005 0.8480 -0.5300
vn 0.6164 -0.7875 -0.0000
vn 0.6164 -0.7874 0.0001
vn 0.6164 -0.7874 -0.0000
vn 0.7119 0.7023 -0.0000
vn 0.7120 0.7022 0.0002
vn -0.5622 0.0002 0.8270
vn 0.9333 -0.0006 0.3591
vn -0.5906 0.8069 -0.0000
vn 0.9391 0.3437 -0.0000
vn -0.5622 0.0002 -0.8270
vn 0.9333 -0.0006 -0.3591
vn -0.6256 -0.7801 -0.0000
vn 0.9177 -0.3972 -0.0000
vn 0.5622 0.0002 0.8270
vn -0.9333 -0.0006 0.3591
vn 0.6256 -0.7801 -0.0000
vn -0.9177 -0.3972 -0.0000
vn 0.5621 0.0002 -0.8270
vn -0.9333 -0.0006 -0.3591
vn 0.5907 0.8069 -0.0000
vn -0.9391 0.3438 -0.0000
vn 0.1292 -0.4515 0.8829
vn -0.2535 0.8867 0.3867
vn -0.3926 -0.9197 -0.0000
vn -0.7595 0.6505 -0.0000
vn 0.1291 -0.4514 -0.8829
vn -0.2535 0.8867 -0.3867
vn 0.9220 -0.3872 -0.0000
vn 0.1298 0.9915 -0.0000
vn 0.6566 0.7543 -0.0000
vn -0.9300 0.3676 -0.0000
vn 0.4727 0.1151 0.8737
vn -0.9049 -0.2203 0.3642
vn 0.7649 -0.6442 -0.0000
vn -0.8310 -0.5563 -0.0000
vn 0.4729 0.1151 -0.8736
vn -0.9049 -0.2203 -0.3642
vn 0.1399 -0.5739 0.8069
vn -0.2224 0.9124 0.3437
vn -0.6441 -0.7649 -0.0000
vn -0.5563 0.8310 -0.0000
vn 0.1399 -0.5739 -0.8069
vn -0.2224 0.9124 -0.3437
vn 0.9238 -0.3828 -0.0000
vn 0.1116 0.9938 -0.0000
vn -0.0000 -0.9283 0.3719
vn -0.0000 -0.3647 -0.9311
vn 0.2464 -0.8617 0.4435
vn 0.0966 -0.3392 -0.9357
vn 0.8322 0.0002 0.5545
vn 0.3419 0.0001 -0.9397
vn -0.0000 0.8069 0.5906
vn -0.0000 0.3437 -0.9391
vn -0.8322 0.0002 0.5545
vn -0.3417 0.0001 -0.9398
vn -0.2464 -0.8617 0.4436
vn -0.2463 -0.8617 0.4436
vn -0.0967 -0.3392 -0.9357
vn 0.8322 0.0002 -0.5545
vn 0.3418 0.0001 0.9398
vn 0.2464 -0.8617 -0.4436
vn 0.2463 -0.8617 -0.4436
vn 0.0967 -0.3392 0.9357
vn -0.0000 -0.9283 -0.3719
vn -0.0000 -0.3647 0.9311
vn -0.2464 -0.8617 -0.4435
vn -0.0966 -0.3392 0.9357
vn -0.8322 0.0002 -0.5545
vn -0.3417 0.0001 0.9398
vn -0.0000 0.8069 -0.5907
vn -0.0000 0.3437 0.9391
vn -0.1367 0.5609 0.8165
vn -0.1367 0.5609 -0.8165
vn -0.8924 -0.2175 0.3953
vn -0.3534 -0.0859 -0.9315
vn -0.7796 0.4741 0.4092
vn -0.2944 0.1790 -0.9388
vn -0.8386 -0.2055 0.5046
vn -0.3344 -0.0815 -0.9389
vn 0.1911 -0.7840 0.5907
vn 0.0814 -0.3340 -0.9391
vn 0.8488 0.2067 0.4867
vn 0.3539 0.0864 -0.9313
vn -0.0001 -0.9375 -0.3479
vn 0.0001 0.5321 -0.8467
vn 0.8054 -0.5893 0.0632
vn 0.8054 -0.5893 0.0631
vn 0.4859 0.7458 -0.4557
vn -0.0000 -0.2549 0.9670
vn 0.0003 0.9983 0.0580
vn -0.8858 -0.4231 0.1903
vn -0.3945 0.8383 -0.3764
vn 0.8488 0.2067 -0.4865
vn 0.3538 0.0864 0.9313
vn 0.1911 -0.7839 -0.5907
vn 0.0814 -0.3339 0.9391
vn -0.8385 -0.2055 -0.5046
vn -0.3347 -0.0816 0.9388
vn -0.7796 0.4740 -0.4093
vn -0.2944 0.1790 0.9388
vn -0.8924 -0.2175 -0.3953
vn -0.3534 -0.0859 0.9315
vn -0.0000 0.9237 -0.3831
vn -0.0003 0.9237 -0.3830
vn 0.5791 -0.0000 -0.8152
vn 0.6756 -0.0012 0.7372
vn -0.4705 -0.6850 -0.5562
vn -0.3142 -0.4563 0.8325
vn -0.2554 -0.7721 -0.5819
vn -0.1824 -0.5516 0.8139
vn -0.0005 -0.8168 -0.5769
vn -0.0002 -0.5760 0.8174
vn -0.6353 0.0005 -0.7722
vn -0.6353 -0.0015 0.7723
vn -0.0001 -0.8031 -0.5958
vn -0.0001 -0.4092 0.9125
vn -0.8940 -0.0007 -0.4480
vn -0.3839 -0.0001 0.9234
vn -0.3840 -0.0001 0.9233
vn 0.0002 0.4724 -0.8814
vn 0.0002 0.6208 0.7840
vn 0.8222 -0.4312 -0.3715
vn 0.2967 -0.1582 0.9418
vn -0.2554 -0.7723 0.5817
vn -0.1825 -0.5518 -0.8138
vn -0.4706 -0.6851 0.5561
vn -0.3142 -0.4563 -0.8325
vn 0.5791 -0.0000 0.8152
vn 0.6755 -0.0012 -0.7374
vn 0.6755 -0.0013 -0.7374
vn -0.0000 0.9241 0.3820
vn -0.0004 0.9241 0.3821
vn -0.0000 0.3826 -0.9239
vn -0.6353 0.0005 0.7723
vn -0.6354 -0.0015 -0.7722
vn -0.0005 -0.8168 0.5770
vn -0.0005 -0.8168 0.5769
vn -0.0002 -0.5762 -0.8173
vn 0.0861 -0.9168 -0.3899
vn 0.0970 -0.9171 -0.3867
vn 0.0819 -0.9214 -0.3799
vn -0.9757 0.0857 -0.2019
vn -0.9764 0.0741 -0.2029
vn 0.3994 -0.2059 -0.8934
vn 0.4004 -0.2096 -0.8921
vn -0.8035 0.4198 -0.4220
vn -0.8019 0.4255 -0.4194
vn -0.8015 0.4231 -0.4227
vn 0.9778 0.2091 0.0117
vn 0.9793 0.2025 0.0037
vn 0.9797 0.2005 -0.0019
vn -0.3852 0.9228 -0.0028
vn -0.3915 0.9201 -0.0122
vn -0.3940 0.9191 0.0110
vn 0.4008 -0.2233 0.8885
vn 0.4130 -0.2037 0.8877
vn 0.4027 -0.2107 0.8907
vn -0.7931 0.4321 0.4293
vn -0.8005 0.4228 0.4249
vn 0.0848 -0.9168 0.3902
vn 0.0815 -0.9164 0.3918
vn -0.9756 0.0865 0.2016
vn -0.9752 0.0900 0.2020
vn -0.9764 0.0863 0.1981
vn -0.0009 -0.9999 -0.0114
vn 0.0005 -1.0000 -0.0015
vn -0.0015 -1.0000 0.0034
vn -0.9999 0.0138 0.0034
vn -0.9996 0.0265 0.0004
vn -0.9998 0.0134 -0.0115
vn -0.0000 0.1951 -0.9808
vn -0.0000 0.1950 -0.9808
vn -0.0000 -0.9807 -0.1954
vn 0.0003 -0.9807 -0.1953
vn -0.6785 0.6787 -0.2811
vn -0.6786 0.6786 -0.2811
vn -0.6785 -0.6787 0.2811
vn -0.6786 -0.6786 0.2811
vn -0.0000 0.8312 0.5560
vn 0.0004 0.8313 0.5559
vn -0.0000 -0.5555 0.8315
vn -0.0000 -0.5556 0.8315
vn -0.0001 -0.5555 0.8315
vn 0.6786 0.6786 -0.2811
vn 0.6786 -0.6786 0.2811
vn 0.6786 -0.6785 0.2811
vn -0.3828 -0.9238 -0.0000
vn 0.9938 -0.1116 -0.0000
vn -0.5069 -0.1245 0.8530
vn 0.9003 0.2220 0.3745
vn -0.8491 0.5282 -0.0000
vn 0.7357 0.6773 -0.0000
vn -0.5068 -0.1245 -0.8530
vn 0.9003 0.2220 -0.3744
vn -0.1291 -0.4514 0.8829
vn 0.2535 0.8867 0.3867
vn -0.9220 -0.3873 -0.0000
vn -0.1298 0.9915 -0.0000
vn -0.1292 -0.4515 -0.8829
vn 0.2535 0.8867 -0.3867
vn 0.3926 -0.9197 -0.0000
vn 0.7595 0.6506 -0.0000
vn -0.7102 -0.1515 0.6875
vn -0.7098 -0.1515 0.6880
vn -0.5045 0.7198 -0.4768
vn -0.5050 0.7192 -0.4771
vn -0.5052 0.7193 -0.4768
vn -0.3127 -0.9468 -0.0757
vn -0.3128 -0.9468 -0.0758
vn -0.3130 -0.9467 -0.0762
vn 0.0270 0.0830 -0.9962
vn 0.0268 0.0830 -0.9962
vn 0.0277 0.0835 -0.9961
vn 0.4782 -0.6059 0.6358
vn 0.4783 -0.6058 0.6358
vn 0.4777 -0.6065 0.6356
vn 0.8185 0.2126 -0.5337
vn 0.8178 0.2135 -0.5344
vn 0.8184 0.2137 -0.5334
vn 0.0916 0.2776 0.9563
vn 0.0927 0.2779 0.9561
vn 0.0925 0.2783 0.9560
vn 0.3006 0.9073 -0.2940
vn 0.3005 0.9075 -0.2937
vn 0.3001 0.9074 -0.2943
vn -0.0000 -0.2549 -0.9670
vn 0.0003 0.9983 -0.0580
vn 0.8056 -0.5891 -0.0630
vn 0.4850 0.7465 0.4556
vn -0.0001 -0.9371 0.3491
vn 0.0001 0.5339 0.8456
vn -0.8858 -0.4232 -0.1903
vn -0.3945 0.8382 0.3765
vn -0.9691 -0.2466 -0.0000
vn 0.4963 -0.8681 -0.0000
vn -0.3915 0.2380 0.8889
vn 0.7821 -0.4756 0.4027
vn -0.4963 0.8681 -0.0000
vn 0.9691 0.2467 -0.0000
vn -0.3915 0.2381 -0.8888
vn 0.7821 -0.4756 -0.4027
vn 0.3391 -0.5219 -0.7827
vn 0.3391 -0.5220 -0.7827
vn 0.9085 0.2270 0.3509
vn 0.9085 0.2269 0.3508
vn -0.5618 -0.8179 0.1245
vn 0.0732 0.1077 0.9915
vn -0.8662 -0.1573 -0.4743
vn -0.3940 0.6216 0.6770
vn 0.1387 0.2017 -0.9696
vn 0.5490 0.7983 0.2476
vn 0.0917 0.2775 -0.9563
vn 0.0920 0.2776 -0.9563
vn 0.0915 0.2782 -0.9562
vn 0.3005 0.9073 0.2941
vn 0.3005 0.9075 0.2935
vn 0.3000 0.9077 0.2935
vn 0.4782 -0.6061 -0.6357
vn 0.4786 -0.6061 -0.6353
vn 0.4787 -0.6063 -0.6350
vn 0.8182 0.2137 0.5338
vn 0.8180 0.2130 0.5343
vn 0.8184 0.2135 0.5336
vn -0.3127 -0.9468 0.0757
vn -0.3130 -0.9467 0.0756
vn -0.3123 -0.9470 0.0756
vn 0.0269 0.0830 0.9962
vn 0.0270 0.0825 0.9962
vn 0.0273 0.0823 0.9962
vn -0.7102 -0.1516 -0.6875
vn -0.7104 -0.1511 -0.6874
vn -0.7102 -0.1508 -0.6877
vn -0.5045 0.7198 0.4768
vn -0.5048 0.7194 0.4772
vn -0.5047 0.7199 0.4765
vn 0.8228 -0.4315 0.3700
vn 0.2945 -0.1572 -0.9426
vn 0.0002 0.4703 0.8825
vn 0.0002 0.6176 -0.7865
vn -0.8941 -0.0007 0.4479
vn -0.3840 -0.0001 -0.9233
vn -0.0001 -0.8031 0.5958
vn -0.0001 -0.4091 -0.9125
vn -0.6784 -0.4790 0.5571
vn -0.6780 -0.4787 0.5578
vn -0.6784 -0.4786 0.5575
vn -0.6782 0.4791 -0.5572
vn -0.6783 0.4791 -0.5572
vn -0.6785 0.4786 -0.5572
vn 0.0001 -0.9921 -0.1258
vn 0.0004 0.1306 -0.9914
vn 0.5856 -0.7059 0.3985
vn 0.5855 -0.7061 0.3983
vn 0.6426 0.2343 -0.7295
vn 0.6429 0.2346 -0.7291
vn 0.6429 0.2343 -0.7292
vn -0.0002 0.2557 0.9667
vn 0.0005 0.2559 0.9667
vn 0.0005 0.2563 0.9666
vn 0.0007 0.9664 -0.2569
vn 0.0010 0.9664 -0.2569
vn 0.0003 0.9663 -0.2574
vn 0.0001 -0.9921 0.1258
vn -0.0002 -0.9921 0.1253
vn 0.0007 -0.9921 0.1258
vn 0.0004 0.1305 0.9914
vn 0.0006 0.1300 0.9915
vn -0.6785 -0.4785 -0.5574
vn -0.6782 0.4791 0.5572
vn -0.0003 0.2555 -0.9668
vn 0.0001 0.2558 -0.9667
vn 0.0009 0.9665 0.2568
vn 0.0007 0.9665 0.2565
vn 0.0004 0.9664 0.2569
vn 0.5857 -0.7058 -0.3986
vn 0.5859 -0.7059 -0.3981
vn 0.5858 -0.7061 -0.3978
vn 0.6425 0.2343 0.7296
vn 0.6426 0.2350 0.7293
vn 0.6426 0.2340 0.7296
vn 0.8524 -0.5230 -0.0000
vn 0.5131 0.8583 -0.0000
vn -0.0001 -0.7263 0.6873
vn 0.0002 0.8201 0.5723
vn -0.9084 -0.4182 -0.0000
vn -0.4029 0.9152 -0.0000
vn -0.0001 -0.7277 -0.6858
vn 0.0002 0.8191 -0.5736
vn -0.0003 -0.1954 -0.9807
vn -0.0000 0.9807 -0.1954
vn -0.0003 0.9807 -0.1953
vn 0.6786 -0.6786 -0.2811
vn 0.6785 -0.6787 -0.2811
vn 0.6786 -0.6786 -0.2810
vn 0.6786 0.6786 0.2811
vn 0.6786 0.6786 0.2810
vn -0.0000 -0.8313 0.5558
vn -0.0002 -0.8313 0.5558
vn -0.0000 0.5555 0.8315
vn -0.0000 0.5556 0.8315
vn -0.6786 -0.6786 -0.2811
vn -0.6782 0.6790 0.2812
vn -0.6788 0.6783 0.2813
vn -0.6781 0.6790 0.2812
vn -0.3103 -0.4521 -0.8362
vn 0.4757 0.6917 -0.5434
vn 0.1499 -0.9887 -0.0000
vn 0.1501 -0.9887 -0.0004
vn 0.9767 0.2148 -0.0000
vn 0.9767 0.2147 -0.0000
vn -0.3103 -0.4521 0.8363
vn 0.4757 0.6916 0.5435
vn -0.9548 -0.2974 -0.0000
vn -0.9548 -0.2974 0.0001
vn -0.1831 0.9831 -0.0000
vn -0.1830 0.9831 0.0002
vn -0.4098 -0.0999 0.9067
vn -0.4098 -0.1000 0.9067
vn 0.8936 0.2177 0.3925
vn -0.4098 -0.0999 -0.9067
vn 0.8936 0.2177 -0.3926
vn -0.7357 -0.6774 -0.0000
vn 0.8491 -0.5282 -0.0000
vn -0.0000 -0.4050 0.9143
vn -0.0000 0.9172 0.3985
vn -0.6301 -0.7765 -0.0000
vn -0.5516 0.8341 -0.0000
vn -0.0000 -0.4050 -0.9143
vn -0.0000 0.9172 -0.3985
vn 0.6301 -0.7765 -0.0000
vn 0.5516 0.8341 -0.0000
vn -0.6786 0.2810 -0.6786
vn -0.6786 0.2811 -0.6786
vn -0.6786 -0.2811 0.6786
vn -0.0000 0.9807 -0.1955
vn -0.0002 0.9807 -0.1953
vn -0.0000 0.1951 0.9808
vn -0.0000 0.1950 0.9808
vn 0.6784 0.2812 -0.6788
vn 0.6785 0.2814 -0.6786
vn -0.0000 -0.5558 -0.8313
vn -0.0002 -0.5558 -0.8313
vn -0.0000 -0.8315 0.5555
vn -0.0000 -0.8315 0.5556
vn -0.0000 -0.8315 -0.5555
vn -0.0000 -0.8314 -0.5556
vn -0.0000 0.5555 -0.8315
vn -0.0000 0.5556 -0.8314
vn -0.0000 0.5556 -0.8315
vn 0.6784 -0.6788 0.2812
vn 0.6787 -0.6784 0.2813
vn 0.6787 0.6785 -0.2811
vn -0.0000 -0.1956 0.9807
vn 0.0003 -0.1954 0.9807
vn -0.0000 0.9807 0.1954
vn 0.0003 0.9807 0.1953
vn -0.6786 -0.6786 0.2812
vn -0.6787 0.6785 -0.2811
vn -0.6786 0.6785 -0.2811
vn -0.6787 0.6785 -0.2810
vn -0.0000 -0.5556 -0.8315
vn -0.0001 -0.5556 -0.8315
vn -0.6785 0.6787 0.2811
vn -0.6785 0.6786 0.2811
vn -0.6786 0.6786 0.2811
vn -0.6785 -0.6787 -0.2811
vn -0.6785 -0.6787 -0.2810
vn -0.6786 -0.6786 -0.2810
vn -0.0000 -0.9807 0.1954
vn -0.0003 -0.9808 0.1953
vn 0.6783 0.6788 0.2812
vn 0.6785 0.6785 0.2816
vn 0.6783 0.6789 0.2812
vn 0.6787 -0.6786 -0.2810
vn 0.6787 -0.6785 -0.2811
vn -0.0000 0.9808 0.1950
vn -0.0000 0.1954 -0.9807
vn 0.0003 0.1953 -0.9808
vn -0.6786 0.2811 0.6786
vn -0.6786 -0.2811 -0.6786
vn -0.6785 -0.2811 -0.6786
vn -0.6786 -0.2810 -0.6786
vn -0.0000 -0.5556 0.8314
vn -0.0000 -0.8315 -0.5556
vn 0.6786 0.2811 0.6786
vn 0.6782 -0.2813 -0.6789
vn 0.6788 -0.2813 -0.6783
vn -0.5617 -0.8179 -0.1247
vn 0.0733 0.1078 -0.9915
vn 0.3390 -0.5220 0.7827
vn 0.9086 0.2268 -0.3508
vn 0.9085 0.2268 -0.3509
vn 0.1387 0.2017 0.9696
vn 0.5490 0.7983 -0.2477
vn -0.8661 -0.1573 0.4744
vn -0.8662 -0.1573 0.4744
vn -0.3938 0.6216 -0.6772
vn -0.3939 0.6216 -0.6771
vn -0.3938 0.6216 -0.6771
vn -0.0000 0.5558 -0.8313
vn 0.0002 0.5558 -0.8313
vn -0.0000 0.8315 0.5555
vn -0.0000 0.8314 0.5556
vn -0.0000 0.8315 0.5556
vn 0.6786 -0.2811 -0.6786
vn 0.6786 0.2811 0.6785
vn -0.0000 -0.9808 -0.1950
vn -0.0000 -0.9808 -0.1951
vn 0.0004 -0.1954 0.9807
vn -0.6785 0.2811 0.6786
vn -0.6786 0.2810 0.6786
vn 0.8165 0.5774 -0.0000
vn -0.4273 -0.8249 -0.3702
vn -0.4273 -0.8249 -0.3701
vn -0.4273 -0.8248 -0.3702
vn 0.9372 -0.3188 -0.1416
vn -0.3747 -0.9272 -0.0000
vn 0.9339 -0.3574 -0.0000
vn -0.4276 -0.8247 0.3703
vn 0.9371 -0.3190 0.1416
vn -0.0000 -0.9391 0.3437
vn -0.0000 -0.9391 -0.3437
vn -0.8070 0.5906 -0.0000
vn 0.2683 0.8124 0.5177
vn -0.8247 -0.5656 -0.0000
vn -0.8247 -0.5656 -0.0001
vn -0.4672 0.8842 -0.0000
vn -0.1655 -0.5009 -0.8495
vn 0.2683 0.8125 -0.5175
vn 0.3351 -0.9422 -0.0000
vn 0.3350 -0.9422 -0.0000
vn 0.8961 0.4439 -0.0000
vn 0.0002 0.5558 0.8313
vn -0.0000 0.5558 0.8313
vn -0.6782 0.2812 -0.6789
vn -0.6783 0.2815 -0.6787
vn -0.0000 -0.9808 0.1950
vn -0.0000 -0.9808 0.1951
vn -0.0000 -0.1951 -0.9808
vn -0.0000 -0.1950 -0.9808
vn 0.6787 -0.2814 0.6784
vn 0.6784 -0.2812 0.6788
vn 0.6783 -0.2812 0.6788
vn 0.6786 0.2811 -0.6785
vn -0.5775 0.8164 -0.0003
vn -0.5777 0.8163 -0.0000
vn -0.5776 -0.8163 0.0002
vn -0.5777 -0.8163 -0.0000
vn 0.0004 -0.9238 0.3829
vn -0.0000 -0.9237 0.3832
vn 0.5769 0.8168 -0.0000
vn 0.5772 0.8166 -0.0005
vn 0.5770 -0.8167 0.0002
vn 0.5769 -0.8168 -0.0000
vn -0.0004 -0.9238 -0.3829
vn -0.0000 -0.9237 -0.3832
vn -0.0001 -0.5342 0.8453
vn -0.0005 0.8480 0.5301
vn -0.6727 -0.7399 0.0003
vn -0.6728 -0.7398 -0.0000
vn -0.6728 0.7399 -0.0003
vn -0.6729 0.7398 -0.0000
vn 0.6162 -0.7876 0.0004
vn 0.6160 -0.7878 -0.0000
vn 0.7121 0.7021 -0.0000
vn 0.7120 0.7022 -0.0000
vn -0.5907 0.8069 -0.0000
vn -0.6256 -0.7802 -0.0000
vn 0.5621 0.0002 0.8270
vn 0.6256 -0.7802 -0.0000
vn 0.5622 0.0002 -0.8270
vn 0.5906 0.8070 -0.0000
vn -0.9391 0.3437 -0.0000
vn 0.1292 -0.4514 0.8829
vn 0.1291 -0.4514 0.8829
vn -0.7594 0.6506 -0.0000
vn 0.1292 -0.4515 -0.8829
vn 0.6565 0.7543 -0.0000
vn 0.4729 0.1151 0.8736
vn 0.7651 -0.6439 -0.0000
vn 0.4727 0.1151 -0.8737
vn -0.6441 -0.7650 -0.0000
vn 0.9238 -0.3829 -0.0000
vn 0.2464 -0.8617 0.4436
vn 0.0967 -0.3392 -0.9357
vn 0.3418 0.0001 -0.9398
vn -0.0000 0.8069 0.5907
vn -0.2464 -0.8617 0.4435
vn -0.0966 -0.3392 -0.9357
vn 0.3419 0.0001 0.9397
vn 0.2464 -0.8618 -0.4435
vn 0.2464 -0.8617 -0.4435
vn 0.0966 -0.3392 0.9357
vn -0.2464 -0.8617 -0.4436
vn -0.2463 -0.8617 -0.4436
vn -0.0967 -0.3392 0.9357
vn -0.3416 0.0001 0.9399
vn -0.0000 0.8069 -0.5906
vn -0.7796 0.4740 0.4093
vn -0.8385 -0.2055 0.5046
vn -0.3347 -0.0816 -0.9388
vn 0.1911 -0.7839 0.5907
vn 0.0814 -0.3339 -0.9391
vn 0.8488 0.2067 0.4866
vn 0.3538 0.0864 -0.9313
vn -0.0001 -0.9376 -0.3478
vn 0.8054 -0.5894 0.0632
vn 0.4860 0.7458 -0.4556
vn -0.8858 -0.4232 0.1903
vn -0.3945 0.8382 -0.3765
vn 0.8488 0.2067 -0.4867
vn 0.3539 0.0864 0.9313
vn 0.1911 -0.7840 -0.5906
vn 0.0814 -0.3340 0.9391
vn -0.8386 -0.2056 -0.5046
vn -0.8386 -0.2055 -0.5046
vn -0.3340 -0.0814 0.9391
vn -0.7796 0.4741 -0.4092
vn -0.0000 0.9239 -0.3827
vn 0.6755 -0.0012 0.7374
vn -0.4706 -0.6850 -0.5561
vn -0.2554 -0.7722 -0.5818
vn -0.1825 -0.5518 0.8138
vn -0.0005 -0.8169 -0.5768
vn -0.0002 -0.5761 0.8174
vn -0.6352 0.0005 -0.7723
vn -0.6353 0.0005 -0.7723
vn -0.0001 -0.4091 0.9125
vn -0.8941 -0.0007 -0.4479
vn -0.3840 -0.0001 0.9234
vn 0.0002 0.4722 -0.8815
vn 0.8222 -0.4312 -0.3716
vn -0.2554 -0.7722 0.5817
vn -0.1824 -0.5516 -0.8139
vn -0.4705 -0.6850 0.5562
vn 0.5792 -0.0000 0.8152
vn 0.6756 -0.0012 -0.7372
vn 0.6756 -0.0013 -0.7372
vn -0.0000 0.9239 0.3827
vn -0.6353 0.0005 0.7722
vn -0.6353 -0.0015 -0.7722
vn -0.9756 0.0858 -0.2019
vn -0.9764 0.0742 -0.2029
vn -0.9781 0.0831 -0.1910
vn 0.3994 -0.2059 -0.8933
vn 0.4004 -0.2096 -0.8920
vn 0.3969 -0.2091 -0.8937
vn -0.8015 0.4231 -0.4226
vn 0.9797 0.2005 -0.0020
vn 0.9763 0.2163 -0.0022
vn -0.3843 0.9232 0.0011
vn -0.7931 0.4321 0.4294
vn -0.7955 0.4202 0.4366
vn 0.0815 -0.9165 0.3917
vn 0.0830 -0.9181 0.3875
vn -0.9756 0.0866 0.2016
vn -0.9764 0.0864 0.1981
vn -0.0016 -1.0000 0.0033
vn -0.0140 -0.9999 -0.0029
vn -0.9999 0.0114 -0.0005
vn 0.0005 -0.9808 -0.1948
vn -0.0000 -0.9809 -0.1945
vn -0.6787 0.6783 -0.2815
vn -0.6782 0.6789 -0.2813
vn -0.6786 -0.6785 0.2811
vn -0.6787 -0.6785 0.2811
vn -0.0000 0.8317 0.5552
vn 0.0003 0.8317 0.5553
vn -0.0000 -0.5552 0.8317
vn 0.0004 -0.5553 0.8316
vn 0.6784 0.6786 -0.2815
vn 0.6783 0.6789 -0.2812
vn 0.6782 0.6789 -0.2812
vn 0.6786 -0.6786 0.2810
vn -0.5068 -0.1245 0.8530
vn 0.9003 0.2220 0.3744
vn 0.7356 0.6774 -0.0000
vn -0.5069 -0.1245 -0.8530
vn 0.9003 0.2220 -0.3745
vn -0.1292 -0.4515 0.8829
vn -0.1292 -0.4514 -0.8829
vn -0.1291 -0.4514 -0.8829
vn -0.7102 -0.1517 0.6875
vn -0.7097 -0.1517 0.6880
vn -0.7103 -0.1512 0.6875
vn -0.5052 0.7193 -0.4769
vn -0.5051 0.7196 -0.4764
vn -0.3123 -0.9470 -0.0754
vn -0.3131 -0.9467 -0.0762
vn -0.3124 -0.9469 -0.0764
vn 0.0270 0.0832 -0.9962
vn 0.0278 0.0838 -0.9961
vn 0.0271 0.0827 -0.9962
vn 0.4788 -0.6060 0.6353
vn 0.8184 0.2137 -0.5335
vn 0.8186 0.2132 -0.5333
vn 0.0916 0.2778 0.9563
vn 0.0920 0.2788 0.9559
vn 0.3005 0.9072 -0.2944
vn 0.3000 0.9072 -0.2949
vn 0.3006 0.9075 -0.2935
vn 0.8057 -0.5890 -0.0630
vn 0.0001 0.5338 0.8456
vn -0.8858 -0.4231 -0.1903
vn -0.3945 0.8383 0.3764
vn -0.9691 -0.2467 -0.0000
vn 0.4963 -0.8682 -0.0000
vn -0.3915 0.2381 0.8888
vn -0.4963 0.8682 -0.0000
vn 0.9691 0.2466 -0.0000
vn -0.3915 0.2380 -0.8889
vn 0.3390 -0.5220 -0.7827
vn 0.9086 0.2268 0.3508
vn 0.9085 0.2268 0.3509
vn -0.8662 -0.1574 -0.4743
vn -0.3939 0.6216 0.6771
vn 0.5490 0.7983 0.2477
vn 0.0918 0.2779 -0.9562
vn 0.0917 0.2784 -0.9561
vn 0.0925 0.2782 -0.9561
vn 0.3005 0.9074 0.2939
vn 0.3002 0.9078 0.2929
vn 0.2998 0.9077 0.2937
vn 0.4782 -0.6060 -0.6356
vn 0.4786 -0.6063 -0.6351
vn 0.4783 -0.6067 -0.6349
vn 0.8182 0.2138 0.5338
vn 0.8183 0.2136 0.5336
vn 0.8180 0.2134 0.5342
vn 0.0270 0.0830 0.9962
vn 0.0274 0.0824 0.9962
vn 0.0278 0.0826 0.9962
vn -0.7098 -0.1509 -0.6880
vn -0.5045 0.7198 0.4767
vn -0.5051 0.7192 0.4771
vn 0.8227 -0.4315 0.3700
vn 0.0002 0.4705 0.8824
vn -0.8940 -0.0007 0.4480
vn -0.3839 -0.0001 -0.9234
vn -0.0001 -0.4092 -0.9125
vn -0.6784 -0.4786 0.5574
vn -0.6782 0.4790 -0.5573
vn -0.6786 0.4786 -0.5573
vn -0.6786 0.4791 -0.5568
vn 0.0004 0.1305 -0.9914
vn 0.5857 -0.7059 0.3982
vn 0.6425 0.2343 -0.7295
vn 0.6429 0.2344 -0.7293
vn 0.6429 0.2344 -0.7292
vn -0.0002 0.2558 0.9667
vn -0.0002 0.2563 0.9666
vn 0.0006 0.9665 -0.2566
vn 0.0004 0.1305 0.9915
vn 0.0006 0.1299 0.9915
vn 0.0009 0.1306 0.9914
vn -0.6781 0.4791 0.5573
vn -0.6781 0.4792 0.5573
vn -0.6782 0.4791 0.5573
vn 0.0001 0.2557 -0.9668
vn 0.0006 0.2557 -0.9667
vn 0.0009 0.9665 0.2567
vn 0.0004 0.9665 0.2567
vn 0.5857 -0.7058 -0.3985
vn 0.5858 -0.7061 -0.3977
vn 0.5852 -0.7065 -0.3980
vn 0.6426 0.2342 0.7296
vn 0.6427 0.2339 0.7295
vn 0.6430 0.2347 0.7290
vn 0.8524 -0.5228 -0.0000
vn 0.5130 0.8584 -0.0000
vn -0.0001 -0.7264 0.6873
vn -0.9083 -0.4182 -0.0000
vn -0.0001 -0.7277 -0.6859
vn 0.0003 0.8191 -0.5736
vn 0.0003 -0.1954 -0.9807
vn -0.0000 0.9808 -0.1950
vn 0.6784 -0.6788 -0.2812
vn 0.6787 -0.6784 -0.2813
vn 0.6787 0.6785 0.2811
vn -0.0000 -0.8314 0.5556
vn -0.6786 -0.6787 -0.2810
vn -0.6787 0.6785 0.2811
vn -0.3103 -0.4521 -0.8363
vn 0.1503 -0.9886 -0.0000
vn 0.1504 -0.9886 -0.0000
vn 0.9766 0.2150 -0.0002
vn 0.9766 0.2151 -0.0000
vn -0.3103 -0.4521 0.8362
vn -0.9548 -0.2973 -0.0000
vn -0.9547 -0.2974 -0.0000
vn -0.1829 0.9831 -0.0000
vn -0.1828 0.9832 -0.0000
vn 0.8936 0.2177 0.3926
vn 0.8936 0.2177 -0.3925
vn -0.7356 -0.6774 -0.0000
vn 0.5515 0.8341 -0.0000
vn -0.6785 0.2811 -0.6786
vn -0.6786 -0.2810 0.6786
vn 0.6783 0.2812 -0.6789
vn 0.6787 0.2814 -0.6783
vn 0.6788 -0.2812 0.6784
vn -0.0000 -0.5556 -0.8314
vn -0.0000 -0.5555 -0.8315
vn 0.6785 -0.6786 0.2814
vn 0.6783 -0.6788 0.2812
vn 0.6784 0.6787 -0.2815
vn -0.0003 -0.1954 0.9807
vn -0.0000 0.9808 0.1951
vn -0.6782 0.6790 -0.2812
vn -0.6788 0.6783 -0.2813
vn -0.0000 0.8313 -0.5558
vn 0.0002 0.8313 -0.5558
vn -0.0000 -0.5559 -0.8313
vn 0.0003 -0.5558 -0.8313
vn -0.6785 0.6785 0.2814
vn -0.6784 0.6788 0.2812
vn -0.6787 -0.6785 -0.2811
vn 0.0003 -0.9807 0.1953
vn -0.0000 -0.9807 0.1955
vn 0.6786 0.6787 0.2810
vn 0.6786 -0.6787 -0.2810
vn -0.0002 0.9807 0.1953
vn -0.6787 0.2814 0.6783
vn -0.6782 0.2812 0.6789
vn -0.6783 0.2812 0.6789
vn -0.0002 -0.5558 0.8313
vn -0.0000 -0.5558 0.8313
vn 0.6786 0.2810 0.6786
vn 0.6787 -0.2810 -0.6786
vn 0.6786 -0.2810 -0.6786
vn -0.5618 -0.8179 -0.1246
vn 0.3391 -0.5220 0.7827
vn 0.9085 0.2270 -0.3509
vn 0.9085 0.2269 -0.3508
vn 0.1388 0.2018 0.9696
vn 0.5490 0.7983 -0.2476
vn -0.3938 0.6217 -0.6771
vn -0.3939 0.6217 -0.6770
vn 0.6788 -0.2805 -0.6787
vn 0.6791 -0.2809 -0.6782
vn 0.6790 -0.2809 -0.6782
vn 0.6787 0.2810 0.6786
vn 0.0005 -0.9809 -0.1947
vn -0.0000 -0.1951 0.9808
vn -0.0000 -0.1950 0.9808
vn -0.6785 -0.2810 -0.6787
vn -0.6783 0.2812 0.6788
vn -0.6788 0.2813 0.6784
vt 0.000000 0.000000
s 0
f 146/1/1 145/1/1 9/1/1
f 145/1/2 146/1/2 4/1/2
f 146/1/3 3/1/3 5/1/3
f 147/1/4 6/1/4 4/1/4
f 147/1/5 5/1/5 1/1/5
f 147/1/6 148/1/6 2/1/6
f 149/1/7 148/1/7 1/1/7
f 148/1/8 149/1/8 8/1/8
f 150/1/9 149/1/10 7/1/11
f 150/1/12 12/1/12 8/1/12
f 145/1/13 150/1/13 11/1/13
f 150/1/14 145/1/14 10/1/14
f 152/1/15 151/1/15 27/1/15
f 151/1/16 152/1/16 30/1/16
f 153/1/17 152/1/17 29/1/17
f 153/1/18 34/1/18 30/1/18
f 153/1/19 33/1/19 21/1/19
f 153/1/20 154/1/20 22/1/20
f 151/1/21 154/1/21 21/1/21
f 154/1/22 151/1/22 28/1/22
f 156/1/23 97/1/23 155/1/23
f 155/1/24 102/1/24 156/1/24
f 156/1/25 105/1/25 101/1/26
f 157/1/27 102/1/28 106/1/27
f 157/1/29 109/1/29 105/1/29
f 158/1/30 106/1/30 110/1/31
f 155/1/32 109/1/33 158/1/32
f 158/1/34 98/1/34 155/1/35
f 160/1/36 117/1/36 159/1/36
f 160/1/37 118/1/38 122/1/39
f 160/1/40 113/1/41 121/1/42
f 161/1/43 122/1/43 114/1/44
f 161/1/45 115/1/45 113/1/46
f 162/1/47 114/1/47 116/1/48
f 159/1/49 115/1/50 162/1/49
f 162/1/51 118/1/52 159/1/53
f 164/1/54 41/1/55 163/1/54
f 163/1/56 44/1/57 164/1/57
f 165/1/58 43/1/58 164/1/59
f 164/1/60 48/1/60 165/1/60
f 165/1/61 45/1/61 47/1/62
f 165/1/63 46/1/64 166/1/64
f 163/1/65 45/1/65 166/1/65
f 166/1/66 42/1/67 163/1/66
f 167/1/68 103/1/68 101/1/68
f 168/1/69 102/1/69 104/1/69
f 169/1/70 103/1/71 168/1/72
f 168/1/73 108/1/73 169/1/73
f 170/1/74 107/1/74 169/1/74
f 169/1/75 106/1/75 170/1/75
f 167/1/76 105/1/77 170/1/78
f 170/1/79 102/1/80 167/1/79
f 171/1/81 25/1/81 27/1/81
f 172/1/82 28/1/82 26/1/82
f 173/1/83 172/1/83 27/1/83
f 173/1/84 22/1/84 28/1/84
f 174/1/85 173/1/85 21/1/85
f 173/1/86 174/1/86 24/1/86
f 171/1/87 174/1/87 23/1/87
f 174/1/88 171/1/88 26/1/88
f 176/1/89 175/1/89 29/1/89
f 175/1/90 176/1/90 36/1/90
f 177/1/91 176/1/91 35/1/91
f 177/1/92 32/1/92 36/1/92
f 177/1/93 31/1/93 33/1/93
f 178/1/94 34/1/94 32/1/94
f 175/1/95 178/1/95 33/1/95
f 175/1/96 30/1/96 34/1/96
f 180/1/97 179/1/97 35/1/97
f 179/1/98 180/1/98 54/1/98
f 181/1/99 180/1/99 53/1/99
f 181/1/100 56/1/100 54/1/100
f 181/1/101 55/1/101 31/1/101
f 182/1/102 32/1/102 56/1/102
f 179/1/103 182/1/103 31/1/103
f 179/1/104 36/1/104 32/1/104
f 184/1/105 183/1/105 39/1/105
f 183/1/106 184/1/106 38/1/106
f 184/1/107 37/1/107 17/1/107
f 185/1/108 18/1/108 38/1/108
f 186/1/109 185/1/109 17/1/109
f 186/1/110 16/1/110 18/1/110
f 183/1/111 186/1/111 15/1/111
f 186/1/112 183/1/112 40/1/112
f 187/1/113 17/1/113 19/1/113
f 188/1/114 20/1/114 18/1/114
f 188/1/115 19/1/115 13/1/115
f 188/1/116 189/1/116 14/1/116
f 190/1/117 189/1/117 13/1/117
f 190/1/118 16/1/118 14/1/118
f 187/1/119 190/1/119 15/1/119
f 190/1/120 187/1/120 18/1/120
f 191/1/121 51/1/121 53/1/121
f 191/1/122 192/1/122 54/1/122
f 193/1/123 192/1/123 53/1/123
f 193/1/124 36/1/124 54/1/124
f 194/1/125 193/1/125 35/1/125
f 194/1/126 30/1/126 36/1/126
f 194/1/127 29/1/127 27/1/127
f 194/1/128 195/1/128 28/1/128
f 195/1/129 27/1/129 25/1/129
f 195/1/130 196/1/130 26/1/130
f 196/1/131 25/1/131 51/1/132
f 196/1/133 191/1/133 52/1/133
f 197/1/134 33/1/134 31/1/134
f 197/1/135 198/1/135 32/1/135
f 198/1/136 31/1/136 55/1/137
f 198/1/138 199/1/138 56/1/138
f 200/1/139 199/1/139 55/1/139
f 199/1/140 200/1/140 50/1/140
f 201/1/141 200/1/141 49/1/141
f 201/1/142 24/1/142 50/1/142
f 202/1/143 201/1/143 23/1/143
f 202/1/144 22/1/144 24/1/144
f 197/1/145 202/1/145 21/1/145
f 202/1/146 197/1/146 34/1/146
f 204/1/147 203/1/147 37/1/147
f 203/1/148 204/1/148 60/1/148
f 204/1/149 59/1/149 57/1/149
f 204/1/150 205/1/150 58/1/150
f 206/1/151 205/1/151 57/1/151
f 206/1/152 62/1/152 58/1/152
f 207/1/153 206/1/153 61/1/153
f 207/1/154 20/1/154 62/1/154
f 208/1/155 207/1/155 19/1/155
f 207/1/156 208/1/156 18/1/156
f 203/1/157 208/1/157 17/1/157
f 208/1/158 203/1/158 38/1/158
f 209/1/159 7/1/159 95/1/159
f 209/1/160 210/1/160 96/1/160
f 211/1/161 210/1/162 95/1/162
f 211/1/163 74/1/163 96/1/163
f 211/1/164 73/1/164 11/1/164
f 211/1/165 212/1/165 12/1/165
f 209/1/166 212/1/166 11/1/166
f 212/1/167 209/1/167 8/1/167
f 213/1/168 39/1/168 15/1/168
f 214/1/169 16/1/169 40/1/169
f 215/1/170 214/1/170 15/1/170
f 215/1/171 14/1/171 16/1/171
f 215/1/172 13/1/172 67/1/172
f 215/1/173 216/1/173 68/1/173
f 216/1/174 67/1/174 63/1/174
f 216/1/175 217/1/175 64/1/175
f 218/1/176 217/1/176 63/1/176
f 218/1/177 66/1/177 64/1/177
f 213/1/148 218/1/148 65/1/148
f 218/1/147 213/1/147 40/1/147
f 220/1/178 41/1/179 219/1/178
f 219/1/59 46/1/58 220/1/58
f 221/1/180 45/1/180 220/1/180
f 221/1/181 46/1/181 78/1/181
f 221/1/182 79/1/182 77/1/182
f 221/1/183 80/1/183 222/1/183
f 222/1/184 81/1/184 79/1/184
f 222/1/185 82/1/185 223/1/185
f 224/1/186 81/1/186 223/1/186
f 224/1/187 82/1/187 84/1/187
f 224/1/188 41/1/188 83/1/188
f 219/1/189 84/1/189 42/1/189
f 226/1/190 225/1/190 69/1/190
f 226/1/191 6/1/191 70/1/191
f 227/1/192 226/1/192 5/1/192
f 226/1/193 227/1/194 4/1/194
f 228/1/195 227/1/195 3/1/195
f 228/1/196 72/1/196 4/1/196
f 228/1/197 71/1/197 69/1/197
f 228/1/198 225/1/198 70/1/198
f 230/1/199 89/1/199 229/1/199
f 230/1/200 90/1/200 86/1/200
f 231/1/201 85/1/201 230/1/201
f 231/1/202 86/1/202 88/1/202
f 231/1/203 47/1/203 87/1/203
f 231/1/204 48/1/205 232/1/204
f 233/1/206 47/1/207 232/1/206
f 232/1/208 44/1/65 233/1/65
f 234/1/209 43/1/209 233/1/209
f 233/1/210 92/1/210 234/1/210
f 234/1/211 89/1/212 91/1/212
f 234/1/213 90/1/213 229/1/213
f 236/1/214 235/1/215 93/1/216
f 236/1/217 70/1/217 94/1/218
f 237/1/219 236/1/220 69/1/220
f 237/1/221 72/1/222 70/1/223
f 238/1/224 237/1/225 71/1/226
f 237/1/227 238/1/228 76/1/229
f 238/1/230 75/1/231 73/1/232
f 238/1/233 239/1/234 74/1/234
f 239/1/235 73/1/235 95/1/236
f 239/1/237 240/1/238 96/1/239
f 235/1/240 240/1/241 95/1/242
f 240/1/243 235/1/244 94/1/245
f 242/1/246 141/1/247 241/1/247
f 241/1/248 144/1/249 242/1/248
f 243/1/250 143/1/251 242/1/251
f 242/1/252 138/1/252 243/1/253
f 243/1/254 133/1/254 137/1/255
f 244/1/256 138/1/257 134/1/258
f 241/1/259 133/1/259 244/1/259
f 244/1/260 142/1/261 241/1/260
f 246/1/262 245/1/262 13/1/262
f 245/1/263 246/1/263 20/1/263
f 247/1/264 246/1/264 19/1/264
f 246/1/265 247/1/265 62/1/265
f 248/1/266 247/1/266 61/1/266
f 247/1/267 248/1/267 68/1/267
f 248/1/268 67/1/268 13/1/268
f 245/1/269 14/1/269 68/1/269
f 249/1/270 51/1/270 25/1/270
f 250/1/271 26/1/271 52/1/271
f 251/1/272 250/1/272 25/1/272
f 251/1/273 24/1/273 26/1/273
f 252/1/274 251/1/274 23/1/274
f 251/1/275 252/1/275 50/1/275
f 249/1/276 252/1/276 49/1/276
f 252/1/277 249/1/277 52/1/277
f 254/1/278 89/1/278 253/1/279
f 254/1/280 90/1/281 102/1/282
f 254/1/283 97/1/284 101/1/285
f 254/1/286 98/1/287 255/1/288
f 256/1/289 97/1/290 255/1/291
f 255/1/292 86/1/293 256/1/294
f 256/1/295 89/1/296 85/1/297
f 256/1/298 90/1/299 253/1/300
f 258/1/301 257/1/301 5/1/301
f 258/1/302 70/1/302 6/1/302
f 258/1/303 69/1/303 93/1/303
f 258/1/304 259/1/304 94/1/304
f 260/1/305 259/1/305 93/1/305
f 260/1/306 2/1/306 94/1/306
f 260/1/307 1/1/307 5/1/307
f 257/1/308 6/1/308 2/1/308
f 262/1/309 261/1/309 67/1/309
f 261/1/310 262/1/310 62/1/310
f 263/1/311 262/1/311 61/1/311
f 262/1/312 263/1/312 58/1/312
f 264/1/313 263/1/313 57/1/313
f 263/1/314 264/1/314 64/1/314
f 264/1/315 63/1/315 67/1/315
f 261/1/316 68/1/316 64/1/316
f 266/1/317 77/1/318 265/1/318
f 266/1/319 78/1/319 112/1/320
f 266/1/321 109/1/321 111/1/321
f 266/1/322 110/1/322 267/1/322
f 268/1/323 109/1/323 267/1/323
f 268/1/324 110/1/324 80/1/324
f 268/1/325 77/1/325 79/1/325
f 268/1/326 78/1/326 265/1/326
f 270/1/327 81/1/328 269/1/329
f 270/1/330 82/1/331 80/1/332
f 270/1/333 109/1/334 79/1/335
f 271/1/336 80/1/337 110/1/338
f 272/1/339 109/1/340 271/1/341
f 272/1/342 110/1/343 106/1/344
f 272/1/345 81/1/346 105/1/347
f 272/1/348 82/1/349 269/1/350
f 274/1/351 273/1/351 73/1/351
f 274/1/352 76/1/352 74/1/352
f 274/1/353 75/1/353 9/1/353
f 274/1/354 275/1/354 10/1/354
f 275/1/355 9/1/355 11/1/355
f 276/1/356 12/1/356 10/1/356
f 276/1/357 11/1/357 73/1/357
f 276/1/358 273/1/358 74/1/358
f 277/1/359 103/1/360 91/1/361
f 278/1/362 92/1/363 104/1/364
f 278/1/365 101/1/365 103/1/365
f 278/1/366 102/1/366 279/1/366
f 280/1/367 101/1/368 279/1/368
f 280/1/369 102/1/370 90/1/371
f 280/1/372 91/1/373 89/1/374
f 280/1/375 92/1/376 277/1/377
f 282/1/378 105/1/379 281/1/380
f 282/1/381 106/1/381 108/1/382
f 283/1/383 107/1/383 282/1/383
f 282/1/384 84/1/384 283/1/384
f 284/1/385 83/1/386 283/1/386
f 284/1/387 84/1/388 82/1/389
f 284/1/390 105/1/391 81/1/392
f 284/1/393 106/1/394 281/1/395
f 285/1/396 93/1/396 95/1/396
f 286/1/397 96/1/397 94/1/397
f 286/1/398 95/1/398 7/1/398
f 287/1/399 8/1/399 96/1/399
f 288/1/400 287/1/400 7/1/400
f 287/1/401 288/1/401 2/1/401
f 285/1/402 288/1/402 1/1/402
f 288/1/403 285/1/403 94/1/403
f 290/1/47 127/1/404 289/1/47
f 289/1/405 132/1/406 290/1/405
f 290/1/407 123/1/408 131/1/409
f 291/1/410 132/1/410 124/1/411
f 292/1/412 123/1/413 291/1/412
f 292/1/414 124/1/36 120/1/415
f 292/1/416 127/1/416 119/1/416
f 292/1/417 128/1/418 289/1/419
f 293/1/420 111/1/420 109/1/420
f 294/1/421 110/1/421 112/1/421
f 295/1/422 111/1/423 294/1/422
f 294/1/424 100/1/425 295/1/425
f 296/1/426 99/1/426 295/1/426
f 295/1/427 98/1/427 296/1/427
f 296/1/428 109/1/428 97/1/429
f 293/1/430 98/1/430 110/1/431
f 297/1/432 57/1/432 59/1/433
f 298/1/434 60/1/434 58/1/434
f 299/1/106 298/1/106 59/1/106
f 299/1/105 66/1/105 60/1/105
f 300/1/435 299/1/435 65/1/435
f 299/1/436 300/1/436 64/1/436
f 297/1/437 300/1/437 63/1/437
f 300/1/438 297/1/438 58/1/438
f 302/1/439 301/1/439 53/1/439
f 301/1/440 302/1/440 52/1/440
f 303/1/441 302/1/441 51/1/441
f 302/1/442 303/1/442 50/1/442
f 304/1/443 303/1/443 49/1/443
f 303/1/444 304/1/444 56/1/444
f 301/1/445 304/1/445 55/1/445
f 304/1/446 301/1/446 54/1/446
f 305/1/447 143/1/447 135/1/448
f 305/1/449 144/1/449 306/1/449
f 306/1/450 141/1/405 143/1/451
f 307/1/452 144/1/453 142/1/452
f 307/1/454 139/1/454 141/1/455
f 308/1/49 142/1/49 140/1/49
f 308/1/456 135/1/456 139/1/457
f 305/1/458 140/1/459 136/1/458
f 310/1/460 119/1/461 309/1/461
f 310/1/462 120/1/463 124/1/464
f 311/1/465 123/1/466 310/1/465
f 310/1/467 116/1/259 311/1/259
f 311/1/468 113/1/468 115/1/469
f 311/1/470 114/1/471 312/1/470
f 312/1/253 119/1/253 113/1/472
f 309/1/473 114/1/474 120/1/475
f 313/1/39 137/1/39 133/1/39
f 314/1/476 134/1/476 138/1/477
f 315/1/478 137/1/479 314/1/480
f 314/1/481 130/1/482 315/1/483
f 316/1/452 129/1/452 315/1/453
f 315/1/484 126/1/485 316/1/484
f 313/1/486 125/1/487 316/1/488
f 316/1/407 134/1/489 313/1/490
f 318/1/491 125/1/491 317/1/491
f 318/1/492 126/1/492 130/1/493
f 319/1/494 129/1/494 318/1/494
f 319/1/495 130/1/496 122/1/497
f 320/1/256 121/1/498 319/1/498
f 320/1/460 122/1/461 118/1/499
f 317/1/500 117/1/500 320/1/500
f 317/1/501 118/1/501 126/1/502
f 322/1/503 97/1/503 321/1/503
f 322/1/504 98/1/504 100/1/504
f 322/1/505 87/1/505 99/1/505
f 322/1/506 88/1/507 323/1/507
f 324/1/508 87/1/508 323/1/508
f 324/1/509 88/1/509 86/1/509
f 324/1/510 97/1/510 85/1/511
f 324/1/512 98/1/513 321/1/514
f 325/1/515 139/1/515 135/1/516
f 326/1/517 136/1/518 140/1/519
f 327/1/520 139/1/520 326/1/520
f 327/1/500 140/1/521 132/1/500
f 328/1/522 131/1/523 327/1/522
f 328/1/468 132/1/468 128/1/524
f 325/1/495 127/1/495 328/1/495
f 325/1/494 128/1/525 136/1/526
f 146/1/1 9/1/1 3/1/1
f 145/1/527 4/1/527 10/1/527
f 146/1/3 5/1/3 147/1/3
f 147/1/4 4/1/4 146/1/4
f 147/1/528 1/1/529 148/1/530
f 147/1/531 2/1/531 6/1/531
f 149/1/532 1/1/532 7/1/532
f 148/1/533 8/1/533 2/1/533
f 150/1/534 7/1/534 11/1/534
f 150/1/535 8/1/535 149/1/535
f 145/1/13 11/1/13 9/1/13
f 150/1/14 10/1/14 12/1/14
f 152/1/15 27/1/15 29/1/15
f 151/1/536 30/1/536 28/1/536
f 153/1/17 29/1/17 33/1/17
f 153/1/18 30/1/18 152/1/18
f 153/1/19 21/1/19 154/1/19
f 153/1/537 22/1/537 34/1/537
f 151/1/538 21/1/538 27/1/538
f 154/1/22 28/1/22 22/1/22
f 156/1/23 101/1/23 97/1/23
f 155/1/539 98/1/539 102/1/539
f 156/1/540 157/1/541 105/1/540
f 157/1/27 156/1/27 102/1/542
f 157/1/543 158/1/543 109/1/543
f 158/1/544 157/1/544 106/1/544
f 155/1/545 97/1/546 109/1/545
f 158/1/547 110/1/35 98/1/547
f 160/1/548 121/1/549 117/1/549
f 160/1/37 159/1/37 118/1/38
f 160/1/449 161/1/449 113/1/449
f 161/1/550 160/1/551 122/1/550
f 161/1/552 162/1/553 115/1/552
f 162/1/554 161/1/554 114/1/555
f 159/1/556 117/1/557 115/1/558
f 162/1/53 116/1/53 118/1/559
f 164/1/560 43/1/561 41/1/561
f 163/1/562 42/1/563 44/1/563
f 165/1/59 47/1/58 43/1/59
f 164/1/564 44/1/565 48/1/565
f 165/1/566 166/1/567 45/1/566
f 165/1/568 48/1/569 46/1/569
f 163/1/208 41/1/65 45/1/208
f 166/1/570 46/1/571 42/1/571
f 167/1/572 168/1/572 103/1/572
f 168/1/69 167/1/69 102/1/573
f 169/1/574 107/1/575 103/1/575
f 168/1/576 104/1/577 108/1/577
f 170/1/74 105/1/74 107/1/74
f 169/1/75 108/1/75 106/1/75
f 167/1/578 101/1/579 105/1/579
f 170/1/580 106/1/581 102/1/580
f 171/1/81 27/1/81 172/1/81
f 172/1/82 26/1/82 171/1/82
f 173/1/582 27/1/582 21/1/582
f 173/1/84 28/1/84 172/1/84
f 174/1/85 21/1/85 23/1/85
f 173/1/86 24/1/86 22/1/86
f 171/1/583 23/1/583 25/1/583
f 174/1/88 26/1/88 24/1/88
f 176/1/584 29/1/584 35/1/584
f 175/1/90 36/1/90 30/1/90
f 177/1/585 35/1/585 31/1/585
f 177/1/92 36/1/92 176/1/92
f 177/1/586 33/1/586 178/1/586
f 178/1/94 32/1/94 177/1/94
f 175/1/587 33/1/587 29/1/587
f 175/1/588 34/1/588 178/1/588
f 180/1/589 35/1/589 53/1/590
f 179/1/98 54/1/98 36/1/98
f 181/1/99 53/1/99 55/1/99
f 181/1/591 54/1/591 180/1/591
f 181/1/592 31/1/592 182/1/592
f 182/1/102 56/1/102 181/1/102
f 179/1/103 31/1/103 35/1/103
f 179/1/104 32/1/104 182/1/104
f 184/1/593 39/1/593 37/1/593
f 183/1/106 38/1/106 40/1/106
f 184/1/594 17/1/594 185/1/594
f 185/1/108 38/1/108 184/1/108
f 186/1/595 17/1/595 15/1/595
f 186/1/110 18/1/110 185/1/110
f 183/1/596 15/1/596 39/1/596
f 186/1/112 40/1/112 16/1/112
f 187/1/113 19/1/113 188/1/113
f 188/1/114 18/1/114 187/1/114
f 188/1/597 13/1/597 189/1/597
f 188/1/116 14/1/116 20/1/116
f 190/1/117 13/1/117 15/1/117
f 190/1/118 14/1/118 189/1/118
f 187/1/598 15/1/598 17/1/598
f 190/1/120 18/1/120 16/1/120
f 191/1/121 53/1/121 192/1/121
f 191/1/122 54/1/122 52/1/122
f 193/1/599 53/1/599 35/1/599
f 193/1/600 54/1/600 192/1/600
f 194/1/125 35/1/125 29/1/125
f 194/1/601 36/1/601 193/1/601
f 194/1/602 27/1/602 195/1/602
f 194/1/128 28/1/128 30/1/128
f 195/1/129 25/1/129 196/1/129
f 195/1/130 26/1/130 28/1/130
f 196/1/603 51/1/603 191/1/603
f 196/1/604 52/1/604 26/1/604
f 197/1/134 31/1/134 198/1/134
f 197/1/605 32/1/605 34/1/605
f 198/1/606 55/1/607 199/1/607
f 198/1/608 56/1/608 32/1/608
f 200/1/139 55/1/139 49/1/139
f 199/1/140 50/1/140 56/1/140
f 201/1/609 49/1/609 23/1/610
f 201/1/611 50/1/611 200/1/611
f 202/1/143 23/1/143 21/1/143
f 202/1/144 24/1/144 201/1/612
f 197/1/613 21/1/613 33/1/613
f 202/1/146 34/1/146 22/1/146
f 204/1/147 37/1/147 59/1/147
f 203/1/148 60/1/148 38/1/148
f 204/1/149 57/1/149 205/1/149
f 204/1/150 58/1/150 60/1/150
f 206/1/614 57/1/614 61/1/614
f 206/1/152 58/1/152 205/1/152
f 207/1/615 61/1/615 19/1/615
f 207/1/616 62/1/616 206/1/616
f 208/1/617 19/1/617 17/1/617
f 207/1/618 18/1/618 20/1/618
f 203/1/619 17/1/619 37/1/619
f 208/1/620 38/1/620 18/1/620
f 209/1/621 95/1/621 210/1/621
f 209/1/160 96/1/160 8/1/160
f 211/1/622 95/1/622 73/1/622
f 211/1/623 96/1/623 210/1/623
f 211/1/164 11/1/164 212/1/164
f 211/1/165 12/1/165 74/1/165
f 209/1/624 11/1/624 7/1/624
f 212/1/625 8/1/625 12/1/625
f 213/1/626 15/1/626 214/1/626
f 214/1/627 40/1/627 213/1/627
f 215/1/628 15/1/628 13/1/628
f 215/1/629 16/1/629 214/1/629
f 215/1/630 67/1/631 216/1/631
f 215/1/632 68/1/632 14/1/632
f 216/1/633 63/1/633 217/1/633
f 216/1/175 64/1/175 68/1/175
f 218/1/176 63/1/176 65/1/176
f 218/1/177 64/1/177 217/1/177
f 213/1/148 65/1/148 39/1/148
f 218/1/147 40/1/147 66/1/147
f 220/1/634 45/1/634 41/1/634
f 219/1/58 42/1/59 46/1/59
f 221/1/180 77/1/180 45/1/180
f 221/1/635 220/1/635 46/1/635
f 221/1/636 222/1/636 79/1/636
f 221/1/183 78/1/183 80/1/183
f 222/1/637 223/1/637 81/1/637
f 222/1/638 80/1/638 82/1/638
f 224/1/639 83/1/639 81/1/639
f 224/1/640 223/1/640 82/1/640
f 224/1/641 219/1/642 41/1/641
f 219/1/189 224/1/189 84/1/189
f 226/1/190 69/1/190 5/1/190
f 226/1/643 70/1/643 225/1/643
f 227/1/644 5/1/644 3/1/644
f 226/1/645 4/1/194 6/1/194
f 228/1/646 3/1/646 71/1/646
f 228/1/196 4/1/196 227/1/196
f 228/1/647 69/1/647 225/1/647
f 228/1/198 70/1/198 72/1/198
f 230/1/648 85/1/648 89/1/648
f 230/1/649 229/1/649 90/1/649
f 231/1/650 87/1/650 85/1/650
f 231/1/202 230/1/202 86/1/202
f 231/1/203 232/1/203 47/1/651
f 231/1/652 88/1/653 48/1/652
f 233/1/654 43/1/654 47/1/654
f 232/1/65 48/1/208 44/1/208
f 234/1/209 91/1/655 43/1/655
f 233/1/656 44/1/656 92/1/656
f 234/1/211 229/1/211 89/1/211
f 234/1/213 92/1/213 90/1/213
f 236/1/214 93/1/216 69/1/214
f 236/1/657 94/1/658 235/1/659
f 237/1/660 69/1/661 71/1/662
f 237/1/221 70/1/663 236/1/663
f 238/1/224 71/1/664 75/1/665
f 237/1/227 76/1/229 72/1/666
f 238/1/230 73/1/232 239/1/232
f 238/1/667 74/1/234 76/1/668
f 239/1/235 95/1/669 240/1/670
f 239/1/671 96/1/672 74/1/671
f 235/1/240 95/1/673 93/1/674
f 240/1/243 94/1/245 96/1/675
f 242/1/246 143/1/246 141/1/246
f 241/1/676 142/1/677 144/1/677
f 243/1/678 137/1/679 143/1/679
f 242/1/680 144/1/681 138/1/681
f 243/1/682 244/1/683 133/1/682
f 244/1/684 243/1/685 138/1/684
f 241/1/686 141/1/687 133/1/688
f 244/1/689 134/1/260 142/1/260
f 246/1/262 13/1/262 19/1/262
f 245/1/263 20/1/263 14/1/263
f 247/1/690 19/1/690 61/1/690
f 246/1/691 62/1/691 20/1/691
f 248/1/266 61/1/266 67/1/266
f 247/1/692 68/1/692 62/1/692
f 248/1/693 13/1/693 245/1/693
f 245/1/694 68/1/694 248/1/694
f 249/1/695 25/1/695 250/1/695
f 250/1/271 52/1/271 249/1/271
f 251/1/272 25/1/272 23/1/272
f 251/1/273 26/1/273 250/1/273
f 252/1/696 23/1/696 49/1/697
f 251/1/275 50/1/275 24/1/275
f 249/1/276 49/1/276 51/1/276
f 252/1/277 52/1/277 50/1/277
f 254/1/698 101/1/699 89/1/700
f 254/1/280 253/1/701 90/1/702
f 254/1/703 255/1/704 97/1/705
f 254/1/706 102/1/707 98/1/708
f 256/1/289 85/1/291 97/1/709
f 255/1/292 98/1/710 86/1/711
f 256/1/712 253/1/297 89/1/713
f 256/1/714 86/1/715 90/1/716
f 258/1/301 5/1/301 69/1/301
f 258/1/302 6/1/302 257/1/302
f 258/1/717 93/1/717 259/1/717
f 258/1/304 94/1/304 70/1/304
f 260/1/305 93/1/305 1/1/305
f 260/1/718 94/1/718 259/1/718
f 260/1/719 5/1/719 257/1/719
f 257/1/720 2/1/720 260/1/720
f 262/1/721 67/1/721 61/1/721
f 261/1/722 62/1/722 68/1/722
f 263/1/723 61/1/723 57/1/723
f 262/1/312 58/1/312 62/1/312
f 264/1/724 57/1/724 63/1/724
f 263/1/725 64/1/725 58/1/725
f 264/1/726 67/1/726 261/1/726
f 261/1/316 64/1/316 264/1/316
f 266/1/727 111/1/727 77/1/727
f 266/1/728 265/1/729 78/1/729
f 266/1/321 267/1/321 109/1/321
f 266/1/322 112/1/322 110/1/322
f 268/1/323 79/1/730 109/1/323
f 268/1/731 267/1/731 110/1/731
f 268/1/325 265/1/325 77/1/325
f 268/1/732 80/1/732 78/1/732
f 270/1/733 79/1/734 81/1/735
f 270/1/736 269/1/737 82/1/738
f 270/1/739 271/1/740 109/1/741
f 271/1/742 270/1/743 80/1/744
f 272/1/339 105/1/341 109/1/339
f 272/1/745 271/1/746 110/1/747
f 272/1/345 269/1/347 81/1/748
f 272/1/749 106/1/350 82/1/750
f 274/1/751 73/1/351 75/1/751
f 274/1/352 74/1/352 273/1/352
f 274/1/752 9/1/752 275/1/752
f 274/1/354 10/1/354 76/1/354
f 275/1/753 11/1/753 276/1/753
f 276/1/356 10/1/754 275/1/356
f 276/1/357 73/1/357 273/1/357
f 276/1/755 74/1/755 12/1/755
f 277/1/359 278/1/756 103/1/756
f 278/1/757 277/1/758 92/1/759
f 278/1/365 279/1/365 101/1/365
f 278/1/760 104/1/760 102/1/760
f 280/1/367 89/1/368 101/1/761
f 280/1/762 279/1/763 102/1/764
f 280/1/765 277/1/374 91/1/766
f 280/1/375 90/1/377 92/1/767
f 282/1/378 107/1/380 105/1/378
f 282/1/768 281/1/769 106/1/770
f 283/1/383 83/1/383 107/1/383
f 282/1/771 108/1/772 84/1/773
f 284/1/385 81/1/774 83/1/775
f 284/1/776 283/1/777 84/1/777
f 284/1/778 281/1/779 105/1/780
f 284/1/781 82/1/782 106/1/783
f 285/1/784 95/1/784 286/1/784
f 286/1/785 94/1/785 285/1/785
f 286/1/786 7/1/786 287/1/786
f 287/1/399 96/1/399 286/1/399
f 288/1/787 7/1/787 1/1/787
f 287/1/401 2/1/401 8/1/401
f 285/1/788 1/1/788 93/1/788
f 288/1/403 94/1/403 2/1/789
f 290/1/790 131/1/47 127/1/47
f 289/1/791 128/1/791 132/1/791
f 290/1/792 291/1/793 123/1/792
f 291/1/794 290/1/410 132/1/410
f 292/1/795 119/1/458 123/1/795
f 292/1/414 291/1/414 124/1/36
f 292/1/416 289/1/796 127/1/481
f 292/1/797 120/1/480 128/1/797
f 293/1/798 294/1/798 111/1/798
f 294/1/421 293/1/421 110/1/421
f 295/1/799 99/1/799 111/1/800
f 294/1/801 112/1/802 100/1/802
f 296/1/803 97/1/803 99/1/803
f 295/1/427 100/1/427 98/1/427
f 296/1/804 293/1/428 109/1/805
f 293/1/806 296/1/806 98/1/807
f 297/1/432 59/1/432 298/1/432
f 298/1/808 58/1/808 297/1/808
f 299/1/106 59/1/106 65/1/106
f 299/1/105 60/1/105 298/1/105
f 300/1/435 65/1/435 63/1/435
f 299/1/809 64/1/809 66/1/809
f 297/1/810 63/1/810 57/1/810
f 300/1/438 58/1/438 64/1/438
f 302/1/439 53/1/439 51/1/439
f 301/1/440 52/1/440 54/1/440
f 303/1/441 51/1/441 49/1/441
f 302/1/442 50/1/442 52/1/442
f 304/1/443 49/1/443 55/1/443
f 303/1/444 56/1/444 50/1/444
f 301/1/445 55/1/445 53/1/445
f 304/1/811 54/1/811 56/1/811
f 305/1/448 306/1/448 143/1/812
f 305/1/813 136/1/449 144/1/449
f 306/1/791 307/1/791 141/1/791
f 307/1/452 306/1/452 144/1/453
f 307/1/814 308/1/815 139/1/814
f 308/1/557 307/1/816 142/1/557
f 308/1/817 305/1/817 135/1/818
f 305/1/458 308/1/459 140/1/795
f 310/1/499 123/1/460 119/1/461
f 310/1/462 309/1/464 120/1/463
f 311/1/819 115/1/820 123/1/820
f 310/1/821 124/1/688 116/1/687
f 311/1/468 312/1/822 113/1/468
f 311/1/823 116/1/491 114/1/491
f 312/1/253 309/1/253 119/1/252
f 309/1/824 312/1/825 114/1/824
f 313/1/826 314/1/827 137/1/826
f 314/1/828 313/1/829 134/1/828
f 315/1/830 129/1/831 137/1/831
f 314/1/832 138/1/416 130/1/832
f 316/1/452 125/1/452 129/1/452
f 315/1/833 130/1/834 126/1/484
f 313/1/835 133/1/410 125/1/410
f 316/1/836 126/1/407 134/1/407
f 318/1/837 129/1/470 125/1/470
f 318/1/246 317/1/246 126/1/247
f 319/1/838 121/1/839 129/1/840
f 319/1/495 318/1/495 130/1/496
f 320/1/841 117/1/842 121/1/842
f 320/1/460 319/1/460 122/1/461
f 317/1/843 125/1/500 117/1/500
f 317/1/844 320/1/845 118/1/520
f 322/1/846 99/1/846 97/1/846
f 322/1/504 321/1/504 98/1/504
f 322/1/847 323/1/847 87/1/847
f 322/1/848 100/1/849 88/1/848
f 324/1/850 85/1/850 87/1/850
f 324/1/851 323/1/851 88/1/851
f 324/1/511 321/1/511 97/1/511
f 324/1/852 86/1/852 98/1/853
f 325/1/463 326/1/463 139/1/462
f 326/1/517 325/1/517 136/1/519
f 327/1/854 131/1/855 139/1/856
f 327/1/857 326/1/843 140/1/500
f 328/1/858 127/1/677 131/1/677
f 328/1/859 327/1/859 132/1/860
f 325/1/495 135/1/861 127/1/497
f 325/1/862 328/1/863 128/1/862
