# Blender 5.2.0 LTS
# www.blender.org
mtllib glass bullet.mtl
o bullet
v 0.194241 -0.031574 -0.031573
v 0.196132 -0.033221 -0.033220
v 0.194241 -0.031574 0.031573
v 0.196132 -0.033221 0.033220
v 0.194241 -0.044652 0.000000
v 0.196132 -0.046981 0.000000
v 0.194241 0.031573 -0.031573
v 0.196132 0.033220 -0.033220
v 0.194241 -0.000001 -0.044652
v 0.196132 -0.000001 -0.046981
v 0.194241 0.031573 0.031573
v 0.196132 0.033220 0.033220
v 0.194241 -0.000001 0.044652
v 0.196041 -0.000001 0.047052
v 0.194241 0.044651 -0.000000
v 0.196132 0.046980 -0.000000
v -0.194241 0.012801 0.012801
v -0.196376 0.014291 0.014291
v -0.194241 -0.012802 0.012801
v -0.196376 -0.014292 0.014291
v -0.194241 -0.000001 0.018104
v -0.196314 -0.000001 0.020273
v -0.194241 -0.000001 -0.018103
v -0.196376 -0.000001 -0.020210
v -0.194241 -0.018104 0.000000
v -0.196376 -0.020211 0.000000
v -0.194241 -0.012802 -0.012801
v -0.196376 -0.014292 -0.014291
v -0.194241 0.018103 -0.000000
v -0.196376 0.020211 -0.000000
v -0.194241 0.012801 -0.012801
v -0.196376 0.014291 -0.014291
v -0.067914 0.021354 0.021355
v -0.070366 0.022576 0.022577
v -0.160748 0.018154 0.018155
v -0.161145 0.020257 0.020258
v -0.067914 -0.000001 0.030200
v -0.070302 -0.000001 0.032016
v -0.160748 -0.000001 0.025675
v -0.161150 -0.000001 0.028648
v -0.067914 0.030199 -0.000000
v -0.070366 0.031927 -0.000000
v -0.160748 0.025674 -0.000000
v -0.161145 0.028648 -0.000000
v -0.160748 0.018154 -0.018155
v -0.161145 0.020257 -0.020258
v -0.067914 0.021354 -0.021355
v -0.070366 0.022576 -0.022577
v -0.067914 -0.000001 -0.030200
v -0.070366 -0.000001 -0.031928
v -0.160748 -0.000001 -0.025675
v -0.161145 -0.000001 -0.028649
v -0.160748 -0.018156 -0.018155
v -0.161145 -0.020259 -0.020258
v -0.067914 -0.021355 -0.021355
v -0.070366 -0.022577 -0.022577
v -0.067914 -0.030201 0.000000
v -0.070366 -0.031929 0.000000
v -0.160748 -0.025676 0.000000
v -0.161145 -0.028650 0.000000
v -0.160748 -0.018156 0.018155
v -0.161145 -0.020259 0.020258
v -0.067914 -0.021355 0.021355
v -0.070366 -0.022577 0.022577
v -0.067914 -0.000001 -0.032153
v -0.070348 -0.000001 -0.033907
v -0.067914 -0.022736 -0.022735
v -0.070348 -0.023976 -0.023975
v -0.067914 -0.032153 0.000000
v -0.070348 -0.033907 0.000000
v -0.067914 0.022735 -0.022735
v -0.070348 0.023975 -0.023975
v -0.067914 -0.022736 0.022735
v -0.070348 -0.023976 0.023975
v -0.067914 -0.000001 0.032153
v -0.070318 -0.000001 0.033948
v -0.067914 0.032152 -0.000000
v -0.070348 0.033906 -0.000000
v -0.067914 0.022735 0.022735
v -0.070348 0.023975 0.023975
v -0.045983 -0.031574 0.031573
v -0.046709 -0.033632 0.033631
v -0.045983 -0.000001 0.044652
v -0.046701 -0.000001 0.047565
v -0.045983 -0.044652 0.000000
v -0.046709 -0.047563 0.000000
v -0.045983 -0.031574 -0.031573
v -0.046709 -0.033632 -0.033631
v -0.045983 -0.000001 -0.044652
v -0.046709 -0.000001 -0.047563
v -0.045983 0.031573 -0.031573
v -0.046709 0.033631 -0.033631
v -0.045983 0.044651 -0.000000
v -0.046709 0.047562 -0.000000
v -0.045983 0.031573 0.031573
v -0.046709 0.033631 0.033631
v -0.044842 0.001385 0.045534
v 0.193641 0.001385 0.045278
v 0.193686 0.031011 0.032971
v -0.044846 0.031216 0.033176
v 0.195186 -0.031249 0.031248
v 0.195186 -0.044193 0.000000
v 0.195186 -0.031249 -0.031248
v 0.195186 -0.000001 -0.044193
v 0.195186 0.031248 -0.031248
v 0.195186 0.044192 -0.000000
v 0.195186 0.031248 0.031248
v 0.195141 -0.000001 0.044228
v -0.069140 0.021613 0.023735
v -0.069108 0.001499 0.032110
v -0.069116 0.001499 0.030805
v -0.069131 0.020706 0.022829
v -0.070639 0.030416 -0.001386
v -0.070639 0.022487 -0.020528
v -0.159448 0.019831 -0.017872
v -0.159448 0.026660 -0.001386
v -0.070639 -0.022488 0.020528
v -0.159448 -0.019833 0.017872
v -0.159448 -0.026662 0.001386
v -0.070639 -0.030418 0.001386
v -0.162415 -0.017582 -0.019548
v -0.193840 -0.012391 -0.014357
v -0.193840 -0.001392 -0.018913
v -0.162415 -0.001392 -0.026254
v -0.162415 0.001390 -0.026254
v -0.193840 0.001390 -0.018913
v -0.193840 0.012390 -0.014357
v -0.162415 0.017580 -0.019548
v -0.162415 0.026253 0.001391
v -0.193840 0.018913 0.001391
v -0.193840 0.014357 0.012390
v -0.162415 0.019547 0.017581
v -0.070639 0.030416 0.001386
v -0.159448 0.026660 0.001386
v -0.159448 0.019831 0.017872
v -0.070639 0.022487 0.020528
v -0.159451 0.001385 0.026660
v -0.070607 0.001385 0.030461
v -0.070639 0.020527 0.022488
v -0.159448 0.017871 0.019832
v -0.162417 -0.001392 0.026253
v -0.193809 -0.001392 0.018944
v -0.193840 -0.012391 0.014357
v -0.162415 -0.017582 0.019548
v -0.162415 -0.019549 0.017581
v -0.193840 -0.014358 0.012390
v -0.193840 -0.018914 0.001391
v -0.162415 -0.026255 0.001391
v -0.070607 -0.001387 0.030461
v -0.159451 -0.001387 0.026660
v -0.159448 -0.017873 0.019832
v -0.070639 -0.020528 0.022488
v -0.193809 0.001390 0.018944
v -0.162417 0.001390 0.026253
v -0.162415 0.017580 0.019548
v -0.193840 0.012390 0.014357
v -0.162415 0.026253 -0.001391
v -0.162415 0.019547 -0.017581
v -0.193840 0.014357 -0.012390
v -0.193840 0.018913 -0.001391
v -0.162415 -0.026255 -0.001391
v -0.193840 -0.018914 -0.001391
v -0.193840 -0.014358 -0.012390
v -0.162415 -0.019549 -0.017581
v -0.070639 -0.030418 -0.001386
v -0.159448 -0.026662 -0.001386
v -0.159448 -0.019833 -0.017872
v -0.070639 -0.022488 -0.020528
v -0.070639 0.001385 -0.030417
v -0.159448 0.001385 -0.026661
v -0.159448 0.017871 -0.019832
v -0.070639 0.020527 -0.022488
v -0.067804 0.022478 -0.024475
v -0.047673 0.030656 -0.032652
v -0.047673 0.001410 -0.044766
v -0.067804 0.001410 -0.033202
v -0.069116 -0.001501 0.030805
v -0.069108 -0.001501 0.032110
v -0.069140 -0.021614 0.023735
v -0.069131 -0.020707 0.022829
v -0.069140 0.032065 -0.001500
v -0.069131 0.030784 -0.001500
v -0.069131 0.022828 -0.020708
v -0.069140 0.023734 -0.021614
v -0.069140 -0.021614 -0.023735
v -0.069140 -0.001501 -0.032066
v -0.069131 -0.001501 -0.030785
v -0.069131 -0.020707 -0.022829
v -0.069131 -0.022829 -0.020708
v -0.069131 -0.030785 -0.001500
v -0.069140 -0.032067 -0.001500
v -0.069140 -0.023735 -0.021614
v -0.069140 0.032065 0.001500
v -0.069140 0.023734 0.021614
v -0.069131 0.022828 0.020708
v -0.069131 0.030784 0.001500
v -0.069140 0.021613 -0.023735
v -0.069131 0.020706 -0.022829
v -0.069131 0.001499 -0.030785
v -0.069140 0.001499 -0.032066
v 0.193641 -0.001387 0.045278
v -0.044842 -0.001387 0.045534
v -0.044846 -0.031217 0.033176
v 0.193686 -0.031012 0.032971
v -0.044846 -0.045533 0.001386
v 0.193686 -0.045243 0.001386
v 0.193686 -0.032972 0.031011
v -0.044846 -0.033177 0.031216
v -0.044846 -0.033177 -0.031216
v 0.193686 -0.032972 -0.031011
v 0.193686 -0.045243 -0.001386
v -0.044846 -0.045533 -0.001386
v -0.070639 -0.020528 -0.022488
v -0.159448 -0.017873 -0.019832
v -0.159448 -0.001387 -0.026661
v -0.070639 -0.001387 -0.030417
v -0.044846 -0.001387 -0.045533
v 0.193686 -0.001387 -0.045243
v 0.193686 -0.031012 -0.032971
v -0.044846 -0.031217 -0.033176
v -0.044846 0.045532 -0.001386
v 0.193686 0.045242 -0.001386
v 0.193686 0.032971 -0.031011
v -0.044846 0.033176 -0.031216
v -0.044846 0.031216 -0.033176
v 0.193686 0.031011 -0.032971
v 0.193686 0.001385 -0.045243
v -0.044846 0.001385 -0.045533
v -0.067804 -0.001412 -0.033202
v -0.047673 -0.001412 -0.044766
v -0.047673 -0.030657 -0.032652
v -0.067804 -0.022480 -0.024475
v -0.069131 -0.022829 0.020708
v -0.069140 -0.023735 0.021614
v -0.069140 -0.032067 0.001500
v -0.069131 -0.030785 0.001500
v -0.067804 0.024474 -0.022478
v -0.067804 0.033201 -0.001411
v -0.047673 0.044765 -0.001411
v -0.047673 0.032652 -0.030656
v -0.067804 -0.024475 -0.022478
v -0.047673 -0.032653 -0.030656
v -0.047673 -0.044766 -0.001411
v -0.067804 -0.033202 -0.001411
v -0.067789 0.001410 0.033222
v -0.047670 0.001410 0.044767
v -0.047673 0.030656 0.032652
v -0.067804 0.022479 0.024474
v -0.067804 0.024474 0.022478
v -0.047673 0.032652 0.030656
v -0.047673 0.044765 0.001411
v -0.067804 0.033201 0.001411
v -0.067804 -0.033202 0.001411
v -0.047673 -0.044766 0.001411
v -0.047673 -0.032653 0.030656
v -0.067804 -0.024475 0.022478
v -0.067804 -0.022480 0.024475
v -0.047673 -0.030657 0.032652
v -0.047670 -0.001412 0.044767
v -0.067789 -0.001412 0.033222
v -0.044846 0.033176 0.031216
v 0.193686 0.032971 0.031011
v 0.193686 0.045242 0.001386
v -0.044846 0.045532 0.001386
v -0.195309 0.012398 0.012398
v -0.195309 0.017533 -0.000000
v -0.195309 0.012398 -0.012398
v -0.195309 -0.000001 -0.017533
v -0.195309 -0.012399 -0.012398
v -0.195309 -0.017534 0.000000
v -0.195309 -0.012399 0.012398
v -0.195277 -0.000001 0.017565
vn -0.0753 -0.7663 0.6380
vn 0.3579 -0.5751 0.7357
vn -0.3622 -0.5251 0.7701
vn -0.3300 -0.8633 -0.3818
vn -0.1035 -0.5324 -0.8401
vn 0.0813 -0.5245 -0.8475
vn 0.8841 0.1785 0.4318
vn 0.8963 0.4245 0.1283
vn 0.6437 0.3710 0.6693
vn 0.7198 -0.3402 -0.6050
vn 0.4110 -0.3509 -0.8414
vn 0.0005 0.9562 0.2928
vn -0.0011 0.1508 -0.9886
vn -0.7629 0.2474 0.5973
vn -0.4614 0.3962 0.7938
vn -0.8420 -0.2887 -0.4557
vn -0.6864 0.0656 -0.7242
vn -0.5858 -0.3103 -0.7487
vn 0.4093 -0.8430 0.3492
vn -0.9388 -0.3183 0.1318
vn 0.4093 -0.8430 -0.3492
vn -0.9388 -0.3183 -0.1318
vn 0.4093 -0.3492 -0.8429
vn -0.9388 -0.1319 -0.3183
vn 0.4093 0.3492 -0.8430
vn -0.9388 0.1319 -0.3183
vn 0.4093 0.8430 -0.3492
vn -0.9388 0.3183 -0.1318
vn 0.4093 0.8430 0.3492
vn -0.9388 0.3183 0.1318
vn 0.4041 0.3502 0.8450
vn -0.9421 0.1305 0.3089
vn 0.4042 -0.3502 0.8450
vn -0.9421 -0.1305 0.3089
vn -0.8865 -0.1780 -0.4271
vn 0.4907 -0.3346 -0.8045
vn -0.7822 -0.6229 -0.0096
vn 0.7958 -0.6048 0.0304
vn -0.4903 0.3337 0.8051
vn -0.4904 0.3337 0.8051
vn 0.8867 0.1782 0.4266
vn -0.7745 0.4545 -0.4399
vn 0.7601 0.4375 -0.4805
vn 0.2590 0.8924 -0.3696
vn 0.9539 -0.2772 0.1148
vn -0.0414 0.3488 -0.9363
vn 0.0241 -0.9921 -0.1227
vn -0.7425 0.6188 -0.2563
vn -0.6099 -0.7321 0.3033
vn -0.0414 0.9086 0.4155
vn 0.0241 -0.6148 0.7883
vn -0.0414 -0.3488 0.9363
vn 0.0241 0.9921 0.1228
vn -0.7425 -0.6188 0.2563
vn -0.6099 0.7321 -0.3033
vn -0.0414 -0.9086 -0.4155
vn 0.0241 0.6148 -0.7883
vn 0.2590 -0.8923 0.3696
vn 0.9539 0.2772 -0.1148
vn -0.1930 -0.9526 -0.2354
vn 0.1341 -0.1744 0.9755
vn -0.9543 -0.1143 -0.2760
vn -0.2543 0.3701 0.8935
vn -0.1930 0.5071 -0.8400
vn 0.1341 0.8131 0.5665
vn 0.5391 -0.3223 -0.7781
vn 0.7978 0.2307 0.5570
vn -0.1930 -0.5071 -0.8400
vn 0.1341 -0.8131 0.5665
vn -0.9543 0.1143 -0.2760
vn -0.2543 -0.3701 0.8935
vn -0.1929 0.9525 -0.2354
vn 0.1341 0.1744 0.9755
vn 0.5391 0.3223 -0.7781
vn 0.7978 -0.2307 0.5570
vn -0.1929 0.8400 -0.5071
vn 0.1341 -0.5665 -0.8131
vn -0.9543 0.2760 0.1143
vn -0.2543 -0.8935 -0.3701
vn -0.1930 0.2354 0.9525
vn -0.1929 0.2354 0.9526
vn 0.1341 -0.9755 0.1744
vn 0.5391 0.7781 0.3223
vn 0.7978 -0.5570 -0.2307
vn -0.0414 0.9087 -0.4154
vn 0.0241 -0.6148 -0.7883
vn -0.7425 0.6188 0.2563
vn -0.6099 -0.7321 -0.3033
vn -0.0414 0.3487 0.9363
vn 0.0241 -0.9921 0.1227
vn 0.2590 0.8924 0.3696
vn 0.9539 -0.2772 -0.1148
vn 0.1088 -0.7236 0.6816
vn 0.1190 -0.6890 0.7150
vn 0.3022 -0.2472 0.9207
vn 0.1845 -0.9326 -0.3103
vn -0.3670 -0.7552 -0.5432
vn 0.0144 -0.5072 -0.8617
vn 0.2672 0.3698 0.8899
vn 0.3413 0.6718 0.6574
vn -0.1194 0.4250 0.8973
vn 0.9509 -0.1173 -0.2864
vn 0.9582 0.2456 -0.1465
vn -0.0414 0.9363 0.3488
vn 0.0241 0.1227 -0.9921
vn -0.8982 0.3331 0.2869
vn -0.7425 0.2564 0.6188
vn -0.6094 -0.3033 -0.7326
vn -0.8349 -0.0697 -0.5460
vn -0.4525 -0.0033 -0.8918
vn -0.2854 0.7618 0.5816
vn -0.5267 0.3442 0.7772
vn 0.1807 0.5444 0.8191
vn 0.4067 0.8628 -0.3002
vn 0.2911 0.5486 -0.7838
vn -0.1654 0.6595 -0.7332
vn -0.9520 -0.1164 0.2832
vn -0.9309 -0.3653 -0.0062
vn -0.7719 -0.3210 0.5488
vn -0.5971 0.3702 -0.7116
vn -0.2608 0.3730 -0.8904
vn -0.1930 -0.9525 0.2354
vn 0.1341 -0.1744 -0.9755
vn 0.5387 -0.3224 0.7784
vn 0.3425 -0.6303 0.6967
vn 0.9477 -0.0164 -0.3187
vn 0.6594 -0.0585 -0.7495
vn 0.7982 0.2307 -0.5564
vn -0.1930 -0.2354 0.9526
vn 0.1341 0.9755 0.1744
vn -0.9543 -0.2760 0.1143
vn -0.2543 0.8935 -0.3701
vn -0.1930 -0.8400 -0.5071
vn 0.1341 0.5665 -0.8131
vn 0.5391 -0.7781 0.3223
vn 0.7978 0.5570 -0.2307
vn 0.1088 0.7236 0.6816
vn -0.3106 0.6210 0.7196
vn 0.3022 0.2496 0.9200
vn 0.1844 0.9326 -0.3103
vn 0.3562 0.6255 -0.6942
vn 0.0145 0.5071 -0.8618
vn -0.8982 -0.3331 0.2869
vn -0.5582 -0.5808 0.5925
vn -0.7431 -0.2561 0.6182
vn -0.6098 0.3031 -0.7323
vn -0.4525 0.0033 -0.8918
vn -0.0414 -0.9363 0.3487
vn 0.0241 -0.1227 -0.9921
vn 0.2672 -0.3698 0.8899
vn -0.1195 -0.4249 0.8973
vn 0.9509 0.1173 -0.2864
vn 0.9891 0.1063 0.1015
vn 0.9582 -0.2457 -0.1467
vn -0.2854 -0.7618 0.5816
vn -0.1697 -0.7993 0.5764
vn 0.1807 -0.5444 0.8191
vn 0.4066 -0.8628 -0.3003
vn -0.0984 -0.9473 -0.3049
vn -0.1654 -0.6595 -0.7333
vn 0.5384 0.3224 0.7786
vn 0.7671 0.4086 0.4945
vn 0.3425 0.6303 0.6967
vn 0.9477 0.0164 -0.3188
vn 0.7979 -0.2308 -0.5569
vn -0.1929 0.9526 0.2354
vn 0.1341 0.1743 -0.9755
vn -0.9520 0.1164 0.2832
vn -0.7719 0.3210 0.5487
vn -0.5971 -0.3702 -0.7117
vn -0.3734 -0.0101 -0.9276
vn -0.2609 -0.3730 -0.8904
vn 0.5391 0.7781 -0.3223
vn 0.7978 -0.5570 0.2307
vn -0.1930 0.2354 -0.9526
vn 0.1341 -0.9755 -0.1744
vn -0.9543 0.2761 -0.1143
vn -0.2543 -0.8935 0.3701
vn -0.1929 0.8400 0.5071
vn -0.1930 0.8400 0.5071
vn 0.1341 -0.5665 0.8131
vn -0.1930 -0.8400 0.5071
vn 0.1341 0.5665 0.8131
vn -0.9543 -0.2760 -0.1143
vn -0.2543 0.8935 0.3701
vn -0.1930 -0.2354 -0.9526
vn -0.1930 -0.2354 -0.9525
vn 0.1341 0.9755 -0.1744
vn 0.5391 -0.7781 -0.3223
vn 0.7978 0.5570 0.2307
vn -0.0414 -0.9087 0.4154
vn 0.0241 0.6148 0.7883
vn -0.7425 -0.6188 -0.2563
vn -0.6099 0.7321 0.3033
vn -0.0414 -0.3487 -0.9363
vn 0.0241 0.9922 -0.1227
vn 0.2590 -0.8923 -0.3696
vn 0.9539 0.2772 0.1148
vn -0.0414 -0.4154 -0.9087
vn 0.0241 -0.7883 0.6148
vn -0.7425 0.2563 -0.6188
vn -0.6099 -0.3033 0.7321
vn -0.0414 0.9363 -0.3487
vn 0.0241 0.1227 0.9921
vn 0.2590 0.3696 -0.8924
vn 0.9539 -0.1148 0.2772
vn -0.4191 0.8973 -0.1387
vn 0.2966 0.2049 0.9328
vn 0.3570 0.3575 -0.8630
vn 0.9043 -0.1633 0.3943
vn -0.4191 -0.5364 -0.7326
vn 0.2966 -0.8045 0.5147
vn -0.9973 0.0279 -0.0673
vn -0.0437 -0.3823 0.9230
vn -0.7822 0.6229 -0.0096
vn 0.7958 0.6048 0.0303
vn -0.8865 0.1780 -0.4271
vn 0.4907 0.3346 -0.8045
vn -0.7745 -0.4545 -0.4399
vn 0.7601 -0.4375 -0.4804
vn -0.4904 -0.3337 0.8051
vn 0.8867 -0.1783 0.4266
vn -0.7745 0.0106 0.6325
vn 0.7602 -0.0300 0.6490
vn -0.4932 0.8037 -0.3329
vn 0.8847 0.4306 -0.1784
vn -0.7744 -0.4396 -0.4550
vn 0.7603 -0.4800 -0.4378
vn -0.8823 -0.4349 0.1801
vn 0.4967 -0.8018 0.3321
vn -0.8823 0.1801 0.4349
vn 0.4967 0.3321 0.8018
vn -0.7745 0.6325 -0.0106
vn 0.7602 0.6490 0.0300
vn -0.4932 -0.3329 -0.8037
vn 0.8847 -0.1784 -0.4306
vn -0.7745 -0.4545 0.4399
vn 0.7601 -0.4375 0.4804
vn -0.4932 -0.8037 -0.3329
vn 0.8847 -0.4306 -0.1784
vn -0.7745 -0.0106 0.6325
vn 0.7602 0.0301 0.6490
vn -0.8823 0.4349 0.1802
vn 0.4967 0.8018 0.3321
vn -0.7744 0.4397 -0.4550
vn 0.7603 0.4799 -0.4378
vn -0.8823 -0.4349 -0.1801
vn 0.4968 -0.8018 -0.3321
vn -0.7744 -0.4397 0.4550
vn 0.7603 -0.4800 0.4378
vn -0.4932 0.8037 0.3329
vn 0.8847 0.4306 0.1784
vn -0.7745 0.0106 -0.6325
vn 0.7602 -0.0300 -0.6490
vn -0.7745 0.4546 0.4398
vn 0.7601 0.4375 0.4804
vn -0.4932 0.3329 -0.8037
vn 0.8847 0.1784 -0.4306
vn -0.7745 -0.6325 -0.0106
vn 0.7602 -0.6490 0.0300
vn -0.8823 -0.1801 0.4349
vn 0.4968 -0.3321 0.8018
vn -0.0754 0.7664 0.6379
vn 0.0492 0.7804 0.6233
vn -0.3622 0.5251 0.7701
vn -0.3301 0.8634 -0.3817
vn 0.3440 0.8415 -0.4165
vn 0.0812 0.5244 -0.8476
vn -0.7632 -0.2473 0.5970
vn -0.7845 -0.5272 0.3264
vn -0.4614 -0.3962 0.7938
vn -0.8420 0.2888 -0.4557
vn -0.5857 0.3103 -0.7487
vn -0.5856 0.3103 -0.7488
vn 0.0005 -0.9562 0.2927
vn -0.0011 -0.1507 -0.9886
vn 0.8841 -0.1785 0.4318
vn 0.6437 -0.3710 0.6693
vn 0.7199 0.3402 -0.6050
vn 0.5242 -0.0230 -0.8513
vn 0.4110 0.3509 -0.8414
vn 0.0005 -0.8831 -0.4691
vn -0.0011 0.5924 -0.8056
vn 0.8889 -0.4233 0.1753
vn 0.4027 0.8456 -0.3503
vn 0.0005 -0.2928 0.9562
vn -0.0011 0.9886 0.1508
vn -0.7636 -0.5966 0.2471
vn -0.5853 0.7491 -0.3103
vn 0.0005 -0.2927 -0.9562
vn -0.0011 0.9886 -0.1507
vn 0.8889 -0.4233 -0.1753
vn 0.4027 0.8456 0.3503
vn 0.0005 -0.8831 0.4691
vn -0.0011 0.5924 0.8056
vn -0.7636 -0.5966 -0.2471
vn -0.5853 0.7491 0.3103
vn -0.0414 -0.9363 -0.3489
vn 0.0241 -0.1228 0.9921
vn -0.7425 -0.2563 -0.6188
vn -0.6099 0.3033 0.7321
vn -0.0414 0.4155 -0.9086
vn 0.0241 0.7883 0.6148
vn 0.2590 -0.3696 -0.8924
vn 0.9539 0.1148 0.2772
vn 0.0005 0.4691 -0.8831
vn -0.0011 0.8056 0.5924
vn 0.8889 -0.1754 -0.4233
vn 0.4027 0.3503 0.8456
vn 0.0005 -0.9562 -0.2927
vn -0.0011 -0.1507 0.9886
vn -0.7636 -0.2471 -0.5966
vn -0.5853 0.3103 0.7491
vn 0.0005 0.8831 0.4691
vn -0.0011 -0.5924 0.8056
vn 0.8889 0.4233 -0.1753
vn 0.4027 -0.8456 0.3503
vn 0.0005 0.2928 -0.9562
vn -0.0011 -0.9886 -0.1508
vn -0.7636 0.5966 -0.2471
vn -0.5853 -0.7491 0.3103
vn 0.0005 0.9562 -0.2927
vn -0.0011 0.1507 0.9886
vn 0.8889 0.1753 -0.4233
vn 0.4027 -0.3503 0.8456
vn 0.0005 -0.4691 -0.8831
vn -0.0011 -0.8056 0.5924
vn -0.7636 0.2471 -0.5966
vn -0.5853 -0.3103 0.7491
vn -0.4191 0.5364 -0.7326
vn 0.2966 0.8045 0.5147
vn 0.3569 -0.3575 -0.8630
vn 0.9043 0.1633 0.3943
vn -0.4191 -0.8973 -0.1387
vn 0.2966 -0.2049 0.9328
vn -0.9973 -0.0279 -0.0673
vn -0.0437 0.3823 0.9230
vn -0.7744 0.4397 0.4550
vn 0.7603 0.4799 0.4378
vn -0.8823 0.4349 -0.1802
vn 0.4967 0.8018 -0.3321
vn -0.7745 -0.0106 -0.6325
vn 0.7602 0.0301 -0.6490
vn -0.4932 -0.8037 0.3329
vn 0.8847 -0.4306 0.1784
vn -0.9973 0.0673 -0.0279
vn -0.0437 -0.9230 0.3823
vn -0.4191 0.7326 0.5364
vn 0.2966 -0.5147 0.8044
vn 0.3569 0.8630 -0.3575
vn 0.9043 -0.3943 0.1633
vn -0.4191 0.1387 -0.8973
vn 0.2966 -0.9328 -0.2049
vn -0.4191 -0.1387 -0.8973
vn 0.2966 0.9328 -0.2049
vn 0.3570 -0.8630 -0.3575
vn 0.9043 0.3943 0.1633
vn -0.4191 -0.7326 0.5364
vn 0.2966 0.5147 0.8044
vn -0.9973 -0.0673 -0.0279
vn -0.0437 0.9230 0.3823
vn -0.2257 -0.7794 0.5845
vn -0.3207 -0.7924 0.5189
vn -0.0907 -0.5562 0.8261
vn -0.0442 -0.8447 -0.5334
vn 0.3599 -0.5598 -0.7464
vn 0.4934 -0.5663 -0.6602
vn 0.4456 0.6136 0.6518
vn 0.0232 0.4240 0.9053
vn 0.3577 0.3574 0.8627
vn 0.9043 -0.1632 -0.3945
vn 0.9337 0.1693 -0.3155
vn -0.4191 0.8973 0.1387
vn 0.2966 0.2049 -0.9328
vn -0.9970 0.0293 0.0715
vn -0.9131 0.2297 0.3369
vn -0.3796 -0.3946 -0.8368
vn -0.1442 -0.0601 -0.9877
vn -0.0475 -0.3834 -0.9224
vn -0.4191 0.1387 0.8973
vn 0.2966 -0.9328 0.2049
vn 0.3570 0.8630 0.3575
vn 0.9043 -0.3943 -0.1633
vn -0.4191 0.7326 -0.5364
vn 0.2966 -0.5147 -0.8044
vn -0.9973 0.0673 0.0279
vn -0.0437 -0.9230 -0.3823
vn -0.4191 -0.7326 -0.5364
vn 0.2966 0.5147 -0.8044
vn 0.3569 -0.8630 0.3575
vn 0.9043 0.3943 -0.1633
vn -0.4191 -0.1387 0.8973
vn 0.2966 0.9328 0.2049
vn -0.9973 -0.0673 0.0279
vn -0.0437 0.9230 -0.3823
vn -0.4191 -0.8973 0.1387
vn 0.2966 -0.2049 -0.9328
vn 0.2966 -0.2048 -0.9328
vn 0.4456 -0.6137 0.6518
vn 0.3572 -0.3575 0.8629
vn 0.9041 0.1634 -0.3949
vn 0.9880 0.1411 -0.0625
vn 0.9337 -0.1693 -0.3155
vn -0.2257 0.7794 0.5845
vn -0.6017 0.6515 0.4621
vn -0.0906 0.5562 0.8261
vn -0.0443 0.8447 -0.5334
vn 0.4718 0.8532 -0.2223
vn 0.4935 0.5662 -0.6602
vn -0.9970 -0.0293 0.0716
vn -0.9486 -0.2628 -0.1763
vn -0.9131 -0.2297 0.3369
vn -0.3796 0.3947 -0.8367
vn -0.0476 0.3834 -0.9224
vn 0.0005 0.2927 0.9562
vn -0.0011 -0.9886 0.1507
vn 0.8889 0.4233 0.1753
vn 0.4027 -0.8456 -0.3503
vn 0.0005 0.8832 -0.4691
vn 0.0005 0.8831 -0.4691
vn -0.0011 -0.5924 -0.8056
vn -0.7636 0.5966 0.2471
vn -0.5853 -0.7491 -0.3103
vn -0.4423 0.8286 0.3432
vn 0.9181 0.3661 0.1516
vn -0.4423 0.8286 -0.3432
vn 0.9181 0.3661 -0.1516
vn -0.4423 0.3432 -0.8286
vn 0.9181 0.1516 -0.3661
vn -0.4423 -0.3432 -0.8286
vn 0.9181 -0.1516 -0.3661
vn -0.4423 -0.8286 -0.3432
vn 0.9181 -0.3661 -0.1516
vn -0.4423 -0.8286 0.3432
vn 0.9181 -0.3661 0.1516
vn -0.4378 -0.3445 0.8305
vn 0.9210 -0.1529 0.3582
vn -0.4378 0.3445 0.8304
vn 0.9210 0.1529 0.3583
vn -0.0753 -0.7664 0.6380
vn 0.0492 -0.7804 0.6234
vn -0.3300 -0.8633 -0.3817
vn 0.0812 -0.5245 -0.8476
vn 0.3440 -0.8416 -0.4165
vn 0.7199 -0.3402 -0.6050
vn 0.5242 0.0230 -0.8513
vn 0.0005 0.9562 0.2927
vn -0.0011 0.1507 -0.9886
vn -0.7846 0.5272 0.3264
vn -0.5857 -0.3103 -0.7488
vn -0.5856 -0.3103 -0.7488
vn 0.4042 0.3502 0.8450
vn -0.7822 -0.6229 -0.0095
vn 0.7601 0.4375 -0.4804
vn -0.0414 0.3487 -0.9363
vn -0.0415 0.3487 -0.9363
vn -0.0414 0.9087 0.4154
vn -0.0414 -0.3487 0.9363
vn 0.0241 0.9922 0.1227
vn -0.0414 -0.9087 -0.4154
vn -0.1929 0.9526 -0.2354
vn -0.1930 0.8400 -0.5071
vn -0.9543 0.2761 0.1143
vn -0.1930 0.2354 0.9526
vn -0.0414 0.9086 -0.4155
vn -0.0414 0.3488 0.9363
vn 0.0241 -0.9921 0.1228
vn 0.3021 -0.2471 0.9207
vn -0.3106 -0.6210 0.7196
vn 0.1844 -0.9326 -0.3103
vn 0.0145 -0.5071 -0.8618
vn 0.3562 -0.6255 -0.6942
vn -0.1195 0.4249 0.8973
vn 0.9582 0.2457 -0.1466
vn 0.9891 -0.1063 0.1015
vn -0.0414 0.9363 0.3487
vn -0.8982 0.3332 0.2869
vn -0.7431 0.2561 0.6182
vn -0.5582 0.5808 0.5925
vn -0.6094 -0.3033 -0.7325
vn -0.4525 -0.0033 -0.8917
vn -0.1697 0.7993 0.5764
vn -0.1654 0.6595 -0.7333
vn -0.0984 0.9473 -0.3049
vn -0.7719 -0.3209 0.5488
vn -0.9520 -0.1165 0.2832
vn -0.2609 0.3731 -0.8904
vn -0.3734 0.0101 -0.9276
vn -0.1930 -0.9526 0.2353
vn -0.1929 -0.9526 0.2353
vn 0.5384 -0.3224 0.7786
vn 0.7671 -0.4087 0.4945
vn 0.7982 0.2307 -0.5565
vn 0.7981 0.2307 -0.5566
vn -0.1930 -0.2354 0.9525
vn 0.1087 0.7235 0.6817
vn 0.3021 0.2471 0.9207
vn 0.1190 0.6890 0.7150
vn 0.1845 0.9326 -0.3103
vn 0.0144 0.5072 -0.8617
vn -0.3670 0.7552 -0.5432
vn -0.7425 -0.2564 0.6188
vn -0.6094 0.3033 -0.7326
vn -0.8349 0.0697 -0.5460
vn -0.0414 -0.9363 0.3489
vn -0.1194 -0.4250 0.8973
vn 0.3412 -0.6718 0.6574
vn 0.9582 -0.2456 -0.1466
vn 0.1806 -0.5444 0.8192
vn -0.5268 -0.3441 0.7772
vn 0.4066 -0.8628 -0.3002
vn -0.1654 -0.6595 -0.7332
vn 0.2911 -0.5487 -0.7837
vn 0.5391 0.3223 0.7781
vn 0.9477 0.0164 -0.3187
vn 0.7982 -0.2307 -0.5564
vn 0.6594 0.0585 -0.7495
vn -0.1929 0.9525 0.2354
vn 0.1341 0.1744 -0.9755
vn -0.9309 0.3653 -0.0061
vn -0.5971 -0.3702 -0.7116
vn -0.2608 -0.3730 -0.8904
vn -0.9543 0.2760 -0.1143
vn -0.0414 -0.9086 0.4155
vn -0.0414 -0.3488 -0.9363
vn 0.0241 0.9921 -0.1227
vn -0.0414 -0.4155 -0.9086
vn -0.0414 0.9363 -0.3488
vn 0.0241 0.1228 0.9921
vn 0.3569 0.3575 -0.8630
vn 0.2966 -0.8044 0.5147
vn -0.7822 0.6229 -0.0097
vn -0.8865 0.1781 -0.4271
vn 0.7601 -0.4376 -0.4804
vn 0.8867 -0.1782 0.4266
vn 0.7602 -0.0299 0.6490
vn -0.7744 -0.4397 -0.4549
vn 0.7602 -0.4800 -0.4378
vn 0.7602 0.6490 0.0299
vn 0.7603 0.4798 -0.4378
vn 0.4967 -0.8018 -0.3321
vn -0.7745 0.4545 0.4399
vn 0.7601 0.4376 0.4804
vn 0.4967 -0.3321 0.8018
vn -0.0754 0.7664 0.6380
vn 0.3579 0.5751 0.7356
vn -0.3301 0.8633 -0.3817
vn 0.0813 0.5244 -0.8476
vn -0.1035 0.5324 -0.8402
vn -0.7633 -0.2472 0.5969
vn -0.4613 -0.3962 0.7939
vn -0.7636 -0.2471 0.5966
vn -0.8420 0.2887 -0.4557
vn -0.5859 0.3103 -0.7487
vn -0.6864 -0.0657 -0.7243
vn 0.8963 -0.4245 0.1283
vn 0.0005 -0.8832 -0.4691
vn 0.0005 -0.2927 0.9562
vn -0.0011 0.9886 0.1507
vn 0.0005 -0.2928 -0.9562
vn -0.0011 0.9886 -0.1508
vn -0.0414 -0.9363 -0.3487
vn 0.0241 -0.1227 0.9921
vn -0.0414 0.4154 -0.9087
vn 0.0241 0.7884 0.6148
vn 0.8889 -0.1753 -0.4233
vn 0.0005 0.2927 -0.9562
vn -0.0011 -0.9886 -0.1507
vn 0.0005 0.9562 -0.2928
vn -0.0011 0.1508 0.9886
vn 0.3570 -0.3575 -0.8630
vn -0.7744 0.4397 0.4549
vn 0.3570 0.8630 -0.3575
vn 0.3569 -0.8630 -0.3575
vn -0.2257 -0.7793 0.5845
vn -0.6017 -0.6515 0.4621
vn -0.0442 -0.8447 -0.5333
vn 0.4717 -0.8533 -0.2223
vn 0.4456 0.6136 0.6519
vn 0.3569 0.3576 0.8630
vn 0.9040 -0.1635 -0.3949
vn 0.9880 -0.1411 -0.0626
vn -0.9486 0.2628 -0.1763
vn -0.3796 -0.3947 -0.8368
vn -0.0476 -0.3834 -0.9224
vn 0.3569 0.8630 0.3575
vn 0.3570 -0.8630 0.3575
vn 0.3580 -0.3573 0.8626
vn 0.0232 -0.4241 0.9053
vn -0.3207 0.7924 0.5189
vn 0.3600 0.5597 -0.7464
vn -0.9970 -0.0293 0.0715
vn -0.9131 -0.2296 0.3370
vn -0.3796 0.3947 -0.8368
vn -0.0475 0.3834 -0.9224
vn -0.1442 0.0601 -0.9877
vn 0.0005 0.2928 0.9562
vn -0.0011 -0.9886 0.1508
vn -0.4378 -0.3445 0.8304
vn 0.9210 -0.1529 0.3583
vn -0.4378 0.3445 0.8305
vn 0.9210 0.1529 0.3582
vt 0.000000 1.000000
vt 0.000000 0.500000
vt 0.125000 0.500000
vt 0.125000 1.000000
vt 0.990000 0.250000
vt 0.919706 0.419706
vt 0.919706 0.080294
vt 0.750000 0.010000
vt 0.580294 0.080294
vt 0.510000 0.250000
vt 0.580294 0.419706
vt 0.750000 0.490000
vt 0.250000 1.000000
vt 0.375000 1.000000
vt 0.875000 1.000000
vt 0.750000 1.000000
vt 0.625000 1.000000
vt 0.500000 1.000000
vt 1.000000 1.000000
vt 1.000000 0.500000
vt 0.875000 0.500000
vt 0.750000 0.500000
vt 0.625000 0.500000
vt 0.500000 0.500000
vt 0.250000 0.500000
vt 0.375000 0.500000
s 0
f 97/1/1 83/1/2 13/2/3
f 98/2/4 14/2/5 84/1/6
f 99/3/7 98/2/8 13/2/9
f 98/2/10 99/3/11 12/3/11
f 100/4/12 99/3/12 11/3/12
f 99/3/13 100/4/13 96/4/13
f 100/4/14 95/4/14 83/1/15
f 97/1/16 84/1/17 96/4/18
f 102/5/19 101/6/19 3/6/19
f 102/5/20 6/5/20 4/6/20
f 103/7/21 102/5/21 5/5/21
f 102/5/22 103/7/22 2/7/22
f 103/7/23 1/7/23 9/8/23
f 104/8/24 10/8/24 2/7/24
f 104/8/25 9/8/25 7/9/25
f 104/8/26 105/9/26 8/9/26
f 106/10/27 105/9/27 7/9/27
f 106/10/28 16/10/28 8/9/28
f 106/10/29 15/10/29 11/11/29
f 106/10/30 107/11/30 12/11/30
f 107/11/31 11/11/31 13/12/31
f 108/12/32 14/12/32 12/11/32
f 101/6/33 108/12/33 13/12/33
f 108/12/34 101/6/34 4/6/34
f 109/4/35 33/4/35 37/1/35
f 110/1/36 38/1/36 34/4/36
f 110/1/37 37/1/37 75/1/37
f 111/1/38 76/1/38 38/1/38
f 111/1/39 75/1/40 79/4/40
f 111/1/41 112/4/41 80/4/41
f 112/4/42 79/4/42 33/4/42
f 109/4/43 34/4/43 80/4/43
f 113/13/44 41/13/44 47/14/44
f 114/14/45 48/14/45 42/13/45
f 114/14/46 47/14/46 45/14/46
f 115/14/47 46/14/47 48/14/47
f 116/13/48 115/14/48 45/14/48
f 115/14/49 116/13/49 44/13/49
f 113/13/50 116/13/50 43/13/50
f 116/13/51 113/13/51 42/13/51
f 117/15/52 63/15/52 61/15/52
f 118/15/53 62/15/53 64/15/53
f 119/16/54 118/15/54 61/15/54
f 119/16/55 60/16/55 62/15/55
f 120/16/56 119/16/56 59/16/56
f 119/16/57 120/16/57 58/16/57
f 117/15/58 120/16/58 57/16/58
f 120/16/59 117/15/59 64/15/59
f 121/17/60 53/17/60 27/17/60
f 122/17/61 28/17/61 54/17/61
f 123/18/62 122/17/62 27/17/62
f 122/17/63 123/18/63 24/18/63
f 124/18/64 123/18/64 23/18/64
f 123/18/65 124/18/65 52/18/65
f 124/18/66 51/18/66 53/17/66
f 121/17/67 54/17/67 52/18/67
f 125/18/68 51/18/68 23/18/68
f 126/18/69 24/18/69 52/18/69
f 126/18/70 23/18/70 31/14/70
f 127/14/71 32/14/71 24/18/71
f 128/14/72 127/14/72 31/14/72
f 127/14/73 128/14/73 46/14/73
f 125/18/74 128/14/74 45/14/74
f 125/18/75 52/18/75 46/14/75
f 129/13/76 43/13/76 29/13/76
f 130/13/77 30/13/77 44/13/77
f 130/13/78 29/13/78 17/4/78
f 130/13/79 131/4/79 18/4/79
f 132/4/80 131/4/80 17/4/81
f 131/4/82 132/4/82 36/4/82
f 132/4/83 35/4/83 43/13/83
f 132/4/84 129/13/84 44/13/84
f 133/13/85 41/13/85 43/13/85
f 134/13/86 44/13/86 42/13/86
f 134/13/87 43/13/87 35/4/87
f 135/4/88 36/4/88 44/13/88
f 136/4/89 135/4/89 35/4/89
f 135/4/90 136/4/90 34/4/90
f 133/13/91 136/4/91 33/4/91
f 136/4/92 133/13/92 42/13/92
f 138/1/93 137/1/94 39/1/95
f 137/1/96 138/1/97 38/1/98
f 139/4/99 138/1/100 37/1/101
f 139/4/102 34/4/102 38/1/103
f 139/4/104 33/4/104 35/4/104
f 140/4/105 36/4/105 34/4/105
f 137/1/106 140/4/107 35/4/107
f 140/4/108 137/1/109 40/1/110
f 141/19/111 39/19/112 21/19/113
f 142/19/114 22/19/115 40/19/116
f 143/15/117 142/19/118 21/19/119
f 142/19/120 143/15/121 20/15/121
f 144/15/122 143/15/122 19/15/122
f 143/15/123 144/15/123 62/15/123
f 144/15/124 61/15/124 39/19/125
f 141/19/126 40/19/127 62/15/128
f 145/15/129 61/15/129 19/15/129
f 146/15/130 20/15/130 62/15/130
f 147/16/131 146/15/131 19/15/131
f 146/15/132 147/16/132 26/16/132
f 148/16/133 147/16/133 25/16/133
f 147/16/134 148/16/134 60/16/134
f 148/16/135 59/16/135 61/15/135
f 148/16/136 145/15/136 62/15/136
f 149/19/137 37/19/138 39/19/139
f 150/19/140 40/19/141 38/19/142
f 150/19/143 39/19/144 61/15/145
f 151/15/146 62/15/146 40/19/147
f 152/15/148 151/15/148 61/15/148
f 151/15/149 152/15/149 64/15/149
f 152/15/150 63/15/150 37/19/151
f 152/15/152 149/19/153 38/19/154
f 154/1/155 153/1/156 21/1/157
f 153/1/158 154/1/159 40/1/160
f 155/4/161 154/1/162 39/1/163
f 154/1/164 155/4/165 36/4/165
f 155/4/166 35/4/166 17/4/166
f 156/4/167 18/4/167 36/4/167
f 156/4/168 17/4/168 21/1/169
f 153/1/170 22/1/171 18/4/172
f 158/14/173 157/13/173 43/13/173
f 158/14/174 46/14/174 44/13/174
f 158/14/175 45/14/175 31/14/175
f 159/14/176 32/14/176 46/14/176
f 160/13/177 159/14/177 31/14/177
f 160/13/178 30/13/178 32/14/178
f 157/13/179 160/13/180 29/13/179
f 160/13/181 157/13/181 44/13/181
f 161/16/182 59/16/182 25/16/182
f 162/16/183 26/16/183 60/16/183
f 162/16/184 25/16/184 27/17/184
f 163/17/185 28/17/185 26/16/185
f 164/17/186 163/17/187 27/17/186
f 163/17/188 164/17/188 54/17/188
f 161/16/189 164/17/189 53/17/189
f 164/17/190 161/16/190 60/16/190
f 165/16/191 57/16/191 59/16/191
f 166/16/192 60/16/192 58/16/192
f 166/16/193 59/16/193 53/17/193
f 167/17/194 54/17/194 60/16/194
f 168/17/195 167/17/195 53/17/195
f 167/17/196 168/17/196 56/17/196
f 168/17/197 55/17/197 57/16/197
f 165/16/198 58/16/198 56/17/198
f 169/18/199 49/18/199 51/18/199
f 170/18/200 52/18/200 50/18/200
f 170/18/201 51/18/201 45/14/201
f 171/14/202 46/14/202 52/18/202
f 172/14/203 171/14/203 45/14/203
f 171/14/204 172/14/204 48/14/204
f 169/18/205 172/14/205 47/14/205
f 172/14/206 169/18/206 50/18/206
f 174/14/207 173/14/207 71/14/207
f 174/14/208 92/14/208 72/14/208
f 174/14/209 91/14/209 89/18/209
f 175/18/210 90/18/210 92/14/210
f 175/18/211 89/18/211 65/18/211
f 175/18/212 176/18/212 66/18/212
f 173/14/213 176/18/213 65/18/213
f 176/18/214 173/14/214 72/14/214
f 177/19/215 75/19/215 37/19/215
f 178/19/216 38/19/216 76/19/216
f 179/15/217 178/19/217 37/19/217
f 178/19/218 179/15/218 64/15/218
f 179/15/219 63/15/219 73/15/219
f 180/15/220 74/15/220 64/15/220
f 177/19/221 180/15/221 73/15/221
f 177/19/222 76/19/222 74/15/222
f 181/13/223 41/13/223 77/13/223
f 182/13/224 78/13/224 42/13/224
f 182/13/225 77/13/225 71/14/225
f 182/13/226 183/14/226 72/14/226
f 183/14/227 71/14/227 47/14/227
f 184/14/228 48/14/228 72/14/228
f 184/14/229 47/14/229 41/13/229
f 184/14/230 181/13/230 42/13/230
f 186/18/231 185/17/231 55/17/231
f 186/18/232 50/18/232 56/17/232
f 186/18/233 49/18/233 65/18/233
f 187/18/234 66/18/234 50/18/234
f 188/17/235 187/18/235 65/18/235
f 188/17/236 68/17/236 66/18/236
f 188/17/237 67/17/237 55/17/237
f 185/17/238 56/17/238 68/17/238
f 190/16/239 189/17/239 67/17/239
f 190/16/240 70/16/240 68/17/240
f 190/16/241 69/16/241 57/16/241
f 191/16/242 58/16/242 70/16/242
f 192/17/243 191/16/243 57/16/243
f 192/17/244 56/17/244 58/16/244
f 192/17/245 55/17/245 67/17/245
f 189/17/246 68/17/246 56/17/246
f 194/4/247 193/13/247 41/13/247
f 194/4/248 34/4/248 42/13/248
f 194/4/249 33/4/249 79/4/249
f 195/4/250 80/4/250 34/4/250
f 196/13/251 195/4/251 79/4/251
f 196/13/252 78/13/252 80/4/252
f 196/13/253 77/13/253 41/13/253
f 193/13/254 42/13/254 78/13/254
f 197/14/255 47/14/255 71/14/255
f 198/14/256 72/14/256 48/14/256
f 198/14/257 71/14/257 65/18/257
f 198/14/258 199/18/258 66/18/258
f 199/18/259 65/18/259 49/18/259
f 200/18/260 50/18/260 66/18/260
f 200/18/261 49/18/261 47/14/261
f 200/18/262 197/14/262 48/14/262
f 202/19/263 201/20/264 13/20/265
f 201/20/266 202/19/267 84/19/268
f 203/15/269 202/19/270 83/19/271
f 202/19/272 203/15/273 82/15/274
f 203/15/275 81/15/275 3/21/275
f 204/21/276 4/21/276 82/15/276
f 204/21/277 3/21/277 13/20/278
f 201/20/279 14/20/280 4/21/281
f 205/16/282 85/16/282 5/22/282
f 206/22/283 6/22/283 86/16/283
f 207/21/284 206/22/284 5/22/284
f 206/22/285 207/21/285 4/21/285
f 208/15/286 207/21/286 3/21/286
f 207/21/287 208/15/287 82/15/287
f 208/15/288 81/15/288 85/16/288
f 205/16/289 86/16/289 82/15/289
f 209/17/290 87/17/290 1/23/290
f 210/23/291 2/23/291 88/17/291
f 210/23/292 1/23/292 5/22/292
f 211/22/293 6/22/293 2/23/293
f 212/16/294 211/22/294 5/22/294
f 211/22/295 212/16/295 86/16/295
f 209/17/296 212/16/296 85/16/296
f 212/16/297 209/17/297 88/17/297
f 213/17/298 55/17/298 53/17/298
f 214/17/299 54/17/299 56/17/299
f 215/18/300 214/17/300 53/17/300
f 214/17/301 215/18/301 52/18/301
f 216/18/302 215/18/302 51/18/302
f 215/18/303 216/18/303 50/18/303
f 216/18/304 49/18/304 55/17/304
f 213/17/305 56/17/305 50/18/305
f 217/18/306 89/18/306 9/24/306
f 218/24/307 10/24/307 90/18/307
f 219/23/308 218/24/308 9/24/308
f 218/24/309 219/23/309 2/23/309
f 220/17/310 219/23/310 1/23/310
f 219/23/311 220/17/311 88/17/311
f 220/17/312 87/17/312 89/18/312
f 217/18/313 90/18/313 88/17/313
f 221/13/314 93/13/314 15/25/314
f 222/25/315 16/25/315 94/13/315
f 223/26/316 222/25/316 15/25/316
f 222/25/317 223/26/317 8/26/317
f 224/14/318 223/26/318 7/26/318
f 223/26/319 224/14/319 92/14/319
f 224/14/320 91/14/320 93/13/320
f 221/13/321 94/13/321 92/14/321
f 225/14/322 91/14/322 7/26/322
f 226/26/323 8/26/323 92/14/323
f 226/26/324 7/26/324 9/24/324
f 227/24/325 10/24/325 8/26/325
f 228/18/326 227/24/326 9/24/326
f 227/24/327 228/18/327 90/18/327
f 225/14/328 228/18/328 89/18/328
f 228/18/329 225/14/329 92/14/329
f 230/18/330 229/18/330 65/18/330
f 230/18/331 90/18/331 66/18/331
f 230/18/332 89/18/332 87/17/332
f 230/18/333 231/17/333 88/17/333
f 231/17/334 87/17/334 67/17/334
f 231/17/335 232/17/335 68/17/335
f 232/17/336 67/17/336 65/18/336
f 232/17/337 229/18/337 66/18/337
f 233/15/338 73/15/338 63/15/338
f 234/15/339 64/15/339 74/15/339
f 234/15/340 63/15/340 57/16/340
f 234/15/341 235/16/341 58/16/341
f 235/16/342 57/16/342 69/16/342
f 236/16/343 70/16/343 58/16/343
f 236/16/344 69/16/344 73/15/344
f 236/16/345 233/15/345 74/15/345
f 238/13/346 237/14/346 71/14/346
f 238/13/347 78/13/347 72/14/347
f 239/13/348 238/13/348 77/13/348
f 239/13/349 94/13/349 78/13/349
f 240/14/350 239/13/350 93/13/350
f 239/13/351 240/14/351 92/14/351
f 240/14/352 91/14/352 71/14/352
f 240/14/353 237/14/353 72/14/353
f 242/17/354 241/17/354 67/17/354
f 242/17/355 88/17/355 68/17/355
f 242/17/356 87/17/356 85/16/356
f 243/16/357 86/16/357 88/17/357
f 243/16/358 85/16/358 69/16/358
f 243/16/359 244/16/359 70/16/359
f 241/17/360 244/16/360 69/16/360
f 244/16/361 241/17/361 68/17/361
f 246/1/362 245/1/363 75/1/364
f 246/1/365 84/1/366 76/1/367
f 246/1/368 83/1/369 95/4/370
f 247/4/371 96/4/371 84/1/372
f 247/4/373 95/4/373 79/4/373
f 247/4/374 248/4/374 80/4/374
f 248/4/375 79/4/375 75/1/376
f 245/1/377 76/1/378 80/4/379
f 250/4/380 249/4/380 79/4/380
f 250/4/381 96/4/381 80/4/381
f 251/13/382 250/4/382 95/4/382
f 251/13/383 94/13/383 96/4/383
f 251/13/384 93/13/384 77/13/384
f 251/13/385 252/13/385 78/13/385
f 252/13/386 77/13/386 79/4/386
f 252/13/387 249/4/387 80/4/387
f 254/16/388 253/16/388 69/16/388
f 254/16/389 86/16/389 70/16/389
f 255/15/390 254/16/390 85/16/390
f 254/16/391 255/15/391 82/15/391
f 255/15/392 81/15/392 73/15/392
f 255/15/393 256/15/393 74/15/393
f 256/15/394 73/15/394 69/16/394
f 253/16/395 70/16/395 74/15/395
f 258/15/396 257/15/396 73/15/396
f 258/15/397 82/15/398 74/15/397
f 259/19/399 258/15/400 81/15/400
f 258/15/401 259/19/402 84/19/403
f 259/19/404 83/19/405 75/19/406
f 259/19/407 260/19/408 76/19/409
f 257/15/410 260/19/411 75/19/412
f 260/19/413 257/15/414 74/15/414
f 261/4/415 95/4/415 11/3/415
f 262/3/416 12/3/416 96/4/416
f 262/3/417 11/3/417 15/25/417
f 263/25/418 16/25/418 12/3/418
f 264/13/419 263/25/420 15/25/419
f 263/25/421 264/13/421 94/13/421
f 261/4/422 264/13/422 93/13/422
f 264/13/423 261/4/423 96/4/423
f 265/4/424 17/4/424 29/13/424
f 265/4/425 266/13/425 30/13/425
f 267/14/426 266/13/426 29/13/426
f 267/14/427 32/14/427 30/13/427
f 267/14/428 31/14/428 23/18/428
f 267/14/429 268/18/429 24/18/429
f 269/17/430 268/18/430 23/18/430
f 269/17/431 28/17/431 24/18/431
f 269/17/432 27/17/432 25/16/432
f 269/17/433 270/16/433 26/16/433
f 270/16/434 25/16/434 19/15/434
f 271/15/435 20/15/435 26/16/435
f 271/15/436 19/15/436 21/1/436
f 272/1/437 22/1/437 20/15/437
f 265/4/438 272/1/438 21/1/438
f 272/1/439 265/4/439 18/4/439
f 97/1/440 13/2/3 98/2/441
f 98/2/442 84/1/443 97/1/444
f 99/3/7 13/2/9 11/3/7
f 98/2/445 12/3/11 14/2/446
f 100/4/447 11/3/447 95/4/447
f 99/3/448 96/4/448 12/3/448
f 100/4/14 83/1/15 97/1/449
f 97/1/16 96/4/450 100/4/451
f 102/5/19 3/6/19 5/5/19
f 102/5/20 4/6/20 101/6/20
f 103/7/21 5/5/21 1/7/21
f 102/5/22 2/7/22 6/5/22
f 103/7/23 9/8/23 104/8/23
f 104/8/24 2/7/24 103/7/24
f 104/8/25 7/9/25 105/9/25
f 104/8/26 8/9/26 10/8/26
f 106/10/27 7/9/27 15/10/27
f 106/10/28 8/9/28 105/9/28
f 106/10/29 11/11/29 107/11/29
f 106/10/30 12/11/30 16/10/30
f 107/11/452 13/12/452 108/12/452
f 108/12/32 12/11/32 107/11/32
f 101/6/33 13/12/33 3/6/33
f 108/12/34 4/6/34 14/12/34
f 109/4/35 37/1/35 110/1/35
f 110/1/36 34/4/36 109/4/36
f 110/1/453 75/1/453 111/1/453
f 111/1/38 38/1/38 110/1/38
f 111/1/39 79/4/39 112/4/39
f 111/1/41 80/4/41 76/1/41
f 112/4/42 33/4/42 109/4/42
f 109/4/454 80/4/454 112/4/454
f 113/13/44 47/14/44 114/14/44
f 114/14/45 42/13/45 113/13/45
f 114/14/455 45/14/456 115/14/455
f 115/14/47 48/14/47 114/14/47
f 116/13/48 45/14/48 43/13/48
f 115/14/49 44/13/49 46/14/49
f 113/13/457 43/13/457 41/13/457
f 116/13/51 42/13/51 44/13/51
f 117/15/458 61/15/458 118/15/458
f 118/15/459 64/15/459 117/15/459
f 119/16/54 61/15/54 59/16/54
f 119/16/55 62/15/55 118/15/55
f 120/16/460 59/16/460 57/16/460
f 119/16/57 58/16/57 60/16/57
f 117/15/58 57/16/58 63/15/58
f 120/16/59 64/15/59 58/16/59
f 121/17/60 27/17/60 122/17/60
f 122/17/61 54/17/61 121/17/61
f 123/18/62 27/17/62 23/18/62
f 122/17/63 24/18/63 28/17/63
f 124/18/64 23/18/64 51/18/64
f 123/18/65 52/18/65 24/18/65
f 124/18/66 53/17/66 121/17/66
f 121/17/67 52/18/67 124/18/67
f 125/18/68 23/18/68 126/18/68
f 126/18/69 52/18/69 125/18/69
f 126/18/70 31/14/70 127/14/70
f 127/14/71 24/18/71 126/18/71
f 128/14/461 31/14/461 45/14/461
f 127/14/73 46/14/73 32/14/73
f 125/18/74 45/14/74 51/18/74
f 125/18/75 46/14/75 128/14/75
f 129/13/76 29/13/76 130/13/462
f 130/13/77 44/13/77 129/13/77
f 130/13/463 17/4/463 131/4/463
f 130/13/79 18/4/79 30/13/79
f 132/4/464 17/4/464 35/4/81
f 131/4/82 36/4/82 18/4/82
f 132/4/83 43/13/83 129/13/83
f 132/4/84 44/13/84 36/4/84
f 133/13/465 43/13/465 134/13/465
f 134/13/86 42/13/86 133/13/86
f 134/13/87 35/4/87 135/4/87
f 135/4/88 44/13/88 134/13/88
f 136/4/466 35/4/466 33/4/466
f 135/4/467 34/4/467 36/4/467
f 133/13/91 33/4/91 41/13/91
f 136/4/92 42/13/92 34/4/92
f 138/1/93 39/1/468 37/1/469
f 137/1/470 38/1/471 40/1/472
f 139/4/99 37/1/473 33/4/99
f 139/4/102 38/1/474 138/1/475
f 139/4/476 35/4/476 140/4/476
f 140/4/105 34/4/105 139/4/105
f 137/1/477 35/4/478 39/1/479
f 140/4/480 40/1/481 36/4/480
f 141/19/111 21/19/113 142/19/482
f 142/19/114 40/19/483 141/19/484
f 143/15/117 21/19/485 19/15/486
f 142/19/120 20/15/487 22/19/488
f 144/15/489 19/15/489 61/15/490
f 143/15/123 62/15/123 20/15/123
f 144/15/491 39/19/125 141/19/492
f 141/19/126 62/15/493 144/15/494
f 145/15/495 19/15/495 146/15/495
f 146/15/130 62/15/130 145/15/130
f 147/16/131 19/15/131 25/16/131
f 146/15/132 26/16/132 20/15/132
f 148/16/133 25/16/133 59/16/133
f 147/16/134 60/16/134 26/16/134
f 148/16/135 61/15/135 145/15/135
f 148/16/136 62/15/136 60/16/136
f 149/19/496 39/19/497 150/19/498
f 150/19/499 38/19/500 149/19/501
f 150/19/143 61/15/502 151/15/502
f 151/15/503 40/19/147 150/19/504
f 152/15/505 61/15/505 63/15/505
f 151/15/149 64/15/149 62/15/149
f 152/15/150 37/19/506 149/19/507
f 152/15/152 38/19/508 64/15/152
f 154/1/155 21/1/509 39/1/510
f 153/1/511 40/1/512 22/1/513
f 155/4/514 39/1/163 35/4/514
f 154/1/515 36/4/516 40/1/517
f 155/4/518 17/4/518 156/4/518
f 156/4/519 36/4/519 155/4/519
f 156/4/168 21/1/169 153/1/520
f 153/1/521 18/4/522 156/4/522
f 158/14/173 43/13/173 45/14/173
f 158/14/174 44/13/174 157/13/174
f 158/14/175 31/14/175 159/14/175
f 159/14/176 46/14/176 158/14/176
f 160/13/523 31/14/523 29/13/523
f 160/13/178 32/14/178 159/14/178
f 157/13/179 29/13/179 43/13/179
f 160/13/181 44/13/181 30/13/181
f 161/16/182 25/16/182 162/16/182
f 162/16/183 60/16/183 161/16/183
f 162/16/184 27/17/184 163/17/184
f 163/17/185 26/16/185 162/16/185
f 164/17/186 27/17/186 53/17/186
f 163/17/188 54/17/188 28/17/188
f 161/16/189 53/17/189 59/16/189
f 164/17/190 60/16/190 54/17/190
f 165/16/524 59/16/524 166/16/524
f 166/16/192 58/16/192 165/16/192
f 166/16/193 53/17/193 167/17/193
f 167/17/194 60/16/194 166/16/194
f 168/17/525 53/17/525 55/17/525
f 167/17/526 56/17/526 54/17/526
f 168/17/197 57/16/197 165/16/197
f 165/16/198 56/17/198 168/17/198
f 169/18/527 51/18/527 170/18/527
f 170/18/200 50/18/200 169/18/200
f 170/18/201 45/14/201 171/14/201
f 171/14/202 52/18/202 170/18/202
f 172/14/528 45/14/528 47/14/528
f 171/14/529 48/14/529 46/14/529
f 169/18/205 47/14/205 49/18/205
f 172/14/206 50/18/206 48/14/206
f 174/14/207 71/14/207 91/14/207
f 174/14/208 72/14/208 173/14/208
f 174/14/530 89/18/530 175/18/530
f 175/18/210 92/14/210 174/14/210
f 175/18/211 65/18/211 176/18/211
f 175/18/531 66/18/531 90/18/531
f 173/14/213 65/18/213 71/14/213
f 176/18/214 72/14/214 66/18/214
f 177/19/532 37/19/532 178/19/532
f 178/19/216 76/19/216 177/19/216
f 179/15/533 37/19/533 63/15/533
f 178/19/218 64/15/218 38/19/218
f 179/15/219 73/15/219 180/15/219
f 180/15/534 64/15/534 179/15/534
f 177/19/221 73/15/221 75/19/221
f 177/19/535 74/15/535 180/15/535
f 181/13/223 77/13/223 182/13/223
f 182/13/224 42/13/224 181/13/536
f 182/13/225 71/14/225 183/14/225
f 182/13/226 72/14/226 78/13/226
f 183/14/537 47/14/537 184/14/537
f 184/14/538 72/14/538 183/14/538
f 184/14/229 41/13/229 181/13/229
f 184/14/230 42/13/230 48/14/230
f 186/18/231 55/17/231 49/18/231
f 186/18/232 56/17/232 185/17/232
f 186/18/233 65/18/233 187/18/233
f 187/18/539 50/18/539 186/18/539
f 188/17/235 65/18/235 67/17/235
f 188/17/236 66/18/236 187/18/236
f 188/17/237 55/17/237 185/17/237
f 185/17/238 68/17/238 188/17/238
f 190/16/239 67/17/239 69/16/239
f 190/16/240 68/17/240 189/17/240
f 190/16/241 57/16/241 191/16/241
f 191/16/242 70/16/242 190/16/242
f 192/17/243 57/16/243 55/17/243
f 192/17/244 58/16/244 191/16/244
f 192/17/245 67/17/245 189/17/245
f 189/17/540 56/17/540 192/17/540
f 194/4/247 41/13/247 33/4/247
f 194/4/541 42/13/541 193/13/541
f 194/4/249 79/4/249 195/4/249
f 195/4/250 34/4/250 194/4/250
f 196/13/251 79/4/251 77/13/251
f 196/13/252 80/4/252 195/4/252
f 196/13/253 41/13/253 193/13/253
f 193/13/254 78/13/254 196/13/254
f 197/14/542 71/14/542 198/14/542
f 198/14/543 48/14/543 197/14/543
f 198/14/257 65/18/257 199/18/257
f 198/14/258 66/18/258 72/14/258
f 199/18/259 49/18/259 200/18/259
f 200/18/260 66/18/260 199/18/260
f 200/18/261 47/14/261 197/14/261
f 200/18/544 48/14/544 50/18/544
f 202/19/545 13/20/265 83/19/546
f 201/20/547 84/19/548 14/20/549
f 203/15/550 83/19/551 81/15/552
f 202/19/553 82/15/554 84/19/555
f 203/15/275 3/21/275 204/21/275
f 204/21/276 82/15/276 203/15/276
f 204/21/277 13/20/278 201/20/556
f 201/20/279 4/21/281 204/21/281
f 205/16/282 5/22/557 206/22/282
f 206/22/283 86/16/283 205/16/283
f 207/21/284 5/22/284 3/21/284
f 206/22/285 4/21/285 6/22/285
f 208/15/558 3/21/558 81/15/558
f 207/21/559 82/15/559 4/21/559
f 208/15/288 85/16/288 205/16/288
f 205/16/289 82/15/289 208/15/289
f 209/17/560 1/23/560 210/23/560
f 210/23/561 88/17/561 209/17/561
f 210/23/292 5/22/292 211/22/292
f 211/22/293 2/23/293 210/23/293
f 212/16/294 5/22/294 85/16/294
f 211/22/295 86/16/295 6/22/295
f 209/17/296 85/16/296 87/17/296
f 212/16/297 88/17/297 86/16/297
f 213/17/562 53/17/562 214/17/562
f 214/17/563 56/17/563 213/17/563
f 215/18/300 53/17/300 51/18/300
f 214/17/301 52/18/301 54/17/301
f 216/18/564 51/18/564 49/18/564
f 215/18/565 50/18/565 52/18/565
f 216/18/304 55/17/304 213/17/304
f 213/17/305 50/18/305 216/18/305
f 217/18/306 9/24/306 218/24/306
f 218/24/307 90/18/307 217/18/307
f 219/23/566 9/24/566 1/23/566
f 218/24/309 2/23/309 10/24/309
f 220/17/310 1/23/310 87/17/310
f 219/23/311 88/17/311 2/23/311
f 220/17/312 89/18/312 217/18/312
f 217/18/313 88/17/313 220/17/313
f 221/13/314 15/25/314 222/25/314
f 222/25/315 94/13/315 221/13/315
f 223/26/316 15/25/316 7/26/316
f 222/25/317 8/26/317 16/25/317
f 224/14/567 7/26/567 91/14/567
f 223/26/568 92/14/568 8/26/568
f 224/14/320 93/13/320 221/13/320
f 221/13/321 92/14/321 224/14/321
f 225/14/569 7/26/569 226/26/569
f 226/26/570 92/14/570 225/14/570
f 226/26/324 9/24/324 227/24/324
f 227/24/325 8/26/325 226/26/325
f 228/18/326 9/24/326 89/18/326
f 227/24/327 90/18/327 10/24/327
f 225/14/328 89/18/328 91/14/328
f 228/18/329 92/14/329 90/18/329
f 230/18/330 65/18/330 89/18/330
f 230/18/331 66/18/331 229/18/331
f 230/18/571 87/17/571 231/17/571
f 230/18/333 88/17/333 90/18/333
f 231/17/334 67/17/334 232/17/334
f 231/17/335 68/17/335 88/17/335
f 232/17/336 65/18/336 229/18/336
f 232/17/337 66/18/337 68/17/337
f 233/15/572 63/15/572 234/15/572
f 234/15/339 74/15/339 233/15/339
f 234/15/340 57/16/340 235/16/340
f 234/15/341 58/16/341 64/15/341
f 235/16/342 69/16/342 236/16/342
f 236/16/343 58/16/343 235/16/343
f 236/16/344 73/15/344 233/15/344
f 236/16/345 74/15/345 70/16/345
f 238/13/346 71/14/346 77/13/346
f 238/13/347 72/14/347 237/14/347
f 239/13/348 77/13/348 93/13/348
f 239/13/349 78/13/349 238/13/349
f 240/14/573 93/13/573 91/14/573
f 239/13/351 92/14/351 94/13/351
f 240/14/352 71/14/352 237/14/352
f 240/14/353 72/14/353 92/14/353
f 242/17/354 67/17/354 87/17/354
f 242/17/355 68/17/355 241/17/355
f 242/17/574 85/16/574 243/16/574
f 243/16/357 88/17/357 242/17/357
f 243/16/358 69/16/358 244/16/358
f 243/16/359 70/16/359 86/16/359
f 241/17/360 69/16/360 67/17/360
f 244/16/361 68/17/361 70/16/361
f 246/1/575 75/1/364 83/1/576
f 246/1/577 76/1/367 245/1/578
f 246/1/579 95/4/580 247/4/580
f 247/4/581 84/1/372 246/1/582
f 247/4/373 79/4/373 248/4/373
f 247/4/374 80/4/374 96/4/374
f 248/4/375 75/1/376 245/1/583
f 245/1/584 80/4/585 248/4/585
f 250/4/380 79/4/380 95/4/380
f 250/4/381 80/4/381 249/4/381
f 251/13/586 95/4/586 93/13/586
f 251/13/383 96/4/383 250/4/383
f 251/13/384 77/13/384 252/13/384
f 251/13/385 78/13/385 94/13/385
f 252/13/386 79/4/386 249/4/386
f 252/13/387 80/4/387 78/13/387
f 254/16/388 69/16/388 85/16/388
f 254/16/389 70/16/389 253/16/389
f 255/15/587 85/16/587 81/15/587
f 254/16/391 82/15/391 86/16/391
f 255/15/392 73/15/392 256/15/392
f 255/15/393 74/15/393 82/15/393
f 256/15/394 69/16/394 253/16/394
f 253/16/395 74/15/395 256/15/395
f 258/15/396 73/15/396 81/15/396
f 258/15/397 74/15/397 257/15/397
f 259/19/399 81/15/588 83/19/589
f 258/15/401 84/19/403 82/15/401
f 259/19/404 75/19/406 260/19/590
f 259/19/407 76/19/409 84/19/591
f 257/15/592 75/19/593 73/15/592
f 260/19/594 74/15/595 76/19/596
f 261/4/597 11/3/597 262/3/597
f 262/3/598 96/4/598 261/4/598
f 262/3/417 15/25/417 263/25/417
f 263/25/418 12/3/418 262/3/418
f 264/13/420 15/25/420 93/13/420
f 263/25/421 94/13/421 16/25/421
f 261/4/422 93/13/422 95/4/422
f 264/13/423 96/4/423 94/13/423
f 265/4/424 29/13/424 266/13/424
f 265/4/425 30/13/425 18/4/425
f 267/14/426 29/13/426 31/14/426
f 267/14/427 30/13/427 266/13/427
f 267/14/428 23/18/428 268/18/428
f 267/14/429 24/18/429 32/14/429
f 269/17/430 23/18/430 27/17/430
f 269/17/431 24/18/431 268/18/431
f 269/17/432 25/16/432 270/16/432
f 269/17/433 26/16/433 28/17/433
f 270/16/434 19/15/434 271/15/434
f 271/15/435 26/16/435 270/16/435
f 271/15/436 21/1/599 272/1/599
f 272/1/600 20/15/600 271/15/600
f 265/4/601 21/1/601 17/4/601
f 272/1/602 18/4/602 22/1/602
