# Blender 5.2.0 LTS
# www.blender.org
mtllib glass shotgun shell back.mtl
o RenderMesh_14781979814
v 0.068284 -0.054928 -0.054928
v 0.068284 -0.056342 -0.056342
v -0.029629 -0.054928 -0.054928
v -0.029142 -0.056300 -0.056300
v 0.068284 -0.000001 -0.077679
v 0.068284 -0.000001 -0.079679
v -0.029629 -0.000001 -0.077679
v -0.029143 -0.000001 -0.079619
v 0.068284 0.054927 -0.054928
v 0.068284 0.056341 -0.056342
v -0.029629 0.054927 -0.054928
v -0.029142 0.056299 -0.056300
v 0.068284 0.077679 -0.000000
v 0.068284 0.079679 0.000000
v -0.051505 -0.000001 -0.088612
v -0.051072 -0.000001 -0.090565
v -0.051505 -0.062659 -0.062658
v -0.051072 -0.064040 -0.064039
v -0.051505 0.062658 -0.062658
v -0.051072 0.064039 -0.064039
v -0.051505 -0.088613 0.000000
v -0.051072 -0.090566 0.000000
v -0.051505 0.088612 -0.000000
v -0.051072 0.090565 -0.000000
v -0.029629 0.077679 -0.000000
v -0.029142 0.079619 -0.000000
v 0.068284 0.054927 0.054927
v 0.068284 0.056341 0.056341
v -0.029629 0.054927 0.054927
v -0.029142 0.056299 0.056299
v -0.051505 0.062658 0.062658
v -0.051072 0.064039 0.064039
v 0.068284 -0.000001 0.077679
v 0.068284 -0.000001 0.079679
v -0.051505 -0.000001 0.088612
v -0.051072 -0.000001 0.090565
v -0.029629 -0.000001 0.077679
v -0.029142 -0.000001 0.079619
v 0.068284 -0.054928 0.054927
v 0.068284 -0.056342 0.056341
v -0.029629 -0.054928 0.054927
v -0.029142 -0.056300 0.056299
v -0.051505 -0.062659 0.062658
v -0.051072 -0.064040 0.064039
v 0.068284 -0.077680 0.000000
v 0.068284 -0.079680 0.000000
v -0.029629 -0.077680 0.000000
v -0.029142 -0.079620 0.000000
v -0.068284 -0.062659 -0.062658
v -0.069484 -0.063790 -0.063789
v -0.068284 -0.062659 0.062658
v -0.069484 -0.063790 0.063789
v -0.068284 -0.000001 -0.088612
v -0.069484 -0.000001 -0.090212
v -0.068284 -0.088613 0.000000
v -0.069484 -0.090213 0.000000
v -0.068284 -0.000001 0.088612
v -0.069484 -0.000001 0.090212
v -0.068284 0.062658 0.062658
v -0.069484 0.063789 0.063789
v -0.068284 0.062658 -0.062658
v -0.069484 0.063789 -0.063789
v -0.068284 0.088612 -0.000000
v -0.069484 0.090212 -0.000000
v -0.028386 0.055996 -0.054690
v -0.028386 0.078266 -0.000924
v 0.067284 0.078296 -0.000924
v 0.067284 0.056017 -0.054711
v -0.028386 0.000923 0.078266
v 0.067284 0.000923 0.078296
v 0.067284 0.054710 0.056017
v -0.028386 0.054689 0.055996
v -0.028386 -0.054690 0.055996
v 0.067284 -0.054711 0.056017
v 0.067284 -0.000925 0.078296
v -0.028386 -0.000925 0.078266
v -0.050381 0.000937 -0.088746
v -0.050381 0.062090 -0.063416
v -0.030294 0.054996 -0.056323
v -0.030294 0.000937 -0.078714
v -0.050381 0.000937 0.088746
v -0.030294 0.000937 0.078714
v -0.030294 0.054996 0.056322
v -0.050381 0.062090 0.063416
v -0.030294 -0.056323 -0.054997
v -0.030294 -0.078715 -0.000938
v -0.050381 -0.088747 -0.000938
v -0.050381 -0.063417 -0.062090
v -0.028386 -0.000925 -0.078266
v 0.067284 -0.000925 -0.078296
v 0.067284 -0.054711 -0.056018
v -0.028386 -0.054690 -0.055997
v -0.050381 -0.000939 0.088746
v -0.050381 -0.062091 0.063416
v -0.030294 -0.054997 0.056322
v -0.030294 -0.000939 0.078714
v -0.052289 0.062424 -0.063731
v -0.052289 0.000923 -0.089206
v -0.067884 0.000923 -0.089029
v -0.067884 0.062300 -0.063606
v -0.050381 -0.088747 0.000938
v -0.030294 -0.078715 0.000938
v -0.030294 -0.056323 0.054996
v -0.050381 -0.063417 0.062090
v -0.028386 0.054689 -0.055997
v 0.067284 0.054710 -0.056018
v 0.067284 0.000923 -0.078296
v -0.028386 0.000923 -0.078266
v -0.030294 -0.054997 -0.056323
v -0.050381 -0.062091 -0.063416
v -0.050381 -0.000939 -0.088746
v -0.030294 -0.000939 -0.078714
v -0.050381 0.088746 0.000938
v -0.050381 0.063416 0.062090
v -0.030294 0.056322 0.054996
v -0.030294 0.078714 0.000938
v -0.028386 0.078266 0.000924
v -0.028386 0.055996 0.054689
v 0.067284 0.056017 0.054710
v 0.067284 0.078296 0.000924
v -0.028386 -0.078267 0.000924
v 0.067284 -0.078297 0.000924
v 0.067284 -0.056018 0.054710
v -0.028386 -0.055997 0.054689
v -0.068884 -0.000001 -0.088330
v -0.068884 -0.062459 -0.062458
v -0.068884 -0.088331 0.000000
v -0.068884 -0.062459 0.062458
v -0.068884 -0.000001 0.088330
v -0.068884 0.062458 0.062458
v -0.068884 0.088330 -0.000000
v -0.068884 0.062458 -0.062458
v -0.067884 0.062300 0.063606
v -0.067884 0.000923 0.089029
v -0.052289 0.000923 0.089206
v -0.052289 0.062424 0.063731
v -0.067884 -0.000925 0.089029
v -0.067884 -0.062301 0.063606
v -0.052289 -0.062425 0.063731
v -0.052289 -0.000925 0.089206
v -0.052289 0.089206 -0.000924
v -0.052289 0.063731 -0.062424
v -0.067884 0.063606 -0.062300
v -0.067884 0.089029 -0.000924
v -0.052289 -0.000925 -0.089206
v -0.052289 -0.062425 -0.063731
v -0.067884 -0.062301 -0.063606
v -0.067884 -0.000925 -0.089029
v -0.067884 -0.063607 0.062300
v -0.067884 -0.089030 0.000924
v -0.052289 -0.089207 0.000924
v -0.052289 -0.063732 0.062424
v -0.067884 0.089029 0.000924
v -0.067884 0.063606 0.062300
v -0.052289 0.063731 0.062424
v -0.052289 0.089206 0.000924
v -0.052289 -0.063732 -0.062424
v -0.052289 -0.089207 -0.000924
v -0.067884 -0.089030 -0.000924
v -0.067884 -0.063607 -0.062300
v -0.050381 0.088746 -0.000938
v -0.030294 0.078714 -0.000938
v -0.030294 0.056322 -0.054997
v -0.050381 0.063416 -0.062090
v -0.028386 -0.055997 -0.054690
v 0.067284 -0.056018 -0.054711
v 0.067284 -0.078297 -0.000924
v -0.028386 -0.078267 -0.000924
vn -0.5847 0.7495 -0.3104
vn -0.7640 -0.5961 0.2469
vn -0.0001 0.8377 0.5461
vn 0.0003 -0.5598 0.8287
vn 0.6786 0.6786 -0.2811
vn 0.6786 -0.6786 0.2811
vn -0.0001 0.2062 -0.9785
vn 0.0003 -0.9818 -0.1901
vn -0.0001 -0.5461 0.8377
vn 0.0003 -0.8287 -0.5598
vn 0.6786 0.2811 0.6786
vn 0.6786 -0.2811 -0.6786
vn -0.0001 0.9785 0.2062
vn 0.0003 0.1901 -0.9818
vn -0.5847 0.3104 0.7495
vn -0.7640 -0.2469 -0.5961
vn -0.0001 -0.9785 0.2062
vn 0.0003 -0.1901 -0.9818
vn 0.6786 -0.2811 0.6786
vn 0.6786 0.2811 -0.6786
vn -0.0001 0.5461 0.8377
vn 0.0003 0.8286 -0.5598
vn -0.5847 -0.3105 0.7495
vn -0.7640 0.2469 -0.5961
vn -0.3946 0.3516 -0.8489
vn -0.8860 -0.1775 0.4285
vn 0.3717 0.9187 -0.1336
vn 0.3718 0.9187 -0.1336
vn -0.2586 0.2102 0.9428
vn 0.8925 0.1726 -0.4167
vn 0.3828 -0.3535 0.8535
vn 0.3717 -0.5551 -0.7441
vn 0.3718 -0.5551 -0.7441
vn -0.2587 -0.8153 0.5181
vn -0.2586 -0.8153 0.5181
vn 0.3717 -0.5552 0.7440
vn -0.2586 -0.8154 -0.5179
vn 0.8925 0.1726 0.4167
vn 0.3828 -0.3535 -0.8535
vn 0.3718 0.9187 0.1336
vn -0.2586 0.2103 -0.9428
vn -0.2586 0.2104 -0.9428
vn -0.3946 0.3516 0.8489
vn -0.8860 -0.1775 -0.4284
vn 0.8925 -0.4167 -0.1726
vn 0.3828 0.8535 0.3535
vn 0.3717 -0.7441 0.5551
vn 0.3718 -0.7441 0.5551
vn -0.2586 0.5180 0.8154
vn -0.2586 0.5179 0.8154
vn -0.3946 -0.8489 -0.3516
vn -0.8860 0.4284 0.1775
vn 0.3717 -0.1336 -0.9187
vn -0.2586 0.9428 -0.2104
vn -0.0001 0.5461 -0.8377
vn 0.0003 0.8287 0.5598
vn -0.0001 -0.9785 -0.2062
vn 0.0003 -0.1901 0.9818
vn -0.5847 -0.3104 -0.7495
vn -0.7640 0.2469 0.5961
vn -0.3946 -0.3516 0.8489
vn -0.8860 0.1775 -0.4284
vn 0.3718 -0.9187 0.1337
vn -0.2586 -0.2104 -0.9428
vn 0.8925 -0.1726 0.4167
vn 0.3828 0.3535 -0.8535
vn 0.3718 0.5550 0.7441
vn 0.3718 0.5551 0.7441
vn -0.2586 0.8154 -0.5180
vn 0.7549 0.2510 -0.6059
vn 0.5957 -0.3074 0.7421
vn -0.0048 -0.4808 -0.8768
vn 0.0091 -0.8095 0.5871
vn -0.8795 0.1821 -0.4397
vn -0.4194 -0.3474 0.8387
vn -0.0048 0.9599 -0.2801
vn 0.0091 0.1573 0.9875
vn 0.3718 -0.7441 -0.5551
vn 0.3717 -0.7441 -0.5551
vn -0.2586 0.5180 -0.8154
vn 0.8925 -0.4167 0.1726
vn 0.3828 0.8535 -0.3535
vn 0.3717 -0.1336 0.9187
vn -0.2586 0.9428 0.2102
vn -0.2587 0.9428 0.2101
vn -0.3946 -0.8489 0.3516
vn -0.8860 0.4284 -0.1775
vn -0.0001 0.9785 -0.2062
vn 0.0003 0.1901 0.9818
vn -0.0001 -0.5461 -0.8377
vn 0.0003 -0.8286 0.5598
vn -0.5847 0.3104 -0.7495
vn -0.7640 -0.2469 0.5961
vn 0.3717 -0.9187 -0.1336
vn -0.2585 -0.2105 0.9428
vn -0.3946 -0.3516 -0.8489
vn -0.8860 0.1775 0.4284
vn 0.3718 0.5551 -0.7441
vn -0.2586 0.8154 0.5180
vn 0.8925 -0.1726 -0.4167
vn 0.3828 0.3535 0.8535
vn -0.3946 0.8489 0.3516
vn -0.8860 -0.4284 -0.1775
vn 0.3718 0.1337 0.9186
vn 0.3718 0.1337 0.9187
vn 0.3718 0.1336 0.9187
vn -0.2586 -0.9428 0.2102
vn -0.2586 -0.9428 0.2103
vn 0.8925 0.4167 0.1726
vn 0.3828 -0.8535 -0.3535
vn 0.3718 0.7441 -0.5551
vn -0.2586 -0.5179 -0.8154
vn -0.2585 -0.5178 -0.8155
vn -0.5847 0.7495 0.3104
vn -0.7640 -0.5961 -0.2469
vn -0.0001 0.2062 0.9785
vn 0.0003 -0.9818 0.1901
vn 0.6786 0.6786 0.2811
vn 0.6786 -0.6786 -0.2811
vn -0.0001 0.8377 -0.5461
vn 0.0003 -0.5598 -0.8286
vn -0.0001 -0.8377 -0.5461
vn 0.0003 0.5598 -0.8287
vn -0.0001 -0.2062 0.9785
vn 0.0003 0.9818 0.1901
vn -0.5847 -0.7495 0.3104
vn -0.7640 0.5961 -0.2469
vn -0.3988 -0.3509 -0.8472
vn 0.9453 -0.1248 -0.3013
vn -0.3988 -0.8473 -0.3509
vn 0.9453 -0.3013 -0.1248
vn -0.3988 -0.8473 0.3509
vn 0.9453 -0.3013 0.1248
vn -0.3988 -0.3509 0.8472
vn 0.9453 -0.1248 0.3013
vn -0.3988 0.3509 0.8473
vn 0.9453 0.1248 0.3013
vn -0.3988 0.8472 0.3509
vn 0.9453 0.3013 0.1248
vn -0.3988 0.8473 -0.3509
vn 0.9453 0.3013 -0.1248
vn -0.3988 0.3509 -0.8472
vn 0.9453 0.1248 -0.3013
vn -0.8795 0.1821 0.4397
vn -0.4194 -0.3474 -0.8387
vn -0.0048 -0.4807 0.8769
vn 0.0091 -0.8095 -0.5871
vn 0.7549 0.2510 0.6059
vn 0.5957 -0.3074 -0.7421
vn -0.0048 0.9600 0.2801
vn 0.0091 0.1572 -0.9875
vn -0.8795 -0.1821 0.4397
vn -0.4194 0.3474 -0.8387
vn -0.0048 -0.9599 0.2801
vn 0.0091 -0.1572 -0.9875
vn 0.7549 -0.2510 0.6059
vn 0.5957 0.3074 -0.7421
vn -0.0048 0.4808 0.8768
vn 0.0091 0.8095 -0.5871
vn 0.7549 0.6059 -0.2510
vn 0.5957 -0.7421 0.3074
vn -0.0048 0.2801 -0.9600
vn 0.0091 -0.9875 -0.1572
vn -0.8795 0.4397 -0.1821
vn -0.4194 -0.8387 0.3474
vn -0.0048 0.8769 0.4807
vn 0.0091 -0.5871 0.8095
vn 0.7549 -0.2510 -0.6059
vn 0.5957 0.3074 0.7421
vn -0.0048 -0.9600 -0.2801
vn 0.0091 -0.1572 0.9875
vn -0.8795 -0.1821 -0.4397
vn -0.4194 0.3474 0.8387
vn -0.0048 0.4807 -0.8769
vn 0.0091 0.8095 0.5871
vn -0.8795 -0.4397 0.1821
vn -0.4194 0.8387 -0.3474
vn -0.0048 -0.8769 -0.4807
vn 0.0091 0.5871 -0.8095
vn 0.7549 -0.6059 0.2510
vn 0.5957 0.7421 -0.3074
vn -0.0048 -0.2801 0.9600
vn 0.0091 0.9875 0.1572
vn -0.8795 0.4397 0.1821
vn -0.4194 -0.8387 -0.3474
vn -0.0048 0.2801 0.9599
vn 0.0091 -0.9875 0.1572
vn 0.7549 0.6059 0.2510
vn 0.5957 -0.7421 -0.3074
vn -0.0048 0.8768 -0.4808
vn 0.0091 -0.5871 -0.8095
vn 0.7549 -0.6059 -0.2510
vn 0.5957 0.7421 0.3074
vn -0.0048 -0.8768 0.4808
vn 0.0091 0.5871 0.8095
vn -0.8795 -0.4397 -0.1821
vn -0.4194 0.8387 0.3474
vn -0.0048 -0.2801 -0.9599
vn 0.0091 0.9875 -0.1573
vn 0.3718 0.7441 0.5551
vn -0.2586 -0.5179 0.8154
vn -0.2586 -0.5178 0.8155
vn 0.8925 0.4167 -0.1726
vn 0.3828 -0.8535 0.3535
vn 0.3717 0.1336 -0.9187
vn -0.2586 -0.9428 -0.2105
vn -0.2586 -0.9428 -0.2104
vn -0.3946 0.8489 -0.3516
vn -0.8860 -0.4284 0.1775
vn -0.0001 -0.2062 -0.9785
vn 0.0003 0.9818 -0.1901
vn -0.0001 -0.8377 0.5461
vn 0.0003 0.5598 0.8286
vn -0.5847 -0.7495 -0.3104
vn -0.7640 0.5961 0.2469
vn 0.0003 -0.5598 0.8286
vn 0.0003 -0.8287 -0.5597
vn 0.0003 -0.8286 -0.5598
vn -0.5847 -0.3104 0.7495
vn -0.8860 -0.1775 0.4284
vn -0.2586 0.2101 0.9429
vn -0.2585 -0.8155 0.5178
vn -0.2585 -0.8155 0.5177
vn 0.3718 -0.5550 0.7441
vn 0.3718 -0.5551 0.7441
vn -0.2585 -0.8155 -0.5178
vn 0.3718 0.9186 0.1338
vn -0.2586 0.2102 -0.9428
vn 0.3718 -0.7441 0.5550
vn 0.3717 -0.1337 -0.9187
vn -0.2586 0.9428 -0.2105
vn 0.0003 0.8286 0.5598
vn 0.3717 -0.9187 0.1336
vn -0.2586 -0.2103 -0.9428
vn -0.2586 0.8154 -0.5179
vn -0.0048 -0.4807 -0.8769
vn -0.0048 0.9600 -0.2801
vn 0.0091 0.1572 0.9875
vn -0.2586 0.5179 -0.8154
vn 0.3718 -0.1337 0.9186
vn -0.2585 0.9428 0.2105
vn 0.0003 -0.8287 0.5598
vn 0.3718 -0.9187 -0.1336
vn 0.3718 -0.9187 -0.1337
vn -0.2586 -0.2103 0.9428
vn -0.8860 0.1775 0.4285
vn 0.3717 0.5551 -0.7441
vn -0.2586 0.8154 0.5179
vn -0.2586 -0.9428 0.2104
vn 0.3827 -0.8535 -0.3535
vn 0.3717 0.7440 -0.5552
vn -0.2586 -0.5180 -0.8153
vn 0.0003 -0.5598 -0.8287
vn 0.0003 0.5598 -0.8286
vn -0.3987 -0.3509 -0.8473
vn -0.3988 0.3509 0.8472
vn -0.3988 0.8473 0.3509
vn -0.3988 0.8472 -0.3509
vn -0.3988 0.3509 -0.8473
vn -0.0048 -0.4808 0.8768
vn 0.0091 0.1573 -0.9875
vn -0.0048 -0.9600 0.2801
vn -0.0048 0.4807 0.8769
vn -0.0048 0.2801 -0.9599
vn -0.8795 0.4398 -0.1821
vn -0.0048 0.8768 0.4808
vn -0.0048 -0.9599 -0.2801
vn -0.0048 0.4808 -0.8768
vn -0.8795 -0.4398 0.1821
vn -0.0048 -0.8768 -0.4808
vn -0.0048 -0.2801 0.9599
vn -0.0048 0.2801 0.9600
vn -0.0048 0.8769 -0.4807
vn -0.0048 -0.8769 0.4807
vn -0.0048 -0.2801 -0.9600
vn 0.0091 0.9875 -0.1572
vn -0.2586 -0.5181 0.8153
vn -0.2586 -0.5180 0.8154
vn 0.3717 0.1337 -0.9187
vn -0.2586 -0.9428 -0.2103
vn -0.2586 -0.9428 -0.2102
vn 0.0003 0.5598 0.8287
vn 0.0003 0.5597 0.8287
vt 0.000000 0.000000
s 0
f 66/1/1 65/1/1 11/1/1
f 65/1/2 66/1/2 26/1/2
f 66/1/3 25/1/3 13/1/3
f 67/1/4 14/1/4 26/1/4
f 68/1/5 67/1/5 13/1/5
f 68/1/6 10/1/6 14/1/6
f 65/1/7 68/1/7 9/1/7
f 68/1/8 65/1/8 12/1/8
f 69/1/9 37/1/9 33/1/9
f 70/1/10 34/1/10 38/1/10
f 71/1/11 70/1/11 33/1/11
f 71/1/12 28/1/12 34/1/12
f 72/1/13 71/1/13 27/1/13
f 71/1/14 72/1/14 30/1/14
f 72/1/15 29/1/15 37/1/15
f 69/1/16 38/1/16 30/1/16
f 73/1/17 41/1/17 39/1/17
f 74/1/18 40/1/18 42/1/18
f 74/1/19 39/1/19 33/1/19
f 75/1/20 34/1/20 40/1/20
f 76/1/21 75/1/21 33/1/21
f 75/1/22 76/1/22 38/1/22
f 76/1/23 37/1/23 41/1/23
f 76/1/24 73/1/24 42/1/24
f 78/1/25 77/1/25 15/1/25
f 78/1/26 20/1/26 16/1/26
f 79/1/27 78/1/28 19/1/27
f 78/1/29 79/1/29 12/1/29
f 80/1/30 79/1/30 11/1/30
f 79/1/31 80/1/31 8/1/31
f 80/1/32 7/1/33 15/1/32
f 77/1/34 16/1/35 8/1/34
f 82/1/36 81/1/36 35/1/36
f 81/1/37 82/1/37 38/1/37
f 82/1/38 37/1/38 29/1/38
f 83/1/39 30/1/39 38/1/39
f 83/1/40 29/1/40 31/1/40
f 84/1/41 32/1/41 30/1/42
f 81/1/43 84/1/43 31/1/43
f 81/1/44 36/1/44 32/1/44
f 86/1/45 85/1/45 3/1/45
f 85/1/46 86/1/46 48/1/46
f 86/1/47 47/1/48 21/1/47
f 87/1/49 22/1/49 48/1/50
f 87/1/51 21/1/51 17/1/51
f 87/1/52 88/1/52 18/1/52
f 85/1/53 88/1/53 17/1/53
f 88/1/54 85/1/54 4/1/54
f 89/1/55 7/1/55 5/1/55
f 90/1/56 6/1/56 8/1/56
f 91/1/12 90/1/12 5/1/12
f 91/1/11 2/1/11 6/1/11
f 92/1/57 91/1/57 1/1/57
f 91/1/58 92/1/58 4/1/58
f 92/1/59 3/1/59 7/1/59
f 92/1/60 89/1/60 8/1/60
f 94/1/61 93/1/61 35/1/61
f 93/1/62 94/1/62 44/1/62
f 95/1/63 94/1/63 43/1/63
f 94/1/64 95/1/64 42/1/64
f 96/1/65 95/1/65 41/1/65
f 96/1/66 38/1/66 42/1/66
f 96/1/67 37/1/67 35/1/68
f 93/1/69 36/1/69 38/1/69
f 97/1/70 19/1/70 15/1/70
f 97/1/71 98/1/71 16/1/71
f 98/1/72 15/1/72 53/1/72
f 99/1/73 54/1/73 16/1/73
f 100/1/74 99/1/74 53/1/74
f 100/1/75 62/1/75 54/1/75
f 97/1/76 100/1/76 61/1/76
f 100/1/77 97/1/77 20/1/77
f 102/1/78 101/1/79 21/1/78
f 101/1/80 102/1/80 48/1/80
f 103/1/81 102/1/81 47/1/81
f 103/1/82 42/1/82 48/1/82
f 103/1/83 41/1/83 43/1/83
f 104/1/84 44/1/85 42/1/85
f 101/1/86 104/1/86 43/1/86
f 104/1/87 101/1/87 22/1/87
f 105/1/88 11/1/88 9/1/88
f 106/1/89 10/1/89 12/1/89
f 106/1/20 9/1/20 5/1/20
f 106/1/19 107/1/19 6/1/19
f 108/1/90 107/1/90 5/1/90
f 107/1/91 108/1/91 8/1/91
f 105/1/92 108/1/92 7/1/92
f 105/1/93 12/1/93 8/1/93
f 109/1/94 3/1/94 17/1/94
f 110/1/95 18/1/95 4/1/95
f 111/1/96 110/1/96 17/1/96
f 110/1/97 111/1/97 16/1/97
f 112/1/98 111/1/98 15/1/98
f 111/1/99 112/1/99 8/1/99
f 112/1/100 7/1/100 3/1/100
f 112/1/101 109/1/101 4/1/101
f 113/1/102 23/1/102 31/1/102
f 113/1/103 114/1/103 32/1/103
f 115/1/104 114/1/105 31/1/106
f 114/1/107 115/1/107 30/1/108
f 116/1/109 115/1/109 29/1/109
f 115/1/110 116/1/110 26/1/110
f 116/1/111 25/1/111 23/1/111
f 113/1/112 24/1/113 26/1/112
f 117/1/114 25/1/114 29/1/114
f 117/1/115 118/1/115 30/1/115
f 118/1/116 29/1/116 27/1/116
f 119/1/117 28/1/117 30/1/117
f 120/1/118 119/1/118 27/1/118
f 119/1/119 120/1/119 14/1/119
f 117/1/120 120/1/120 13/1/120
f 120/1/121 117/1/121 26/1/121
f 121/1/122 47/1/122 45/1/122
f 122/1/123 46/1/123 48/1/123
f 123/1/6 122/1/6 45/1/6
f 122/1/5 123/1/5 40/1/5
f 124/1/124 123/1/124 39/1/124
f 123/1/125 124/1/125 42/1/125
f 124/1/126 41/1/126 47/1/126
f 121/1/127 48/1/127 42/1/127
f 126/1/128 125/1/128 53/1/128
f 126/1/129 50/1/129 54/1/129
f 126/1/130 49/1/130 55/1/130
f 126/1/131 127/1/131 56/1/131
f 128/1/132 127/1/132 55/1/132
f 128/1/133 52/1/133 56/1/133
f 129/1/134 128/1/134 51/1/134
f 128/1/135 129/1/135 58/1/135
f 129/1/136 57/1/136 59/1/136
f 129/1/137 130/1/137 60/1/137
f 131/1/138 130/1/138 59/1/138
f 130/1/139 131/1/139 64/1/139
f 131/1/140 63/1/140 61/1/140
f 132/1/141 62/1/141 64/1/141
f 125/1/142 132/1/142 61/1/142
f 125/1/143 54/1/143 62/1/143
f 134/1/144 133/1/144 59/1/144
f 134/1/145 58/1/145 60/1/145
f 135/1/146 134/1/146 57/1/146
f 134/1/147 135/1/147 36/1/147
f 136/1/148 135/1/148 35/1/148
f 135/1/149 136/1/149 32/1/149
f 136/1/150 31/1/150 59/1/150
f 133/1/151 60/1/151 32/1/151
f 138/1/152 137/1/152 57/1/152
f 138/1/153 52/1/153 58/1/153
f 139/1/154 138/1/154 51/1/154
f 138/1/155 139/1/155 44/1/155
f 140/1/156 139/1/156 43/1/156
f 139/1/157 140/1/157 36/1/157
f 140/1/158 35/1/158 57/1/158
f 137/1/159 58/1/159 36/1/159
f 142/1/160 141/1/160 23/1/160
f 142/1/161 20/1/161 24/1/161
f 142/1/162 19/1/162 61/1/162
f 143/1/163 62/1/163 20/1/163
f 143/1/164 61/1/164 63/1/164
f 143/1/165 144/1/165 64/1/165
f 141/1/166 144/1/166 63/1/166
f 144/1/167 141/1/167 24/1/167
f 146/1/168 145/1/168 15/1/168
f 146/1/169 18/1/169 16/1/169
f 146/1/170 17/1/170 49/1/170
f 147/1/171 50/1/171 18/1/171
f 147/1/172 49/1/172 53/1/172
f 147/1/173 148/1/173 54/1/173
f 145/1/174 148/1/174 53/1/174
f 148/1/175 145/1/175 16/1/175
f 149/1/176 51/1/176 55/1/176
f 150/1/177 56/1/177 52/1/177
f 151/1/178 150/1/178 55/1/178
f 150/1/179 151/1/179 22/1/179
f 152/1/180 151/1/180 21/1/180
f 152/1/181 44/1/181 22/1/181
f 152/1/182 43/1/182 51/1/182
f 149/1/183 52/1/183 44/1/183
f 153/1/184 63/1/184 59/1/184
f 154/1/185 60/1/185 64/1/185
f 155/1/186 154/1/186 59/1/186
f 154/1/187 155/1/187 32/1/187
f 155/1/188 31/1/188 23/1/188
f 155/1/189 156/1/189 24/1/189
f 156/1/190 23/1/190 63/1/190
f 153/1/191 64/1/191 24/1/191
f 157/1/192 17/1/192 21/1/192
f 157/1/193 158/1/193 22/1/193
f 158/1/194 21/1/194 55/1/194
f 159/1/195 56/1/195 22/1/195
f 159/1/196 55/1/196 49/1/196
f 159/1/197 160/1/197 50/1/197
f 157/1/198 160/1/198 49/1/198
f 160/1/199 157/1/199 18/1/199
f 162/1/200 161/1/200 23/1/200
f 161/1/201 162/1/201 26/1/202
f 163/1/203 162/1/203 25/1/203
f 163/1/204 12/1/204 26/1/204
f 163/1/205 11/1/205 19/1/205
f 164/1/206 20/1/207 12/1/206
f 161/1/208 164/1/208 19/1/208
f 164/1/209 161/1/209 24/1/209
f 165/1/210 3/1/210 1/1/210
f 166/1/211 2/1/211 4/1/211
f 167/1/119 166/1/119 1/1/119
f 167/1/118 46/1/118 2/1/118
f 168/1/212 167/1/212 45/1/212
f 167/1/213 168/1/213 48/1/213
f 168/1/214 47/1/214 3/1/214
f 165/1/215 4/1/215 48/1/215
f 66/1/1 11/1/1 25/1/1
f 65/1/2 26/1/2 12/1/2
f 66/1/3 13/1/3 67/1/3
f 67/1/216 26/1/216 66/1/216
f 68/1/5 13/1/5 9/1/5
f 68/1/6 14/1/6 67/1/6
f 65/1/7 9/1/7 11/1/7
f 68/1/8 12/1/8 10/1/8
f 69/1/9 33/1/9 70/1/9
f 70/1/217 38/1/217 69/1/218
f 71/1/11 33/1/11 27/1/11
f 71/1/12 34/1/12 70/1/12
f 72/1/13 27/1/13 29/1/13
f 71/1/14 30/1/14 28/1/14
f 72/1/15 37/1/15 69/1/15
f 69/1/16 30/1/16 72/1/16
f 73/1/17 39/1/17 74/1/17
f 74/1/18 42/1/18 73/1/18
f 74/1/19 33/1/19 75/1/19
f 75/1/20 40/1/20 74/1/20
f 76/1/21 33/1/21 37/1/21
f 75/1/22 38/1/22 34/1/22
f 76/1/219 41/1/219 73/1/219
f 76/1/24 42/1/24 38/1/24
f 78/1/25 15/1/25 19/1/25
f 78/1/220 16/1/220 77/1/220
f 79/1/27 19/1/27 11/1/27
f 78/1/29 12/1/29 20/1/221
f 80/1/30 11/1/30 7/1/30
f 79/1/31 8/1/31 12/1/31
f 80/1/33 15/1/32 77/1/32
f 77/1/222 8/1/223 80/1/222
f 82/1/224 35/1/225 37/1/225
f 81/1/226 38/1/226 36/1/226
f 82/1/38 29/1/38 83/1/38
f 83/1/39 38/1/39 82/1/39
f 83/1/227 31/1/227 84/1/227
f 84/1/228 30/1/228 83/1/228
f 81/1/43 31/1/43 35/1/43
f 81/1/44 32/1/44 84/1/44
f 86/1/45 3/1/45 47/1/45
f 85/1/46 48/1/46 4/1/46
f 86/1/229 21/1/229 87/1/229
f 87/1/50 48/1/50 86/1/50
f 87/1/51 17/1/51 88/1/51
f 87/1/52 18/1/52 22/1/52
f 85/1/230 17/1/230 3/1/230
f 88/1/231 4/1/231 18/1/231
f 89/1/55 5/1/55 90/1/55
f 90/1/232 8/1/232 89/1/232
f 91/1/12 5/1/12 1/1/12
f 91/1/11 6/1/11 90/1/11
f 92/1/57 1/1/57 3/1/57
f 91/1/58 4/1/58 2/1/58
f 92/1/59 7/1/59 89/1/59
f 92/1/60 8/1/60 4/1/60
f 94/1/61 35/1/61 43/1/61
f 93/1/62 44/1/62 36/1/62
f 95/1/233 43/1/233 41/1/233
f 94/1/234 42/1/234 44/1/234
f 96/1/65 41/1/65 37/1/65
f 96/1/66 42/1/66 95/1/66
f 96/1/68 35/1/68 93/1/68
f 93/1/69 38/1/235 96/1/235
f 97/1/70 15/1/70 98/1/70
f 97/1/71 16/1/71 20/1/71
f 98/1/236 53/1/236 99/1/236
f 99/1/73 16/1/73 98/1/73
f 100/1/74 53/1/74 61/1/74
f 100/1/75 54/1/75 99/1/75
f 97/1/237 61/1/237 19/1/237
f 100/1/238 20/1/238 62/1/238
f 102/1/79 21/1/79 47/1/79
f 101/1/80 48/1/239 22/1/239
f 103/1/81 47/1/81 41/1/81
f 103/1/82 48/1/82 102/1/82
f 103/1/240 43/1/240 104/1/240
f 104/1/241 42/1/241 103/1/241
f 101/1/86 43/1/86 21/1/86
f 104/1/87 22/1/87 44/1/87
f 105/1/88 9/1/88 106/1/88
f 106/1/89 12/1/89 105/1/89
f 106/1/20 5/1/20 107/1/20
f 106/1/19 6/1/19 10/1/19
f 108/1/90 5/1/90 7/1/90
f 107/1/242 8/1/242 6/1/242
f 105/1/92 7/1/92 11/1/92
f 105/1/93 8/1/93 108/1/93
f 109/1/243 17/1/243 110/1/244
f 110/1/245 4/1/245 109/1/245
f 111/1/96 17/1/96 15/1/96
f 110/1/246 16/1/246 18/1/246
f 112/1/247 15/1/247 7/1/247
f 111/1/248 8/1/248 16/1/248
f 112/1/100 3/1/100 109/1/100
f 112/1/101 4/1/101 8/1/101
f 113/1/102 31/1/102 114/1/102
f 113/1/103 32/1/103 24/1/103
f 115/1/106 31/1/106 29/1/106
f 114/1/249 30/1/108 32/1/249
f 116/1/109 29/1/109 25/1/109
f 115/1/250 26/1/250 30/1/250
f 116/1/251 23/1/251 113/1/251
f 113/1/252 26/1/252 116/1/252
f 117/1/114 29/1/114 118/1/114
f 117/1/115 30/1/115 26/1/115
f 118/1/116 27/1/116 119/1/116
f 119/1/117 30/1/117 118/1/117
f 120/1/118 27/1/118 13/1/118
f 119/1/119 14/1/119 28/1/119
f 117/1/120 13/1/120 25/1/120
f 120/1/253 26/1/253 14/1/253
f 121/1/122 45/1/122 122/1/122
f 122/1/254 48/1/254 121/1/254
f 123/1/6 45/1/6 39/1/6
f 122/1/5 40/1/5 46/1/5
f 124/1/124 39/1/124 41/1/124
f 123/1/125 42/1/125 40/1/125
f 124/1/126 47/1/126 121/1/126
f 121/1/127 42/1/127 124/1/127
f 126/1/255 53/1/255 49/1/255
f 126/1/129 54/1/129 125/1/129
f 126/1/130 55/1/130 127/1/130
f 126/1/131 56/1/131 50/1/131
f 128/1/132 55/1/132 51/1/132
f 128/1/133 56/1/133 127/1/133
f 129/1/134 51/1/134 57/1/134
f 128/1/135 58/1/135 52/1/135
f 129/1/256 59/1/256 130/1/256
f 129/1/137 60/1/137 58/1/137
f 131/1/257 59/1/257 63/1/257
f 130/1/139 64/1/139 60/1/139
f 131/1/258 61/1/258 132/1/258
f 132/1/141 64/1/141 131/1/141
f 125/1/259 61/1/259 53/1/259
f 125/1/143 62/1/143 132/1/143
f 134/1/144 59/1/144 57/1/144
f 134/1/145 60/1/145 133/1/145
f 135/1/260 57/1/260 35/1/260
f 134/1/147 36/1/147 58/1/147
f 136/1/148 35/1/148 31/1/148
f 135/1/149 32/1/149 36/1/149
f 136/1/150 59/1/150 133/1/150
f 133/1/151 32/1/261 136/1/261
f 138/1/152 57/1/152 51/1/152
f 138/1/153 58/1/153 137/1/153
f 139/1/262 51/1/262 43/1/262
f 138/1/155 44/1/155 52/1/155
f 140/1/156 43/1/156 35/1/156
f 139/1/157 36/1/157 44/1/157
f 140/1/263 57/1/263 137/1/263
f 137/1/159 36/1/159 140/1/159
f 142/1/160 23/1/160 19/1/160
f 142/1/161 24/1/161 141/1/161
f 142/1/264 61/1/264 143/1/264
f 143/1/163 20/1/163 142/1/163
f 143/1/265 63/1/265 144/1/265
f 143/1/165 64/1/165 62/1/165
f 141/1/266 63/1/266 23/1/266
f 144/1/167 24/1/167 64/1/167
f 146/1/168 15/1/168 17/1/168
f 146/1/169 16/1/169 145/1/169
f 146/1/267 49/1/267 147/1/267
f 147/1/171 18/1/171 146/1/171
f 147/1/172 53/1/172 148/1/172
f 147/1/173 54/1/173 50/1/173
f 145/1/268 53/1/268 15/1/268
f 148/1/175 16/1/175 54/1/175
f 149/1/269 55/1/269 150/1/269
f 150/1/177 52/1/177 149/1/177
f 151/1/270 55/1/270 21/1/270
f 150/1/179 22/1/179 56/1/179
f 152/1/180 21/1/180 43/1/180
f 152/1/181 22/1/181 151/1/181
f 152/1/271 51/1/271 149/1/271
f 149/1/183 44/1/183 152/1/183
f 153/1/184 59/1/184 154/1/184
f 154/1/185 64/1/185 153/1/185
f 155/1/272 59/1/272 31/1/272
f 154/1/187 32/1/187 60/1/187
f 155/1/188 23/1/188 156/1/188
f 155/1/189 24/1/189 32/1/189
f 156/1/273 63/1/273 153/1/273
f 153/1/191 24/1/191 156/1/191
f 157/1/192 21/1/192 158/1/192
f 157/1/193 22/1/193 18/1/193
f 158/1/274 55/1/274 159/1/274
f 159/1/195 22/1/195 158/1/195
f 159/1/196 49/1/196 160/1/196
f 159/1/197 50/1/197 56/1/197
f 157/1/275 49/1/275 17/1/275
f 160/1/276 18/1/276 50/1/276
f 162/1/200 23/1/200 25/1/200
f 161/1/277 26/1/278 24/1/278
f 163/1/203 25/1/203 11/1/203
f 163/1/204 26/1/204 162/1/204
f 163/1/279 19/1/279 164/1/279
f 164/1/280 12/1/280 163/1/281
f 161/1/208 19/1/208 23/1/208
f 164/1/209 24/1/209 20/1/209
f 165/1/210 1/1/210 166/1/210
f 166/1/211 4/1/211 165/1/211
f 167/1/119 1/1/119 45/1/119
f 167/1/118 2/1/118 166/1/118
f 168/1/212 45/1/212 47/1/212
f 167/1/282 48/1/283 46/1/283
f 168/1/214 3/1/214 165/1/214
f 165/1/215 48/1/215 168/1/215
