# Blender 5.2.0 LTS
# www.blender.org
mtllib glass jump pad frame.mtl
o frame
v 2.600000 0.169552 -2.248637
v 2.601434 0.170812 -2.249231
v 2.248637 -0.169552 -2.600000
v 2.249231 -0.170813 -2.601434
v 2.248637 0.169552 -2.600000
v 2.249231 0.170812 -2.601434
v 2.600000 -0.169552 -2.248637
v 2.601434 -0.170813 -2.249231
v 2.600000 -0.169552 2.248637
v 2.601434 -0.170812 2.249231
v 2.248637 0.169552 2.600000
v 2.249231 0.170813 2.601434
v 2.248637 -0.169552 2.600000
v 2.249231 -0.170812 2.601434
v 2.600000 0.169552 2.248637
v 2.601434 0.170813 2.249231
v -2.248637 -0.169552 2.600000
v -2.249231 -0.170812 2.601434
v -2.600000 0.169552 2.248637
v -2.601434 0.170813 2.249231
v -2.600000 -0.169552 2.248637
v -2.601434 -0.170812 2.249231
v -2.248637 0.169552 2.600000
v -2.249231 0.170813 2.601434
v -2.600000 0.169552 -2.248637
v -2.601434 0.170812 -2.249231
v -2.248637 0.169552 -2.600000
v -2.249231 0.170812 -2.601434
v -2.600000 -0.169552 -2.248637
v -2.601434 -0.170813 -2.249231
v -2.248637 -0.169552 -2.600000
v -2.249231 -0.170813 -2.601434
v 1.751097 0.169552 -1.431916
v 1.752534 0.170812 -1.432507
v 1.751097 -0.169552 -1.431916
v 1.752534 -0.170812 -1.432507
v 1.431916 0.169552 -1.751097
v 1.432507 0.170812 -1.752534
v 1.431916 -0.169552 -1.751097
v 1.432507 -0.170812 -1.752534
v 1.751097 -0.169552 1.431916
v 1.752534 -0.170812 1.432507
v 1.751097 0.169552 1.431916
v 1.752534 0.170812 1.432507
v 1.431916 -0.169552 1.751097
v 1.432507 -0.170812 1.752534
v 1.431916 0.169552 1.751097
v 1.432507 0.170812 1.752534
v -1.431916 -0.169552 1.751097
v -1.432507 -0.170812 1.752534
v -1.431916 0.169552 1.751097
v -1.432507 0.170812 1.752534
v -1.751097 -0.169552 1.431916
v -1.752534 -0.170812 1.432507
v -1.751097 0.169552 1.431916
v -1.752534 0.170812 1.432507
v -1.751097 0.169552 -1.431916
v -1.752534 0.170812 -1.432507
v -1.431916 0.169552 -1.751097
v -1.432507 0.170812 -1.752534
v -1.431916 -0.169552 -1.751097
v -1.432507 -0.170812 -1.752534
v -1.751097 -0.169552 -1.431916
v -1.752534 -0.170812 -1.432507
v 2.184001 -0.169552 -2.184001
v 2.183398 -0.171361 -2.183398
v 0.728000 -0.169552 -2.184001
v 0.728939 -0.170745 -2.182698
v 2.184001 -0.169552 -0.728001
v 2.182698 -0.170744 -0.728940
v -0.728000 -0.169552 -2.184001
v -0.728939 -0.170745 -2.182698
v 0.582400 -0.169552 -1.747201
v 0.583258 -0.171248 -1.747823
v -0.582400 -0.169552 -1.747201
v -0.583258 -0.171248 -1.747823
v -2.184001 -0.169552 -2.184001
v -2.183398 -0.171361 -2.183398
v 2.184001 -0.169552 0.728000
v 2.182698 -0.170744 0.728939
v 1.747201 -0.169552 -0.582401
v 1.747823 -0.171248 -0.583259
v 1.747201 -0.169552 0.582400
v 1.747823 -0.171248 0.583258
v 2.184001 -0.169552 2.184001
v 2.183398 -0.171361 2.183398
v -2.184001 -0.169552 -0.728000
v -2.182698 -0.170744 -0.728939
v 0.728000 -0.169552 2.184001
v 0.728939 -0.170744 2.182698
v -0.728000 -0.169552 2.184001
v -0.728939 -0.170744 2.182698
v -0.582400 -0.169552 1.747201
v -0.583258 -0.171248 1.747823
v 0.582400 -0.169552 1.747201
v 0.583258 -0.171248 1.747823
v -2.184001 -0.169552 2.184001
v -2.183398 -0.171361 2.183398
v -2.184001 -0.169552 0.728001
v -2.182698 -0.170744 0.728940
v -1.747201 -0.169552 0.582401
v -1.747823 -0.171248 0.583259
v -1.747201 -0.169552 -0.582400
v -1.747823 -0.171248 -0.583258
v -0.563499 0.169552 -0.875548
v -0.563044 0.171160 -0.874450
v -0.875548 0.169552 -0.563499
v -0.874450 0.171160 -0.563044
v -0.875548 0.169552 0.563499
v -0.874450 0.171160 0.563044
v 0.563499 0.169552 -0.875548
v 0.563044 0.171160 -0.874450
v 0.875548 0.169552 -0.563499
v 0.874450 0.171160 -0.563044
v 0.875548 0.169552 0.563499
v 0.874450 0.171160 0.563044
v -0.563499 0.169552 0.875548
v -0.563044 0.171160 0.874450
v 0.563499 0.169552 0.875548
v 0.563044 0.171160 0.874450
v 2.184001 0.169552 2.184001
v 2.183398 0.171361 2.183398
v 0.728000 0.169552 2.184001
v 0.728939 0.170745 2.182698
v 2.184001 0.169552 0.728001
v 2.182698 0.170744 0.728940
v -0.728000 0.169552 2.184001
v -0.728939 0.170745 2.182698
v 0.582400 0.169552 1.747201
v 0.583906 0.170289 1.748292
v -0.582400 0.169552 1.747201
v -0.583906 0.170289 1.748292
v -2.184001 0.169552 2.184001
v -2.183398 0.171361 2.183398
v 2.184001 0.169552 -0.728000
v 2.182698 0.170744 -0.728939
v 1.747201 0.169552 0.582401
v 1.748292 0.170289 0.583907
v 1.747201 0.169552 -0.582400
v 1.748292 0.170288 -0.583906
v 2.184001 0.169552 -2.184001
v 2.183398 0.171361 -2.183398
v -2.184001 0.169552 0.728000
v -2.182698 0.170744 0.728939
v 0.728000 0.169552 -2.184001
v 0.728939 0.170744 -2.182698
v -0.728000 0.169552 -2.184001
v -0.728939 0.170744 -2.182698
v -0.582400 0.169552 -1.747201
v -0.583906 0.170288 -1.748292
v 0.582400 0.169552 -1.747201
v 0.583906 0.170288 -1.748292
v -2.184001 0.169552 -2.184001
v -2.183398 0.171361 -2.183398
v -2.184001 0.169552 -0.728001
v -2.182698 0.170744 -0.728940
v -1.747201 0.169552 -0.582401
v -1.748292 0.170288 -0.583907
v -1.747201 0.169552 0.582400
v -1.748292 0.170289 0.583906
v 0.563499 0.030374 -0.875548
v 0.562734 0.030374 -0.873700
v -0.563499 0.030374 -0.875548
v -0.562734 0.030374 -0.873700
v -0.875548 0.030374 -0.563499
v -0.873700 0.030374 -0.562734
v -0.875548 0.030374 0.563499
v -0.873700 0.030374 0.562734
v 0.875548 0.030374 0.563499
v 0.873700 0.030374 0.562734
v 0.875548 0.030374 -0.563499
v 0.873700 0.030374 -0.562734
v 0.563499 0.030374 0.875548
v 0.562734 0.030374 0.873700
v -0.563499 0.030374 0.875548
v -0.562734 0.030374 0.873700
v 0.728153 0.169148 2.182401
v 0.728153 -0.169148 2.182401
v 0.583145 -0.169400 1.748460
v 0.583469 0.168920 1.748695
v -0.563979 0.169356 -0.874292
v -0.874292 0.169356 -0.563979
v -0.873917 0.031374 -0.563823
v -0.563823 0.031374 -0.873917
v 2.600010 -0.169182 2.249641
v 2.600010 0.169182 2.249641
v 2.249641 0.169182 2.600010
v 2.249641 -0.169182 2.600010
v -2.249641 -0.169182 2.600010
v -2.249641 0.169182 2.600010
v -2.600010 0.169182 2.249641
v -2.600010 -0.169182 2.249641
v -2.247934 -0.169182 2.600717
v 2.247934 -0.169182 2.600717
v 2.247934 0.169182 2.600717
v -2.247934 0.169182 2.600717
v 2.247934 -0.169182 -2.600717
v -2.247934 -0.169182 -2.600717
v -2.247934 0.169182 -2.600717
v 2.247934 0.169182 -2.600717
v 2.600010 0.169182 -2.249641
v 2.600010 -0.169182 -2.249641
v 2.249641 -0.169182 -2.600010
v 2.249641 0.169182 -2.600010
v -1.432919 0.169182 1.751108
v -1.751108 0.169182 1.432919
v -1.751108 -0.169182 1.432919
v -1.432919 -0.169182 1.751108
v 1.751108 0.169182 1.432919
v 1.432919 0.169182 1.751108
v 1.432919 -0.169182 1.751108
v 1.751108 -0.169182 1.432919
v -2.600717 0.169182 2.247934
v -2.600717 0.169182 -2.247934
v -2.600717 -0.169182 -2.247934
v -2.600717 -0.169182 2.247934
v -0.729469 -0.169148 2.183350
v -2.182699 -0.169456 2.183699
v -2.182699 0.169457 2.183699
v -0.729469 0.169148 2.183350
v 0.562116 0.031374 -0.874624
v 0.562272 0.169356 -0.874999
v -0.562272 0.169356 -0.874999
v -0.562116 0.031374 -0.874624
v -0.875002 0.170356 -0.564683
v -0.564683 0.170356 -0.875002
v -1.432214 0.170182 -1.750398
v -1.750398 0.170182 -1.432214
v 2.182699 0.169456 -2.183699
v 0.729469 0.169148 -2.183350
v 0.729469 -0.169148 -2.183350
v 2.182699 -0.169457 -2.183699
v -1.431799 -0.170182 1.750813
v -1.750813 -0.170182 1.431799
v -1.746512 -0.170400 0.582832
v -1.746512 -0.170400 -0.582831
v -1.750813 -0.170182 -1.431799
v -1.431799 -0.170182 -1.750813
v -0.582831 -0.170400 -1.746512
v 0.582831 -0.170400 -1.746512
v 1.431799 -0.170182 -1.750813
v 1.750813 -0.170182 -1.431799
v 1.746512 -0.170400 -0.582832
v 1.746512 -0.170400 0.582831
v 1.750813 -0.170182 1.431799
v 1.431799 -0.170182 1.750813
v 0.582831 -0.170400 1.746512
v -0.582831 -0.170400 1.746512
v -1.432919 -0.169182 -1.751108
v -1.751108 -0.169182 -1.432919
v -1.751108 0.169182 -1.432919
v -1.432919 0.169182 -1.751108
v 2.184897 -0.170457 -2.184897
v 2.249620 -0.170182 -2.598617
v 2.598617 -0.170182 -2.249620
v 2.249620 0.170182 -2.598617
v 2.184897 0.170456 -2.184897
v 2.598617 0.170182 -2.249620
v 2.249620 -0.170182 2.598617
v 2.184897 -0.170456 2.184897
v 2.598617 -0.170182 2.249620
v -0.582108 -0.170400 1.748512
v 0.582108 -0.170400 1.748512
v 0.727749 -0.170148 2.184350
v 2.182843 -0.170456 2.184699
v 2.247767 -0.170182 2.599717
v -2.247767 -0.170182 2.599717
v -2.182843 -0.170456 2.184699
v -0.727749 -0.170148 2.184350
v -2.598617 -0.170182 2.249620
v -2.184897 -0.170456 2.184897
v -2.249620 -0.170182 2.598617
v -2.598617 0.170182 -2.249620
v -2.184897 0.170456 -2.184897
v -2.249620 0.170182 -2.598617
v -2.184350 -0.170148 -0.727749
v -1.748512 -0.170400 -0.582108
v -1.748512 -0.170400 0.582109
v -2.184350 -0.170148 0.727750
v -2.184699 -0.170456 2.182843
v -2.599717 -0.170182 2.247767
v -2.599717 -0.170182 -2.247767
v -2.184699 -0.170457 -2.182843
v 1.432214 0.170182 -1.750398
v 0.564683 0.170356 -0.875002
v 0.875002 0.170356 -0.564683
v 1.750398 0.170182 -1.432214
v -1.432214 0.170182 1.750398
v -0.564683 0.170356 0.875002
v -0.875002 0.170356 0.564683
v -1.750398 0.170182 1.432214
v 1.750398 0.170182 1.432214
v 0.875002 0.170356 0.564683
v 0.564683 0.170356 0.875002
v 1.432214 0.170182 1.750398
v 2.184897 0.170457 2.184897
v 2.249620 0.170182 2.598617
v 2.598617 0.170182 2.249620
v -2.184897 0.170457 2.184897
v -2.598617 0.170182 2.249620
v -2.249620 0.170182 2.598617
v -2.184897 -0.170457 -2.184897
v -2.598617 -0.170182 -2.249620
v -2.249620 -0.170182 -2.598617
v 2.184350 -0.170148 0.727749
v 1.748512 -0.170400 0.582108
v 1.748512 -0.170400 -0.582109
v 2.184350 -0.170148 -0.727750
v 2.184699 -0.170457 -2.182843
v 2.599717 -0.170182 -2.247767
v 2.599717 -0.170182 2.247767
v 2.184699 -0.170456 2.182843
v -0.562855 0.170356 0.875999
v -1.429800 0.170182 1.750804
v -0.581763 0.169920 1.746740
v -0.727749 0.170148 2.184350
v -2.182843 0.170457 2.184699
v -2.247767 0.170182 2.599717
v 2.247767 0.170182 2.599717
v 2.182843 0.170457 2.184699
v 0.727749 0.170148 2.184350
v 0.581763 0.169920 1.746740
v 1.429800 0.170182 1.750804
v 0.562855 0.170356 0.875999
v 2.247767 -0.170182 -2.599717
v 2.182843 -0.170457 -2.184699
v 0.727749 -0.170148 -2.184350
v 0.582108 -0.170400 -1.748512
v -0.582108 -0.170400 -1.748512
v -0.727749 -0.170148 -2.184350
v -2.182843 -0.170457 -2.184699
v -2.247767 -0.170182 -2.599717
v 2.182401 -0.169148 0.728153
v 2.182401 0.169148 0.728154
v 1.748695 0.168920 0.583470
v 1.748460 -0.169400 0.583145
v 2.182401 0.169148 -0.728153
v 2.182401 -0.169148 -0.728154
v 1.748460 -0.169400 -0.583146
v 1.748695 0.168920 -0.583469
v -2.183350 -0.169148 0.729470
v -2.183350 0.169148 0.729469
v -2.183699 0.169457 2.182699
v -2.183699 -0.169456 2.182699
v -1.748695 0.168920 -0.583470
v -1.748460 -0.169400 -0.583145
v -2.182401 -0.169148 -0.728153
v -2.182401 0.169148 -0.728154
v 0.583469 0.168920 -1.748695
v 0.583145 -0.169400 -1.748460
v 0.728153 -0.169148 -2.182401
v 0.728153 0.169148 -2.182401
v -0.583145 -0.169400 -1.748460
v -0.583469 0.168920 -1.748695
v -0.728153 0.169148 -2.182401
v -0.728153 -0.169148 -2.182401
v -2.249641 0.169182 -2.600010
v -2.249641 -0.169182 -2.600010
v -2.600010 -0.169182 -2.249641
v -2.600010 0.169182 -2.249641
v -0.728153 -0.169148 2.182401
v -0.728153 0.169148 2.182401
v -0.583469 0.168920 1.748695
v -0.583145 -0.169400 1.748460
v 2.600717 0.169182 -2.247934
v 2.600717 0.169182 2.247934
v 2.600717 -0.169182 2.247934
v 2.600717 -0.169182 -2.247934
v 1.751108 -0.169182 -1.432919
v 1.432919 -0.169182 -1.751108
v 1.432919 0.169182 -1.751108
v 1.751108 0.169182 -1.432919
v 0.874624 0.031374 0.562116
v 0.874999 0.169356 0.562272
v 0.874999 0.169356 -0.562272
v 0.874624 0.031374 -0.562116
v -0.563823 0.031374 0.873917
v -0.873917 0.031374 0.563823
v -0.874292 0.169356 0.563979
v -0.563979 0.169356 0.874292
v 0.874292 0.169356 -0.563979
v 0.563979 0.169356 -0.874292
v 0.563823 0.031374 -0.873917
v 0.873917 0.031374 -0.563823
v 0.873917 0.031374 0.563823
v 0.563823 0.031374 0.873917
v 0.563979 0.169356 0.874292
v 0.874292 0.169356 0.563979
v -1.748460 -0.169400 0.583146
v -1.748695 0.168920 0.583469
v -2.182401 0.169148 0.728153
v -2.182401 -0.169148 0.728154
v -2.183699 -0.169457 -2.182699
v -2.183699 0.169456 -2.182699
v -2.183350 0.169148 -0.729470
v -2.183350 -0.169148 -0.729469
v 2.183699 0.169456 -2.182699
v 2.183699 -0.169457 -2.182699
v 2.183350 -0.169148 -0.729470
v 2.183350 0.169148 -0.729469
v -0.562272 0.169356 0.874999
v 0.562272 0.169356 0.874999
v 0.562116 0.031374 0.874624
v -0.562116 0.031374 0.874624
v 2.183350 0.169148 0.729470
v 2.183350 -0.169148 0.729469
v 2.183699 -0.169456 2.182699
v 2.183699 0.169457 2.182699
v -0.874999 0.169356 0.562272
v -0.874624 0.031374 0.562116
v -0.874624 0.031374 -0.562116
v -0.874999 0.169356 -0.562272
v -0.729469 0.169148 -2.183350
v -2.182699 0.169456 -2.183699
v -2.182699 -0.169457 -2.183699
v -0.729469 -0.169148 -2.183350
v 2.182699 -0.169456 2.183699
v 0.729469 -0.169148 2.183350
v 0.729469 0.169148 2.183350
v 2.182699 0.169457 2.183699
v 0.875999 0.170356 0.562855
v 1.750804 0.170182 1.429800
v 1.746740 0.169920 0.581764
v 2.184350 0.170148 0.727750
v 2.184699 0.170457 2.182843
v 2.599717 0.170182 2.247767
v 2.599717 0.170182 -2.247767
v 2.184699 0.170456 -2.182843
v 2.184350 0.170148 -0.727749
v 1.746740 0.169920 -0.581763
v 1.750804 0.170182 -1.429800
v 0.875999 0.170356 -0.562855
v -0.562855 0.170356 -0.875999
v 0.562855 0.170356 -0.875999
v 1.429800 0.170182 -1.750804
v 0.581763 0.169920 -1.746740
v 0.727749 0.170148 -2.184350
v 2.182843 0.170456 -2.184699
v 2.247767 0.170182 -2.599717
v -2.247767 0.170182 -2.599717
v -2.182843 0.170456 -2.184699
v -0.727749 0.170148 -2.184350
v -0.581763 0.169920 -1.746740
v -1.429800 0.170182 -1.750804
v -0.875999 0.170356 0.562855
v -0.875999 0.170356 -0.562855
v -1.750804 0.170182 -1.429800
v -1.746740 0.169920 -0.581764
v -2.184350 0.170148 -0.727750
v -2.184699 0.170456 -2.182843
v -2.599717 0.170182 -2.247767
v -2.599717 0.170182 2.247767
v -2.184699 0.170457 2.182843
v -2.184350 0.170148 0.727749
v -1.746740 0.169920 0.581763
v -1.750804 0.170182 1.429800
v -1.431212 -0.169182 1.751811
v -0.583829 -0.169400 1.747516
v -0.584153 0.168920 1.747751
v -1.431211 0.169182 1.751811
v -1.751811 0.169182 1.431211
v -1.747751 0.168920 0.584153
v -1.747516 -0.169400 0.583830
v -1.751811 -0.169182 1.431212
v -1.751811 -0.169182 -1.431212
v -1.747516 -0.169400 -0.583829
v -1.747751 0.168920 -0.584154
v -1.751811 0.169182 -1.431211
v -1.431211 0.169182 -1.751811
v -0.584153 0.168920 -1.747751
v -0.583829 -0.169400 -1.747516
v -1.431212 -0.169182 -1.751811
v 1.431212 -0.169182 -1.751811
v 0.583829 -0.169400 -1.747516
v 0.584153 0.168920 -1.747751
v 1.431211 0.169182 -1.751811
v 1.751811 -0.169182 -1.431212
v 1.751811 0.169182 -1.431211
v 1.747751 0.168920 -0.584153
v 1.747516 -0.169400 -0.583830
v 1.751811 0.169182 1.431211
v 1.751811 -0.169182 1.431212
v 1.747516 -0.169400 0.583829
v 1.747751 0.168920 0.584154
v 1.431211 0.169182 1.751811
v 0.584153 0.168920 1.747751
v 0.583829 -0.169400 1.747516
v 1.431212 -0.169182 1.751811
vn 0.1064 -0.7025 0.7037
vn 0.2253 0.6957 0.6821
vn 0.4703 0.5919 -0.6545
vn -0.2329 0.9204 0.3141
vn -0.3562 -0.7639 -0.5382
vn 0.4747 -0.5841 -0.6584
vn -0.2836 0.9510 -0.1235
vn -0.1853 0.7368 -0.6502
vn 0.3219 -0.8215 0.4708
vn -0.3004 -0.9297 -0.2133
vn 0.5453 0.7315 0.4094
vn -0.2999 -0.8947 0.3310
vn -0.6603 0.7113 0.2409
vn 0.2408 0.7114 -0.6603
vn 0.1954 0.7633 0.6158
vn -0.4446 -0.8545 -0.2686
vn -0.3815 -0.7312 0.5655
vn 0.6158 0.7633 0.1954
vn -0.8239 -0.4524 -0.3413
vn 0.8415 -0.4129 0.3485
vn 0.3486 -0.4129 0.8415
vn 0.5656 -0.7311 -0.3815
vn -0.3413 -0.4524 -0.8239
vn -0.2686 -0.8545 -0.4446
vn 0.1358 0.6895 -0.7115
vn 0.1360 -0.6894 -0.7115
vn 0.6762 -0.6739 0.2979
vn -0.7565 -0.6014 -0.2572
vn -0.7115 0.6895 0.1359
vn 0.6762 0.6738 0.2979
vn -0.2571 -0.6014 -0.7565
vn -0.7114 -0.6895 0.1360
vn 0.2978 0.6738 0.6762
vn -0.2571 0.6013 -0.7565
vn 0.2978 -0.6738 0.6762
vn -0.7564 0.6014 -0.2573
vn 0.7114 0.6895 0.1360
vn 0.7115 -0.6895 0.1359
vn -0.2978 -0.6738 0.6762
vn 0.2571 -0.6013 -0.7565
vn -0.1360 0.6894 -0.7115
vn -0.2978 0.6738 0.6762
vn 0.7564 -0.6014 -0.2573
vn -0.1358 -0.6895 -0.7115
vn -0.6762 0.6739 0.2979
vn 0.7565 0.6014 -0.2572
vn -0.6762 -0.6738 0.2979
vn 0.2571 0.6014 -0.7565
vn 0.5992 -0.6894 -0.4070
vn -0.5993 -0.6895 -0.4069
vn 0.5993 0.6895 -0.4069
vn -0.5992 0.6894 -0.4070
vn -0.5992 -0.6894 0.4070
vn 0.5993 -0.6895 0.4069
vn 0.2978 -0.6738 -0.6762
vn 0.2571 0.6013 0.7565
vn -0.5993 0.6895 0.4069
vn -0.2978 -0.6738 -0.6762
vn 0.2571 -0.6014 0.7564
vn 0.5992 0.6894 0.4070
vn -0.2978 0.6738 -0.6762
vn -0.2571 -0.6013 0.7565
vn 0.2978 0.6738 -0.6762
vn -0.2571 0.6014 0.7564
vn 0.1358 -0.6895 0.7115
vn 0.1360 0.6894 0.7115
vn 0.6762 0.6739 -0.2979
vn -0.7565 0.6014 0.2572
vn -0.7115 -0.6895 -0.1359
vn 0.6762 -0.6738 -0.2979
vn -0.7114 0.6895 -0.1360
vn -0.7564 -0.6014 0.2573
vn -0.1357 0.6892 -0.7118
vn 0.7118 0.6891 0.1357
vn -0.2521 0.6511 0.7159
vn 0.7078 -0.6118 -0.3532
vn -0.1358 -0.6892 -0.7117
vn -0.7159 0.6512 0.2520
vn 0.6741 0.6791 -0.2905
vn -0.8077 -0.4815 0.3402
vn -0.3403 -0.4814 0.8077
vn 0.7116 -0.6893 0.1359
vn 0.2905 0.6792 -0.6741
vn 0.3532 -0.6118 -0.7078
vn 0.1357 0.6892 -0.7118
vn 0.7159 0.6511 0.2521
vn 0.2522 0.6511 0.7158
vn -0.7116 0.6893 0.1358
vn -0.3531 -0.6118 -0.7078
vn -0.7078 -0.6118 -0.3532
vn -0.7119 -0.6891 0.1356
vn -0.2905 0.6791 -0.6741
vn 0.3401 -0.4815 0.8077
vn 0.8077 -0.4815 0.3403
vn 0.1359 -0.6892 -0.7117
vn -0.6741 0.6791 -0.2905
vn 0.4069 0.6894 -0.5993
vn 0.4069 0.6895 0.5991
vn 0.7565 -0.6014 0.2572
vn 0.4069 -0.6895 -0.5991
vn -0.6762 0.6738 -0.2979
vn 0.7564 0.6014 0.2573
vn 0.4069 -0.6894 0.5993
vn -0.6762 -0.6739 -0.2979
vn -0.3962 -0.8316 0.3892
vn 0.6933 -0.7059 0.1452
vn -0.4747 -0.5841 -0.6584
vn -0.2710 0.9236 0.2711
vn 0.2329 0.9204 0.3141
vn -0.3959 0.8317 0.3893
vn 0.3230 -0.8895 -0.3231
vn -0.2710 -0.9236 0.2711
vn 0.3233 0.8894 -0.3232
vn -0.4703 0.5919 -0.6546
vn 0.6934 0.7058 0.1452
vn 0.2999 -0.8947 0.3309
vn 0.6696 -0.7312 0.1301
vn -0.3486 -0.4129 0.8415
vn -0.1954 0.7633 0.6158
vn 0.6372 0.7113 -0.2966
vn 0.2686 -0.8545 -0.4446
vn 0.3413 -0.4524 -0.8239
vn -0.6372 0.7113 -0.2966
vn -0.6696 -0.7312 0.1301
vn 0.0947 -0.2671 0.9590
vn 0.9590 -0.2671 0.0948
vn -0.2522 0.6511 -0.7158
vn -0.0675 -0.3849 -0.9205
vn 0.3532 -0.6118 0.7078
vn -0.9204 -0.3850 -0.0675
vn 0.7078 -0.6118 0.3532
vn -0.7159 0.6511 -0.2520
vn 0.3959 0.8317 -0.3893
vn -0.3233 0.8894 0.3232
vn 0.4703 0.5919 0.6546
vn -0.6934 0.7058 -0.1452
vn -0.2999 -0.8947 -0.3309
vn -0.6933 -0.7059 -0.1452
vn -0.2329 0.9204 -0.3141
vn 0.3962 -0.8316 -0.3892
vn 0.4747 -0.5841 0.6584
vn 0.2710 0.9236 -0.2711
vn -0.3230 -0.8895 0.3231
vn 0.2710 -0.9236 -0.2711
vn -0.3427 0.4114 0.8446
vn -0.8446 0.4114 0.3427
vn -0.9776 0.2105 -0.0026
vn 0.1235 0.9510 -0.2836
vn -0.9776 0.2105 0.0026
vn -0.4707 -0.8215 0.3219
vn 0.1234 0.9510 0.2836
vn -0.4707 -0.8215 -0.3219
vn -0.8077 -0.4815 -0.3402
vn -0.8446 0.4114 -0.3427
vn 0.6741 0.6791 0.2905
vn -0.3427 0.4114 -0.8446
vn 0.2905 0.6791 0.6741
vn 0.0026 0.2106 -0.9776
vn -0.3402 -0.4815 -0.8077
vn 0.2836 0.9510 0.1235
vn -0.0026 0.2106 -0.9776
vn -0.3219 -0.8215 -0.4708
vn -0.2836 0.9510 0.1235
vn 0.3219 -0.8214 -0.4708
vn 0.3403 -0.4814 -0.8077
vn 0.3427 0.4114 -0.8446
vn -0.2905 0.6792 0.6741
vn 0.8077 -0.4815 -0.3402
vn 0.8446 0.4114 -0.3427
vn -0.6741 0.6791 0.2905
vn 0.9776 0.2105 0.0026
vn -0.1235 0.9510 0.2836
vn 0.9776 0.2105 -0.0026
vn 0.4707 -0.8215 -0.3219
vn -0.1234 0.9510 -0.2836
vn 0.4707 -0.8215 0.3219
vn 0.8446 0.4114 0.3427
vn 0.3427 0.4114 0.8446
vn -0.0026 0.2106 0.9776
vn 0.0026 0.2106 0.9776
vn 0.2836 0.9510 -0.1235
vn -0.3219 -0.8214 0.4708
vn 0.7119 -0.6891 -0.1356
vn -0.1359 -0.6892 0.7117
vn -0.1357 0.6892 0.7118
vn 0.7116 0.6893 -0.1358
vn -0.2030 0.4822 -0.8522
vn -0.7045 0.0846 0.7046
vn 0.8525 0.4817 0.2032
vn -0.2031 -0.4821 -0.8523
vn -0.7046 -0.0846 0.7046
vn 0.8525 -0.4817 0.2033
vn -0.2031 0.4821 0.8523
vn -0.3233 -0.8894 -0.3232
vn -0.7046 0.0846 -0.7046
vn 0.2710 0.9236 0.2711
vn 0.8525 0.4817 -0.2033
vn 0.5729 0.0479 -0.8182
vn -0.5729 0.0479 -0.8182
vn 0.5736 0.1418 -0.8068
vn 0.6171 0.1643 -0.7696
vn 0.6687 0.3732 0.6431
vn -0.6687 0.3732 0.6430
vn -0.6170 0.1643 -0.7696
vn -0.5736 0.1418 -0.8068
vn -0.8525 0.4817 -0.2032
vn 0.7046 0.0846 -0.7046
vn 0.2030 0.4822 0.8522
vn -0.8525 -0.4817 0.2032
vn 0.3230 0.8895 0.3231
vn 0.7046 -0.0846 0.7046
vn -0.2710 -0.9236 -0.2711
vn 0.2030 -0.4822 -0.8522
vn 0.8182 0.0480 -0.5729
vn 0.8067 0.1415 -0.5738
vn 0.6582 -0.5844 -0.4746
vn -0.3141 0.9204 0.2329
vn 0.8183 0.0479 0.5729
vn 0.6583 -0.5842 0.4746
vn 0.8068 0.1416 0.5737
vn -0.3141 0.9204 -0.2329
vn 0.7696 0.1642 0.6170
vn -0.6430 0.3733 0.6688
vn -0.6430 0.3733 -0.6687
vn 0.3233 -0.8894 0.3232
vn 0.7696 0.1642 -0.6170
vn -0.2710 0.9236 -0.2711
vn 0.0675 -0.3850 -0.9205
vn 0.2521 0.6511 -0.7159
vn -0.9590 -0.2670 0.0947
vn -0.3532 -0.6118 0.7078
vn -0.0948 -0.2671 0.9590
vn 0.4446 -0.8545 -0.2686
vn -0.6158 0.7633 0.1954
vn 0.7159 0.6512 -0.2520
vn 0.9205 -0.3849 -0.0674
vn -0.7078 -0.6118 0.3532
vn -0.0675 -0.3850 0.9205
vn 0.1954 0.7633 -0.6158
vn 0.9590 -0.2670 -0.0947
vn -0.2686 -0.8545 0.4446
vn 0.0948 -0.2671 -0.9590
vn -0.4446 -0.8545 0.2686
vn 0.6158 0.7633 -0.1954
vn -0.9205 -0.3849 0.0674
vn -0.0948 -0.2671 -0.9590
vn 0.9204 -0.3850 0.0674
vn 0.4446 -0.8545 0.2686
vn -0.6158 0.7633 -0.1954
vn -0.1954 0.7633 -0.6158
vn -0.9590 -0.2671 -0.0948
vn 0.2686 -0.8545 0.4446
vn 0.0675 -0.3849 0.9205
vn -0.2030 -0.4822 0.8522
vn -0.7045 -0.0846 -0.7046
vn -0.3230 0.8895 -0.3231
vn 0.2710 -0.9236 0.2711
vn 0.8525 -0.4817 -0.2032
vn -0.8525 -0.4817 -0.2033
vn 0.7046 -0.0846 -0.7045
vn 0.2030 -0.4821 0.8523
vn -0.8525 0.4817 0.2033
vn 0.7046 0.0846 0.7045
vn 0.2030 0.4821 -0.8523
vn -0.8182 0.0480 0.5729
vn -0.8067 0.1415 0.5738
vn -0.6582 -0.5844 0.4746
vn 0.3141 0.9204 -0.2329
vn -0.8183 0.0479 -0.5729
vn -0.6583 -0.5842 -0.4746
vn -0.8068 0.1416 -0.5737
vn 0.3141 0.9204 0.2329
vn -0.7696 0.1642 -0.6170
vn 0.6430 0.3733 -0.6688
vn 0.6430 0.3733 0.6687
vn -0.7696 0.1642 0.6170
vn -0.8526 -0.4055 0.3297
vn -0.3313 -0.2119 -0.9194
vn -0.5453 0.7315 0.4094
vn -0.7545 -0.3122 0.5772
vn 0.3004 -0.9297 -0.2133
vn -0.5288 -0.1465 -0.8360
vn -0.6171 -0.1643 -0.7696
vn -0.6687 -0.3732 0.6431
vn 0.6687 -0.3732 0.6430
vn 0.6170 -0.1643 -0.7696
vn 0.5288 -0.1465 -0.8360
vn 0.7545 -0.3122 0.5772
vn 0.8526 -0.4054 0.3297
vn 0.3313 -0.2119 -0.9194
vn 0.6687 0.3732 -0.6430
vn 0.6170 0.1643 0.7696
vn 0.5736 0.1418 0.8068
vn 0.5729 0.0479 0.8182
vn -0.5729 0.0479 0.8182
vn -0.4747 -0.5841 0.6584
vn -0.5736 0.1418 0.8068
vn 0.2329 0.9204 -0.3140
vn -0.6171 0.1643 0.7696
vn -0.6687 0.3732 -0.6431
vn 0.6821 0.6957 0.2253
vn 0.7037 -0.7025 0.1066
vn 0.3310 -0.8947 -0.2999
vn -0.6502 0.7368 -0.1854
vn -0.6544 0.5920 0.4703
vn -0.2133 -0.9297 -0.3004
vn 0.4093 0.7315 0.5453
vn -0.5381 -0.7639 -0.3563
vn 0.7037 -0.7025 -0.1065
vn 0.6821 0.6957 -0.2254
vn -0.6544 0.5921 -0.4703
vn 0.3310 -0.8947 0.2999
vn -0.5381 -0.7639 0.3563
vn -0.6502 0.7368 0.1854
vn -0.2133 -0.9297 0.3004
vn 0.4093 0.7315 -0.5453
vn -0.1452 -0.7058 -0.6933
vn 0.6544 0.5921 0.4703
vn -0.1454 0.7058 -0.6933
vn -0.3310 -0.8947 -0.2999
vn -0.3890 0.8318 0.3960
vn -0.3890 -0.8317 0.3962
vn 0.6502 0.7368 0.1854
vn -0.4093 0.7315 -0.5453
vn 0.5381 -0.7639 0.3563
vn 0.2133 -0.9297 0.3004
vn -0.7037 -0.7025 -0.1066
vn -0.6821 0.6957 -0.2253
vn -0.3310 -0.8947 0.2999
vn 0.6544 0.5920 -0.4703
vn -0.1853 0.7368 0.6502
vn 0.5453 0.7315 -0.4094
vn -0.3562 -0.7639 0.5382
vn -0.3004 -0.9297 0.2133
vn 0.1064 -0.7025 -0.7037
vn 0.2253 0.6957 -0.6821
vn 0.1853 0.7368 0.6502
vn 0.3562 -0.7639 0.5382
vn 0.3004 -0.9297 0.2133
vn -0.5453 0.7315 -0.4094
vn -0.4704 0.5919 0.6545
vn -0.2253 0.6957 -0.6821
vn 0.2999 -0.8947 -0.3310
vn -0.1064 -0.7025 -0.7037
vn 0.7114 -0.6895 -0.1360
vn 0.7115 0.6895 -0.1359
vn -0.1360 -0.6894 0.7115
vn -0.1358 0.6895 0.7115
vn -0.2253 0.6957 0.6821
vn -0.1064 -0.7025 0.7037
vn 0.1853 0.7368 -0.6502
vn 0.3562 -0.7639 -0.5382
vn -0.4069 0.6894 0.5993
vn -0.4069 0.6895 -0.5991
vn -0.4069 -0.6895 0.5991
vn -0.4069 -0.6894 -0.5993
vn 0.1358 -0.6892 0.7117
vn -0.7116 -0.6893 -0.1359
vn -0.7118 0.6891 -0.1357
vn 0.1357 0.6892 0.7118
vn -0.1300 -0.7312 0.6697
vn -0.8415 -0.4129 -0.3485
vn 0.2965 0.7113 0.6372
vn 0.8239 -0.4524 0.3413
vn 0.2965 0.7113 -0.6373
vn -0.1300 -0.7312 -0.6696
vn 0.8239 -0.4525 -0.3413
vn -0.8415 -0.4129 0.3485
vn -0.3815 -0.7311 -0.5656
vn 0.5655 -0.7312 0.3815
vn 0.3486 -0.4129 -0.8415
vn -0.8239 -0.4525 0.3413
vn 0.8415 -0.4129 -0.3485
vn -0.6603 0.7113 -0.2409
vn 0.2408 0.7113 0.6603
vn -0.3413 -0.4524 0.8239
vn 0.6603 0.7113 0.2409
vn -0.2408 0.7113 -0.6603
vn -0.5655 -0.7312 -0.3815
vn 0.3815 -0.7311 0.5656
vn 0.3815 -0.7312 -0.5655
vn -0.3486 -0.4129 -0.8415
vn -0.5656 -0.7311 0.3815
vn 0.3413 -0.4524 0.8239
vn -0.2408 0.7113 0.6603
vn 0.6603 0.7113 -0.2409
vn 0.6502 0.7368 -0.1854
vn 0.5381 -0.7639 -0.3562
vn 0.2133 -0.9297 -0.3004
vn -0.4093 0.7315 0.5453
vn -0.6820 0.6957 0.2254
vn -0.7037 -0.7025 0.1065
vn -0.3890 0.8317 -0.3962
vn -0.3890 -0.8318 -0.3960
vn -0.1452 0.7058 0.6933
vn -0.1454 -0.7058 0.6933
vn 0.3890 -0.8317 -0.3962
vn 0.3890 0.8318 -0.3960
vn 0.1452 -0.7058 0.6933
vn 0.1454 0.7058 0.6933
vn 0.6372 0.7113 0.2966
vn -0.6372 0.7113 0.2966
vn 0.6696 -0.7312 -0.1301
vn -0.6696 -0.7312 -0.1301
vn 0.1452 0.7058 -0.6933
vn 0.1454 -0.7058 -0.6933
vn 0.3890 -0.8318 0.3960
vn 0.3890 0.8317 0.3962
vn 0.1300 -0.7312 0.6696
vn -0.2965 0.7113 0.6373
vn 0.1300 -0.7312 -0.6697
vn -0.2965 0.7113 -0.6372
vn -0.3962 0.8316 -0.3892
vn 0.6933 0.7059 -0.1452
vn -0.3959 -0.8317 -0.3893
vn 0.6934 -0.7058 -0.1452
vn 0.3959 -0.8317 0.3893
vn -0.6934 -0.7058 0.1452
vn -0.6933 0.7059 0.1452
vn 0.3962 0.8316 0.3892
vn 0.3296 -0.4057 0.8525
vn -0.9194 -0.2119 0.3313
vn 0.5769 -0.3121 0.7548
vn -0.8360 -0.1463 0.5289
vn -0.7696 -0.1642 0.6170
vn 0.6430 -0.3733 0.6688
vn 0.6430 -0.3733 -0.6687
vn -0.7696 -0.1642 -0.6170
vn -0.8360 -0.1462 -0.5290
vn 0.5769 -0.3121 -0.7548
vn 0.3297 -0.4055 -0.8525
vn -0.9194 -0.2119 -0.3313
vn 0.3313 -0.2119 0.9194
vn -0.3313 -0.2119 0.9194
vn 0.8526 -0.4055 -0.3297
vn 0.7545 -0.3122 -0.5772
vn 0.5288 -0.1465 0.8360
vn 0.6171 -0.1643 0.7696
vn 0.6687 -0.3732 -0.6431
vn -0.6687 -0.3732 -0.6430
vn -0.6170 -0.1643 0.7696
vn -0.5288 -0.1465 0.8360
vn -0.7545 -0.3122 -0.5772
vn -0.8526 -0.4054 -0.3297
vn 0.9194 -0.2119 -0.3313
vn 0.9194 -0.2119 0.3313
vn -0.3296 -0.4057 -0.8525
vn -0.5769 -0.3121 -0.7548
vn 0.8360 -0.1463 -0.5289
vn 0.7696 -0.1642 -0.6170
vn -0.6430 -0.3733 -0.6688
vn -0.6430 -0.3733 0.6687
vn 0.7696 -0.1642 0.6170
vn 0.8360 -0.1462 0.5290
vn -0.5769 -0.3121 0.7548
vn -0.3297 -0.4055 0.8525
vn 0.6067 -0.7697 -0.1986
vn -0.6200 -0.6474 -0.4433
vn 0.6627 0.7489 0.0053
vn -0.6507 0.6758 -0.3462
vn -0.0051 0.7489 -0.6627
vn 0.3462 0.6759 0.6506
vn 0.1982 -0.7696 -0.6070
vn 0.4434 -0.6474 0.6199
vn 0.1982 -0.7696 0.6070
vn 0.4434 -0.6474 -0.6199
vn -0.0051 0.7489 0.6627
vn 0.3462 0.6759 -0.6506
vn 0.6626 0.7489 -0.0053
vn -0.6507 0.6758 0.3461
vn 0.6068 -0.7697 0.1986
vn -0.6200 -0.6473 0.4434
vn -0.6067 -0.7697 0.1986
vn 0.6200 -0.6474 0.4433
vn -0.6627 0.7489 -0.0053
vn 0.6507 0.6758 0.3462
vn -0.4434 -0.6474 -0.6199
vn -0.3462 0.6759 -0.6506
vn 0.0051 0.7489 0.6627
vn -0.1982 -0.7696 0.6070
vn -0.4434 -0.6474 0.6199
vn -0.3462 0.6759 0.6506
vn -0.1982 -0.7696 -0.6070
vn 0.0051 0.7489 -0.6627
vn -0.6626 0.7489 0.0053
vn 0.6507 0.6758 -0.3461
vn -0.6068 -0.7697 -0.1986
vn 0.6200 -0.6473 -0.4434
vt 0.000000 0.000000
s 1
f 178/1/1 177/1/2 123/1/3
f 177/1/2 178/1/1 90/1/4
f 179/1/5 178/1/1 89/1/6
f 178/1/1 179/1/5 96/1/7
f 180/1/8 179/1/5 95/1/9
f 179/1/5 180/1/8 130/1/10
f 180/1/8 129/1/11 123/1/3
f 177/1/2 124/1/12 130/1/10
f 182/1/13 181/1/14 105/1/15
f 181/1/14 182/1/13 108/1/16
f 183/1/17 182/1/13 107/1/18
f 182/1/13 183/1/17 166/1/19
f 183/1/17 165/1/20 163/1/21
f 183/1/17 184/1/22 164/1/23
f 184/1/22 163/1/21 105/1/15
f 181/1/14 106/1/24 164/1/23
f 186/1/25 185/1/26 9/1/27
f 185/1/26 186/1/25 16/1/28
f 187/1/29 186/1/25 15/1/30
f 187/1/29 12/1/31 16/1/28
f 188/1/32 187/1/29 11/1/33
f 187/1/29 188/1/32 14/1/34
f 185/1/26 188/1/32 13/1/35
f 185/1/26 10/1/36 14/1/34
f 190/1/37 189/1/38 17/1/39
f 189/1/38 190/1/37 24/1/40
f 191/1/41 190/1/37 23/1/42
f 191/1/41 20/1/43 24/1/40
f 192/1/44 191/1/41 19/1/45
f 191/1/41 192/1/44 22/1/46
f 189/1/38 192/1/44 21/1/47
f 189/1/38 18/1/48 22/1/46
f 194/1/49 193/1/50 17/1/39
f 193/1/50 194/1/49 14/1/34
f 195/1/51 194/1/49 13/1/35
f 194/1/49 195/1/51 12/1/31
f 196/1/52 195/1/51 11/1/33
f 195/1/51 196/1/52 24/1/40
f 193/1/50 196/1/52 23/1/42
f 196/1/52 193/1/50 18/1/48
f 198/1/53 197/1/54 3/1/55
f 197/1/54 198/1/53 32/1/56
f 199/1/57 198/1/53 31/1/58
f 198/1/53 199/1/57 28/1/59
f 200/1/60 199/1/57 27/1/61
f 199/1/57 200/1/60 6/1/62
f 197/1/54 200/1/60 5/1/63
f 200/1/60 197/1/54 4/1/64
f 202/1/65 201/1/66 1/1/67
f 201/1/66 202/1/65 8/1/68
f 203/1/69 202/1/65 7/1/70
f 203/1/69 4/1/64 8/1/68
f 204/1/71 203/1/69 3/1/55
f 203/1/69 204/1/71 6/1/62
f 201/1/66 204/1/71 5/1/63
f 201/1/66 2/1/72 6/1/62
f 206/1/73 205/1/74 51/1/75
f 205/1/74 206/1/73 56/1/76
f 207/1/77 206/1/73 55/1/78
f 207/1/77 54/1/79 56/1/76
f 207/1/77 53/1/80 49/1/81
f 208/1/82 50/1/83 54/1/79
f 205/1/74 208/1/82 49/1/81
f 208/1/82 205/1/74 52/1/84
f 209/1/85 43/1/86 47/1/87
f 210/1/88 48/1/89 44/1/90
f 211/1/91 210/1/88 47/1/87
f 210/1/88 211/1/91 46/1/92
f 211/1/91 45/1/93 41/1/94
f 211/1/91 212/1/95 42/1/96
f 209/1/85 212/1/95 41/1/94
f 212/1/95 209/1/85 44/1/90
f 214/1/97 213/1/98 19/1/45
f 213/1/98 214/1/97 26/1/99
f 215/1/100 214/1/97 25/1/101
f 214/1/97 215/1/100 30/1/102
f 216/1/103 215/1/100 29/1/104
f 215/1/100 216/1/103 22/1/46
f 213/1/98 216/1/103 21/1/47
f 216/1/103 213/1/98 20/1/43
f 218/1/105 217/1/106 91/1/107
f 218/1/105 98/1/108 92/1/109
f 219/1/110 218/1/105 97/1/111
f 218/1/105 219/1/110 134/1/112
f 219/1/110 133/1/113 127/1/114
f 219/1/110 220/1/115 128/1/116
f 217/1/106 220/1/115 127/1/114
f 220/1/115 217/1/106 92/1/109
f 221/1/117 161/1/118 111/1/119
f 222/1/120 112/1/121 162/1/122
f 223/1/123 222/1/120 111/1/119
f 222/1/120 223/1/123 106/1/24
f 224/1/124 223/1/123 105/1/15
f 223/1/123 224/1/124 164/1/23
f 221/1/117 224/1/124 163/1/21
f 224/1/124 221/1/117 162/1/122
f 225/1/125 107/1/18 105/1/15
f 226/1/126 106/1/24 108/1/16
f 226/1/126 105/1/15 59/1/127
f 226/1/126 227/1/128 60/1/129
f 228/1/130 227/1/128 59/1/127
f 227/1/128 228/1/130 58/1/131
f 225/1/125 228/1/130 57/1/132
f 225/1/125 108/1/16 58/1/131
f 229/1/133 141/1/134 145/1/135
f 229/1/133 230/1/136 146/1/137
f 231/1/138 230/1/136 145/1/135
f 230/1/136 231/1/138 68/1/139
f 232/1/140 231/1/138 67/1/141
f 232/1/140 66/1/142 68/1/139
f 229/1/133 232/1/140 65/1/143
f 232/1/140 229/1/133 142/1/144
f 233/1/145 49/1/81 53/1/80
f 233/1/145 234/1/146 54/1/79
f 235/1/147 234/1/146 53/1/80
f 234/1/146 235/1/147 102/1/148
f 236/1/149 235/1/147 101/1/150
f 235/1/147 236/1/149 104/1/151
f 236/1/149 103/1/152 63/1/153
f 237/1/154 64/1/155 104/1/151
f 238/1/156 237/1/154 63/1/153
f 238/1/156 62/1/157 64/1/155
f 239/1/158 238/1/156 61/1/159
f 238/1/156 239/1/158 76/1/160
f 240/1/161 239/1/158 75/1/162
f 239/1/158 240/1/161 74/1/163
f 240/1/161 73/1/164 39/1/165
f 241/1/166 40/1/167 74/1/163
f 241/1/166 39/1/165 35/1/168
f 241/1/166 242/1/169 36/1/170
f 243/1/171 242/1/169 35/1/168
f 242/1/169 243/1/171 82/1/172
f 244/1/173 243/1/171 81/1/174
f 243/1/171 244/1/173 84/1/175
f 244/1/173 83/1/176 41/1/94
f 245/1/177 42/1/96 84/1/175
f 246/1/178 245/1/177 41/1/94
f 246/1/178 46/1/92 42/1/96
f 247/1/179 246/1/178 45/1/93
f 246/1/178 247/1/179 96/1/7
f 248/1/180 247/1/179 95/1/9
f 247/1/179 248/1/180 94/1/181
f 248/1/180 93/1/182 49/1/81
f 233/1/145 50/1/83 94/1/181
f 249/1/183 61/1/159 63/1/153
f 249/1/183 250/1/184 64/1/155
f 251/1/185 250/1/184 63/1/153
f 250/1/184 251/1/185 58/1/131
f 251/1/185 57/1/132 59/1/127
f 252/1/186 60/1/129 58/1/131
f 249/1/183 252/1/186 59/1/127
f 252/1/186 249/1/183 62/1/157
f 254/1/187 253/1/188 65/1/143
f 254/1/187 4/1/64 66/1/142
f 255/1/189 254/1/187 3/1/55
f 254/1/187 255/1/189 8/1/68
f 255/1/189 7/1/70 65/1/143
f 255/1/189 253/1/188 66/1/142
f 256/1/190 5/1/63 141/1/134
f 256/1/190 257/1/191 142/1/144
f 258/1/192 257/1/191 141/1/134
f 258/1/192 2/1/72 142/1/144
f 258/1/192 1/1/67 5/1/63
f 258/1/192 256/1/190 6/1/62
f 259/1/193 13/1/35 85/1/194
f 259/1/193 260/1/195 86/1/196
f 261/1/197 260/1/195 85/1/194
f 261/1/197 10/1/36 86/1/196
f 261/1/197 9/1/27 13/1/35
f 261/1/197 259/1/193 14/1/34
f 263/1/198 262/1/199 93/1/182
f 262/1/199 263/1/198 96/1/7
f 263/1/198 95/1/9 89/1/6
f 263/1/198 264/1/200 90/1/4
f 265/1/201 264/1/200 89/1/6
f 265/1/201 86/1/196 90/1/4
f 266/1/202 265/1/201 85/1/194
f 266/1/202 14/1/34 86/1/196
f 267/1/203 266/1/202 13/1/35
f 266/1/202 267/1/203 18/1/48
f 267/1/203 17/1/39 97/1/111
f 267/1/203 268/1/204 98/1/108
f 268/1/204 97/1/111 91/1/107
f 268/1/204 269/1/205 92/1/109
f 262/1/199 269/1/205 91/1/107
f 262/1/199 94/1/181 92/1/109
f 270/1/206 21/1/47 97/1/111
f 270/1/206 271/1/207 98/1/108
f 272/1/208 271/1/207 97/1/111
f 272/1/208 18/1/48 98/1/108
f 270/1/206 272/1/208 17/1/39
f 272/1/208 270/1/206 22/1/46
f 273/1/209 25/1/101 153/1/210
f 273/1/209 274/1/211 154/1/212
f 275/1/213 274/1/211 153/1/210
f 275/1/213 28/1/59 154/1/212
f 273/1/209 275/1/213 27/1/61
f 275/1/213 273/1/209 26/1/99
f 277/1/214 276/1/215 87/1/216
f 277/1/214 104/1/151 88/1/217
f 278/1/218 277/1/214 103/1/152
f 277/1/214 278/1/218 102/1/148
f 278/1/218 101/1/150 99/1/219
f 278/1/218 279/1/220 100/1/221
f 280/1/222 279/1/220 99/1/219
f 280/1/222 98/1/108 100/1/221
f 281/1/223 280/1/222 97/1/111
f 281/1/223 22/1/46 98/1/108
f 282/1/224 281/1/223 21/1/47
f 281/1/223 282/1/224 30/1/102
f 282/1/224 29/1/104 77/1/225
f 282/1/224 283/1/226 78/1/227
f 283/1/226 77/1/225 87/1/216
f 283/1/226 276/1/215 88/1/217
f 284/1/228 37/1/229 111/1/119
f 285/1/230 112/1/121 38/1/231
f 286/1/232 285/1/230 111/1/119
f 286/1/232 114/1/233 112/1/121
f 286/1/232 113/1/234 33/1/235
f 286/1/232 287/1/236 34/1/237
f 284/1/228 287/1/236 33/1/235
f 287/1/236 284/1/228 38/1/231
f 288/1/238 51/1/75 117/1/239
f 289/1/240 118/1/241 52/1/84
f 290/1/242 289/1/240 117/1/239
f 290/1/242 110/1/243 118/1/241
f 290/1/242 109/1/244 55/1/78
f 290/1/242 291/1/245 56/1/76
f 288/1/238 291/1/245 55/1/78
f 291/1/245 288/1/238 52/1/84
f 293/1/246 292/1/247 43/1/86
f 293/1/246 116/1/248 44/1/90
f 293/1/246 115/1/249 119/1/250
f 294/1/251 120/1/252 116/1/248
f 294/1/251 119/1/250 47/1/87
f 294/1/251 295/1/253 48/1/89
f 292/1/247 295/1/253 47/1/87
f 295/1/253 292/1/247 44/1/90
f 297/1/254 296/1/255 121/1/256
f 297/1/254 12/1/31 122/1/257
f 298/1/258 297/1/254 11/1/33
f 297/1/254 298/1/258 16/1/28
f 298/1/258 15/1/30 121/1/256
f 298/1/258 296/1/255 122/1/257
f 300/1/259 299/1/260 133/1/113
f 300/1/259 20/1/43 134/1/112
f 300/1/259 19/1/45 23/1/42
f 300/1/259 301/1/261 24/1/40
f 301/1/261 23/1/42 133/1/113
f 301/1/261 299/1/260 134/1/112
f 303/1/262 302/1/263 77/1/225
f 303/1/262 30/1/102 78/1/227
f 303/1/262 29/1/104 31/1/58
f 303/1/262 304/1/264 32/1/56
f 304/1/264 31/1/58 77/1/225
f 304/1/264 302/1/263 78/1/227
f 306/1/265 305/1/266 79/1/267
f 306/1/265 84/1/175 80/1/268
f 307/1/269 306/1/265 83/1/176
f 306/1/265 307/1/269 82/1/172
f 307/1/269 81/1/174 69/1/270
f 307/1/269 308/1/271 70/1/272
f 309/1/273 308/1/271 69/1/270
f 309/1/273 66/1/142 70/1/272
f 310/1/274 309/1/273 65/1/143
f 310/1/274 8/1/68 66/1/142
f 311/1/275 310/1/274 7/1/70
f 310/1/274 311/1/275 10/1/36
f 311/1/275 9/1/27 85/1/194
f 311/1/275 312/1/276 86/1/196
f 312/1/276 85/1/194 79/1/267
f 312/1/276 305/1/266 80/1/268
f 314/1/277 313/1/278 117/1/239
f 314/1/277 52/1/84 118/1/241
f 314/1/277 51/1/75 131/1/279
f 314/1/277 315/1/280 132/1/281
f 316/1/282 315/1/280 131/1/279
f 316/1/282 128/1/116 132/1/281
f 317/1/283 316/1/282 127/1/114
f 317/1/283 134/1/112 128/1/116
f 318/1/284 317/1/283 133/1/113
f 318/1/284 24/1/40 134/1/112
f 319/1/285 318/1/284 23/1/42
f 318/1/284 319/1/285 12/1/31
f 319/1/285 11/1/33 121/1/256
f 319/1/285 320/1/286 122/1/257
f 320/1/286 121/1/256 123/1/3
f 320/1/286 321/1/287 124/1/12
f 321/1/287 123/1/3 129/1/11
f 321/1/287 322/1/288 130/1/10
f 323/1/289 322/1/288 129/1/11
f 323/1/289 48/1/89 130/1/10
f 323/1/289 47/1/87 119/1/250
f 323/1/289 324/1/290 120/1/252
f 313/1/278 324/1/290 119/1/250
f 324/1/290 313/1/278 118/1/241
f 325/1/291 3/1/55 65/1/143
f 325/1/291 326/1/292 66/1/142
f 326/1/292 65/1/143 67/1/141
f 326/1/292 327/1/293 68/1/139
f 328/1/294 327/1/293 67/1/141
f 328/1/294 74/1/163 68/1/139
f 329/1/295 328/1/294 73/1/164
f 328/1/294 329/1/295 76/1/160
f 329/1/295 75/1/162 71/1/296
f 329/1/295 330/1/297 72/1/298
f 331/1/299 330/1/297 71/1/296
f 331/1/299 78/1/227 72/1/298
f 332/1/300 331/1/299 77/1/225
f 332/1/300 32/1/56 78/1/227
f 325/1/291 332/1/300 31/1/58
f 332/1/300 325/1/291 4/1/64
f 334/1/301 333/1/302 79/1/267
f 334/1/301 126/1/303 80/1/268
f 335/1/304 334/1/301 125/1/305
f 334/1/301 335/1/304 138/1/306
f 335/1/304 137/1/307 83/1/176
f 336/1/308 84/1/175 138/1/306
f 336/1/308 83/1/176 79/1/267
f 333/1/302 80/1/268 84/1/175
f 338/1/309 337/1/310 135/1/311
f 338/1/309 70/1/272 136/1/312
f 339/1/313 338/1/309 69/1/270
f 338/1/309 339/1/313 82/1/172
f 340/1/314 339/1/313 81/1/174
f 339/1/313 340/1/314 140/1/315
f 340/1/314 139/1/316 135/1/311
f 337/1/310 136/1/312 140/1/315
f 341/1/317 99/1/219 143/1/318
f 342/1/319 144/1/320 100/1/221
f 343/1/321 342/1/319 143/1/318
f 343/1/321 134/1/112 144/1/320
f 344/1/322 343/1/321 133/1/113
f 344/1/322 98/1/108 134/1/112
f 344/1/322 97/1/111 99/1/219
f 344/1/322 341/1/317 100/1/221
f 345/1/323 157/1/324 103/1/152
f 346/1/325 104/1/151 158/1/326
f 346/1/325 103/1/152 87/1/216
f 347/1/327 88/1/217 104/1/151
f 348/1/328 347/1/327 87/1/216
f 348/1/328 156/1/329 88/1/217
f 345/1/323 348/1/328 155/1/330
f 348/1/328 345/1/323 158/1/326
f 349/1/331 151/1/332 73/1/164
f 350/1/333 74/1/163 152/1/334
f 350/1/333 73/1/164 67/1/141
f 351/1/335 68/1/139 74/1/163
f 352/1/336 351/1/335 67/1/141
f 351/1/335 352/1/336 146/1/137
f 349/1/331 352/1/336 145/1/135
f 352/1/336 349/1/331 152/1/334
f 354/1/337 353/1/338 75/1/162
f 353/1/338 354/1/337 150/1/339
f 354/1/337 149/1/340 147/1/341
f 355/1/342 148/1/343 150/1/339
f 356/1/344 355/1/342 147/1/341
f 355/1/342 356/1/344 72/1/298
f 353/1/338 356/1/344 71/1/296
f 356/1/344 353/1/338 76/1/160
f 358/1/345 357/1/346 27/1/61
f 357/1/346 358/1/345 32/1/56
f 359/1/347 358/1/345 31/1/58
f 359/1/347 30/1/102 32/1/56
f 360/1/348 359/1/347 29/1/104
f 359/1/347 360/1/348 26/1/99
f 357/1/346 360/1/348 25/1/101
f 357/1/346 28/1/59 26/1/99
f 362/1/349 361/1/350 91/1/107
f 361/1/350 362/1/349 128/1/116
f 363/1/351 362/1/349 127/1/114
f 362/1/349 363/1/351 132/1/281
f 363/1/351 131/1/279 93/1/182
f 364/1/352 94/1/181 132/1/281
f 364/1/352 93/1/182 91/1/107
f 361/1/350 92/1/109 94/1/181
f 366/1/353 365/1/354 1/1/67
f 365/1/354 366/1/353 16/1/28
f 367/1/355 366/1/353 15/1/30
f 366/1/353 367/1/355 10/1/36
f 368/1/356 367/1/355 9/1/27
f 367/1/355 368/1/356 8/1/68
f 365/1/354 368/1/356 7/1/70
f 368/1/356 365/1/354 2/1/72
f 369/1/357 35/1/168 39/1/165
f 370/1/358 40/1/167 36/1/170
f 371/1/359 370/1/358 39/1/165
f 370/1/358 371/1/359 38/1/231
f 372/1/360 371/1/359 37/1/229
f 371/1/359 372/1/360 34/1/237
f 369/1/357 372/1/360 33/1/235
f 369/1/357 36/1/170 34/1/237
f 373/1/361 169/1/362 115/1/249
f 374/1/363 116/1/248 170/1/364
f 375/1/365 374/1/363 115/1/249
f 374/1/363 375/1/365 114/1/233
f 376/1/366 375/1/365 113/1/234
f 375/1/365 376/1/366 172/1/367
f 373/1/361 376/1/366 171/1/368
f 376/1/366 373/1/361 170/1/364
f 378/1/369 377/1/370 175/1/371
f 377/1/370 378/1/369 168/1/372
f 378/1/369 167/1/373 109/1/244
f 379/1/374 110/1/243 168/1/372
f 379/1/374 109/1/244 117/1/239
f 379/1/374 380/1/375 118/1/241
f 377/1/370 380/1/375 117/1/239
f 380/1/375 377/1/370 176/1/376
f 381/1/377 113/1/234 111/1/119
f 381/1/377 382/1/378 112/1/121
f 383/1/379 382/1/378 111/1/119
f 382/1/378 383/1/379 162/1/122
f 384/1/380 383/1/379 161/1/118
f 383/1/379 384/1/380 172/1/367
f 384/1/380 171/1/368 113/1/234
f 381/1/377 114/1/233 172/1/367
f 385/1/381 169/1/362 173/1/382
f 385/1/381 386/1/383 174/1/384
f 386/1/383 173/1/382 119/1/250
f 387/1/385 120/1/252 174/1/384
f 388/1/386 387/1/385 119/1/250
f 387/1/385 388/1/386 116/1/248
f 385/1/381 388/1/386 115/1/249
f 388/1/386 385/1/381 170/1/364
f 390/1/387 389/1/388 101/1/150
f 389/1/388 390/1/387 160/1/389
f 390/1/387 159/1/390 143/1/318
f 391/1/391 144/1/320 160/1/389
f 392/1/392 391/1/391 143/1/318
f 392/1/392 100/1/221 144/1/320
f 389/1/388 392/1/392 99/1/219
f 392/1/392 389/1/388 102/1/148
f 394/1/393 393/1/394 77/1/225
f 394/1/393 154/1/212 78/1/227
f 394/1/393 153/1/210 155/1/330
f 394/1/393 395/1/395 156/1/329
f 395/1/395 155/1/330 87/1/216
f 396/1/396 88/1/217 156/1/329
f 393/1/394 396/1/396 87/1/216
f 393/1/394 78/1/227 88/1/217
f 398/1/397 397/1/398 141/1/134
f 398/1/397 66/1/142 142/1/144
f 398/1/397 65/1/143 69/1/270
f 398/1/397 399/1/399 70/1/272
f 399/1/399 69/1/270 135/1/311
f 400/1/400 136/1/312 70/1/272
f 397/1/398 400/1/400 135/1/311
f 397/1/398 142/1/144 136/1/312
f 402/1/401 401/1/402 117/1/239
f 401/1/402 402/1/401 120/1/252
f 403/1/403 402/1/401 119/1/250
f 402/1/401 403/1/403 174/1/384
f 404/1/404 403/1/403 173/1/382
f 403/1/403 404/1/404 176/1/376
f 404/1/404 175/1/371 117/1/239
f 401/1/402 118/1/241 176/1/376
f 405/1/405 125/1/305 79/1/267
f 406/1/406 80/1/268 126/1/303
f 407/1/407 406/1/406 79/1/267
f 407/1/407 86/1/196 80/1/268
f 408/1/408 407/1/407 85/1/194
f 408/1/408 122/1/257 86/1/196
f 408/1/408 121/1/256 125/1/305
f 408/1/408 405/1/405 126/1/303
f 410/1/409 409/1/410 109/1/244
f 409/1/410 410/1/409 168/1/372
f 411/1/411 410/1/409 167/1/373
f 410/1/409 411/1/411 166/1/19
f 411/1/411 165/1/20 107/1/18
f 412/1/412 108/1/16 166/1/19
f 409/1/410 412/1/412 107/1/18
f 412/1/412 409/1/410 110/1/243
f 414/1/413 413/1/414 147/1/341
f 414/1/413 154/1/212 148/1/343
f 415/1/415 414/1/413 153/1/210
f 414/1/413 415/1/415 78/1/227
f 415/1/415 77/1/225 71/1/296
f 415/1/415 416/1/416 72/1/298
f 413/1/414 416/1/416 71/1/296
f 416/1/416 413/1/414 148/1/343
f 417/1/417 85/1/194 89/1/6
f 417/1/417 418/1/418 90/1/4
f 419/1/419 418/1/418 89/1/6
f 418/1/418 419/1/419 124/1/12
f 420/1/420 419/1/419 123/1/3
f 420/1/420 122/1/257 124/1/12
f 417/1/417 420/1/420 121/1/256
f 420/1/420 417/1/417 86/1/196
f 422/1/421 421/1/422 115/1/249
f 422/1/421 44/1/90 116/1/248
f 422/1/421 43/1/86 137/1/307
f 422/1/421 423/1/423 138/1/306
f 424/1/424 423/1/423 137/1/307
f 424/1/424 126/1/303 138/1/306
f 425/1/425 424/1/424 125/1/305
f 425/1/425 122/1/257 126/1/303
f 426/1/426 425/1/425 121/1/256
f 426/1/426 16/1/28 122/1/257
f 427/1/427 426/1/426 15/1/30
f 426/1/426 427/1/427 2/1/72
f 427/1/427 1/1/67 141/1/134
f 427/1/427 428/1/428 142/1/144
f 428/1/428 141/1/134 135/1/311
f 428/1/428 429/1/429 136/1/312
f 429/1/429 135/1/311 139/1/316
f 429/1/429 430/1/430 140/1/315
f 431/1/431 430/1/430 139/1/316
f 431/1/431 34/1/237 140/1/315
f 431/1/431 33/1/235 113/1/234
f 431/1/431 432/1/432 114/1/233
f 421/1/422 432/1/432 113/1/234
f 432/1/432 421/1/422 116/1/248
f 434/1/433 433/1/434 105/1/15
f 433/1/434 434/1/433 112/1/121
f 435/1/435 434/1/433 111/1/119
f 435/1/435 38/1/231 112/1/121
f 435/1/435 37/1/229 151/1/332
f 435/1/435 436/1/436 152/1/334
f 437/1/437 436/1/436 151/1/332
f 437/1/437 146/1/137 152/1/334
f 438/1/438 437/1/437 145/1/135
f 438/1/438 142/1/144 146/1/137
f 439/1/439 438/1/438 141/1/134
f 439/1/439 6/1/62 142/1/144
f 440/1/440 439/1/439 5/1/63
f 439/1/439 440/1/440 28/1/59
f 440/1/440 27/1/61 153/1/210
f 440/1/440 441/1/441 154/1/212
f 441/1/441 153/1/210 147/1/341
f 441/1/441 442/1/442 148/1/343
f 442/1/442 147/1/341 149/1/340
f 442/1/442 443/1/443 150/1/339
f 444/1/444 443/1/443 149/1/340
f 444/1/444 60/1/129 150/1/339
f 444/1/444 59/1/127 105/1/15
f 444/1/444 433/1/434 106/1/24
f 446/1/445 445/1/446 109/1/244
f 445/1/446 446/1/445 108/1/16
f 447/1/447 446/1/445 107/1/18
f 447/1/447 58/1/131 108/1/16
f 447/1/447 57/1/132 157/1/324
f 447/1/447 448/1/448 158/1/326
f 449/1/449 448/1/448 157/1/324
f 449/1/449 156/1/329 158/1/326
f 450/1/450 449/1/449 155/1/330
f 450/1/450 154/1/212 156/1/329
f 451/1/451 450/1/450 153/1/210
f 451/1/451 26/1/99 154/1/212
f 452/1/452 451/1/451 25/1/101
f 451/1/451 452/1/452 20/1/43
f 452/1/452 19/1/45 133/1/113
f 452/1/452 453/1/453 134/1/112
f 453/1/453 133/1/113 143/1/318
f 453/1/453 454/1/454 144/1/320
f 454/1/454 143/1/318 159/1/390
f 454/1/454 455/1/455 160/1/389
f 456/1/456 455/1/455 159/1/390
f 456/1/456 56/1/76 160/1/389
f 456/1/456 55/1/78 109/1/244
f 456/1/456 445/1/446 110/1/243
f 458/1/457 457/1/458 49/1/81
f 457/1/458 458/1/457 94/1/181
f 459/1/459 458/1/457 93/1/182
f 458/1/457 459/1/459 132/1/281
f 459/1/459 131/1/279 51/1/75
f 460/1/460 52/1/84 132/1/281
f 457/1/458 460/1/460 51/1/75
f 460/1/460 457/1/458 50/1/83
f 462/1/461 461/1/462 55/1/78
f 461/1/462 462/1/461 160/1/389
f 462/1/461 159/1/390 101/1/150
f 463/1/463 102/1/148 160/1/389
f 463/1/463 101/1/150 53/1/80
f 464/1/464 54/1/79 102/1/148
f 464/1/464 53/1/80 55/1/78
f 461/1/462 56/1/76 54/1/79
f 466/1/465 465/1/466 63/1/153
f 465/1/466 466/1/465 104/1/151
f 467/1/467 466/1/465 103/1/152
f 466/1/465 467/1/467 158/1/326
f 467/1/467 157/1/324 57/1/132
f 468/1/468 58/1/131 158/1/326
f 465/1/466 468/1/468 57/1/132
f 468/1/468 465/1/466 64/1/155
f 470/1/469 469/1/470 59/1/127
f 469/1/470 470/1/469 150/1/339
f 470/1/469 149/1/340 75/1/162
f 471/1/471 76/1/160 150/1/339
f 471/1/471 75/1/162 61/1/159
f 472/1/472 62/1/157 76/1/160
f 469/1/470 472/1/472 61/1/159
f 472/1/472 469/1/470 60/1/129
f 474/1/473 473/1/474 39/1/165
f 473/1/474 474/1/473 74/1/163
f 475/1/475 474/1/473 73/1/164
f 474/1/473 475/1/475 152/1/334
f 475/1/475 151/1/332 37/1/229
f 476/1/476 38/1/231 152/1/334
f 473/1/474 476/1/476 37/1/229
f 476/1/476 473/1/474 40/1/167
f 477/1/477 35/1/168 33/1/235
f 478/1/478 34/1/237 36/1/170
f 479/1/479 478/1/478 33/1/235
f 478/1/478 479/1/479 140/1/315
f 479/1/479 139/1/316 81/1/174
f 480/1/480 82/1/172 140/1/315
f 480/1/480 81/1/174 35/1/168
f 477/1/477 36/1/170 82/1/172
f 482/1/481 481/1/482 43/1/86
f 481/1/482 482/1/481 42/1/96
f 483/1/483 482/1/481 41/1/94
f 482/1/481 483/1/483 84/1/175
f 484/1/484 483/1/483 83/1/176
f 483/1/483 484/1/484 138/1/306
f 484/1/484 137/1/307 43/1/86
f 481/1/482 44/1/90 138/1/306
f 486/1/485 485/1/486 47/1/87
f 485/1/486 486/1/485 130/1/10
f 486/1/485 129/1/11 95/1/9
f 487/1/487 96/1/7 130/1/10
f 487/1/487 95/1/9 45/1/93
f 488/1/488 46/1/92 96/1/7
f 485/1/486 488/1/488 45/1/93
f 488/1/488 485/1/486 48/1/89
f 178/1/1 123/1/3 89/1/6
f 177/1/2 90/1/4 124/1/12
f 179/1/5 89/1/6 95/1/9
f 178/1/1 96/1/7 90/1/4
f 180/1/8 95/1/9 129/1/11
f 179/1/5 130/1/10 96/1/7
f 180/1/8 123/1/3 177/1/2
f 177/1/2 130/1/10 180/1/8
f 182/1/13 105/1/15 107/1/18
f 181/1/14 108/1/16 106/1/24
f 183/1/17 107/1/18 165/1/20
f 182/1/13 166/1/19 108/1/16
f 183/1/17 163/1/21 184/1/22
f 183/1/17 164/1/23 166/1/19
f 184/1/22 105/1/15 181/1/14
f 181/1/14 164/1/23 184/1/22
f 186/1/25 9/1/27 15/1/30
f 185/1/26 16/1/28 10/1/36
f 187/1/29 15/1/30 11/1/33
f 187/1/29 16/1/28 186/1/25
f 188/1/32 11/1/33 13/1/35
f 187/1/29 14/1/34 12/1/31
f 185/1/26 13/1/35 9/1/27
f 185/1/26 14/1/34 188/1/32
f 190/1/37 17/1/39 23/1/42
f 189/1/38 24/1/40 18/1/48
f 191/1/41 23/1/42 19/1/45
f 191/1/41 24/1/40 190/1/37
f 192/1/44 19/1/45 21/1/47
f 191/1/41 22/1/46 20/1/43
f 189/1/38 21/1/47 17/1/39
f 189/1/38 22/1/46 192/1/44
f 194/1/49 17/1/39 13/1/35
f 193/1/50 14/1/34 18/1/48
f 195/1/51 13/1/35 11/1/33
f 194/1/49 12/1/31 14/1/34
f 196/1/52 11/1/33 23/1/42
f 195/1/51 24/1/40 12/1/31
f 193/1/50 23/1/42 17/1/39
f 196/1/52 18/1/48 24/1/40
f 198/1/53 3/1/55 31/1/58
f 197/1/54 32/1/56 4/1/64
f 199/1/57 31/1/58 27/1/61
f 198/1/53 28/1/59 32/1/56
f 200/1/60 27/1/61 5/1/63
f 199/1/57 6/1/62 28/1/59
f 197/1/54 5/1/63 3/1/55
f 200/1/60 4/1/64 6/1/62
f 202/1/65 1/1/67 7/1/70
f 201/1/66 8/1/68 2/1/72
f 203/1/69 7/1/70 3/1/55
f 203/1/69 8/1/68 202/1/65
f 204/1/71 3/1/55 5/1/63
f 203/1/69 6/1/62 4/1/64
f 201/1/66 5/1/63 1/1/67
f 201/1/66 6/1/62 204/1/71
f 206/1/73 51/1/75 55/1/78
f 205/1/74 56/1/76 52/1/84
f 207/1/77 55/1/78 53/1/80
f 207/1/77 56/1/76 206/1/73
f 207/1/77 49/1/81 208/1/82
f 208/1/82 54/1/79 207/1/77
f 205/1/74 49/1/81 51/1/75
f 208/1/82 52/1/84 50/1/83
f 209/1/85 47/1/87 210/1/88
f 210/1/88 44/1/90 209/1/85
f 211/1/91 47/1/87 45/1/93
f 210/1/88 46/1/92 48/1/89
f 211/1/91 41/1/94 212/1/95
f 211/1/91 42/1/96 46/1/92
f 209/1/85 41/1/94 43/1/86
f 212/1/95 44/1/90 42/1/96
f 214/1/97 19/1/45 25/1/101
f 213/1/98 26/1/99 20/1/43
f 215/1/100 25/1/101 29/1/104
f 214/1/97 30/1/102 26/1/99
f 216/1/103 29/1/104 21/1/47
f 215/1/100 22/1/46 30/1/102
f 213/1/98 21/1/47 19/1/45
f 216/1/103 20/1/43 22/1/46
f 218/1/105 91/1/107 97/1/111
f 218/1/105 92/1/109 217/1/106
f 219/1/110 97/1/111 133/1/113
f 218/1/105 134/1/112 98/1/108
f 219/1/110 127/1/114 220/1/115
f 219/1/110 128/1/116 134/1/112
f 217/1/106 127/1/114 91/1/107
f 220/1/115 92/1/109 128/1/116
f 221/1/117 111/1/119 222/1/120
f 222/1/120 162/1/122 221/1/117
f 223/1/123 111/1/119 105/1/15
f 222/1/120 106/1/24 112/1/121
f 224/1/124 105/1/15 163/1/21
f 223/1/123 164/1/23 106/1/24
f 221/1/117 163/1/21 161/1/118
f 224/1/124 162/1/122 164/1/23
f 225/1/125 105/1/15 226/1/126
f 226/1/126 108/1/16 225/1/125
f 226/1/126 59/1/127 227/1/128
f 226/1/126 60/1/129 106/1/24
f 228/1/130 59/1/127 57/1/132
f 227/1/128 58/1/131 60/1/129
f 225/1/125 57/1/132 107/1/18
f 225/1/125 58/1/131 228/1/130
f 229/1/133 145/1/135 230/1/136
f 229/1/133 146/1/137 142/1/144
f 231/1/138 145/1/135 67/1/141
f 230/1/136 68/1/139 146/1/137
f 232/1/140 67/1/141 65/1/143
f 232/1/140 68/1/139 231/1/138
f 229/1/133 65/1/143 141/1/134
f 232/1/140 142/1/144 66/1/142
f 233/1/145 53/1/80 234/1/146
f 233/1/145 54/1/79 50/1/83
f 235/1/147 53/1/80 101/1/150
f 234/1/146 102/1/148 54/1/79
f 236/1/149 101/1/150 103/1/152
f 235/1/147 104/1/151 102/1/148
f 236/1/149 63/1/153 237/1/154
f 237/1/154 104/1/151 236/1/149
f 238/1/156 63/1/153 61/1/159
f 238/1/156 64/1/155 237/1/154
f 239/1/158 61/1/159 75/1/162
f 238/1/156 76/1/160 62/1/157
f 240/1/161 75/1/162 73/1/164
f 239/1/158 74/1/163 76/1/160
f 240/1/161 39/1/165 241/1/166
f 241/1/166 74/1/163 240/1/161
f 241/1/166 35/1/168 242/1/169
f 241/1/166 36/1/170 40/1/167
f 243/1/171 35/1/168 81/1/174
f 242/1/169 82/1/172 36/1/170
f 244/1/173 81/1/174 83/1/176
f 243/1/171 84/1/175 82/1/172
f 244/1/173 41/1/94 245/1/177
f 245/1/177 84/1/175 244/1/173
f 246/1/178 41/1/94 45/1/93
f 246/1/178 42/1/96 245/1/177
f 247/1/179 45/1/93 95/1/9
f 246/1/178 96/1/7 46/1/92
f 248/1/180 95/1/9 93/1/182
f 247/1/179 94/1/181 96/1/7
f 248/1/180 49/1/81 233/1/145
f 233/1/145 94/1/181 248/1/180
f 249/1/183 63/1/153 250/1/184
f 249/1/183 64/1/155 62/1/157
f 251/1/185 63/1/153 57/1/132
f 250/1/184 58/1/131 64/1/155
f 251/1/185 59/1/127 252/1/186
f 252/1/186 58/1/131 251/1/185
f 249/1/183 59/1/127 61/1/159
f 252/1/186 62/1/157 60/1/129
f 254/1/187 65/1/143 3/1/55
f 254/1/187 66/1/142 253/1/188
f 255/1/189 3/1/55 7/1/70
f 254/1/187 8/1/68 4/1/64
f 255/1/189 65/1/143 253/1/188
f 255/1/189 66/1/142 8/1/68
f 256/1/190 141/1/134 257/1/191
f 256/1/190 142/1/144 6/1/62
f 258/1/192 141/1/134 1/1/67
f 258/1/192 142/1/144 257/1/191
f 258/1/192 5/1/63 256/1/190
f 258/1/192 6/1/62 2/1/72
f 259/1/193 85/1/194 260/1/195
f 259/1/193 86/1/196 14/1/34
f 261/1/197 85/1/194 9/1/27
f 261/1/197 86/1/196 260/1/195
f 261/1/197 13/1/35 259/1/193
f 261/1/197 14/1/34 10/1/36
f 263/1/198 93/1/182 95/1/9
f 262/1/199 96/1/7 94/1/181
f 263/1/198 89/1/6 264/1/200
f 263/1/198 90/1/4 96/1/7
f 265/1/201 89/1/6 85/1/194
f 265/1/201 90/1/4 264/1/200
f 266/1/202 85/1/194 13/1/35
f 266/1/202 86/1/196 265/1/201
f 267/1/203 13/1/35 17/1/39
f 266/1/202 18/1/48 14/1/34
f 267/1/203 97/1/111 268/1/204
f 267/1/203 98/1/108 18/1/48
f 268/1/204 91/1/107 269/1/205
f 268/1/204 92/1/109 98/1/108
f 262/1/199 91/1/107 93/1/182
f 262/1/199 92/1/109 269/1/205
f 270/1/206 97/1/111 271/1/207
f 270/1/206 98/1/108 22/1/46
f 272/1/208 97/1/111 17/1/39
f 272/1/208 98/1/108 271/1/207
f 270/1/206 17/1/39 21/1/47
f 272/1/208 22/1/46 18/1/48
f 273/1/209 153/1/210 274/1/211
f 273/1/209 154/1/212 26/1/99
f 275/1/213 153/1/210 27/1/61
f 275/1/213 154/1/212 274/1/211
f 273/1/209 27/1/61 25/1/101
f 275/1/213 26/1/99 28/1/59
f 277/1/214 87/1/216 103/1/152
f 277/1/214 88/1/217 276/1/215
f 278/1/218 103/1/152 101/1/150
f 277/1/214 102/1/148 104/1/151
f 278/1/218 99/1/219 279/1/220
f 278/1/218 100/1/221 102/1/148
f 280/1/222 99/1/219 97/1/111
f 280/1/222 100/1/221 279/1/220
f 281/1/223 97/1/111 21/1/47
f 281/1/223 98/1/108 280/1/222
f 282/1/224 21/1/47 29/1/104
f 281/1/223 30/1/102 22/1/46
f 282/1/224 77/1/225 283/1/226
f 282/1/224 78/1/227 30/1/102
f 283/1/226 87/1/216 276/1/215
f 283/1/226 88/1/217 78/1/227
f 284/1/228 111/1/119 285/1/230
f 285/1/230 38/1/231 284/1/228
f 286/1/232 111/1/119 113/1/234
f 286/1/232 112/1/121 285/1/230
f 286/1/232 33/1/235 287/1/236
f 286/1/232 34/1/237 114/1/233
f 284/1/228 33/1/235 37/1/229
f 287/1/236 38/1/231 34/1/237
f 288/1/238 117/1/239 289/1/240
f 289/1/240 52/1/84 288/1/238
f 290/1/242 117/1/239 109/1/244
f 290/1/242 118/1/241 289/1/240
f 290/1/242 55/1/78 291/1/245
f 290/1/242 56/1/76 110/1/243
f 288/1/238 55/1/78 51/1/75
f 291/1/245 52/1/84 56/1/76
f 293/1/246 43/1/86 115/1/249
f 293/1/246 44/1/90 292/1/247
f 293/1/246 119/1/250 294/1/251
f 294/1/251 116/1/248 293/1/246
f 294/1/251 47/1/87 295/1/253
f 294/1/251 48/1/89 120/1/252
f 292/1/247 47/1/87 43/1/86
f 295/1/253 44/1/90 48/1/89
f 297/1/254 121/1/256 11/1/33
f 297/1/254 122/1/257 296/1/255
f 298/1/258 11/1/33 15/1/30
f 297/1/254 16/1/28 12/1/31
f 298/1/258 121/1/256 296/1/255
f 298/1/258 122/1/257 16/1/28
f 300/1/259 133/1/113 19/1/45
f 300/1/259 134/1/112 299/1/260
f 300/1/259 23/1/42 301/1/261
f 300/1/259 24/1/40 20/1/43
f 301/1/261 133/1/113 299/1/260
f 301/1/261 134/1/112 24/1/40
f 303/1/262 77/1/225 29/1/104
f 303/1/262 78/1/227 302/1/263
f 303/1/262 31/1/58 304/1/264
f 303/1/262 32/1/56 30/1/102
f 304/1/264 77/1/225 302/1/263
f 304/1/264 78/1/227 32/1/56
f 306/1/265 79/1/267 83/1/176
f 306/1/265 80/1/268 305/1/266
f 307/1/269 83/1/176 81/1/174
f 306/1/265 82/1/172 84/1/175
f 307/1/269 69/1/270 308/1/271
f 307/1/269 70/1/272 82/1/172
f 309/1/273 69/1/270 65/1/143
f 309/1/273 70/1/272 308/1/271
f 310/1/274 65/1/143 7/1/70
f 310/1/274 66/1/142 309/1/273
f 311/1/275 7/1/70 9/1/27
f 310/1/274 10/1/36 8/1/68
f 311/1/275 85/1/194 312/1/276
f 311/1/275 86/1/196 10/1/36
f 312/1/276 79/1/267 305/1/266
f 312/1/276 80/1/268 86/1/196
f 314/1/277 117/1/239 51/1/75
f 314/1/277 118/1/241 313/1/278
f 314/1/277 131/1/279 315/1/280
f 314/1/277 132/1/281 52/1/84
f 316/1/282 131/1/279 127/1/114
f 316/1/282 132/1/281 315/1/280
f 317/1/283 127/1/114 133/1/113
f 317/1/283 128/1/116 316/1/282
f 318/1/284 133/1/113 23/1/42
f 318/1/284 134/1/112 317/1/283
f 319/1/285 23/1/42 11/1/33
f 318/1/284 12/1/31 24/1/40
f 319/1/285 121/1/256 320/1/286
f 319/1/285 122/1/257 12/1/31
f 320/1/286 123/1/3 321/1/287
f 320/1/286 124/1/12 122/1/257
f 321/1/287 129/1/11 322/1/288
f 321/1/287 130/1/10 124/1/12
f 323/1/289 129/1/11 47/1/87
f 323/1/289 130/1/10 322/1/288
f 323/1/289 119/1/250 324/1/290
f 323/1/289 120/1/252 48/1/89
f 313/1/278 119/1/250 117/1/239
f 324/1/290 118/1/241 120/1/252
f 325/1/291 65/1/143 326/1/292
f 325/1/291 66/1/142 4/1/64
f 326/1/292 67/1/141 327/1/293
f 326/1/292 68/1/139 66/1/142
f 328/1/294 67/1/141 73/1/164
f 328/1/294 68/1/139 327/1/293
f 329/1/295 73/1/164 75/1/162
f 328/1/294 76/1/160 74/1/163
f 329/1/295 71/1/296 330/1/297
f 329/1/295 72/1/298 76/1/160
f 331/1/299 71/1/296 77/1/225
f 331/1/299 72/1/298 330/1/297
f 332/1/300 77/1/225 31/1/58
f 332/1/300 78/1/227 331/1/299
f 325/1/291 31/1/58 3/1/55
f 332/1/300 4/1/64 32/1/56
f 334/1/301 79/1/267 125/1/305
f 334/1/301 80/1/268 333/1/302
f 335/1/304 125/1/305 137/1/307
f 334/1/301 138/1/306 126/1/303
f 335/1/304 83/1/176 336/1/308
f 336/1/308 138/1/306 335/1/304
f 336/1/308 79/1/267 333/1/302
f 333/1/302 84/1/175 336/1/308
f 338/1/309 135/1/311 69/1/270
f 338/1/309 136/1/312 337/1/310
f 339/1/313 69/1/270 81/1/174
f 338/1/309 82/1/172 70/1/272
f 340/1/314 81/1/174 139/1/316
f 339/1/313 140/1/315 82/1/172
f 340/1/314 135/1/311 337/1/310
f 337/1/310 140/1/315 340/1/314
f 341/1/317 143/1/318 342/1/319
f 342/1/319 100/1/221 341/1/317
f 343/1/321 143/1/318 133/1/113
f 343/1/321 144/1/320 342/1/319
f 344/1/322 133/1/113 97/1/111
f 344/1/322 134/1/112 343/1/321
f 344/1/322 99/1/219 341/1/317
f 344/1/322 100/1/221 98/1/108
f 345/1/323 103/1/152 346/1/325
f 346/1/325 158/1/326 345/1/323
f 346/1/325 87/1/216 347/1/327
f 347/1/327 104/1/151 346/1/325
f 348/1/328 87/1/216 155/1/330
f 348/1/328 88/1/217 347/1/327
f 345/1/323 155/1/330 157/1/324
f 348/1/328 158/1/326 156/1/329
f 349/1/331 73/1/164 350/1/333
f 350/1/333 152/1/334 349/1/331
f 350/1/333 67/1/141 351/1/335
f 351/1/335 74/1/163 350/1/333
f 352/1/336 67/1/141 145/1/135
f 351/1/335 146/1/137 68/1/139
f 349/1/331 145/1/135 151/1/332
f 352/1/336 152/1/334 146/1/137
f 354/1/337 75/1/162 149/1/340
f 353/1/338 150/1/339 76/1/160
f 354/1/337 147/1/341 355/1/342
f 355/1/342 150/1/339 354/1/337
f 356/1/344 147/1/341 71/1/296
f 355/1/342 72/1/298 148/1/343
f 353/1/338 71/1/296 75/1/162
f 356/1/344 76/1/160 72/1/298
f 358/1/345 27/1/61 31/1/58
f 357/1/346 32/1/56 28/1/59
f 359/1/347 31/1/58 29/1/104
f 359/1/347 32/1/56 358/1/345
f 360/1/348 29/1/104 25/1/101
f 359/1/347 26/1/99 30/1/102
f 357/1/346 25/1/101 27/1/61
f 357/1/346 26/1/99 360/1/348
f 362/1/349 91/1/107 127/1/114
f 361/1/350 128/1/116 92/1/109
f 363/1/351 127/1/114 131/1/279
f 362/1/349 132/1/281 128/1/116
f 363/1/351 93/1/182 364/1/352
f 364/1/352 132/1/281 363/1/351
f 364/1/352 91/1/107 361/1/350
f 361/1/350 94/1/181 364/1/352
f 366/1/353 1/1/67 15/1/30
f 365/1/354 16/1/28 2/1/72
f 367/1/355 15/1/30 9/1/27
f 366/1/353 10/1/36 16/1/28
f 368/1/356 9/1/27 7/1/70
f 367/1/355 8/1/68 10/1/36
f 365/1/354 7/1/70 1/1/67
f 368/1/356 2/1/72 8/1/68
f 369/1/357 39/1/165 370/1/358
f 370/1/358 36/1/170 369/1/357
f 371/1/359 39/1/165 37/1/229
f 370/1/358 38/1/231 40/1/167
f 372/1/360 37/1/229 33/1/235
f 371/1/359 34/1/237 38/1/231
f 369/1/357 33/1/235 35/1/168
f 369/1/357 34/1/237 372/1/360
f 373/1/361 115/1/249 374/1/363
f 374/1/363 170/1/364 373/1/361
f 375/1/365 115/1/249 113/1/234
f 374/1/363 114/1/233 116/1/248
f 376/1/366 113/1/234 171/1/368
f 375/1/365 172/1/367 114/1/233
f 373/1/361 171/1/368 169/1/362
f 376/1/366 170/1/364 172/1/367
f 378/1/369 175/1/371 167/1/373
f 377/1/370 168/1/372 176/1/376
f 378/1/369 109/1/244 379/1/374
f 379/1/374 168/1/372 378/1/369
f 379/1/374 117/1/239 380/1/375
f 379/1/374 118/1/241 110/1/243
f 377/1/370 117/1/239 175/1/371
f 380/1/375 176/1/376 118/1/241
f 381/1/377 111/1/119 382/1/378
f 381/1/377 112/1/121 114/1/233
f 383/1/379 111/1/119 161/1/118
f 382/1/378 162/1/122 112/1/121
f 384/1/380 161/1/118 171/1/368
f 383/1/379 172/1/367 162/1/122
f 384/1/380 113/1/234 381/1/377
f 381/1/377 172/1/367 384/1/380
f 385/1/381 173/1/382 386/1/383
f 385/1/381 174/1/384 170/1/364
f 386/1/383 119/1/250 387/1/385
f 387/1/385 174/1/384 386/1/383
f 388/1/386 119/1/250 115/1/249
f 387/1/385 116/1/248 120/1/252
f 385/1/381 115/1/249 169/1/362
f 388/1/386 170/1/364 116/1/248
f 390/1/387 101/1/150 159/1/390
f 389/1/388 160/1/389 102/1/148
f 390/1/387 143/1/318 391/1/391
f 391/1/391 160/1/389 390/1/387
f 392/1/392 143/1/318 99/1/219
f 392/1/392 144/1/320 391/1/391
f 389/1/388 99/1/219 101/1/150
f 392/1/392 102/1/148 100/1/221
f 394/1/393 77/1/225 153/1/210
f 394/1/393 78/1/227 393/1/394
f 394/1/393 155/1/330 395/1/395
f 394/1/393 156/1/329 154/1/212
f 395/1/395 87/1/216 396/1/396
f 396/1/396 156/1/329 395/1/395
f 393/1/394 87/1/216 77/1/225
f 393/1/394 88/1/217 396/1/396
f 398/1/397 141/1/134 65/1/143
f 398/1/397 142/1/144 397/1/398
f 398/1/397 69/1/270 399/1/399
f 398/1/397 70/1/272 66/1/142
f 399/1/399 135/1/311 400/1/400
f 400/1/400 70/1/272 399/1/399
f 397/1/398 135/1/311 141/1/134
f 397/1/398 136/1/312 400/1/400
f 402/1/401 117/1/239 119/1/250
f 401/1/402 120/1/252 118/1/241
f 403/1/403 119/1/250 173/1/382
f 402/1/401 174/1/384 120/1/252
f 404/1/404 173/1/382 175/1/371
f 403/1/403 176/1/376 174/1/384
f 404/1/404 117/1/239 401/1/402
f 401/1/402 176/1/376 404/1/404
f 405/1/405 79/1/267 406/1/406
f 406/1/406 126/1/303 405/1/405
f 407/1/407 79/1/267 85/1/194
f 407/1/407 80/1/268 406/1/406
f 408/1/408 85/1/194 121/1/256
f 408/1/408 86/1/196 407/1/407
f 408/1/408 125/1/305 405/1/405
f 408/1/408 126/1/303 122/1/257
f 410/1/409 109/1/244 167/1/373
f 409/1/410 168/1/372 110/1/243
f 411/1/411 167/1/373 165/1/20
f 410/1/409 166/1/19 168/1/372
f 411/1/411 107/1/18 412/1/412
f 412/1/412 166/1/19 411/1/411
f 409/1/410 107/1/18 109/1/244
f 412/1/412 110/1/243 108/1/16
f 414/1/413 147/1/341 153/1/210
f 414/1/413 148/1/343 413/1/414
f 415/1/415 153/1/210 77/1/225
f 414/1/413 78/1/227 154/1/212
f 415/1/415 71/1/296 416/1/416
f 415/1/415 72/1/298 78/1/227
f 413/1/414 71/1/296 147/1/341
f 416/1/416 148/1/343 72/1/298
f 417/1/417 89/1/6 418/1/418
f 417/1/417 90/1/4 86/1/196
f 419/1/419 89/1/6 123/1/3
f 418/1/418 124/1/12 90/1/4
f 420/1/420 123/1/3 121/1/256
f 420/1/420 124/1/12 419/1/419
f 417/1/417 121/1/256 85/1/194
f 420/1/420 86/1/196 122/1/257
f 422/1/421 115/1/249 43/1/86
f 422/1/421 116/1/248 421/1/422
f 422/1/421 137/1/307 423/1/423
f 422/1/421 138/1/306 44/1/90
f 424/1/424 137/1/307 125/1/305
f 424/1/424 138/1/306 423/1/423
f 425/1/425 125/1/305 121/1/256
f 425/1/425 126/1/303 424/1/424
f 426/1/426 121/1/256 15/1/30
f 426/1/426 122/1/257 425/1/425
f 427/1/427 15/1/30 1/1/67
f 426/1/426 2/1/72 16/1/28
f 427/1/427 141/1/134 428/1/428
f 427/1/427 142/1/144 2/1/72
f 428/1/428 135/1/311 429/1/429
f 428/1/428 136/1/312 142/1/144
f 429/1/429 139/1/316 430/1/430
f 429/1/429 140/1/315 136/1/312
f 431/1/431 139/1/316 33/1/235
f 431/1/431 140/1/315 430/1/430
f 431/1/431 113/1/234 432/1/432
f 431/1/431 114/1/233 34/1/237
f 421/1/422 113/1/234 115/1/249
f 432/1/432 116/1/248 114/1/233
f 434/1/433 105/1/15 111/1/119
f 433/1/434 112/1/121 106/1/24
f 435/1/435 111/1/119 37/1/229
f 435/1/435 112/1/121 434/1/433
f 435/1/435 151/1/332 436/1/436
f 435/1/435 152/1/334 38/1/231
f 437/1/437 151/1/332 145/1/135
f 437/1/437 152/1/334 436/1/436
f 438/1/438 145/1/135 141/1/134
f 438/1/438 146/1/137 437/1/437
f 439/1/439 141/1/134 5/1/63
f 439/1/439 142/1/144 438/1/438
f 440/1/440 5/1/63 27/1/61
f 439/1/439 28/1/59 6/1/62
f 440/1/440 153/1/210 441/1/441
f 440/1/440 154/1/212 28/1/59
f 441/1/441 147/1/341 442/1/442
f 441/1/441 148/1/343 154/1/212
f 442/1/442 149/1/340 443/1/443
f 442/1/442 150/1/339 148/1/343
f 444/1/444 149/1/340 59/1/127
f 444/1/444 150/1/339 443/1/443
f 444/1/444 105/1/15 433/1/434
f 444/1/444 106/1/24 60/1/129
f 446/1/445 109/1/244 107/1/18
f 445/1/446 108/1/16 110/1/243
f 447/1/447 107/1/18 57/1/132
f 447/1/447 108/1/16 446/1/445
f 447/1/447 157/1/324 448/1/448
f 447/1/447 158/1/326 58/1/131
f 449/1/449 157/1/324 155/1/330
f 449/1/449 158/1/326 448/1/448
f 450/1/450 155/1/330 153/1/210
f 450/1/450 156/1/329 449/1/449
f 451/1/451 153/1/210 25/1/101
f 451/1/451 154/1/212 450/1/450
f 452/1/452 25/1/101 19/1/45
f 451/1/451 20/1/43 26/1/99
f 452/1/452 133/1/113 453/1/453
f 452/1/452 134/1/112 20/1/43
f 453/1/453 143/1/318 454/1/454
f 453/1/453 144/1/320 134/1/112
f 454/1/454 159/1/390 455/1/455
f 454/1/454 160/1/389 144/1/320
f 456/1/456 159/1/390 55/1/78
f 456/1/456 160/1/389 455/1/455
f 456/1/456 109/1/244 445/1/446
f 456/1/456 110/1/243 56/1/76
f 458/1/457 49/1/81 93/1/182
f 457/1/458 94/1/181 50/1/83
f 459/1/459 93/1/182 131/1/279
f 458/1/457 132/1/281 94/1/181
f 459/1/459 51/1/75 460/1/460
f 460/1/460 132/1/281 459/1/459
f 457/1/458 51/1/75 49/1/81
f 460/1/460 50/1/83 52/1/84
f 462/1/461 55/1/78 159/1/390
f 461/1/462 160/1/389 56/1/76
f 462/1/461 101/1/150 463/1/463
f 463/1/463 160/1/389 462/1/461
f 463/1/463 53/1/80 464/1/464
f 464/1/464 102/1/148 463/1/463
f 464/1/464 55/1/78 461/1/462
f 461/1/462 54/1/79 464/1/464
f 466/1/465 63/1/153 103/1/152
f 465/1/466 104/1/151 64/1/155
f 467/1/467 103/1/152 157/1/324
f 466/1/465 158/1/326 104/1/151
f 467/1/467 57/1/132 468/1/468
f 468/1/468 158/1/326 467/1/467
f 465/1/466 57/1/132 63/1/153
f 468/1/468 64/1/155 58/1/131
f 470/1/469 59/1/127 149/1/340
f 469/1/470 150/1/339 60/1/129
f 470/1/469 75/1/162 471/1/471
f 471/1/471 150/1/339 470/1/469
f 471/1/471 61/1/159 472/1/472
f 472/1/472 76/1/160 471/1/471
f 469/1/470 61/1/159 59/1/127
f 472/1/472 60/1/129 62/1/157
f 474/1/473 39/1/165 73/1/164
f 473/1/474 74/1/163 40/1/167
f 475/1/475 73/1/164 151/1/332
f 474/1/473 152/1/334 74/1/163
f 475/1/475 37/1/229 476/1/476
f 476/1/476 152/1/334 475/1/475
f 473/1/474 37/1/229 39/1/165
f 476/1/476 40/1/167 38/1/231
f 477/1/477 33/1/235 478/1/478
f 478/1/478 36/1/170 477/1/477
f 479/1/479 33/1/235 139/1/316
f 478/1/478 140/1/315 34/1/237
f 479/1/479 81/1/174 480/1/480
f 480/1/480 140/1/315 479/1/479
f 480/1/480 35/1/168 477/1/477
f 477/1/477 82/1/172 480/1/480
f 482/1/481 43/1/86 41/1/94
f 481/1/482 42/1/96 44/1/90
f 483/1/483 41/1/94 83/1/176
f 482/1/481 84/1/175 42/1/96
f 484/1/484 83/1/176 137/1/307
f 483/1/483 138/1/306 84/1/175
f 484/1/484 43/1/86 481/1/482
f 481/1/482 138/1/306 484/1/484
f 486/1/485 47/1/87 129/1/11
f 485/1/486 130/1/10 48/1/89
f 486/1/485 95/1/9 487/1/487
f 487/1/487 130/1/10 486/1/485
f 487/1/487 45/1/93 488/1/488
f 488/1/488 96/1/7 487/1/487
f 485/1/486 45/1/93 47/1/87
f 488/1/488 48/1/89 46/1/92
