# Blender 5.2.0 LTS
# www.blender.org
mtllib glass scope.mtl
o scope
v -0.956000 -0.039894 -0.039895
v -0.958928 -0.040356 -0.040355
v -0.955991 0.039865 -0.040008
v -0.958937 0.040381 -0.040242
v -0.956003 -0.000016 -0.056406
v -0.958925 0.000014 -0.057084
v -0.955999 -0.056426 0.000051
v -0.958929 -0.057064 -0.000051
v -0.955995 0.056447 -0.000066
v -0.958933 0.057041 0.000066
v -0.955997 0.039917 0.039885
v -0.958930 0.040329 0.040363
v -0.955991 -0.039867 0.040007
v -0.958937 -0.040383 0.040241
v -0.955998 -0.000001 0.056428
v -0.958930 -0.000001 0.057062
v -0.941681 -0.096678 -0.000012
v -0.944193 -0.098316 0.000012
v 0.955993 0.000102 -0.045419
v 0.958935 -0.000104 -0.045965
v 0.956000 -0.032098 0.032063
v 0.958928 -0.032522 0.032555
v 0.955993 -0.045420 -0.000103
v 0.958935 -0.045966 0.000103
v 0.956000 -0.032079 -0.032079
v 0.958928 -0.032541 -0.032541
v 0.955993 0.032042 0.032189
v 0.958935 0.032574 0.032429
v 0.956000 -0.000001 0.045366
v 0.958928 -0.000001 0.046018
v 0.956005 0.045344 0.000008
v 0.958923 0.046038 -0.000008
v 0.956005 0.032073 -0.032052
v 0.958923 0.032543 -0.032568
v -0.941691 -0.000004 -0.096662
v -0.944183 0.000002 -0.098334
v -0.941698 -0.068345 -0.068345
v -0.944177 -0.069539 -0.069539
v -0.941685 -0.000001 0.096672
v -0.944189 -0.000001 0.098324
v -0.941685 -0.068358 0.068357
v -0.944189 -0.069526 0.069525
v 0.944347 -0.000001 -0.077115
v 0.946763 -0.000001 -0.078893
v 0.944346 -0.054490 -0.054572
v 0.946764 -0.055826 -0.055742
v 0.944328 0.054553 -0.054541
v 0.946782 0.055759 -0.055773
v 0.944347 -0.054529 0.054528
v 0.946763 -0.055787 0.055786
v 0.944346 -0.077119 0.000059
v 0.946764 -0.078892 -0.000059
v 0.944347 0.054527 0.054528
v 0.946763 0.055785 0.055786
v 0.944380 0.077075 -0.000094
v 0.946730 0.078931 0.000094
v -0.915217 0.125445 0.000000
v -0.917425 0.127475 -0.000000
v -0.915217 0.088702 -0.088703
v -0.917425 0.090138 -0.090139
v -0.941684 0.068322 -0.068398
v -0.944190 0.069562 -0.069486
v -0.941684 0.096674 0.000054
v -0.944190 0.098320 -0.000054
v -0.915217 -0.000001 -0.125445
v -0.917425 -0.000001 -0.127475
v -0.941685 0.068356 0.068357
v -0.944189 0.069524 0.069525
v 0.926720 0.093426 0.000270
v 0.928384 0.095864 -0.000270
v 0.926534 0.066145 0.066145
v 0.928570 0.067703 0.067703
v 0.944347 -0.000001 0.077114
v 0.946763 -0.000001 0.078892
v 0.926534 -0.093545 0.000000
v 0.928570 -0.095747 0.000000
v 0.926534 -0.066146 0.066145
v 0.928570 -0.067704 0.067703
v -0.915217 -0.000001 0.125445
v -0.917425 -0.000001 0.127475
v -0.915217 0.088702 0.088702
v -0.917425 0.090138 0.090138
v 0.926534 -0.000001 -0.093545
v 0.928570 -0.000001 -0.095747
v 0.926534 -0.066146 -0.066145
v 0.928570 -0.067704 -0.067703
v -0.915217 -0.088702 -0.088703
v -0.917425 -0.090138 -0.090139
v -0.915217 -0.088702 0.088702
v -0.917425 -0.090138 0.090138
v -0.915217 -0.125445 0.000000
v -0.917425 -0.127475 0.000000
v 0.926720 0.065871 -0.066253
v 0.928384 0.067977 -0.067595
v 0.926534 -0.000001 0.093545
v 0.928570 -0.000001 0.095747
v -0.957464 0.055120 -0.000000
v -0.957464 0.038975 -0.038977
v -0.957464 -0.000001 -0.055121
v -0.957464 -0.038977 -0.038977
v -0.957464 -0.055121 -0.000000
v -0.957464 -0.038977 0.038976
v -0.957464 -0.000001 0.055121
v -0.957464 0.038975 0.038976
v -0.956924 -0.039710 -0.041811
v -0.956924 -0.001487 -0.057644
v -0.943477 -0.001487 -0.095368
v -0.943477 -0.066385 -0.068486
v 0.956908 0.046584 -0.001485
v 0.956908 0.033989 -0.031891
v 0.946111 0.054705 -0.052606
v 0.946111 0.075880 -0.001485
v -0.956924 0.057643 0.001486
v -0.956924 0.041810 0.039709
v -0.943477 0.068484 0.066384
v -0.943477 0.095367 0.001486
v 0.944414 0.056496 0.054467
v 0.944414 0.078463 0.001435
v 0.928693 0.092996 0.001435
v 0.928693 0.066773 0.064743
v 0.956908 0.031889 -0.033991
v 0.956908 0.001484 -0.046585
v 0.946111 0.001484 -0.075881
v 0.946111 0.052605 -0.054706
v -0.943477 0.068486 -0.066385
v -0.956924 0.041810 -0.039710
v -0.956924 0.057643 -0.001486
v -0.943477 0.095367 -0.001486
v 0.946111 0.054705 0.052606
v 0.956908 0.033989 0.031890
v 0.956908 0.046584 0.001485
v 0.946111 0.075880 0.001485
v 0.946111 0.001484 0.075880
v 0.956908 0.001484 0.046585
v 0.956908 0.031889 0.033990
v 0.946111 0.052605 0.054706
v -0.941879 -0.070354 -0.068312
v -0.917379 -0.089204 -0.087163
v -0.917379 -0.124711 -0.001444
v -0.941879 -0.098050 -0.001444
v -0.956924 -0.039710 0.041811
v -0.943477 -0.066385 0.068485
v -0.943477 -0.001487 0.095368
v -0.956924 -0.001487 0.057644
v -0.941879 -0.070354 0.068311
v -0.941879 -0.098050 0.001444
v -0.917379 -0.124711 0.001444
v -0.917379 -0.089204 0.087162
v -0.956924 0.039708 0.041811
v -0.956924 0.001485 0.057644
v -0.943477 0.001485 0.095368
v -0.943477 0.066383 0.068485
v 0.928693 -0.092997 0.001435
v 0.944414 -0.078465 0.001435
v 0.944414 -0.056498 0.054467
v 0.928693 -0.066774 0.064743
v 0.956908 -0.031891 0.033990
v 0.956908 -0.001486 0.046585
v 0.946111 -0.001486 0.075880
v 0.946111 -0.052607 0.054706
v -0.941879 0.068310 0.070353
v -0.941879 0.001443 0.098051
v -0.917379 0.001443 0.124711
v -0.917379 0.087162 0.089204
v 0.956908 -0.031891 -0.033991
v 0.946111 -0.052607 -0.054706
v 0.946111 -0.001486 -0.075881
v 0.956908 -0.001486 -0.046585
v -0.956924 -0.041811 0.039709
v -0.956924 -0.057644 0.001486
v -0.943477 -0.095367 0.001486
v -0.943477 -0.068486 0.066384
v 0.944414 0.054467 -0.056497
v 0.944414 0.001434 -0.078464
v 0.928693 0.001434 -0.092997
v 0.928693 0.064743 -0.066773
v 0.928693 -0.001436 -0.092997
v 0.944414 -0.001436 -0.078464
v 0.944414 -0.054468 -0.056497
v 0.928693 -0.064744 -0.066773
v 0.956908 -0.046586 0.001485
v 0.956908 -0.033991 0.031890
v 0.946111 -0.054707 0.052606
v 0.946111 -0.075882 0.001485
v -0.917379 0.001443 -0.124711
v -0.941879 0.001443 -0.098051
v -0.941879 0.068312 -0.070354
v -0.917379 0.087162 -0.089205
v -0.956924 0.039708 -0.041811
v -0.943477 0.066385 -0.068486
v -0.943477 0.001485 -0.095368
v -0.956924 0.001485 -0.057644
v -0.941879 -0.068312 -0.070354
v -0.941879 -0.001445 -0.098051
v -0.917379 -0.001445 -0.124711
v -0.917379 -0.087162 -0.089205
v -0.941879 0.070354 -0.068312
v -0.941879 0.098050 -0.001444
v -0.917379 0.124711 -0.001444
v -0.917379 0.089204 -0.087163
v 0.946111 -0.054707 -0.052606
v 0.956908 -0.033991 -0.031891
v 0.956908 -0.046586 -0.001485
v 0.946111 -0.075882 -0.001485
v -0.941879 0.098050 0.001444
v -0.941879 0.070352 0.068311
v -0.917379 0.089204 0.087162
v -0.917379 0.124711 0.001444
v 0.928693 0.001434 0.092997
v 0.944414 0.001434 0.078463
v 0.944414 0.054467 0.056497
v 0.928693 0.064743 0.066773
v 0.944414 -0.054468 0.056497
v 0.944414 -0.001436 0.078463
v 0.928693 -0.001436 0.092997
v 0.928693 -0.064744 0.066773
v 0.928693 0.092996 -0.001435
v 0.944414 0.078463 -0.001435
v 0.944414 0.056496 -0.054467
v 0.928693 0.066773 -0.064743
v -0.956924 -0.057644 -0.001486
v -0.956924 -0.041811 -0.039710
v -0.943477 -0.068486 -0.066385
v -0.943477 -0.095367 -0.001486
v -0.941879 -0.068312 0.070353
v -0.917379 -0.087162 0.089204
v -0.917379 -0.001445 0.124711
v -0.941879 -0.001445 0.098051
v 0.944414 -0.056498 -0.054467
v 0.944414 -0.078465 -0.001435
v 0.928693 -0.092997 -0.001435
v 0.928693 -0.066774 -0.064743
v 0.957464 -0.031162 0.031161
v 0.957464 -0.044069 -0.000000
v 0.957464 -0.031162 -0.031162
v 0.957464 -0.000001 -0.044068
v 0.957464 0.031160 -0.031162
v 0.957464 0.044067 -0.000000
v 0.957464 0.031160 0.031161
v 0.957464 -0.000001 0.044068
vn -0.4850 0.7665 -0.4209
vn -0.5920 0.6410 -0.4885
vn -0.7874 0.5560 -0.2664
vn 0.6167 0.7305 -0.2935
vn 0.7769 0.6285 -0.0362
vn 0.8786 0.4110 -0.2431
vn -0.5036 0.4438 -0.7412
vn -0.6672 0.0825 -0.7403
vn -0.7813 0.3011 -0.5468
vn 0.6327 0.3841 -0.6724
vn 0.6419 0.4059 -0.6506
vn 0.8307 0.3597 -0.4249
vn -0.4709 -0.2539 -0.8448
vn -0.4902 -0.4493 -0.7469
vn -0.7190 -0.4118 -0.5600
vn 0.6518 -0.4004 -0.6440
vn 0.6719 -0.1309 -0.7290
vn 0.8617 -0.0636 -0.5034
vn -0.4541 -0.8248 -0.3369
vn -0.5130 -0.8409 -0.1724
vn -0.7456 -0.6536 -0.1301
vn 0.6382 -0.7391 -0.2154
vn 0.7246 -0.5306 -0.4398
vn 0.8900 -0.4055 -0.2088
vn -0.4807 -0.7688 0.4218
vn -0.5880 -0.6442 0.4891
vn -0.7846 -0.5591 0.2680
vn 0.6199 -0.7279 0.2930
vn 0.7796 -0.6253 0.0354
vn 0.8808 -0.4071 0.2417
vn -0.5074 -0.4437 0.7387
vn -0.6703 -0.0819 0.7376
vn -0.7841 -0.3000 0.5433
vn 0.6289 -0.3852 0.6753
vn 0.6384 -0.4064 0.6536
vn 0.8281 -0.3615 0.4284
vn -0.4725 0.2549 0.8437
vn -0.4914 0.4485 0.7465
vn -0.7197 0.4120 0.5588
vn 0.6497 0.4016 0.6455
vn 0.6699 0.1307 0.7309
vn 0.8603 0.0652 0.5056
vn -0.4594 0.8225 0.3352
vn -0.5186 0.8379 0.1702
vn -0.7498 0.6489 0.1290
vn 0.6336 0.7424 0.2177
vn 0.7215 0.5335 0.4414
vn 0.8874 0.4103 0.2102
vn -0.7884 0.3653 0.4949
vn -0.9332 0.2582 0.2498
vn -0.9251 0.0096 0.3796
vn 0.3193 0.2950 0.9006
vn 0.5294 0.1553 0.8341
vn 0.5224 0.5033 0.6883
vn -0.5632 0.8253 -0.0417
vn -0.5722 0.7690 -0.2850
vn -0.6883 0.5846 -0.4296
vn 0.3577 0.9088 0.2147
vn 0.5432 0.6638 0.5141
vn 0.7505 0.6501 0.1191
vn -0.0350 -0.2956 -0.9547
vn -0.0348 -0.4664 -0.8839
vn -0.3911 -0.6092 -0.6899
vn 0.8195 -0.3400 -0.4613
vn 0.8194 -0.0854 -0.5668
vn 0.9505 0.1933 -0.2433
vn -0.5665 -0.6121 0.5517
vn -0.8683 -0.3695 0.3308
vn -0.6757 -0.7315 0.0913
vn 0.3555 -0.4924 0.7945
vn 0.5503 -0.5582 0.6210
vn 0.7665 -0.3634 0.5295
vn 0.8002 -0.5903 0.1059
vn 0.9297 -0.3683 0.0001
vn 0.9300 -0.2601 0.2597
vn -0.3035 -0.8492 0.4321
vn -0.5211 -0.7012 0.4866
vn -0.5218 -0.8394 0.1520
vn 0.5293 -0.5263 -0.6655
vn 0.5657 -0.3385 -0.7519
vn 0.6834 -0.0978 -0.7234
vn -0.3513 -0.8291 -0.4349
vn -0.6075 -0.7913 -0.0698
vn -0.7524 -0.5451 -0.3698
vn 0.0449 0.9702 -0.2382
vn 0.4555 0.8864 -0.0830
vn 0.4569 0.6852 -0.5672
vn -0.8278 0.4840 -0.2835
vn -0.9299 0.0772 -0.3596
vn -0.9306 0.3061 0.2008
vn 0.5260 0.0981 0.8448
vn 0.8265 -0.0145 0.5628
vn 0.6811 0.4412 0.5843
vn -0.3605 -0.2833 0.8887
vn -0.5610 -0.0780 0.8241
vn -0.7607 -0.1273 0.6365
vn -0.7777 -0.6048 -0.1716
vn -0.8932 -0.4496 0.0036
vn -0.8947 -0.3132 -0.3183
vn 0.3494 -0.8117 -0.4680
vn 0.5853 -0.6848 -0.4341
vn 0.5873 -0.7895 -0.1786
vn -0.5806 -0.5220 0.6249
vn -0.5750 -0.2875 0.7660
vn -0.7370 -0.0952 0.6691
vn 0.3928 -0.7887 0.4729
vn 0.5639 -0.8149 0.1341
vn 0.7203 -0.5372 0.4389
vn -0.0839 0.9505 0.2991
vn -0.4026 0.9105 0.0943
vn -0.4045 0.7104 0.5760
vn 0.8352 0.4534 0.3112
vn 0.9514 0.0790 0.2978
vn 0.9520 0.2645 -0.1543
vn -0.5856 0.0780 -0.8068
vn -0.8519 0.0486 -0.5214
vn -0.7413 0.4062 -0.5343
vn 0.3860 -0.2238 -0.8949
vn 0.5122 -0.1111 -0.8516
vn 0.7157 -0.0672 -0.6951
vn 0.9962 -0.0804 0.0335
vn 0.9322 -0.1984 -0.3028
vn 0.9448 0.2728 -0.1813
vn 0.2637 -0.8250 -0.4999
vn 0.0198 -0.9241 -0.3817
vn -0.0423 -0.9474 -0.3174
vn 0.3302 0.5080 -0.7956
vn 0.5023 0.5559 -0.6624
vn 0.4826 0.6300 -0.6085
vn -0.1388 -0.5591 -0.8174
vn -0.5233 -0.6317 -0.5719
vn -0.4741 -0.4774 -0.7398
vn -0.1182 0.9866 0.1120
vn -0.1075 0.7760 0.6215
vn 0.2680 0.8790 0.3943
vn -0.9800 0.1962 -0.0335
vn -0.9810 0.1134 0.1576
vn -0.9706 0.1613 -0.1786
vn 0.3425 -0.1905 0.9200
vn 0.6232 -0.2639 0.7362
vn 0.3543 0.2847 0.8907
vn -0.1321 -0.9693 0.2073
vn -0.3640 -0.7358 0.5711
vn -0.6938 -0.6873 0.2151
vn 0.7752 -0.3125 0.5491
vn 0.8952 -0.3221 0.3081
vn 0.8960 0.0101 0.4439
vn -0.3459 -0.2390 0.9073
vn -0.5891 -0.1712 0.7897
vn -0.5911 -0.4354 0.6790
vn 0.5623 -0.8260 -0.0388
vn 0.5637 -0.7504 -0.3451
vn 0.7308 -0.5409 -0.4164
vn -0.3724 -0.9027 0.2155
vn -0.5400 -0.6599 0.5224
vn -0.7312 -0.6780 0.0752
vn 0.0147 0.4603 -0.8877
vn 0.3652 0.6149 -0.6989
vn 0.3655 0.0597 -0.9289
vn -0.8319 0.3379 -0.4402
vn -0.8324 0.0728 -0.5494
vn -0.9558 -0.1992 -0.2163
vn 0.5755 0.6101 0.5446
vn 0.8737 0.3740 0.3111
vn 0.7382 0.6703 0.0759
vn -0.3492 0.4977 0.7939
vn -0.5048 0.5283 0.6827
vn -0.7159 0.4416 0.5409
vn -0.6355 -0.4404 -0.6343
vn -0.8308 -0.3183 -0.4566
vn -0.7542 -0.0732 -0.6525
vn 0.4305 -0.7787 -0.4564
vn 0.4927 -0.6848 -0.5370
vn 0.6995 -0.5465 -0.4605
vn -0.7724 -0.5558 0.3074
vn -0.8890 -0.3231 0.3244
vn -0.8919 -0.4523 -0.0009
vn 0.3569 -0.9022 0.2423
vn 0.5917 -0.7869 0.1751
vn 0.5952 -0.6796 0.4287
vn -0.6144 0.1276 0.7786
vn -0.5777 0.3380 0.7429
vn -0.7385 0.4064 0.5381
vn 0.4548 -0.2345 0.8591
vn 0.5961 -0.4179 0.6856
vn 0.7195 -0.0692 0.6911
vn -0.1386 0.9413 -0.3078
vn -0.1387 0.8834 -0.4477
vn -0.3897 0.7592 -0.5213
vn 0.8712 0.4776 -0.1138
vn 0.9546 0.2847 0.0874
vn 0.9547 0.1395 -0.2630
vn 0.5898 -0.5329 0.6068
vn 0.8820 -0.2979 0.3652
vn 0.7489 -0.0636 0.6596
vn -0.3394 -0.7947 0.5032
vn -0.4949 -0.6875 0.5314
vn -0.7071 -0.5443 0.4514
vn 0.7804 -0.5460 -0.3047
vn 0.8963 -0.3043 -0.3226
vn 0.8989 -0.4381 0.0128
vn -0.3356 -0.9103 -0.2422
vn -0.5799 -0.7957 -0.1747
vn -0.5827 -0.6860 -0.4358
vn 0.5896 0.0439 -0.8065
vn 0.5861 0.3514 -0.7301
vn 0.7458 0.4229 -0.5148
vn -0.3461 -0.2022 -0.9161
vn -0.5171 -0.5148 -0.6837
vn -0.7120 -0.0688 -0.6988
vn -0.0053 0.8902 0.4556
vn 0.3428 0.7060 0.6197
vn 0.3478 0.9355 0.0628
vn -0.8413 0.5363 0.0679
vn -0.9577 0.2018 -0.2054
vn -0.9587 -0.0042 0.2845
vn 0.5746 -0.8172 0.0448
vn 0.8731 -0.4855 0.0446
vn 0.7378 -0.5288 0.4195
vn -0.3545 -0.9111 -0.2105
vn -0.5093 -0.8534 -0.1114
vn -0.7194 -0.6909 -0.0714
vn 0.7724 -0.1691 -0.6122
vn 0.8932 0.0083 -0.4497
vn 0.8940 -0.3227 -0.3107
vn -0.3504 -0.4715 -0.8093
vn -0.5929 -0.4363 -0.6769
vn -0.5946 -0.1712 -0.7856
vn 0.5623 0.6115 -0.5567
vn 0.5637 0.7747 -0.2866
vn 0.7308 0.6769 -0.0880
vn -0.3723 0.4860 -0.7907
vn -0.5400 0.0972 -0.8360
vn -0.7312 0.4263 -0.5326
vn 0.0107 0.3020 0.9532
vn 0.3619 0.0600 0.9303
vn 0.3619 0.6153 0.7003
vn -0.8350 0.0709 0.5457
vn -0.8350 0.3357 0.4360
vn -0.9564 0.2919 0.0076
vn -0.3917 0.2084 -0.8962
vn -0.3439 0.2080 -0.9157
vn -0.4260 -0.2158 -0.8786
vn 0.2012 0.9555 -0.2155
vn 0.5626 0.8262 -0.0283
vn 0.7008 0.6734 -0.2354
vn 0.0362 -0.7963 -0.6038
vn 0.0363 -0.9900 -0.1361
vn -0.3232 -0.8854 -0.3342
vn 0.9569 -0.2165 -0.1936
vn 0.9569 -0.2900 -0.0162
vn 0.9588 -0.0994 -0.2662
vn -0.3912 -0.4858 0.7817
vn -0.6364 -0.2963 0.7122
vn -0.4268 -0.7737 0.4682
vn 0.2032 0.5245 0.8268
vn 0.4009 0.1221 0.9079
vn 0.7019 0.3096 0.6415
vn -0.9211 0.3861 -0.0507
vn -0.9662 -0.0023 -0.2576
vn -0.9665 -0.1833 0.1797
vn -0.1602 0.8580 0.4881
vn 0.2360 0.7474 0.6211
vn 0.2363 0.9675 0.0900
vn -0.5717 -0.6267 -0.5295
vn -0.5682 -0.7686 -0.2939
vn -0.7320 -0.6735 -0.1028
vn 0.4058 -0.4655 -0.7865
vn 0.5729 -0.1246 -0.8101
vn 0.7290 -0.4302 -0.5324
vn -0.0778 -0.2991 0.9511
vn -0.3976 -0.0953 0.9126
vn -0.3976 -0.5779 0.7127
vn 0.8364 -0.0979 0.5393
vn 0.8364 -0.3121 0.4506
vn 0.9522 -0.2957 0.0764
vn -0.5836 0.8086 0.0742
vn -0.8507 0.5234 0.0494
vn -0.7391 0.5372 0.4065
vn 0.3892 0.8939 -0.2223
vn 0.5140 0.8508 -0.1089
vn 0.7176 0.6930 -0.0685
vn -0.7706 0.1722 -0.6137
vn -0.8896 0.0005 -0.4567
vn -0.8905 0.3216 -0.3219
vn 0.3624 0.4663 -0.8070
vn 0.5965 0.4315 -0.6768
vn 0.5982 0.1741 -0.7822
vn -0.9196 0.3899 0.0484
vn -0.9196 0.2407 -0.3106
vn -0.9667 -0.1800 -0.1819
vn -0.1589 0.8576 -0.4891
vn -0.1587 0.9525 -0.2599
vn 0.2386 0.9669 -0.0900
vn -0.3935 -0.4881 -0.7790
vn -0.3445 -0.5038 -0.7921
vn -0.4288 -0.7748 -0.4645
vn 0.2003 0.5226 -0.8287
vn 0.5620 0.5636 -0.6054
vn 0.7001 0.3076 -0.6444
vn 0.0362 -0.7963 0.6038
vn -0.3232 -0.8624 0.3898
vn -0.3232 -0.8853 0.3343
vn 0.9569 -0.2164 0.1936
vn 0.9588 -0.2584 -0.1180
vn 0.9588 -0.0993 0.2662
vn -0.3921 0.2077 0.8961
vn -0.6372 0.2928 0.7129
vn -0.4273 -0.2171 0.8777
vn 0.2016 0.9555 0.2152
vn 0.3996 0.7281 0.5569
vn 0.7009 0.6730 0.2362
vn -0.7792 -0.3068 -0.5465
vn -0.8948 -0.3186 -0.3126
vn -0.8952 0.0042 -0.4457
vn 0.3482 -0.2430 -0.9054
vn 0.5844 -0.1780 -0.7917
vn 0.5848 -0.4335 -0.6856
vn -0.5836 -0.8086 0.0741
vn -0.5775 -0.7423 0.3398
vn -0.7390 -0.5372 0.4065
vn 0.3891 -0.8940 -0.2223
vn 0.5614 -0.6738 -0.4804
vn 0.7176 -0.6931 -0.0684
vn -0.0778 0.4611 0.8840
vn -0.3975 0.5779 0.7127
vn -0.3976 0.0954 0.9126
vn 0.8364 0.3122 0.4506
vn 0.8364 0.0980 0.5394
vn 0.9522 -0.1551 0.2631
vn -0.5867 0.6235 -0.5167
vn -0.8527 0.4030 -0.3324
vn -0.7412 0.6652 -0.0897
vn 0.3856 0.4769 -0.7899
vn 0.5108 0.5264 -0.6797
vn 0.7149 0.4445 -0.5398
vn 0.3372 -0.5095 -0.7916
vn 0.6188 -0.3288 -0.7134
vn 0.3500 -0.8281 -0.4380
vn -0.1393 0.5443 -0.8272
vn -0.3716 0.1213 -0.9204
vn -0.6981 0.3392 -0.6306
vn 0.9286 0.2076 -0.3075
vn 0.9287 0.3633 0.0740
vn 0.9470 -0.0588 0.3159
vn 0.2448 0.9407 -0.2348
vn 0.2427 0.8309 -0.5007
vn -0.2051 0.7373 -0.6437
vn 0.3424 0.1907 0.9200
vn 0.2746 0.1859 0.9434
vn 0.3543 -0.2847 0.8907
vn -0.1320 0.9693 0.2072
vn -0.5174 0.8556 -0.0150
vn -0.6938 0.6873 0.2151
vn -0.1162 -0.9869 0.1123
vn 0.2694 -0.9017 0.3382
vn 0.2694 -0.8768 0.3983
vn -0.9717 -0.2357 -0.0128
vn -0.9663 -0.0279 0.2560
vn -0.9663 -0.2007 -0.1615
vn 0.7812 0.3077 -0.5432
vn 0.8984 0.3197 -0.3012
vn 0.8987 -0.0131 -0.4383
vn -0.3358 0.2410 -0.9106
vn -0.5803 0.1750 -0.7954
vn -0.5808 0.4381 -0.6861
vn 0.5745 0.8173 0.0448
vn 0.5732 0.7411 0.3496
vn 0.7378 0.5289 0.4195
vn -0.3545 0.9111 -0.2104
vn -0.5281 0.6729 -0.5180
vn -0.7194 0.6910 -0.0714
vn 0.0106 -0.4604 0.8876
vn 0.3619 -0.6153 0.7003
vn 0.3619 -0.0600 0.9303
vn -0.8350 -0.0709 0.5457
vn -0.9564 0.2010 0.2117
vn -0.9564 -0.2918 0.0076
vn 0.5779 -0.6090 -0.5434
vn 0.8750 -0.3728 -0.3088
vn 0.7400 -0.6685 -0.0743
vn -0.3507 -0.4974 -0.7935
vn -0.5059 -0.5265 -0.6833
vn -0.7166 -0.4411 -0.5403
vn -0.9200 -0.3101 -0.2395
vn -0.9665 -0.1815 0.1813
vn -0.9666 0.2565 -0.0001
vn -0.1593 -0.2606 -0.9522
vn 0.2376 -0.0897 -0.9672
vn 0.2376 -0.6205 -0.7474
vn -0.3921 -0.7806 0.4867
vn -0.3437 -0.7937 0.5019
vn -0.4273 -0.4671 0.7741
vn 0.2015 -0.8279 -0.5234
vn 0.5629 -0.6039 -0.5644
vn 0.7009 -0.6429 -0.3089
vn 0.0362 0.1362 0.9900
vn 0.0363 0.6038 0.7963
vn -0.3232 0.3898 0.8623
vn 0.9569 0.1935 0.2164
vn 0.9588 -0.1181 0.2584
vn 0.9588 0.2662 0.0993
vn -0.3922 0.8961 -0.2078
vn -0.6372 0.7129 -0.2928
vn -0.4273 0.8776 0.2171
vn 0.2016 0.2152 -0.9555
vn 0.3996 0.5569 -0.7281
vn 0.7009 0.2362 -0.6730
vn 0.5662 -0.6135 0.5505
vn 0.5657 -0.7747 0.2827
vn 0.7328 -0.6752 0.0844
vn -0.3616 -0.4892 0.7937
vn -0.5353 -0.1026 0.8384
vn -0.7256 -0.4316 0.5359
vn 0.0175 -0.4602 -0.8877
vn 0.0173 -0.2994 -0.9540
vn 0.3700 -0.0597 -0.9271
vn -0.8338 -0.0741 -0.5470
vn -0.8340 -0.3364 -0.4374
vn -0.9562 -0.2924 -0.0091
vn 0.5898 0.8058 -0.0523
vn 0.8820 0.4689 -0.0476
vn 0.7489 0.5114 -0.4215
vn -0.3394 0.9178 0.2062
vn -0.4949 0.8619 0.1104
vn -0.7070 0.7041 0.0658
vn 0.7784 0.1714 0.6039
vn 0.8950 -0.0118 0.4459
vn 0.8972 0.3205 0.3038
vn -0.3383 0.4729 0.8136
vn -0.5824 0.4381 0.6847
vn -0.5848 0.1764 0.7918
vn -0.7753 0.5526 -0.3058
vn -0.8908 0.3195 -0.3230
vn -0.8938 0.4485 0.0024
vn 0.3528 0.9035 -0.2434
vn 0.5881 0.7894 -0.1760
vn 0.5915 0.6822 -0.4299
vn -0.5781 -0.0713 -0.8129
vn -0.5731 -0.3367 -0.7471
vn -0.7351 -0.4057 -0.5432
vn 0.3954 0.2237 -0.8908
vn 0.5655 0.4820 -0.6693
vn 0.7221 0.0703 -0.6882
vn -0.0777 -0.8841 0.4607
vn -0.3973 -0.7128 0.5780
vn -0.3976 -0.9126 0.0952
vn 0.8357 -0.5403 0.0983
vn 0.9520 -0.2641 -0.1547
vn 0.9521 -0.0771 0.2958
vn -0.5981 0.5066 0.6209
vn -0.8599 0.3220 0.3960
vn -0.7500 0.0794 0.6567
vn 0.3749 0.7915 0.4827
vn 0.5002 0.6838 0.5312
vn 0.7057 0.5436 0.4544
vn 0.9272 -0.3076 0.2137
vn 0.9476 -0.1885 -0.2581
vn 0.9479 0.3144 -0.0510
vn 0.2439 -0.2333 0.9413
vn -0.2040 -0.0663 0.9767
vn -0.2053 -0.6428 0.7380
vn 0.3424 -0.7854 -0.5157
vn 0.2747 -0.7986 -0.5356
vn 0.3543 -0.4286 -0.8311
vn -0.1320 -0.8320 0.5389
vn -0.5175 -0.5944 0.6156
vn -0.6938 -0.6380 0.3340
vn -0.1182 0.6185 -0.7768
vn 0.2673 0.3982 -0.8775
vn 0.2680 0.3428 -0.9004
vn -0.9800 0.1623 -0.1151
vn -0.9721 -0.1696 -0.1622
vn -0.9706 0.2403 0.0122
vn 0.3234 0.9216 0.2148
vn 0.6025 0.7416 0.2951
vn 0.3469 0.9020 -0.2570
vn -0.1498 0.1716 0.9737
vn -0.3893 0.5305 0.7530
vn -0.7142 0.1756 0.6775
vn 0.3424 0.7853 -0.5158
vn 0.6231 0.7073 -0.3339
vn 0.3543 0.4286 -0.8311
vn -0.1320 0.8319 0.5389
vn -0.3640 0.9241 0.1165
vn -0.6938 0.6381 0.3339
vn 0.9286 -0.0707 0.3643
vn 0.9469 -0.3166 -0.0558
vn 0.9470 0.1818 -0.2649
vn 0.2447 0.4992 0.8312
vn -0.2023 0.6444 0.7374
vn -0.2051 0.0661 0.9765
vn 0.3374 -0.9200 0.1996
vn 0.2715 -0.9425 0.1951
vn 0.3501 -0.8951 -0.2760
vn -0.1393 -0.2002 0.9698
vn -0.5221 0.0242 0.8525
vn -0.6981 -0.2060 0.6857
vn -0.1161 -0.6185 -0.7772
vn -0.1162 -0.1123 -0.9868
vn 0.2693 -0.3382 -0.9017
vn -0.9718 0.0127 -0.2357
vn -0.9663 -0.2560 -0.0278
vn -0.9663 0.1615 -0.2006
vn 0.7774 0.6051 -0.1717
vn 0.8944 0.4471 0.0114
vn 0.8969 0.3046 -0.3205
vn -0.3398 0.8132 -0.4724
vn -0.5837 0.6837 -0.4381
vn -0.5865 0.7906 -0.1759
vn 0.5714 0.5489 0.6101
vn 0.5706 0.2798 0.7721
vn 0.7358 0.0801 0.6725
vn -0.3584 0.7925 0.4934
vn -0.5308 0.8408 0.1068
vn -0.7222 0.5376 0.4353
vn 0.0175 -0.9531 0.3023
vn 0.3676 -0.9281 0.0589
vn 0.3700 -0.6978 0.6134
vn -0.8338 -0.4392 0.3345
vn -0.9557 -0.0104 0.2943
vn -0.9563 -0.2132 -0.2003
vn 0.5818 -0.0523 -0.8116
vn 0.8774 -0.0446 -0.4777
vn 0.7442 -0.4199 -0.5195
vn -0.3468 0.2111 -0.9139
vn -0.5031 0.1143 -0.8567
vn -0.7136 0.0683 -0.6973
vn -0.3922 -0.7805 -0.4868
vn -0.6373 -0.7110 -0.2972
vn -0.4269 -0.4674 -0.7741
vn 0.2010 -0.8282 0.5231
vn 0.3996 -0.9087 0.1205
vn 0.7006 -0.6432 0.3090
vn -0.9203 0.0507 0.3879
vn -0.9665 0.2566 -0.0011
vn -0.9666 -0.1789 -0.1836
vn -0.1576 -0.4878 0.8586
vn 0.2382 -0.6208 0.7469
vn 0.2404 -0.0890 0.9666
vn -0.3868 0.8966 0.2154
vn -0.3400 0.9157 0.2142
vn -0.4231 0.8815 -0.2095
vn 0.2082 0.2087 0.9556
vn 0.5675 0.0197 0.8232
vn 0.7051 0.2282 0.6714
vn 0.0362 0.6038 -0.7963
vn 0.0363 0.1361 -0.9900
vn -0.3232 0.3342 -0.8853
vn 0.9569 0.1936 -0.2164
vn 0.9569 0.0162 -0.2899
vn 0.9588 0.2662 -0.0994
vn -0.5639 0.6302 0.5338
vn -0.5610 0.7718 0.2995
vn -0.7271 0.6777 0.1096
vn 0.4121 0.4599 0.7865
vn 0.5791 0.1186 0.8066
vn 0.7345 0.4245 0.5295
vn -0.0821 0.4604 -0.8839
vn -0.0818 0.2967 -0.9515
vn -0.4029 0.0954 -0.9103
vn 0.8363 0.1000 -0.5391
vn 0.8363 0.3125 -0.4505
vn 0.9523 0.2953 -0.0762
vn -0.5863 -0.8067 -0.0747
vn -0.8524 -0.5205 -0.0501
vn -0.7402 -0.5350 -0.4073
vn 0.3863 -0.8955 0.2211
vn 0.5118 -0.8523 0.1078
vn 0.7159 -0.6949 0.0681
vn -0.7733 -0.1705 0.6107
vn -0.8916 0.0010 0.4528
vn -0.8924 -0.3201 0.3181
vn 0.3581 -0.4673 0.8083
vn 0.5929 -0.4325 0.6793
vn 0.5948 -0.1751 0.7846
vn -0.9221 -0.0525 0.3834
vn -0.9220 0.3087 0.2338
vn -0.9661 0.1785 -0.1866
vn -0.1640 0.4881 0.8572
vn -0.1642 0.2607 0.9514
vn 0.2327 0.0901 0.9684
vn -0.3916 0.7812 -0.4863
vn -0.3436 0.7945 -0.5007
vn -0.4264 0.4684 -0.7738
vn 0.2018 0.8277 0.5237
vn 0.5631 0.6036 0.5645
vn 0.7011 0.6423 0.3095
vn 0.0362 -0.1361 -0.9900
vn 0.0363 -0.6038 -0.7963
vn -0.3231 -0.3898 -0.8624
vn 0.9569 -0.1936 -0.2164
vn 0.9588 0.1180 -0.2585
vn 0.9588 -0.2662 -0.0993
vn -0.3917 -0.8962 0.2084
vn -0.6368 -0.7130 0.2934
vn -0.4261 -0.8786 -0.2158
vn 0.2013 -0.2155 0.9555
vn 0.4004 -0.5571 0.7275
vn 0.7008 -0.2355 0.6734
vn -0.9552 -0.2958 0.0004
vn -0.9552 -0.2096 0.2088
vn -0.9852 0.0744 0.1545
vn -0.0597 -0.9556 0.2885
vn 0.2165 -0.9554 0.2008
vn 0.2166 -0.8176 0.5335
vn -0.3976 0.4921 0.7744
vn -0.4299 0.5421 0.7220
vn -0.5080 0.7048 0.4951
vn 0.1951 -0.5190 0.8322
vn 0.5584 -0.5606 0.6114
vn 0.6130 -0.3238 0.7207
vn 0.0363 0.7963 -0.6038
vn -0.3232 0.8624 -0.3897
vn -0.3232 0.8853 -0.3342
vn 0.9569 0.2900 -0.0161
vn 0.9569 0.2165 -0.1936
vn 0.9588 0.2586 0.1180
vn -0.3976 -0.1996 -0.8956
vn -0.6418 -0.2855 -0.7118
vn -0.5081 0.1484 -0.8484
vn 0.1950 -0.9555 -0.2215
vn 0.3980 -0.7878 -0.4701
vn 0.6129 -0.7386 -0.2807
vn 0.6194 0.4559 -0.6391
vn 0.8290 0.3219 -0.4573
vn 0.7427 0.0701 -0.6659
vn -0.4306 0.7822 -0.4502
vn -0.5013 0.6831 -0.5310
vn -0.7131 0.5420 -0.4447
vn 0.7724 0.5525 0.3133
vn 0.8932 0.3120 0.3239
vn 0.8941 0.4478 -0.0084
vn -0.3504 0.9056 0.2388
vn -0.5928 0.7871 0.1702
vn -0.5947 0.6765 0.4344
vn 0.6083 -0.1240 0.7840
vn 0.5714 -0.3469 0.7438
vn 0.7360 -0.4182 0.5324
vn -0.4476 0.2394 0.8616
vn -0.5917 0.4369 0.6775
vn -0.7252 0.0728 0.6847
vn 0.0981 -0.8863 -0.4526
vn 0.3656 -0.7616 -0.5351
vn 0.3657 -0.9169 -0.1602
vn -0.8806 -0.3992 -0.2552
vn -0.8806 -0.4627 -0.1019
vn -0.9605 -0.2550 0.1112
vn -0.9197 -0.2404 -0.3105
vn -0.9199 -0.3886 0.0523
vn -0.9668 0.0015 0.2554
vn -0.1556 -0.9523 -0.2625
vn -0.1540 -0.8585 -0.4891
vn 0.2423 -0.7460 -0.6202
vn -0.3921 -0.2078 0.8961
vn -0.3437 -0.2063 0.9161
vn -0.4273 0.2171 0.8777
vn 0.2016 -0.9555 0.2153
vn 0.5629 -0.8261 0.0280
vn 0.7010 -0.6730 0.2362
vn 0.0363 0.7963 0.6038
vn 0.0363 0.9900 0.1361
vn -0.3232 0.8854 0.3341
vn 0.9569 0.2900 0.0162
vn 0.9588 0.0993 0.2663
vn 0.9588 0.2585 -0.1180
vn -0.3868 0.4816 -0.7864
vn -0.6328 0.2929 -0.7168
vn -0.4230 0.7715 -0.4753
vn 0.2082 -0.5280 -0.8233
vn 0.4067 -0.1252 -0.9050
vn 0.7051 -0.3135 -0.6361
vn 0.3424 -0.7853 0.5158
vn 0.6232 -0.7072 0.3339
vn 0.3543 -0.4286 0.8311
vn -0.1321 -0.8320 -0.5389
vn -0.3640 -0.9241 -0.1164
vn -0.6938 -0.6381 -0.3339
vn 0.9288 0.0708 -0.3638
vn 0.9468 0.3168 0.0561
vn 0.9468 -0.1844 0.2637
vn 0.2483 -0.2326 -0.9403
vn 0.2483 -0.5004 -0.8294
vn -0.2000 -0.6439 -0.7385
vn 0.3425 0.9200 -0.1907
vn 0.2747 0.9434 -0.1859
vn 0.3543 0.8907 0.2847
vn -0.1320 0.2073 -0.9693
vn -0.5174 -0.0150 -0.8556
vn -0.6938 0.2150 -0.6873
vn -0.1162 0.6184 0.7772
vn -0.1162 0.1123 0.9869
vn 0.2693 0.3381 0.9017
vn -0.9718 -0.0127 0.2356
vn -0.9663 0.2560 0.0278
vn -0.9663 -0.1615 0.2006
vn 0.9288 -0.0709 -0.3638
vn 0.9288 0.3073 -0.2072
vn 0.9468 0.1844 0.2637
vn 0.2483 0.2326 -0.9403
vn -0.1999 0.0668 -0.9775
vn -0.2000 0.6439 -0.7385
vn 0.3424 0.7854 0.5157
vn 0.2747 0.7986 0.5356
vn 0.3543 0.4286 0.8311
vn -0.1320 0.8320 -0.5389
vn -0.5175 0.5944 -0.6156
vn -0.6938 0.6380 -0.3340
vn -0.1162 -0.6185 0.7772
vn 0.2694 -0.3985 0.8767
vn 0.2693 -0.3383 0.9017
vn -0.9717 0.0127 0.2357
vn -0.9718 -0.1756 0.1576
vn -0.9663 0.1614 0.2006
vn 0.3425 -0.9200 -0.1906
vn 0.6232 -0.7362 -0.2639
vn 0.3543 -0.8907 0.2847
vn -0.1320 -0.2073 -0.9693
vn -0.3640 -0.5711 -0.7358
vn -0.6938 -0.2151 -0.6873
vn 0.6928 0.3447 0.6334
vn 0.6781 0.6694 0.3035
vn 0.4330 0.8218 0.3704
vn -0.2976 -0.1776 0.9380
vn -0.3082 -0.1414 0.9408
vn -0.6475 -0.2760 0.7103
vn 0.9296 -0.2423 0.2776
vn 0.9406 -0.3391 -0.0131
vn 0.9553 -0.0119 -0.2953
vn 0.1860 -0.9602 0.2085
vn 0.2207 -0.8138 0.5376
vn -0.2561 -0.7449 0.6161
vn 0.6984 -0.1894 -0.6902
vn 0.2889 -0.1017 -0.9519
vn 0.4083 0.3560 -0.8406
vn -0.2876 -0.7857 -0.5478
vn -0.1005 -0.9476 -0.3033
vn -0.6691 -0.6783 -0.3038
vn -0.3972 0.8778 -0.2677
vn -0.3971 0.8101 -0.4314
vn -0.2793 0.9514 -0.1301
vn -0.9650 0.0924 0.2454
vn -0.9650 -0.1082 -0.2389
vn -0.9078 -0.4030 0.1164
vn -0.7960 0.5946 0.1133
vn -0.9244 0.3814 0.0087
vn -0.8902 0.3012 0.3419
vn 0.3339 0.8045 0.4912
vn 0.6015 0.6703 0.4346
vn 0.5298 0.8336 0.1560
vn -0.5667 0.5517 -0.6120
vn -0.5617 0.2727 -0.7811
vn -0.7500 0.0686 -0.6579
vn 0.3553 0.7945 -0.4925
vn 0.5412 0.8339 -0.1077
vn 0.7194 0.5196 -0.4609
vn -0.0389 -0.9545 -0.2957
vn -0.3940 -0.9174 -0.0561
vn -0.4437 -0.7058 -0.5522
vn 0.8334 -0.4747 -0.2832
vn 0.9368 -0.1116 -0.3316
vn 0.9500 -0.2464 0.1920
vn -0.5673 -0.1072 0.8165
vn -0.8311 -0.0196 0.5558
vn -0.6946 -0.4310 0.5760
vn 0.3801 0.2577 0.8883
vn 0.5454 0.0694 0.8353
vn 0.7440 0.1160 0.6580
vn -0.3921 -0.8962 -0.2077
vn -0.3437 -0.9162 -0.2063
vn -0.4273 -0.8776 0.2172
vn 0.2016 -0.2153 -0.9555
vn 0.5629 -0.0280 -0.8261
vn 0.7009 -0.2363 -0.6730
vn 0.0363 -0.6039 0.7963
vn 0.0363 -0.1362 0.9900
vn -0.3232 -0.3342 0.8854
vn 0.9569 -0.0161 0.2900
vn 0.9588 -0.2662 0.0993
vn 0.9588 0.1180 0.2585
vn -0.3921 0.7806 0.4867
vn -0.6372 0.7112 0.2970
vn -0.4273 0.4671 0.7741
vn 0.2015 0.8279 -0.5235
vn 0.3997 0.9086 -0.1210
vn 0.7009 0.6429 -0.3089
vn -0.9201 0.3101 -0.2395
vn -0.9201 -0.0499 -0.3886
vn -0.9665 -0.2565 -0.0001
vn -0.1593 0.2606 -0.9522
vn -0.1593 0.4890 -0.8576
vn 0.2376 0.6205 -0.7474
vn 0.9686 0.1563 0.1933
vn 0.9799 -0.1459 0.1361
vn 0.9799 -0.0070 -0.1995
vn 0.1358 0.9500 0.2814
vn -0.1577 0.9683 0.1938
vn -0.1577 0.8218 0.5476
vn 0.3477 -0.5224 0.7786
vn 0.3805 -0.5811 0.7195
vn 0.4464 -0.7572 0.4768
vn -0.1249 0.5337 0.8364
vn -0.5128 0.6114 0.6027
vn -0.5889 0.3611 0.7231
vn -0.1162 -0.9869 -0.1123
vn -0.1161 -0.7772 -0.6184
vn 0.2694 -0.8768 -0.3984
vn -0.9717 -0.2357 0.0128
vn -0.9717 -0.1577 -0.1757
vn -0.9663 -0.2007 0.1614
vn 0.3477 0.1812 -0.9199
vn 0.6275 0.2557 -0.7354
vn 0.4465 -0.1982 -0.8725
vn -0.1249 0.9688 -0.2142
vn -0.3679 0.8042 -0.4669
vn -0.5888 0.7666 -0.2561
vn 0.4715 -0.8473 0.2445
vn 0.5148 -0.8410 0.1663
vn 0.7529 -0.6464 0.1238
vn -0.6285 -0.7470 0.2167
vn -0.7814 -0.4605 0.4211
vn -0.8852 -0.4515 0.1116
vn 0.5008 -0.8406 -0.2065
vn 0.6691 -0.5763 -0.4693
vn 0.7863 -0.5943 -0.1690
vn -0.6264 -0.7527 -0.2028
vn -0.6361 -0.7523 -0.1717
vn -0.8309 -0.5550 -0.0401
vn 0.4695 -0.2449 -0.8483
vn 0.4863 -0.2082 -0.8486
vn 0.7215 -0.0980 -0.6855
vn -0.6449 -0.1700 -0.7451
vn -0.7824 -0.4204 -0.4595
vn -0.8860 -0.1108 -0.4502
vn 0.4968 0.2083 -0.8425
vn 0.6658 0.4709 -0.5787
vn 0.7833 0.1707 -0.5977
vn -0.6303 0.2014 -0.7498
vn -0.6396 0.1697 -0.7497
vn -0.8335 0.0388 -0.5511
vn 0.4609 0.7807 -0.4219
vn 0.4808 0.8517 -0.2083
vn 0.7176 0.6892 -0.1004
vn -0.6517 0.7395 -0.1688
vn -0.6721 0.6048 -0.4271
vn -0.8664 0.3907 -0.3111
vn 0.4672 0.7742 0.4270
vn 0.5106 0.7152 0.4773
vn 0.7498 0.5477 0.3713
vn -0.6319 0.6784 0.3747
vn -0.7842 0.6200 0.0272
vn -0.8875 0.3940 0.2390
vn 0.5007 0.4484 0.7404
vn 0.6691 0.0756 0.7393
vn 0.7863 0.3007 0.5397
vn -0.6264 0.3888 0.6756
vn -0.6361 0.4105 0.6534
vn -0.8309 0.3641 0.4208
vn 0.4646 -0.2539 0.8484
vn 0.4841 -0.4535 0.7483
vn 0.7199 -0.4160 0.5556
vn -0.6477 -0.4054 0.6451
vn -0.6684 -0.1263 0.7330
vn -0.8639 -0.0587 0.5003
vn -0.4850 0.7666 -0.4209
vn -0.5337 0.8306 -0.1592
vn 0.6167 0.7304 -0.2935
vn 0.8787 0.4109 -0.2431
vn 0.7323 0.5191 -0.4407
vn -0.5036 0.4437 -0.7412
vn -0.7286 0.4088 -0.5495
vn 0.6327 0.3841 -0.6725
vn 0.6690 0.1227 -0.7331
vn -0.4709 -0.2540 -0.8448
vn -0.7189 -0.4118 -0.5600
vn -0.6836 -0.0909 -0.7242
vn 0.6519 -0.4005 -0.6440
vn 0.8371 -0.3566 -0.4150
vn -0.4540 -0.8249 -0.3369
vn -0.7455 -0.6537 -0.1301
vn -0.6000 -0.6332 -0.4890
vn 0.6382 -0.7391 -0.2155
vn 0.8900 -0.4054 -0.2088
vn 0.8087 -0.5874 -0.0316
vn -0.4806 -0.7688 0.4218
vn -0.7846 -0.5591 0.2679
vn -0.5299 -0.8328 0.1602
vn 0.8808 -0.4071 0.2418
vn 0.7356 -0.5156 0.4393
vn -0.5074 -0.4436 0.7388
vn -0.7318 -0.4072 0.5466
vn 0.8282 -0.3614 0.4284
vn 0.6658 -0.1238 0.7358
vn -0.7197 0.4120 0.5589
vn -0.6840 0.0901 0.7239
vn 0.8603 0.0653 0.5055
vn 0.8357 0.3570 0.4173
vn -0.7498 0.6490 0.1290
vn -0.6036 0.6306 0.4878
vn 0.8048 0.5926 0.0333
vn -0.7968 0.1109 0.5940
vn 0.2949 0.4295 0.8535
vn -0.5632 0.8252 -0.0418
vn -0.6884 0.5845 -0.4296
vn -0.8664 0.4986 -0.0265
vn 0.5543 0.8294 0.0702
vn -0.0350 -0.2957 -0.9547
vn -0.3908 -0.0569 -0.9187
vn 0.9505 0.1933 -0.2434
vn 0.9504 -0.3090 -0.0353
vn -0.5666 -0.6120 0.5518
vn -0.5566 -0.7502 0.3569
vn 0.3554 -0.4924 0.7945
vn 0.5413 -0.1077 0.8339
vn 0.9300 -0.2602 0.2597
vn 0.8005 -0.4916 0.3428
vn -0.3034 -0.8493 0.4321
vn -0.5218 -0.8394 0.1519
vn -0.3039 -0.9060 0.2946
vn 0.5293 -0.5264 -0.6654
vn 0.6834 -0.0979 -0.7235
vn 0.8290 -0.4048 -0.3860
vn -0.3513 -0.8292 -0.4348
vn -0.5507 -0.6386 -0.5375
vn 0.0462 0.8536 -0.5189
vn -0.8291 0.5413 -0.1401
vn 0.5613 0.2921 0.7743
vn -0.6140 -0.5132 0.5997
vn -0.7776 -0.6049 -0.1716
vn -0.8947 -0.3134 -0.3183
vn -0.7783 -0.5470 -0.3081
vn 0.5872 -0.7895 -0.1786
vn 0.3514 -0.9046 -0.2411
vn -0.5806 -0.5219 0.6249
vn -0.7370 -0.0951 0.6692
vn -0.8487 -0.3378 0.4068
vn 0.3929 -0.7887 0.4729
vn 0.5173 -0.6777 0.5227
vn -0.4046 0.7103 0.5760
vn -0.0838 0.8825 0.4628
vn 0.8352 0.4535 0.3112
vn 0.9519 0.2646 -0.1543
vn 0.8354 0.5408 0.0985
vn -0.5787 0.3434 -0.7397
vn 0.3861 -0.2237 -0.8949
vn 0.5613 -0.4799 -0.6743
vn 0.9962 -0.0805 0.0335
vn 0.9990 0.0239 0.0389
vn -0.0423 -0.9473 -0.3174
vn -0.1858 -0.7417 -0.6445
vn 0.3301 0.5080 -0.7956
vn 0.4825 0.6300 -0.6085
vn 0.6080 0.3224 -0.7255
vn -0.4741 -0.4773 -0.7398
vn -0.4410 -0.4007 -0.8031
vn -0.1183 0.9866 0.1120
vn 0.2681 0.8790 0.3943
vn 0.2672 0.9021 0.3389
vn -0.9706 0.1613 -0.1785
vn -0.9721 -0.0052 0.2346
vn 0.3424 -0.1906 0.9200
vn 0.3544 0.2846 0.8907
vn 0.2746 -0.1859 0.9434
vn -0.6938 -0.6872 0.2151
vn -0.5174 -0.8556 -0.0150
vn 0.7752 -0.3124 0.5490
vn 0.8960 0.0101 0.4440
vn 0.7769 -0.1679 0.6069
vn -0.3488 -0.4696 0.8111
vn 0.5623 -0.8261 -0.0388
vn 0.8658 -0.4985 -0.0423
vn -0.3723 -0.9028 0.2154
vn -0.5238 -0.8439 0.1156
vn 0.0147 0.4603 -0.8876
vn 0.0143 0.3017 -0.9533
vn -0.8319 0.3378 -0.4402
vn -0.9558 -0.1991 -0.2163
vn -0.9558 0.2938 -0.0125
vn 0.5756 0.6100 0.5446
vn 0.7383 0.6702 0.0760
vn 0.5742 0.7707 0.2763
vn -0.3493 0.4977 0.7939
vn -0.7159 0.4415 0.5409
vn -0.5252 0.1128 0.8435
vn -0.6355 -0.4403 -0.6343
vn -0.7542 -0.0731 -0.6525
vn -0.5962 -0.2634 -0.7584
vn 0.5779 -0.7893 -0.2073
vn -0.7725 -0.5557 0.3074
vn -0.8919 -0.4522 -0.0009
vn -0.7738 -0.6101 0.1705
vn 0.5952 -0.6797 0.4287
vn 0.3607 -0.8063 0.4687
vn -0.7385 0.4064 0.5380
vn -0.8156 0.0926 0.5712
vn 0.4548 -0.2346 0.8591
vn 0.5162 -0.1080 0.8496
vn -0.1387 0.9413 -0.3079
vn -0.3898 0.7591 -0.5213
vn -0.3898 0.9054 -0.1681
vn 0.8712 0.4775 -0.1139
vn 0.9547 0.1394 -0.2630
vn 0.8712 0.4181 -0.2571
vn 0.5898 -0.5328 0.6068
vn 0.7489 -0.0635 0.6596
vn 0.5856 -0.2600 0.7678
vn -0.7071 -0.5444 0.4514
vn -0.5181 -0.8469 0.1197
vn 0.8988 -0.4381 0.0128
vn 0.7809 -0.6025 -0.1648
vn -0.5827 -0.6859 -0.4358
vn -0.3383 -0.8116 -0.4762
vn 0.5896 0.0438 -0.8065
vn 0.7458 0.4229 -0.5147
vn 0.8816 0.0505 -0.4693
vn -0.4999 -0.1059 -0.8596
vn -0.0053 0.8901 0.4556
vn 0.3478 0.9354 0.0629
vn -0.0062 0.9535 0.3013
vn -0.8413 0.5364 0.0679
vn -0.9587 -0.0041 0.2845
vn -0.8409 0.4243 0.3359
vn 0.5745 -0.8173 0.0448
vn 0.7378 -0.5289 0.4195
vn 0.5732 -0.7411 0.3496
vn -0.3545 -0.9111 -0.2104
vn -0.7194 -0.6910 -0.0713
vn -0.5281 -0.6729 -0.5180
vn 0.7737 -0.3122 -0.5513
vn -0.3504 -0.4716 -0.8092
vn -0.5946 -0.1713 -0.7856
vn -0.3529 -0.2404 -0.9043
vn 0.5622 0.6115 -0.5567
vn 0.8658 0.3824 -0.3226
vn -0.5238 0.5150 -0.6785
vn 0.0106 0.3020 0.9533
vn 0.3619 0.6154 0.7003
vn 0.0106 0.4605 0.8876
vn -0.9564 -0.2010 0.2117
vn -0.3917 0.2085 -0.8962
vn -0.4260 -0.2157 -0.8786
vn -0.6369 0.2934 -0.7130
vn 0.7008 0.6734 -0.2355
vn 0.4004 0.7275 -0.5571
vn -0.3232 -0.8624 -0.3898
vn 0.9569 -0.2164 -0.1936
vn 0.9588 -0.0993 -0.2662
vn 0.9588 -0.2584 0.1181
vn -0.3911 -0.4858 0.7817
vn -0.4269 -0.7737 0.4682
vn -0.3428 -0.5012 0.7945
vn 0.5640 0.5652 0.6021
vn -0.9211 0.3860 -0.0507
vn -0.9665 -0.1835 0.1797
vn -0.9207 0.2367 0.3103
vn -0.1601 0.8580 0.4881
vn 0.2363 0.9675 0.0901
vn -0.1608 0.9520 0.2603
vn -0.8431 -0.4120 -0.3456
vn 0.7290 -0.4303 -0.5324
vn 0.5280 -0.5152 -0.6751
vn -0.0778 -0.2990 0.9511
vn -0.0778 -0.4611 0.8839
vn 0.8364 -0.0980 0.5393
vn 0.9523 0.1551 0.2630
vn -0.5836 0.8086 0.0741
vn -0.7390 0.5372 0.4065
vn -0.5775 0.7423 0.3398
vn 0.3891 0.8940 -0.2223
vn 0.7176 0.6931 -0.0684
vn 0.5614 0.6738 -0.4804
vn -0.7718 0.3113 -0.5544
vn 0.5982 0.1742 -0.7822
vn 0.3646 0.2420 -0.8992
vn -0.9666 0.0022 0.2564
vn -0.1590 0.8577 -0.4890
vn 0.2387 0.9669 -0.0899
vn 0.2379 0.7473 -0.6204
vn -0.6383 -0.2981 -0.7097
vn 0.2003 0.5225 -0.8287
vn 0.3978 0.1203 -0.9095
vn -0.3232 -0.8854 0.3342
vn 0.0362 -0.9900 0.1362
vn 0.9569 -0.2165 0.1936
vn 0.9588 -0.0994 0.2662
vn 0.9569 -0.2900 0.0162
vn -0.4273 -0.2172 0.8776
vn -0.3437 0.2063 0.9161
vn 0.5629 0.8261 0.0280
vn -0.8952 0.0043 -0.4456
vn -0.7794 -0.1688 -0.6034
vn 0.3483 -0.2429 -0.9054
vn 0.3488 -0.4686 -0.8116
vn -0.5836 -0.8087 0.0741
vn -0.7391 -0.5372 0.4065
vn -0.8507 -0.5233 0.0494
vn 0.3892 -0.8939 -0.2223
vn 0.7176 -0.6930 -0.0685
vn 0.5141 -0.8508 -0.1089
vn -0.0778 0.4611 0.8839
vn -0.0778 0.2990 0.9511
vn 0.8364 0.3121 0.4506
vn 0.9522 0.2956 0.0763
vn -0.7412 0.6653 -0.0897
vn -0.5801 0.7643 -0.2815
vn 0.5590 0.1393 -0.8174
vn 0.3500 -0.8281 -0.4379
vn 0.2715 -0.5285 -0.8044
vn -0.1392 0.5443 -0.8272
vn -0.5223 0.6198 -0.5857
vn 0.9286 0.2076 -0.3076
vn 0.9470 -0.0588 0.3158
vn 0.9469 -0.2633 -0.1845
vn 0.2447 0.9407 -0.2348
vn -0.2052 0.7373 -0.6437
vn -0.2022 0.9771 -0.0657
vn 0.3424 0.1906 0.9200
vn 0.6232 0.2640 0.7362
vn -0.1320 0.9693 0.2073
vn -0.3640 0.7358 0.5711
vn -0.1161 -0.7772 0.6185
vn -0.9663 -0.2007 -0.1614
vn -0.9717 -0.1577 0.1756
vn 0.8987 -0.0130 -0.4383
vn 0.7814 0.1658 -0.6016
vn -0.3359 0.2410 -0.9105
vn -0.5808 0.4382 -0.6861
vn -0.3364 0.4737 -0.8139
vn 0.5746 0.8172 0.0448
vn 0.7378 0.5288 0.4195
vn 0.8731 0.4855 0.0446
vn -0.3545 0.9111 -0.2105
vn -0.7194 0.6909 -0.0714
vn -0.5093 0.8533 -0.1114
vn 0.0107 -0.4605 0.8876
vn 0.0106 -0.3020 0.9532
vn -0.8350 -0.3357 0.4360
vn 0.5779 -0.6089 -0.5434
vn 0.7400 -0.6684 -0.0744
vn 0.5758 -0.7705 -0.2736
vn -0.7166 -0.4410 -0.5404
vn -0.5256 -0.1120 -0.8433
vn -0.9201 -0.3101 -0.2395
vn -0.9665 0.2565 -0.0001
vn -0.9201 0.0500 -0.3886
vn -0.1593 -0.4891 -0.8576
vn -0.4273 -0.4670 0.7741
vn -0.6372 -0.7111 0.2971
vn 0.2015 -0.8279 -0.5235
vn 0.3997 -0.9086 -0.1210
vn 0.0363 0.1361 0.9900
vn -0.3232 0.3342 0.8854
vn 0.9569 0.1936 0.2164
vn 0.9588 0.2663 0.0993
vn 0.9569 0.0162 0.2900
vn -0.3437 0.9161 -0.2063
vn 0.5629 0.0280 -0.8261
vn 0.8682 -0.3791 0.3202
vn -0.3616 -0.4891 0.7937
vn -0.7256 -0.4317 0.5359
vn -0.5170 -0.5183 0.6812
vn 0.0175 -0.4601 -0.8877
vn 0.3676 -0.6146 -0.6979
vn -0.9563 -0.2924 -0.0092
vn -0.9557 0.2007 -0.2155
vn 0.7489 0.5113 -0.4214
vn 0.5857 0.7267 -0.3590
vn -0.5181 0.6835 0.5142
vn 0.7790 0.3095 0.5453
vn -0.5848 0.1763 0.7918
vn -0.3408 0.2371 0.9098
vn -0.7753 0.5526 -0.3059
vn -0.8938 0.4485 0.0023
vn -0.7763 0.6073 -0.1688
vn 0.3527 0.9035 -0.2433
vn 0.5915 0.6822 -0.4298
vn 0.3562 0.8077 -0.4698
vn -0.5780 -0.0713 -0.8129
vn -0.7352 -0.4057 -0.5431
vn -0.8471 -0.0483 -0.5292
vn 0.3954 0.2237 -0.8909
vn 0.5194 0.1094 -0.8475
vn -0.0778 -0.8841 0.4608
vn -0.3977 -0.9125 0.0953
vn -0.0779 -0.9511 0.2990
vn 0.8358 -0.5402 0.0982
vn 0.9521 -0.0770 0.2958
vn 0.8359 -0.4511 0.3127
vn -0.5982 0.5066 0.6209
vn -0.5898 0.2687 0.7615
vn 0.3749 0.7915 0.4828
vn 0.5516 0.8211 0.1468
vn 0.9272 -0.3075 0.2138
vn 0.9268 0.0692 0.3692
vn 0.2439 -0.2334 0.9413
vn 0.2439 -0.5025 0.8295
vn 0.3424 -0.7853 -0.5158
vn 0.6232 -0.7072 -0.3339
vn -0.3640 -0.9241 0.1165
vn -0.1075 0.1093 -0.9882
vn -0.9800 0.1624 -0.1151
vn -0.9809 -0.0313 -0.1917
vn 0.3470 0.9020 -0.2570
vn 0.2487 0.9450 0.2124
vn -0.1499 0.1716 0.9737
vn -0.5305 -0.0562 0.8458
vn 0.2747 0.7985 -0.5356
vn -0.1320 0.8320 0.5389
vn -0.5175 0.5944 0.6156
vn 0.9286 -0.0707 0.3642
vn 0.9287 0.3092 0.2046
vn 0.2428 0.2335 0.9416
vn 0.3373 -0.9200 0.1996
vn 0.3501 -0.8952 -0.2759
vn 0.6190 -0.7369 0.2718
vn -0.1392 -0.2002 0.9698
vn -0.6981 -0.2061 0.6857
vn -0.3716 -0.5651 0.7366
vn 0.2694 -0.3984 -0.8768
vn -0.9718 0.0128 -0.2356
vn -0.9718 -0.1756 -0.1576
vn 0.7775 0.6051 -0.1717
vn 0.7782 0.5460 -0.3103
vn -0.3428 0.9090 -0.2371
vn 0.8712 0.3146 0.3768
vn -0.3584 0.7926 0.4934
vn -0.5126 0.6812 0.5227
vn 0.0175 -0.9530 0.3023
vn 0.3700 -0.6977 0.6134
vn 0.0173 -0.8863 0.4628
vn -0.9562 -0.2133 -0.2003
vn -0.8340 -0.5472 0.0714
vn 0.7442 -0.4198 -0.5195
vn 0.5786 -0.3574 -0.7331
vn -0.7136 0.0683 -0.6972
vn -0.5255 0.5167 -0.6759
vn -0.3923 -0.7804 -0.4869
vn -0.3441 -0.7938 -0.5015
vn 0.5625 -0.6045 0.5640
vn -0.9207 -0.3107 0.2360
vn -0.1576 -0.4879 0.8586
vn -0.1558 -0.2615 0.9525
vn -0.3869 0.8966 0.2154
vn -0.6328 0.7139 0.2997
vn 0.2081 0.2088 0.9555
vn 0.7050 0.2283 0.6714
vn 0.4066 0.5514 0.7284
vn 0.0363 0.6038 -0.7963
vn -0.3232 0.3897 -0.8624
vn 0.9569 0.1936 -0.2165
vn 0.9588 0.2662 -0.0993
vn 0.9588 -0.1181 -0.2585
vn -0.8379 0.4159 0.3535
vn 0.4122 0.4598 0.7866
vn 0.7345 0.4244 0.5295
vn 0.5349 0.5095 0.6740
vn -0.0821 0.4603 -0.8840
vn -0.4028 0.0953 -0.9103
vn -0.4007 0.5776 -0.7112
vn 0.9523 0.2954 -0.0762
vn 0.9517 -0.1554 -0.2647
vn -0.5795 -0.7406 -0.3401
vn 0.7159 -0.6948 0.0681
vn 0.5590 -0.6763 0.4797
vn -0.7733 -0.1704 0.6107
vn -0.8924 -0.3200 0.3181
vn -0.7749 -0.3096 0.5511
vn 0.3580 -0.4673 0.8083
vn 0.3606 -0.2430 0.9005
vn -0.9661 0.1785 -0.1867
vn -0.9660 -0.2585 -0.0056
vn -0.1640 0.4881 0.8573
vn 0.2326 0.6213 0.7483
vn -0.3916 0.7812 -0.4862
vn -0.4263 0.4685 -0.7738
vn -0.6367 0.7118 -0.2966
vn 0.2018 0.8277 0.5236
vn 0.7011 0.6424 0.3096
vn 0.4005 0.9083 0.1210
vn -0.3231 -0.3897 -0.8624
vn -0.3231 -0.3342 -0.8854
vn 0.9569 -0.1937 -0.2164
vn 0.9569 -0.0162 -0.2899
vn -0.4260 -0.8786 -0.2157
vn -0.3439 -0.9157 0.2080
vn 0.5627 -0.0284 0.8262
vn -0.9553 -0.2958 0.0004
vn -0.9852 -0.0566 -0.1619
vn -0.0597 -0.8797 0.4718
vn -0.5080 0.7049 0.4950
vn -0.6418 0.3014 0.7052
vn 0.6129 -0.3238 0.7207
vn 0.3981 -0.2247 0.8894
vn 0.0362 0.7963 -0.6038
vn 0.0362 0.9900 -0.1361
vn 0.9569 0.2899 -0.0162
vn 0.9588 0.2586 0.1179
vn 0.9588 0.0993 -0.2662
vn -0.3975 -0.1996 -0.8956
vn -0.5081 0.1485 -0.8484
vn -0.4299 -0.1270 -0.8939
vn 0.1951 -0.9555 -0.2214
vn 0.6130 -0.7386 -0.2807
vn 0.5585 -0.8287 -0.0359
vn 0.6194 0.4560 -0.6391
vn 0.7427 0.0702 -0.6659
vn 0.5805 0.2710 -0.7679
vn -0.5792 0.7944 -0.1827
vn 0.8941 0.4479 -0.0084
vn 0.7737 0.6106 0.1690
vn -0.5947 0.6766 0.4344
vn -0.3529 0.8094 0.4695
vn 0.8212 -0.0927 0.5631
vn -0.5163 0.1119 0.8491
vn 0.0981 -0.9468 -0.3066
vn -0.9605 -0.2550 0.1113
vn -0.9605 -0.1015 -0.2589
vn -0.9667 0.1803 -0.1817
vn -0.1556 -0.9523 -0.2624
vn 0.2424 -0.7461 -0.6202
vn 0.2400 -0.9667 -0.0889
vn -0.6372 -0.2928 0.7129
vn 0.7010 -0.6730 0.2361
vn 0.3997 -0.7281 0.5569
vn -0.3232 0.8854 0.3342
vn -0.3232 0.8623 0.3898
vn 0.9569 0.2165 0.1936
vn -0.3400 0.4960 -0.7990
vn 0.2082 -0.5281 -0.8233
vn 0.7051 -0.3134 -0.6361
vn 0.5675 -0.5681 -0.5960
vn 0.3424 -0.7853 0.5157
vn 0.2747 -0.7985 0.5356
vn -0.5175 -0.5944 -0.6156
vn 0.9288 -0.3074 -0.2071
vn -0.2000 -0.6440 -0.7385
vn -0.2000 -0.0668 -0.9775
vn 0.3425 0.9200 -0.1906
vn 0.3543 0.8908 0.2846
vn 0.6232 0.7362 -0.2640
vn -0.3640 0.5711 -0.7358
vn -0.1161 0.6184 0.7772
vn 0.2694 0.3382 0.9017
vn 0.2694 0.3985 0.8767
vn -0.9663 -0.1614 0.2006
vn -0.9718 0.1756 0.1577
vn 0.9468 0.1845 0.2637
vn 0.9468 -0.3168 0.0561
vn 0.2483 0.5005 -0.8294
vn 0.3424 0.7853 0.5158
vn 0.3543 0.4287 0.8311
vn 0.6232 0.7073 0.3338
vn -0.1320 0.8319 -0.5389
vn -0.3641 0.9241 -0.1164
vn -0.1162 -0.6184 0.7772
vn 0.2693 -0.3382 0.9017
vn -0.1162 -0.1123 0.9869
vn -0.9718 0.0127 0.2356
vn -0.9663 0.1615 0.2006
vn -0.9663 -0.2561 0.0278
vn 0.3424 -0.9200 -0.1906
vn 0.2747 -0.9434 -0.1859
vn -0.5174 0.0150 -0.8556
vn 0.6928 0.3447 0.6335
vn 0.3109 0.6031 0.7346
vn -0.6474 -0.2760 0.7104
vn -0.1088 -0.4635 0.8794
vn 0.9297 -0.2423 0.2775
vn 0.9553 -0.0118 -0.2953
vn 0.9442 0.2356 0.2302
vn -0.2561 -0.7448 0.6161
vn -0.2512 -0.9594 0.1284
vn 0.6810 0.2729 -0.6796
vn -0.2876 -0.7856 -0.5478
vn -0.6691 -0.6782 -0.3038
vn -0.2984 -0.7398 -0.6030
vn -0.2794 0.7646 -0.5808
vn -0.9650 0.0924 0.2453
vn -0.9078 -0.3672 0.2027
vn -0.7960 0.5946 0.1134
vn -0.7657 0.5626 0.3118
vn 0.3338 0.8046 0.4911
vn 0.5297 0.8337 0.1560
vn 0.3183 0.9014 0.2934
vn -0.5666 0.5517 -0.6120
vn -0.8684 0.3307 -0.3694
vn 0.4930 0.6845 -0.5371
vn -0.4436 -0.7059 -0.5522
vn -0.0909 -0.8656 -0.4925
vn 0.8334 -0.4746 -0.2832
vn 0.8173 -0.5696 -0.0864
vn -0.5780 -0.2896 0.7629
vn 0.3800 0.2577 0.8884
vn 0.5996 0.4736 0.6452
vn -0.3921 -0.8961 -0.2077
vn -0.6372 -0.7129 -0.2928
vn 0.7010 -0.2362 -0.6730
vn 0.3997 -0.5569 -0.7281
vn 0.0363 -0.6038 0.7963
vn -0.3231 -0.3342 0.8854
vn -0.3232 -0.3897 0.8623
vn 0.9569 -0.0162 0.2900
vn 0.9569 -0.1936 0.2164
vn -0.3921 0.7806 0.4868
vn -0.4273 0.4670 0.7741
vn -0.3437 0.7937 0.5019
vn 0.7009 0.6429 -0.3088
vn 0.5629 0.6039 -0.5643
vn -0.9665 0.1815 0.1813
vn -0.1593 0.2607 -0.9522
vn 0.2376 0.0898 -0.9672
vn 0.9686 0.2472 -0.0262
vn 0.1357 0.9500 0.2814
vn 0.1357 0.8707 0.4728
vn 0.6275 -0.3392 0.7008
vn -0.5888 0.3611 0.7231
vn -0.3679 0.2384 0.8988
vn -0.1162 -0.9869 -0.1122
vn 0.2694 -0.9017 -0.3382
vn -0.9663 -0.0278 -0.2561
vn 0.4465 -0.1982 -0.8726
vn 0.3805 0.0978 -0.9196
vn -0.1249 0.9688 -0.2141
vn -0.5127 0.8585 0.0061
vn 0.4715 -0.8473 0.2444
vn 0.7529 -0.6464 0.1237
vn 0.5225 -0.7035 0.4817
vn -0.6285 -0.7470 0.2166
vn -0.8852 -0.4516 0.1116
vn -0.8051 -0.5926 0.0268
vn 0.7863 -0.5942 -0.1690
vn 0.7324 -0.6745 -0.0933
vn -0.6265 -0.7526 -0.2029
vn -0.8310 -0.5549 -0.0401
vn -0.6641 -0.6064 -0.4373
vn 0.4694 -0.2449 -0.8483
vn 0.7215 -0.0980 -0.6854
vn 0.5207 -0.4821 -0.7046
vn -0.8860 -0.1109 -0.4502
vn -0.8367 -0.0365 -0.5464
vn 0.7833 0.1706 -0.5978
vn 0.7290 0.0943 -0.6779
vn -0.6302 0.2014 -0.7498
vn -0.6673 0.4360 -0.6038
vn 0.4609 0.7808 -0.4219
vn 0.6807 0.5750 -0.4538
vn -0.6518 0.7394 -0.1689
vn -0.8664 0.3906 -0.3111
vn -0.8412 0.5397 -0.0333
vn 0.4672 0.7742 0.4271
vn 0.5188 0.8402 0.1577
vn -0.6319 0.6785 0.3747
vn -0.8874 0.3942 0.2390
vn -0.8079 0.4343 0.3983
vn 0.7863 0.3008 0.5397
vn 0.7324 0.4110 0.5429
vn -0.6641 0.1197 0.7380
vn 0.6830 -0.0844 0.7255
vn -0.6476 -0.4054 0.6451
vn -0.8639 -0.0586 0.5003
vn -0.8386 -0.3594 0.4094
vt 0.080294 0.080294
vt 0.010000 0.250000
vt 0.250000 0.010000
vt 0.419706 0.080294
vt 0.490000 0.250000
vt 0.419706 0.419706
vt 0.250000 0.490000
vt 0.080294 0.419706
vt 0.510000 0.250000
vt 0.580294 0.080294
vt 0.580294 0.419706
vt 0.750000 0.010000
vt 0.750000 0.490000
vt 0.990000 0.250000
vt 0.919706 0.419706
vt 0.919706 0.080294
s 0
f 98/1/1 97/2/2 9/2/3
f 97/2/4 98/1/5 4/1/6
f 99/3/7 98/1/8 3/1/9
f 98/1/10 99/3/11 6/3/12
f 100/4/13 99/3/14 5/3/15
f 99/3/16 100/4/17 2/4/18
f 101/5/19 100/4/20 1/4/21
f 100/4/22 101/5/23 8/5/24
f 102/6/25 101/5/26 7/5/27
f 101/5/28 102/6/29 14/6/30
f 103/7/31 102/6/32 13/6/33
f 102/6/34 103/7/35 16/7/36
f 104/8/37 103/7/38 15/7/39
f 103/7/40 104/8/41 12/8/42
f 97/2/43 104/8/44 11/8/45
f 104/8/46 97/2/47 10/2/48
f 105/4/49 1/4/50 5/3/51
f 106/3/52 6/3/53 2/4/54
f 107/3/55 106/3/56 5/3/57
f 107/3/58 36/3/59 6/3/60
f 108/4/61 107/3/62 35/3/63
f 107/3/64 108/4/65 38/4/66
f 108/4/67 37/4/68 1/4/69
f 108/4/70 105/4/71 2/4/72
f 109/9/73 31/9/74 33/10/75
f 110/10/76 34/10/77 32/9/78
f 111/10/79 110/10/80 33/10/81
f 111/10/82 48/10/83 34/10/84
f 111/10/85 47/10/86 55/9/87
f 112/9/88 56/9/89 48/10/90
f 112/9/91 55/9/92 31/9/93
f 112/9/94 109/9/95 32/9/96
f 113/2/97 9/2/98 11/8/99
f 114/8/100 12/8/101 10/2/102
f 115/8/103 114/8/104 11/8/105
f 115/8/106 68/8/107 12/8/108
f 115/8/109 67/8/110 63/2/111
f 116/2/112 64/2/113 68/8/114
f 116/2/115 63/2/116 9/2/117
f 116/2/118 113/2/119 10/2/120
f 118/9/121 117/11/122 53/11/123
f 117/11/124 118/9/125 56/9/126
f 119/9/127 118/9/128 55/9/129
f 119/9/130 70/9/131 56/9/132
f 120/11/133 119/9/134 69/9/135
f 119/9/136 120/11/137 72/11/138
f 120/11/139 71/11/140 53/11/141
f 120/11/142 117/11/143 54/11/144
f 121/10/145 33/10/146 19/12/147
f 122/12/148 20/12/149 34/10/150
f 123/12/151 122/12/152 19/12/153
f 123/12/154 44/12/155 20/12/156
f 123/12/157 43/12/158 47/10/159
f 123/12/160 124/10/161 48/10/162
f 124/10/163 47/10/164 33/10/165
f 124/10/166 121/10/167 34/10/168
f 125/1/169 61/1/170 3/1/171
f 125/1/172 126/1/173 4/1/174
f 126/1/175 3/1/176 9/2/177
f 127/2/178 10/2/179 4/1/180
f 128/2/181 127/2/182 9/2/183
f 128/2/184 64/2/185 10/2/186
f 125/1/187 128/2/188 63/2/189
f 125/1/190 62/1/191 64/2/192
f 129/11/193 53/11/194 27/11/195
f 129/11/196 130/11/197 28/11/198
f 130/11/199 27/11/200 31/9/201
f 131/9/202 32/9/203 28/11/204
f 132/9/205 131/9/206 31/9/207
f 132/9/208 56/9/209 32/9/210
f 132/9/211 55/9/212 53/11/213
f 129/11/214 54/11/215 56/9/216
f 133/13/217 73/13/218 29/13/219
f 133/13/220 134/13/221 30/13/222
f 134/13/223 29/13/224 27/11/225
f 135/11/226 28/11/227 30/13/228
f 136/11/229 135/11/230 27/11/231
f 136/11/232 54/11/233 28/11/234
f 136/11/235 53/11/236 73/13/237
f 136/11/238 133/13/239 74/13/240
f 138/4/241 137/4/242 37/4/243
f 138/4/244 88/4/245 38/4/246
f 139/5/247 138/4/248 87/4/249
f 138/4/250 139/5/251 92/5/252
f 139/5/253 91/5/254 17/5/255
f 139/5/256 140/5/257 18/5/258
f 140/5/259 17/5/260 37/4/261
f 137/4/262 38/4/263 18/5/264
f 142/6/265 141/6/266 13/6/267
f 142/6/268 42/6/269 14/6/270
f 142/6/271 41/6/272 39/7/273
f 142/6/274 143/7/275 40/7/276
f 143/7/277 39/7/278 15/7/279
f 143/7/280 144/7/281 16/7/282
f 144/7/283 15/7/284 13/6/285
f 141/6/286 14/6/287 16/7/288
f 146/5/289 145/6/290 41/6/291
f 145/6/292 146/5/293 18/5/294
f 147/5/295 146/5/296 17/5/297
f 147/5/298 92/5/299 18/5/300
f 147/5/301 91/5/302 89/6/303
f 148/6/304 90/6/305 92/5/306
f 148/6/307 89/6/308 41/6/309
f 148/6/310 145/6/311 42/6/312
f 149/8/313 11/8/314 15/7/315
f 150/7/316 16/7/317 12/8/318
f 151/7/319 150/7/320 15/7/321
f 151/7/322 40/7/323 16/7/324
f 151/7/325 39/7/326 67/8/327
f 151/7/328 152/8/329 68/8/330
f 152/8/331 67/8/332 11/8/333
f 152/8/334 149/8/335 12/8/336
f 153/14/337 75/14/338 51/14/339
f 153/14/340 154/14/341 52/14/342
f 155/15/343 154/14/344 51/14/345
f 154/14/346 155/15/347 50/15/348
f 156/15/349 155/15/350 49/15/351
f 156/15/352 78/15/353 50/15/354
f 156/15/355 77/15/356 75/14/357
f 153/14/358 76/14/359 78/15/360
f 157/15/361 21/15/362 29/13/363
f 158/13/364 30/13/365 22/15/366
f 159/13/367 158/13/368 29/13/369
f 159/13/370 74/13/371 30/13/372
f 159/13/373 73/13/374 49/15/375
f 160/15/376 50/15/377 74/13/378
f 160/15/379 49/15/380 21/15/381
f 160/15/382 157/15/383 22/15/384
f 161/8/385 67/8/386 39/7/387
f 162/7/388 40/7/389 68/8/390
f 163/7/391 162/7/392 39/7/393
f 163/7/394 80/7/395 40/7/396
f 164/8/397 163/7/398 79/7/399
f 164/8/400 82/8/401 80/7/402
f 164/8/403 81/8/404 67/8/405
f 164/8/406 161/8/407 68/8/408
f 166/16/409 165/16/410 25/16/411
f 166/16/412 46/16/413 26/16/414
f 167/12/415 166/16/416 45/16/417
f 166/16/418 167/12/419 44/12/420
f 167/12/421 43/12/422 19/12/423
f 167/12/424 168/12/425 20/12/426
f 168/12/427 19/12/428 25/16/429
f 165/16/430 26/16/431 20/12/432
f 169/6/433 13/6/434 7/5/435
f 170/5/436 8/5/437 14/6/438
f 171/5/439 170/5/440 7/5/441
f 171/5/442 18/5/443 8/5/444
f 171/5/445 17/5/446 41/6/447
f 172/6/448 42/6/449 18/5/450
f 172/6/451 41/6/452 13/6/453
f 172/6/454 169/6/455 14/6/456
f 173/10/457 47/10/458 43/12/459
f 174/12/460 44/12/461 48/10/462
f 175/12/463 174/12/464 43/12/465
f 175/12/466 84/12/467 44/12/468
f 175/12/469 83/12/470 93/10/471
f 176/10/472 94/10/473 84/12/474
f 176/10/475 93/10/476 47/10/477
f 176/10/478 173/10/479 48/10/480
f 177/12/481 83/12/482 43/12/483
f 177/12/484 178/12/485 44/12/486
f 178/12/487 43/12/488 45/16/489
f 179/16/490 46/16/491 44/12/492
f 180/16/493 179/16/494 45/16/495
f 180/16/496 86/16/497 46/16/498
f 177/12/499 180/16/500 85/16/501
f 177/12/502 84/12/503 86/16/504
f 181/14/505 23/14/506 21/15/507
f 182/15/508 22/15/509 24/14/510
f 183/15/511 182/15/512 21/15/513
f 183/15/514 50/15/515 22/15/516
f 183/15/517 49/15/518 51/14/519
f 184/14/520 52/14/521 50/15/522
f 184/14/523 51/14/524 23/14/525
f 184/14/526 181/14/527 24/14/528
f 185/3/529 65/3/530 35/3/531
f 185/3/532 186/3/533 36/3/534
f 186/3/535 35/3/536 61/1/537
f 187/1/538 62/1/539 36/3/540
f 188/1/541 187/1/542 61/1/543
f 188/1/544 60/1/545 62/1/546
f 185/3/547 188/1/548 59/1/549
f 188/1/550 185/3/551 66/3/552
f 190/1/553 189/1/554 3/1/555
f 190/1/556 62/1/557 4/1/558
f 191/3/559 190/1/560 61/1/561
f 190/1/562 191/3/563 36/3/564
f 191/3/565 35/3/566 5/3/567
f 191/3/568 192/3/569 6/3/570
f 192/3/571 5/3/572 3/1/573
f 189/1/574 4/1/575 6/3/576
f 194/3/577 193/4/578 37/4/579
f 193/4/580 194/3/581 36/3/582
f 195/3/583 194/3/584 35/3/585
f 195/3/586 66/3/587 36/3/588
f 196/4/589 195/3/590 65/3/591
f 196/4/592 88/4/593 66/3/594
f 196/4/595 87/4/596 37/4/597
f 196/4/598 193/4/599 38/4/600
f 198/2/601 197/1/602 61/1/603
f 198/2/604 64/2/605 62/1/606
f 199/2/607 198/2/608 63/2/609
f 199/2/610 58/2/611 64/2/612
f 199/2/613 57/2/614 59/1/615
f 199/2/616 200/1/617 60/1/618
f 200/1/619 59/1/620 61/1/621
f 200/1/622 197/1/623 62/1/624
f 201/16/625 45/16/626 25/16/627
f 201/16/628 202/16/629 26/16/630
f 202/16/631 25/16/632 23/14/633
f 203/14/634 24/14/635 26/16/636
f 204/14/637 203/14/638 23/14/639
f 204/14/640 52/14/641 24/14/642
f 204/14/643 51/14/644 45/16/645
f 204/14/646 201/16/647 46/16/648
f 206/8/649 205/2/650 63/2/651
f 205/2/652 206/8/653 68/8/654
f 207/8/655 206/8/656 67/8/657
f 207/8/658 82/8/659 68/8/660
f 208/2/661 207/8/662 81/8/663
f 208/2/664 58/2/665 82/8/666
f 208/2/667 57/2/668 63/2/669
f 208/2/670 205/2/671 64/2/672
f 209/13/673 95/13/674 73/13/675
f 209/13/676 210/13/677 74/13/678
f 210/13/679 73/13/680 53/11/681
f 210/13/682 211/11/683 54/11/684
f 212/11/685 211/11/686 53/11/687
f 212/11/688 72/11/689 54/11/690
f 209/13/691 212/11/692 71/11/693
f 209/13/694 96/13/695 72/11/696
f 214/13/697 213/15/698 49/15/699
f 214/13/700 74/13/701 50/15/702
f 215/13/703 214/13/704 73/13/705
f 215/13/706 96/13/707 74/13/708
f 215/13/709 95/13/710 77/15/711
f 215/13/712 216/15/713 78/15/714
f 216/15/715 77/15/716 49/15/717
f 216/15/718 213/15/719 50/15/720
f 217/9/721 69/9/722 55/9/723
f 217/9/724 218/9/725 56/9/726
f 219/10/727 218/9/728 55/9/729
f 218/9/730 219/10/731 48/10/732
f 220/10/733 219/10/734 47/10/735
f 220/10/736 94/10/737 48/10/738
f 217/9/739 220/10/740 93/10/741
f 220/10/742 217/9/743 70/9/744
f 221/5/745 7/5/746 1/4/747
f 222/4/748 2/4/749 8/5/750
f 223/4/751 222/4/752 1/4/753
f 223/4/754 38/4/755 2/4/756
f 223/4/757 37/4/758 17/5/759
f 224/5/760 18/5/761 38/4/762
f 224/5/763 17/5/764 7/5/765
f 224/5/766 221/5/767 8/5/768
f 226/6/769 225/6/770 41/6/771
f 226/6/772 90/6/773 42/6/774
f 227/7/775 226/6/776 89/6/777
f 227/7/778 80/7/779 90/6/780
f 227/7/781 79/7/782 39/7/783
f 227/7/784 228/7/785 40/7/786
f 225/6/787 228/7/788 39/7/789
f 228/7/790 225/6/791 42/6/792
f 229/16/793 45/16/794 51/14/795
f 230/14/796 52/14/797 46/16/798
f 231/14/799 230/14/800 51/14/801
f 231/14/802 76/14/803 52/14/804
f 232/16/805 231/14/806 75/14/807
f 231/14/808 232/16/809 86/16/810
f 232/16/811 85/16/812 45/16/813
f 232/16/814 229/16/815 46/16/816
f 234/14/817 233/15/818 21/15/819
f 233/15/820 234/14/821 24/14/822
f 235/16/823 234/14/824 23/14/825
f 234/14/826 235/16/827 26/16/828
f 236/12/829 235/16/830 25/16/831
f 235/16/832 236/12/833 20/12/834
f 237/10/835 236/12/836 19/12/837
f 236/12/838 237/10/839 34/10/840
f 238/9/841 237/10/842 33/10/843
f 237/10/844 238/9/845 32/9/846
f 239/11/847 238/9/848 31/9/849
f 238/9/850 239/11/851 28/11/852
f 240/13/853 239/11/854 27/11/855
f 239/11/856 240/13/857 30/13/858
f 233/15/859 240/13/860 29/13/861
f 240/13/862 233/15/863 22/15/864
f 98/1/865 9/2/3 3/1/866
f 97/2/867 4/1/868 10/2/869
f 99/3/870 3/1/9 5/3/871
f 98/1/872 6/3/12 4/1/873
f 100/4/874 5/3/875 1/4/876
f 99/3/877 2/4/18 6/3/878
f 101/5/879 1/4/880 7/5/881
f 100/4/882 8/5/883 2/4/884
f 102/6/885 7/5/886 13/6/887
f 101/5/28 14/6/888 8/5/889
f 103/7/890 13/6/33 15/7/891
f 102/6/34 16/7/892 14/6/893
f 104/8/37 15/7/894 11/8/895
f 103/7/40 12/8/896 16/7/897
f 97/2/43 11/8/898 9/2/899
f 104/8/46 10/2/48 12/8/900
f 105/4/49 5/3/51 106/3/901
f 106/3/52 2/4/54 105/4/902
f 107/3/903 5/3/904 35/3/905
f 107/3/58 6/3/60 106/3/906
f 108/4/907 35/3/63 37/4/908
f 107/3/64 38/4/909 36/3/910
f 108/4/911 1/4/69 105/4/912
f 108/4/913 2/4/72 38/4/914
f 109/9/73 33/10/915 110/10/916
f 110/10/917 32/9/918 109/9/919
f 111/10/920 33/10/921 47/10/922
f 111/10/923 34/10/84 110/10/924
f 111/10/85 55/9/87 112/9/925
f 112/9/88 48/10/90 111/10/926
f 112/9/91 31/9/93 109/9/927
f 112/9/94 32/9/96 56/9/928
f 113/2/929 11/8/930 114/8/931
f 114/8/100 10/2/932 113/2/933
f 115/8/934 11/8/935 67/8/936
f 115/8/937 12/8/108 114/8/938
f 115/8/109 63/2/939 116/2/940
f 116/2/941 68/8/942 115/8/943
f 116/2/115 9/2/117 113/2/944
f 116/2/945 10/2/120 64/2/946
f 118/9/947 53/11/123 55/9/948
f 117/11/124 56/9/949 54/11/950
f 119/9/951 55/9/952 69/9/953
f 119/9/130 56/9/954 118/9/955
f 120/11/956 69/9/957 71/11/958
f 119/9/136 72/11/959 70/9/960
f 120/11/961 53/11/962 117/11/963
f 120/11/142 54/11/964 72/11/965
f 121/10/966 19/12/967 122/12/968
f 122/12/148 34/10/150 121/10/969
f 123/12/970 19/12/153 43/12/971
f 123/12/972 20/12/156 122/12/973
f 123/12/974 47/10/159 124/10/975
f 123/12/976 48/10/977 44/12/978
f 124/10/979 33/10/980 121/10/981
f 124/10/982 34/10/983 48/10/984
f 125/1/985 3/1/986 126/1/987
f 125/1/172 4/1/174 62/1/988
f 126/1/989 9/2/990 127/2/991
f 127/2/178 4/1/992 126/1/993
f 128/2/181 9/2/994 63/2/995
f 128/2/996 10/2/186 127/2/997
f 125/1/998 63/2/999 61/1/1000
f 125/1/1001 64/2/1002 128/2/1003
f 129/11/1004 27/11/1005 130/11/1006
f 129/11/196 28/11/1007 54/11/1008
f 130/11/199 31/9/1009 131/9/1010
f 131/9/202 28/11/1011 130/11/1012
f 132/9/1013 31/9/1014 55/9/1015
f 132/9/208 32/9/210 131/9/1016
f 132/9/1017 53/11/1018 129/11/1019
f 129/11/1020 56/9/1021 132/9/1022
f 133/13/1023 29/13/1024 134/13/1025
f 133/13/1026 30/13/1027 74/13/1028
f 134/13/223 27/11/225 135/11/1029
f 135/11/1030 30/13/1031 134/13/1032
f 136/11/1033 27/11/231 53/11/1034
f 136/11/232 28/11/234 135/11/1035
f 136/11/1036 73/13/1037 133/13/1038
f 136/11/238 74/13/240 54/11/1039
f 138/4/1040 37/4/1041 87/4/1042
f 138/4/244 38/4/1043 137/4/1044
f 139/5/247 87/4/249 91/5/1045
f 138/4/1046 92/5/1047 88/4/1048
f 139/5/1049 17/5/1050 140/5/1051
f 139/5/256 18/5/258 92/5/1052
f 140/5/1053 37/4/1054 137/4/1055
f 137/4/1056 18/5/1057 140/5/1058
f 142/6/265 13/6/267 41/6/1059
f 142/6/268 14/6/1060 141/6/1061
f 142/6/1062 39/7/273 143/7/1063
f 142/6/1064 40/7/276 42/6/1065
f 143/7/1066 15/7/1067 144/7/1068
f 143/7/1069 16/7/1070 40/7/1071
f 144/7/283 13/6/285 141/6/1072
f 141/6/286 16/7/1073 144/7/1074
f 146/5/289 41/6/291 17/5/1075
f 145/6/1076 18/5/1077 42/6/1078
f 147/5/295 17/5/297 91/5/1079
f 147/5/1080 18/5/300 146/5/1081
f 147/5/301 89/6/1082 148/6/1083
f 148/6/1084 92/5/1085 147/5/1086
f 148/6/307 41/6/1087 145/6/1088
f 148/6/310 42/6/312 90/6/1089
f 149/8/313 15/7/1090 150/7/1091
f 150/7/1092 12/8/318 149/8/1093
f 151/7/1094 15/7/1095 39/7/1096
f 151/7/1097 16/7/1098 150/7/1099
f 151/7/1100 67/8/327 152/8/1101
f 151/7/1102 68/8/330 40/7/1103
f 152/8/331 11/8/1104 149/8/1105
f 152/8/334 12/8/336 68/8/1106
f 153/14/337 51/14/1107 154/14/1108
f 153/14/1109 52/14/342 76/14/1110
f 155/15/1111 51/14/1112 49/15/1113
f 154/14/1114 50/15/1115 52/14/1116
f 156/15/1117 49/15/351 77/15/1118
f 156/15/1119 50/15/354 155/15/1120
f 156/15/355 75/14/357 153/14/1121
f 153/14/358 78/15/1122 156/15/1123
f 157/15/361 29/13/1124 158/13/1125
f 158/13/1126 22/15/1127 157/15/1128
f 159/13/1129 29/13/1130 73/13/1131
f 159/13/1132 30/13/1133 158/13/1134
f 159/13/1135 49/15/375 160/15/1136
f 160/15/376 74/13/378 159/13/1137
f 160/15/1138 21/15/1139 157/15/1140
f 160/15/382 22/15/1141 50/15/1142
f 161/8/1143 39/7/1144 162/7/1145
f 162/7/388 68/8/390 161/8/1146
f 163/7/391 39/7/1147 79/7/1148
f 163/7/1149 40/7/396 162/7/1150
f 164/8/1151 79/7/399 81/8/1152
f 164/8/1153 80/7/1154 163/7/1155
f 164/8/403 67/8/405 161/8/1156
f 164/8/406 68/8/408 82/8/1157
f 166/16/409 25/16/411 45/16/1158
f 166/16/1159 26/16/1160 165/16/1161
f 167/12/1162 45/16/417 43/12/1163
f 166/16/418 44/12/1164 46/16/1165
f 167/12/421 19/12/1166 168/12/1167
f 167/12/424 20/12/426 44/12/1168
f 168/12/427 25/16/429 165/16/1169
f 165/16/430 20/12/1170 168/12/1171
f 169/6/1172 7/5/1173 170/5/1174
f 170/5/1175 14/6/1176 169/6/1177
f 171/5/1178 7/5/1179 17/5/1180
f 171/5/1181 8/5/444 170/5/1182
f 171/5/1183 41/6/1184 172/6/1185
f 172/6/1186 18/5/1187 171/5/1188
f 172/6/1189 13/6/453 169/6/1190
f 172/6/1191 14/6/456 42/6/1192
f 173/10/1193 43/12/459 174/12/1194
f 174/12/1195 48/10/462 173/10/1196
f 175/12/1197 43/12/465 83/12/1198
f 175/12/466 44/12/468 174/12/1199
f 175/12/469 93/10/471 176/10/1200
f 176/10/1201 84/12/474 175/12/1202
f 176/10/475 47/10/1203 173/10/1204
f 176/10/1205 48/10/480 94/10/1206
f 177/12/481 43/12/483 178/12/1207
f 177/12/1208 44/12/486 84/12/1209
f 178/12/1210 45/16/489 179/16/1211
f 179/16/490 44/12/492 178/12/1212
f 180/16/1213 45/16/1214 85/16/1215
f 180/16/1216 46/16/1217 179/16/1218
f 177/12/499 85/16/501 83/12/1219
f 177/12/1220 86/16/504 180/16/1221
f 181/14/1222 21/15/507 182/15/1223
f 182/15/508 24/14/510 181/14/1224
f 183/15/511 21/15/513 49/15/1225
f 183/15/1226 22/15/516 182/15/1227
f 183/15/1228 51/14/1229 184/14/1230
f 184/14/520 50/15/1231 183/15/1232
f 184/14/523 23/14/1233 181/14/1234
f 184/14/526 24/14/1235 52/14/1236
f 185/3/1237 35/3/531 186/3/1238
f 185/3/532 36/3/534 66/3/1239
f 186/3/535 61/1/537 187/1/1240
f 187/1/1241 36/3/540 186/3/1242
f 188/1/1243 61/1/543 59/1/1244
f 188/1/1245 62/1/1246 187/1/1247
f 185/3/1248 59/1/549 65/3/1249
f 188/1/1250 66/3/1251 60/1/1252
f 190/1/553 3/1/555 61/1/1253
f 190/1/1254 4/1/1255 189/1/1256
f 191/3/1257 61/1/1258 35/3/1259
f 190/1/562 36/3/1260 62/1/1261
f 191/3/565 5/3/567 192/3/1262
f 191/3/568 6/3/1263 36/3/1264
f 192/3/1265 3/1/1266 189/1/1267
f 189/1/1268 6/3/576 192/3/1269
f 194/3/577 37/4/1270 35/3/1271
f 193/4/1272 36/3/582 38/4/1273
f 195/3/1274 35/3/1275 65/3/1276
f 195/3/1277 36/3/1278 194/3/1279
f 196/4/589 65/3/1280 87/4/1281
f 196/4/1282 66/3/594 195/3/1283
f 196/4/595 37/4/1284 193/4/1285
f 196/4/598 38/4/600 88/4/1286
f 198/2/1287 61/1/603 63/2/1288
f 198/2/604 62/1/606 197/1/1289
f 199/2/607 63/2/1290 57/2/1291
f 199/2/610 64/2/1292 198/2/1293
f 199/2/1294 59/1/615 200/1/1295
f 199/2/1296 60/1/1297 58/2/1298
f 200/1/1299 61/1/1300 197/1/1301
f 200/1/1302 62/1/1303 60/1/1304
f 201/16/1305 25/16/1306 202/16/1307
f 201/16/628 26/16/630 46/16/1308
f 202/16/631 23/14/1309 203/14/1310
f 203/14/634 26/16/1311 202/16/1312
f 204/14/637 23/14/639 51/14/1313
f 204/14/640 24/14/642 203/14/1314
f 204/14/643 45/16/645 201/16/1315
f 204/14/646 46/16/1316 52/14/1317
f 206/8/649 63/2/651 67/8/1318
f 205/2/1319 68/8/1320 64/2/1321
f 207/8/655 67/8/657 81/8/1322
f 207/8/658 68/8/1323 206/8/1324
f 208/2/661 81/8/1325 57/2/1326
f 208/2/664 82/8/666 207/8/1327
f 208/2/667 63/2/669 205/2/1328
f 208/2/1329 64/2/1330 58/2/1331
f 209/13/1332 73/13/675 210/13/1333
f 209/13/676 74/13/678 96/13/1334
f 210/13/679 53/11/681 211/11/1335
f 210/13/682 54/11/1336 74/13/1337
f 212/11/1338 53/11/1339 71/11/1340
f 212/11/688 54/11/690 211/11/1341
f 209/13/1342 71/11/1343 95/13/1344
f 209/13/694 72/11/1345 212/11/1346
f 214/13/697 49/15/1347 73/13/1348
f 214/13/700 50/15/702 213/15/1349
f 215/13/1350 73/13/1351 95/13/1352
f 215/13/1353 74/13/708 214/13/1354
f 215/13/1355 77/15/1356 216/15/1357
f 215/13/1358 78/15/1359 96/13/1360
f 216/15/1361 49/15/717 213/15/1362
f 216/15/718 50/15/720 78/15/1363
f 217/9/1364 55/9/723 218/9/1365
f 217/9/724 56/9/1366 70/9/1367
f 219/10/1368 55/9/1369 47/10/1370
f 218/9/730 48/10/1371 56/9/1372
f 220/10/733 47/10/735 93/10/1373
f 220/10/1374 48/10/1375 219/10/1376
f 217/9/739 93/10/741 69/9/1377
f 220/10/1378 70/9/744 94/10/1379
f 221/5/1380 1/4/747 222/4/1381
f 222/4/1382 8/5/1383 221/5/1384
f 223/4/1385 1/4/753 37/4/1386
f 223/4/754 2/4/756 222/4/1387
f 223/4/757 17/5/1388 224/5/1389
f 224/5/1390 38/4/762 223/4/1391
f 224/5/763 7/5/765 221/5/1392
f 224/5/1393 8/5/768 18/5/1394
f 226/6/1395 41/6/771 89/6/1396
f 226/6/772 42/6/1397 225/6/1398
f 227/7/1399 89/6/1400 79/7/1401
f 227/7/1402 90/6/780 226/6/1403
f 227/7/1404 39/7/1405 228/7/1406
f 227/7/784 40/7/1407 80/7/1408
f 225/6/787 39/7/789 41/6/1409
f 228/7/1410 42/6/792 40/7/1411
f 229/16/793 51/14/795 230/14/1412
f 230/14/1413 46/16/798 229/16/1414
f 231/14/799 51/14/801 75/14/1415
f 231/14/802 52/14/1416 230/14/1417
f 232/16/1418 75/14/807 85/16/1419
f 231/14/808 86/16/810 76/14/1420
f 232/16/811 45/16/1421 229/16/1422
f 232/16/1423 46/16/816 86/16/1424
f 234/14/1425 21/15/1426 23/14/1427
f 233/15/1428 24/14/1429 22/15/1430
f 235/16/823 23/14/1431 25/16/1432
f 234/14/1433 26/16/1434 24/14/1435
f 236/12/1436 25/16/1437 19/12/1438
f 235/16/832 20/12/1439 26/16/1440
f 237/10/835 19/12/1441 33/10/1442
f 236/12/1443 34/10/840 20/12/1444
f 238/9/1445 33/10/843 31/9/1446
f 237/10/1447 32/9/1448 34/10/1449
f 239/11/1450 31/9/849 27/11/1451
f 238/9/1452 28/11/1453 32/9/1454
f 240/13/853 27/11/1455 29/13/1456
f 239/11/856 30/13/858 28/11/1457
f 233/15/859 29/13/861 21/15/1458
f 240/13/1459 22/15/1460 30/13/1461
