# Blender 5.2.0 LTS
# www.blender.org
o 117623717483653
v -0.095673 0.209139 -0.067178 0.3290 0.3355 0.3203
v 0.160890 0.209139 0.066987 0.3290 0.3355 0.3203
v 0.160890 0.209139 -0.067178 0.3290 0.3355 0.3203
v -0.095673 0.209139 0.066987 0.3290 0.3355 0.3203
v 0.149383 0.094547 0.066987 0.3290 0.3355 0.3203
v 0.149383 0.094547 -0.067178 0.3290 0.3355 0.3203
v 0.122990 -0.000053 0.066987 0.3290 0.3355 0.3203
v 0.122990 -0.000053 -0.067178 0.3290 0.3355 0.3203
v 0.098460 -0.067933 0.066987 0.3290 0.3355 0.3203
v 0.098460 -0.067933 -0.067178 0.3290 0.3355 0.3203
v 0.010118 -0.199033 0.066987 0.3290 0.3355 0.3203
v 0.010118 -0.199033 -0.067178 0.3290 0.3355 0.3203
v -0.108242 -0.307983 0.066987 0.3290 0.3355 0.3203
v -0.108242 -0.307983 -0.067178 0.3290 0.3355 0.3203
v -0.105140 -0.356305 0.066987 0.3290 0.3355 0.3203
v -0.105140 -0.356305 -0.067178 0.3290 0.3355 0.3203
v -0.360835 -0.427515 -0.042947 0.3290 0.3355 0.3203
v -0.360835 -0.427515 0.042754 0.3290 0.3355 0.3203
v -0.403601 -0.384749 -0.042947 0.3290 0.3355 0.3203
v -0.403601 -0.384749 0.042754 0.3290 0.3355 0.3203
v -0.354756 -0.421210 -0.058704 0.3290 0.3355 0.3203
v -0.397297 -0.378669 -0.058704 0.3290 0.3355 0.3203
v -0.354756 -0.421210 0.058510 0.3290 0.3355 0.3203
v -0.397297 -0.378669 0.058510 0.3290 0.3355 0.3203
v -0.280176 -0.422890 -0.042936 0.3290 0.3355 0.3203
v -0.285519 -0.417292 -0.058696 0.3290 0.3355 0.3203
v -0.285519 -0.417292 0.058502 0.3290 0.3355 0.3203
v -0.280176 -0.422890 0.042742 0.3290 0.3355 0.3203
v -0.135305 -0.379280 0.066987 0.3290 0.3355 0.3203
v -0.135305 -0.379280 -0.067178 0.3290 0.3355 0.3203
v -0.156640 -0.384244 -0.058704 0.3290 0.3355 0.3203
v -0.129174 -0.356777 -0.058703 0.3290 0.3355 0.3203
v -0.123571 -0.362123 -0.042948 0.3290 0.3355 0.3203
v -0.151294 -0.389846 -0.042947 0.3290 0.3355 0.3203
v -0.123571 -0.362123 0.042754 0.3290 0.3355 0.3203
v -0.156640 -0.384244 0.058510 0.3290 0.3355 0.3203
v -0.151294 -0.389846 0.042754 0.3290 0.3355 0.3203
v -0.129174 -0.356777 0.058510 0.3290 0.3355 0.3203
v -0.398977 -0.304089 -0.042936 0.3290 0.3355 0.3203
v -0.393378 -0.309433 -0.058696 0.3290 0.3355 0.3203
v -0.398977 -0.304089 0.042742 0.3290 0.3355 0.3203
v -0.393378 -0.309433 0.058502 0.3290 0.3355 0.3203
v -0.358366 -0.158341 -0.067178 0.3290 0.3355 0.3203
v -0.328202 -0.135367 0.066987 0.3290 0.3355 0.3203
v -0.328202 -0.135367 -0.067178 0.3290 0.3355 0.3203
v -0.358366 -0.158341 0.066987 0.3290 0.3355 0.3203
v -0.360330 -0.180554 -0.058703 0.3290 0.3355 0.3203
v -0.338210 -0.147485 -0.042948 0.3290 0.3355 0.3203
v -0.332862 -0.153088 -0.058703 0.3290 0.3355 0.3203
v -0.365933 -0.175207 -0.042947 0.3290 0.3355 0.3203
v -0.365933 -0.175207 0.042754 0.3290 0.3355 0.3203
v -0.360330 -0.180554 0.058510 0.3290 0.3355 0.3203
v -0.338210 -0.147485 0.042754 0.3290 0.3355 0.3203
v -0.332862 -0.153088 0.058510 0.3290 0.3355 0.3203
v -0.225005 -0.388462 -0.058702 0.3290 0.3355 0.3203
v -0.231078 -0.394769 -0.042942 0.3290 0.3355 0.3203
v -0.225005 -0.388462 0.058509 0.3290 0.3355 0.3203
v -0.231078 -0.394769 0.042749 0.3290 0.3355 0.3203
v -0.364548 -0.248918 -0.058702 0.3290 0.3355 0.3203
v -0.370856 -0.254992 -0.042942 0.3290 0.3355 0.3203
v -0.364548 -0.248918 0.058509 0.3290 0.3355 0.3203
v -0.370856 -0.254992 0.042749 0.3290 0.3355 0.3203
v -0.241526 -0.384165 -0.042953 0.3290 0.3355 0.3203
v -0.246698 -0.378206 -0.058926 0.3290 0.3355 0.3203
v -0.235717 -0.377465 -0.058925 0.3290 0.3355 0.3203
v -0.246698 -0.378206 0.058732 0.3290 0.3355 0.3203
v -0.241526 -0.384165 0.042759 0.3290 0.3355 0.3203
v -0.235717 -0.377465 0.058731 0.3290 0.3355 0.3203
v -0.354292 -0.270612 -0.058926 0.3290 0.3355 0.3203
v -0.360251 -0.265441 -0.042953 0.3290 0.3355 0.3203
v -0.353551 -0.259631 -0.058925 0.3290 0.3355 0.3203
v -0.360251 -0.265441 0.042759 0.3290 0.3355 0.3203
v -0.354292 -0.270612 0.058732 0.3290 0.3355 0.3203
v -0.353551 -0.259631 0.058731 0.3290 0.3355 0.3203
v -0.360200 -0.265557 -0.042930 0.3184 0.3247 0.3099
v -0.360200 -0.265557 0.042736 0.3211 0.3274 0.3126
v -0.241644 -0.384113 -0.042930 0.3184 0.3247 0.3099
v -0.241644 -0.384113 0.042736 0.3211 0.3274 0.3126
v -0.106314 0.125856 -0.067178 0.3290 0.3355 0.3203
v -0.106314 0.125856 0.066987 0.3290 0.3355 0.3203
v -0.126766 0.057455 -0.067178 0.3290 0.3355 0.3203
v -0.126766 0.057455 0.066987 0.3290 0.3355 0.3203
v -0.143226 0.012513 -0.067178 0.3290 0.3355 0.3203
v -0.143226 0.012513 0.066987 0.3290 0.3355 0.3203
v -0.214841 -0.086711 -0.067178 0.3290 0.3355 0.3203
v -0.214841 -0.086711 0.066987 0.3290 0.3355 0.3203
v -0.287302 -0.144881 -0.067178 0.3290 0.3355 0.3203
v -0.287302 -0.144881 0.066987 0.3290 0.3355 0.3203
v -0.188528 -0.350520 -0.042937 0.3290 0.3355 0.3203
v -0.188730 -0.350521 0.042749 0.3290 0.3355 0.3203
v -0.188730 -0.350521 -0.042942 0.3290 0.3355 0.3203
v -0.188528 -0.350520 0.042743 0.3290 0.3355 0.3203
v -0.326606 -0.212442 -0.042937 0.3290 0.3355 0.3203
v -0.326607 -0.212644 0.042749 0.3290 0.3355 0.3203
v -0.326606 -0.212442 0.042743 0.3290 0.3355 0.3203
v -0.326607 -0.212644 -0.042942 0.3290 0.3355 0.3203
v -0.324194 -0.389909 0.058723 0.3290 0.3355 0.3203
v -0.312430 -0.389531 0.058740 0.3290 0.3355 0.3203
v -0.324194 -0.389909 -0.058917 0.3290 0.3355 0.3203
v -0.312430 -0.389531 -0.058934 0.3290 0.3355 0.3203
v -0.305949 -0.180848 0.058735 0.3290 0.3355 0.3203
v -0.332566 -0.207477 0.058730 0.3290 0.3355 0.3203
v -0.305949 -0.180848 -0.058928 0.3290 0.3355 0.3203
v -0.332566 -0.207477 -0.058924 0.3290 0.3355 0.3203
v -0.156934 -0.329862 0.058734 0.3290 0.3355 0.3203
v -0.183563 -0.356481 0.058730 0.3290 0.3355 0.3203
v -0.156934 -0.329862 -0.058929 0.3290 0.3355 0.3203
v -0.183563 -0.356481 -0.058924 0.3290 0.3355 0.3203
v -0.365995 -0.348107 0.058723 0.3290 0.3355 0.3203
v -0.365995 -0.348107 -0.058917 0.3290 0.3355 0.3203
v -0.194460 -0.357165 0.058730 0.3290 0.3355 0.3203
v -0.333251 -0.218373 -0.058923 0.3290 0.3355 0.3203
v -0.333251 -0.218373 0.058730 0.3290 0.3355 0.3203
v -0.194460 -0.357165 -0.058923 0.3290 0.3355 0.3203
v -0.365618 -0.336344 -0.058934 0.3290 0.3355 0.3203
v -0.365618 -0.336344 0.058740 0.3290 0.3355 0.3203
v -0.326527 -0.297534 0.058504 0.3290 0.3355 0.3203
v -0.326527 -0.297534 -0.058698 0.3290 0.3355 0.3203
v -0.273621 -0.350440 0.058504 0.3290 0.3355 0.3203
v -0.273621 -0.350440 -0.058698 0.3290 0.3355 0.3203
v -0.322254 -0.229088 0.058509 0.3290 0.3355 0.3203
v -0.322254 -0.229088 -0.058702 0.3290 0.3355 0.3203
v -0.205174 -0.346169 0.058509 0.3290 0.3355 0.3203
v -0.205174 -0.346169 -0.058702 0.3290 0.3355 0.3203
v -0.315948 -0.223013 -0.042942 0.3290 0.3355 0.3203
v -0.315948 -0.223013 0.042748 0.3290 0.3355 0.3203
v -0.199100 -0.339861 -0.042942 0.3290 0.3355 0.3203
v -0.199100 -0.339861 0.042748 0.3290 0.3355 0.3203
v -0.359624 -0.341464 -0.042938 0.3290 0.3355 0.3203
v -0.320926 -0.302876 -0.042940 0.3290 0.3355 0.3203
v -0.359624 -0.341464 0.042745 0.3290 0.3355 0.3203
v -0.320926 -0.302876 0.042746 0.3290 0.3355 0.3203
v -0.317550 -0.383538 -0.042938 0.3290 0.3355 0.3203
v -0.278962 -0.344839 -0.042940 0.3290 0.3355 0.3203
v -0.317550 -0.383538 0.042745 0.3290 0.3355 0.3203
v -0.278962 -0.344839 0.042746 0.3290 0.3355 0.3203
v -0.300822 -0.186830 -0.042940 0.3290 0.3355 0.3203
v -0.300822 -0.186830 0.042746 0.3290 0.3355 0.3203
v -0.162917 -0.324737 -0.042940 0.3290 0.3355 0.3203
v -0.162917 -0.324737 0.042746 0.3290 0.3355 0.3203
v -0.359374 -0.342130 -0.042940 0.3290 0.3355 0.3203
v -0.359374 -0.342130 0.042746 0.3290 0.3355 0.3203
v -0.318217 -0.383288 0.042746 0.3290 0.3355 0.3203
v -0.318217 -0.383288 -0.042940 0.3290 0.3355 0.3203
v -0.215288 -0.163469 -0.069250 0.3290 0.3355 0.3203
v -0.215288 -0.163469 0.069059 0.3290 0.3355 0.3203
v -0.232177 -0.146250 -0.069250 0.3290 0.3355 0.3203
v -0.232177 -0.146250 0.069059 0.3290 0.3355 0.3203
v -0.169553 -0.201949 -0.069250 0.3290 0.3355 0.3203
v -0.169553 -0.201949 0.069059 0.3290 0.3355 0.3203
v -0.186442 -0.184729 -0.069250 0.3290 0.3355 0.3203
v -0.186442 -0.184729 0.069059 0.3290 0.3355 0.3203
v -0.110569 -0.248573 -0.069250 0.3290 0.3355 0.3203
v -0.110569 -0.248573 0.069059 0.3290 0.3355 0.3203
v -0.127458 -0.231353 -0.069250 0.3290 0.3355 0.3203
v -0.127458 -0.231353 0.069059 0.3290 0.3355 0.3203
v 0.011021 0.195645 -0.069250 0.3290 0.3355 0.3203
v 0.011021 0.195645 0.069059 0.3290 0.3355 0.3203
v 0.035140 0.195645 -0.069250 0.3290 0.3355 0.3203
v 0.035140 0.195645 0.069059 0.3290 0.3355 0.3203
v 0.091378 0.195053 -0.069250 0.3290 0.3355 0.3203
v 0.091378 0.195053 0.069059 0.3290 0.3355 0.3203
v 0.115497 0.195053 -0.069250 0.3290 0.3355 0.3203
v 0.115497 0.195053 0.069059 0.3290 0.3355 0.3203
v -0.061083 0.195053 -0.069250 0.3290 0.3355 0.3203
v -0.061083 0.195053 0.069059 0.3290 0.3355 0.3203
v -0.036966 0.195053 -0.069250 0.3290 0.3355 0.3203
v -0.036966 0.195053 0.069059 0.3290 0.3355 0.3203
v 0.109304 0.106855 -0.069250 0.3290 0.3355 0.3203
v 0.109304 0.106855 0.069059 0.3290 0.3355 0.3203
v 0.080426 0.018912 -0.069250 0.3290 0.3355 0.3203
v 0.080426 0.018912 0.069059 0.3290 0.3355 0.3203
v 0.053673 -0.038512 -0.069250 0.3290 0.3355 0.3203
v 0.053673 -0.038512 0.069059 0.3290 0.3355 0.3203
v -0.023071 -0.155089 -0.069250 0.3290 0.3355 0.3203
v -0.023071 -0.155089 0.069059 0.3290 0.3355 0.3203
v -0.066343 0.129521 -0.069250 0.3290 0.3355 0.3203
v -0.066343 0.129521 0.069059 0.3290 0.3355 0.3203
v -0.084463 0.056899 0.069059 0.3290 0.3355 0.3203
v -0.084463 0.056899 -0.069250 0.3290 0.3355 0.3203
v -0.107249 0.015231 0.069059 0.3290 0.3355 0.3203
v -0.107249 0.015231 -0.069250 0.3290 0.3355 0.3203
v -0.167687 -0.082486 0.069059 0.3290 0.3355 0.3203
v -0.167687 -0.082486 -0.069250 0.3290 0.3355 0.3203
v 0.005763 0.120420 0.069059 0.3290 0.3355 0.3203
v 0.029666 0.117198 0.069059 0.3290 0.3355 0.3203
v 0.004095 0.035976 0.069059 0.3290 0.3355 0.3203
v -0.019498 0.040990 0.069059 0.3290 0.3355 0.3203
v -0.017106 -0.015893 0.069059 0.3290 0.3355 0.3203
v -0.039959 -0.008179 0.069059 0.3290 0.3355 0.3203
v -0.088154 -0.124405 0.069059 0.3290 0.3355 0.3203
v -0.109763 -0.113692 0.069059 0.3290 0.3355 0.3203
v 0.029666 0.117198 -0.069250 0.3290 0.3355 0.3203
v 0.005763 0.120420 -0.069250 0.3290 0.3355 0.3203
v 0.004095 0.035976 -0.069250 0.3290 0.3355 0.3203
v -0.019498 0.040990 -0.069250 0.3290 0.3355 0.3203
v -0.017106 -0.015893 -0.069250 0.3290 0.3355 0.3203
v -0.039959 -0.008179 -0.069250 0.3290 0.3355 0.3203
v -0.088154 -0.124405 -0.069250 0.3290 0.3355 0.3203
v -0.109763 -0.113692 -0.069250 0.3290 0.3355 0.3203
v 0.085322 0.109431 0.069059 0.3290 0.3355 0.3203
v 0.056834 0.023929 0.069059 0.3290 0.3355 0.3203
v 0.030897 -0.030573 0.069059 0.3290 0.3355 0.3203
v -0.044378 -0.143785 0.069059 0.3290 0.3355 0.3203
v 0.085322 0.109431 -0.069250 0.3290 0.3355 0.3203
v 0.056834 0.023929 -0.069250 0.3290 0.3355 0.3203
v 0.030897 -0.030573 -0.069250 0.3290 0.3355 0.3203
v -0.044378 -0.143785 -0.069250 0.3290 0.3355 0.3203
v -0.042439 0.126299 0.069059 0.3290 0.3355 0.3203
v -0.060943 0.051558 0.069059 0.3290 0.3355 0.3203
v -0.084555 0.007063 0.069059 0.3290 0.3355 0.3203
v -0.146263 -0.093564 0.069059 0.3290 0.3355 0.3203
v -0.042439 0.126299 -0.069250 0.3290 0.3355 0.3203
v -0.060943 0.051558 -0.069250 0.3290 0.3355 0.3203
v -0.084555 0.007063 -0.069250 0.3290 0.3355 0.3203
v -0.146263 -0.093564 -0.069250 0.3290 0.3355 0.3203
vn 0.0005 -1.0000 -0.0005
vn -0.9950 0.0999 -0.0000
vn -0.9825 0.1861 -0.0004
vn -0.9826 0.1858 -0.0004
vn -0.9523 0.3052 -0.0004
vn -0.8886 0.4587 -0.0005
vn -0.7520 0.6591 -0.0005
vn -0.8965 0.4430 -0.0000
vn -0.8965 0.4430 -0.0005
vn -0.9979 -0.0641 -0.0000
vn 0.7071 0.7071 -0.0006
vn 0.7071 0.7071 -0.0009
vn 0.7071 0.7071 -0.0005
vn 0.6181 0.6181 0.4858
vn 0.6181 0.6181 -0.4858
vn -0.0532 0.9348 0.3513
vn -0.0533 0.9347 0.3513
vn -0.0533 0.9347 0.3514
vn -0.0533 0.9347 -0.3513
vn -0.0532 0.9348 -0.3512
vn -0.0533 0.9346 -0.3516
vn -0.0533 0.9347 -0.3515
vn -0.6059 0.7955 -0.0000
vn -0.6344 0.6345 0.4415
vn -0.6346 0.6346 0.4410
vn -0.6346 0.6347 0.4410
vn -0.6345 0.6345 0.4413
vn -0.6346 0.6346 -0.4410
vn -0.7071 0.7071 -0.0000
vn -0.7071 0.7071 -0.0003
vn -0.7071 0.7071 -0.0005
vn -0.0572 0.9984 -0.0000
vn -0.0572 0.9984 -0.0006
vn 0.9350 -0.0531 0.3507
vn 0.9347 -0.0533 0.3513
vn 0.9348 -0.0533 0.3512
vn 0.9350 -0.0531 -0.3507
vn 0.9348 -0.0533 -0.3512
vn 0.9347 -0.0533 -0.3514
vn 0.6059 -0.7955 -0.0000
vn 0.6346 -0.6346 0.4411
vn 0.6346 -0.6346 0.4410
vn 0.6346 -0.6346 -0.4410
vn 0.6346 -0.6346 -0.4411
vn 0.9984 -0.0572 -0.0007
vn 0.9984 -0.0572 -0.0000
vn 0.9984 -0.0572 -0.0006
vn 0.7071 -0.7071 -0.0005
vn 0.7071 -0.7071 -0.0000
vn 0.7071 -0.7071 -0.0007
vn -0.0576 0.9343 0.3517
vn -0.0569 0.9342 0.3522
vn -0.0571 0.9342 0.3522
vn -0.0572 0.9342 0.3521
vn -0.0572 0.9342 -0.3520
vn -0.0571 0.9342 -0.3522
vn -0.0570 0.9341 -0.3523
vn -0.0569 0.9341 -0.3523
vn -0.0619 0.9981 -0.0003
vn -0.0616 0.9981 -0.0000
vn -0.0622 0.9981 -0.0006
vn -0.0620 0.9981 -0.0004
vn 0.9342 -0.0572 0.3521
vn 0.9343 -0.0576 0.3518
vn 0.9342 -0.0573 0.3521
vn 0.9342 -0.0572 0.3520
vn 0.9343 -0.0576 -0.3518
vn 0.9342 -0.0571 -0.3521
vn 0.9342 -0.0572 -0.3521
vn 0.9343 -0.0572 -0.3519
vn -0.2896 0.8635 0.4129
vn 0.1478 0.8914 0.4283
vn -0.2378 0.8838 0.4030
vn -0.2379 0.8837 -0.4030
vn 0.1479 0.8915 -0.4283
vn -0.2899 0.8634 -0.4129
vn 0.9981 -0.0619 -0.0005
vn 0.9981 -0.0620 -0.0005
vn 0.9981 -0.0622 -0.0006
vn 0.7687 -0.4676 0.4364
vn 0.7658 0.4296 0.4785
vn 0.8069 -0.4053 0.4297
vn 0.8070 -0.4051 -0.4297
vn 0.7658 0.4296 -0.4785
vn 0.7687 -0.4677 -0.4363
vn -0.6352 0.6341 0.4409
vn -0.2899 0.8634 0.4129
vn -0.2379 0.8837 0.4030
vn -0.6355 0.6337 0.4411
vn -0.6353 0.6342 -0.4407
vn -0.6352 0.6341 -0.4409
vn -0.9569 -0.2905 0.0001
vn -0.7076 0.7066 -0.0005
vn -0.9569 -0.2905 -0.0006
vn -0.7078 0.7064 -0.0000
vn 0.7657 0.4297 0.4785
vn 0.6150 0.6212 0.4858
vn 0.7870 0.3944 0.4745
vn 0.7870 0.3945 0.4744
vn 0.6152 0.6211 0.4856
vn 0.6150 0.6209 0.4860
vn 0.7870 0.3944 -0.4744
vn 0.6150 0.6209 -0.4861
vn 0.6151 0.6211 -0.4857
vn 0.7657 0.4297 -0.4785
vn 0.6211 0.6151 0.4857
vn 0.1480 0.8914 0.4284
vn 0.2134 0.8708 0.4430
vn 0.6211 0.6153 0.4855
vn 0.6210 0.6150 -0.4860
vn 0.2134 0.8708 -0.4430
vn 0.6211 0.6152 -0.4855
vn 0.1480 0.8914 -0.4284
vn 0.6210 0.6154 -0.4854
vn 0.9919 -0.1267 -0.0000
vn 0.9780 -0.2085 -0.0005
vn 0.9780 -0.2086 -0.0006
vn 0.9488 -0.3159 -0.0004
vn 0.9489 -0.3156 -0.0002
vn 0.8792 -0.4765 -0.0005
vn 0.7149 -0.6993 -0.0005
vn 0.7149 -0.6992 -0.0005
vn 0.0925 -0.9957 -0.0005
vn 0.0924 -0.9957 -0.0000
vn -0.2266 -0.9740 -0.0000
vn 0.6336 -0.6356 0.4412
vn 0.6342 -0.6353 0.4407
vn 0.8068 -0.4055 -0.4296
vn 0.6340 -0.6353 -0.4410
vn 0.6335 -0.6356 -0.4412
vn 0.7685 -0.4678 -0.4364
vn -0.0050 1.0000 -0.0000
vn -0.0043 1.0000 -0.0006
vn -0.0044 1.0000 -0.0005
vn -0.3208 0.9472 -0.0007
vn 0.7041 0.7101 -0.0000
vn -0.3208 0.9472 -0.0006
vn 0.7101 0.7041 -0.0000
vn -0.0248 -0.9997 -0.0006
vn 0.7100 0.7042 -0.0006
vn -0.0251 -0.9997 -0.0004
vn -0.9569 -0.2903 -0.0005
vn -0.0251 -0.9997 -0.0005
vn 0.7064 -0.7078 -0.0000
vn 0.0619 -0.9981 -0.0004
vn 0.0619 -0.9981 -0.0002
vn 1.0000 -0.0048 -0.0000
vn 1.0000 -0.0045 -0.0004
vn 1.0000 -0.0045 -0.0003
vn 1.0000 -0.0044 -0.0007
vn 0.0005 0.0005 -1.0000
vn 0.0005 0.0005 1.0000
vn 0.0003 0.0003 1.0000
vn 0.0006 0.0006 1.0000
vn 0.0004 0.0004 1.0000
vn 0.0006 0.0006 -1.0000
vn 0.0004 0.0004 -1.0000
vn -0.0014 0.0065 -1.0000
vn -0.0008 0.0016 -1.0000
vn 0.0003 0.0036 -1.0000
vn 0.0022 0.0047 -1.0000
vn 0.0003 0.0036 1.0000
vn -0.0008 0.0016 1.0000
vn -0.0014 0.0065 1.0000
vn 0.0022 0.0047 1.0000
vn 0.0041 -0.0040 -1.0000
vn 0.0075 -0.0014 -1.0000
vn 0.0041 -0.0041 -1.0000
vn 0.0054 -0.0041 -1.0000
vn 0.0080 -0.0009 1.0000
vn 0.0045 -0.0036 1.0000
vn 0.0043 -0.0043 1.0000
vn 0.0041 -0.0041 1.0000
vn -0.0041 0.0041 -1.0000
vn -0.0004 0.0076 -1.0000
vn -0.0043 0.0055 -1.0000
vn -0.0039 0.0041 -1.0000
vn -0.0043 0.0043 1.0000
vn -0.0043 0.0054 1.0000
vn -0.0013 0.0075 1.0000
vn -0.0042 0.0041 1.0000
vn 0.0067 0.0001 -1.0000
vn 0.0036 0.0024 -1.0000
vn 0.0036 0.0024 1.0000
vn 0.0068 0.0001 1.0000
vn -0.0007 0.0055 -1.0000
vn 0.0004 0.0034 -1.0000
vn 0.0055 -0.0007 1.0000
vn 0.0035 0.0003 1.0000
vn 0.0055 -0.0007 -1.0000
vn 0.0034 0.0004 -1.0000
vn -0.0007 0.0055 1.0000
vn 0.0004 0.0034 1.0000
vn 0.0017 -0.0008 1.0000
vn 0.0036 0.0003 1.0000
vn 0.0036 0.0003 -1.0000
vn 0.0016 -0.0008 -1.0000
vn -0.0061 0.0005 -1.0000
vn -0.0005 0.0005 -1.0000
vn -0.0061 0.0005 1.0000
vn -0.0005 -0.0005 1.0000
vn 0.0005 -0.0055 -1.0000
vn 0.0005 -0.0035 -1.0000
vn 0.0005 -0.0035 1.0000
vn 0.0005 -0.0056 1.0000
vn -0.0064 0.0005 -1.0000
vn -0.0064 0.0005 1.0000
vn -0.0005 0.0005 1.0000
vn 0.0005 -0.0054 -1.0000
vn 0.0005 -0.0055 1.0000
vn -0.6149 -0.6211 0.4860
vn -0.8434 -0.2926 0.4507
vn -0.6152 -0.6209 0.4858
vn -0.7639 -0.4374 0.4745
vn -0.6152 -0.6209 -0.4857
vn -0.7635 -0.4372 -0.4753
vn -0.8434 -0.2926 -0.4507
vn -0.6149 -0.6211 -0.4860
vn -0.1900 -0.8838 0.4275
vn -0.6210 -0.6149 0.4860
vn -0.6209 -0.6152 0.4858
vn -0.1588 -0.8937 0.4197
vn -0.1588 -0.8937 -0.4197
vn -0.6209 -0.6152 -0.4858
vn -0.1900 -0.8838 -0.4275
vn -0.6208 -0.6151 -0.4861
vn 0.7037 0.7105 -0.0007
vn 0.7037 0.7105 -0.0005
vn 0.7037 0.7105 -0.0000
vn -0.8338 0.3600 0.4186
vn -0.6337 0.6356 0.4409
vn -0.7704 0.4685 0.4324
vn -0.6337 0.6356 -0.4409
vn -0.8337 0.3599 -0.4187
vn -0.7704 0.4685 -0.4324
vn 0.2790 -0.8711 0.4041
vn 0.6356 -0.6337 0.4408
vn 0.6356 -0.6337 0.4409
vn 0.2347 -0.8890 0.3932
vn 0.6356 -0.6337 -0.4409
vn 0.2340 -0.8883 -0.3952
vn 0.2790 -0.8712 -0.4041
vn -0.7042 -0.7100 -0.0005
vn -0.9085 -0.4179 -0.0000
vn -0.9085 -0.4179 -0.0005
vn -0.1872 -0.9823 0.0001
vn -0.7100 -0.7042 -0.0000
vn -0.1871 -0.9823 -0.0004
vn -0.8870 0.4618 -0.0005
vn -0.7061 0.7081 -0.0000
vn -0.8870 0.4618 -0.0000
vn 0.7081 -0.7061 -0.0000
vn 0.2749 -0.9615 -0.0004
vn 0.2750 -0.9615 -0.0000
vn -0.9290 0.0601 0.3651
vn -0.9290 0.0600 -0.3651
vn -0.6348 0.6345 0.4410
vn -0.6345 0.6346 0.4412
vn -0.6348 0.6340 0.4417
vn -0.6346 0.6345 0.4412
vn -0.6348 0.6344 -0.4412
vn -0.6346 0.6345 -0.4413
vn -0.6347 0.6344 -0.4413
vn -0.6345 0.6346 -0.4412
vn 0.0601 -0.9290 -0.3651
vn 0.0601 -0.9290 0.3651
vn 0.6342 -0.6348 0.4415
vn 0.6346 -0.6347 0.4409
vn 0.6344 -0.6347 0.4411
vn 0.6346 -0.6345 0.4411
vn 0.6343 -0.6347 -0.4414
vn 0.6344 -0.6347 -0.4412
vn 0.6342 -0.6348 -0.4414
vn 0.6346 -0.6344 -0.4413
vn 0.6346 -0.6344 -0.4414
vn -0.9303 0.0100 0.3666
vn -0.9303 0.0102 0.3667
vn -0.9303 0.0103 0.3667
vn -0.9303 0.0101 0.3666
vn -0.9303 0.0100 -0.3667
vn -0.9303 0.0103 -0.3667
vn -0.9303 0.0102 -0.3667
vn -0.9303 0.0101 -0.3666
vn -0.7077 0.7066 -0.0004
vn -0.7075 0.7067 -0.0000
vn -0.7077 0.7065 -0.0008
vn 0.0102 -0.9303 -0.3667
vn 0.0100 -0.9303 -0.3666
vn 0.0101 -0.9303 -0.3667
vn -0.6176 -0.6176 0.4870
vn -0.6178 -0.6178 -0.4866
vn -0.6176 -0.6176 -0.4870
vn 0.0102 -0.9303 0.3667
vn 0.0101 -0.9303 0.3666
vn 0.0101 -0.9303 0.3667
vn 0.0103 -0.9303 0.3667
vn -0.3212 0.9470 -0.0007
vn -0.3211 0.9470 -0.0005
vn 0.0621 -0.9981 -0.0005
vn 0.0619 -0.9981 -0.0005
vn 0.7067 -0.7075 -0.0000
vn 0.7065 -0.7077 -0.0006
vn -0.9360 -0.3520 -0.0004
vn -0.9361 -0.3518 -0.0003
vn -0.9361 -0.3519 -0.0004
vn -0.9360 -0.3520 -0.0005
vn -0.7071 -0.7071 -0.0007
vn -0.7071 -0.7071 -0.0006
vn -0.7071 -0.7071 -0.0000
vn -0.3512 -0.9363 -0.0004
vn -0.3511 -0.9363 -0.0005
vn -0.3510 -0.9364 -0.0000
vn -0.3511 -0.9364 -0.0003
vn 0.7139 0.7002 -0.0000
vn 0.7139 0.7002 -0.0009
vn 0.7139 0.7002 -0.0007
vn 0.7139 0.7002 -0.0008
vn 0.7139 0.7002 -0.0005
vn -0.0000 -1.0000 -0.0006
vn -0.0000 -1.0000 -0.0005
vn -0.0000 -1.0000 -0.0003
vn -0.9975 0.0704 -0.0005
vn -0.9807 0.1953 -0.0005
vn -0.9975 0.0700 -0.0000
vn -0.9293 0.3692 -0.0005
vn -0.9294 0.3692 -0.0004
vn -0.8720 0.4895 -0.0005
vn -0.8719 0.4897 -0.0005
vn -0.7827 0.6224 -0.0005
vn -0.7302 0.6832 -0.0007
vn -0.7301 0.6833 -0.0000
vn 0.9868 -0.1620 -0.0003
vn 0.9968 -0.0800 -0.0000
vn 0.9869 -0.1616 -0.0000
vn 0.9293 -0.3693 -0.0005
vn 0.8642 -0.5031 -0.0000
vn 0.7766 -0.6300 -0.0005
vn 0.7767 -0.6299 -0.0005
vn 0.7031 -0.7111 -0.0000
vn 0.7032 -0.7110 -0.0005
vn -0.0000 -0.0000 -1.0000
vn -0.0000 -0.0000 1.0000
vn 0.9817 -0.1904 -0.0005
vn 0.9976 -0.0694 -0.0007
vn 0.9817 -0.1903 -0.0005
vn 0.9976 -0.0697 -0.0000
vn 0.9387 -0.3448 -0.0005
vn 0.9388 -0.3446 -0.0004
vn 0.8805 -0.4740 -0.0005
vn 0.8806 -0.4739 -0.0005
vn 0.7558 -0.6548 -0.0005
vn 0.7557 -0.6550 -0.0005
vn 0.6797 -0.7335 -0.0005
vn 0.6796 -0.7336 -0.0000
vn -0.9976 0.0695 -0.0003
vn -0.9821 0.1885 -0.0005
vn -0.9406 0.3396 -0.0000
vn -0.8832 0.4690 -0.0005
vn -0.7624 0.6471 -0.0005
vn -0.6898 0.7240 -0.0000
vn -0.9969 0.0791 -0.0008
vn -0.9869 0.1611 -0.0004
vn -0.9969 0.0793 -0.0003
vn -0.9869 0.1613 -0.0005
vn -0.9323 0.3616 -0.0005
vn -0.8683 0.4960 -0.0000
vn -0.7818 0.6235 -0.0005
vn -0.7116 0.7026 -0.0000
vn -0.7115 0.7027 -0.0009
vn 0.9975 -0.0706 -0.0000
vn 0.9803 -0.1973 -0.0005
vn 0.9270 -0.3751 -0.0005
vn 0.8688 -0.4951 -0.0005
vn 0.8688 -0.4952 -0.0005
vn 0.7788 -0.6273 -0.0005
vn 0.7255 -0.6883 -0.0008
vn 0.7255 -0.6883 -0.0000
vt 0.375000 0.750000
vt 0.375000 1.000000
vt 0.375000 0.250000
vt 0.375000 0.500000
vt 0.375000 0.000000
vt 0.375000 0.534077
vt 0.125000 0.534077
vt 0.375000 0.715923
vt 0.125000 0.715923
vt 0.125000 0.500000
vt 0.125000 0.750000
vt 0.625000 0.500000
vt 0.590923 0.500000
vt 0.590923 0.750000
vt 0.625000 0.750000
vt 0.625000 0.250000
vt 0.590923 0.250000
vt 0.625000 1.000000
vt 0.590923 1.000000
vt 0.875000 0.534077
vt 0.625000 0.534077
vt 0.875000 0.715923
vt 0.625000 0.715923
vt 0.409077 0.750000
vt 0.409077 0.500000
vt 0.409077 1.000000
vt 0.409077 0.250000
vt 0.000000 0.000000
s 1
f 1/1/1 3/2/1 2/3/1
f 2/3/1 4/4/1 1/1/1
f 3/5/2 6/5/3 5/3/4
f 5/3/4 2/3/2 3/5/2
f 7/3/5 5/3/4 6/5/3
f 6/5/3 8/5/5 7/3/5
f 9/3/6 7/3/5 8/5/5
f 8/5/5 10/5/6 9/3/6
f 11/3/7 9/3/6 10/5/6
f 10/5/6 12/5/7 11/3/7
f 13/3/8 11/3/7 12/5/7
f 12/5/7 14/5/9 13/3/8
f 14/5/9 15/3/10 13/3/8
f 15/3/10 14/5/9 16/5/10
f 17/6/11 19/7/12 18/8/13
f 19/7/12 20/9/13 18/8/13
f 21/4/14 22/10/14 19/7/14
f 19/7/14 17/6/14 21/4/14
f 20/9/15 23/1/15 18/8/15
f 20/9/15 24/11/15 23/1/15
f 25/12/16 26/13/17 21/4/17
f 21/4/17 17/6/18 25/12/16
f 27/14/19 28/15/20 23/1/21
f 18/8/22 23/1/21 28/15/20
f 29/3/23 16/5/23 30/5/23
f 16/5/23 29/3/23 15/3/23
f 31/13/24 33/16/25 32/17/25
f 33/16/26 31/13/27 34/12/26
f 35/18/28 37/15/28 36/14/28
f 36/14/28 38/19/28 35/18/28
f 33/20/29 34/21/30 35/22/29
f 34/21/31 37/23/29 35/22/29
f 17/6/32 18/8/32 25/21/33
f 25/21/33 18/8/32 28/23/32
f 39/6/34 19/7/35 22/10/35
f 22/10/35 40/4/36 39/6/34
f 41/8/37 42/1/38 24/11/39
f 24/11/39 20/9/39 41/8/37
f 43/1/40 45/1/40 44/4/40
f 44/4/40 46/4/40 43/1/40
f 47/4/41 49/10/41 48/7/41
f 48/7/41 50/6/42 47/4/41
f 51/8/43 53/9/43 52/1/43
f 53/9/44 54/11/44 52/1/44
f 19/7/45 39/6/46 41/8/47
f 41/8/47 20/9/46 19/7/45
f 51/8/48 50/6/49 48/7/49
f 48/7/49 53/9/50 51/8/48
f 34/12/51 31/13/52 55/4/53
f 55/4/53 56/6/54 34/12/51
f 36/14/55 37/15/56 57/1/57
f 58/8/58 57/1/57 37/15/56
f 56/6/59 58/8/60 34/21/61
f 34/21/61 58/8/60 37/23/62
f 50/6/63 60/7/64 59/10/65
f 59/10/65 47/4/66 50/6/63
f 51/8/67 52/1/68 61/11/69
f 61/11/69 62/9/70 51/8/67
f 63/16/71 65/10/72 64/17/73
f 66/19/74 68/11/75 67/18/76
f 60/7/77 50/6/78 51/8/78
f 51/8/78 62/9/79 60/7/77
f 69/10/80 71/4/81 70/7/82
f 72/9/83 74/1/84 73/11/85
f 26/13/86 63/16/87 64/17/88
f 63/16/87 26/13/86 25/12/89
f 67/18/76 28/15/90 27/14/91
f 27/14/91 66/19/74 67/18/76
f 63/20/92 25/21/93 67/22/94
f 25/21/93 28/23/95 67/22/94
f 71/4/96 59/10/97 75/6/98
f 75/6/99 59/10/100 60/7/101
f 76/8/102 62/9/103 61/11/104
f 61/11/104 74/1/105 76/8/102
f 55/4/106 65/10/107 77/7/108
f 77/7/108 56/6/109 55/4/106
f 58/8/110 78/9/111 57/1/112
f 78/9/111 68/11/113 57/1/114
f 1/1/115 4/4/115 79/1/116
f 79/1/116 4/4/115 80/4/117
f 80/4/117 81/1/118 79/1/116
f 81/1/118 80/4/117 82/4/119
f 82/4/119 83/1/120 81/1/118
f 83/1/120 82/4/119 84/4/120
f 83/1/120 84/4/120 85/1/121
f 85/1/121 84/4/120 86/4/122
f 86/4/122 87/1/123 85/1/121
f 87/1/123 86/4/122 88/4/124
f 45/1/125 87/1/123 88/4/124
f 88/4/124 44/4/125 45/1/125
f 40/4/126 69/10/80 70/7/82
f 70/7/82 39/6/127 40/4/126
f 72/9/128 42/1/129 41/8/130
f 72/9/128 73/11/131 42/1/129
f 89/21/132 91/6/133 90/8/134
f 90/8/134 92/23/134 89/21/132
f 75/6/135 60/7/136 62/9/136
f 62/9/136 76/8/137 75/6/135
f 56/6/138 77/7/139 58/8/140
f 77/7/139 78/9/141 58/8/140
f 77/7/139 67/22/142 78/9/141
f 67/22/94 77/7/143 63/20/92
f 39/6/144 70/7/145 72/9/146
f 72/9/146 41/8/144 39/6/144
f 93/20/147 95/22/148 94/23/149
f 94/23/149 96/21/150 93/20/147
f 5/3/151 80/4/151 4/4/151
f 4/4/151 2/3/151 5/3/151
f 80/4/151 5/3/151 7/3/151
f 7/3/151 82/4/151 80/4/151
f 82/4/151 7/3/151 9/3/151
f 9/3/151 84/4/151 82/4/151
f 84/4/151 9/3/151 11/3/151
f 11/3/151 86/4/151 84/4/151
f 86/4/151 11/3/151 13/3/151
f 13/3/151 88/4/151 86/4/151
f 16/2/152 87/1/153 45/1/152
f 16/2/152 14/2/152 87/1/153
f 88/4/151 13/3/151 15/3/151
f 15/3/151 44/4/151 88/4/151
f 30/2/154 45/1/152 43/1/155
f 30/2/154 16/2/152 45/1/152
f 44/4/151 15/3/151 29/3/156
f 29/3/156 46/4/157 44/4/151
f 81/1/152 10/2/152 8/2/152
f 8/2/152 79/1/152 81/1/152
f 10/2/152 81/1/152 83/1/152
f 79/1/152 8/2/152 6/2/152
f 1/1/152 79/1/152 6/2/152
f 1/1/152 6/2/152 3/2/154
f 83/1/152 12/2/152 10/2/152
f 12/2/152 83/1/152 85/1/152
f 12/2/152 85/1/152 14/2/152
f 14/2/152 85/1/152 87/1/153
f 97/14/158 98/24/159 27/14/160
f 23/24/161 97/14/158 27/14/160
f 26/13/162 100/25/163 99/13/164
f 99/13/164 21/25/165 26/13/162
f 101/19/166 52/24/167 54/26/168
f 52/24/167 101/19/166 102/14/169
f 47/25/170 104/13/171 103/17/172
f 103/17/173 49/27/173 47/25/173
f 105/26/174 38/19/174 36/14/174
f 36/14/175 106/24/176 105/26/177
f 107/27/178 108/25/179 31/13/180
f 31/13/180 32/17/181 107/27/178
f 23/24/161 24/26/182 109/19/183
f 109/19/183 97/14/158 23/24/161
f 21/25/165 99/13/164 110/17/184
f 110/17/184 22/27/185 21/25/165
f 111/14/186 106/24/176 36/14/175
f 57/24/187 111/14/186 36/14/175
f 112/17/188 104/13/171 47/25/170
f 59/27/189 112/17/188 47/25/170
f 52/24/167 102/14/169 113/19/190
f 113/19/190 61/26/191 52/24/167
f 31/13/180 108/25/179 114/13/192
f 114/13/192 55/25/193 31/13/180
f 110/17/184 115/13/194 40/25/195
f 22/27/185 110/17/184 40/25/195
f 42/24/196 116/14/197 109/19/183
f 109/19/183 24/26/182 42/24/196
f 73/26/198 117/19/199 116/14/197
f 116/14/197 42/24/196 73/26/198
f 69/27/200 40/25/195 115/13/194
f 115/13/194 118/17/201 69/27/200
f 119/26/202 66/19/203 98/24/159
f 98/24/159 66/19/203 27/14/160
f 100/25/163 26/13/162 64/17/204
f 64/17/204 120/27/205 100/25/163
f 74/24/206 61/26/191 113/19/190
f 113/19/190 121/14/199 74/24/206
f 71/25/207 122/13/208 112/17/188
f 112/17/188 59/27/189 71/25/207
f 68/26/203 123/19/209 111/14/186
f 111/14/186 57/24/187 68/26/203
f 114/13/192 65/27/204 55/25/193
f 65/27/204 114/13/192 124/17/210
f 122/13/208 71/25/207 118/17/201
f 71/25/207 69/27/200 118/17/201
f 117/19/199 73/26/198 74/24/206
f 74/24/206 121/14/199 117/19/199
f 65/27/204 124/17/210 120/27/205
f 120/27/205 64/17/204 65/27/204
f 68/26/203 119/26/202 123/19/209
f 68/26/203 66/19/203 119/26/202
f 112/17/211 122/13/212 93/16/213
f 93/16/213 122/13/212 125/12/214
f 95/18/215 126/15/216 121/14/217
f 121/14/217 113/19/218 95/18/215
f 124/17/219 114/13/220 89/12/221
f 89/12/221 127/16/222 124/17/219
f 128/18/223 92/15/224 123/19/225
f 92/15/224 111/14/226 123/19/225
f 43/1/227 29/10/228 30/11/229
f 43/1/227 46/4/229 29/10/228
f 118/17/230 115/13/231 129/12/231
f 129/12/231 130/16/232 118/17/230
f 131/15/233 117/19/234 132/18/235
f 131/15/233 116/14/233 117/19/234
f 120/10/236 133/6/237 100/4/238
f 133/6/237 120/10/236 134/7/239
f 135/8/240 136/9/241 119/11/242
f 119/11/242 98/1/240 135/8/240
f 95/22/243 93/20/243 125/21/244
f 125/21/244 126/23/245 95/22/243
f 127/20/246 89/21/247 128/22/248
f 89/21/247 92/23/247 128/22/248
f 130/20/249 129/21/250 132/22/251
f 129/21/250 131/23/250 132/22/251
f 135/8/252 133/6/252 134/7/253
f 134/7/253 136/9/254 135/8/252
f 125/12/214 122/13/212 130/16/232
f 122/13/212 118/17/230 130/16/232
f 121/14/217 126/15/216 132/18/235
f 132/18/235 117/19/234 121/14/217
f 134/7/239 120/10/236 124/17/219
f 124/17/219 127/16/222 134/7/239
f 136/9/241 128/18/223 123/19/225
f 123/19/225 119/11/242 136/9/241
f 93/16/255 104/13/255 112/17/255
f 113/19/256 102/14/256 95/18/256
f 104/13/257 137/16/257 103/17/258
f 137/16/259 104/13/260 96/12/260
f 138/18/261 94/15/262 102/14/263
f 102/14/263 101/19/264 138/18/261
f 92/15/265 106/1/265 111/14/265
f 114/13/266 108/4/266 89/12/266
f 130/20/249 132/22/251 126/23/245
f 126/23/245 125/21/244 130/20/249
f 108/4/267 107/10/268 139/7/269
f 139/7/269 91/6/270 108/4/267
f 90/8/271 140/9/272 106/1/44
f 140/9/273 105/11/274 106/1/275
f 134/7/253 127/20/246 128/22/248
f 128/22/248 136/9/254 134/7/253
f 141/16/276 115/13/277 110/17/278
f 115/13/277 141/16/276 129/12/279
f 142/18/280 109/19/281 116/14/282
f 116/14/282 131/15/283 142/18/280
f 137/20/284 96/21/285 94/23/285
f 94/23/285 138/22/286 137/20/284
f 98/1/287 97/14/287 143/15/288
f 143/15/288 135/8/289 98/1/287
f 110/17/290 99/13/290 144/12/290
f 144/12/290 141/16/290 110/17/290
f 143/15/291 109/19/292 142/18/292
f 143/15/291 97/14/292 109/19/292
f 100/4/293 133/6/294 144/12/295
f 144/12/295 99/13/296 100/4/293
f 75/6/297 76/8/298 72/9/299
f 72/9/299 70/7/300 75/6/297
f 91/6/301 139/7/301 90/8/301
f 139/7/301 140/9/302 90/8/301
f 142/22/303 129/21/304 141/20/305
f 129/21/304 142/22/303 131/23/306
f 141/20/307 144/21/308 142/22/308
f 144/21/308 143/23/309 142/22/308
f 144/21/310 133/6/311 135/8/312
f 135/8/312 143/23/313 144/21/310
f 145/28/314 147/28/314 146/28/314
f 147/28/314 148/28/315 146/28/314
f 149/28/316 151/28/317 150/28/314
f 151/28/317 152/28/315 150/28/314
f 153/28/314 155/28/315 154/28/318
f 155/28/315 156/28/317 154/28/318
f 157/28/319 159/28/320 158/28/320
f 159/28/320 160/28/320 158/28/320
f 161/28/320 163/28/321 162/28/321
f 163/28/321 164/28/321 162/28/321
f 165/28/321 167/28/320 166/28/320
f 167/28/320 168/28/321 166/28/320
f 163/28/322 169/28/323 164/28/324
f 169/28/323 170/28/323 164/28/324
f 169/28/323 171/28/325 170/28/323
f 171/28/325 172/28/326 170/28/323
f 171/28/325 173/28/327 172/28/326
f 173/28/327 174/28/328 172/28/326
f 173/28/327 175/28/329 174/28/328
f 175/28/329 176/28/329 174/28/328
f 176/28/329 175/28/329 153/28/330
f 153/28/330 154/28/331 176/28/329
f 177/28/332 165/28/333 178/28/334
f 165/28/333 166/28/333 178/28/334
f 177/28/332 178/28/334 179/28/335
f 180/28/335 177/28/332 179/28/335
f 180/28/335 179/28/335 181/28/336
f 182/28/336 180/28/335 181/28/336
f 182/28/336 181/28/336 183/28/337
f 182/28/336 183/28/337 184/28/338
f 184/28/338 183/28/337 148/28/339
f 147/28/340 184/28/338 148/28/339
f 158/28/341 186/28/341 185/28/341
f 186/28/341 158/28/341 160/28/341
f 187/28/341 185/28/341 186/28/341
f 185/28/341 187/28/341 188/28/341
f 189/28/341 188/28/341 187/28/341
f 188/28/341 189/28/341 190/28/341
f 190/28/341 189/28/341 191/28/341
f 190/28/341 191/28/341 192/28/341
f 192/28/341 191/28/341 150/28/341
f 150/28/341 152/28/341 192/28/341
f 157/28/342 194/28/342 193/28/342
f 193/28/342 159/28/342 157/28/342
f 195/28/342 193/28/342 194/28/342
f 194/28/342 196/28/342 195/28/342
f 197/28/342 195/28/342 196/28/342
f 196/28/342 198/28/342 197/28/342
f 199/28/342 197/28/342 198/28/342
f 198/28/342 200/28/342 199/28/342
f 149/28/342 199/28/342 200/28/342
f 200/28/342 151/28/342 149/28/342
f 162/28/341 170/28/341 201/28/341
f 170/28/341 162/28/341 164/28/341
f 172/28/341 201/28/341 170/28/341
f 201/28/341 172/28/341 202/28/341
f 174/28/341 202/28/341 172/28/341
f 202/28/341 174/28/341 203/28/341
f 203/28/341 174/28/341 176/28/341
f 203/28/341 176/28/341 204/28/341
f 204/28/341 176/28/341 154/28/341
f 154/28/341 156/28/341 204/28/341
f 169/28/342 163/28/342 161/28/342
f 161/28/342 205/28/342 169/28/342
f 171/28/342 169/28/342 205/28/342
f 205/28/342 206/28/342 171/28/342
f 173/28/342 171/28/342 206/28/342
f 206/28/342 207/28/342 173/28/342
f 175/28/342 173/28/342 207/28/342
f 207/28/342 208/28/342 175/28/342
f 153/28/342 175/28/342 208/28/342
f 208/28/342 155/28/342 153/28/342
f 166/28/341 209/28/341 178/28/341
f 209/28/341 166/28/341 168/28/341
f 210/28/341 178/28/341 209/28/341
f 178/28/341 210/28/341 179/28/341
f 211/28/341 179/28/341 210/28/341
f 179/28/341 211/28/341 181/28/341
f 181/28/341 211/28/341 212/28/341
f 181/28/341 212/28/341 183/28/341
f 183/28/341 212/28/341 146/28/341
f 146/28/341 148/28/341 183/28/341
f 165/28/342 177/28/342 213/28/342
f 213/28/342 167/28/342 165/28/342
f 214/28/342 213/28/342 177/28/342
f 177/28/342 180/28/342 214/28/342
f 215/28/342 214/28/342 180/28/342
f 180/28/342 182/28/342 215/28/342
f 216/28/342 215/28/342 182/28/342
f 182/28/342 184/28/342 216/28/342
f 145/28/342 216/28/342 184/28/342
f 184/28/342 147/28/342 145/28/342
f 194/28/343 157/28/344 185/28/345
f 157/28/344 158/28/346 185/28/345
f 194/28/343 185/28/345 188/28/347
f 196/28/348 194/28/343 188/28/347
f 196/28/348 188/28/347 190/28/349
f 198/28/350 196/28/348 190/28/349
f 198/28/350 190/28/349 192/28/351
f 198/28/350 192/28/351 200/28/352
f 200/28/352 192/28/351 152/28/353
f 151/28/354 200/28/352 152/28/353
f 159/28/355 193/28/356 160/28/355
f 193/28/356 186/28/356 160/28/355
f 193/28/356 195/28/357 186/28/356
f 195/28/357 187/28/357 186/28/356
f 187/28/357 195/28/357 197/28/358
f 197/28/358 189/28/358 187/28/357
f 197/28/358 199/28/359 189/28/358
f 199/28/359 191/28/359 189/28/358
f 199/28/359 149/28/360 191/28/359
f 149/28/360 150/28/360 191/28/359
f 167/28/361 213/28/362 168/28/363
f 213/28/362 209/28/364 168/28/363
f 213/28/362 214/28/365 209/28/364
f 214/28/365 210/28/365 209/28/364
f 214/28/365 215/28/366 210/28/365
f 215/28/366 211/28/366 210/28/365
f 215/28/366 216/28/367 211/28/366
f 216/28/367 212/28/367 211/28/366
f 216/28/367 145/28/368 212/28/367
f 145/28/368 146/28/369 212/28/367
f 161/28/370 201/28/371 205/28/371
f 161/28/370 162/28/370 201/28/371
f 205/28/371 201/28/371 202/28/372
f 205/28/371 202/28/372 206/28/372
f 206/28/372 202/28/372 203/28/373
f 207/28/374 206/28/372 203/28/373
f 207/28/374 203/28/373 204/28/375
f 207/28/374 204/28/375 208/28/375
f 208/28/375 204/28/375 156/28/376
f 208/28/375 156/28/376 155/28/377
