# Blender 5.2.0 LTS
# www.blender.org
o 125185797615634.001
v -1.455708 0.042387 0.000002 0.3290 0.3355 0.3203
v -1.455708 0.060673 -0.013473 0.3290 0.3355 0.3203
v -1.455708 0.051690 -0.022457 0.3290 0.3355 0.3203
v -1.455708 0.074148 -0.019054 0.3290 0.3355 0.3203
v -1.455708 0.055091 0.000002 0.3290 0.3355 0.3203
v -1.455708 0.074148 -0.031759 0.3290 0.3355 0.3203
v -1.455708 0.060673 0.013478 0.3290 0.3355 0.3203
v -1.455708 0.087623 -0.013473 0.3290 0.3355 0.3203
v -1.455708 0.051690 0.022461 0.3290 0.3355 0.3203
v -1.455708 0.096607 -0.022457 0.3290 0.3355 0.3203
v -1.455708 0.074148 0.031763 0.3290 0.3355 0.3203
v -1.455708 0.105910 0.000002 0.3290 0.3355 0.3203
v -1.455708 0.074148 0.019058 0.3290 0.3355 0.3203
v -1.455708 0.093205 0.000002 0.3290 0.3355 0.3203
v -1.455708 0.087623 0.013478 0.3290 0.3355 0.3203
v -1.455708 0.096607 0.022461 0.3290 0.3355 0.3203
v -1.442924 0.074148 0.039704 0.3290 0.3355 0.3203
v -1.442924 0.102222 0.028075 0.3290 0.3355 0.3203
v -1.442924 0.046075 0.028075 0.3290 0.3355 0.3203
v -1.442924 0.113850 0.000002 0.3290 0.3355 0.3203
v -1.442924 0.034446 0.000002 0.3290 0.3355 0.3203
v -1.442924 0.102222 -0.028071 0.3290 0.3355 0.3203
v -1.442924 0.046075 -0.028071 0.3290 0.3355 0.3203
v -1.442924 0.074148 -0.039699 0.3290 0.3355 0.3203
v -1.403280 -0.122586 -0.019154 0.3290 0.3355 0.3203
v -1.403282 0.046220 0.019154 0.3290 0.3355 0.3203
v -1.403282 0.046220 -0.019154 0.3290 0.3355 0.3203
v -1.403280 -0.122586 0.019154 0.3290 0.3355 0.3203
v -1.266627 0.093205 0.000002 0.3290 0.3355 0.3203
v -1.266627 0.087623 0.013478 0.3290 0.3355 0.3203
v -1.266627 0.087623 -0.013473 0.3290 0.3355 0.3203
v -1.266627 0.074148 0.019059 0.3290 0.3355 0.3203
v -1.266627 0.060673 0.013478 0.3290 0.3355 0.3203
v -1.266627 0.055091 0.000002 0.3290 0.3355 0.3203
v -1.266627 0.074148 -0.019054 0.3290 0.3355 0.3203
v -1.266627 0.060673 -0.013473 0.3290 0.3355 0.3203
v 1.427068 0.202698 0.068806 0.3290 0.3355 0.3203
v 1.427068 0.134669 -0.068806 0.3290 0.3355 0.3203
v 1.427068 0.202698 -0.068806 0.3290 0.3355 0.3203
v 1.427068 0.134669 0.068806 0.3290 0.3355 0.3203
v 1.328267 0.066639 -0.068806 0.3290 0.3355 0.3203
v 1.328267 0.066639 0.068806 0.3290 0.3355 0.3203
v -1.062708 0.159942 -0.017965 0.3290 0.3355 0.3203
v -1.062708 0.152500 0.000002 0.3290 0.3355 0.3203
v -1.062708 0.159942 0.017969 0.3290 0.3355 0.3203
v -1.062708 0.177909 -0.025407 0.3290 0.3355 0.3203
v -1.062708 0.177909 0.025411 0.3290 0.3355 0.3203
v -1.062708 0.195876 0.017969 0.3290 0.3355 0.3203
v -1.062708 0.203318 0.000002 0.3290 0.3355 0.3203
v -1.062708 0.195876 -0.017965 0.3290 0.3355 0.3203
v -1.052484 0.177909 0.031763 0.3290 0.3355 0.3203
v -1.052484 0.200367 0.022461 0.3290 0.3355 0.3203
v -1.052484 0.155450 0.022461 0.3290 0.3355 0.3203
v -1.052484 0.209670 0.000002 0.3290 0.3355 0.3203
v -1.052484 0.146147 0.000002 0.3290 0.3355 0.3203
v -1.052484 0.200367 -0.022457 0.3290 0.3355 0.3203
v -1.052484 0.155450 -0.022457 0.3290 0.3355 0.3203
v -1.052484 0.177909 -0.031759 0.3290 0.3355 0.3203
v -1.041691 0.275492 -0.010516 0.3290 0.3355 0.3203
v -1.041691 0.231002 -0.011770 0.3290 0.3355 0.3203
v -1.041691 0.231002 0.011770 0.3290 0.3355 0.3203
v -1.041691 0.199927 0.017686 0.3290 0.3355 0.3203
v -1.041691 0.199927 -0.017686 0.3290 0.3355 0.3203
v -1.041691 0.275492 0.010516 0.3290 0.3355 0.3203
v -1.041691 0.284837 0.008413 0.3290 0.3355 0.3203
v -1.041691 0.284837 0.016826 0.3290 0.3355 0.3203
v -1.041691 0.300221 0.016826 0.3290 0.3355 0.3203
v -1.041691 0.300221 0.008413 0.3290 0.3355 0.3203
v -1.041691 0.284837 -0.008413 0.3290 0.3355 0.3203
v -1.041691 0.284837 -0.016826 0.3290 0.3355 0.3203
v -1.041691 0.300221 -0.016826 0.3290 0.3355 0.3203
v -1.041691 0.300221 -0.008413 0.3290 0.3355 0.3203
v -1.023194 0.291185 -0.000597 0.3290 0.3355 0.3203
v -1.025212 0.284564 -0.002210 0.3290 0.3355 0.3203
v -1.025212 0.284564 0.002210 0.3290 0.3355 0.3203
v -1.023194 0.291185 0.000597 0.3290 0.3355 0.3203
v 1.409462 0.192566 -0.088566 0.3290 0.3355 0.3203
v 1.409462 0.137046 -0.088566 0.3290 0.3355 0.3203
v 1.318044 0.076771 -0.088566 0.3290 0.3355 0.3203
v 1.409462 0.137046 0.088566 0.3290 0.3355 0.3203
v 1.318044 0.076771 0.088566 0.3290 0.3355 0.3203
v 1.409462 0.192566 0.088566 0.3290 0.3355 0.3203
v -0.866751 0.115321 0.000002 0.3290 0.3355 0.3203
v -0.879873 0.097542 0.023396 0.3290 0.3355 0.3203
v -0.866751 0.103262 0.029115 0.3290 0.3355 0.3203
v -0.866751 0.074148 0.041174 0.3290 0.3355 0.3203
v -0.879873 0.107233 0.000002 0.3290 0.3355 0.3203
v -0.879873 0.074148 0.033086 0.3290 0.3355 0.3203
v -0.879873 0.097542 -0.023392 0.3290 0.3355 0.3203
v -0.879873 0.050754 0.023397 0.3290 0.3355 0.3203
v -0.866751 0.103262 -0.029111 0.3290 0.3355 0.3203
v -0.866751 0.045035 0.029115 0.3290 0.3355 0.3203
v -0.866751 0.074148 -0.041170 0.3290 0.3355 0.3203
v -0.866751 0.032976 0.000002 0.3290 0.3355 0.3203
v -0.879873 0.074148 -0.033082 0.3290 0.3355 0.3203
v -0.879873 0.041064 0.000002 0.3290 0.3355 0.3203
v -0.879873 0.050754 -0.023392 0.3290 0.3355 0.3203
v -0.866751 0.045035 -0.029111 0.3290 0.3355 0.3203
v -0.767543 0.210847 0.000002 0.3290 0.3355 0.3203
v -0.778040 0.196625 0.018718 0.3290 0.3355 0.3203
v -0.767543 0.201199 0.023293 0.3290 0.3355 0.3203
v -0.767543 0.177909 0.032940 0.3290 0.3355 0.3203
v -0.778040 0.204377 0.000002 0.3290 0.3355 0.3203
v -0.778040 0.177909 0.026470 0.3290 0.3355 0.3203
v -0.778040 0.196625 -0.018714 0.3290 0.3355 0.3203
v -0.778040 0.159194 0.018718 0.3290 0.3355 0.3203
v -0.767543 0.201199 -0.023289 0.3290 0.3355 0.3203
v -0.767543 0.154618 0.023293 0.3290 0.3355 0.3203
v -0.767543 0.177909 -0.032936 0.3290 0.3355 0.3203
v -0.767543 0.144971 0.000002 0.3290 0.3355 0.3203
v -0.778040 0.177909 -0.026466 0.3290 0.3355 0.3203
v -0.778040 0.151441 0.000002 0.3290 0.3355 0.3203
v -0.778040 0.159194 -0.018714 0.3290 0.3355 0.3203
v -0.767543 0.154618 -0.023289 0.3290 0.3355 0.3203
v 0.822677 -0.423585 0.046039 0.3290 0.3355 0.3203
v 0.595280 -0.477376 0.046039 0.3290 0.3355 0.3203
v 0.822677 -0.423585 -0.046039 0.3290 0.3355 0.3203
v 0.595280 -0.477376 -0.046039 0.3290 0.3355 0.3203
v 0.732139 -0.044517 -0.046039 0.3290 0.3355 0.3203
v 0.732139 -0.044517 0.046039 0.3290 0.3355 0.3203
v -0.755027 0.025121 -0.069192 0.3290 0.3355 0.3203
v -0.691026 0.231388 0.069190 0.3290 0.3355 0.3203
v -0.691026 0.231388 -0.069192 0.3290 0.3355 0.3203
v -0.755027 0.025121 0.069190 0.3290 0.3355 0.3203
v -0.728997 -0.020295 -0.072886 0.3290 0.3355 0.3203
v -0.728997 -0.020295 0.072886 0.3290 0.3355 0.3203
v -0.768998 0.033287 -0.072886 0.3290 0.3355 0.3203
v -0.768998 0.033287 0.072886 0.3290 0.3355 0.3203
v 1.092772 -0.038741 -0.092598 0.3290 0.3355 0.3203
v 0.942340 -0.038741 0.092598 0.3290 0.3355 0.3203
v 0.942340 -0.038741 -0.092598 0.3290 0.3355 0.3203
v 1.092772 -0.038741 0.092598 0.3290 0.3355 0.3203
v 0.886340 -0.093014 0.092598 0.3290 0.3355 0.3203
v 1.278103 -0.197685 -0.092598 0.3290 0.3355 0.3203
v 0.886340 -0.093014 -0.092598 0.3290 0.3355 0.3203
v 0.778197 -0.093014 -0.092598 0.3290 0.3355 0.3203
v 0.778197 -0.093014 0.092598 0.3290 0.3355 0.3203
v 1.278103 -0.197685 0.092598 0.3290 0.3355 0.3203
v 1.386103 -0.197685 -0.092598 0.3290 0.3355 0.3203
v 1.386103 -0.197685 0.092598 0.3290 0.3355 0.3203
v 1.418103 -0.221685 -0.092598 0.3290 0.3355 0.3203
v 1.418103 -0.221685 0.092598 0.3290 0.3355 0.3203
v 1.562103 -0.221685 -0.092598 0.3290 0.3355 0.3203
v 1.562103 -0.221685 0.092598 0.3290 0.3355 0.3203
v 1.594103 -0.173685 -0.092598 0.3290 0.3355 0.3203
v 1.594103 -0.173685 0.092598 0.3290 0.3355 0.3203
v 1.594103 0.208084 -0.092598 0.3290 0.3355 0.3203
v 1.594103 0.208084 0.092598 0.3290 0.3355 0.3203
v -0.733720 0.040503 -0.085014 0.3290 0.3355 0.3203
v -0.677880 0.222158 -0.085014 0.3290 0.3355 0.3203
v -0.733720 0.040503 0.085014 0.3290 0.3355 0.3203
v -0.677880 0.222158 0.085014 0.3290 0.3355 0.3203
v 0.935759 -0.025002 -0.117420 0.3290 0.3355 0.3203
v 0.886340 -0.073565 -0.117420 0.3290 0.3355 0.3203
v 0.790854 -0.073714 -0.117420 0.3290 0.3355 0.3203
v 1.101264 -0.024554 -0.117420 0.3290 0.3355 0.3203
v 1.286819 -0.183124 -0.117420 0.3290 0.3355 0.3203
v 1.386103 -0.182549 -0.117420 0.3290 0.3355 0.3203
v 1.418103 -0.205761 -0.117420 0.3290 0.3355 0.3203
v 1.554876 -0.205276 -0.117420 0.3290 0.3355 0.3203
v 1.583480 -0.161267 -0.117420 0.3290 0.3355 0.3203
v 1.581763 0.193309 -0.117420 0.3290 0.3355 0.3203
v 0.790854 -0.073714 0.117420 0.3290 0.3355 0.3203
v 0.886340 -0.073565 0.117420 0.3290 0.3355 0.3203
v 0.935759 -0.025002 0.117420 0.3290 0.3355 0.3203
v 1.101264 -0.024554 0.117420 0.3290 0.3355 0.3203
v 1.286819 -0.183124 0.117420 0.3290 0.3355 0.3203
v 1.386103 -0.182549 0.117420 0.3290 0.3355 0.3203
v 1.418103 -0.205761 0.117420 0.3290 0.3355 0.3203
v 1.554876 -0.205276 0.117420 0.3290 0.3355 0.3203
v 1.583480 -0.161267 0.117420 0.3290 0.3355 0.3203
v 1.581763 0.193309 0.117420 0.3290 0.3355 0.3203
v -0.740139 0.018818 -0.086846 0.3290 0.3355 0.3203
v -0.721778 -0.005838 -0.086846 0.3290 0.3355 0.3203
v -0.740139 0.018818 0.086846 0.3290 0.3355 0.3203
v -0.721778 -0.005838 0.086846 0.3290 0.3355 0.3203
v 0.621453 -0.449149 -0.059781 0.3290 0.3355 0.3203
v 0.792439 -0.408702 -0.059781 0.3290 0.3355 0.3203
v 0.621453 -0.449149 0.059781 0.3290 0.3355 0.3203
v 0.792439 -0.408702 0.059781 0.3290 0.3355 0.3203
v -1.041862 0.122669 0.008414 0.3290 0.3355 0.3203
v -0.977863 0.122669 -0.008414 0.3290 0.3355 0.3203
v -1.041862 0.122669 -0.008414 0.3290 0.3355 0.3203
v -1.109863 0.086669 0.008414 0.3290 0.3355 0.3203
v -1.109863 0.086669 -0.008414 0.3290 0.3355 0.3203
v -0.977863 0.122669 0.008414 0.3290 0.3355 0.3203
v -0.901089 0.170543 -0.008414 0.3290 0.3355 0.3203
v -0.901089 0.170543 0.008414 0.3290 0.3355 0.3203
v -1.254379 -0.022982 -0.019154 0.3290 0.3355 0.3203
v -1.229563 -0.010522 -0.019154 0.3290 0.3355 0.3203
v -1.229563 -0.010522 0.019154 0.3290 0.3355 0.3203
v -1.254379 -0.022982 0.019154 0.3290 0.3355 0.3203
v -1.254379 -0.081060 -0.019154 0.3290 0.3355 0.3203
v -1.254379 -0.081060 0.019154 0.3290 0.3355 0.3203
v -1.204745 -0.022982 0.019154 0.3290 0.3355 0.3203
v -1.204745 -0.022982 -0.019154 0.3290 0.3355 0.3203
v -1.204745 -0.091564 -0.019154 0.3290 0.3355 0.3203
v -1.204745 -0.091564 0.019154 0.3290 0.3355 0.3203
v 0.702358 -0.044517 -0.059781 0.3290 0.3355 0.3203
v 0.702358 -0.044517 0.059781 0.3290 0.3355 0.3203
v -1.353648 -0.122586 -0.019154 0.3290 0.3355 0.3203
v -1.353648 -0.122586 0.019154 0.3290 0.3355 0.3203
v -1.004590 0.300221 -0.016826 0.3290 0.3355 0.3203
v -1.004590 0.300221 -0.008413 0.3290 0.3355 0.3203
v -1.004590 0.300221 0.008413 0.3290 0.3355 0.3203
v -1.004590 0.300221 0.016826 0.3290 0.3355 0.3203
v 0.127055 0.296449 -0.044230 0.3290 0.3355 0.3203
v 0.132012 0.296449 -0.011390 0.3290 0.3355 0.3203
v 0.132012 0.296449 -0.044230 0.3290 0.3355 0.3203
v 0.127055 0.296449 -0.011390 0.3290 0.3355 0.3203
v 0.127055 0.296449 0.011390 0.3290 0.3355 0.3203
v 0.127055 0.296449 0.044230 0.3290 0.3355 0.3203
v 0.132012 0.296449 0.011390 0.3290 0.3355 0.3203
v 0.132012 0.296449 0.044230 0.3290 0.3355 0.3203
v -1.021701 0.291185 -0.000597 0.3290 0.3355 0.3203
v -1.021701 0.291185 0.000597 0.3290 0.3355 0.3203
v -1.155111 -0.091564 -0.019154 0.3290 0.3355 0.3203
v -1.155111 -0.091564 0.019154 0.3290 0.3355 0.3203
v -1.004590 0.284837 -0.008413 0.3290 0.3355 0.3203
v -1.004590 0.284837 0.008413 0.3290 0.3355 0.3203
v -0.033957 0.290245 -0.043233 0.3290 0.3355 0.3203
v -0.053100 0.290245 -0.027512 0.3290 0.3355 0.3203
v -0.053100 0.290245 -0.058954 0.3290 0.3355 0.3203
v -0.033957 0.290245 -0.058954 0.3290 0.3355 0.3203
v 0.015789 0.290245 -0.027512 0.3290 0.3355 0.3203
v 0.015789 0.290245 -0.043233 0.3290 0.3355 0.3203
v 0.050092 0.264145 -0.027512 0.3290 0.3355 0.3203
v 0.050092 0.264145 -0.043233 0.3290 0.3355 0.3203
v -0.053100 0.290245 0.058954 0.3290 0.3355 0.3203
v -0.033957 0.290245 0.043233 0.3290 0.3355 0.3203
v -0.053100 0.290245 0.027512 0.3290 0.3355 0.3203
v -0.033957 0.290245 0.058954 0.3290 0.3355 0.3203
v 0.015789 0.290245 0.043233 0.3290 0.3355 0.3203
v 0.015789 0.290245 0.027512 0.3290 0.3355 0.3203
v 0.050092 0.264145 0.043233 0.3290 0.3355 0.3203
v 0.050092 0.264145 0.027512 0.3290 0.3355 0.3203
v -0.060767 0.284009 -0.027644 0.3290 0.3355 0.3203
v 0.114159 0.284009 -0.011390 0.3290 0.3355 0.3203
v 0.114159 0.284009 -0.027644 0.3290 0.3355 0.3203
v 0.114159 0.284009 0.011390 0.3290 0.3355 0.3203
v -0.060767 0.284009 0.027644 0.3290 0.3355 0.3203
v 0.114159 0.284009 0.027644 0.3290 0.3355 0.3203
v 0.132012 0.284009 0.011390 0.3290 0.3355 0.3203
v 0.132012 0.284009 -0.011390 0.3290 0.3355 0.3203
v 0.252114 -0.153878 -0.072886 0.3290 0.3355 0.3203
v 0.394121 -0.073878 -0.072886 0.3290 0.3355 0.3203
v 0.252114 -0.153878 0.072886 0.3290 0.3355 0.3203
v 0.394121 -0.073878 0.072886 0.3290 0.3355 0.3203
v 0.782339 -0.073878 0.072886 0.3290 0.3355 0.3203
v 0.782339 -0.073878 -0.072886 0.3290 0.3355 0.3203
v -0.072315 -0.153878 0.072886 0.3290 0.3355 0.3203
v -0.072315 -0.153878 -0.072886 0.3290 0.3355 0.3203
v -0.166738 -0.073878 0.072886 0.3290 0.3355 0.3203
v -0.166738 -0.073878 -0.072886 0.3290 0.3355 0.3203
v -0.410104 -0.073878 0.072886 0.3290 0.3355 0.3203
v -0.410104 -0.073878 -0.072886 0.3290 0.3355 0.3203
v -0.450105 -0.020295 -0.072886 0.3290 0.3355 0.3203
v -0.450105 -0.020295 0.072886 0.3290 0.3355 0.3203
v 0.090595 0.289297 -0.056271 0.3290 0.3355 0.3203
v 0.100958 0.293589 -0.027789 0.3290 0.3355 0.3203
v 0.100958 0.293589 -0.056271 0.3290 0.3355 0.3203
v 0.111319 0.289297 -0.027789 0.3290 0.3355 0.3203
v 0.090595 0.289297 -0.027789 0.3290 0.3355 0.3203
v 0.111319 0.289297 -0.056271 0.3290 0.3355 0.3203
v 0.086303 0.278935 -0.056271 0.3290 0.3355 0.3203
v 0.115612 0.278935 -0.027789 0.3290 0.3355 0.3203
v 0.086303 0.278935 -0.027789 0.3290 0.3355 0.3203
v 0.090595 0.263819 -0.056271 0.3290 0.3355 0.3203
v 0.090595 0.263819 -0.027789 0.3290 0.3355 0.3203
v 0.115612 0.278935 -0.056271 0.3290 0.3355 0.3203
v 0.111319 0.263819 -0.027789 0.3290 0.3355 0.3203
v 0.111319 0.263819 -0.056271 0.3290 0.3355 0.3203
v 0.100958 0.293589 0.027789 0.3290 0.3355 0.3203
v 0.111319 0.289297 0.056271 0.3290 0.3355 0.3203
v 0.111319 0.289297 0.027789 0.3290 0.3355 0.3203
v 0.115612 0.278935 0.056271 0.3290 0.3355 0.3203
v 0.100958 0.293589 0.056271 0.3290 0.3355 0.3203
v 0.115612 0.278935 0.027789 0.3290 0.3355 0.3203
v 0.111319 0.263819 0.056271 0.3290 0.3355 0.3203
v 0.111319 0.263819 0.027789 0.3290 0.3355 0.3203
v 0.090595 0.289297 0.027789 0.3290 0.3355 0.3203
v 0.090595 0.289297 0.056271 0.3290 0.3355 0.3203
v 0.086303 0.278935 0.027789 0.3290 0.3355 0.3203
v 0.086303 0.278935 0.056271 0.3290 0.3355 0.3203
v 0.090595 0.263819 0.027789 0.3290 0.3355 0.3203
v 0.090595 0.263819 0.056271 0.3290 0.3355 0.3203
v -1.304013 -0.081060 -0.019154 0.3290 0.3355 0.3203
v -1.304013 -0.081060 0.019154 0.3290 0.3355 0.3203
v -0.899609 0.163376 -0.012000 0.3290 0.3355 0.3203
v -0.976082 0.115502 -0.012000 0.3290 0.3355 0.3203
v -1.040083 0.115502 -0.012000 0.3290 0.3355 0.3203
v -1.081008 0.093836 -0.012000 0.3290 0.3355 0.3203
v 0.782339 -0.059485 -0.086846 0.3290 0.3355 0.3203
v 0.390325 -0.059408 -0.086846 0.3290 0.3355 0.3203
v 0.248318 -0.139408 -0.086846 0.3290 0.3355 0.3203
v -0.066238 -0.139408 -0.086846 0.3290 0.3355 0.3203
v -0.160661 -0.059408 -0.086846 0.3290 0.3355 0.3203
v -0.402850 -0.059408 -0.086846 0.3290 0.3355 0.3203
v -0.442885 -0.005838 -0.086846 0.3290 0.3355 0.3203
v -0.899609 0.163376 0.012000 0.3290 0.3355 0.3203
v -0.976082 0.115502 0.012000 0.3290 0.3355 0.3203
v -1.040083 0.115502 0.012000 0.3290 0.3355 0.3203
v -1.081008 0.093836 0.012000 0.3290 0.3355 0.3203
v 0.782339 -0.059485 0.086846 0.3290 0.3355 0.3203
v 0.390325 -0.059408 0.086846 0.3290 0.3355 0.3203
v 0.248318 -0.139408 0.086846 0.3290 0.3355 0.3203
v -0.066238 -0.139408 0.086846 0.3290 0.3355 0.3203
v -0.160661 -0.059408 0.086846 0.3290 0.3355 0.3203
v -0.402850 -0.059408 0.086846 0.3290 0.3355 0.3203
v -0.442885 -0.005838 0.086846 0.3290 0.3355 0.3203
v 0.083513 0.273665 -0.027512 0.3290 0.3355 0.3203
v 0.122487 0.273665 -0.027512 0.3290 0.3355 0.3203
v 0.083513 0.273665 -0.043233 0.3290 0.3355 0.3203
v 0.122487 0.273665 -0.043233 0.3290 0.3355 0.3203
v 0.083513 0.273665 0.043233 0.3290 0.3355 0.3203
v 0.122487 0.273665 0.043233 0.3290 0.3355 0.3203
v 0.083513 0.273665 0.027512 0.3290 0.3355 0.3203
v 0.122487 0.273665 0.027512 0.3290 0.3355 0.3203
v 0.000347 0.264145 -0.043233 0.3290 0.3355 0.3203
v 0.112281 0.264145 -0.058954 0.3290 0.3355 0.3203
v 0.000347 0.264145 -0.058954 0.3290 0.3355 0.3203
v 0.000347 0.264145 -0.027512 0.3290 0.3355 0.3203
v 0.127554 0.264145 -0.043233 0.3290 0.3355 0.3203
v -0.062532 0.264145 0.027512 0.3290 0.3355 0.3203
v -0.062532 0.264145 -0.027512 0.3290 0.3355 0.3203
v 0.000347 0.264145 0.027512 0.3290 0.3355 0.3203
v 0.127554 0.264145 0.043233 0.3290 0.3355 0.3203
v 0.112281 0.264145 0.058954 0.3290 0.3355 0.3203
v 0.000347 0.264145 0.043233 0.3290 0.3355 0.3203
v 0.000347 0.264145 0.058954 0.3290 0.3355 0.3203
v 0.832408 0.172821 -0.085014 0.3290 0.3355 0.3203
v 0.786008 0.224649 -0.085014 0.3290 0.3355 0.3203
v 0.795063 0.240031 -0.069191 0.3290 0.3355 0.3203
v 0.847790 0.176804 -0.069191 0.3290 0.3355 0.3203
v 0.832408 0.088503 -0.085014 0.3290 0.3355 0.3203
v 0.847790 0.073121 -0.069191 0.3290 0.3355 0.3203
v -0.145893 0.240031 -0.069192 0.3290 0.3355 0.3203
v -0.152019 0.224649 -0.085014 0.3290 0.3355 0.3203
v -0.193873 0.250110 -0.085014 0.3290 0.3355 0.3203
v -0.187748 0.265493 -0.069192 0.3290 0.3355 0.3203
v -0.409121 0.250110 -0.085014 0.3290 0.3355 0.3203
v -0.420228 0.265493 -0.069192 0.3290 0.3355 0.3203
v -0.436228 0.231388 -0.069192 0.3290 0.3355 0.3203
v -0.423081 0.222158 -0.085014 0.3290 0.3355 0.3203
v 0.795063 0.240031 0.069191 0.3290 0.3355 0.3203
v 0.832408 0.172821 0.085014 0.3290 0.3355 0.3203
v 0.847790 0.176804 0.069191 0.3290 0.3355 0.3203
v 0.832408 0.088503 0.085014 0.3290 0.3355 0.3203
v 0.847790 0.073121 0.069191 0.3290 0.3355 0.3203
v 0.786008 0.224649 0.085014 0.3290 0.3355 0.3203
v -0.145893 0.240031 0.069190 0.3290 0.3355 0.3203
v -0.152019 0.224649 0.085014 0.3290 0.3355 0.3203
v -0.193873 0.250110 0.085014 0.3290 0.3355 0.3203
v -0.187748 0.265494 0.069190 0.3290 0.3355 0.3203
v -0.409123 0.250110 0.085014 0.3290 0.3355 0.3203
v -0.420228 0.265494 0.069190 0.3290 0.3355 0.3203
v -0.436228 0.231388 0.069190 0.3290 0.3355 0.3203
v -0.423081 0.222158 0.085014 0.3290 0.3355 0.3203
v 0.132012 0.273670 0.044230 0.3290 0.3355 0.3203
v 0.132012 0.273670 -0.044230 0.3290 0.3355 0.3203
v 0.122487 0.263532 0.027512 0.3290 0.3355 0.3203
v 0.122487 0.263532 0.043233 0.3290 0.3355 0.3203
v 0.122487 0.263532 -0.043233 0.3290 0.3355 0.3203
v 0.122487 0.263532 -0.027512 0.3290 0.3355 0.3203
v 0.886340 0.089771 -0.117420 0.3290 0.3355 0.3203
v 0.918458 0.051124 -0.117420 0.3290 0.3355 0.3203
v 0.790854 0.089574 -0.117420 0.3290 0.3355 0.3203
v 1.122803 0.051426 -0.117420 0.3290 0.3355 0.3203
v 1.308147 -0.107497 -0.117420 0.3290 0.3355 0.3203
v 1.489989 -0.108772 -0.117420 0.3290 0.3355 0.3203
v 1.500464 -0.070977 -0.117420 0.3290 0.3355 0.3203
v 1.501444 0.056084 -0.117420 0.3290 0.3355 0.3203
v 1.454684 0.106750 -0.117420 0.3290 0.3355 0.3203
v 1.455085 0.157417 -0.117420 0.3290 0.3355 0.3203
v 1.506576 0.193309 -0.117420 0.3290 0.3355 0.3203
v 0.918458 0.051124 0.117420 0.3290 0.3355 0.3203
v 0.886340 0.089771 0.117420 0.3290 0.3355 0.3203
v 0.790854 0.089574 0.117420 0.3290 0.3355 0.3203
v 1.122803 0.051426 0.117420 0.3290 0.3355 0.3203
v 1.308147 -0.107497 0.117420 0.3290 0.3355 0.3203
v 1.489989 -0.108772 0.117420 0.3290 0.3355 0.3203
v 1.500464 -0.070977 0.117420 0.3290 0.3355 0.3203
v 1.501444 0.056084 0.117420 0.3290 0.3355 0.3203
v 1.454684 0.106750 0.117420 0.3290 0.3355 0.3203
v 1.455085 0.157417 0.117420 0.3290 0.3355 0.3203
v 1.506576 0.193309 0.117420 0.3290 0.3355 0.3203
v 0.074557 0.165737 0.071897 0.3290 0.3355 0.3203
v 0.074557 0.207110 0.071897 0.3290 0.3355 0.3203
v 0.066655 0.214669 0.085014 0.3290 0.3355 0.3203
v 0.066655 0.158178 0.085014 0.3290 0.3355 0.3203
v 0.077193 0.168735 0.058663 0.3290 0.3355 0.3203
v 0.077193 0.204111 0.058663 0.3290 0.3355 0.3203
v 0.270027 0.158178 0.085014 0.3290 0.3355 0.3203
v 0.610086 0.165737 0.071897 0.3290 0.3355 0.3203
v 0.617986 0.158178 0.085014 0.3290 0.3355 0.3203
v 0.920291 0.192566 -0.088566 0.3290 0.3355 0.3203
v 0.920291 0.076771 -0.088566 0.3290 0.3355 0.3203
v 0.869778 0.134669 -0.088566 0.3290 0.3355 0.3203
v -0.078394 -0.061182 -0.086846 0.3290 0.3355 0.3203
v 0.255909 -0.061182 -0.086846 0.3290 0.3355 0.3203
v -0.172817 0.018818 -0.086846 0.3290 0.3355 0.3203
v 0.397916 0.018818 -0.086846 0.3290 0.3355 0.3203
v 0.506747 0.018818 -0.086846 0.3290 0.3355 0.3203
v 0.560339 0.064746 -0.086846 0.3290 0.3355 0.3203
v 0.782339 0.064822 -0.086846 0.3290 0.3355 0.3203
v 0.920291 0.192566 0.088566 0.3290 0.3355 0.3203
v 0.920291 0.076771 0.088566 0.3290 0.3355 0.3203
v 0.869778 0.134669 0.088566 0.3290 0.3355 0.3203
v -0.395948 0.040503 -0.085014 0.3290 0.3355 0.3203
v -0.322371 0.152503 -0.085014 0.3290 0.3355 0.3203
v 0.302123 0.152503 -0.085014 0.3290 0.3355 0.3203
v 0.562100 0.088503 -0.085014 0.3290 0.3355 0.3203
v 0.400116 0.042575 -0.085014 0.3290 0.3355 0.3203
v 0.508508 0.042575 -0.085014 0.3290 0.3355 0.3203
v -0.172817 0.018818 0.086846 0.3290 0.3355 0.3203
v -0.078394 -0.061182 0.086846 0.3290 0.3355 0.3203
v 0.255909 -0.061182 0.086846 0.3290 0.3355 0.3203
v 0.397916 0.018818 0.086846 0.3290 0.3355 0.3203
v 0.506747 0.018818 0.086846 0.3290 0.3355 0.3203
v 0.560339 0.064746 0.086846 0.3290 0.3355 0.3203
v 0.782339 0.064822 0.086846 0.3290 0.3355 0.3203
v -0.395948 0.040503 0.085014 0.3290 0.3355 0.3203
v -0.322371 0.152503 0.085014 0.3290 0.3355 0.3203
v 0.302123 0.152503 0.085014 0.3290 0.3355 0.3203
v 0.617986 0.214669 0.085014 0.3290 0.3355 0.3203
v 0.562100 0.088503 0.085014 0.3290 0.3355 0.3203
v 0.400116 0.042575 0.085014 0.3290 0.3355 0.3203
v 0.508508 0.042575 0.085014 0.3290 0.3355 0.3203
v 0.607448 0.168735 0.058663 0.3290 0.3355 0.3203
v -0.964813 0.155450 0.022461 0.3290 0.3355 0.3203
v -0.964813 0.146147 0.000002 0.3290 0.3355 0.3203
v -0.964813 0.155450 -0.022457 0.3290 0.3355 0.3203
v -0.964813 0.177909 0.031763 0.3290 0.3355 0.3203
v -0.964813 0.177909 -0.031759 0.3290 0.3355 0.3203
v -0.964813 0.200367 0.022461 0.3290 0.3355 0.3203
v -0.964813 0.200367 -0.022457 0.3290 0.3355 0.3203
v -0.964813 0.209670 0.000002 0.3290 0.3355 0.3203
v -0.062532 0.264145 0.058954 0.3290 0.3355 0.3203
v -0.062532 0.227299 0.058954 0.3290 0.3355 0.3203
v 0.112281 0.227299 0.058954 0.3290 0.3355 0.3203
v 0.127554 0.227299 0.043233 0.3290 0.3355 0.3203
v 0.127554 0.227299 -0.043233 0.3290 0.3355 0.3203
v 0.112281 0.227299 -0.058954 0.3290 0.3355 0.3203
v 0.296335 0.137121 -0.069192 0.3290 0.3355 0.3203
v 0.394327 0.027193 -0.069192 0.3290 0.3355 0.3203
v 0.514198 0.027193 -0.069191 0.3290 0.3355 0.3203
v -0.315182 0.137121 -0.069192 0.3290 0.3355 0.3203
v 0.567789 0.073121 -0.069191 0.3290 0.3355 0.3203
v -0.388760 0.025121 -0.069192 0.3290 0.3355 0.3203
v -0.062532 0.264145 -0.058954 0.3290 0.3355 0.3203
v -0.062532 0.227299 -0.058954 0.3290 0.3355 0.3203
v 0.631448 -0.406917 -0.059781 0.3290 0.3355 0.3203
v 0.614781 -0.433914 -0.059781 0.3290 0.3355 0.3203
v 0.547758 -0.044517 -0.059781 0.3290 0.3355 0.3203
v 0.514198 0.027193 0.069191 0.3290 0.3355 0.3203
v 0.394327 0.027193 0.069190 0.3290 0.3355 0.3203
v 0.296335 0.137121 0.069190 0.3290 0.3355 0.3203
v 0.567789 0.073121 0.069191 0.3290 0.3355 0.3203
v -0.315182 0.137121 0.069190 0.3290 0.3355 0.3203
v -0.388760 0.025121 0.069190 0.3290 0.3355 0.3203
v 0.631448 -0.406917 0.059781 0.3290 0.3355 0.3203
v 0.614781 -0.433914 0.059781 0.3290 0.3355 0.3203
v 0.547758 -0.044517 0.059781 0.3290 0.3355 0.3203
v 0.607448 0.204111 0.058663 0.3290 0.3355 0.3203
v -1.019685 0.284564 -0.002210 0.3290 0.3355 0.3203
v 0.114159 0.284009 -0.044230 0.3290 0.3355 0.3203
v 0.114159 0.273670 -0.044230 0.3290 0.3355 0.3203
v -0.060767 0.273670 -0.027644 0.3290 0.3355 0.3203
v -0.060767 0.273670 0.027644 0.3290 0.3355 0.3203
v 0.074303 0.263532 0.043233 0.3290 0.3355 0.3203
v 0.074303 0.263532 0.027512 0.3290 0.3355 0.3203
v 0.074303 0.263532 -0.027512 0.3290 0.3355 0.3203
v 0.074303 0.263532 -0.043233 0.3290 0.3355 0.3203
v -1.019685 0.284564 0.002210 0.3290 0.3355 0.3203
v 0.114159 0.284009 0.044230 0.3290 0.3355 0.3203
v 0.114159 0.273670 0.044230 0.3290 0.3355 0.3203
v 0.114159 0.273670 -0.027644 0.3290 0.3355 0.3203
v 0.114159 0.273670 0.027644 0.3290 0.3355 0.3203
v -0.990363 0.231002 -0.011770 0.3290 0.3355 0.3203
v -0.975276 0.199927 -0.017686 0.3290 0.3355 0.3203
v -1.004590 0.275492 -0.010516 0.3290 0.3355 0.3203
v -1.004590 0.284837 -0.016826 0.3290 0.3355 0.3203
v -1.155111 0.046220 -0.019154 0.3290 0.3355 0.3203
v -1.328830 -0.010522 -0.019154 0.3290 0.3355 0.3203
v -1.304013 -0.022982 -0.019154 0.3290 0.3355 0.3203
v -1.353648 -0.022982 -0.019154 0.3290 0.3355 0.3203
v -0.990363 0.231002 0.011770 0.3290 0.3355 0.3203
v -0.975276 0.199927 0.017686 0.3290 0.3355 0.3203
v -1.004590 0.275492 0.010516 0.3290 0.3355 0.3203
v -1.004590 0.284837 0.016826 0.3290 0.3355 0.3203
v -1.155111 0.046220 0.019154 0.3290 0.3355 0.3203
v -1.328830 -0.010522 0.019154 0.3290 0.3355 0.3203
v -1.304013 -0.022982 0.019154 0.3290 0.3355 0.3203
v -1.353648 -0.022982 0.019154 0.3290 0.3355 0.3203
v -0.943642 0.093836 -0.012000 0.3290 0.3355 0.3203
v -0.838624 0.163376 -0.012000 0.3290 0.3355 0.3203
v -0.943642 0.093836 0.012000 0.3290 0.3355 0.3203
v -0.838624 0.163376 0.012000 0.3290 0.3355 0.3203
v 0.907810 0.202698 -0.068806 0.3290 0.3355 0.3203
v 0.850983 0.134669 -0.068806 0.3290 0.3355 0.3203
v 0.907810 0.202698 0.068806 0.3290 0.3355 0.3203
v 0.850983 0.134669 0.068806 0.3290 0.3355 0.3203
v 0.782339 0.079215 -0.072886 0.3290 0.3355 0.3203
v 0.554987 0.079215 -0.072886 0.3290 0.3355 0.3203
v 0.501396 0.033287 -0.072886 0.3290 0.3355 0.3203
v 0.394121 0.033287 -0.072886 0.3290 0.3355 0.3203
v 0.252114 -0.046713 -0.072886 0.3290 0.3355 0.3203
v -0.072315 -0.046713 -0.072886 0.3290 0.3355 0.3203
v -0.166738 0.033287 -0.072886 0.3290 0.3355 0.3203
v -0.653024 0.154618 -0.023289 0.3290 0.3355 0.3203
v -0.653024 0.144971 0.000002 0.3290 0.3355 0.3203
v -0.653024 0.177909 -0.032936 0.3290 0.3355 0.3203
v -0.653024 0.154618 0.023293 0.3290 0.3355 0.3203
v -0.653024 0.201199 -0.023289 0.3290 0.3355 0.3203
v -0.653024 0.177909 0.032940 0.3290 0.3355 0.3203
v -0.653024 0.210847 0.000002 0.3290 0.3355 0.3203
v -0.653024 0.201199 0.023293 0.3290 0.3355 0.3203
v 0.782339 0.079215 0.072886 0.3290 0.3355 0.3203
v 0.554987 0.079215 0.072886 0.3290 0.3355 0.3203
v 0.501396 0.033287 0.072886 0.3290 0.3355 0.3203
v 0.394121 0.033287 0.072886 0.3290 0.3355 0.3203
v 0.252114 -0.046713 0.072886 0.3290 0.3355 0.3203
v -0.072315 -0.046713 0.072886 0.3290 0.3355 0.3203
v -0.166738 0.033287 0.072886 0.3290 0.3355 0.3203
v -0.653024 0.045035 -0.029111 0.3290 0.3355 0.3203
v -0.653024 0.032976 0.000002 0.3290 0.3355 0.3203
v -0.653024 0.074148 -0.041170 0.3290 0.3355 0.3203
v -0.653024 0.045035 0.029115 0.3290 0.3355 0.3203
v -0.653024 0.103262 -0.029111 0.3290 0.3355 0.3203
v -0.653024 0.074148 0.041174 0.3290 0.3355 0.3203
v -0.653024 0.115321 0.000002 0.3290 0.3355 0.3203
v -0.653024 0.103262 0.029115 0.3290 0.3355 0.3203
v -1.123338 0.046075 0.028075 0.3290 0.3355 0.3203
v -1.123338 0.034446 0.000002 0.3290 0.3355 0.3203
v -1.123338 0.046075 -0.028071 0.3290 0.3355 0.3203
v -1.123338 0.074148 0.039704 0.3290 0.3355 0.3203
v -1.123338 0.074148 -0.039699 0.3290 0.3355 0.3203
v -1.123338 0.102222 0.028075 0.3290 0.3355 0.3203
v -1.123338 0.102222 -0.028071 0.3290 0.3355 0.3203
v -1.123338 0.113850 0.000002 0.3290 0.3355 0.3203
v -1.110554 0.041064 0.000002 0.3290 0.3355 0.3203
v -1.110554 0.050754 -0.023392 0.3290 0.3355 0.3203
v -1.110554 0.050754 0.023397 0.3290 0.3355 0.3203
v -1.110554 0.074148 -0.033082 0.3290 0.3355 0.3203
v -1.110554 0.074148 0.033086 0.3290 0.3355 0.3203
v -1.110554 0.097542 -0.023392 0.3290 0.3355 0.3203
v -1.110554 0.097542 0.023396 0.3290 0.3355 0.3203
v -1.110554 0.107233 0.000002 0.3290 0.3355 0.3203
v 1.311936 0.100728 0.033941 0.3290 0.3355 0.3203
v 1.493376 0.100728 0.033941 0.3290 0.3355 0.3203
v 1.493376 0.134669 0.048000 0.3290 0.3355 0.3203
v 1.311936 0.086669 -0.000000 0.3290 0.3355 0.3203
v 1.311936 0.134669 0.048000 0.3290 0.3355 0.3203
v 1.493376 0.086669 -0.000000 0.3290 0.3355 0.3203
v 1.493376 0.168610 0.033941 0.3290 0.3355 0.3203
v 1.311936 0.100728 -0.033941 0.3290 0.3355 0.3203
v 1.311936 0.168610 0.033941 0.3290 0.3355 0.3203
v 1.493376 0.100728 -0.033941 0.3290 0.3355 0.3203
v 1.493376 0.182669 -0.000000 0.3290 0.3355 0.3203
v 1.311936 0.134669 -0.048000 0.3290 0.3355 0.3203
v 1.311936 0.182669 -0.000000 0.3290 0.3355 0.3203
v 1.493376 0.134669 -0.048000 0.3290 0.3355 0.3203
v 1.493376 0.168610 -0.033941 0.3290 0.3355 0.3203
v 1.311936 0.168610 -0.033941 0.3290 0.3355 0.3203
v 0.610086 0.207110 0.071897 0.3290 0.3355 0.3203
v 0.907810 0.066639 -0.068806 0.3290 0.3355 0.3203
v 0.907810 0.066639 0.068806 0.3290 0.3355 0.3203
v -0.954586 0.151441 0.000002 0.3290 0.3355 0.3203
v -0.954586 0.159194 -0.018714 0.3290 0.3355 0.3203
v -0.954586 0.159194 0.018718 0.3290 0.3355 0.3203
v -0.954586 0.177909 -0.026466 0.3290 0.3355 0.3203
v -0.954586 0.177909 0.026470 0.3290 0.3355 0.3203
v -0.954586 0.196625 -0.018714 0.3290 0.3355 0.3203
v -0.954586 0.196625 0.018718 0.3290 0.3355 0.3203
v -0.954586 0.204377 0.000002 0.3290 0.3355 0.3203
v 0.886340 0.098352 -0.092598 0.3290 0.3355 0.3203
v 0.778197 0.098352 -0.092598 0.3290 0.3355 0.3203
v 0.910339 0.068078 -0.092598 0.3290 0.3355 0.3203
v 1.132772 0.068078 -0.092598 0.3290 0.3355 0.3203
v 1.318103 -0.090866 -0.092598 0.3290 0.3355 0.3203
v 1.482103 -0.090866 -0.092598 0.3290 0.3355 0.3203
v 1.490103 -0.058866 -0.092598 0.3290 0.3355 0.3203
v 1.490103 0.056084 -0.092598 0.3290 0.3355 0.3203
v 1.442104 0.106750 -0.092598 0.3290 0.3355 0.3203
v 1.442104 0.157417 -0.092598 0.3290 0.3355 0.3203
v 1.514103 0.208084 -0.092598 0.3290 0.3355 0.3203
v 0.886340 0.098352 0.092598 0.3290 0.3355 0.3203
v 0.910339 0.068078 0.092598 0.3290 0.3355 0.3203
v 0.778197 0.098352 0.092598 0.3290 0.3355 0.3203
v 1.132772 0.068078 0.092598 0.3290 0.3355 0.3203
v 1.318103 -0.090866 0.092598 0.3290 0.3355 0.3203
v 1.482103 -0.090866 0.092598 0.3290 0.3355 0.3203
v 1.490103 -0.058866 0.092598 0.3290 0.3355 0.3203
v 1.490103 0.056084 0.092598 0.3290 0.3355 0.3203
v 1.442104 0.106750 0.092598 0.3290 0.3355 0.3203
v 1.442104 0.157417 0.092598 0.3290 0.3355 0.3203
v 1.514103 0.208084 0.092598 0.3290 0.3355 0.3203
v 0.601620 -0.406706 -0.046039 0.3290 0.3355 0.3203
v 0.517979 -0.044517 -0.046039 0.3290 0.3355 0.3203
v 0.584951 -0.433706 -0.046039 0.3290 0.3355 0.3203
v 0.601620 -0.406706 0.046039 0.3290 0.3355 0.3203
v 0.517979 -0.044517 0.046039 0.3290 0.3355 0.3203
v 0.584951 -0.433706 0.046039 0.3290 0.3355 0.3203
v -0.941862 0.086669 -0.008414 0.3290 0.3355 0.3203
v -0.814636 0.170543 -0.008414 0.3290 0.3355 0.3203
v -0.941862 0.086669 0.008414 0.3290 0.3355 0.3203
v -0.814636 0.170543 0.008414 0.3290 0.3355 0.3203
v 0.762410 -0.079976 -0.074078 0.3290 0.3355 0.3203
v 0.762410 -0.079976 0.074078 0.3290 0.3355 0.3203
v 0.762410 0.085314 0.074078 0.3290 0.3355 0.3203
v 0.762410 0.085314 -0.074078 0.3290 0.3355 0.3203
vn 0.0042 -0.2713 -0.9625
vn 0.1379 0.1017 -0.9852
vn -0.0285 0.1102 -0.9935
vn 0.4591 0.0016 -0.8884
vn 0.5607 -0.4350 -0.7045
vn 0.9212 -0.0000 -0.3891
vn -0.0006 -1.0000 0.0006
vn 0.2254 -0.5928 -0.7731
vn 0.3535 -0.8658 0.3540
vn -0.0001 -0.0006 1.0000
vn 0.0006 -0.0001 1.0000
vn -0.0006 -0.0002 1.0000
vn 0.5253 -0.5648 -0.6365
vn 0.6153 -0.1570 -0.7725
vn 0.7402 -0.4495 -0.5000
vn -0.0000 0.8664 0.4993
vn 0.0005 -0.0006 -1.0000
vn -0.0001 -0.0011 -1.0000
vn -0.0002 0.0007 -1.0000
vn -0.5279 0.6007 0.6005
vn -0.6481 -0.0680 0.7585
vn -0.2377 0.1051 0.9656
vn -0.9978 0.0669 -0.0006
vn -0.4042 0.7862 -0.4674
vn -0.5470 0.8371 -0.0003
vn -0.0006 1.0000 0.0006
vn -0.2009 0.8834 0.4234
vn 0.1294 0.8659 -0.4833
vn -0.0001 0.7071 -0.7071
vn -0.4834 0.8658 0.1295
vn -0.0009 1.0000 0.0009
vn -0.0000 -0.9753 0.2210
vn -0.0000 -0.9752 0.2212
vn -0.0000 -0.9753 0.2207
vn -0.0008 0.0008 1.0000
vn 0.1464 0.9032 0.4036
vn -0.0000 0.7071 0.7071
vn -0.1609 0.9870 -0.0001
vn -0.1265 0.9920 -0.0000
vn -0.1394 0.9902 -0.0003
vn -0.0849 0.9964 -0.0003
vn -0.1702 0.9854 -0.0000
vn -0.0966 0.9953 -0.0000
vn 0.9097 0.4122 -0.0500
vn 0.9118 0.4104 -0.0150
vn 0.9133 0.4074 -0.0005
vn -0.0004 1.0000 -0.0004
vn 0.0004 1.0000 0.0004
vn -0.5470 0.8371 -0.0004
vn 0.0925 0.9264 -0.3651
vn 0.0006 1.0000 -0.0006
vn -0.9929 0.1123 -0.0392
vn -0.9371 0.3388 -0.0839
vn -0.9403 0.3404 -0.0003
vn 0.5679 -0.8231 0.0007
vn 0.7311 -0.5983 0.3279
vn 0.7730 -0.6345 -0.0008
vn -0.0006 0.0006 1.0000
vn -0.4330 -0.4355 0.7892
vn 0.3531 0.3542 0.8659
vn -1.0000 0.0003 -0.0003
vn -1.0000 -0.0003 -0.0003
vn -1.0000 -0.0004 0.0004
vn 0.4597 -0.8881 -0.0000
vn 0.0619 -0.5416 0.8383
vn 0.4599 -0.6279 0.6279
vn -1.0000 -0.0006 -0.0000
vn -1.0000 -0.0000 0.0008
vn -1.0000 0.0004 -0.0007
vn 0.0039 0.1089 0.9940
vn 0.0862 -0.3268 0.9412
vn 0.1394 0.0500 0.9890
vn -0.0163 -0.9999 -0.0000
vn -0.4470 -0.8699 0.2086
vn -0.5611 -0.7863 0.2586
vn -0.4829 0.1309 -0.8659
vn -0.7072 0.5003 -0.4996
vn 0.9867 0.1617 -0.0158
vn -0.5749 -0.2065 0.7917
vn -0.3337 -0.7113 0.6186
vn -0.6382 0.1615 0.7527
vn -0.5462 -0.8219 0.1620
vn -0.3847 -0.7538 0.5327
vn -0.4466 -0.8359 -0.3191
vn 0.0006 1.0000 -0.0000
vn 0.0005 1.0000 0.0005
vn 0.0040 0.9998 0.0204
vn 0.4594 0.6280 0.6282
vn 0.2995 0.9540 0.0141
vn 0.1498 0.9813 -0.1212
vn 0.2244 -0.5913 0.7746
vn -0.4830 -0.8659 0.1302
vn 0.0003 -0.0006 1.0000
vn 0.0005 -0.0005 1.0000
vn -0.0004 -0.0005 1.0000
vn 0.9567 0.2912 -0.0005
vn 0.9567 0.2911 0.0001
vn 0.9566 0.2913 -0.0000
vn 0.0430 -0.9991 -0.0002
vn 0.1233 -0.9924 -0.0000
vn 0.1232 -0.9924 -0.0000
vn -0.4333 0.7886 0.4363
vn 0.0004 0.7070 0.7073
vn 0.5464 -0.6846 -0.4825
vn -0.3774 -0.7507 -0.5423
vn -0.7702 -0.0608 -0.6349
vn -0.5276 -0.0000 -0.8495
vn -0.0760 0.9971 -0.0007
vn 0.9806 -0.0000 0.1958
vn 0.9807 -0.0002 0.1954
vn 0.9807 -0.0001 0.1957
vn 0.1779 0.6412 -0.7465
vn -0.0611 0.6786 -0.7320
vn -0.1290 0.6708 -0.7303
vn 0.2519 0.6368 -0.7287
vn -0.7875 0.6163 -0.0000
vn -0.7885 -0.5192 -0.3298
vn -0.9407 -0.3321 0.0691
vn -0.1386 0.6686 0.7306
vn 0.0109 0.6840 0.7294
vn -0.1613 0.6477 0.7447
vn -0.9079 -0.4192 -0.0000
vn -0.8947 -0.3553 -0.2708
vn -0.0006 0.0006 -1.0000
vn -0.0000 -0.4995 -0.8663
vn -0.4829 0.1305 -0.8659
vn -0.0000 -0.2926 -0.9562
vn -0.0181 -0.4086 -0.9125
vn -0.7672 -0.6414 0.0002
vn -0.7631 -0.6463 0.0001
vn -0.0453 -0.9990 -0.0000
vn 0.7217 0.2776 0.6341
vn 0.4593 -0.0004 0.8883
vn 0.1143 0.6587 0.7437
vn 0.0261 0.6723 0.7398
vn 0.1779 0.6412 0.7465
vn -0.5277 -0.0000 -0.8494
vn -0.8037 0.5315 -0.2675
vn -0.5281 0.6003 -0.6006
vn -0.1800 0.7462 0.6409
vn 0.3544 0.3530 0.8659
vn -0.2702 0.8447 0.4620
vn -0.0007 -0.0007 -1.0000
vn 0.0006 0.0006 -1.0000
vn -0.0006 -0.0006 -1.0000
vn -0.0775 0.9970 -0.0000
vn -0.5271 0.6378 -0.5616
vn -0.5756 0.7055 -0.4134
vn -0.6027 0.7871 -0.1314
vn -0.3440 0.7282 -0.5927
vn -0.0000 0.7071 -0.7071
vn -0.4832 0.8659 0.1297
vn -0.5247 -0.0000 0.8513
vn -0.3318 -0.7068 0.6248
vn 0.1111 0.0001 0.9938
vn -0.4832 0.1299 0.8658
vn 1.0000 0.0004 0.0004
vn 0.9575 0.0395 -0.2858
vn 0.9185 0.3955 -0.0000
vn 1.0000 -0.0007 -0.0007
vn 0.7542 -0.4937 0.4329
vn 0.9469 -0.3217 -0.0006
vn -0.0000 -0.7071 0.7071
vn 0.3541 -0.8659 0.3532
vn -0.2575 0.1660 -0.9519
vn -0.1270 -0.8204 0.5576
vn -0.0923 -0.8605 0.5010
vn -0.1937 -0.8318 0.5202
vn -0.6754 0.2037 -0.7087
vn -0.6902 0.2199 -0.6894
vn -0.6829 0.2175 -0.6974
vn 0.0817 -0.8494 0.5215
vn 0.0998 -0.8460 0.5237
vn 0.1663 -0.8372 0.5210
vn 0.0013 -0.7891 0.6142
vn 0.1014 -0.8356 0.5398
vn 0.0633 -0.8456 0.5300
vn -0.0282 -0.8284 0.5595
vn -0.1915 -0.8128 0.5501
vn 0.2015 -0.8313 -0.5180
vn 0.1001 -0.8461 -0.5235
vn 0.1015 -0.8355 -0.5400
vn -0.9001 0.1492 -0.4093
vn -0.1795 0.5026 -0.8457
vn -0.2143 0.7961 -0.5659
vn 0.0992 -0.8286 0.5509
vn -0.1202 -0.8717 0.4751
vn -0.1222 -0.8698 0.4780
vn -0.2067 -0.8481 0.4879
vn -0.6688 -0.4083 0.6214
vn -0.8341 -0.3568 0.4208
vn -0.8273 -0.3861 0.4082
vn 0.0013 -0.7891 -0.6142
vn -0.1039 -0.8355 -0.5396
vn -0.1427 -0.8196 -0.5548
vn -0.1596 -0.8179 -0.5528
vn 0.9733 -0.1563 0.1682
vn 0.4739 -0.8760 0.0900
vn -0.1275 0.9338 -0.3342
vn -0.8747 -0.0248 -0.4840
vn -0.5384 0.2521 -0.8041
vn 0.0769 -0.8457 -0.5280
vn -0.1548 -0.8605 -0.4854
vn 0.8065 -0.3552 -0.4726
vn 0.1399 -0.9688 -0.2045
vn 0.0991 -0.8286 -0.5509
vn 0.8686 -0.0901 -0.4872
vn 0.9205 -0.3736 0.1148
vn 0.1385 0.7772 -0.6139
vn -0.1145 0.6666 -0.7366
vn -0.0250 0.6934 -0.7201
vn -0.0752 0.6774 -0.7318
vn -0.5565 -0.4153 -0.7196
vn -0.5565 -0.4138 -0.7205
vn -0.5566 -0.4154 -0.7195
vn -0.7604 -0.6168 -0.2036
vn -0.1838 -0.7749 0.6048
vn -0.7445 -0.4667 -0.4774
vn -0.2581 -0.9661 -0.0000
vn -0.5791 -0.7538 -0.3105
vn -0.9815 0.1914 -0.0006
vn -0.9752 -0.1211 -0.1850
vn -0.9732 -0.2302 -0.0000
vn -0.4336 -0.7889 -0.4356
vn 0.0001 -0.7070 -0.7072
vn 0.4587 0.1278 -0.8794
vn 0.4384 0.1210 -0.8906
vn 0.4206 0.0842 -0.9033
vn -0.0000 0.8638 0.5038
vn -0.0462 0.7065 0.7062
vn -0.2021 0.7170 0.6672
vn 0.3876 0.2192 -0.8954
vn 0.2717 -0.7571 -0.5941
vn 0.6171 -0.1264 -0.7767
vn 0.0007 -1.0000 0.0007
vn -0.0006 -1.0000 -0.0006
vn 0.0006 -1.0000 0.0006
vn -0.6368 -0.7711 -0.0000
vn -0.6367 -0.7711 -0.0001
vn -0.6368 -0.7710 -0.0000
vn 0.6059 0.7956 -0.0001
vn 0.6055 0.7958 -0.0000
vn 0.6060 0.7955 -0.0001
vn -0.0000 -0.7071 -0.7071
vn -0.0008 0.0008 -1.0000
vn -0.4187 0.0816 -0.9044
vn -0.4924 -0.0758 -0.8670
vn -0.4170 -0.0963 -0.9038
vn -0.9620 -0.2731 -0.0000
vn -0.8966 0.2675 0.3529
vn -0.6368 0.7711 -0.0000
vn -0.6368 0.7710 -0.0000
vn -0.6367 0.7711 -0.0000
vn 0.0783 0.9969 -0.0000
vn 0.4166 0.8611 -0.2914
vn 0.4243 0.8925 0.1528
vn 0.0733 0.9973 -0.0002
vn 0.2663 0.9485 -0.1714
vn 0.1066 0.9943 -0.0000
vn -0.3596 0.5640 0.7434
vn -0.3333 0.7100 0.6203
vn 1.0000 0.0007 0.0007
vn 1.0000 -0.0004 -0.0004
vn 1.0000 0.0006 0.0006
vn -1.0000 -0.0007 -0.0008
vn -1.0000 0.0005 0.0005
vn 0.1669 0.9860 -0.0000
vn 0.7835 0.6214 0.0003
vn 0.0372 0.9993 -0.0000
vn -0.1888 -0.6761 0.7122
vn -0.1197 -0.7014 0.7026
vn -0.0553 -0.7083 0.7037
vn -0.8039 0.5293 0.2711
vn 0.2271 -0.5951 -0.7709
vn 0.3545 -0.8659 0.3530
vn -0.0000 1.0000 0.0006
vn -0.7400 0.6726 -0.0000
vn -0.1005 -0.9949 -0.0000
vn -0.4036 -0.8988 0.1712
vn -0.1850 -0.9827 -0.0000
vn -0.6943 0.7197 -0.0000
vn -0.6944 0.7196 0.0004
vn -0.6940 0.7200 -0.0003
vn -0.6898 -0.4625 -0.5570
vn -0.6489 -0.7586 -0.0588
vn -0.2926 -0.9303 0.2213
vn 0.6694 0.3029 0.6783
vn 0.7771 0.0794 0.6244
vn 0.7436 0.2356 0.6257
vn -0.0002 0.0006 1.0000
vn -0.0006 -0.0001 1.0000
vn 0.0006 -0.0002 1.0000
vn 0.9616 -0.2745 -0.0002
vn 0.8977 0.2505 -0.3626
vn 0.9978 0.0670 -0.0006
vn -0.1911 0.7204 0.6667
vn -0.3533 0.7570 0.5497
vn 0.0649 0.9979 -0.0000
vn 0.5366 0.8438 0.0002
vn 0.1311 -0.5679 0.8126
vn -0.4223 -0.6400 0.6419
vn -0.0048 0.9996 0.0277
vn 0.9726 0.2323 -0.0000
vn 0.9726 0.2324 -0.0000
vn 0.9727 0.2323 -0.0000
vn -0.7752 0.6318 -0.0004
vn -0.5284 0.8490 0.0007
vn 0.9617 -0.2742 -0.0004
vn -0.0054 0.9813 -0.1922
vn 0.1646 0.9814 -0.0992
vn -0.0001 0.1863 0.9825
vn 0.0091 0.1160 0.9932
vn 0.0004 -1.0000 0.0004
vn -0.2674 -0.9636 -0.0000
vn -0.2487 0.3911 0.8861
vn -0.0494 0.3794 0.9239
vn -0.1220 0.4184 0.9000
vn -0.1482 -0.6472 -0.7478
vn -0.0700 -0.6701 -0.7390
vn -0.1780 -0.6412 -0.7465
vn 0.0006 -0.0000 1.0000
vn -0.0007 -0.0003 1.0000
vn 0.0004 0.0004 1.0000
vn 0.1487 -0.6657 0.7313
vn 0.0452 -0.6993 0.7134
vn -0.0012 -0.6958 0.7183
vn -0.6921 -0.4612 -0.5552
vn -0.2094 0.3955 0.8943
vn -0.1471 0.4133 0.8986
vn -0.1213 0.4411 0.8892
vn -0.4004 0.0708 -0.9136
vn -0.3460 0.1000 -0.9329
vn -0.2159 -0.6202 0.7541
vn -0.0721 -0.6730 0.7362
vn -0.1481 -0.6472 0.7478
vn -0.1275 0.6503 0.7489
vn 0.1036 0.6848 0.7213
vn 0.1110 0.6830 0.7220
vn -0.0000 -0.8664 0.4993
vn 0.0001 -0.8664 0.4994
vn -0.7485 -0.6205 0.2340
vn -0.0010 -0.9562 -0.2929
vn -0.5595 -0.8288 -0.0000
vn -0.1503 -0.6493 -0.7455
vn -0.0620 -0.6698 -0.7399
vn -0.5569 -0.4146 0.7197
vn -0.5572 -0.4167 0.7182
vn -0.5568 -0.4155 0.7192
vn 0.1242 -0.5251 -0.8419
vn 0.1242 -0.5250 -0.8420
vn 0.0996 -0.7007 -0.7065
vn 0.0277 -0.7120 -0.7016
vn 0.2405 -0.6458 -0.7246
vn -0.0003 -0.2927 0.9562
vn 0.0052 -0.2678 0.9635
vn 0.0002 1.0000 -0.0000
vn -0.0002 1.0000 -0.0001
vn -0.0001 1.0000 -0.0003
vn 0.6866 0.2601 -0.6789
vn 0.2031 0.7847 -0.5857
vn 0.0429 0.6897 -0.7229
vn 0.8095 0.4011 -0.4289
vn -0.8566 -0.0000 0.5160
vn -0.8569 -0.0005 0.5155
vn -0.8567 -0.0000 0.5159
vn -0.2094 0.3955 -0.8943
vn -0.1432 0.4164 -0.8978
vn -0.0382 0.4394 -0.8975
vn -0.4825 -0.8044 -0.3465
vn -0.1197 -0.8737 -0.4714
vn 0.5504 -0.8349 -0.0000
vn 0.1030 0.6700 0.7352
vn -0.0007 1.0000 -0.0007
vn 0.0007 1.0000 0.0007
vn 0.1001 0.6532 0.7506
vn -0.1514 0.6557 0.7397
vn -0.0805 0.6770 0.7315
vn -0.0913 0.6745 0.7326
vn -0.2020 0.7169 -0.6672
vn 0.0034 0.6916 -0.7223
vn -0.1275 0.6501 -0.7490
vn -0.0411 -0.6515 0.7576
vn -0.0744 -0.6729 0.7360
vn -0.2245 0.7746 -0.5912
vn 0.1291 -0.4834 -0.8658
vn -0.1567 0.9846 -0.0775
vn -0.6440 0.4235 0.6371
vn -0.5634 0.8262 -0.0025
vn 0.0838 -0.6804 0.7281
vn -0.0142 -0.6746 0.7380
vn 0.3039 -0.7180 0.6262
vn 0.8566 -0.0000 0.5160
vn 0.8569 -0.0005 0.5155
vn 0.8564 0.0008 0.5163
vn 1.0000 0.0006 -0.0000
vn -0.1800 0.6409 -0.7462
vn 0.1303 0.8659 -0.4830
vn -0.2707 0.4616 -0.8448
vn 0.7759 -0.6308 -0.0003
vn 0.9414 -0.3115 -0.1290
vn 0.1242 -0.5253 0.8418
vn 0.1243 -0.5251 0.8420
vn 0.1242 -0.5250 0.8420
vn -0.0005 -0.0003 -1.0000
vn 0.0001 -0.0006 -1.0000
vn -0.5598 0.4158 -0.7168
vn -0.6698 0.4323 -0.6038
vn -0.1290 0.2246 0.9659
vn -0.7034 -0.6810 0.2037
vn -0.6896 -0.5584 -0.4612
vn -0.7657 0.2570 -0.5896
vn -0.5245 -0.0002 -0.8514
vn 0.0816 0.6873 -0.7218
vn 0.2956 0.7329 -0.6128
vn -1.0000 -0.0004 -0.0004
vn -1.0000 0.0004 0.0004
vn -0.0000 -0.6946 -0.7194
vn -0.0730 -0.6738 -0.7353
vn -0.2159 -0.6203 -0.7541
vn 0.0001 -0.2588 0.9659
vn 0.3514 0.3561 0.8659
vn -0.3859 -0.9213 0.0474
vn -0.3256 -0.9110 0.2532
vn -0.0808 -0.9967 -0.0000
vn -0.4807 -0.8307 -0.2808
vn -0.2044 -0.9789 -0.0000
vn -0.0000 0.9753 0.2209
vn -0.0000 0.9753 0.2210
vn -0.1780 -0.6412 0.7465
vn -0.1504 -0.6493 0.7455
vn 0.0616 0.6699 -0.7399
vn 0.0321 0.6724 -0.7395
vn -0.0000 -0.8899 -0.4563
vn -0.5335 -0.5652 -0.6292
vn -0.0130 -0.7807 -0.6248
vn -0.6793 0.5865 0.4410
vn -0.8305 0.0979 0.5484
vn -0.3477 0.5920 0.7271
vn -0.1621 0.7701 0.6170
vn -0.1462 0.9032 0.4035
vn -0.3104 0.9506 -0.0001
vn -0.0436 0.9990 -0.0000
vn 0.0004 -0.0008 -1.0000
vn -0.0000 -0.0008 -1.0000
vn 0.0001 -0.0008 -1.0000
vn -0.0484 -0.7110 -0.7015
vn 0.0216 -0.7143 -0.6995
vn -0.1826 -0.6787 -0.7114
vn 0.0006 0.0005 -1.0000
vn -0.0001 -0.0006 -1.0000
vn 0.0006 -0.0001 -1.0000
vn -0.9565 0.2916 0.0001
vn -0.9565 0.2916 -0.0002
vn -0.9568 0.2907 -0.0001
vn -0.0961 0.3836 -0.9185
vn -0.0437 0.4396 -0.8971
vn -0.1159 0.4150 -0.9024
vn -0.4187 0.0816 0.9044
vn -0.3968 -0.0300 0.9174
vn -0.4054 0.0744 0.9111
vn -0.9621 -0.2727 -0.0000
vn 0.2405 -0.6459 0.7245
vn 0.0560 -0.7151 0.6967
vn 0.0077 -0.7090 0.7051
vn -0.5295 0.8483 -0.0001
vn -0.1816 0.9703 -0.1600
vn -0.1724 0.9850 -0.0004
vn -0.0001 0.0006 -1.0000
vn -0.0000 -0.0002 1.0000
vn 0.0003 -0.0001 1.0000
vn -0.0003 -0.0000 1.0000
vn -0.0000 0.2367 -0.9716
vn -0.0002 0.2364 -0.9716
vn -0.0000 0.2366 -0.9716
vn -0.7402 0.6724 -0.0000
vn 0.1369 -0.0567 0.9890
vn -0.0159 -0.4416 0.8971
vn 0.0640 0.6876 0.7232
vn -0.3242 0.9416 0.0913
vn -0.1278 0.9918 -0.0000
vn 0.1115 -0.6747 -0.7296
vn 0.1103 -0.6742 -0.7303
vn 0.0738 -0.6819 -0.7277
vn 0.0006 0.0006 1.0000
vn -0.0006 -0.0006 1.0000
vn -0.0005 -0.9660 -0.2585
vn 0.6051 0.7961 -0.0000
vn 0.1207 0.9731 -0.1965
vn 0.5342 0.8454 0.0003
vn -0.0934 0.9956 -0.0000
vn 0.0739 -0.9973 -0.0000
vn 0.1683 -0.9857 -0.0003
vn 0.0717 -0.3037 0.9501
vn 0.0107 -0.0263 0.9996
vn -0.0004 -1.0000 -0.0004
vn 0.4340 0.8712 -0.2294
vn 0.1669 0.9529 0.2534
vn -0.0305 0.9991 -0.0304
vn -0.0000 0.2366 0.9716
vn 0.0008 0.2367 0.9716
vn 0.0005 0.2373 0.9714
vn -0.4224 -0.4229 0.8017
vn 0.7169 -0.0003 -0.6972
vn -0.4679 0.8838 -0.0000
vn -0.1544 0.9767 -0.1493
vn -0.1053 0.9944 -0.0000
vn -0.4837 0.1281 -0.8658
vn -0.0000 -0.7170 0.6970
vn 0.0678 -0.7032 0.7077
vn 0.1863 -0.6700 0.7186
vn -0.0007 -0.0003 -1.0000
vn 0.0005 -0.0003 -1.0000
vn 0.1862 -0.6700 -0.7186
vn 0.0028 -0.7071 -0.7071
vn 0.0795 -0.7002 -0.7095
vn 0.5271 0.7877 -0.3188
vn 0.3766 0.9264 -0.0010
vn 0.0903 -0.7102 -0.6982
vn 0.0214 -0.6642 -0.7473
vn -0.0000 -0.7167 -0.6974
vn -0.9806 -0.0003 0.1960
vn -0.9807 -0.0000 0.1955
vn -0.9806 -0.0005 0.1958
vn -0.0000 -0.0006 -1.0000
vn -0.0003 -0.0009 -1.0000
vn -0.0006 -0.0000 -1.0000
vn 0.0006 -0.0000 -1.0000
vn 0.0005 0.0005 -1.0000
vn -0.2242 -0.7745 0.5915
vn 0.3528 0.3549 0.8658
vn -0.9405 0.3399 -0.0003
vn -0.9832 0.1562 0.0948
vn -0.9933 0.1154 0.0055
vn -0.0786 -0.9969 -0.0000
vn 0.0730 -0.9973 -0.0000
vn -0.4651 -0.8495 -0.2490
vn 0.9639 0.1966 0.1797
vn 0.0561 -0.0006 0.9984
vn 0.0002 0.6945 0.7195
vn 0.1093 0.6625 0.7410
vn 0.0588 -0.7206 0.6908
vn -0.0077 -0.6625 0.7491
vn -0.9952 -0.0946 -0.0266
vn -0.0006 -0.0002 -1.0000
vn -0.0006 0.0001 -1.0000
vn 0.7743 -0.6328 -0.0001
vn 0.2507 -0.9562 -0.1510
vn 0.5760 -0.6717 -0.4658
vn -0.9689 0.2369 0.0714
vn -0.0003 0.0006 1.0000
vn 0.0008 -0.0000 1.0000
vn -0.9835 0.1810 -0.0004
vn -0.9645 0.2312 -0.1278
vn 0.1156 -0.6909 0.7137
vn 0.0997 -0.6954 0.7117
vn -0.0001 0.8901 0.4559
vn -0.2257 0.9012 0.3700
vn 0.0503 0.7630 0.6445
vn -0.0005 -0.0005 1.0000
vn 0.0007 0.0003 1.0000
vn 0.0007 0.0007 1.0000
vn -0.0587 -0.7168 -0.6948
vn 0.0761 -0.7011 -0.7090
vn 0.0003 0.0007 -1.0000
vn 0.0007 0.0007 -1.0000
vn 0.0007 -0.0002 -1.0000
vn -0.2252 -0.7733 -0.5926
vn -0.4833 0.1293 -0.8659
vn -0.0145 -0.9999 -0.0003
vn 0.0053 -1.0000 -0.0000
vn 0.0913 -0.9958 -0.0000
vn -0.0005 0.0005 1.0000
vn -0.0007 -0.0006 1.0000
vn -0.0008 0.0005 1.0000
vn -0.1855 0.6513 -0.7358
vn -0.3538 0.5494 -0.7570
vn -0.2571 0.8153 -0.5188
vn -0.3716 0.9284 -0.0000
vn -0.0006 -0.0001 -1.0000
vn 0.0005 -0.0004 -1.0000
vn 0.0001 -0.0006 1.0000
vn -0.0001 0.0006 1.0000
vn 0.2597 -0.6178 -0.7423
vn 0.9212 -0.3890 -0.0000
vn -0.2254 -0.7731 -0.5929
vn 0.7749 -0.3036 0.5544
vn 0.4597 -0.6280 0.6280
vn 0.1514 0.6759 -0.7213
vn 0.0003 0.0005 -1.0000
vn 0.0002 0.0006 -1.0000
vn -0.0003 -0.0006 -1.0000
vn -0.0741 -0.7033 0.7071
vn -0.0001 0.1863 -0.9825
vn -0.1827 0.6470 -0.7402
vn -0.0785 0.6792 -0.7297
vn -0.1447 0.6619 -0.7355
vn 0.3561 -0.7896 -0.4997
vn -0.2142 -0.9768 -0.0000
vn 0.6169 0.4596 0.6389
vn 0.6181 0.7389 0.2683
vn 0.2653 0.7500 0.6059
vn -0.4324 -0.8854 0.1705
vn 0.0002 -0.0007 1.0000
vn -0.0004 0.0006 1.0000
vn -0.0003 -0.0007 1.0000
vn -0.8010 -0.5987 -0.0000
vn -0.8013 -0.5982 -0.0000
vn -0.8013 -0.5983 -0.0000
vn 0.2846 -0.9586 -0.0001
vn -0.5597 -0.7497 -0.3530
vn -0.6052 0.7852 -0.1309
vn -0.4833 0.1287 -0.8659
vn -0.7072 0.5002 -0.4998
vn -0.0001 0.0008 -1.0000
vn 0.0004 0.0004 -1.0000
vn -0.0287 -0.9996 -0.0008
vn 0.0002 -0.1919 -0.9814
vn 0.7484 -0.6206 -0.2340
vn 0.7785 -0.6277 -0.0003
vn 0.7179 0.0001 -0.6962
vn 0.9145 -0.1621 -0.3707
vn 0.8242 0.4569 -0.3345
vn 0.2043 -0.9789 -0.0004
vn -0.7070 0.5002 -0.4999
vn -0.8158 -0.0309 0.5775
vn -0.8627 -0.0551 0.5027
vn -0.8203 -0.1575 0.5499
vn 0.2239 0.5916 -0.7745
vn -0.4833 0.8658 0.1292
vn 0.0502 0.7654 -0.6415
vn -0.4878 0.3370 -0.8053
vn -0.4076 0.8792 -0.2467
vn 0.0097 0.6795 0.7337
vn 0.0011 0.6960 0.7180
vn -0.0008 -0.4998 0.8661
vn 0.2236 -0.5912 0.7749
vn -0.0191 0.8392 -0.5435
vn -0.0000 0.8899 -0.4562
vn -0.1934 0.7121 0.6749
vn -0.3683 0.7257 0.5810
vn -0.5413 -0.8249 0.1629
vn -0.7119 -0.6718 0.2045
vn 0.1515 0.6760 0.7212
vn -0.0007 -0.0004 -1.0000
vn 0.0005 -0.0005 -1.0000
vn 0.0003 -0.0005 -1.0000
vn 0.0003 -0.0000 1.0000
vn -0.0001 -0.0003 1.0000
vn -0.0000 0.0005 1.0000
vn 0.0007 -0.0002 1.0000
vn 0.0009 -0.0002 1.0000
vn 0.0004 -0.0007 1.0000
vn -0.0000 -0.4997 -0.8662
vn -0.3986 -0.7882 0.4689
vn 0.4169 0.7420 -0.5251
vn 0.0452 -0.6991 -0.7136
vn 0.5470 0.8371 -0.0003
vn 0.7703 0.5640 0.2976
vn 0.1212 -0.9926 -0.0003
vn 0.1046 -0.9945 -0.0006
vn 0.0008 0.6940 -0.7199
vn 0.1003 0.6648 -0.7402
vn 0.0387 0.6741 -0.7376
vn -0.0000 -0.8662 -0.4997
vn 0.0005 0.0005 1.0000
vn -0.2050 0.4624 0.8626
vn 0.0005 0.7071 -0.7071
vn -0.4833 0.8658 0.1294
vn -0.0244 0.9997 -0.0000
vn -0.0301 0.9995 -0.0008
vn 0.3641 -0.6450 -0.6719
vn -0.7072 0.4998 -0.5001
vn -0.6803 -0.4470 0.5809
vn -0.0005 -0.7073 0.7069
vn 0.3537 -0.8659 0.3537
vn -0.7072 0.5001 -0.4998
vn -0.1632 -0.6859 -0.7092
vn 0.2302 -0.9731 -0.0000
vn 0.0107 -0.9999 -0.0003
vn -0.4183 -0.8857 -0.2014
vn 0.2243 -0.5914 0.7746
vn -0.4833 -0.8659 0.1292
vn 0.1862 0.1977 0.9624
vn -0.2039 -0.9790 -0.0000
vn -0.2410 -0.9705 -0.0000
vn -0.5279 -0.8082 -0.2611
vn -0.9414 0.3115 -0.1290
vn 0.0624 0.9981 -0.0000
vn 0.7769 -0.6296 -0.0003
vn -0.1527 -0.9074 0.3916
vn 0.1084 -0.8991 0.4241
vn -0.3573 -0.3722 0.8566
vn -0.6851 -0.4496 0.5731
vn -0.0000 0.0006 -1.0000
vn -0.0004 0.0005 -1.0000
vn 0.1620 -0.9868 -0.0000
vn -0.9551 0.2964 -0.0000
vn -0.9551 0.2963 -0.0000
vn -0.0003 -1.0000 -0.0000
vn 0.6056 0.7958 -0.0000
vn 0.0006 1.0000 0.0006
vn -0.0006 1.0000 -0.0006
vn -0.4833 0.8659 0.1289
vn 0.0004 -0.0008 1.0000
vn 0.0005 -0.0006 1.0000
vn 0.2056 0.9786 -0.0000
vn -0.0215 0.9998 -0.0000
vn 0.0820 -0.6765 -0.7319
vn -1.0000 0.0006 -0.0000
vn -0.3354 -0.7058 0.6240
vn -0.4874 -0.3361 0.8059
vn -0.9742 -0.2257 0.0001
vn -0.9837 0.1800 -0.0003
vn -0.6042 0.5309 0.5942
vn 0.0502 0.7629 0.6445
vn -0.5709 0.7417 -0.3521
vn -0.7674 0.6411 -0.0000
vn -0.5248 0.6022 0.6016
vn -0.2622 0.9489 0.1757
vn -0.6942 0.7197 -0.0000
vn -0.6945 0.7195 -0.0003
vn -0.6947 0.7193 -0.0000
vn 0.1883 0.7686 0.6114
vn 0.0679 0.8210 0.5668
vn 0.1361 0.7816 0.6088
vn -0.0005 -0.7069 0.7073
vn -0.0021 -0.2586 0.9660
vn 0.0579 -0.9983 -0.0000
vn -0.0004 -0.0004 -1.0000
vn -0.1827 0.6471 0.7402
vn -0.0021 0.9429 0.3330
vn 0.6251 0.7785 0.0570
vn 0.0598 0.9475 0.3141
vn 0.3606 0.8918 0.2731
vn 0.0035 0.8950 0.4461
vn -0.1968 -0.6305 -0.7508
vn 0.1503 0.9689 -0.1965
vn 0.0651 0.9529 -0.2961
vn 0.6971 0.7160 0.0384
vn -0.9143 -0.3696 0.1657
vn 0.1472 -0.8309 -0.5365
vn -0.4291 -0.9033 -0.0000
vn -0.0805 0.5011 0.8617
vn -0.0662 0.8025 0.5930
vn -0.3335 0.7470 0.5751
vn -0.6777 -0.2169 0.7026
vn -0.9085 0.1019 0.4052
vn -0.7453 -0.3861 0.5436
vn 0.0855 0.9033 -0.4203
vn 0.2438 -0.3654 -0.8984
vn 0.2505 -0.3886 -0.8867
vn 0.2459 -0.3830 -0.8904
vn -0.5458 0.8142 0.1979
vn -0.5642 0.6918 0.4507
vn -0.1826 0.9648 0.1894
vn 0.3548 0.3528 0.8659
vn 0.8969 0.0001 0.4421
vn 0.8065 -0.3552 0.4726
vn 0.1360 0.7816 -0.6088
vn 0.3607 0.8918 -0.2731
vn -0.2488 0.3914 -0.8860
vn 0.1588 0.8739 -0.4594
vn -0.0790 0.7288 0.6801
vn -0.8404 -0.3692 -0.3967
vn -0.6073 0.2153 -0.7648
vn -0.6689 -0.4082 -0.6213
vn -0.8072 -0.2554 -0.5321
vn 0.0689 0.4691 -0.8805
vn -0.0004 -1.0000 -0.0002
vn 0.0005 -1.0000 0.0005
vn -0.0005 -1.0000 0.0005
vn -0.5247 0.6020 -0.6019
vn -0.5247 0.8513 -0.0000
vn -0.0405 0.9163 0.3985
vn -0.0000 0.8593 -0.5115
vn -0.4594 0.7013 -0.5450
vn -0.2239 -0.7745 0.5916
vn 0.3546 0.3529 0.8659
vn 0.0007 -1.0000 -0.0002
vn -0.3916 -0.0891 -0.9158
vn -0.4166 0.0765 -0.9059
vn -0.3967 -0.1122 -0.9111
vn -0.1492 -0.6483 0.7466
vn -0.3903 0.0051 0.9207
vn -0.3967 -0.1122 0.9111
vn 0.0691 -0.6836 0.7266
vn 0.0591 0.9983 -0.0000
vn 0.0763 0.9971 -0.0008
vn -0.4159 -0.1817 0.8911
vn -0.4926 0.0343 0.8696
vn 0.1679 0.8663 -0.4704
vn -0.0341 0.7526 -0.6576
vn 0.2459 -0.3830 0.8904
vn 0.2517 -0.3812 0.8896
vn 0.2438 -0.3654 0.8983
vn -0.6829 0.2176 0.6974
vn -0.6847 0.2162 0.6960
vn -0.6754 0.2037 0.7087
vn -0.8040 0.5290 -0.2714
vn -0.6831 -0.4508 0.5745
vn 0.6339 0.6079 -0.4781
vn 0.0819 -0.9966 -0.0007
vn -0.1092 0.6752 0.7295
vn 0.4708 0.8423 -0.2626
vn -1.0000 0.0003 -0.0000
vn -1.0000 -0.0002 -0.0003
vn -1.0000 0.0004 -0.0003
vn 0.7468 0.0007 0.6651
vn 0.7667 -0.4110 0.4931
vn 0.5612 -0.2948 0.7734
vn -0.3738 -0.7518 -0.5432
vn -0.5247 -0.0000 -0.8513
vn -0.1060 0.9944 -0.0006
vn 0.0526 0.8269 -0.5598
vn 0.4600 0.6278 -0.6279
vn -1.0000 0.0006 0.0006
vn -0.9004 0.0340 -0.4337
vn -0.8684 -0.0618 -0.4920
vn -0.7995 0.0060 -0.6006
vn -0.8459 -0.1409 -0.5144
vn -0.4879 -0.3359 -0.8057
vn -0.6043 -0.5308 -0.5942
vn 0.4206 0.0842 0.9033
vn 0.4276 0.0932 0.8992
vn 0.4586 0.1277 0.8794
vn 0.4787 -0.6677 0.5701
vn -0.7176 -0.0636 0.6936
vn -0.8348 0.0365 0.5494
vn 0.1361 0.6598 -0.7390
vn 0.6060 0.7955 -0.0002
vn 0.6051 0.7961 0.0001
vn 0.6055 0.7959 -0.0000
vn 0.4595 -0.0001 0.8882
vn 0.4045 0.7862 -0.4672
vn 0.1351 -0.8584 -0.4949
vn 0.0202 -0.8658 -0.5000
vn 0.9994 0.0015 -0.0338
vn 0.9999 0.0014 -0.0116
vn 0.9978 0.0010 -0.0670
vn -0.0291 -0.9996 -0.0000
vn -0.0212 -0.9997 -0.0088
vn -0.6918 -0.5566 -0.4600
vn -0.6449 0.3789 -0.6637
vn -0.8196 0.0423 -0.5713
vn 0.0004 -1.0000 -0.0004
vn 0.5606 -0.8281 -0.0007
vn -0.4333 -0.4352 -0.7893
vn 0.0370 0.9993 -0.0000
vn 0.2443 0.9697 -0.0000
vn -0.0005 1.0000 -0.0005
vn 0.0593 0.9982 -0.0007
vn 0.3534 -0.8658 0.3542
vn -0.1387 0.6686 -0.7306
vn -0.5280 -0.0001 0.8492
vn -0.6629 -0.4271 0.6149
vn 0.4601 0.8879 -0.0000
vn 0.7468 0.0006 -0.6651
vn 0.0002 -0.0002 -1.0000
vn 0.0006 0.0002 -1.0000
vn 0.0006 -0.0005 -1.0000
vn 0.0008 0.0002 -1.0000
vn 0.0005 -0.0000 -1.0000
vn 0.0009 -0.0001 -1.0000
vn -0.0000 -0.0000 -1.0000
vn -0.0000 -0.0003 -1.0000
vn -0.1544 0.9880 -0.0003
vn 0.8996 0.4367 -0.0000
vn -0.9774 0.1767 -0.1161
vn -1.0000 -0.0006 -0.0002
vn -1.0000 -0.0005 -0.0000
vn -1.0000 -0.0000 -0.0008
vn -1.0000 -0.0000 -0.0006
vn -1.0000 0.0002 -0.0006
vn 0.4787 -0.6677 -0.5701
vn 0.9806 -0.0002 0.1958
vn -0.2788 0.8785 -0.3880
vn -0.7120 0.6718 0.2045
vn 0.9465 -0.3228 -0.0000
vn 0.0636 -0.8459 -0.5295
vn -0.0112 -0.8409 -0.5411
vn -0.3212 -0.8151 -0.4821
vn 0.8969 -0.0000 -0.4422
vn -0.0396 0.8010 -0.5974
vn 0.0011 0.6960 -0.7180
vn -0.9650 0.1541 -0.2123
vn -0.2020 0.7170 0.6672
vn -0.6367 -0.7711 -0.0000
vn -0.9977 0.0671 -0.0000
vn -0.0008 1.0000 -0.0000
vn 0.7168 -0.0000 0.6973
vn 0.0007 -0.0003 1.0000
vn -0.0006 0.0001 1.0000
vn 0.0006 0.0002 1.0000
vn -0.0004 0.0005 1.0000
vn -0.0005 -0.0003 1.0000
vn -0.0000 -0.0006 1.0000
vn 0.0004 -0.0005 1.0000
vn 0.0001 -0.0008 1.0000
vn 0.0003 -0.0004 1.0000
vn 0.0005 -0.0004 1.0000
vn -0.0002 -0.0004 1.0000
vn -0.0004 0.0002 1.0000
vn -0.0000 -0.0005 1.0000
vn 0.0001 -0.0009 1.0000
vn 0.0001 0.0006 1.0000
vn 0.0002 0.0006 1.0000
vn 0.9978 0.0670 -0.0000
vn -0.0382 0.4394 0.8975
vn -0.0000 -0.8666 0.4990
vn -0.5567 -0.4155 0.7194
vn -0.0006 1.0000 -0.0002
vn -0.0001 1.0000 -0.0001
vn 0.0001 1.0000 0.0003
vn -0.0002 1.0000 -0.0006
vn 0.0004 1.0000 0.0005
vn -0.0000 -0.6946 0.7194
vn 1.0000 -0.0000 -0.0006
vn 1.0000 -0.0006 0.0002
vn 1.0000 0.0004 -0.0004
vn 0.1242 -0.5251 0.8419
vn 0.0002 -0.0006 -1.0000
vn 0.0006 -0.0002 -1.0000
vn 0.0002 -0.0007 -1.0000
vn 0.0005 0.0004 -1.0000
vn -0.0002 -0.0004 -1.0000
vn 0.0003 -0.0004 -1.0000
vn -0.0000 -0.0005 -1.0000
vn -0.0001 -0.0008 -1.0000
vn -0.0004 0.0002 -1.0000
vn 0.0001 -0.0009 -1.0000
vn -0.1115 -0.7935 -0.5983
vn -0.0005 -0.0005 -1.0000
vn -0.0004 -0.0005 -1.0000
vn 0.0006 -0.0004 -1.0000
vn 0.0004 -0.0007 -1.0000
vn -0.0009 0.0001 -1.0000
vn 0.0009 -0.0002 -1.0000
vn -0.0008 -0.0004 1.0000
vn -0.0001 0.0003 1.0000
vn -0.0003 -0.0004 1.0000
vn -0.0002 -0.0003 1.0000
vn -0.0000 -0.0003 1.0000
vn 0.0001 -0.0003 1.0000
vn 0.0002 -0.0003 1.0000
vn 0.0005 -0.0003 1.0000
vn -0.0007 -0.0007 1.0000
vn 0.0812 0.9967 -0.0000
vn -0.3285 0.9445 -0.0002
vn -0.0005 1.0000 0.0005
vn 0.0004 0.2372 0.9715
vn 0.6470 0.3351 -0.6849
vn -0.0009 -0.0003 -1.0000
vn -0.0004 0.0008 -1.0000
vn -0.0006 -0.0003 -1.0000
vn -0.0003 0.0006 -1.0000
vn -0.9983 0.0581 0.0054
vn 0.5449 -0.0000 0.8385
vn 0.0391 0.6745 0.7372
vn 0.0003 -0.7170 0.6971
vn -0.9983 0.0208 -0.0539
vn 0.0007 0.0004 -1.0000
vn -0.7864 0.6124 -0.0812
vn 0.0003 0.0005 1.0000
vn 0.0007 -0.0005 1.0000
vn -0.0004 -0.0004 1.0000
vn 0.0003 0.0007 1.0000
vn 0.0001 -0.7178 -0.6963
vn -0.0004 -0.0006 -1.0000
vn -0.0006 0.0007 1.0000
vn 0.0004 -0.0004 1.0000
vn 0.0008 -0.0004 1.0000
vn -0.0004 0.0004 -1.0000
vn 0.0009 0.0002 -1.0000
vn 0.0005 0.0006 -1.0000
vn 0.0004 -0.0005 -1.0000
vn 0.0091 0.1160 -0.9932
vn -0.0000 0.0006 1.0000
vn 0.0002 -0.0006 1.0000
vn 0.0003 -0.0005 1.0000
vn -0.0002 0.0009 1.0000
vn -0.8014 -0.5982 -0.0000
vn -0.7142 0.6697 0.2036
vn -0.0000 -0.2925 -0.9563
vn 0.8895 -0.0000 -0.4570
vn -0.9288 0.0703 0.3637
vn -0.6042 0.5309 -0.5942
vn -0.0006 0.0002 1.0000
vn -0.0009 -0.6959 -0.7182
vn 0.1334 -0.9911 -0.0000
vn -0.3868 0.8261 -0.4099
vn -0.0003 -0.8899 0.4561
vn -0.0005 0.0004 -1.0000
vn 0.0856 0.9963 -0.0000
vn 0.0008 -0.0002 1.0000
vn 0.0007 0.0002 1.0000
vn 0.0008 -0.0005 1.0000
vn 0.0001 0.0009 1.0000
vn -0.0000 -0.0009 1.0000
vn -1.0000 -0.0005 0.0003
vn -1.0000 0.0004 -0.0004
vn -1.0000 0.0006 0.0002
vn -0.6043 -0.5308 0.5942
vn 0.0503 0.7629 0.6445
vn -0.6942 0.7198 -0.0000
vn 0.1480 -0.9890 -0.0003
vn 0.0175 0.9748 0.2223
vn -0.0020 0.9429 -0.3331
vn 0.2459 -0.3829 -0.8904
vn -0.5359 0.2563 0.8045
vn 0.8065 -0.3551 0.4726
vn -0.1220 0.4184 -0.9000
vn -0.8273 -0.3861 -0.4081
vn 0.0003 -1.0000 -0.0004
vn -0.0001 -1.0000 -0.0005
vn 0.0005 -1.0000 -0.0000
vn 0.0004 0.8591 0.5117
vn -0.0853 0.9154 -0.3935
vn -0.0004 -1.0000 0.0004
vn 0.5334 0.8458 0.0003
vn -0.4170 -0.0963 0.9038
vn -0.0000 0.8638 -0.5039
vn 0.2439 -0.3655 0.8983
vn -0.6755 0.2037 0.7087
vn -1.0000 0.0001 -0.0005
vn -1.0000 -0.0003 -0.0005
vn -1.0000 -0.0004 -0.0003
vn -1.0000 -0.0003 -0.0001
vn -1.0000 0.0002 -0.0003
vn -1.0000 -0.0002 -0.0006
vn -1.0000 -0.0006 0.0001
vn 0.5537 -0.5119 0.6568
vn -0.7752 -0.6317 -0.0000
vn -0.8315 -0.0537 -0.5530
vn 0.4586 0.1278 0.8794
vn 0.6491 -0.4455 0.6165
vn 1.0000 -0.0002 -0.0006
vn 1.0000 0.0003 -0.0002
vn 1.0000 -0.0003 0.0002
vn -0.8196 0.0423 -0.5714
vn 0.6796 0.7335 0.0003
vt 0.000000 0.000000
s 1
f 481/1/1 60/1/2 479/1/3
f 537/1/4 542/1/5 544/1/6
f 112/1/7 569/1/8 568/1/9
f 82/1/10 80/1/11 81/1/12
f 38/1/13 77/1/14 78/1/15
f 394/1/16 395/1/16 393/1/16
f 412/1/17 335/1/18 332/1/19
f 16/1/20 17/1/21 11/1/22
f 267/1/23 259/1/24 263/1/25
f 540/1/26 18/1/27 20/1/28
f 573/1/29 103/1/30 575/1/31
f 388/1/32 464/1/33 392/1/34
f 433/1/35 52/1/36 435/1/37
f 522/1/38 506/1/39 521/1/40
f 519/1/41 505/1/42 504/1/43
f 479/1/44 488/1/45 487/1/46
f 214/1/47 211/1/48 213/1/47
f 282/1/49 273/1/50 277/1/51
f 325/1/52 223/1/53 222/1/54
f 42/1/55 38/1/56 41/1/57
f 515/1/58 108/1/59 102/1/60
f 50/1/61 49/1/62 48/1/63
f 568/1/64 430/1/65 570/1/66
f 5/1/67 7/1/68 1/1/69
f 61/1/70 489/1/71 487/1/72
f 255/1/73 254/1/74 256/1/75
f 573/1/29 111/1/76 105/1/77
f 489/1/78 479/1/44 487/1/46
f 102/1/79 106/1/80 104/1/81
f 44/1/82 53/1/83 55/1/84
f 223/1/85 224/1/86 221/1/87
f 574/1/88 437/1/89 575/1/90
f 316/1/47 317/1/48 318/1/47
f 53/1/91 431/1/92 55/1/7
f 225/1/93 227/1/94 322/1/95
f 474/1/96 215/1/97 465/1/98
f 455/1/99 448/1/100 446/1/101
f 561/1/26 555/1/102 557/1/103
f 78/1/15 41/1/104 38/1/13
f 3/1/105 24/1/106 6/1/107
f 518/1/47 504/1/43 503/1/108
f 387/1/109 392/1/110 391/1/111
f 508/1/112 400/1/113 507/1/114
f 437/1/89 573/1/115 575/1/90
f 585/1/116 595/1/117 584/1/118
f 418/1/119 522/1/120 521/1/121
f 584/1/118 594/1/122 583/1/123
f 93/1/124 525/1/125 527/1/126
f 482/1/127 59/1/128 481/1/1
f 502/1/129 566/1/130 500/1/131
f 570/1/66 433/1/132 572/1/133
f 415/1/134 523/1/135 416/1/136
f 46/1/137 56/1/138 50/1/139
f 532/1/140 86/1/141 85/1/142
f 65/1/143 205/1/144 68/1/145
f 586/1/146 596/1/147 585/1/116
f 91/1/148 87/1/149 89/1/150
f 546/1/151 87/1/152 548/1/26
f 86/1/153 90/1/154 88/1/155
f 557/1/103 551/1/156 553/1/58
f 349/1/157 334/1/158 336/1/159
f 148/1/160 145/1/161 146/1/162
f 513/1/163 110/1/164 108/1/59
f 89/1/150 93/1/165 91/1/148
f 167/1/166 140/1/167 138/1/168
f 149/1/169 123/1/170 121/1/171
f 130/1/172 164/1/173 165/1/174
f 163/1/175 133/1/176 137/1/177
f 165/1/174 132/1/178 130/1/172
f 167/1/166 132/1/178 166/1/179
f 131/1/180 154/1/181 135/1/182
f 371/1/183 581/1/184 370/1/185
f 170/1/186 142/1/187 169/1/188
f 169/1/188 140/1/167 168/1/189
f 384/1/190 594/1/191 595/1/192
f 155/1/193 135/1/182 154/1/181
f 157/1/194 129/1/195 134/1/196
f 170/1/186 146/1/197 144/1/198
f 375/1/199 585/1/200 374/1/201
f 129/1/195 153/1/202 131/1/180
f 139/1/203 157/1/194 134/1/196
f 145/1/204 160/1/205 143/1/206
f 145/1/204 162/1/207 161/1/208
f 580/1/209 370/1/185 581/1/184
f 404/1/210 503/1/211 504/1/212
f 125/1/213 173/1/214 127/1/215
f 30/1/216 14/1/217 15/1/218
f 258/1/219 256/1/75 257/1/220
f 600/1/221 116/1/222 118/1/223
f 55/1/7 432/1/224 57/1/225
f 536/1/58 18/1/27 538/1/37
f 178/1/226 119/1/227 199/1/228
f 152/1/229 357/1/230 358/1/231
f 434/1/232 569/1/233 571/1/234
f 472/1/235 363/1/236 473/1/237
f 609/1/238 136/1/239 608/1/240
f 221/1/241 321/1/242 319/1/243
f 23/1/244 537/1/126 24/1/245
f 598/1/246 454/1/247 599/1/248
f 269/1/249 265/1/250 267/1/23
f 611/1/251 589/1/252 610/1/253
f 590/1/254 578/1/255 579/1/256
f 356/1/257 340/1/258 354/1/259
f 87/1/149 85/1/260 84/1/261
f 288/1/235 193/1/236 287/1/237
f 218/1/262 483/1/263 217/1/264
f 26/1/265 25/1/266 27/1/265
f 351/1/267 333/1/268 345/1/269
f 457/1/270 427/1/271 456/1/272
f 104/1/81 101/1/273 102/1/79
f 96/1/7 542/1/274 541/1/275
f 237/1/47 238/1/276 240/1/276
f 315/1/277 471/1/277 317/1/277
f 142/1/278 139/1/279 140/1/280
f 210/1/281 238/1/282 239/1/283
f 98/1/284 96/1/285 94/1/286
f 347/1/287 348/1/288 346/1/289
f 382/1/290 171/1/291 381/1/292
f 280/1/293 276/1/294 278/1/295
f 575/1/31 100/1/296 574/1/297
f 591/1/298 579/1/256 580/1/299
f 8/1/300 29/1/301 31/1/302
f 115/1/303 119/1/304 117/1/305
f 50/1/139 54/1/306 49/1/307
f 272/1/308 266/1/294 270/1/295
f 263/1/25 261/1/309 260/1/310
f 62/1/311 487/1/72 488/1/312
f 126/1/313 257/1/220 125/1/314
f 300/1/315 186/1/316 188/1/317
f 298/1/318 254/1/319 297/1/320
f 311/1/321 364/1/322 472/1/323
f 248/1/324 304/1/325 249/1/326
f 57/1/327 44/1/82 55/1/84
f 303/1/328 181/1/329 302/1/330
f 312/1/47 313/1/48 314/1/47
f 598/1/246 453/1/331 452/1/332
f 258/1/333 309/1/334 255/1/335
f 220/1/47 69/1/48 219/1/47
f 355/1/336 354/1/337 353/1/338
f 388/1/339 425/1/340 565/1/339
f 196/1/341 191/1/342 195/1/343
f 296/1/344 254/1/319 252/1/345
f 198/1/235 217/1/236 197/1/235
f 175/1/346 126/1/347 128/1/348
f 117/1/349 177/1/349 118/1/350
f 409/1/351 447/1/352 410/1/353
f 66/1/354 489/1/71 64/1/355
f 322/1/356 327/1/357 326/1/358
f 331/1/359 333/1/360 332/1/361
f 331/1/359 334/1/362 333/1/360
f 395/1/363 565/1/364 425/1/365
f 292/1/366 183/1/367 185/1/368
f 159/1/369 139/1/203 141/1/370
f 607/1/371 604/1/371 606/1/371
f 345/1/372 347/1/287 346/1/289
f 216/1/373 73/1/374 215/1/373
f 346/1/289 350/1/375 345/1/372
f 420/1/376 520/1/377 519/1/378
f 322/1/237 228/1/236 319/1/237
f 343/1/379 341/1/380 342/1/381
f 258/1/333 176/1/382 310/1/383
f 563/1/384 560/1/385 562/1/124
f 34/1/386 2/1/387 36/1/388
f 247/1/389 307/1/390 306/1/391
f 390/1/392 388/1/393 387/1/394
f 359/1/157 244/1/395 360/1/263
f 436/1/396 54/1/397 56/1/398
f 40/1/399 39/1/400 38/1/56
f 179/1/401 115/1/402 116/1/403
f 370/1/404 369/1/405 158/1/405
f 10/1/406 24/1/106 22/1/407
f 362/1/157 318/1/263 361/1/157
f 4/1/408 31/1/302 35/1/409
f 113/1/410 109/1/411 111/1/412
f 340/1/413 341/1/380 339/1/414
f 241/1/415 468/1/416 237/1/415
f 174/1/417 257/1/418 299/1/419
f 88/1/58 543/1/420 545/1/421
f 23/1/327 1/1/422 21/1/423
f 138/1/424 129/1/425 132/1/426
f 387/1/427 429/1/428 394/1/427
f 253/1/429 307/1/390 251/1/430
f 508/1/112 401/1/431 399/1/432
f 41/1/433 397/1/434 566/1/435
f 52/1/436 47/1/437 48/1/438
f 517/1/439 102/1/60 101/1/440
f 357/1/441 342/1/442 356/1/257
f 399/1/443 401/1/444 297/1/445
f 413/1/446 444/1/447 445/1/448
f 495/1/449 289/1/450 290/1/451
f 76/1/452 74/1/453 73/1/454
f 182/1/455 291/1/456 290/1/457
f 601/1/458 462/1/459 603/1/460
f 286/1/461 283/1/250 284/1/23
f 459/1/462 422/1/463 423/1/464
f 188/1/465 182/1/466 187/1/467
f 319/1/405 226/1/468 221/1/405
f 350/1/469 425/1/470 389/1/471
f 73/1/472 465/1/473 215/1/474
f 311/1/475 473/1/277 313/1/277
f 66/1/354 206/1/476 490/1/477
f 350/1/375 351/1/478 345/1/372
f 186/1/479 183/1/480 182/1/466
f 295/1/481 246/1/482 294/1/483
f 392/1/484 429/1/485 391/1/484
f 562/1/124 556/1/486 558/1/244
f 228/1/487 225/1/488 226/1/489
f 122/1/48 343/1/490 357/1/441
f 132/1/426 131/1/491 130/1/492
f 330/1/292 440/1/493 439/1/494
f 437/1/26 52/1/36 54/1/397
f 28/1/313 201/1/495 25/1/313
f 234/1/496 233/1/497 230/1/498
f 474/1/499 76/1/500 216/1/501
f 530/1/58 92/1/502 86/1/141
f 335/1/503 334/1/362 331/1/359
f 185/1/504 181/1/505 184/1/506
f 57/1/225 434/1/507 58/1/245
f 348/1/508 458/1/509 426/1/510
f 452/1/511 177/1/512 178/1/451
f 448/1/513 414/1/514 446/1/515
f 278/1/295 274/1/516 275/1/517
f 449/1/518 149/1/519 121/1/520
f 464/1/521 394/1/522 429/1/523
f 450/1/524 451/1/525 321/1/526
f 313/1/527 363/1/511 314/1/528
f 430/1/529 51/1/530 433/1/35
f 470/1/235 361/1/236 471/1/237
f 229/1/531 324/1/532 231/1/533
f 251/1/534 245/1/535 252/1/536
f 327/1/537 440/1/493 328/1/538
f 175/1/539 524/1/540 415/1/134
f 460/1/541 151/1/542 422/1/463
f 325/1/52 324/1/532 439/1/543
f 259/1/511 265/1/544 264/1/545
f 192/1/546 190/1/547 189/1/548
f 594/1/122 582/1/549 583/1/123
f 179/1/291 462/1/550 461/1/551
f 601/1/552 600/1/221 598/1/553
f 428/1/554 458/1/509 455/1/555
f 315/1/321 362/1/322 470/1/323
f 82/1/556 501/1/557 37/1/558
f 427/1/271 455/1/555 456/1/272
f 241/1/323 478/1/559 469/1/484
f 212/1/560 214/1/561 359/1/292
f 448/1/513 335/1/562 412/1/563
f 466/1/564 467/1/565 360/1/566
f 544/1/124 97/1/567 95/1/568
f 460/1/569 447/1/570 449/1/571
f 276/1/572 279/1/573 284/1/574
f 317/1/527 361/1/511 318/1/528
f 446/1/515 413/1/446 445/1/448
f 24/1/245 539/1/575 22/1/576
f 582/1/549 592/1/577 581/1/578
f 77/1/579 396/1/580 79/1/527
f 233/1/581 329/1/582 230/1/581
f 568/1/64 432/1/583 431/1/584
f 35/1/409 2/1/387 4/1/408
f 571/1/124 113/1/585 111/1/76
f 541/1/64 533/1/586 543/1/587
f 72/1/561 219/1/485 69/1/561
f 337/1/588 332/1/361 333/1/360
f 189/1/589 190/1/590 485/1/591
f 459/1/462 424/1/592 457/1/270
f 63/1/593 479/1/3 60/1/2
f 505/1/594 402/1/595 403/1/596
f 541/1/64 535/1/597 534/1/598
f 538/1/599 548/1/600 547/1/601
f 140/1/280 134/1/602 138/1/424
f 492/1/603 26/1/604 491/1/605
f 128/1/606 125/1/607 127/1/608
f 459/1/609 444/1/610 447/1/570
f 22/1/407 12/1/611 10/1/406
f 107/1/151 512/1/612 514/1/613
f 211/1/527 243/1/614 213/1/615
f 124/1/235 449/1/571 121/1/616
f 203/1/143 70/1/617 482/1/127
f 202/1/264 486/1/618 201/1/619
f 320/1/620 442/1/621 323/1/622
f 349/1/495 448/1/100 458/1/623
f 546/1/151 95/1/568 89/1/624
f 589/1/625 163/1/626 137/1/627
f 564/1/628 559/1/629 561/1/26
f 499/1/630 398/1/631 396/1/632
f 420/1/376 518/1/633 421/1/634
f 553/1/58 550/1/635 549/1/636
f 499/1/630 77/1/637 39/1/638
f 548/1/26 84/1/639 547/1/640
f 114/1/284 112/1/641 110/1/642
f 353/1/338 351/1/478 352/1/643
f 231/1/644 324/1/645 326/1/646
f 395/1/647 426/1/648 424/1/649
f 300/1/650 498/1/651 497/1/652
f 109/1/124 510/1/653 512/1/612
f 33/1/654 5/1/655 34/1/386
f 246/1/482 293/1/656 294/1/483
f 264/1/657 260/1/310 261/1/309
f 572/1/133 435/1/658 574/1/88
f 284/1/23 281/1/24 282/1/49
f 248/1/659 245/1/535 247/1/660
f 173/1/661 509/1/662 127/1/663
f 511/1/7 114/1/664 110/1/164
f 210/1/321 244/1/322 238/1/665
f 12/1/611 18/1/666 16/1/20
f 91/1/667 531/1/668 83/1/26
f 90/1/163 541/1/275 543/1/420
f 37/1/47 499/1/669 39/1/670
f 33/1/654 13/1/671 7/1/672
f 112/1/641 108/1/673 110/1/642
f 528/1/674 94/1/675 92/1/502
f 91/1/667 527/1/126 529/1/676
f 411/1/677 447/1/352 444/1/447
f 116/1/678 117/1/678 118/1/678
f 83/1/26 532/1/140 85/1/142
f 144/1/679 141/1/680 142/1/278
f 19/1/681 534/1/682 21/1/7
f 547/1/601 536/1/683 538/1/599
f 253/1/684 252/1/536 254/1/74
f 48/1/438 54/1/306 52/1/436
f 457/1/685 445/1/686 444/1/610
f 195/1/343 197/1/687 196/1/341
f 351/1/267 340/1/258 337/1/688
f 35/1/409 31/1/302 33/1/654
f 194/1/264 189/1/548 193/1/689
f 407/1/690 42/1/691 567/1/692
f 1/1/422 19/1/693 21/1/423
f 273/1/444 281/1/694 278/1/695
f 250/1/235 248/1/659 249/1/696
f 345/1/269 334/1/158 347/1/159
f 124/1/697 123/1/698 122/1/697
f 446/1/101 456/1/699 455/1/99
f 554/1/7 549/1/636 550/1/635
f 236/1/700 233/1/497 234/1/496
f 204/1/373 71/1/701 203/1/702
f 107/1/151 516/1/703 99/1/26
f 302/1/330 186/1/316 301/1/317
f 307/1/93 416/1/704 417/1/705
f 75/1/235 465/1/236 74/1/237
f 329/1/237 236/1/236 326/1/237
f 523/1/706 507/1/707 522/1/38
f 296/1/344 245/1/708 295/1/481
f 14/1/67 8/1/416 10/1/709
f 17/1/21 9/1/710 11/1/22
f 567/1/692 408/1/711 407/1/690
f 602/1/712 598/1/553 599/1/713
f 266/1/572 271/1/573 267/1/574
f 408/1/714 501/1/557 406/1/715
f 499/1/669 502/1/716 500/1/717
f 100/1/718 99/1/719 101/1/273
f 539/1/575 20/1/28 22/1/576
f 242/1/720 240/1/721 211/1/722
f 505/1/594 404/1/210 504/1/212
f 591/1/723 379/1/724 590/1/725
f 106/1/726 568/1/9 570/1/727
f 135/1/728 130/1/492 131/1/491
f 476/1/416 242/1/415 475/1/416
f 505/1/42 521/1/40 506/1/39
f 468/1/729 239/1/528 237/1/729
f 418/1/119 520/1/377 419/1/730
f 378/1/731 587/1/732 377/1/733
f 588/1/734 377/1/733 587/1/732
f 588/1/734 379/1/724 376/1/735
f 298/1/318 257/1/418 256/1/736
f 576/1/737 367/1/738 365/1/739
f 485/1/740 492/1/741 493/1/742
f 591/1/723 381/1/743 380/1/744
f 592/1/745 382/1/746 381/1/743
f 593/1/747 383/1/748 382/1/746
f 365/1/739 578/1/749 576/1/737
f 496/1/750 604/1/751 605/1/752
f 386/1/753 596/1/754 597/1/755
f 100/1/296 572/1/756 574/1/297
f 172/1/757 146/1/197 171/1/758
f 368/1/759 578/1/749 366/1/760
f 289/1/761 182/1/455 290/1/457
f 368/1/759 580/1/209 579/1/762
f 355/1/336 357/1/230 356/1/763
f 372/1/764 582/1/765 371/1/183
f 373/1/766 583/1/767 372/1/764
f 585/1/200 373/1/766 374/1/201
f 141/1/370 160/1/205 159/1/369
f 32/1/768 15/1/218 13/1/671
f 443/1/769 451/1/770 439/1/771
f 105/1/772 99/1/719 103/1/773
f 597/1/755 172/1/774 386/1/753
f 162/1/775 586/1/776 375/1/199
f 533/1/777 17/1/778 536/1/58
f 206/1/373 68/1/701 205/1/702
f 477/1/495 478/1/313 360/1/779
f 177/1/780 453/1/331 600/1/781
f 600/1/781 118/1/782 177/1/780
f 253/1/429 309/1/334 308/1/783
f 603/1/460 462/1/459 179/1/784
f 603/1/460 179/1/784 116/1/785
f 248/1/324 306/1/391 305/1/786
f 127/1/373 524/1/787 128/1/788
f 442/1/621 327/1/537 323/1/622
f 601/1/458 463/1/789 461/1/790
f 343/1/379 150/1/791 344/1/792
f 606/1/793 498/1/794 607/1/795
f 122/1/796 151/1/797 124/1/798
f 86/1/153 84/1/261 85/1/260
f 111/1/412 107/1/799 105/1/772
f 96/1/285 92/1/800 94/1/286
f 571/1/234 436/1/801 434/1/232
f 581/1/578 591/1/298 580/1/299
f 84/1/639 545/1/421 547/1/640
f 137/1/770 135/1/728 136/1/802
f 417/1/803 523/1/135 522/1/120
f 524/1/787 508/1/804 523/1/706
f 65/1/805 64/1/806 59/1/807
f 82/1/808 40/1/809 80/1/810
f 97/1/811 93/1/165 95/1/812
f 148/1/47 586/1/146 147/1/813
f 277/1/51 275/1/517 274/1/516
f 537/1/4 546/1/814 539/1/815
f 288/1/816 485/1/740 493/1/742
f 155/1/817 577/1/818 136/1/819
f 577/1/818 608/1/820 136/1/819
f 596/1/754 384/1/190 595/1/192
f 566/1/435 398/1/821 500/1/822
f 120/1/823 180/1/824 200/1/825
f 42/1/826 80/1/810 40/1/809
f 610/1/827 137/1/627 609/1/828
f 337/1/588 339/1/414 338/1/829
f 232/1/830 329/1/831 330/1/832
f 543/1/587 536/1/683 545/1/833
f 270/1/295 262/1/834 264/1/657
f 146/1/162 143/1/835 144/1/679
f 526/1/7 98/1/836 94/1/675
f 219/1/837 481/1/838 220/1/839
f 567/1/840 41/1/841 566/1/130
f 364/1/157 314/1/263 363/1/157
f 43/1/842 58/1/843 46/1/137
f 104/1/58 570/1/727 572/1/756
f 239/1/415 467/1/416 466/1/415
f 610/1/415 608/1/820 611/1/844
f 484/1/845 494/1/846 492/1/741
f 21/1/7 535/1/847 23/1/244
f 587/1/848 578/1/255 588/1/849
f 210/1/48 209/1/47 208/1/48
f 577/1/850 587/1/848 589/1/851
f 58/1/245 436/1/396 56/1/398
f 558/1/244 552/1/852 554/1/7
f 507/1/114 402/1/595 506/1/853
f 51/1/854 45/1/855 47/1/437
f 539/1/815 548/1/600 540/1/856
f 99/1/26 517/1/439 101/1/440
f 481/1/1 59/1/128 60/1/2
f 537/1/4 535/1/597 542/1/5
f 112/1/7 113/1/585 569/1/8
f 81/1/12 407/1/290 406/1/11
f 407/1/290 408/1/321 406/1/11
f 406/1/11 82/1/10 81/1/12
f 38/1/13 39/1/857 77/1/14
f 393/1/16 390/1/16 387/1/16
f 387/1/16 394/1/16 393/1/16
f 344/1/858 150/1/859 409/1/860
f 150/1/859 149/1/861 409/1/860
f 409/1/860 410/1/862 344/1/858
f 411/1/445 413/1/17 412/1/17
f 413/1/17 414/1/863 412/1/17
f 344/1/858 410/1/862 341/1/864
f 410/1/862 411/1/445 338/1/444
f 339/1/865 341/1/864 410/1/862
f 331/1/526 332/1/19 335/1/18
f 332/1/19 338/1/444 411/1/445
f 338/1/444 339/1/865 410/1/862
f 411/1/445 412/1/17 332/1/19
f 16/1/20 18/1/666 17/1/21
f 267/1/23 265/1/250 259/1/24
f 540/1/26 538/1/37 18/1/27
f 573/1/29 105/1/77 103/1/30
f 388/1/32 565/1/32 464/1/33
f 433/1/35 51/1/530 52/1/36
f 522/1/38 507/1/707 506/1/39
f 519/1/41 520/1/866 505/1/42
f 479/1/44 480/1/867 488/1/45
f 214/1/47 212/1/47 211/1/48
f 282/1/49 281/1/24 273/1/50
f 325/1/52 450/1/868 223/1/53
f 42/1/55 40/1/399 38/1/56
f 515/1/58 513/1/163 108/1/59
f 48/1/63 47/1/416 45/1/869
f 45/1/869 44/1/870 48/1/63
f 44/1/870 43/1/62 48/1/63
f 43/1/62 46/1/871 48/1/63
f 46/1/871 50/1/61 48/1/63
f 568/1/64 431/1/584 430/1/65
f 7/1/68 13/1/872 11/1/873
f 11/1/873 9/1/266 7/1/68
f 9/1/266 1/1/69 7/1/68
f 1/1/69 3/1/415 2/1/869
f 1/1/69 2/1/869 5/1/67
f 61/1/70 64/1/355 489/1/71
f 255/1/73 253/1/684 254/1/74
f 573/1/29 571/1/124 111/1/76
f 489/1/78 481/1/838 479/1/44
f 102/1/79 108/1/673 106/1/80
f 44/1/82 45/1/855 53/1/83
f 226/1/489 225/1/488 221/1/87
f 225/1/488 222/1/48 221/1/87
f 222/1/48 223/1/85 221/1/87
f 574/1/88 435/1/658 437/1/89
f 316/1/47 315/1/47 317/1/48
f 53/1/91 430/1/529 431/1/92
f 322/1/95 325/1/560 222/1/550
f 222/1/550 225/1/93 322/1/95
f 474/1/96 216/1/98 215/1/97
f 455/1/99 458/1/623 448/1/100
f 561/1/26 559/1/629 555/1/102
f 78/1/15 79/1/874 41/1/104
f 3/1/105 23/1/327 24/1/106
f 518/1/47 519/1/41 504/1/43
f 387/1/109 388/1/875 392/1/110
f 508/1/112 399/1/432 400/1/113
f 437/1/89 436/1/801 573/1/115
f 585/1/116 596/1/147 595/1/117
f 418/1/119 417/1/803 522/1/120
f 584/1/118 595/1/117 594/1/122
f 93/1/124 98/1/836 525/1/125
f 482/1/127 70/1/617 59/1/128
f 502/1/129 567/1/840 566/1/130
f 570/1/66 430/1/65 433/1/132
f 415/1/134 524/1/540 523/1/135
f 46/1/137 58/1/843 56/1/138
f 532/1/140 530/1/58 86/1/141
f 65/1/143 220/1/145 205/1/144
f 586/1/146 597/1/876 596/1/147
f 91/1/148 83/1/877 87/1/149
f 546/1/151 89/1/624 87/1/152
f 86/1/153 92/1/800 90/1/154
f 557/1/103 555/1/102 551/1/156
f 349/1/157 347/1/159 334/1/158
f 148/1/160 147/1/878 145/1/161
f 513/1/163 511/1/7 110/1/164
f 89/1/150 95/1/812 93/1/165
f 167/1/166 168/1/189 140/1/167
f 149/1/169 150/1/171 123/1/170
f 130/1/172 133/1/176 164/1/173
f 163/1/175 164/1/173 133/1/176
f 165/1/174 166/1/179 132/1/178
f 167/1/166 138/1/168 132/1/178
f 131/1/180 153/1/202 154/1/181
f 371/1/183 582/1/765 581/1/184
f 170/1/186 144/1/198 142/1/187
f 169/1/188 142/1/187 140/1/167
f 384/1/190 383/1/748 594/1/191
f 155/1/193 136/1/879 135/1/182
f 157/1/194 156/1/880 129/1/195
f 170/1/186 171/1/758 146/1/197
f 375/1/199 586/1/776 585/1/200
f 129/1/195 156/1/880 153/1/202
f 139/1/203 158/1/881 157/1/194
f 145/1/204 161/1/208 160/1/205
f 145/1/204 147/1/882 162/1/207
f 580/1/209 369/1/883 370/1/185
f 404/1/210 405/1/884 503/1/211
f 125/1/213 174/1/215 173/1/214
f 30/1/216 29/1/301 14/1/217
f 258/1/219 255/1/73 256/1/75
f 600/1/221 603/1/885 116/1/222
f 55/1/7 431/1/92 432/1/224
f 536/1/58 17/1/778 18/1/27
f 178/1/226 117/1/228 119/1/227
f 152/1/229 122/1/886 357/1/230
f 434/1/232 432/1/583 569/1/233
f 472/1/235 364/1/237 363/1/236
f 609/1/238 137/1/887 136/1/239
f 221/1/241 224/1/830 321/1/242
f 23/1/244 535/1/847 537/1/126
f 598/1/246 452/1/332 454/1/247
f 269/1/249 268/1/888 265/1/250
f 611/1/251 577/1/253 589/1/252
f 590/1/254 588/1/849 578/1/255
f 356/1/257 342/1/442 340/1/258
f 87/1/149 83/1/877 85/1/260
f 288/1/235 194/1/237 193/1/236
f 218/1/262 491/1/264 483/1/263
f 26/1/265 28/1/265 25/1/266
f 351/1/267 337/1/688 333/1/268
f 457/1/270 424/1/592 427/1/271
f 104/1/81 100/1/718 101/1/273
f 96/1/7 97/1/567 542/1/274
f 242/1/47 241/1/26 240/1/276
f 241/1/26 237/1/47 240/1/276
f 237/1/47 239/1/48 238/1/276
f 238/1/276 244/1/850 243/1/889
f 238/1/276 243/1/889 240/1/276
f 315/1/277 470/1/277 471/1/277
f 142/1/278 141/1/680 139/1/279
f 239/1/283 466/1/281 207/1/720
f 207/1/720 210/1/281 239/1/283
f 98/1/284 97/1/811 96/1/285
f 347/1/287 349/1/890 348/1/288
f 172/1/891 171/1/291 383/1/892
f 171/1/291 170/1/893 381/1/292
f 383/1/892 171/1/291 382/1/290
f 170/1/893 169/1/894 381/1/292
f 169/1/894 168/1/895 381/1/292
f 168/1/895 167/1/896 380/1/897
f 167/1/896 166/1/898 380/1/897
f 165/1/899 164/1/899 376/1/900
f 164/1/899 163/1/901 376/1/900
f 163/1/901 378/1/902 376/1/900
f 378/1/902 377/1/903 376/1/900
f 376/1/900 379/1/904 166/1/898
f 379/1/904 380/1/897 166/1/898
f 166/1/898 165/1/899 376/1/900
f 386/1/905 172/1/891 383/1/892
f 384/1/906 385/1/11 386/1/905
f 383/1/892 384/1/906 386/1/905
f 168/1/895 380/1/897 381/1/292
f 280/1/293 279/1/907 276/1/294
f 575/1/31 103/1/30 100/1/296
f 591/1/298 590/1/254 579/1/256
f 8/1/300 14/1/217 29/1/301
f 115/1/303 120/1/305 119/1/304
f 50/1/139 56/1/138 54/1/306
f 272/1/308 271/1/907 266/1/294
f 263/1/25 259/1/24 261/1/309
f 62/1/311 61/1/70 487/1/72
f 126/1/313 258/1/219 257/1/220
f 300/1/315 301/1/317 186/1/316
f 298/1/318 256/1/736 254/1/319
f 311/1/321 312/1/665 364/1/322
f 248/1/324 305/1/786 304/1/325
f 57/1/327 43/1/842 44/1/82
f 303/1/328 184/1/908 181/1/329
f 312/1/47 311/1/47 313/1/48
f 598/1/246 600/1/781 453/1/331
f 258/1/333 310/1/383 309/1/334
f 220/1/47 65/1/47 69/1/48
f 355/1/336 356/1/763 354/1/337
f 388/1/339 389/1/909 425/1/340
f 196/1/341 190/1/547 191/1/342
f 296/1/344 297/1/320 254/1/319
f 198/1/235 218/1/235 217/1/236
f 175/1/346 176/1/910 126/1/347
f 117/1/349 178/1/349 177/1/349
f 409/1/351 449/1/518 447/1/352
f 66/1/354 490/1/477 489/1/71
f 330/1/86 329/1/911 328/1/912
f 329/1/911 326/1/358 328/1/912
f 326/1/358 324/1/47 325/1/913
f 322/1/356 319/1/914 320/1/915
f 319/1/914 321/1/85 320/1/915
f 322/1/356 320/1/915 323/1/48
f 326/1/358 325/1/913 322/1/356
f 323/1/48 327/1/357 322/1/356
f 327/1/357 328/1/912 326/1/358
f 395/1/363 394/1/363 565/1/364
f 292/1/366 291/1/456 183/1/367
f 159/1/369 158/1/881 139/1/203
f 607/1/371 605/1/371 604/1/371
f 216/1/373 76/1/373 73/1/374
f 420/1/376 419/1/730 520/1/377
f 322/1/237 227/1/237 228/1/236
f 343/1/379 344/1/792 341/1/380
f 258/1/333 126/1/916 176/1/382
f 563/1/384 564/1/628 560/1/385
f 34/1/386 5/1/655 2/1/387
f 247/1/389 251/1/430 307/1/390
f 390/1/392 389/1/394 388/1/393
f 359/1/157 214/1/917 243/1/918
f 214/1/917 213/1/157 243/1/918
f 208/1/263 209/1/919 244/1/395
f 209/1/919 360/1/263 244/1/395
f 359/1/157 243/1/918 244/1/395
f 436/1/396 437/1/26 54/1/397
f 40/1/399 37/1/157 39/1/400
f 179/1/401 180/1/920 115/1/402
f 156/1/921 157/1/524 369/1/405
f 157/1/524 158/1/405 369/1/405
f 158/1/405 159/1/922 370/1/404
f 159/1/922 160/1/859 370/1/404
f 160/1/859 161/1/694 370/1/404
f 161/1/694 162/1/511 372/1/923
f 162/1/511 375/1/591 372/1/923
f 375/1/591 374/1/526 373/1/924
f 372/1/923 375/1/591 373/1/924
f 155/1/925 154/1/926 366/1/925
f 154/1/926 153/1/927 366/1/925
f 365/1/928 367/1/929 366/1/925
f 367/1/929 155/1/925 366/1/925
f 369/1/405 368/1/930 156/1/921
f 368/1/930 366/1/925 156/1/921
f 366/1/925 153/1/927 156/1/921
f 161/1/694 372/1/923 371/1/445
f 161/1/694 371/1/445 370/1/404
f 10/1/406 6/1/107 24/1/106
f 362/1/157 316/1/157 318/1/263
f 4/1/408 8/1/300 31/1/302
f 113/1/410 114/1/284 109/1/411
f 340/1/413 342/1/381 341/1/380
f 241/1/415 469/1/415 468/1/416
f 174/1/417 125/1/419 257/1/418
f 88/1/58 90/1/163 543/1/420
f 23/1/327 3/1/105 1/1/422
f 138/1/424 134/1/602 129/1/425
f 387/1/427 391/1/427 429/1/428
f 253/1/429 308/1/783 307/1/390
f 508/1/112 509/1/662 401/1/431
f 41/1/433 79/1/931 397/1/434
f 52/1/436 51/1/854 47/1/437
f 517/1/439 515/1/58 102/1/60
f 357/1/441 343/1/490 342/1/442
f 405/1/932 404/1/933 293/1/527
f 404/1/933 403/1/695 293/1/527
f 403/1/695 402/1/566 294/1/566
f 402/1/566 400/1/934 294/1/566
f 294/1/566 293/1/527 403/1/695
f 296/1/405 295/1/566 400/1/934
f 295/1/566 294/1/566 400/1/934
f 299/1/935 298/1/524 401/1/444
f 298/1/524 297/1/445 401/1/444
f 296/1/405 400/1/934 399/1/443
f 401/1/444 173/1/936 299/1/935
f 173/1/936 174/1/450 299/1/935
f 296/1/405 399/1/443 297/1/445
f 413/1/446 411/1/677 444/1/447
f 495/1/449 496/1/451 289/1/450
f 290/1/451 291/1/566 495/1/449
f 291/1/566 292/1/937 495/1/449
f 76/1/452 75/1/454 74/1/453
f 182/1/455 183/1/367 291/1/456
f 601/1/458 461/1/790 462/1/459
f 286/1/461 285/1/888 283/1/250
f 459/1/462 460/1/541 422/1/463
f 188/1/465 186/1/479 182/1/466
f 319/1/405 228/1/405 226/1/468
f 151/1/938 152/1/893 422/1/893
f 152/1/893 358/1/893 422/1/893
f 358/1/893 355/1/939 423/1/940
f 355/1/939 353/1/941 423/1/940
f 353/1/941 352/1/942 423/1/940
f 393/1/943 424/1/649 390/1/944
f 424/1/649 423/1/940 390/1/944
f 423/1/940 422/1/893 358/1/893
f 352/1/942 350/1/469 389/1/471
f 350/1/469 346/1/323 348/1/945
f 348/1/945 426/1/648 395/1/647
f 348/1/945 395/1/647 350/1/469
f 395/1/647 425/1/470 350/1/469
f 389/1/471 390/1/944 352/1/942
f 390/1/944 423/1/940 352/1/942
f 73/1/472 74/1/472 465/1/473
f 311/1/475 472/1/277 473/1/277
f 66/1/354 67/1/946 206/1/476
f 350/1/375 352/1/643 351/1/478
f 186/1/479 181/1/505 183/1/480
f 295/1/481 245/1/708 246/1/482
f 392/1/484 464/1/484 429/1/485
f 562/1/124 560/1/385 556/1/486
f 228/1/487 227/1/947 225/1/488
f 122/1/48 123/1/948 343/1/490
f 132/1/426 129/1/425 131/1/491
f 439/1/494 438/1/292 330/1/292
f 438/1/292 229/1/581 232/1/906
f 330/1/292 438/1/292 232/1/906
f 330/1/292 328/1/538 440/1/493
f 437/1/26 435/1/37 52/1/36
f 28/1/313 202/1/313 201/1/495
f 232/1/47 229/1/949 230/1/498
f 229/1/949 231/1/850 230/1/498
f 231/1/850 234/1/496 230/1/498
f 474/1/499 75/1/950 76/1/500
f 530/1/58 528/1/674 92/1/502
f 335/1/503 336/1/951 334/1/362
f 185/1/504 183/1/480 181/1/505
f 57/1/225 432/1/224 434/1/507
f 348/1/508 349/1/510 458/1/509
f 178/1/451 199/1/952 452/1/511
f 199/1/952 454/1/953 452/1/511
f 452/1/511 453/1/450 177/1/512
f 448/1/513 412/1/563 414/1/514
f 278/1/295 276/1/294 274/1/516
f 449/1/518 409/1/351 149/1/519
f 464/1/521 565/1/523 394/1/522
f 451/1/525 443/1/922 321/1/526
f 443/1/922 320/1/405 321/1/526
f 321/1/526 224/1/954 450/1/524
f 224/1/954 223/1/955 450/1/524
f 313/1/527 473/1/615 363/1/511
f 430/1/529 53/1/91 51/1/530
f 470/1/235 362/1/237 361/1/236
f 229/1/531 438/1/956 324/1/532
f 251/1/534 247/1/660 245/1/535
f 327/1/537 441/1/957 440/1/493
f 175/1/539 128/1/958 524/1/540
f 460/1/541 124/1/959 151/1/542
f 324/1/532 438/1/956 439/1/543
f 439/1/543 451/1/960 325/1/52
f 451/1/960 450/1/868 325/1/52
f 272/1/961 270/1/545 268/1/579
f 270/1/545 264/1/545 265/1/544
f 268/1/579 270/1/545 265/1/544
f 264/1/545 261/1/528 259/1/511
f 192/1/546 191/1/342 190/1/547
f 594/1/122 593/1/962 582/1/549
f 463/1/963 200/1/964 461/1/551
f 200/1/964 180/1/12 461/1/551
f 180/1/12 179/1/291 461/1/551
f 601/1/552 603/1/885 600/1/221
f 428/1/554 426/1/510 458/1/509
f 315/1/321 316/1/665 362/1/322
f 82/1/556 406/1/715 501/1/557
f 427/1/271 428/1/554 455/1/555
f 241/1/323 242/1/484 478/1/559
f 476/1/965 475/1/966 359/1/292
f 475/1/966 212/1/560 359/1/292
f 448/1/513 336/1/967 335/1/562
f 209/1/729 207/1/968 360/1/566
f 207/1/968 466/1/564 360/1/566
f 544/1/124 542/1/274 97/1/567
f 460/1/569 459/1/609 447/1/570
f 279/1/573 286/1/969 284/1/574
f 284/1/574 282/1/970 277/1/11
f 277/1/11 274/1/971 284/1/574
f 274/1/971 276/1/572 284/1/574
f 317/1/527 471/1/615 361/1/511
f 446/1/515 414/1/514 413/1/446
f 24/1/245 537/1/126 539/1/575
f 582/1/549 593/1/962 592/1/577
f 398/1/972 397/1/580 396/1/580
f 397/1/580 79/1/527 396/1/580
f 79/1/527 78/1/729 77/1/579
f 233/1/581 235/1/581 329/1/582
f 568/1/64 569/1/233 432/1/583
f 35/1/409 36/1/388 2/1/387
f 571/1/124 569/1/8 113/1/585
f 541/1/64 534/1/598 533/1/586
f 72/1/561 204/1/561 219/1/485
f 337/1/588 338/1/829 332/1/361
f 27/1/565 25/1/973 486/1/974
f 25/1/973 201/1/590 486/1/974
f 197/1/932 217/1/646 196/1/450
f 217/1/646 483/1/526 196/1/450
f 27/1/565 486/1/974 484/1/975
f 485/1/591 287/1/615 193/1/512
f 27/1/565 484/1/975 483/1/526
f 484/1/975 485/1/591 190/1/590
f 483/1/526 484/1/975 190/1/590
f 190/1/590 196/1/450 483/1/526
f 485/1/591 193/1/512 189/1/589
f 459/1/462 423/1/464 424/1/592
f 63/1/593 480/1/976 479/1/3
f 505/1/594 506/1/853 402/1/595
f 541/1/64 542/1/5 535/1/597
f 538/1/599 540/1/856 548/1/600
f 140/1/280 139/1/279 134/1/602
f 192/1/550 194/1/965 288/1/977
f 192/1/550 288/1/977 493/1/290
f 191/1/978 192/1/550 493/1/290
f 191/1/978 493/1/290 492/1/603
f 218/1/979 198/1/12 195/1/582
f 491/1/605 218/1/979 195/1/582
f 202/1/323 28/1/969 494/1/980
f 28/1/969 26/1/604 494/1/980
f 491/1/605 195/1/582 191/1/978
f 492/1/603 494/1/980 26/1/604
f 491/1/605 191/1/978 492/1/603
f 128/1/606 126/1/981 125/1/607
f 459/1/609 457/1/685 444/1/610
f 22/1/407 20/1/982 12/1/611
f 107/1/151 109/1/124 512/1/612
f 211/1/527 240/1/528 243/1/614
f 124/1/235 460/1/569 449/1/571
f 203/1/143 71/1/983 70/1/617
f 202/1/264 494/1/846 486/1/618
f 320/1/620 443/1/984 442/1/621
f 349/1/495 336/1/623 448/1/100
f 546/1/151 544/1/124 95/1/568
f 589/1/625 378/1/985 163/1/626
f 564/1/628 563/1/384 559/1/629
f 499/1/630 500/1/986 398/1/631
f 420/1/376 519/1/378 518/1/633
f 553/1/58 551/1/156 550/1/635
f 499/1/630 396/1/632 77/1/637
f 548/1/26 87/1/152 84/1/639
f 114/1/284 113/1/410 112/1/641
f 353/1/338 354/1/337 351/1/478
f 326/1/646 236/1/405 234/1/544
f 234/1/544 231/1/644 326/1/646
f 428/1/321 427/1/705 426/1/648
f 427/1/705 424/1/649 426/1/648
f 424/1/649 393/1/943 395/1/647
f 303/1/987 302/1/650 497/1/652
f 302/1/650 301/1/650 497/1/652
f 301/1/650 300/1/650 497/1/652
f 109/1/124 114/1/664 510/1/653
f 33/1/654 7/1/672 5/1/655
f 246/1/482 250/1/988 293/1/656
f 264/1/657 262/1/834 260/1/310
f 572/1/133 433/1/132 435/1/658
f 284/1/23 283/1/250 281/1/24
f 248/1/659 246/1/989 245/1/535
f 173/1/661 401/1/431 509/1/662
f 511/1/7 510/1/653 114/1/664
f 210/1/321 208/1/323 244/1/322
f 12/1/611 20/1/982 18/1/666
f 91/1/667 529/1/676 531/1/668
f 90/1/163 96/1/7 541/1/275
f 37/1/47 501/1/990 499/1/669
f 33/1/654 32/1/768 13/1/671
f 112/1/641 106/1/80 108/1/673
f 528/1/674 526/1/7 94/1/675
f 91/1/667 93/1/124 527/1/126
f 411/1/677 410/1/353 447/1/352
f 116/1/678 115/1/678 117/1/678
f 83/1/26 531/1/668 532/1/140
f 144/1/679 143/1/835 141/1/680
f 19/1/681 533/1/777 534/1/682
f 547/1/601 545/1/833 536/1/683
f 253/1/684 251/1/534 252/1/536
f 48/1/438 49/1/307 54/1/306
f 457/1/685 456/1/699 445/1/686
f 195/1/343 198/1/415 197/1/687
f 351/1/267 354/1/259 340/1/258
f 31/1/302 29/1/301 30/1/216
f 30/1/216 32/1/768 31/1/302
f 32/1/768 33/1/654 31/1/302
f 33/1/654 34/1/386 36/1/388
f 36/1/388 35/1/409 33/1/654
f 194/1/264 192/1/546 189/1/548
f 407/1/690 81/1/991 42/1/691
f 1/1/422 9/1/710 19/1/693
f 281/1/694 283/1/972 278/1/695
f 283/1/972 285/1/579 278/1/695
f 285/1/579 280/1/992 278/1/695
f 278/1/695 275/1/645 273/1/444
f 250/1/235 246/1/989 248/1/659
f 345/1/269 333/1/268 334/1/158
f 124/1/697 121/1/697 123/1/698
f 446/1/101 445/1/686 456/1/699
f 554/1/7 552/1/852 549/1/636
f 236/1/700 235/1/993 233/1/497
f 204/1/373 72/1/702 71/1/701
f 107/1/151 514/1/613 516/1/703
f 302/1/330 181/1/329 186/1/316
f 419/1/994 420/1/995 304/1/996
f 420/1/995 421/1/484 304/1/996
f 304/1/996 305/1/11 419/1/994
f 305/1/11 306/1/650 417/1/705
f 306/1/650 307/1/93 417/1/705
f 308/1/904 309/1/896 415/1/979
f 309/1/896 310/1/896 415/1/979
f 417/1/705 418/1/650 305/1/11
f 418/1/650 419/1/994 305/1/11
f 310/1/896 176/1/997 175/1/998
f 310/1/896 175/1/998 415/1/979
f 415/1/979 416/1/704 308/1/904
f 307/1/93 308/1/904 416/1/704
f 75/1/235 474/1/237 465/1/236
f 329/1/237 235/1/237 236/1/236
f 523/1/706 508/1/804 507/1/707
f 296/1/344 252/1/345 245/1/708
f 4/1/999 2/1/869 3/1/415
f 3/1/415 6/1/1000 4/1/999
f 6/1/1000 10/1/709 4/1/999
f 10/1/709 12/1/63 14/1/67
f 12/1/63 16/1/869 14/1/67
f 16/1/869 11/1/873 15/1/1001
f 11/1/873 13/1/872 15/1/1001
f 8/1/416 4/1/999 10/1/709
f 16/1/869 15/1/1001 14/1/67
f 17/1/21 19/1/693 9/1/710
f 567/1/692 502/1/1002 408/1/711
f 602/1/712 601/1/552 598/1/553
f 271/1/573 269/1/969 267/1/574
f 267/1/574 263/1/970 260/1/11
f 260/1/11 262/1/971 267/1/574
f 262/1/971 266/1/572 267/1/574
f 408/1/714 502/1/1003 501/1/557
f 499/1/669 501/1/990 502/1/716
f 100/1/718 103/1/773 99/1/719
f 539/1/575 540/1/26 20/1/28
f 211/1/722 212/1/1004 242/1/720
f 212/1/1004 475/1/281 242/1/720
f 505/1/594 403/1/596 404/1/210
f 591/1/723 380/1/744 379/1/724
f 106/1/726 112/1/7 568/1/9
f 135/1/728 133/1/1005 130/1/492
f 476/1/416 478/1/416 242/1/415
f 505/1/42 520/1/866 521/1/40
f 468/1/729 477/1/729 239/1/528
f 418/1/119 521/1/121 520/1/377
f 378/1/731 589/1/1006 587/1/732
f 588/1/734 376/1/735 377/1/733
f 588/1/734 590/1/725 379/1/724
f 298/1/318 299/1/419 257/1/418
f 576/1/737 577/1/1007 367/1/738
f 485/1/740 484/1/845 492/1/741
f 591/1/723 592/1/745 381/1/743
f 592/1/745 593/1/747 382/1/746
f 593/1/747 594/1/191 383/1/748
f 365/1/739 366/1/760 578/1/749
f 496/1/750 495/1/1008 604/1/751
f 386/1/753 385/1/1009 596/1/754
f 100/1/296 104/1/58 572/1/756
f 172/1/757 148/1/1010 146/1/197
f 368/1/759 579/1/762 578/1/749
f 289/1/761 187/1/1011 182/1/455
f 368/1/759 369/1/883 580/1/209
f 355/1/336 358/1/231 357/1/230
f 372/1/764 583/1/767 582/1/765
f 373/1/766 584/1/1012 583/1/767
f 585/1/200 584/1/1012 373/1/766
f 141/1/370 143/1/206 160/1/205
f 32/1/768 30/1/216 15/1/218
f 439/1/771 440/1/1013 443/1/769
f 440/1/1013 441/1/1014 443/1/769
f 441/1/1014 442/1/1015 443/1/769
f 105/1/772 107/1/799 99/1/719
f 597/1/755 148/1/1016 172/1/774
f 162/1/775 147/1/1017 586/1/776
f 533/1/777 19/1/681 17/1/778
f 206/1/373 67/1/702 68/1/701
f 477/1/495 468/1/313 469/1/1018
f 478/1/313 476/1/495 359/1/770
f 477/1/495 469/1/1018 478/1/313
f 360/1/779 467/1/495 477/1/495
f 478/1/313 359/1/770 360/1/779
f 253/1/429 255/1/335 309/1/334
f 248/1/324 247/1/389 306/1/391
f 127/1/373 509/1/1019 524/1/787
f 442/1/621 441/1/957 327/1/537
f 601/1/458 602/1/1020 463/1/789
f 343/1/379 123/1/1021 150/1/791
f 606/1/793 497/1/1022 498/1/794
f 122/1/796 152/1/1023 151/1/797
f 86/1/153 88/1/155 84/1/261
f 111/1/412 109/1/411 107/1/799
f 96/1/285 90/1/154 92/1/800
f 571/1/234 573/1/115 436/1/801
f 581/1/578 592/1/577 591/1/298
f 84/1/639 88/1/58 545/1/421
f 137/1/770 133/1/1005 135/1/728
f 417/1/803 416/1/136 523/1/135
f 524/1/787 509/1/1019 508/1/804
f 61/1/1024 62/1/1025 63/1/1001
f 61/1/1024 63/1/1001 60/1/1026
f 67/1/1027 66/1/1028 65/1/805
f 66/1/1028 64/1/806 65/1/805
f 64/1/806 61/1/1024 59/1/807
f 61/1/1024 60/1/1026 59/1/807
f 59/1/807 70/1/1029 69/1/1030
f 70/1/1029 71/1/1000 69/1/1030
f 68/1/416 67/1/1027 65/1/805
f 71/1/1000 72/1/415 69/1/1030
f 69/1/1030 65/1/805 59/1/807
f 82/1/808 37/1/1031 40/1/809
f 97/1/811 98/1/284 93/1/165
f 148/1/47 597/1/876 586/1/146
f 277/1/51 273/1/50 275/1/517
f 537/1/4 544/1/6 546/1/814
f 288/1/816 287/1/1032 485/1/740
f 155/1/817 367/1/1033 577/1/818
f 577/1/818 611/1/844 608/1/820
f 596/1/754 385/1/1009 384/1/190
f 566/1/435 397/1/434 398/1/821
f 120/1/823 115/1/1034 180/1/824
f 42/1/826 81/1/1035 80/1/810
f 610/1/827 589/1/625 137/1/627
f 337/1/588 340/1/413 339/1/414
f 232/1/830 230/1/832 329/1/831
f 543/1/587 533/1/586 536/1/683
f 270/1/295 266/1/294 262/1/834
f 146/1/162 145/1/161 143/1/835
f 526/1/7 525/1/125 98/1/836
f 219/1/837 204/1/157 203/1/919
f 203/1/919 482/1/1036 219/1/837
f 482/1/1036 481/1/838 219/1/837
f 481/1/838 489/1/78 220/1/839
f 489/1/78 490/1/1037 220/1/839
f 490/1/1037 206/1/157 205/1/1038
f 490/1/1037 205/1/1038 220/1/839
f 567/1/840 42/1/313 41/1/841
f 364/1/157 312/1/157 314/1/263
f 43/1/842 57/1/327 58/1/843
f 104/1/58 106/1/726 570/1/727
f 239/1/415 477/1/415 467/1/416
f 610/1/415 609/1/1039 608/1/820
f 484/1/845 486/1/618 494/1/846
f 21/1/7 534/1/682 535/1/847
f 587/1/848 576/1/1040 578/1/255
f 210/1/48 207/1/48 209/1/47
f 577/1/850 576/1/1040 587/1/848
f 58/1/245 434/1/507 436/1/396
f 558/1/244 556/1/486 552/1/852
f 507/1/114 400/1/113 402/1/595
f 51/1/854 53/1/83 45/1/855
f 539/1/815 546/1/814 548/1/600
f 99/1/26 516/1/703 517/1/439
