# Blender 5.2.0 LTS
# www.blender.org
o 112741123615460.001
v 0.081111 0.025843 0.047619 0.3290 0.3355 0.3203
v 0.071424 0.016157 0.047619 0.3290 0.3355 0.3203
v 0.078274 0.018994 0.047619 0.3290 0.3355 0.3203
v 0.061739 0.025843 0.047619 0.3290 0.3355 0.3203
v 0.064575 0.018994 0.047619 0.3290 0.3355 0.3203
v 0.071424 0.035529 0.047619 0.3290 0.3355 0.3203
v 0.078274 0.032692 0.047619 0.3290 0.3355 0.3203
v 0.064575 0.032692 0.047619 0.3290 0.3355 0.3203
v 0.059759 0.014177 0.027175 0.3290 0.3355 0.3203
v 0.054927 0.025843 0.027175 0.3290 0.3355 0.3203
v 0.071424 0.009346 0.027175 0.3290 0.3355 0.3203
v 0.059759 0.037508 0.027175 0.3290 0.3355 0.3203
v 0.083090 0.014177 0.027175 0.3290 0.3355 0.3203
v 0.071424 0.042340 0.027175 0.3290 0.3355 0.3203
v 0.087922 0.025843 0.027175 0.3290 0.3355 0.3203
v 0.083090 0.037508 0.027175 0.3290 0.3355 0.3203
v 0.087753 0.042172 -0.018408 0.3290 0.3355 0.3203
v 0.071424 0.058627 -0.018408 0.3290 0.3355 0.3203
v 0.094607 0.049025 -0.018408 0.3290 0.3355 0.3203
v 0.071424 0.048935 -0.018408 0.3290 0.3355 0.3203
v 0.094517 0.025843 -0.018408 0.3290 0.3355 0.3203
v 0.055095 0.042172 -0.018408 0.3290 0.3355 0.3203
v 0.104209 0.025843 -0.018408 0.3290 0.3355 0.3203
v 0.048242 0.049025 -0.018408 0.3290 0.3355 0.3203
v 0.094607 0.002661 -0.018408 0.3290 0.3355 0.3203
v 0.048331 0.025843 -0.018408 0.3290 0.3355 0.3203
v 0.087753 0.009514 -0.018408 0.3290 0.3355 0.3203
v 0.038639 0.025843 -0.018408 0.3290 0.3355 0.3203
v 0.071424 -0.006942 -0.018408 0.3290 0.3355 0.3203
v 0.048242 0.002661 -0.018408 0.3290 0.3355 0.3203
v 0.071424 0.002751 -0.018408 0.3290 0.3355 0.3203
v 0.055095 0.009514 -0.018408 0.3290 0.3355 0.3203
v 0.094374 0.025843 0.027175 0.3290 0.3355 0.3203
v 0.087652 0.042071 0.027175 0.3290 0.3355 0.3203
v 0.071424 0.048792 0.027175 0.3290 0.3355 0.3203
v 0.087652 0.009615 0.027175 0.3290 0.3355 0.3203
v 0.055197 0.042071 0.027175 0.3290 0.3355 0.3203
v 0.071424 0.002894 0.027175 0.3290 0.3355 0.3203
v 0.048475 0.025843 0.027175 0.3290 0.3355 0.3203
v 0.055197 0.009615 0.027175 0.3290 0.3355 0.3203
v 0.071424 0.058627 0.018723 0.3290 0.3355 0.3203
v 0.094607 0.049025 0.018723 0.3290 0.3355 0.3203
v 0.048242 0.049025 0.018723 0.3290 0.3355 0.3203
v 0.104209 0.025843 0.018723 0.3290 0.3355 0.3203
v 0.038639 0.025843 0.018723 0.3290 0.3355 0.3203
v 0.094607 0.002661 0.018723 0.3290 0.3355 0.3203
v 0.048242 0.002661 0.018723 0.3290 0.3355 0.3203
v 0.071424 -0.006942 0.018723 0.3290 0.3355 0.3203
v 0.071424 0.002751 -0.047619 0.3290 0.3355 0.3203
v 0.055095 0.009514 -0.047619 0.3290 0.3355 0.3203
v 0.048331 0.025843 -0.047619 0.3290 0.3355 0.3203
v 0.087753 0.009514 -0.047619 0.3290 0.3355 0.3203
v 0.055095 0.042172 -0.047619 0.3290 0.3355 0.3203
v 0.094517 0.025843 -0.047619 0.3290 0.3355 0.3203
v 0.071424 0.048935 -0.047619 0.3290 0.3355 0.3203
v 0.087753 0.042172 -0.047619 0.3290 0.3355 0.3203
vn -0.0005 -0.0005 -1.0000
vn 0.6708 0.6709 -0.3161
vn 0.9487 -0.0000 -0.3161
vn 0.6709 0.6708 -0.3161
vn -0.0000 0.9487 -0.3161
vn 0.6709 -0.6708 -0.3161
vn -0.6708 0.6709 -0.3161
vn 0.6709 -0.6709 -0.3161
vn -0.0000 -0.9487 -0.3161
vn -0.9487 -0.0000 -0.3161
vn -0.6708 -0.6709 -0.3161
vn -0.0005 -0.0005 1.0000
vn -0.4609 -0.4609 -0.7584
vn -0.0000 -0.6518 -0.7584
vn -0.0008 -0.6519 -0.7583
vn 0.4609 -0.4609 -0.7584
vn -0.6518 -0.0000 -0.7584
vn 0.6517 -0.0000 -0.7584
vn 0.6519 -0.0004 -0.7583
vn -0.4609 0.4609 -0.7584
vn 0.4609 0.4609 -0.7584
vn -0.4608 0.4609 -0.7584
vn -0.0000 0.6517 -0.7584
vn 0.7071 0.7071 -0.0000
vn -0.0005 1.0000 -0.0005
vn 1.0000 -0.0005 -0.0005
vn -0.7071 0.7071 -0.0000
vn 0.7071 -0.7071 -0.0000
vn -1.0000 -0.0005 -0.0005
vn -0.0005 -1.0000 -0.0005
vn -0.7071 -0.7071 -0.0000
vt 0.000000 0.000000
s 1
f 1/1/1 3/1/1 2/1/1
f 1/1/1 2/1/1 4/1/1
f 2/1/1 5/1/1 4/1/1
f 4/1/1 6/1/1 1/1/1
f 6/1/1 7/1/1 1/1/1
f 4/1/1 8/1/1 6/1/1
f 9/1/2 10/1/3 5/1/4
f 11/1/5 9/1/2 5/1/4
f 10/1/3 4/1/3 5/1/4
f 5/1/4 2/1/5 11/1/5
f 8/1/6 4/1/3 10/1/3
f 11/1/5 2/1/5 3/1/7
f 10/1/3 12/1/8 8/1/6
f 3/1/7 13/1/7 11/1/5
f 8/1/6 12/1/8 14/1/9
f 15/1/10 13/1/7 3/1/7
f 14/1/9 6/1/9 8/1/6
f 3/1/7 1/1/10 15/1/10
f 7/1/11 6/1/9 14/1/9
f 15/1/10 1/1/10 7/1/11
f 14/1/9 16/1/11 7/1/11
f 16/1/11 15/1/10 7/1/11
f 17/1/12 19/1/12 18/1/12
f 18/1/12 20/1/12 17/1/12
f 19/1/12 17/1/12 21/1/12
f 22/1/12 20/1/12 18/1/12
f 19/1/12 21/1/12 23/1/12
f 18/1/12 24/1/12 22/1/12
f 25/1/12 23/1/12 21/1/12
f 26/1/12 22/1/12 24/1/12
f 21/1/12 27/1/12 25/1/12
f 24/1/12 28/1/12 26/1/12
f 29/1/12 25/1/12 27/1/12
f 26/1/12 28/1/12 30/1/12
f 27/1/12 31/1/12 29/1/12
f 30/1/12 32/1/12 26/1/12
f 32/1/12 29/1/12 31/1/12
f 29/1/12 32/1/12 30/1/12
f 33/1/1 16/1/1 34/1/1
f 35/1/1 34/1/1 16/1/1
f 33/1/1 15/1/1 16/1/1
f 16/1/1 14/1/1 35/1/1
f 36/1/1 15/1/1 33/1/1
f 37/1/1 35/1/1 14/1/1
f 36/1/1 13/1/1 15/1/1
f 14/1/1 12/1/1 37/1/1
f 13/1/1 36/1/1 38/1/1
f 39/1/1 37/1/1 12/1/1
f 38/1/1 11/1/1 13/1/1
f 12/1/1 10/1/1 39/1/1
f 9/1/1 11/1/1 38/1/1
f 40/1/1 39/1/1 10/1/1
f 38/1/1 40/1/1 9/1/1
f 10/1/1 9/1/1 40/1/1
f 34/1/13 35/1/14 41/1/15
f 37/1/16 41/1/15 35/1/14
f 41/1/15 42/1/13 34/1/13
f 41/1/15 37/1/16 43/1/16
f 44/1/17 34/1/13 42/1/13
f 43/1/16 37/1/16 39/1/18
f 44/1/17 33/1/17 34/1/13
f 39/1/18 45/1/19 43/1/16
f 46/1/20 33/1/17 44/1/17
f 47/1/21 45/1/19 39/1/18
f 46/1/20 36/1/22 33/1/17
f 39/1/18 40/1/21 47/1/21
f 38/1/23 36/1/22 46/1/20
f 48/1/23 47/1/21 40/1/21
f 46/1/20 48/1/23 38/1/23
f 40/1/21 38/1/23 48/1/23
f 30/1/24 47/1/24 29/1/25
f 29/1/25 47/1/24 48/1/25
f 30/1/24 45/1/26 47/1/24
f 29/1/25 48/1/25 25/1/27
f 28/1/26 45/1/26 30/1/24
f 25/1/27 48/1/25 46/1/27
f 28/1/26 43/1/28 45/1/26
f 25/1/27 46/1/27 23/1/29
f 24/1/28 43/1/28 28/1/26
f 23/1/29 46/1/27 44/1/29
f 24/1/28 41/1/30 43/1/28
f 23/1/29 44/1/29 19/1/31
f 18/1/30 41/1/30 24/1/28
f 19/1/31 44/1/29 42/1/31
f 18/1/30 42/1/31 41/1/30
f 19/1/31 42/1/31 18/1/30
f 49/1/25 50/1/24 31/1/25
f 50/1/24 32/1/24 31/1/25
f 49/1/25 31/1/25 27/1/27
f 50/1/24 51/1/26 32/1/24
f 52/1/27 49/1/25 27/1/27
f 51/1/26 26/1/26 32/1/24
f 52/1/27 27/1/27 21/1/29
f 51/1/26 53/1/28 26/1/26
f 54/1/29 52/1/27 21/1/29
f 53/1/28 22/1/28 26/1/26
f 54/1/29 21/1/29 17/1/31
f 53/1/28 55/1/30 22/1/28
f 56/1/31 54/1/29 17/1/31
f 55/1/30 20/1/30 22/1/28
f 56/1/31 17/1/31 20/1/30
f 55/1/30 56/1/31 20/1/30
