# Made in Blockbench 5.1.6
mtllib soul black.mtl

o unknown.001
v 0.000669 -0.39603 0.079276
v -0.412079 -0.39603 0.079276
v -0.412079 -0.436254 -0.000246
v 0.016882 -0.436254 -0.000246
v -0.080727 0.120706 0.087439
v -0.150727 0.050707 0.087439
v -0.135317 0.01349 -0.000246
v -0.065312 0.083493 -0.000246
v -0.230727 0.050707 -0.087931
v -0.217407 0.012693 -0.000246
v -0.247821 -0.012525 -0.000246
v -0.280727 0.010707 -0.087931
v -0.065085 -0.257785 -0.000246
v -0.412079 -0.257785 -0.000246
v -0.412079 -0.292897 0.079276
v -0.038477 -0.292897 0.079276
v -0.568175 0.299415 0
v -0.543804 0.320548 0.113633
v -0.543804 0.400548 0.08
v -0.568175 0.411983 0
v -0.470727 0.060707 -0.087931
v -0.400727 0.120706 -0.087931
v -0.523804 0.420547 -0.08
v -0.543804 0.400548 -0.08
v -0.535241 0.448157 0
v -0.213387 0.448157 0
v -0.224823 0.420547 -0.08
v -0.183387 0.414919 0
v -0.194823 0.390548 -0.08
v -0.117937 0.390548 -0.08
v -0.117937 0.414919 0
v -0.360727 -0.409292 0.087439
v -0.490727 -0.409292 0.087439
v -0.50131 -0.448158 -0.000246
v -0.345319 -0.44651 -0.000246
v -0.330858 -0.243548 -0.000246
v -0.370727 -0.249293 -0.087931
v -0.320727 -0.319293 -0.087931
v -0.282366 -0.307008 -0.000246
v -0.283509 -0.384698 -0.000246
v -0.320727 -0.369292 -0.087931
v -0.560727 -0.309292 0.087439
v -0.590726 -0.159294 0.087439
v -0.630547 -0.153225 -0.000246
v -0.593549 -0.332642 -0.000246
v -0.490727 -0.409292 -0.087931
v -0.360727 -0.409292 -0.087931
v -0.560727 -0.309292 -0.087931
v -0.590726 -0.159294 -0.087931
v -0.224823 0.420547 0.08
v -0.194823 0.390548 0.08
v -0.43732 0.137541 -0.000246
v -0.439127 0.178542 -0.000246
v -0.400727 0.190707 -0.087931
v -0.470727 0.30632 -0.087931
v -0.526493 0.30632 -0.000246
v -0.230727 0.050707 0.087439
v -0.280727 0.010707 0.087439
v 0.222188 0.084229 -0.000246
v 0.239273 0.120706 0.087439
v -0.150727 0.050707 -0.087931
v -0.320727 -0.369292 0.087439
v -0.523804 0.420547 0.08
v -0.489331 0.272103 -0.099309
v -0.502979 0.246766 -0.000178
v -0.568215 0.32809 -0.000178
v -0.529331 0.32809 -0.099309
v 0.301657 0.077103 0.079276
v 0.285048 0.119944 -0.000246
v -0.502037 0.086048 -0.000246
v -0.470727 0.060707 0.087439
v -0.400727 0.120706 0.087439
v 0.289273 0.060707 0.087439
v 0.272192 0.024227 -0.000246
v -0.08407 0.30632 -0.087931
v -0.08407 0.180707 -0.087931
v -0.117937 0.320548 0.113633
v -0.117937 0.390548 0.08
v -0.117937 0.320548 -0.113633
v -0.543804 0.320548 -0.113633
v -0.400727 0.190707 0.087439
v 0.239273 0.120706 -0.087931
v 0.289273 0.060707 -0.087931
v 0.444668 0.067839 -0.000246
v 0.404691 0.023495 -0.000246
v 0.389273 0.060707 -0.087931
v 0.429273 0.100707 -0.087931
v -0.080727 0.120706 -0.087931
v 0.602065 0.100707 -0.087931
v 0.630516 0.067839 -0.000246
v 0.630547 0.20919 -0.000246
v 0.602065 0.180707 -0.087931
v 0.43938 0.002277 -0.000246
v 0.43938 0.119944 -0.000246
v 0.396163 0.077103 0.079276
v 0.396163 0.017103 0.079276
v -0.320727 -0.319293 0.087439
v -0.055587 0.20919 -0.000246
v -0.08407 0.180707 0.087439
v 0.602065 0.180707 0.087439
v -0.055561 0.30632 -0.000246
v -0.08407 0.30632 0.087439
v -0.470727 0.30632 0.087439
v -0.370727 -0.249293 0.087439
v 0.389273 0.060707 0.087439
v -0.489331 0.272103 0.098952
v -0.529331 0.32809 0.098952
v -0.117937 0.32809 0.098952
v -0.117937 0.272103 0.098952
v 0.429273 0.100707 0.087439
v 0.602065 0.100707 0.087439
v -0.117937 0.32809 -0.099309
v -0.117937 0.272103 -0.099309
v 0.301657 0.077103 -0.079767
v 0.396163 0.077103 -0.079767
v 0.396163 0.017103 -0.079767
v -0.038477 -0.292897 -0.079767
v 0.000669 -0.39603 -0.079767
v -0.412079 -0.39603 -0.079767
v -0.412079 -0.292897 -0.079767
v -0.117937 0.299415 0
v -0.117937 0.246766 -0.000178
vt 0 0
vt 0 0
vt 0 0
vt 0 0
vt 0 0
vt 0 0
vt 0 0
vt 0 0
vt 0 0
vt 0 0
vt 0 0
vt 0 0
vt 0 0
vt 0 0
vt 0 0
vt 0 0
vt 0 0
vt 0 0
vt 0 0
vt 0 0
vt 0 0
vt 0 0
vt 0 0
vt 0 0
vt 0 0
vt 0 0
vt 0 0
vt 0 0
vt 0 0
vt 0 0
vt 0 0
vt 0 0
vt 0 0
vt 0 0
vt 0 0
vt 0 0
vt 0 0
vt 0 0
vt 0 0
vt 0 0
vt 0 0
vt 0 0
vt 0 0
vt 0 0
vt 0 0
vt 0 0
vt 0 0
vt 0 0
vt 0 0
vt 0 0
vt 0 0
vt 0 0
vt 0 0
vt 0 0
vt 0 0
vt 0 0
vt 0 0
vt 0 0
vt 0 0
vt 0 0
vt 0 0
vt 0 0
vt 0 0
vt 0 0
vt 0 0
vt 0 0
vt 0 0
vt 0 0
vt 0 0
vt 0 0
vt 0 0
vt 0 0
vt 0 0
vt 0 0
vt 0 0
vt 0 0
vt 0 0
vt 0 0
vt 0 0
vt 0 0
vt 0 0
vt 0 0
vt 0 0
vt 0 0
vt 0 0
vt 0 0
vt 0 0
vt 0 0
vt 0 0
vt 0 0
vt 0 0
vt 0 0
vt 0 0
vt 0 0
vt 0 0
vt 0 0
vt 0 0
vt 0 0
vt 0 0
vt 0 0
vt 0 0
vt 0 0
vt 0 0
vt 0 0
vt 0 0
vt 0 0
vt 0 0
vt 0 0
vt 0 0
vt 0 0
vt 0 0
vt 0 0
vt 0 0
vt 0 0
vt 0 0
vt 0 0
vt 0 0
vt 0 0
vt 0 0
vt 0 0
vt 0 0
vt 0 0
vt 0 0
vt 0 0
vt 0 0
vt 0 0
vt 0 0
vt 0 0
vt 0 0
vt 0 0
vt 0 0
vt 0 0
vt 0 0
vt 0 0
vt 0 0
vt 0 0
vt 0 0
vt 0 0
vt 0 0
vt 0 0
vt 0 0
vt 0 0
vt 0 0
vt 0 0
vt 0 0
vt 0 0
vt 0 0
vt 0 0
vt 0 0
vt 0 0
vt 0 0
vt 0 0
vt 0 0
vt 0 0
vt 0 0
vt 0 0
vt 0 0
vt 0 0
vt 0 0
vt 0 0
vt 0 0
vt 0 0
vt 0 0
vt 0 0
vt 0 0
vt 0 0
vt 0 0
vt 0 0
vt 0 0
vt 0 0
vt 0 0
vt 0 0
vt 0 0
vt 0 0
vt 0 0
vt 0 0
vt 0 0
vt 0 0
vt 0 0
vt 0 0
vt 0 0
vt 0 0
vt 0 0
vt 0 0
vt 0 0
vt 0 0
vt 0 0
vt 0 0
vt 0 0
vt 0 0
vt 0 0
vt 0 0
vt 0 0
vt 0 0
vt 0 0
vt 0 0
vt 0 0
vt 0 0
vt 0 0
vt 0 0
vt 0 0
vt 0 0
vt 0 0
vt 0 0
vt 0 0
vt 0 0
vt 0 0
vt 0 0
vt 0 0
vt 0 0
vt 0 0
vt 0 0
vt 0 0
vt 0 0
vt 0 0
vt 0 0
vt 0 0
vt 0 0
vt 0 0
vt 0 0
vt 0 0
vt 0 0
vt 0 0
vt 0 0
vt 0 0
vt 0 0
vt 0 0
vt 0 0
vt 0 0
vt 0 0
vt 0 0
vt 0 0
vt 0 0
vt 0 0
vt 0 0
vt 0 0
vt 0 0
vt 0 0
vt 0 0
vt 0 0
vt 0 0
vt 0 0
vt 0 0
vt 0 0
vt 0 0
vt 0 0
vt 0 0
vt 0 0
vt 0 0
vt 0 0
vt 0 0
vt 0 0
vt 0 0
vt 0 0
vt 0 0
vt 0 0
vt 0 0
vt 0 0
vt 0 0
vt 0 0
vt 0 0
vt 0 0
vt 0 0
vt 0 0
vt 0 0
vt 0 0
vt 0 0
vt 0 0
vt 0 0
vt 0 0
vt 0 0
vt 0 0
vt 0 0
vt 0 0
vt 0 0
vt 0 0
vt 0 0
vt 0 0
vt 0 0
vt 0 0
vt 0 0
vt 0 0
vt 0 0
vt 0 0
vt 0 0
vt 0 0
vt 0 0
vt 0 0
vt 0 0
vt 0 0
vt 0 0
vt 0 0
vt 0 0
vt 0 0
vt 0 0
vt 0 0
vt 0 0
vt 0 0
vt 0 0
vt 0 0
vt 0 0
vt 0 0
vt 0 0
vt 0 0
vt 0 0
vt 0 0
vt 0 0
vt 0 0
vt 0 0
vt 0 0
vt 0 0
vt 0 0
vt 0 0
vt 0 0
vt 0 0
vt 0 0
vt 0 0
vt 0 0
vt 0 0
vt 0 0
vt 0 0
vt 0 0
vt 0 0
vt 0 0
vt 0 0
vt 0 0
vt 0 0
vt 0 0
vt 0 0
vt 0 0
vt 0 0
vt 0 0
vt 0 0
vt 0 0
vt 0 0
vt 0 0
vt 0 0
vt 0 0
vt 0 0
vt 0 0
vt 0 0
vt 0 0
vt 0 0
vt 0 0
vt 0 0
vt 0 0
vt 0 0
vt 0 0
vt 0 0
vt 0 0
vt 0 0
vt 0 0
vt 0 0
vt 0 0
vt 0 0
vt 0 0
vt 0 0
vt 0 0
vt 0 0
vt 0 0
vt 0 0
vt 0 0
vt 0 0
vt 0 0
vt 0 0
vt 0 0
vt 0 0
vt 0 0
vt 0 0
vt 0 0
vt 0 0
vt 0 0
vt 0 0
vt 0 0
vt 0 0
vt 0 0
vt 0 0
vt 0 0
vt 0 0
vt 0 0
vt 0 0
vt 0 0
vt 0 0
vt 0 0
vt 0 0
vt 0 0
vt 0 0
vt 0 0
vt 0 0
vt 0 0
vt 0 0
vt 0 0
vt 0 0
vt 0 0
vt 0 0
vt 0 0
vt 0 0
vt 0 0
vt 0 0
vt 0 0
vt 0 0
vt 0 0
vt 0 0
vt 0 0
vt 0 0
vt 0 0
vt 0 0
vt 0 0
vt 0 0
vt 0 0
vt 0 0
vt 0 0
vt 0 0
vt 0 0
vt 0 0
vt 0 0
vt 0 0
vt 0 0
vt 0 0
vt 0 0
vt 0 0
vt 0 0
vt 0 0
vt 0 0
vt 0 0
vt 0 0
vt 0 0
vt 0 0
vt 0 0
vt 0 0
vt 0 0
vt 0 0
vt 0 0
vt 0 0
vt 0 0
vt 0 0
vt 0 0
vt 0 0
vt 0 0
vt 0 0
vt 0 0
vt 0 0
vt 0 0
vt 0 0
vt 0 0
vt 0 0
vt 0 0
vt 0 0
vt 0 0
vt 0 0
vt 0 0
vt 0 0
vt 0 0
vt 0 0
vt 0 0
vt 0 0
vt 0 0
vt 0 0
vn 0 -0.8923393509807459 0.4513651323388434
vn 0.6509094109623709 -0.6509187098010825 0.39066836569079116
vn 0.5862260373018596 -0.7070139859821866 -0.395563214688802
vn 0 0.9147955590864763 0.40391717600971283
vn -0.9775016324076733 0.0817462917175141 0.194443057039251
vn 0 0 -1
vn -0.674134017184086 0.6741677255703618 -0.3017303509336306
vn 0 0.9452863053619761 -0.32624193613805225
vn 0.7033919466709116 0.6348684758447354 -0.3196588615025213
vn 0 0.9565966612134825 -0.291415215380422
vn 0 -0.9142178181042147 0.4052231250320855
vn 0.8720187316401996 -0.3134312142912491 -0.37595771780418413
vn 0.7534167917949887 0.5381548512821347 -0.377826010066605
vn 0.9195713287694371 -0.013529025985113548 -0.39269012816864396
vn -0.9002589957028823 -0.18004819805657915 0.396379095100406
vn 0 -0.9205126852484252 -0.39071267742003674
vn -0.7724988234274857 -0.5407491763992397 -0.3329202547558413
vn -0.9043133922780295 -0.18085906115380607 -0.3866617236618677
vn 0 0 -1
vn 0.6741369974170369 0.6741594693993502 0.30174213913990977
vn -0.9132062780776543 -0.040246914574920696 -0.4055052151905779
vn -0.7811060875343311 -0.47293493056492936 -0.40768349423094785
vn 0.5862260373018597 -0.7070139859821865 0.39556321468880196
vn 0.0023640469586195946 -0.9234558432107784 0.38369742887052
vn -0.7444445375377718 -0.52111117627644 0.4174272062167946
vn 0 -0.9205164608711348 -0.39070378199510775
vn 0.6509274388581645 -0.650906377334872 0.3906588758576257
vn -0.7005010887029824 0.6377592429740702 0.32025204562512555
vn -0.753579324528289 -0.6045017561227624 -0.2582553551971074
vn -0.6463848059809671 0.5942093232365684 0.4786459680971806
vn -0.8084925934297671 0.4342294499657687 0.3972209852860695
vn -0.600576438494136 0.7006841896463195 0.38516179445186405
vn -0.7092895476599095 -0.5910844744578321 0.38409306376880764
vn 0 0 -1
vn 0 0.433076391446549 0.9013572206243404
vn 0 0.43307639144654897 0.9013572206243402
vn 0.07976055510972954 0.07976321388352564 0.9936176747419296
vn 0 0.3187857733562478 0.947826793620891
vn -0.36135051581602257 0.36136858424523344 0.8595571831123803
vn 0 0.43307639144654897 -0.9013572206243402
vn 0 0.433076391446549 -0.9013572206243404
vn 0.07976055510972949 0.0797632138835256 -0.9936176747419296
vn 0 0.3187857733562478 -0.9478267936208911
vn -0.36135051581602273 0.3613685842452335 -0.8595571831123804
vn -0.9132062780776543 -0.04024691457492071 0.4055052151905779
vn -0.7092895476599095 -0.5910844744578321 -0.3840930637688077
vn 0.6860629603319756 -0.6184994354409025 -0.3831136421739783
vn 0.002356172748463264 -0.9203799798684619 -0.3910180828392842
vn 0 -0.9363778818201963 -0.35099353617684004
vn 0.6509075233993538 -0.6509168222110998 -0.3906746556211746
vn 0.9511596543671612 -0.0002086009245451754 -0.30869931711909737
vn -0.600576438494136 0.7006841896463195 -0.38516179445186405
vn 0.878631362143781 0 0.47750071147314943
vn 0.9167710857698702 -0.013487827919101126 0.3991852386979735
vn 0 0.9510806876964302 0.308942592548981
vn 0.9509977669188683 -0.0002545654477492938 0.30919764312128667
vn -0.9775016324076733 0.08174629171751409 -0.19444305703925102
vn -0.7514202721960774 -0.45496111210439505 0.4778890676773273
vn 0.7455267655508561 0.5325191182506114 0.40076580510925613
vn 0 -0.920535338159774 0.3906593032286196
vn 0 0 1
vn -0.005098732353803897 -0.9229193144080092 -0.38495966284928435
vn 0.6509274388581645 -0.650906377334872 -0.3906588758576257
vn 0 -0.9174900815230236 0.39775865836820695
vn 0.6468567628300006 -0.6192387646561477 0.4451063701276591
vn -0.7535788175092214 -0.6045013494052388 0.2582577866563737
vn 0 0.8803719005363684 0.4742840043117445
vn 0 0 1
vn 0 0 -1
vn 0 0 -1
vn 0 0 -1
vn 0 0 -1
vn 0 0 -1
vn 0 0 -1
vn 0 0 -1
vn 0 0 -1
vn 0 0 -1
vn 0 0 1
vn 0 0 -1
vn 0 0 1
vn 0 0 1
vn 0 0 -1
vn 0 0 1
vn 0 0 -1
vn 0 0 -1
vn 0 0 1
vn 0 0 1
vn 0 0 1
vn 0 0 1
vn 0 0 1
vn 0 0 1
vn 0 0 1
vn 0 0 1
vn 0 0 1
vn 0 0.9510806876964301 -0.308942592548981
vn 0 0 1
vn 0 0.9452863053619761 0.32624193613805225
vn 0 0 1
vn 0 0 -1
vn 0 0 1
vn 0 0 1
vn 0.6589573117469156 -0.6589573117469162 0.3626989420863478
vn 0.9510838746942453 0 0.30893278119452017
vn 0 0 -1
vn 0 0 -1
vn 0 0 -1
vn 0 0 1
vn 0 -0.8923370648277656 -0.45136965198667045
vn 0.6446920992987252 -0.6211217053515323 -0.4456230741815407
vn 0.8786288428792219 0 -0.47750534704934955
vn 0 0.880369410176075 -0.47428862692060225
vn -0.6508302214493102 0.6032820829925989 -0.4609454969824011
vn 0 0.914793682242151 -0.4039214266783168
vn 0.8604822606042294 -0.3092846403769035 0.4048620634393454
vn 0.9509977669188683 -0.00025456544774928817 -0.30919764312128667
vn 0 0 1
vn 0 0 -1
vn 0 -0.9363778818201962 0.35099353617684
vn 0 -0.9831425298248825 0.18284082161686527
vn 0 -0.9688539280304922 0.24763292620305208
vn 0 0.9565966612134825 0.29141521538042203
vn -0.8029854302726516 0.43127163384225736 -0.41136258533424563
vn 0 -0.9831425298248825 -0.18284082161686527
vn 0 -0.9688545273574445 -0.24763058134847366
usemtl none
f 1/1/1 2/2/1 3/3/1 4/4/1
f 5/5/2 6/6/2 7/7/2 8/8/2
f 9/9/3 10/10/3 11/11/3 12/12/3
f 13/13/4 14/14/4 15/15/4 16/16/4
f 17/17/5 18/18/5 19/19/5 20/20/5
f 12/21/6 21/22/6 22/23/6 9/24/6
f 23/25/7 24/26/7 20/27/7 25/28/7
f 23/29/8 25/30/8 26/31/8 27/32/8
f 27/33/9 26/34/9 28/35/9 29/36/9
f 30/37/10 29/38/10 28/39/10 31/40/10
f 32/41/11 33/42/11 34/43/11 35/44/11
f 11/45/12 36/46/12 37/47/12 12/48/12
f 38/49/13 37/50/13 36/51/13 39/52/13
f 39/53/14 40/54/14 41/55/14 38/56/14
f 42/57/15 43/58/15 44/59/15 45/60/15
f 46/61/16 47/62/16 35/63/16 34/64/16
f 48/65/17 46/66/17 34/67/17 45/68/17
f 49/69/18 48/70/18 45/71/18 44/72/18
f 37/73/19 49/74/19 21/75/19 12/76/19
f 50/77/20 51/78/20 28/79/20 26/80/20
f 52/81/21 53/82/21 54/83/21 22/84/21
f 55/85/22 54/86/22 53/87/22 56/88/22
f 11/89/23 10/90/23 57/91/23 58/92/23
f 8/93/24 59/94/24 60/95/24 5/96/24
f 33/97/25 42/98/25 45/99/25 34/100/25
f 9/101/26 61/102/26 7/103/26 10/104/26
f 32/105/27 35/106/27 40/107/27 62/108/27
f 63/109/28 25/110/28 20/111/28 19/112/28
f 64/113/29 65/114/29 66/115/29 67/116/29
f 13/117/30 16/118/30 68/119/30 69/120/30
f 70/121/31 44/122/31 43/123/31 71/124/31
f 71/125/32 72/126/32 52/127/32 70/128/32
f 73/129/33 60/130/33 59/131/33 74/132/33
f 54/133/34 55/134/34 75/135/34 76/136/34
f 18/137/35 77/138/35 51/139/35
f 51/140/36 77/141/36 78/142/36
f 50/143/37 18/144/37 51/145/37
f 18/146/38 50/147/38 63/148/38
f 18/149/39 63/150/39 19/151/39
f 29/152/40 30/153/40 79/154/40
f 79/155/41 80/156/41 29/157/41
f 80/158/42 27/159/42 29/160/42
f 27/161/43 80/162/43 23/163/43
f 23/164/44 80/165/44 24/166/44
f 81/167/45 53/168/45 52/169/45 72/170/45
f 59/171/46 82/172/46 83/173/46 74/174/46
f 84/175/47 85/176/47 86/177/47 87/178/47
f 59/179/48 8/180/48 88/181/48 82/182/48
f 84/183/49 87/184/49 89/185/49 90/186/49
f 61/187/50 88/188/50 8/189/50 7/190/50
f 91/191/51 90/192/51 89/193/51 92/194/51
f 52/195/52 22/196/52 21/197/52 70/198/52
f 93/199/53 94/200/53 95/201/53 96/202/53
f 40/203/54 39/204/54 97/205/54 62/206/54
f 98/207/55 99/208/55 100/209/55 91/210/55
f 98/211/56 101/212/56 102/213/56 99/214/56
f 24/215/57 80/216/57 17/217/57 20/218/57
f 81/219/58 103/220/58 56/221/58 53/222/58
f 104/223/59 97/224/59 39/225/59 36/226/59
f 85/227/60 105/228/60 73/229/60 74/230/60
f 2/231/61 1/232/61 16/233/61 15/234/61
f 85/235/62 74/236/62 83/237/62 86/238/62
f 40/239/63 35/240/63 47/241/63 41/242/63
f 6/243/64 57/244/64 10/245/64 7/246/64
f 96/247/65 1/248/65 4/249/65 93/250/65
f 66/251/66 65/252/66 106/253/66 107/254/66
f 69/255/67 68/256/67 95/257/67 94/258/67
f 108/259/68 107/260/68 106/261/68 109/262/68
f 87/263/69 92/264/69 89/265/69
f 92/266/70 87/267/70 82/268/70
f 87/269/71 83/270/71 82/271/71
f 83/272/72 87/273/72 86/274/72
f 76/275/73 92/276/73 82/277/73
f 76/278/74 82/279/74 88/280/74
f 61/281/75 76/282/75 88/283/75
f 76/284/76 61/285/76 9/286/76
f 54/287/77 76/288/77 9/289/77
f 102/290/78 103/291/78 81/292/78 99/293/78
f 54/294/79 9/295/79 22/296/79
f 71/297/80 58/298/80 57/299/80 72/300/80
f 43/301/81 104/302/81 58/303/81 71/304/81
f 49/305/82 37/306/82 48/307/82
f 32/308/83 104/309/83 42/310/83 33/311/83
f 38/312/84 47/313/84 37/314/84
f 47/315/85 38/316/85 41/317/85
f 100/318/86 110/319/86 111/320/86
f 110/321/87 100/322/87 60/323/87
f 110/324/88 60/325/88 73/326/88
f 105/327/89 110/328/89 73/329/89
f 100/330/90 99/331/90 60/332/90
f 60/333/91 99/334/91 5/335/91
f 99/336/92 6/337/92 5/338/92
f 6/339/93 99/340/93 57/341/93
f 81/342/94 57/343/94 99/344/94
f 98/345/95 91/346/95 92/347/95 76/348/95
f 72/349/96 57/350/96 81/351/96
f 63/352/97 50/353/97 26/354/97 25/355/97
f 104/356/98 43/357/98 42/358/98
f 112/359/99 113/360/99 64/361/99 67/362/99
f 32/363/100 97/364/100 104/365/100
f 97/366/101 32/367/101 62/368/101
f 84/369/102 110/370/102 105/371/102 85/372/102
f 91/373/103 100/374/103 111/375/103 90/376/103
f 114/377/104 115/378/104 116/379/104
f 117/380/105 118/381/105 119/382/105 120/383/105
f 117/384/106 114/385/106 116/386/106 118/387/106
f 68/388/107 96/389/107 95/390/107
f 119/391/108 118/392/108 4/393/108 3/394/108
f 93/395/109 4/396/109 118/397/109 116/398/109
f 93/399/110 116/400/110 115/401/110 94/402/110
f 69/403/111 94/404/111 115/405/111 114/406/111
f 13/407/112 69/408/112 114/409/112 117/410/112
f 14/411/113 13/412/113 117/413/113 120/414/113
f 36/415/114 11/416/114 58/417/114 104/418/114
f 75/419/115 101/420/115 98/421/115 76/422/115
f 96/423/116 68/424/116 16/425/116 1/426/116
f 37/427/117 47/428/117 46/429/117 48/430/117
f 84/431/118 90/432/118 111/433/118 110/434/118
f 121/435/119 77/436/119 18/437/119 17/438/119
f 122/439/120 109/440/120 106/441/120 65/442/120
f 78/443/121 31/444/121 28/445/121 51/446/121
f 44/447/122 70/448/122 21/449/122 49/450/122
f 80/451/123 79/452/123 121/453/123 17/454/123
f 122/455/124 65/456/124 64/457/124 113/458/124