# Made in Blockbench 5.1.6
mtllib soul blue.mtl

o unknown
v -0.24555849999999996 0.1785995 -0.066088
v -0.24555849999999996 0.2446875 -0.093462
v -0.22565449999999998 0.2446875 -0.101578
v -0.22565449999999998 0.1728615 -0.071826
v -0.22565449999999998 0.1431095 0
v -0.24555849999999996 0.1512255 0
v -0.22565449999999998 0.3165145 -0.071826
v -0.24555849999999996 0.3107755 -0.066088
v 0.26430650000000006 0.3107755 0.066088
v 0.24440250000000002 0.3165145 0.071826
v 0.24440250000000002 0.2446875 0.101578
v 0.26430650000000006 0.2446875 0.093462
v 0.26430650000000006 0.2446875 -0.093462
v 0.26430650000000006 0.1785995 -0.066088
v 0.24440250000000002 0.1728615 -0.071826
v 0.24440250000000002 0.2446875 -0.101578
v 0.24440250000000002 0.1431095 0
v 0.26430650000000006 0.1512255 0
v -0.24555849999999996 0.3381505 0
v -0.24555849999999996 0.3107755 0.066088
v -0.22565449999999998 0.3165145 0.071826
v -0.22565449999999998 0.3462655 0
v -0.2917315 -0.4137345 0.082012
v -0.5525095 -0.4137345 0.082012
v -0.5525095 -0.4315345 0.082012
v -0.28455549999999996 -0.4315345 0.082012
v 0.26430650000000006 0.3107755 -0.066088
v 0.24440250000000002 0.3165145 -0.071826
v -0.22565449999999998 0.2446875 0.101578
v -0.24555849999999996 0.2446875 0.093462
v -0.24555849999999996 0.1785995 0.066088
v -0.22565449999999998 0.1728615 0.071826
v 0.24440250000000002 0.3462655 0
v 0.26430650000000006 0.3381505 0
v 0.26430650000000006 0.1785995 0.066088
v 0.24440250000000002 0.1728615 0.071826
v -0.6929215 -0.3976455 0.092719
v -0.6929215 -0.3976455 -0.092719
v -0.7042174999999999 -0.4013875 -0.092719
v -0.7042174999999999 -0.4013875 0.092719
v -0.5845815 -0.0706435 0.092719
v -0.6783105 -0.1166555 0.092719
v -0.6783105 -0.1166555 -0.092719
v -0.5845815 -0.0706435 -0.092719
v -0.29986149999999995 0.2732565 0.029483
v -0.29986149999999995 0.20207750000000002 0
v -0.29986149999999995 0.21428950000000002 -0.029483
v -0.29986149999999995 0.2854685 0
v -0.6349705 -0.0573935 0.092719
v -0.6289625 -0.0518495 0.092719
v -0.6289625 -0.0518495 -0.092719
v -0.6349705 -0.0573935 -0.092719
v -0.7926605 -0.3899515 -0.092719
v -0.7926605 -0.3899515 0.092719
v -0.7177195 -0.4015355 0.092719
v -0.7177195 -0.4015355 -0.092719
v -0.46143049999999997 0.1052785 0.092719
v -0.4915465 0.0889055 0.092719
v -0.4915465 0.0889055 -0.092719
v -0.46143049999999997 0.1052785 -0.092719
v -0.7658715 -0.1547235 -0.092719
v -0.7658715 -0.1547235 0.092719
v -0.7436455 -0.2279535 0.092719
v -0.7436455 -0.2279535 -0.092719
v -0.7556955 -0.1536485 -0.092719
v -0.7556955 -0.1536485 0.092719
v -0.7303815 -0.3653925 -0.092719
v -0.7303815 -0.3653925 0.092719
v -0.7307025 -0.3566335 0.092719
v -0.7307025 -0.3566335 -0.092719
v -0.29986149999999995 0.2732565 -0.029483
v -0.29986149999999995 0.2437725 -0.041696
v -0.29986149999999995 0.21428950000000002 0.029483
v -0.29986149999999995 0.2437725 0.041696
v -0.6226894999999999 0.029090500000000005 -0.092719
v -0.6226894999999999 0.029090500000000005 0.092719
v -0.6433665 0.012096499999999996 0.092719
v -0.6433665 0.012096499999999996 -0.092719
v -0.6257714999999999 -0.0429685 0.092719
v -0.6342524999999999 0.002179500000000001 0.092719
v -0.6342524999999999 0.002179500000000001 -0.092719
v -0.6257714999999999 -0.0429685 -0.092719
v -0.6929574999999999 -0.0858605 0.092719
v -0.6929574999999999 -0.0858605 -0.092719
v -0.7013855 -0.020631499999999997 -0.092719
v -0.7013855 -0.020631499999999997 0.092719
v -0.6808654999999999 0.039460499999999996 0.092719
v -0.6808654999999999 0.039460499999999996 -0.092719
v -0.5895744999999999 0.024112499999999995 0.092719
v -0.5895744999999999 0.024112499999999995 -0.092719
v -0.6005985 0.1351505 0.092719
v -0.5706465 0.1510975 0.092719
v -0.5706465 0.1510975 -0.092719
v -0.6005985 0.1351505 -0.092719
v -0.7447075 -0.1585745 -0.092719
v -0.7447075 -0.1585745 0.092719
v -0.7629554999999999 -0.3395525 -0.092719
v -0.7629554999999999 -0.3395525 0.092719
v -0.7569144999999999 -0.3053165 0.092719
v -0.7569144999999999 -0.3053165 -0.092719
v -0.6752635 -0.2649045 -0.092719
v -0.6752635 -0.2649045 0.092719
v -0.7078595 -0.2748795 0.092719
v -0.7078595 -0.2748795 -0.092719
v -0.6996605 -0.3820175 -0.092719
v -0.6996605 -0.3820175 0.092719
v -0.7315244999999999 -0.3685495 0.092719
v -0.7315244999999999 -0.3685495 -0.092719
v -0.7978805 -0.4243385 -0.092719
v -0.7978805 -0.4243385 0.092719
v -0.7765385 -0.2381785 0.092719
v -0.7765385 -0.2381785 -0.092719
v -0.6631054999999999 -0.4448445 -0.092719
v -0.6631054999999999 -0.4448445 0.092719
v 0.0646855 -0.025243500000000002 0.082012
v 0.08814450000000001 -0.025243500000000002 0.082012
v 0.08814450000000001 -0.025243500000000002 -0.082515
v 0.0646855 -0.025243500000000002 -0.082515
v -0.5743604999999999 -0.006876499999999994 0.092719
v -0.5873824999999999 -0.013033500000000003 0.092719
v -0.5873824999999999 -0.013033500000000003 -0.092719
v -0.5743604999999999 -0.006876499999999994 -0.092719
v -0.5925535 -0.020762500000000003 0.092719
v -0.5925535 -0.020762500000000003 -0.092719
v -0.6352465 -0.3789315 0.092719
v -0.6352465 -0.3789315 -0.092719
v -0.5504605 0.1252915 -0.092719
v -0.5504605 0.1252915 0.092719
v -0.5472425 0.1271785 0.092719
v -0.5472425 0.1271785 -0.092719
v -0.5982495 0.0422675 -0.092719
v -0.5982495 0.0422675 0.092719
v -0.6597165 -0.008906499999999998 -0.092719
v -0.6597165 -0.008906499999999998 0.092719
v -0.6686875 -0.0310055 0.092719
v -0.6686875 -0.0310055 -0.092719
v -0.5090015 0.1935465 0.092719
v -0.5090015 0.1935465 -0.092719
v -0.5064575 0.11472750000000001 -0.092719
v -0.5036645 0.11109649999999999 -0.092719
v -0.5036645 0.11109649999999999 0.092719
v -0.5064575 0.11472750000000001 0.092719
v -0.5937494999999999 -0.0288995 0.092719
v -0.5937494999999999 -0.0288995 -0.092719
v -0.6823014999999999 -0.3910905 0.092719
v -0.6740765 -0.3813935 0.092719
v -0.6664635 -0.3655825 0.092719
v -0.6823014999999999 -0.3910905 -0.092719
v -0.6740765 -0.3813935 -0.092719
v -0.6664635 -0.3655825 -0.092719
v -0.6744215 -0.3215615 0.092719
v -0.7344755 -0.3483325 0.092719
v -0.7418925 -0.3436645 0.092719
v -0.6744215 -0.3215615 -0.092719
v -0.7344755 -0.3483325 -0.092719
v -0.7418925 -0.3436645 -0.092719
v -0.5108444999999999 0.1154065 0.092719
v -0.5151604999999999 0.1136905 0.092719
v -0.5529135 0.0465035 0.092719
v -0.5547964999999999 0.1255415 0.092719
v -0.5581834999999999 0.1281075 0.092719
v -0.5108444999999999 0.1154065 -0.092719
v -0.5151604999999999 0.1136905 -0.092719
v -0.5529135 0.0465035 -0.092719
v -0.5547964999999999 0.1255415 -0.092719
v -0.5581834999999999 0.1281075 -0.092719
v -0.7400475 -0.1662215 -0.092719
v -0.7224094999999999 -0.1069025 -0.092719
v -0.8085315 -0.1325435 -0.092719
v -0.8085315 -0.1325435 0.092719
v -0.7224094999999999 -0.1069025 0.092719
v -0.7400475 -0.1662215 0.092719
v -0.6131835 0.07268649999999999 -0.092719
v -0.6131835 0.07268649999999999 0.092719
v -0.2917315 -0.4137345 -0.082515
v -0.28455549999999996 -0.4315345 -0.082515
v 0.2835305000000001 0.21428950000000002 0.029483
v 0.2835305000000001 0.2732565 0.029483
v 0.2835305000000001 0.2854685 0
v 0.2835305000000001 0.21428950000000002 -0.029483
v -0.5525095 -0.4137345 -0.082515
v -0.5525095 -0.4315345 -0.082515
v 0.2835305000000001 0.2732565 -0.029483
v 0.2835305000000001 0.2437725 -0.041696
v 0.2835305000000001 0.2020765 0
v 0.2835305000000001 0.2437725 0.041696
vt 0 0
vt 0 0
vt 0 0
vt 0 0
vt 0 0
vt 0 0
vt 0 0
vt 0 0
vt 0 0
vt 0 0
vt 0 0
vt 0 0
vt 0 0
vt 0 0
vt 0 0
vt 0 0
vt 0 0
vt 0 0
vt 0 0
vt 0 0
vt 0 0
vt 0 0
vt 0 0
vt 0 0
vt 0 0
vt 0 0
vt 0 0
vt 0 0
vt 0 0
vt 0 0
vt 0 0
vt 0 0
vt 0 0
vt 0 0
vt 0 0
vt 0 0
vt 0 0
vt 0 0
vt 0 0
vt 0 0
vt 0 0
vt 0 0
vt 0 0
vt 0 0
vt 0 0
vt 0 0
vt 0 0
vt 0 0
vt 0 0
vt 0 0
vt 0 0
vt 0 0
vt 0 0
vt 0 0
vt 0 0
vt 0 0
vt 0 0
vt 0 0
vt 0 0
vt 0 0
vt 0 0
vt 0 0
vt 0 0
vt 0 0
vt 1 0
vt 1 1
vt 1 1
vt 1 0
vt 0 0
vt 0 0
vt 0 0
vt 0 0
vt 0 0
vt 0 0
vt 0 0
vt 0 0
vt 0 0
vt 0 0
vt 0 0
vt 0 0
vt 0.580294 0.419706
vt 0.99 0.25
vt 0.919706 0.08029399999999998
vt 0.51 0.25
vt 0 0
vt 0 0
vt 0 0
vt 0 0
vt 1 1
vt 1 0
vt 1 0
vt 1 1
vt 1 0
vt 1 0
vt 1 1
vt 1 1
vt 0 0
vt 0 0
vt 0 0
vt 0 0
vt 0 0
vt 0 0
vt 0 0
vt 0 0
vt 1 1
vt 1 0
vt 1 0
vt 1 1
vt 0 0
vt 0 0
vt 0 0
vt 0 0
vt 0.51 0.25
vt 0.919706 0.08029399999999998
vt 0.580294 0.08029399999999998
vt 0.580294 0.08029399999999998
vt 0.919706 0.08029399999999998
vt 0.75 0.010000000000000009
vt 0.99 0.25
vt 0.580294 0.419706
vt 0.919706 0.419706
vt 0.919706 0.419706
vt 0.580294 0.419706
vt 0.75 0.49
vt 0 0
vt 0 0
vt 0 0
vt 0 0
vt 0 0
vt 0 0
vt 0 0
vt 0 0
vt 0 0
vt 0 0
vt 0 0
vt 0 0
vt 0 0
vt 0 0
vt 0 0
vt 0 0
vt 0 0
vt 0 0
vt 0 0
vt 0 0
vt 1 0
vt 0 0
vt 0 1
vt 1 1
vt 0 0
vt 0 0
vt 0 0
vt 0 0
vt 1 1
vt 1 0
vt 1 0
vt 1 1
vt 0 0
vt 0 0
vt 0 0
vt 0 0
vt 1 1
vt 1 0
vt 1 0
vt 1 1
vt 1 1
vt 1 0
vt 1 0
vt 1 1
vt 0 0
vt 0 0
vt 0 0
vt 0 0
vt 1 1
vt 1 0
vt 1 0
vt 1 1
vt 0 0
vt 0 0
vt 0 0
vt 0 0
vt 0 0
vt 0 0
vt 0 0
vt 0 0
vt 0 0
vt 0 0
vt 0 0
vt 0 0
vt 0 0
vt 1 0
vt 1 1
vt 0 1
vt 1 1
vt 1 0
vt 1 0
vt 1 1
vt 0 0
vt 0 0
vt 0 0
vt 0 0
vt 0 0
vt 0 0
vt 0 0
vt 0 0
vt 1 0
vt 1 0
vt 1 1
vt 1 1
vt 1 1
vt 1 1
vt 1 0
vt 1 0
vt 0 0
vt 0 0
vt 0 0
vt 0 0
vt 0 0
vt 0 0
vt 0 0
vt 0 0
vt 1 0
vt 1 0
vt 1 1
vt 1 1
vt 1 0
vt 1 0
vt 1 0
vt 1 0
vt 1 0
vt 1 0
vt 1 0
vt 1 0
vt 1 0
vt 1 0
vt 1 0
vt 1 0
vt 1 0
vt 1 0
vt 1 0
vt 1 0
vt 1 0
vt 0 0
vt 0 0
vt 1 0
vt 1 0
vt 0 0
vt 1 0
vt 1 0
vt 1 1
vt 1 1
vt 1 1
vt 1 1
vt 1 1
vt 1 1
vt 1 1
vt 1 1
vt 1 1
vt 1 1
vt 1 1
vt 1 1
vt 1 1
vt 1 1
vt 1 1
vt 1 1
vt 0 1
vt 1 1
vt 0 1
vt 1 1
vt 1 1
vt 0 1
vt 1 1
vt 1 1
vt 1 0
vt 1 0
vt 1 0
vt 1 0
vt 1 0
vt 1 0
vt 0 0
vt 1 0
vt 1 0
vt 1 0
vt 0 0
vt 1 0
vt 0 0
vt 1 0
vt 1 0
vt 1 0
vt 1 0
vt 1 0
vt 1 0
vt 1 0
vt 1 0
vt 0 1
vt 1 1
vt 1 1
vt 1 1
vt 0 1
vt 1 1
vt 1 1
vt 1 1
vt 1 1
vt 1 1
vt 1 1
vt 1 1
vt 1 1
vt 1 1
vt 0 1
vt 1 1
vt 1 1
vt 1 1
vt 1 1
vt 1 1
vt 1 1
vt 1 0
vt 1 0
vt 1 0
vt 1 0
vt 1 0
vt 1 0
vt 1 0
vt 1 0
vt 1 0
vt 1 0
vt 1 0
vt 1 0
vt 1 0
vt 1 0
vt 1 0
vt 1 0
vt 1 0
vt 1 0
vt 1 0
vt 1 0
vt 1 0
vt 1 0
vt 1 0
vt 1 0
vt 1 0
vt 1 0
vt 1 0
vt 1 0
vt 1 0
vt 1 0
vt 1 0
vt 1 0
vt 1 0
vt 0 0
vt 1 0
vt 1 0
vt 1 1
vt 1 1
vt 1 1
vt 1 1
vt 1 1
vt 1 1
vt 1 1
vt 1 1
vt 1 1
vt 1 1
vt 1 1
vt 1 1
vt 1 1
vt 1 1
vt 1 1
vt 1 1
vt 1 1
vt 1 1
vt 1 1
vt 1 1
vt 1 1
vt 1 1
vt 1 1
vt 1 1
vt 1 1
vt 1 1
vt 1 1
vt 1 1
vt 1 1
vt 1 1
vt 1 1
vt 1 1
vt 1 1
vt 0 1
vt 1 1
vt 1 1
vt 0 0
vt 0 0
vt 0 0
vt 0 0
vt 0 0
vt 0 0
vt 0 0
vt 0 0
vt 0 0
vt 0 0
vt 0 0
vt 0 0
vt 0 0
vt 0 0
vt 0 0
vt 0 0
vt 0 0
vt 0 0
vt 0 0
vt 0 0
vt 0 0
vt 0 0
vt 0 0
vt 0 0
vt 0 0
vt 0 0
vt 0 0
vt 0 0
vt 0 0
vt 0 0
vt 0 0
vt 0 0
vt 0 0
vt 0 0
vt 0 0
vt 0 0
vt 0 0
vt 0 0
vt 0 0
vt 0 0
vt 0 0
vt 0 0
vt 0 0
vt 0 0
vt 0 0
vt 0 0
vt 0 0
vt 0 0
vt 0 0
vt 0 0
vt 0 0
vt 0 0
vt 0 0
vt 0 0
vt 0 0
vt 0 0
vt 0 0
vt 0 0
vt 0 0
vt 0 0
vt 0 0
vt 0 0
vt 0 0
vt 0 0
vt 0 0
vt 0 0
vt 0 0
vt 0 0
vt 0 0
vt 0 0
vt 0 0
vt 0 0
vt 0 0
vt 0 0
vt 0 0
vt 0 0
vt 0 0
vt 0 0
vt 0 0
vt 0 0
vt 0 0
vt 0 0
vt 0 0
vt 0 0
vt 0 0
vt 0 0
vt 0 0
vt 0 0
vt 0 0
vt 0 0
vt 0 0
vt 0 0
vt 0 0
vt 0 0
vt 0 0
vt 0 0
vt 0 0
vt 0 0
vt 0 0
vt 0 0
vt 0 0
vt 0 0
vt 0 0
vt 0 0
vt 0 0
vt 0 0
vt 0 0
vt 0 0
vt 0 0
vt 0 0
vt 0 0
vt 0 0
vt 0 0
vt 0 0
vt 0 0
vt 0 0
vt 0 0
vt 0 0
vt 0 0
vt 0 0
vt 0 0
vt 0 0
vt 0 0
vt 0 0
vt 0 0
vt 0 0
vt 0 0
vt 0 0
vt 0 0
vt 0 0
vt 0 0
vt 0 0
vt 0 0
vt 0 0
vt 0 0
vt 0 0
vt 0 0
vt 0 0
vt 0 0
vt 0 0
vt 0 0
vt 0 0
vt 0 0
vt 0 0
vt 0 0
vt 0 0
vt 0.419706 0.419706
vt 0.080294 0.419706
vt 0.01 0.25
vt 0.419706 0.08029399999999998
vt 0 0
vt 0 0
vt 0 0
vt 0 0
vt 0 0
vt 0 0
vt 0 0
vt 0 0
vt 0 0
vt 0 0
vt 1 1
vt 1 0
vt 1 0
vt 1 1
vt 0 0
vt 0 0
vt 0 0
vt 0 0
vt 1 1
vt 1 0
vt 1 0
vt 1 1
vt 0 1
vt 0 0
vt 1 0
vt 1 1
vt 0 0
vt 0 0
vt 0 0
vt 0 0
vt 0 0
vt 0 0
vt 0 0
vt 0 0
vt 1 1
vt 1 0
vt 1 0
vt 1 1
vt 0 0
vt 0 0
vt 0 0
vt 0 0
vt 0 0
vt 0 0
vt 0 0
vt 0 0
vt 0 0
vt 0 0
vt 0 0
vt 0 0
vt 1 1
vt 1 1
vt 1 0
vt 1 0
vt 1 1
vt 1 0
vt 0 0
vt 0 1
vt 0 0
vt 0 0
vt 0 0
vt 0 0
vt 0 0
vt 0 0
vt 0 0
vt 0 0
vt 0 0
vt 0 0
vt 0 0
vt 0 0
vt 1 1
vt 1 0
vt 1 0
vt 1 1
vt 1 0
vt 1 0
vt 1 1
vt 1 1
vt 0 0
vt 0 0
vt 0 0
vt 0 0
vt 0 0
vt 0 0
vt 0 0
vt 0 0
vt 0 0
vt 0 0
vt 0 0
vt 0 0
vt 0 0
vt 0 0
vt 0 0
vt 0 0
vt 0 1
vt 0 0
vt 1 0
vt 1 1
vt 1 0
vt 1 0
vt 1 1
vt 1 1
vt 0 0
vt 0 0
vt 0 0
vt 0 0
vt 0 0
vt 0 0
vt 0 0
vt 0 0
vt 1 0
vt 1 0
vt 1 1
vt 1 1
vt 0 0
vt 0 0
vt 0 0
vt 0 0
vt 1 1
vt 1 0
vt 1 0
vt 1 1
vt 0 0
vt 0 0
vt 0 0
vt 0 0
vt 1 1
vt 1 1
vt 1 0
vt 1 0
vt 1 1
vt 1 0
vt 1 0
vt 1 1
vt 1 0
vt 1 1
vt 1 1
vt 1 0
vt 0 0
vt 0 0
vt 0 0
vt 0 0
vt 1 0
vt 1 1
vt 1 1
vt 1 0
vt 0 0
vt 0 0
vt 0 0
vt 0 0
vt 1 0
vt 1 1
vt 1 1
vt 1 0
vt 1 0
vt 0 0
vt 0 1
vt 1 1
vt 1 1
vt 1 0
vt 1 0
vt 1 1
vt 0 0
vt 0 0
vt 0 0
vt 0 0
vt 0.419706 0.08029399999999998
vt 0.080294 0.08029399999999998
vt 0.25 0.010000000000000009
vt 0.419706 0.08029399999999998
vt 0.01 0.25
vt 0.080294 0.08029399999999998
vt 0 0
vt 0 0
vt 0 0
vt 0 0
vt 0.419706 0.419706
vt 0.419706 0.08029399999999998
vt 0.49 0.25
vt 0.080294 0.419706
vt 0.419706 0.419706
vt 0.25 0.49
vt 0 0
vt 0 0
vt 0 0
vt 0 0
vn -0.3525339006657351 -0.35810869400259776 -0.8645681073004923
vn -0.352531940372502 -0.864563299799688 -0.3581222300509609
vn -0.35253256983729425 0.3581178835887438 -0.8645648435240888
vn 0.352501917987186 0.35812230229091496 0.8645755111135233
vn 0.3524848303473014 -0.35811576751172536 -0.8645851846027215
vn 0.3524867904461033 -0.864579012639286 -0.3581287386746309
vn -0.3525245214234274 0.864566746434342 0.3581212123780436
vn 0 0 1
vn 0.35253390066573476 0.358108694002598 -0.8645681073004925
vn -0.35253390066573514 -0.35810869400259776 0.8645681073004923
vn 0.3524954206139604 0.864580265175637 -0.35811722035530863
vn -0.3525339006657358 -0.8645681073004922 0.3581086940025974
vn -0.3525233108350435 0.8645705589199969 -0.35811319993357343
vn 0.3524848303473011 -0.8645851846027217 0.3581157675117252
vn -0.35250191798718644 0.3581223022909149 0.8645755111135232
vn 0.3524867904461036 -0.3581287386746309 0.864579012639286
vn -0.3144624642695478 0.9492699081744472 0
vn 0.4406699633420838 -0.8976691948641696 0
vn 0 0.9238809119558157 -0.3826801020744229
vn 0 -0.9238763642718045 -0.3826910810822645
vn 1 0 0
vn -0.6781581613019803 0.7349159872118156 0
vn 0.15276071803991761 0.9882632053374896 0
vn 0.4776396263158726 -0.8785558533029268 0
vn 0.9568970490729138 0.29042733596469483 0
vn 0.10505613845316586 -0.9944662929296847 0
vn -0.9993291370351177 -0.03662343338146911 0
vn 0.3524942097910241 0.8645772953395652 0.35812558195013666
vn 1 0 0
vn 1 0 0
vn 1 0 0
vn 1 0 0
vn 0.634947358511515 -0.7725554037861945 0
vn -0.9828100289279903 -0.18461973631917797 0
vn -0.44068135557809945 0.8976636022730613 0
vn -0.9463460972224951 0.3231548611296942 0
vn -0.44067583994355586 0.8976663099894312 0
vn -0.4699594546833003 0.8826880031776658 0
vn -0.4090797485617933 -0.9124986352409631 0
vn -0.9847867440002643 0.1737672835759307 0
vn 0.29262395113368195 -0.9562276001156381 0
vn -0.3893231121794992 -0.92110125085295 0
vn -0.9886735256355128 0.1500821765148858 0
vn 0.2968447906465078 -0.9549257407076379 0
vn -0.15041877453473868 -0.9886223709119005 0
vn 0 1 0
vn 0.42744461301887954 -0.9040415382055961 0
vn 0.8311392619888904 -0.5560643192838061 0
vn 0.9211039414615008 -0.3893167463956415 0
vn -0.5058364468070575 0.8626294042528408 0
vn 0.4745743969401281 -0.8802153950987871 0
vn 0.926564775657068 -0.3761352369980344 0
vn -0.866458011363003 0.4992499519728271 0
vn -0.7926321041204519 -0.6097002111838122 0
vn 0.9767213911828282 0.21451182719346923 0
vn -0.302411828472031 -0.9531773633486075 0
vn 0.8802958720346026 0.4744251022857443 0
vn 0 0 1
vn 0 0 1
vn 0 0 1
vn 0 0 1
vn 0 0 1
vn 0 0 1
vn 0 0 1
vn 0 0 1
vn 0 0 -1
vn 0 0 -1
vn 0 0 -1
vn 0 0 -1
vn 0 0 -1
vn 0 0 -1
vn 0 0 -1
vn 0 0 -1
vn 0 0 1
vn 0 0 1
vn 0 0 1
vn 0 0 1
vn 0 0 1
vn 0 0 1
vn 0 0 1
vn 0 0 -1
vn 0 0 -1
vn 0 0 -1
vn 0 0 -1
vn 0 0 -1
vn 0 0 -1
vn 0 0 -1
vn 0 0 1
vn 0 0 1
vn 0 0 1
vn 0 0 1
vn 0 0 1
vn 0 0 1
vn 0 0 1
vn 0 0 1
vn 0 0 1
vn 0 0 1
vn 0 0 1
vn 0 0 1
vn 0 0 -1
vn 0 0 -1
vn 0 0 -1
vn 0 0 -1
vn 0 0 -1
vn 0 0 -1
vn 0 0 -1
vn 0 0 -1
vn 0 0 -1
vn 0 0 -1
vn 0 0 -1
vn 0 0 -1
vn 0 0 -1
vn 0 0 -1
vn 0 0 -1
vn 0 0 -1
vn 0 0 -1
vn 0 0 -1
vn 0 0 -1
vn 0 0 -1
vn 0 0 1
vn 0 0 1
vn 0 0 1
vn 0 0 1
vn 0 0 1
vn 0 0 1
vn 0 0 1
vn 0 0 1
vn 0 0 -1
vn 0 0 -1
vn 0 0 -1
vn 0 0 -1
vn 0 0 -1
vn 0 0 1
vn 0 0 -1
vn 0 0 -1
vn 0 0 -1
vn 0 0 1
vn 0 0 1
vn 0 0 1
vn 0 0 1
vn 0 0 1
vn 0 0 1
vn 0 0 1
vn 0 0 1
vn 0 0 -1
vn 0 0 -1
vn 0 0 -1
vn 0 0 -1
vn 0 0 -1
vn 0 0 -1
vn 0 0 1
vn 0 0 1
vn 0 0 1
vn 0 0 1
vn 0 0 1
vn 0 0 1
vn -0.9570686653224139 -0.28986129417011447 0
vn 0 0 -1
vn 0 0 -1
vn -1 0 0
vn 0 0 1
vn 0 0 1
vn 0 0 -1
vn -0.9103739889838337 -0.41378641855631576 0
vn 0.8976555123477167 0.4406978342943821 0
vn 0.603871280807 0.7970818503870939 0
vn 0.9228111605676018 -0.38525259497098235 0
vn 0.9893699428356938 -0.1454204807215829 0
vn -0.9030571877099219 -0.42952033214441293 0
vn -0.19160670338813662 -0.9814717882938514 0
vn 0 0.9238809119558157 0.3826801020744229
vn -0.9410952664635971 0.33814153758420645 0
vn 0.7369132469469335 -0.6759873271549754 0
vn 0.057561230273638936 0.9983419778659943 0
vn 0.39317977729555403 0.9194616156892133 0
vn -0.440676299703457 0.8976660842872861 0
vn -0.28535022628509316 0.9584233137601809 0
vn 0.8976536513932714 0.44070162484421055 0
vn -0.5326528597795595 -0.8463338176917291 0
vn 0.8717954964616822 -0.4898699953550221 0
vn -1 0 0
vn 0 -1 0
vn 0.9582502186435934 0.28593096801414464 0
vn -0.9588148468914686 -0.2840318457153876 0
vn 0.8791304367252959 0.47658123675108194 0
vn -0.900995070017384 0.43382932566202764 0
vn -0.8539353687351225 -0.5203790791559655 0
vn 0.789091176263358 -0.6142760906492374 0
vn -0.8806700783442467 -0.47373010576607705 0
vn 0 -0.3826910810822645 -0.9238763642718045
vn -0.9402707811896646 0.34042746369965254 0
vn 0 0.38268653340481035 0.9238782480124799
vn -0.8776657261400731 -0.47927327607432757 0
vn -0.15295427138996334 -0.9882332674341445 0
vn -0.5252369701734053 0.8509560065967343 0
vn 0 0.38268653340481035 -0.9238782480124799
vn -0.7626161117544697 0.6468513477550265 0
vn 0 -0.9238763642718045 0.3826910810822645
vn -0.01096068061254011 0.9999399299360487 0
vn 0.19321501640866381 0.9811564388180918 0
vn 0.36945957293605736 -0.929246804657356 0
vn 0 -0.3826910810822645 0.9238763642718045
vn -1 0 0
vn -1 0 0
vn 0 0 -1
vn -1 0 0
vn -1 0 0
vn -0.7368704001390496 0.6760340327224044 0
usemtl none
f 1/1/1 2/2/1 3/3/1 4/4/1
f 4/5/2 5/6/2 6/7/2 1/8/2
f 7/9/3 3/10/3 2/11/3 8/12/3
f 9/13/4 10/14/4 11/15/4 12/16/4
f 13/17/5 14/18/5 15/19/5 16/20/5
f 17/21/6 15/22/6 14/23/6 18/24/6
f 19/25/7 20/26/7 21/27/7 22/28/7
f 23/29/8 24/30/8 25/31/8 26/32/8
f 27/33/9 13/34/9 16/35/9 28/36/9
f 29/37/10 30/38/10 31/39/10 32/40/10
f 28/41/11 33/42/11 34/43/11 27/44/11
f 31/45/12 6/46/12 5/47/12 32/48/12
f 22/49/13 7/50/13 8/51/13 19/52/13
f 18/53/14 35/54/14 36/55/14 17/56/14
f 29/57/15 21/58/15 20/59/15 30/60/15
f 11/61/16 36/62/16 35/63/16 12/64/16
f 37/65/17 38/66/17 39/67/17 40/68/17
f 41/69/18 42/70/18 43/71/18 44/72/18
f 28/73/19 7/74/19 22/75/19 33/76/19
f 4/77/20 15/78/20 17/79/20 5/80/20
f 45/81/21 46/82/21 47/83/21 48/84/21
f 49/85/22 50/86/22 51/87/22 52/88/22
f 53/89/23 54/90/23 55/91/23 56/92/23
f 57/93/24 58/94/24 59/95/24 60/96/24
f 61/97/25 62/98/25 63/99/25 64/100/25
f 65/101/26 66/102/26 62/103/26 61/104/26
f 67/105/27 68/106/27 69/107/27 70/108/27
f 9/109/28 34/110/28 33/111/28 10/112/28
f 48/113/29 47/114/29 71/115/29
f 71/116/30 47/117/30 72/118/30
f 46/119/31 45/120/31 73/121/31
f 73/122/32 45/123/32 74/124/32
f 75/125/33 76/126/33 77/127/33 78/128/33
f 79/129/34 80/130/34 81/131/34 82/132/34
f 83/133/35 49/134/35 52/135/35 84/136/35
f 85/137/36 86/138/36 87/139/36 88/140/36
f 80/141/37 89/142/37 90/143/37 81/144/37
f 91/145/38 92/146/38 93/147/38 94/148/38
f 95/149/39 96/150/39 66/151/39 65/152/39
f 97/153/40 98/154/40 99/155/40 100/156/40
f 101/157/41 102/158/41 103/159/41 104/160/41
f 105/161/42 106/162/42 107/163/42 108/164/42
f 109/165/43 110/166/43 54/167/43 53/168/43
f 64/169/44 63/170/44 111/171/44 112/172/44
f 113/173/45 114/174/45 110/175/45 109/176/45
f 115/177/46 116/178/46 117/179/46 118/180/46
f 119/181/47 120/182/47 121/183/47 122/184/47
f 120/185/48 123/186/48 124/187/48 121/188/48
f 125/189/49 114/190/49 113/191/49 126/192/49
f 127/193/50 128/194/50 129/195/50 130/196/50
f 131/197/51 132/198/51 76/199/51 75/200/51
f 133/201/52 134/202/52 135/203/52 136/204/52
f 129/205/53 137/206/53 138/207/53 130/208/53
f 139/209/54 140/210/54 141/211/54 142/212/54
f 143/213/55 41/214/55 44/215/55 144/216/55
f 136/217/56 135/218/56 86/219/56 85/220/56
f 137/221/57 57/222/57 60/223/57 138/224/57
f 40/225/58 114/226/58 37/227/58
f 114/228/59 145/229/59 37/230/59
f 55/231/60 114/232/60 40/233/60
f 110/234/61 114/235/61 55/236/61
f 110/237/62 55/238/62 54/239/62
f 145/240/63 114/241/63 125/242/63
f 125/243/64 146/244/64 145/245/64
f 125/246/65 147/247/65 146/248/65
f 148/249/66 113/250/66 38/251/66
f 38/252/67 113/253/67 39/254/67
f 113/255/68 56/256/68 39/257/68
f 56/258/69 113/259/69 109/260/69
f 109/261/70 53/262/70 56/263/70
f 148/264/71 126/265/71 113/266/71
f 126/267/72 148/268/72 149/269/72
f 126/270/73 149/271/73 150/272/73
f 106/273/74 68/274/74 107/275/74
f 106/276/75 69/277/75 68/278/75
f 151/279/76 69/280/76 106/281/76
f 69/282/77 151/283/77 152/284/77
f 151/285/78 99/286/78 152/287/78
f 152/288/79 99/289/79 153/290/79
f 99/291/80 98/292/80 153/293/80
f 154/294/81 70/295/81 155/296/81
f 70/297/82 154/298/82 105/299/82
f 105/300/83 67/301/83 70/302/83
f 105/303/84 108/304/84 67/305/84
f 155/306/85 100/307/85 154/308/85
f 100/309/86 155/310/86 156/311/86
f 100/312/87 156/313/87 97/314/87
f 137/315/88 142/316/88 57/317/88
f 57/318/89 142/319/89 141/320/89
f 57/321/90 141/322/90 58/323/90
f 137/324/91 157/325/91 142/326/91
f 137/327/92 129/328/92 157/329/92
f 129/330/93 158/331/93 157/332/93
f 128/333/94 158/334/94 129/335/94
f 158/336/95 128/337/95 159/338/95
f 159/339/96 128/340/96 160/341/96
f 91/342/97 159/343/97 160/344/97
f 91/345/98 160/346/98 161/347/98
f 92/348/99 91/349/99 161/350/99
f 138/351/100 162/352/100 130/353/100
f 163/354/101 130/355/101 162/356/101
f 162/357/102 138/358/102 139/359/102
f 130/360/103 163/361/103 127/362/103
f 139/363/104 138/364/104 60/365/104
f 139/366/105 60/367/105 140/368/105
f 60/369/106 59/370/106 140/371/106
f 163/372/107 164/373/107 127/374/107
f 127/375/108 164/376/108 165/377/108
f 165/378/109 164/379/109 94/380/109
f 165/381/110 94/382/110 166/383/110
f 93/384/111 166/385/111 94/386/111
f 104/387/112 167/388/112 101/389/112
f 101/390/113 167/391/113 168/392/113
f 95/393/114 168/394/114 167/395/114
f 65/396/115 168/397/115 95/398/115
f 61/399/116 168/400/116 65/401/116
f 168/402/117 61/403/117 169/404/117
f 112/405/118 169/406/118 61/407/118
f 61/408/119 64/409/119 112/410/119
f 111/411/120 62/412/120 170/413/120
f 62/414/121 111/415/121 63/416/121
f 62/417/122 171/418/122 170/419/122
f 171/420/123 62/421/123 66/422/123
f 171/423/124 66/424/124 96/425/124
f 172/426/125 171/427/125 96/428/125
f 171/429/126 172/430/126 102/431/126
f 172/432/127 103/433/127 102/434/127
f 84/435/128 52/436/128 43/437/128
f 44/438/129 43/439/129 52/440/129
f 44/441/130 52/442/130 51/443/130
f 82/444/131 44/445/131 51/446/131
f 44/447/132 82/448/132 144/449/132
f 123/450/133 80/451/133 79/452/133 143/453/133
f 81/454/134 121/455/134 124/456/134
f 121/457/135 81/458/135 90/459/135
f 90/460/136 122/461/136 121/462/136
f 41/463/137 49/464/137 42/465/137
f 49/466/138 83/467/138 42/468/138
f 49/469/139 41/470/139 50/471/139
f 41/472/140 79/473/140 50/474/140
f 79/475/141 41/476/141 143/477/141
f 120/478/142 80/479/142 123/480/142
f 80/481/143 120/482/143 89/483/143
f 119/484/144 89/485/144 120/486/144
f 88/487/145 75/488/145 78/489/145
f 133/490/146 88/491/146 78/492/146
f 173/493/147 75/494/147 88/495/147
f 75/496/148 173/497/148 131/498/148
f 88/499/149 133/500/149 85/501/149
f 85/502/150 133/503/150 136/504/150
f 87/505/151 134/506/151 77/507/151
f 76/508/152 87/509/152 77/510/152
f 134/511/153 87/512/153 86/513/153
f 86/514/154 135/515/154 134/516/154
f 87/517/155 76/518/155 174/519/155
f 132/520/156 174/521/156 76/522/156
f 112/523/157 111/524/157 170/525/157 169/526/157
f 175/527/158 118/528/158 176/529/158
f 117/530/159 176/531/159 118/532/159
f 177/533/160 178/534/160 179/535/160 180/536/160
f 26/537/161 116/538/161 115/539/161
f 115/540/162 23/541/162 26/542/162
f 181/543/163 175/544/163 176/545/163 182/546/163
f 70/547/164 69/548/164 152/549/164 155/550/164
f 173/551/165 174/552/165 132/553/165 131/554/165
f 166/555/166 161/556/166 160/557/166 165/558/166
f 154/559/167 151/560/167 106/561/167 105/562/167
f 123/563/168 143/564/168 144/565/168 124/566/168
f 42/567/169 83/568/169 84/569/169 43/570/169
f 156/571/170 153/572/170 98/573/170 97/574/170
f 33/575/171 22/576/171 21/577/171 10/578/171
f 50/579/172 79/580/172 82/581/172 51/582/172
f 116/583/173 26/584/173 176/585/173 117/586/173
f 127/587/174 165/588/174 160/589/174 128/590/174
f 150/591/175 147/592/175 125/593/175 126/594/175
f 88/595/176 87/596/176 174/597/176 173/598/176
f 169/599/177 170/600/177 171/601/177 168/602/177
f 89/603/178 119/604/178 122/605/178 90/606/178
f 155/607/179 152/608/179 153/609/179 156/610/179
f 158/611/180 159/612/180 164/613/180 163/614/180
f 25/615/181 24/616/181 181/617/181 182/618/181
f 26/619/182 25/620/182 182/621/182 176/622/182
f 168/623/183 171/624/183 102/625/183 101/626/183
f 104/627/184 103/628/184 172/629/184 167/630/184
f 93/631/185 92/632/185 161/633/185 166/634/185
f 146/635/186 147/636/186 150/637/186 149/638/186
f 167/639/187 172/640/187 96/641/187 95/642/187
f 78/643/188 77/644/188 134/645/188 133/646/188
f 159/647/189 91/648/189 94/649/189 164/650/189
f 3/651/190 16/652/190 15/653/190 4/654/190
f 108/655/191 107/656/191 68/657/191 67/658/191
f 10/659/192 21/660/192 29/661/192 11/662/192
f 140/663/193 59/664/193 58/665/193 141/666/193
f 139/667/194 142/668/194 157/669/194 162/670/194
f 145/671/195 148/672/195 38/673/195 37/674/195
f 16/675/196 3/676/196 7/677/196 28/678/196
f 146/679/197 149/680/197 148/681/197 145/682/197
f 5/683/198 17/684/198 36/685/198 32/686/198
f 40/687/199 39/688/199 56/689/199 55/690/199
f 99/691/200 151/692/200 154/693/200 100/694/200
f 162/695/201 157/696/201 158/697/201 163/698/201
f 32/699/202 36/700/202 11/701/202 29/702/202
f 180/703/203 183/704/203 184/705/203
f 180/706/204 179/707/204 183/708/204
f 81/709/205 124/710/205 144/711/205 82/712/205
f 177/713/206 180/714/206 185/715/206
f 178/716/207 177/717/207 186/718/207
f 23/719/208 115/720/208 118/721/208 175/722/208